# Blender v2.81 (sub 16) OBJ File: ''
# www.blender.org
mtllib 10-Pin Shrouded Header (IDC) Straight.mtl
o 10-Pin_Shrouded_Header_(IDC)_Straight
v 0.000358 0.000331 0.006704
v 0.000358 0.000330 0.006703
v 0.000358 0.000330 -0.006703
v 0.000358 0.000331 -0.006704
v 0.000358 0.000332 0.006704
v 0.000358 0.000333 -0.006704
v 0.000358 0.000334 0.006705
v 0.000358 0.000335 -0.006705
v 0.000358 0.000336 0.006706
v 0.000357 0.000336 -0.006707
v 0.000357 0.000338 0.006709
v 0.000357 0.000338 -0.006709
v 0.000356 0.000342 -0.006714
v 0.000354 0.000344 0.006719
v 0.000353 0.000346 -0.006724
v 0.000350 0.000350 0.006737
v 0.000350 0.000350 -0.006737
v 0.000346 0.000353 0.006724
v 0.000344 0.000354 -0.006719
v 0.000342 0.000356 0.006714
v 0.000338 0.000357 -0.006709
v 0.000338 0.000357 0.006709
v 0.000336 0.000357 0.006707
v 0.000336 0.000358 -0.006706
v 0.000335 0.000358 0.006705
v 0.000334 0.000358 -0.006705
v 0.000333 0.000358 0.006704
v 0.000332 0.000358 -0.006704
v 0.000331 0.000358 0.006704
v 0.000331 0.000358 -0.006704
v 0.000330 0.000358 0.006703
v 0.000330 0.000358 -0.006703
v -0.000330 0.000358 0.006703
v -0.000336 0.000358 0.006706
v -0.000338 0.000357 0.006709
v -0.000334 0.000358 0.006705
v -0.000332 0.000358 0.006704
v -0.000331 0.000358 0.006704
v -0.000344 0.000354 0.006719
v -0.000350 0.000350 0.006737
v 0.000215 0.000215 0.007276
v -0.000215 0.000215 0.007276
v -0.000330 0.000358 -0.006703
v -0.000333 0.000358 -0.006704
v -0.000331 0.000358 -0.006704
v -0.000335 0.000358 -0.006705
v -0.000336 0.000357 -0.006707
v -0.000338 0.000357 -0.006709
v -0.000342 0.000356 -0.006714
v -0.000346 0.000353 -0.006724
v -0.000350 0.000350 -0.006737
v 0.000215 0.000215 -0.007276
v -0.000215 0.000215 -0.007276
v 0.000358 -0.000331 -0.006704
v 0.000358 -0.000330 -0.006703
v 0.000358 -0.000330 0.006703
v 0.000358 -0.000331 0.006704
v 0.000358 -0.000332 -0.006704
v 0.000358 -0.000333 0.006704
v 0.000358 -0.000334 -0.006705
v 0.000358 -0.000335 0.006705
v 0.000358 -0.000336 -0.006706
v 0.000357 -0.000336 0.006707
v 0.000357 -0.000338 -0.006709
v 0.000357 -0.000338 0.006709
v 0.000356 -0.000342 0.006714
v 0.000354 -0.000344 -0.006719
v 0.000353 -0.000346 0.006724
v 0.000350 -0.000350 -0.006737
v 0.000350 -0.000350 0.006737
v 0.000346 -0.000353 -0.006724
v 0.000344 -0.000354 0.006719
v 0.000342 -0.000356 -0.006714
v 0.000338 -0.000357 0.006709
v 0.000338 -0.000357 -0.006709
v 0.000336 -0.000357 -0.006707
v 0.000336 -0.000358 0.006706
v 0.000335 -0.000358 -0.006705
v 0.000334 -0.000358 0.006705
v 0.000333 -0.000358 -0.006704
v 0.000332 -0.000358 0.006704
v 0.000331 -0.000358 -0.006704
v 0.000331 -0.000358 0.006704
v 0.000330 -0.000358 -0.006703
v 0.000330 -0.000358 0.006703
v -0.000330 -0.000358 -0.006703
v -0.000336 -0.000358 -0.006706
v -0.000338 -0.000357 -0.006709
v -0.000334 -0.000358 -0.006705
v -0.000332 -0.000358 -0.006704
v -0.000331 -0.000358 -0.006704
v -0.000344 -0.000354 -0.006719
v -0.000350 -0.000350 -0.006737
v 0.000215 -0.000215 -0.007276
v -0.000215 -0.000215 -0.007276
v -0.000330 -0.000358 0.006703
v -0.000333 -0.000358 0.006704
v -0.000331 -0.000358 0.006704
v -0.000335 -0.000358 0.006705
v -0.000336 -0.000357 0.006707
v -0.000338 -0.000357 0.006709
v -0.000342 -0.000356 0.006714
v -0.000346 -0.000353 0.006724
v -0.000350 -0.000350 0.006737
v 0.000215 -0.000215 0.007276
v -0.000215 -0.000215 0.007276
v -0.000358 0.000331 -0.006704
v -0.000358 0.000330 -0.006703
v -0.000358 0.000330 0.006703
v -0.000358 0.000331 0.006704
v -0.000358 0.000332 -0.006704
v -0.000358 0.000333 0.006704
v -0.000358 0.000334 -0.006705
v -0.000358 0.000335 0.006705
v -0.000358 0.000336 -0.006706
v -0.000357 0.000336 0.006707
v -0.000357 0.000338 -0.006709
v -0.000357 0.000338 0.006709
v -0.000356 0.000342 0.006714
v -0.000354 0.000344 -0.006719
v -0.000353 0.000346 0.006724
v -0.000358 -0.000331 0.006704
v -0.000358 -0.000330 0.006703
v -0.000358 -0.000330 -0.006703
v -0.000358 -0.000331 -0.006704
v -0.000358 -0.000332 0.006704
v -0.000358 -0.000333 -0.006704
v -0.000358 -0.000334 0.006705
v -0.000358 -0.000335 -0.006705
v -0.000358 -0.000336 0.006706
v -0.000357 -0.000336 -0.006707
v -0.000357 -0.000338 0.006709
v -0.000357 -0.000338 -0.006709
v -0.000356 -0.000342 -0.006714
v -0.000354 -0.000344 0.006719
v -0.000353 -0.000346 -0.006724
vn 0.9996 0.0274 -0.0000
vn 0.9998 0.0215 0.0000
vn 0.9997 0.0233 -0.0000
vn 0.9996 0.0294 -0.0000
vn 0.9961 0.0882 -0.0000
vn 0.9980 0.0637 -0.0000
vn 0.9891 0.1470 -0.0000
vn 0.9937 0.1119 0.0000
vn 0.9789 0.2045 -0.0000
vn 0.9845 0.1755 0.0000
vn 0.9634 0.2680 0.0000
vn 0.9648 0.2631 -0.0000
vn 0.9625 0.2713 -0.0000
vn 0.9312 0.3645 0.0000
vn 0.9658 0.2595 0.0000
vn 0.8676 0.4972 -0.0000
vn 0.9141 0.4055 0.0000
vn 0.7669 0.6418 0.0000
vn 0.7934 0.6086 0.0000
vn 0.6086 0.7934 -0.0000
vn 0.6421 0.7666 0.0000
vn 0.4055 0.9141 -0.0000
vn 0.4973 0.8676 0.0000
vn 0.3645 0.9312 -0.0000
vn 0.2629 0.9648 0.0000
vn 0.2679 0.9634 -0.0000
vn 0.2595 0.9657 -0.0000
vn 0.2712 0.9625 0.0000
vn 0.1755 0.9845 -0.0000
vn 0.2046 0.9788 0.0000
vn 0.1119 0.9937 -0.0000
vn 0.1470 0.9891 0.0000
vn 0.0633 0.9980 -0.0000
vn 0.0882 0.9961 0.0000
vn 0.0236 0.9997 0.0000
vn 0.0271 0.9996 0.0000
vn 0.0214 0.9998 0.0000
vn 0.0294 0.9996 0.0000
vn -0.0000 0.9702 0.2425
vn 0.0003 0.9701 0.2428
vn -0.0001 0.9702 0.2425
vn -0.0004 0.9702 0.2421
vn -0.0002 0.9701 0.2427
vn -0.0005 0.9699 0.2436
vn 0.0000 0.9701 0.2425
vn 0.0001 0.9704 0.2414
vn 0.0001 0.9702 0.2423
vn 0.0002 0.9702 0.2422
vn -0.0001 0.9701 0.2426
vn 0.0000 1.0000 0.0000
vn 0.0000 0.9701 -0.2425
vn 0.0004 0.9703 -0.2420
vn 0.0000 0.9702 -0.2421
vn -0.0003 0.9702 -0.2421
vn 0.0001 0.9701 -0.2426
vn -0.0000 0.9702 -0.2425
vn 0.0005 0.9702 -0.2421
vn 0.0004 0.9699 -0.2435
vn 0.0004 0.9704 -0.2417
vn -0.0001 0.9701 -0.2426
vn 0.9996 -0.0270 0.0000
vn 0.9998 -0.0215 -0.0000
vn 0.9997 -0.0235 0.0000
vn 0.9996 -0.0294 0.0000
vn 0.9961 -0.0882 0.0000
vn 0.9980 -0.0637 0.0000
vn 0.9891 -0.1471 0.0000
vn 0.9937 -0.1119 -0.0000
vn 0.9789 -0.2044 0.0000
vn 0.9845 -0.1755 -0.0000
vn 0.9634 -0.2679 -0.0000
vn 0.9648 -0.2630 0.0000
vn 0.9625 -0.2713 0.0000
vn 0.9312 -0.3645 -0.0000
vn 0.9657 -0.2595 -0.0000
vn 0.8676 -0.4972 0.0000
vn 0.9141 -0.4055 -0.0000
vn 0.7669 -0.6418 -0.0000
vn 0.7934 -0.6086 -0.0000
vn 0.6086 -0.7934 0.0000
vn 0.6421 -0.7666 -0.0000
vn 0.4055 -0.9141 0.0000
vn 0.4973 -0.8676 -0.0000
vn 0.3645 -0.9312 0.0000
vn 0.2629 -0.9648 -0.0000
vn 0.2679 -0.9634 0.0000
vn 0.2595 -0.9657 0.0000
vn 0.2712 -0.9625 -0.0000
vn 0.1755 -0.9845 0.0000
vn 0.2046 -0.9788 -0.0000
vn 0.1119 -0.9937 0.0000
vn 0.1470 -0.9891 -0.0000
vn 0.0633 -0.9980 0.0000
vn 0.0882 -0.9961 -0.0000
vn 0.0236 -0.9997 -0.0000
vn 0.0271 -0.9996 -0.0000
vn 0.0211 -0.9998 -0.0000
vn 0.0294 -0.9996 -0.0000
vn -0.0000 -0.9702 -0.2425
vn 0.0002 -0.9701 -0.2426
vn -0.0001 -0.9702 -0.2425
vn -0.0000 -0.9703 -0.2421
vn -0.0003 -0.9703 -0.2421
vn -0.0004 -0.9701 -0.2428
vn 0.0000 -0.9701 -0.2425
vn -0.0004 -0.9703 -0.2419
vn 0.0001 -0.9702 -0.2423
vn 0.0003 -0.9702 -0.2422
vn 0.0003 -0.9702 -0.2421
vn -0.0001 -0.9701 -0.2426
vn 0.0000 -1.0000 -0.0000
vn -0.0000 -0.9701 0.2425
vn -0.0001 -0.9704 0.2414
vn 0.0003 -0.9702 0.2425
vn 0.0000 -0.9702 0.2424
vn -0.0002 -0.9702 0.2422
vn 0.0001 -0.9701 0.2426
vn -0.0000 -0.9702 0.2425
vn 0.0002 -0.9702 0.2423
vn 0.0003 -0.9697 0.2444
vn 0.0004 -0.9702 0.2422
vn -0.0003 -0.9701 0.2428
vn -0.9996 0.0272 0.0000
vn -0.9998 0.0215 0.0000
vn -0.9997 0.0233 0.0000
vn -0.9996 0.0294 0.0000
vn -0.9961 0.0882 0.0000
vn -0.9980 0.0633 -0.0000
vn -0.9892 0.1464 0.0000
vn -0.9937 0.1120 -0.0000
vn -0.9787 0.2051 0.0000
vn -0.9845 0.1755 -0.0000
vn -0.9634 0.2679 -0.0000
vn -0.9648 0.2631 0.0000
vn -0.9625 0.2713 0.0000
vn -0.9312 0.3645 -0.0000
vn -0.9657 0.2595 -0.0000
vn -0.8676 0.4972 0.0000
vn -0.9141 0.4055 -0.0000
vn -0.7668 0.6419 0.0000
vn -0.7934 0.6087 -0.0000
vn -0.6087 0.7934 0.0000
vn -0.6419 0.7668 0.0000
vn -0.4055 0.9141 0.0000
vn -0.4972 0.8676 -0.0000
vn -0.3645 0.9312 0.0000
vn -0.2629 0.9648 -0.0000
vn -0.2680 0.9634 0.0000
vn -0.2595 0.9657 0.0000
vn -0.2713 0.9625 -0.0000
vn -0.1755 0.9845 0.0000
vn -0.2045 0.9789 -0.0000
vn -0.1119 0.9937 0.0000
vn -0.1470 0.9891 -0.0000
vn -0.0633 0.9980 0.0000
vn -0.0882 0.9961 -0.0000
vn -0.0236 0.9997 -0.0000
vn -0.0271 0.9996 -0.0000
vn -0.0214 0.9998 0.0000
vn -0.0294 0.9996 -0.0000
vn -0.9996 -0.0268 -0.0000
vn -0.9998 -0.0210 -0.0000
vn -0.9997 -0.0235 -0.0000
vn -0.9996 -0.0294 -0.0000
vn -0.9961 -0.0882 -0.0000
vn -0.9980 -0.0633 0.0000
vn -0.9892 -0.1463 -0.0000
vn -0.9937 -0.1120 0.0000
vn -0.9787 -0.2051 -0.0000
vn -0.9845 -0.1755 0.0000
vn -0.9635 -0.2677 0.0000
vn -0.9648 -0.2631 -0.0000
vn -0.9625 -0.2713 -0.0000
vn -0.9312 -0.3645 0.0000
vn -0.9658 -0.2595 0.0000
vn -0.8676 -0.4972 -0.0000
vn -0.9141 -0.4055 0.0000
vn -0.7668 -0.6419 -0.0000
vn -0.7934 -0.6087 0.0000
vn -0.6087 -0.7934 -0.0000
vn -0.6419 -0.7668 -0.0000
vn -0.4055 -0.9141 -0.0000
vn -0.4972 -0.8676 0.0000
vn -0.3645 -0.9312 -0.0000
vn -0.2629 -0.9648 0.0000
vn -0.2679 -0.9634 -0.0000
vn -0.2595 -0.9657 -0.0000
vn -0.2713 -0.9625 0.0000
vn -0.1755 -0.9845 -0.0000
vn -0.2045 -0.9789 0.0000
vn -0.1119 -0.9937 -0.0000
vn -0.1470 -0.9891 0.0000
vn -0.0633 -0.9980 -0.0000
vn -0.0882 -0.9961 0.0000
vn -0.0236 -0.9997 0.0000
vn -0.0271 -0.9996 0.0000
vn -0.0211 -0.9998 -0.0000
vn -0.0294 -0.9996 0.0000
vn 0.9702 -0.0000 -0.2424
vn 0.9701 0.0000 -0.2427
vn 0.9702 -0.0001 -0.2425
vn 0.9703 -0.0002 -0.2418
vn 0.9703 0.0003 -0.2418
vn 0.9702 0.0002 -0.2422
vn 0.9701 -0.0000 -0.2425
vn 0.9699 -0.0003 -0.2437
vn 0.9700 0.0001 -0.2429
vn 0.9701 0.0000 -0.2426
vn 0.9703 0.0004 -0.2418
vn 0.9702 0.0001 -0.2422
vn 0.9702 -0.0000 -0.2425
vn 0.9701 -0.0001 -0.2426
vn 0.9701 0.0001 -0.2425
vn 0.0000 0.0000 -1.0000
vn -0.9701 0.0000 -0.2426
vn -0.9702 0.0001 -0.2424
vn -0.9701 -0.0001 -0.2429
vn -0.9703 -0.0003 -0.2420
vn -0.9702 0.0001 -0.2425
vn -0.9702 -0.0000 -0.2425
vn -0.9702 -0.0004 -0.2423
vn -0.9701 0.0001 -0.2426
vn -0.9701 -0.0000 -0.2425
vn -0.9701 -0.0001 -0.2426
vn -0.9700 0.0001 -0.2429
vn -0.9699 -0.0003 -0.2436
vn -0.9704 0.0004 -0.2415
vn -0.9700 -0.0001 -0.2431
vn -1.0000 0.0000 0.0000
vn 0.0000 0.0000 1.0000
vn -0.9701 0.0002 0.2429
vn -0.9702 -0.0000 0.2424
vn -0.9702 -0.0001 0.2425
vn -0.9703 -0.0003 0.2420
vn -0.9699 0.0002 0.2435
vn -0.9707 0.0003 0.2403
vn -0.9701 0.0001 0.2426
vn -0.9701 0.0000 0.2425
vn -0.9702 0.0001 0.2424
vn -0.9700 0.0005 0.2431
vn -0.9701 -0.0000 0.2426
vn -0.9702 0.0001 0.2423
vn -0.9701 -0.0001 0.2426
vn -0.9702 0.0000 0.2425
vn -0.9702 0.0003 0.2424
vn 0.9701 -0.0000 0.2425
vn 0.9702 -0.0001 0.2424
vn 0.9699 0.0000 0.2437
vn 0.9701 -0.0001 0.2429
vn 0.9703 -0.0002 0.2420
vn 0.9702 0.0000 0.2425
vn 0.9701 0.0001 0.2426
vn 0.9701 -0.0001 0.2425
vn 0.9702 0.0000 0.2424
vn 0.9710 -0.0002 0.2393
vn 0.9702 0.0001 0.2422
vn 0.9702 0.0001 0.2425
vn 0.9701 -0.0001 0.2427
vn 1.0000 0.0000 0.0000
usemtl material_1.139
s 1
f 1//1 2//2 3//3
f 1//1 3//3 4//4
f 5//5 4//5 6//5
f 5//6 1//6 4//6
f 7//7 6//7 8//7
f 7//8 5//8 6//8
f 9//9 8//9 10//9
f 9//10 7//10 8//10
f 11//11 10//12 12//13
f 11//14 12//14 13//14
f 11//11 9//15 10//12
f 14//16 13//16 15//16
f 14//17 11//17 13//17
f 16//18 15//18 17//18
f 16//19 14//19 15//19
f 18//20 17//20 19//20
f 18//21 16//21 17//21
f 20//22 19//22 21//22
f 20//23 18//23 19//23
f 22//24 20//24 21//24
f 23//25 21//26 24//27
f 23//25 22//28 21//26
f 25//29 24//29 26//29
f 25//30 23//30 24//30
f 27//31 26//31 28//31
f 27//32 25//32 26//32
f 29//33 28//33 30//33
f 29//34 27//34 28//34
f 31//35 30//36 32//37
f 31//35 29//38 30//36
usemtl material_0.142
f 33//39 34//40 35//41
f 33//39 36//42 34//40
f 33//39 37//43 36//42
f 33//39 38//44 37//43
f 39//39 33//39 35//41
f 40//45 33//39 39//39
f 27//46 29//47 31//45
f 25//45 27//46 31//45
f 23//48 25//45 31//45
f 22//45 23//48 31//45
f 20//49 22//45 31//45
f 18//39 20//49 31//45
f 16//45 31//45 33//39
f 16//45 33//39 40//45
f 16//45 18//39 31//45
f 41//45 40//45 42//45
f 41//45 16//45 40//45
f 31//50 32//50 43//50
f 31//50 43//50 33//50
f 43//51 44//52 45//53
f 43//51 46//51 44//52
f 43//51 47//54 46//51
f 43//51 48//51 47//54
f 43//51 49//55 48//51
f 43//51 50//56 49//55
f 43//51 51//51 50//56
f 17//51 52//51 53//51
f 17//51 53//51 51//51
f 32//56 19//56 17//51
f 32//56 51//51 43//51
f 32//56 17//51 51//51
f 28//57 32//56 30//58
f 26//59 32//56 28//57
f 21//56 19//56 32//56
f 24//60 21//56 32//56
f 24//60 32//56 26//59
f 54//61 55//62 56//63
f 54//61 56//63 57//64
f 58//65 57//65 59//65
f 58//66 54//66 57//66
f 60//67 59//67 61//67
f 60//68 58//68 59//68
f 62//69 61//69 63//69
f 62//70 60//70 61//70
f 64//71 63//72 65//73
f 64//74 65//74 66//74
f 64//71 62//75 63//72
f 67//76 66//76 68//76
f 67//77 64//77 66//77
f 69//78 68//78 70//78
f 69//79 67//79 68//79
f 71//80 70//80 72//80
f 71//81 69//81 70//81
f 73//82 72//82 74//82
f 73//83 71//83 72//83
f 75//84 73//84 74//84
f 76//85 74//86 77//87
f 76//85 75//88 74//86
f 78//89 77//89 79//89
f 78//90 76//90 77//90
f 80//91 79//91 81//91
f 80//92 78//92 79//92
f 82//93 81//93 83//93
f 82//94 80//94 81//94
f 84//95 83//96 85//97
f 84//95 82//98 83//96
f 86//99 87//100 88//101
f 86//99 89//102 87//100
f 86//99 90//103 89//102
f 86//99 91//104 90//103
f 92//99 86//99 88//101
f 93//105 86//99 92//99
f 80//106 82//107 84//105
f 78//108 80//106 84//105
f 76//109 78//108 84//105
f 75//105 76//109 84//105
f 73//110 75//105 84//105
f 71//99 73//110 84//105
f 69//105 84//105 86//99
f 69//105 86//99 93//105
f 69//105 71//99 84//105
f 94//105 93//105 95//105
f 94//105 69//105 93//105
f 84//111 85//111 96//111
f 84//111 96//111 86//111
f 96//112 97//113 98//114
f 96//112 99//115 97//113
f 96//112 100//116 99//115
f 96//112 101//112 100//116
f 96//112 102//117 101//112
f 96//112 103//118 102//117
f 96//112 104//112 103//118
f 70//112 105//112 106//112
f 70//112 106//112 104//112
f 85//118 72//118 70//112
f 85//118 104//112 96//112
f 85//118 70//112 104//112
f 81//119 85//118 83//120
f 79//121 85//118 81//119
f 74//118 72//118 85//118
f 77//122 74//118 85//118
f 77//122 85//118 79//121
f 107//123 108//124 109//125
f 107//123 109//125 110//126
f 111//127 110//127 112//127
f 111//128 107//128 110//128
f 113//129 112//129 114//129
f 113//130 111//130 112//130
f 115//131 114//131 116//131
f 115//132 113//132 114//132
f 117//133 116//134 118//135
f 117//136 118//136 119//136
f 117//133 115//137 116//134
f 120//138 119//138 121//138
f 120//139 117//139 119//139
f 51//140 121//140 40//140
f 51//141 120//141 121//141
f 50//142 40//142 39//142
f 50//143 51//143 40//143
f 49//144 39//144 35//144
f 49//145 50//145 39//145
f 48//146 49//146 35//146
f 47//147 35//148 34//149
f 47//147 48//150 35//148
f 46//151 34//151 36//151
f 46//152 47//152 34//152
f 44//153 36//153 37//153
f 44//154 46//154 36//154
f 45//155 37//155 38//155
f 45//156 44//156 37//156
f 43//157 38//158 33//159
f 43//157 45//160 38//158
f 122//161 123//162 124//163
f 122//161 124//163 125//164
f 126//165 125//165 127//165
f 126//166 122//166 125//166
f 128//167 127//167 129//167
f 128//168 126//168 127//168
f 130//169 129//169 131//169
f 130//170 128//170 129//170
f 132//171 131//172 133//173
f 132//174 133//174 134//174
f 132//171 130//175 131//172
f 135//176 134//176 136//176
f 135//177 132//177 134//177
f 104//178 136//178 93//178
f 104//179 135//179 136//179
f 103//180 93//180 92//180
f 103//181 104//181 93//181
f 102//182 92//182 88//182
f 102//183 103//183 92//183
f 101//184 102//184 88//184
f 100//185 88//186 87//187
f 100//185 101//188 88//186
f 99//189 87//189 89//189
f 99//190 100//190 87//190
f 97//191 89//191 90//191
f 97//192 99//192 89//192
f 98//193 90//193 91//193
f 98//194 97//194 90//194
f 96//195 91//196 86//197
f 96//195 98//198 91//196
f 55//199 62//200 64//201
f 55//199 60//202 62//200
f 55//199 58//203 60//202
f 55//199 54//204 58//203
f 67//205 55//199 64//201
f 69//205 55//199 67//205
f 6//206 4//207 3//208
f 8//209 6//206 3//208
f 10//210 8//209 3//208
f 12//211 10//210 3//208
f 13//212 12//211 3//208
f 15//213 13//212 3//208
f 17//205 3//208 55//199
f 17//205 55//199 69//205
f 17//205 15//213 3//208
f 52//205 69//205 94//205
f 52//205 17//205 69//205
f 52//214 94//214 95//214
f 52//214 95//214 53//214
f 124//215 127//216 125//217
f 124//215 129//218 127//216
f 124//215 131//219 129//218
f 124//215 133//220 131//219
f 124//215 134//221 133//220
f 124//215 136//222 134//221
f 124//215 93//215 136//222
f 51//223 53//223 95//223
f 51//223 95//223 93//215
f 108//220 120//224 51//223
f 108//220 93//215 124//215
f 108//220 51//223 93//215
f 111//225 108//220 107//226
f 113//227 108//220 111//225
f 117//219 120//224 108//220
f 115//228 117//219 108//220
f 115//228 108//220 113//227
f 109//229 108//229 124//229
f 109//229 124//229 123//229
f 105//230 41//230 42//230
f 105//230 42//230 106//230
f 123//231 130//232 132//233
f 123//231 128//234 130//232
f 123//231 126//235 128//234
f 123//231 122//236 126//235
f 135//237 123//231 132//233
f 104//238 123//231 135//237
f 112//239 110//240 109//241
f 114//242 112//239 109//241
f 116//243 114//242 109//241
f 118//244 116//243 109//241
f 119//245 118//244 109//241
f 121//243 119//245 109//241
f 40//241 109//241 123//231
f 40//241 104//238 106//238
f 40//241 123//231 104//238
f 40//241 121//243 109//241
f 42//238 40//241 106//238
f 56//246 59//247 57//248
f 56//246 61//249 59//247
f 56//246 63//250 61//249
f 56//246 65//251 63//250
f 56//246 66//252 65//251
f 56//246 68//253 66//252
f 56//246 70//246 68//253
f 16//246 41//246 105//246
f 16//246 105//246 70//246
f 16//246 70//246 56//246
f 2//254 14//246 16//246
f 2//254 16//246 56//246
f 5//254 2//254 1//255
f 7//256 2//254 5//254
f 11//257 14//246 2//254
f 9//258 11//257 2//254
f 9//258 2//254 7//256
f 3//259 2//259 56//259
f 3//259 56//259 55//259
