# Blender v2.81 (sub 16) OBJ File: ''
# www.blender.org
mtllib 10x12.5x5 elektrolit kondenzátor.mtl
o 10x12.5x5_elektrolit_kondenzátor
v 0.000166 -0.002284 -0.007271
v 0.000219 -0.002237 -0.004739
v 0.000166 -0.002284 -0.004739
v 0.000104 -0.002317 -0.007271
v 0.000104 -0.002317 -0.004739
v 0.000036 -0.002333 -0.007271
v 0.000036 -0.002333 -0.004739
v -0.000283 -0.001973 -0.007271
v -0.000292 -0.002043 -0.007271
v -0.000292 -0.002043 -0.004739
v -0.000283 -0.001973 -0.004739
v -0.000035 -0.002333 -0.007271
v -0.000035 -0.002333 -0.004739
v -0.000258 -0.001908 -0.007271
v -0.000258 -0.001908 -0.004739
v -0.000103 -0.002317 -0.007271
v -0.000103 -0.002317 -0.004739
v -0.000218 -0.001850 -0.007271
v -0.000218 -0.001850 -0.004739
v -0.000166 -0.002284 -0.007271
v -0.000166 -0.002284 -0.004739
v -0.000166 -0.001803 -0.007271
v -0.000166 -0.001803 -0.004739
v -0.000218 -0.002237 -0.007271
v -0.000218 -0.002237 -0.004739
v -0.000103 -0.001770 -0.007271
v -0.000103 -0.001770 -0.004739
v -0.000258 -0.002179 -0.007271
v -0.000258 -0.002179 -0.004739
v -0.000283 -0.002113 -0.007271
v -0.000283 -0.002113 -0.004739
v -0.000035 -0.001753 -0.007271
v -0.000035 -0.001753 -0.004739
v 0.000036 -0.001753 -0.007271
v 0.000036 -0.001753 -0.004739
v 0.000104 -0.001770 -0.007271
v 0.000104 -0.001770 -0.004739
v 0.000166 -0.001803 -0.007271
v 0.000166 -0.001803 -0.004739
v 0.000219 -0.001850 -0.007271
v 0.000219 -0.001850 -0.004739
v 0.000259 -0.001908 -0.007271
v 0.000259 -0.001908 -0.004739
v 0.000284 -0.001973 -0.007271
v 0.000284 -0.001973 -0.004739
v 0.000293 -0.002043 -0.007271
v 0.000293 -0.002043 -0.004739
v 0.000284 -0.002113 -0.007271
v 0.000284 -0.002113 -0.004739
v 0.000259 -0.002179 -0.007271
v 0.000259 -0.002179 -0.004739
v 0.000219 -0.002237 -0.007271
v 0.000166 0.002586 -0.007271
v 0.000219 0.002633 -0.004739
v 0.000166 0.002586 -0.004739
v 0.000104 0.002553 -0.007271
v 0.000104 0.002553 -0.004739
v 0.000036 0.002536 -0.007271
v 0.000036 0.002536 -0.004739
v -0.000283 0.002896 -0.007271
v -0.000292 0.002826 -0.007271
v -0.000292 0.002826 -0.004739
v -0.000283 0.002896 -0.004739
v -0.000035 0.002536 -0.007271
v -0.000035 0.002536 -0.004739
v -0.000258 0.002962 -0.007271
v -0.000258 0.002962 -0.004739
v -0.000103 0.002553 -0.007271
v -0.000103 0.002553 -0.004739
v -0.000218 0.003020 -0.007271
v -0.000218 0.003020 -0.004739
v -0.000166 0.002586 -0.007271
v -0.000166 0.002586 -0.004739
v -0.000166 0.003067 -0.007271
v -0.000166 0.003067 -0.004739
v -0.000218 0.002633 -0.007271
v -0.000218 0.002633 -0.004739
v -0.000103 0.003100 -0.007271
v -0.000103 0.003100 -0.004739
v -0.000258 0.002691 -0.007271
v -0.000258 0.002691 -0.004739
v -0.000283 0.002756 -0.007271
v -0.000283 0.002756 -0.004739
v -0.000035 0.003116 -0.007271
v -0.000035 0.003116 -0.004739
v 0.000036 0.003116 -0.007271
v 0.000036 0.003116 -0.004739
v 0.000104 0.003100 -0.007271
v 0.000104 0.003100 -0.004739
v 0.000166 0.003067 -0.007271
v 0.000166 0.003067 -0.004739
v 0.000219 0.003020 -0.007271
v 0.000219 0.003020 -0.004739
v 0.000259 0.002962 -0.007271
v 0.000259 0.002962 -0.004739
v 0.000284 0.002896 -0.007271
v 0.000284 0.002896 -0.004739
v 0.000293 0.002826 -0.007271
v 0.000293 0.002826 -0.004739
v 0.000284 0.002756 -0.007271
v 0.000284 0.002756 -0.004739
v 0.000259 0.002691 -0.007271
v 0.000259 0.002691 -0.004739
v 0.000219 0.002633 -0.007271
v 0.000000 0.000110 0.007241
v -0.003332 -0.001626 0.007241
v -0.003245 -0.001763 0.007241
v -0.003413 -0.001486 0.007241
v -0.000243 0.000532 0.007241
v -0.003489 -0.001342 0.007241
v 0.000244 0.000532 0.007241
v 0.003333 -0.001626 0.007241
v 0.003246 -0.001763 0.007241
v 0.003414 -0.001486 0.007241
v 0.003489 -0.001342 0.007241
v -0.000081 0.004287 0.007241
v -0.000243 0.004280 0.007241
v 0.000082 0.004287 0.007241
v 0.000244 0.004280 0.007241
v 0.000000 0.000110 0.007338
v 0.000950 -0.003387 0.007338
v 0.001842 -0.003042 0.007338
v 0.000000 -0.003504 0.007338
v -0.000949 -0.003387 0.007338
v -0.001841 -0.003042 0.007338
v -0.002622 -0.002489 0.007338
v -0.003245 -0.001763 0.007338
v 0.002623 -0.002489 0.007338
v 0.003246 -0.001763 0.007338
v -0.000243 0.000532 0.007338
v -0.003806 -0.000439 0.007338
v -0.003489 -0.001342 0.007338
v -0.003894 0.000513 0.007338
v -0.003746 0.001459 0.007338
v -0.003373 0.002339 0.007338
v -0.002797 0.003103 0.007338
v -0.002052 0.003703 0.007338
v -0.001183 0.004103 0.007338
v -0.000243 0.004280 0.007338
v 0.003807 -0.000439 0.007338
v 0.000244 0.000532 0.007338
v 0.003489 -0.001342 0.007338
v 0.003894 0.000513 0.007338
v 0.003747 0.001459 0.007338
v 0.001184 0.004103 0.007338
v 0.000244 0.004280 0.007338
v 0.003374 0.002339 0.007338
v 0.002053 0.003703 0.007338
v 0.002798 0.003103 0.007338
v 0.001527 -0.004258 -0.004740
v 0.002469 -0.003834 0.007436
v 0.001527 -0.004258 0.007436
v 0.002469 -0.003834 -0.004740
v 0.000517 -0.004475 -0.004740
v 0.000517 -0.004475 0.007436
v -0.000516 -0.004475 -0.004740
v -0.000516 -0.004475 0.007436
v -0.001526 -0.004258 0.007436
v -0.001526 -0.004258 -0.004740
v -0.002468 -0.003834 -0.004740
v -0.002468 -0.003834 0.007436
v -0.001218 -0.003309 0.007436
v -0.001969 -0.002970 0.007436
v -0.000412 -0.003482 0.007436
v 0.000413 -0.003482 0.007436
v 0.001219 -0.003309 0.007436
v 0.001970 -0.002970 0.007436
v -0.001218 -0.003309 -0.004740
v -0.001969 -0.002970 -0.004740
v -0.000412 -0.003482 -0.004740
v 0.000413 -0.003482 -0.004740
v 0.001219 -0.003309 -0.004740
v 0.001970 -0.002970 -0.004740
v 0.003443 -0.001433 0.007436
v 0.002901 -0.002210 0.007436
v -0.003801 -0.000462 0.007436
v -0.003489 -0.001342 0.007436
v -0.003895 0.000467 0.007436
v -0.003765 0.001391 0.007436
v 0.002187 -0.002833 0.007436
v -0.003419 0.002258 0.007436
v -0.002877 0.003018 0.007436
v 0.001345 -0.003265 0.007436
v -0.002170 0.003627 0.007436
v 0.000423 -0.003481 0.007436
v -0.001338 0.004050 0.007436
v -0.000524 -0.003469 0.007436
v -0.000429 0.004264 0.007436
v -0.001440 -0.003228 0.007436
v -0.002271 -0.002774 0.007436
v 0.000504 0.004255 0.007436
v -0.002967 -0.002132 0.007436
v 0.001409 0.004024 0.007436
v 0.002233 0.003585 0.007436
v 0.002928 0.002962 0.007436
v 0.003455 0.002192 0.007436
v 0.003784 0.001318 0.007436
v 0.003896 0.000392 0.007436
v 0.003781 -0.000548 0.007436
v -0.000587 -0.004443 0.007436
v -0.001726 -0.004162 -0.004739
v -0.000587 -0.004443 -0.004739
v -0.001726 -0.004162 0.007436
v 0.000587 -0.004443 0.007436
v 0.000587 -0.004443 -0.004739
v 0.004729 0.001557 0.007436
v 0.004870 0.000392 0.007436
v 0.004870 0.000392 -0.004739
v 0.001727 -0.004162 0.007436
v 0.001727 -0.004162 -0.004739
v 0.004729 0.001557 -0.004739
v 0.002767 -0.003616 0.007436
v 0.002767 -0.003616 -0.004739
v 0.004312 0.002655 0.007436
v 0.004312 0.002655 -0.004739
v 0.003646 -0.002838 0.007436
v 0.003646 -0.002838 -0.004739
v 0.003646 0.003621 0.007436
v 0.003646 0.003621 -0.004739
v 0.004312 -0.001872 0.007436
v 0.004312 -0.001872 -0.004739
v 0.002767 0.004399 0.007436
v 0.002767 0.004399 -0.004739
v 0.004729 -0.000774 0.007436
v 0.004729 -0.000774 -0.004739
v 0.001727 0.004945 0.007436
v 0.001727 0.004945 -0.004739
v 0.000587 0.005226 0.007436
v 0.000587 0.005226 -0.004739
v -0.000587 0.005226 0.007436
v -0.000587 0.005226 -0.004739
v -0.001726 0.004945 0.007436
v -0.001726 0.004945 -0.004739
v -0.002766 0.004399 0.007436
v -0.002766 0.004399 -0.004739
v -0.003645 0.003621 0.007436
v -0.003645 0.003621 -0.004739
v -0.004312 0.002655 0.007436
v -0.004312 0.002655 -0.004739
v -0.004728 0.001557 0.007436
v -0.004728 0.001557 -0.004739
v -0.004869 0.000392 0.007436
v -0.004869 0.000392 -0.004739
v -0.004728 -0.000774 0.007436
v -0.004728 -0.000774 -0.004739
v -0.004312 -0.001872 0.007436
v -0.004312 -0.001872 -0.004739
v -0.003645 -0.002838 0.007436
v -0.003645 -0.002838 -0.004739
v -0.002766 -0.003616 0.007436
v -0.002766 -0.003616 -0.004739
vn 0.6631 -0.7485 0.0000
vn 0.4647 -0.8855 0.0000
vn 0.2393 -0.9709 0.0000
vn -0.9927 0.1205 0.0000
vn 0.0000 -1.0000 0.0000
vn -0.9350 0.3546 0.0000
vn -0.2393 -0.9709 0.0000
vn -0.8230 0.5681 0.0000
vn -0.4647 -0.8855 0.0000
vn -0.6631 0.7485 0.0000
vn -0.6631 -0.7485 0.0000
vn -0.4647 0.8855 0.0000
vn -0.8230 -0.5681 0.0000
vn -0.9350 -0.3546 0.0000
vn -0.2393 0.9709 0.0000
vn -0.9927 -0.1205 0.0000
vn 0.0000 1.0000 0.0000
vn 0.2393 0.9709 0.0000
vn 0.4647 0.8855 0.0000
vn 0.6631 0.7485 0.0000
vn 0.8230 0.5681 0.0000
vn 0.9350 0.3546 0.0000
vn 0.9927 0.1205 0.0000
vn 0.9927 -0.1205 0.0000
vn 0.9350 -0.3546 0.0000
vn 0.8230 -0.5681 0.0000
vn 0.0000 0.0000 -1.0000
vn 0.0001 0.0000 -1.0000
vn -0.0000 0.0000 1.0000
vn 0.4105 -0.9119 -0.0000
vn 0.2099 -0.9777 -0.0000
vn -0.2099 -0.9777 -0.0000
vn -0.4105 -0.9119 -0.0000
vn -0.5000 0.8660 0.0000
vn 0.5000 0.8660 0.0000
vn -0.5000 -0.8660 -0.0000
vn -1.0000 0.0000 0.0000
vn 1.0000 0.0000 0.0000
vn 0.5000 -0.8660 -0.0000
vn -0.7885 0.5502 -0.2749
vn -0.8649 0.4993 0.0519
vn 0.9424 0.3344 0.0000
vn 0.9430 0.3314 0.0287
vn -0.8861 0.4635 0.0000
vn 0.9945 0.1006 -0.0280
vn 0.9942 0.0915 0.0559
vn -0.8639 0.4988 -0.0693
vn 0.9888 -0.1387 -0.0545
vn -0.8444 0.5357 0.0000
vn -0.6321 0.7238 -0.2768
vn -0.7282 0.6250 0.2812
vn 0.9259 -0.3693 -0.0794
vn 0.9848 -0.1532 0.0815
vn 0.8097 -0.5777 -0.1028
vn -0.4386 0.8545 -0.2785
vn 0.9157 -0.3877 0.1056
vn -0.5537 0.7831 0.2830
vn 0.6474 -0.7519 -0.1247
vn 0.7915 -0.5976 0.1281
vn -0.2194 0.9346 -0.2800
vn -0.3460 0.8940 0.2846
vn 0.4487 -0.8818 -0.1449
vn 0.6202 -0.7702 0.1491
vn 0.0126 0.9596 -0.2812
vn -0.1176 0.9510 0.2860
vn 0.2254 -0.9604 -0.1637
vn 0.4125 -0.8952 0.1685
vn 0.2437 0.9279 -0.2823
vn 0.1176 0.9506 0.2871
vn 0.1813 -0.9656 0.1863
vn 0.0000 -0.9866 -0.1633
vn 0.4602 0.8414 -0.2831
vn -0.0094 -0.9741 -0.2261
vn 0.3456 0.8931 0.2881
vn 0.6496 0.7054 -0.2837
vn 0.5527 0.7818 0.2888
vn 0.8005 0.5278 -0.2841
vn 0.0417 -0.9991 0.0000
vn 0.7264 0.6234 0.2893
vn 0.0000 -0.9976 -0.0693
vn 0.8660 0.5000 0.0000
vn -0.0417 -0.9991 0.0000
vn -0.1795 -0.9556 0.2335
vn 0.8444 0.5357 0.0000
vn -0.2415 -0.9466 -0.2137
vn 0.8639 0.4988 -0.0693
vn -0.4082 -0.8859 0.2205
vn 0.8861 0.4635 0.0000
vn -0.4611 -0.8645 -0.1998
vn -0.6137 -0.7621 0.2060
vn -0.6556 -0.7323 -0.1845
vn -0.8134 -0.5570 -0.1676
vn -0.7835 -0.5916 0.1900
vn -0.9253 -0.3486 -0.1492
vn -0.9070 -0.3840 0.1726
vn -0.9845 -0.1188 -0.1293
vn -0.9764 -0.1519 0.1535
vn -0.9851 0.1206 -0.1226
vn -0.9869 0.0909 0.1329
vn -0.9279 0.3551 -0.1134
vn -0.9362 0.3290 0.1240
vn -0.8660 0.5000 0.0000
vn -0.4115 0.9114 0.0000
vn -0.2104 0.9776 0.0000
vn 0.2104 0.9776 0.0000
vn 0.4115 0.9114 0.0000
usemtl material_2.353
s 1
f 1//1 2//1 3//1
f 4//2 1//2 3//2
f 4//2 3//2 5//2
f 6//3 5//3 7//3
f 6//3 4//3 5//3
f 8//4 9//4 10//4
f 8//4 10//4 11//4
f 12//5 7//5 13//5
f 12//5 6//5 7//5
f 14//6 11//6 15//6
f 16//7 13//7 17//7
f 14//6 8//6 11//6
f 16//7 12//7 13//7
f 18//8 15//8 19//8
f 20//9 17//9 21//9
f 18//8 14//8 15//8
f 20//9 16//9 17//9
f 22//10 19//10 23//10
f 24//11 21//11 25//11
f 22//10 18//10 19//10
f 24//11 20//11 21//11
f 26//12 23//12 27//12
f 28//13 25//13 29//13
f 26//12 22//12 23//12
f 28//13 24//13 25//13
f 30//14 29//14 31//14
f 30//14 28//14 29//14
f 32//15 27//15 33//15
f 9//16 31//16 10//16
f 32//15 26//15 27//15
f 9//16 30//16 31//16
f 34//17 33//17 35//17
f 34//17 32//17 33//17
f 36//18 35//18 37//18
f 36//18 34//18 35//18
f 38//19 37//19 39//19
f 38//19 36//19 37//19
f 40//20 39//20 41//20
f 40//20 38//20 39//20
f 42//21 40//21 41//21
f 42//21 41//21 43//21
f 44//22 42//22 43//22
f 44//22 43//22 45//22
f 46//23 44//23 45//23
f 46//23 45//23 47//23
f 48//24 46//24 47//24
f 48//24 47//24 49//24
f 50//25 48//25 49//25
f 50//25 49//25 51//25
f 52//26 50//26 51//26
f 52//26 51//26 2//26
f 1//1 52//1 2//1
f 8//27 40//27 9//27
f 14//27 40//27 8//27
f 18//27 40//27 14//27
f 22//27 40//27 18//27
f 26//27 40//27 22//27
f 32//27 40//27 26//27
f 34//27 40//27 32//27
f 36//27 40//27 34//27
f 38//28 40//27 36//27
f 44//27 40//27 42//27
f 46//27 40//27 44//27
f 48//27 40//27 46//27
f 50//27 40//27 48//27
f 52//27 40//27 50//27
f 1//27 40//27 52//27
f 4//27 40//27 1//27
f 6//27 40//27 4//27
f 12//27 40//27 6//27
f 16//27 40//27 12//27
f 20//27 40//27 16//27
f 24//27 40//27 20//27
f 28//27 40//27 24//27
f 30//27 40//27 28//27
f 9//27 40//27 30//27
f 53//1 54//1 55//1
f 56//2 53//2 55//2
f 56//2 55//2 57//2
f 58//3 57//3 59//3
f 58//3 56//3 57//3
f 60//4 61//4 62//4
f 60//4 62//4 63//4
f 64//5 59//5 65//5
f 64//5 58//5 59//5
f 66//6 63//6 67//6
f 68//7 65//7 69//7
f 66//6 60//6 63//6
f 68//7 64//7 65//7
f 70//8 67//8 71//8
f 72//9 69//9 73//9
f 70//8 66//8 67//8
f 72//9 68//9 69//9
f 74//10 71//10 75//10
f 76//11 73//11 77//11
f 74//10 70//10 71//10
f 76//11 72//11 73//11
f 78//12 75//12 79//12
f 80//13 77//13 81//13
f 78//12 74//12 75//12
f 80//13 76//13 77//13
f 82//14 81//14 83//14
f 82//14 80//14 81//14
f 84//15 79//15 85//15
f 61//16 83//16 62//16
f 84//15 78//15 79//15
f 61//16 82//16 83//16
f 86//17 85//17 87//17
f 86//17 84//17 85//17
f 88//18 87//18 89//18
f 88//18 86//18 87//18
f 90//19 89//19 91//19
f 90//19 88//19 89//19
f 92//20 91//20 93//20
f 92//20 90//20 91//20
f 94//21 92//21 93//21
f 94//21 93//21 95//21
f 96//22 94//22 95//22
f 96//22 95//22 97//22
f 98//23 96//23 97//23
f 98//23 97//23 99//23
f 100//24 98//24 99//24
f 100//24 99//24 101//24
f 102//25 100//25 101//25
f 102//25 101//25 103//25
f 104//26 102//26 103//26
f 104//26 103//26 54//26
f 53//1 104//1 54//1
f 60//27 92//27 61//27
f 66//27 92//27 60//27
f 70//27 92//27 66//27
f 74//27 92//27 70//27
f 78//27 92//27 74//27
f 84//27 92//27 78//27
f 86//27 92//27 84//27
f 88//27 92//27 86//27
f 90//28 92//27 88//27
f 96//27 92//27 94//27
f 98//27 92//27 96//27
f 100//27 92//27 98//27
f 102//27 92//27 100//27
f 104//27 92//27 102//27
f 53//27 92//27 104//27
f 56//27 92//27 53//27
f 58//27 92//27 56//27
f 64//27 92//27 58//27
f 68//27 92//27 64//27
f 72//27 92//27 68//27
f 76//27 92//27 72//27
f 80//27 92//27 76//27
f 82//27 92//27 80//27
f 61//27 92//27 82//27
f 105//29 106//29 107//29
f 105//29 108//29 106//29
f 109//29 110//29 108//29
f 109//29 108//29 105//29
f 111//29 109//29 105//29
f 112//29 105//29 113//29
f 114//29 111//29 105//29
f 114//29 105//29 112//29
f 115//29 111//29 114//29
f 116//29 117//29 109//29
f 118//29 109//29 111//29
f 118//29 116//29 109//29
f 119//29 118//29 111//29
f 120//29 121//29 122//29
f 120//29 123//29 121//29
f 120//29 124//29 123//29
f 120//29 125//29 124//29
f 120//29 126//29 125//29
f 120//29 127//29 126//29
f 128//29 120//29 122//29
f 129//29 120//29 128//29
f 130//29 131//29 132//29
f 130//29 133//29 131//29
f 130//29 134//29 133//29
f 130//29 135//29 134//29
f 136//29 135//29 130//29
f 137//29 136//29 130//29
f 138//29 137//29 130//29
f 139//29 138//29 130//29
f 140//29 141//29 142//29
f 143//29 141//29 140//29
f 144//29 141//29 143//29
f 145//29 146//29 141//29
f 147//29 141//29 144//29
f 148//29 145//29 141//29
f 149//29 148//29 141//29
f 149//29 141//29 147//29
f 150//30 151//30 152//30
f 150//30 153//30 151//30
f 154//31 152//31 155//31
f 154//31 150//31 152//31
f 156//32 157//32 158//32
f 156//5 155//5 157//5
f 156//5 154//5 155//5
f 159//32 156//32 158//32
f 160//33 158//33 161//33
f 160//33 159//33 158//33
f 162//29 163//29 161//29
f 162//29 161//29 158//29
f 164//29 158//29 157//29
f 164//29 162//29 158//29
f 165//29 157//29 155//29
f 165//29 164//29 157//29
f 152//29 165//29 155//29
f 166//29 165//29 152//29
f 151//29 166//29 152//29
f 167//29 166//29 151//29
f 160//27 168//27 159//27
f 169//27 168//27 160//27
f 156//27 170//27 154//27
f 159//27 170//27 156//27
f 168//27 170//27 159//27
f 170//27 171//27 154//27
f 171//27 150//27 154//27
f 171//27 172//27 150//27
f 172//27 153//27 150//27
f 172//27 173//27 153//27
usemtl material_1.747
f 120//34 107//34 127//34
f 105//34 107//34 120//34
f 129//35 105//35 120//35
f 113//35 105//35 129//35
f 141//36 115//36 142//36
f 111//36 115//36 141//36
f 146//37 111//37 141//37
f 119//37 111//37 146//37
f 130//38 117//38 139//38
f 109//38 117//38 130//38
f 132//39 109//39 130//39
f 110//39 109//39 132//39
f 174//40 129//40 175//40
f 142//41 129//41 174//41
f 132//42 176//42 177//42
f 132//43 131//43 176//43
f 115//44 114//44 142//44
f 131//45 178//45 176//45
f 131//46 133//46 178//46
f 142//47 112//47 129//47
f 114//47 112//47 142//47
f 133//48 179//48 178//48
f 112//49 113//49 129//49
f 175//50 128//50 180//50
f 129//51 128//51 175//51
f 179//52 134//52 181//52
f 133//53 134//53 179//53
f 181//54 135//54 182//54
f 180//55 122//55 183//55
f 134//56 135//56 181//56
f 128//57 122//57 180//57
f 182//58 136//58 184//58
f 135//59 136//59 182//59
f 183//60 121//60 185//60
f 122//61 121//61 183//61
f 184//62 137//62 186//62
f 136//63 137//63 184//63
f 185//64 123//64 187//64
f 121//65 123//65 185//65
f 186//66 138//66 188//66
f 137//67 138//67 186//67
f 187//68 124//68 189//68
f 123//69 124//69 187//69
f 138//70 139//70 188//70
f 139//71 146//71 188//71
f 189//72 125//72 190//72
f 188//73 146//73 191//73
f 124//74 125//74 189//74
f 190//75 126//75 192//75
f 125//76 126//76 190//76
f 192//77 127//77 177//77
f 117//78 116//78 139//78
f 126//79 127//79 192//79
f 139//80 118//80 146//80
f 127//81 132//81 177//81
f 116//80 118//80 139//80
f 118//82 119//82 146//82
f 146//83 145//83 191//83
f 107//84 106//84 127//84
f 191//85 145//85 193//85
f 127//86 108//86 132//86
f 106//86 108//86 127//86
f 145//87 148//87 193//87
f 108//88 110//88 132//88
f 193//89 148//89 194//89
f 148//90 149//90 194//90
f 194//91 149//91 195//91
f 195//92 147//92 196//92
f 149//93 147//93 195//93
f 196//94 144//94 197//94
f 147//95 144//95 196//95
f 197//96 143//96 198//96
f 144//97 143//97 197//97
f 198//98 140//98 199//98
f 143//99 140//99 198//99
f 199//100 142//100 174//100
f 140//101 142//101 199//101
f 169//102 161//102 163//102
f 169//102 160//102 161//102
f 153//81 167//81 151//81
f 153//81 173//81 167//81
f 173//103 172//103 167//103
f 167//103 172//103 166//103
f 166//104 171//104 165//104
f 172//104 171//104 166//104
f 165//17 170//17 164//17
f 171//17 170//17 165//17
f 164//105 168//105 162//105
f 170//105 168//105 164//105
f 162//106 169//106 163//106
f 168//106 169//106 162//106
usemtl material_0.762
f 200//7 201//7 202//7
f 200//7 203//7 201//7
f 204//5 202//5 205//5
f 204//5 200//5 202//5
f 206//23 207//23 208//23
f 209//3 205//3 210//3
f 209//3 204//3 205//3
f 206//23 208//23 211//23
f 212//2 210//2 213//2
f 214//22 211//22 215//22
f 212//2 209//2 210//2
f 214//22 206//22 211//22
f 216//1 213//1 217//1
f 216//1 212//1 213//1
f 218//21 215//21 219//21
f 218//21 214//21 215//21
f 220//26 217//26 221//26
f 220//26 216//26 217//26
f 222//20 219//20 223//20
f 222//20 218//20 219//20
f 224//25 221//25 225//25
f 224//25 220//25 221//25
f 226//19 223//19 227//19
f 226//19 222//19 223//19
f 207//24 225//24 208//24
f 207//24 224//24 225//24
f 228//18 227//18 229//18
f 228//18 226//18 227//18
f 230//17 229//17 231//17
f 230//17 228//17 229//17
f 232//15 231//15 233//15
f 232//15 230//15 231//15
f 234//12 233//12 235//12
f 234//12 232//12 233//12
f 236//10 235//10 237//10
f 236//10 234//10 235//10
f 238//8 236//8 237//8
f 238//8 237//8 239//8
f 240//6 238//6 239//6
f 240//6 239//6 241//6
f 242//4 240//4 241//4
f 242//4 241//4 243//4
f 244//16 242//16 243//16
f 244//16 243//16 245//16
f 246//14 244//14 245//14
f 246//14 245//14 247//14
f 248//13 246//13 247//13
f 248//13 247//13 249//13
f 250//11 248//11 249//11
f 250//11 249//11 251//11
f 203//9 250//9 251//9
f 203//9 251//9 201//9
f 229//27 227//27 91//27
f 235//27 63//27 62//27
f 54//27 215//27 211//27
f 103//27 215//27 54//27
f 35//27 57//27 37//27
f 101//27 215//27 103//27
f 59//27 57//27 35//27
f 97//27 223//27 99//27
f 95//27 223//27 97//27
f 227//27 223//27 95//27
f 101//27 219//27 215//27
f 99//27 219//27 101//27
f 235//27 67//27 63//27
f 223//27 219//27 99//27
f 37//27 55//27 39//27
f 57//27 55//27 37//27
f 201//27 21//27 202//27
f 25//27 21//27 201//27
f 251//27 29//27 201//27
f 51//27 213//27 210//27
f 49//27 213//27 51//27
f 201//27 29//27 25//27
f 47//27 213//27 49//27
f 21//27 17//27 202//27
f 47//27 217//27 213//27
f 45//27 217//27 47//27
f 251//27 31//27 29//27
f 17//27 13//27 202//27
f 251//27 10//27 31//27
f 241//27 77//27 243//27
f 239//27 77//27 241//27
f 249//27 10//27 251//27
f 235//27 233//27 67//27
f 202//27 7//27 205//27
f 243//27 73//27 23//27
f 13//27 7//27 202//27
f 77//27 73//27 243//27
f 71//27 233//27 75//27
f 67//27 233//27 71//27
f 247//27 11//27 249//27
f 249//27 11//27 10//27
f 239//27 81//27 77//27
f 43//27 221//27 45//27
f 41//27 221//27 43//27
f 7//27 5//27 205//27
f 45//27 221//27 217//27
f 41//27 225//27 221//27
f 247//27 15//27 11//27
f 23//27 69//27 27//27
f 233//27 231//27 75//27
f 73//27 69//27 23//27
f 237//27 83//27 239//27
f 205//27 3//27 210//27
f 5//27 3//27 205//27
f 79//27 231//27 85//27
f 239//27 83//27 81//27
f 75//27 231//27 79//27
f 39//27 208//27 41//27
f 54//27 208//27 55//27
f 245//27 19//27 247//27
f 27//27 65//27 33//27
f 243//27 19//27 245//27
f 69//27 65//27 27//27
f 247//27 19//27 15//27
f 55//27 208//27 39//27
f 41//27 208//27 225//27
f 235//27 62//27 237//27
f 231//27 229//27 85//27
f 3//27 2//27 210//27
f 237//27 62//27 83//27
f 89//27 229//27 91//27
f 87//27 229//27 89//27
f 85//27 229//27 87//27
f 243//27 23//27 19//27
f 33//27 59//27 35//27
f 2//27 51//27 210//27
f 65//27 59//27 33//27
f 54//27 211//27 208//27
f 93//27 227//27 95//27
f 91//27 227//27 93//27
f 224//29 199//29 220//29
f 198//29 199//29 224//29
f 230//29 232//29 186//29
f 192//29 246//29 248//29
f 230//29 186//29 188//29
f 190//29 248//29 250//29
f 190//29 192//29 248//29
f 207//29 198//29 224//29
f 207//29 197//29 198//29
f 177//29 244//29 246//29
f 177//29 246//29 192//29
f 189//29 250//29 203//29
f 189//29 190//29 250//29
f 176//29 242//29 244//29
f 228//29 188//29 191//29
f 228//29 230//29 188//29
f 176//29 244//29 177//29
f 187//29 203//29 200//29
f 187//29 189//29 203//29
f 206//29 197//29 207//29
f 206//29 196//29 197//29
f 226//29 228//29 191//29
f 226//29 191//29 193//29
f 178//29 242//29 176//29
f 240//29 242//29 178//29
f 214//29 195//29 196//29
f 185//29 200//29 204//29
f 214//29 196//29 206//29
f 222//29 226//29 193//29
f 185//29 187//29 200//29
f 222//29 193//29 194//29
f 218//29 194//29 195//29
f 218//29 222//29 194//29
f 218//29 195//29 214//29
f 179//29 240//29 178//29
f 183//29 204//29 209//29
f 183//29 185//29 204//29
f 238//29 240//29 179//29
f 181//29 238//29 179//29
f 180//29 209//29 212//29
f 180//29 183//29 209//29
f 236//29 238//29 181//29
f 182//29 236//29 181//29
f 175//29 180//29 212//29
f 216//29 175//29 212//29
f 234//29 236//29 182//29
f 234//29 182//29 184//29
f 174//29 175//29 216//29
f 220//29 174//29 216//29
f 232//29 234//29 184//29
f 232//29 184//29 186//29
f 199//29 174//29 220//29
