# Blender v2.81 (sub 16) OBJ File: ''
# www.blender.org
mtllib 14-Pin Shrouded Header (IDC) Straight.mtl
o 14-Pin_Shrouded_Header_(IDC)_Straight
v 0.000472 0.000436 0.008831
v 0.000472 0.000434 0.008830
v 0.000472 0.000434 -0.008830
v 0.000472 0.000436 -0.008831
v 0.000472 0.000437 0.008831
v 0.000472 0.000439 -0.008831
v 0.000471 0.000439 0.008832
v 0.000471 0.000441 -0.008833
v 0.000471 0.000442 0.008834
v 0.000471 0.000443 -0.008835
v 0.000470 0.000446 0.008838
v 0.000470 0.000446 -0.008838
v 0.000468 0.000450 -0.008844
v 0.000467 0.000453 0.008851
v 0.000465 0.000456 -0.008858
v 0.000461 0.000461 0.008875
v 0.000461 0.000461 -0.008875
v 0.000456 0.000465 0.008858
v 0.000453 0.000467 -0.008851
v 0.000450 0.000468 0.008844
v 0.000446 0.000470 -0.008838
v 0.000446 0.000470 0.008838
v 0.000443 0.000471 0.008835
v 0.000442 0.000471 -0.008834
v 0.000441 0.000471 0.008833
v 0.000439 0.000471 -0.008832
v 0.000439 0.000472 0.008831
v 0.000437 0.000472 -0.008831
v 0.000436 0.000472 0.008831
v 0.000436 0.000472 -0.008831
v 0.000434 0.000472 0.008830
v 0.000434 0.000472 -0.008830
v -0.000434 0.000472 0.008830
v -0.000442 0.000471 0.008834
v -0.000446 0.000470 0.008838
v -0.000439 0.000471 0.008832
v -0.000437 0.000472 0.008831
v -0.000436 0.000472 0.008831
v -0.000453 0.000467 0.008851
v -0.000461 0.000461 0.008875
v 0.000283 0.000283 0.009585
v -0.000283 0.000283 0.009585
v -0.000434 0.000472 -0.008830
v -0.000439 0.000472 -0.008831
v -0.000436 0.000472 -0.008831
v -0.000441 0.000471 -0.008833
v -0.000443 0.000471 -0.008835
v -0.000446 0.000470 -0.008838
v -0.000450 0.000468 -0.008844
v -0.000456 0.000465 -0.008858
v -0.000461 0.000461 -0.008875
v 0.000283 0.000283 -0.009585
v -0.000283 0.000283 -0.009585
v 0.000472 -0.000436 -0.008831
v 0.000472 -0.000434 -0.008830
v 0.000472 -0.000434 0.008830
v 0.000472 -0.000436 0.008831
v 0.000472 -0.000437 -0.008831
v 0.000472 -0.000439 0.008831
v 0.000471 -0.000439 -0.008832
v 0.000471 -0.000441 0.008833
v 0.000471 -0.000442 -0.008834
v 0.000471 -0.000443 0.008835
v 0.000470 -0.000446 -0.008838
v 0.000470 -0.000446 0.008838
v 0.000468 -0.000450 0.008844
v 0.000467 -0.000453 -0.008851
v 0.000465 -0.000456 0.008858
v 0.000461 -0.000461 -0.008875
v 0.000461 -0.000461 0.008875
v 0.000456 -0.000465 -0.008858
v 0.000453 -0.000467 0.008851
v 0.000450 -0.000468 -0.008844
v 0.000446 -0.000470 0.008838
v 0.000446 -0.000470 -0.008838
v 0.000443 -0.000471 -0.008835
v 0.000442 -0.000471 0.008834
v 0.000441 -0.000471 -0.008833
v 0.000439 -0.000471 0.008832
v 0.000439 -0.000472 -0.008831
v 0.000437 -0.000472 0.008831
v 0.000436 -0.000472 -0.008831
v 0.000436 -0.000472 0.008831
v 0.000434 -0.000472 -0.008830
v 0.000434 -0.000472 0.008830
v -0.000434 -0.000472 -0.008830
v -0.000442 -0.000471 -0.008834
v -0.000446 -0.000470 -0.008838
v -0.000439 -0.000471 -0.008832
v -0.000437 -0.000472 -0.008831
v -0.000436 -0.000472 -0.008831
v -0.000453 -0.000467 -0.008851
v -0.000461 -0.000461 -0.008875
v 0.000283 -0.000283 -0.009585
v -0.000283 -0.000283 -0.009585
v -0.000434 -0.000472 0.008830
v -0.000439 -0.000472 0.008831
v -0.000436 -0.000472 0.008831
v -0.000441 -0.000471 0.008833
v -0.000443 -0.000471 0.008835
v -0.000446 -0.000470 0.008838
v -0.000450 -0.000468 0.008844
v -0.000456 -0.000465 0.008858
v -0.000461 -0.000461 0.008875
v 0.000283 -0.000283 0.009585
v -0.000283 -0.000283 0.009585
v -0.000472 0.000436 -0.008831
v -0.000472 0.000434 -0.008830
v -0.000472 0.000434 0.008830
v -0.000472 0.000436 0.008831
v -0.000472 0.000437 -0.008831
v -0.000472 0.000439 0.008831
v -0.000471 0.000439 -0.008832
v -0.000471 0.000441 0.008833
v -0.000471 0.000442 -0.008834
v -0.000471 0.000443 0.008835
v -0.000470 0.000446 -0.008838
v -0.000470 0.000446 0.008838
v -0.000468 0.000450 0.008844
v -0.000467 0.000453 -0.008851
v -0.000465 0.000456 0.008858
v -0.000472 -0.000436 0.008831
v -0.000472 -0.000434 0.008830
v -0.000472 -0.000434 -0.008830
v -0.000472 -0.000436 -0.008831
v -0.000472 -0.000437 0.008831
v -0.000472 -0.000439 -0.008831
v -0.000471 -0.000439 0.008832
v -0.000471 -0.000441 -0.008833
v -0.000471 -0.000442 0.008834
v -0.000471 -0.000443 -0.008835
v -0.000470 -0.000446 0.008838
v -0.000470 -0.000446 -0.008838
v -0.000468 -0.000450 -0.008844
v -0.000467 -0.000453 0.008851
v -0.000465 -0.000456 -0.008858
vn 0.9996 0.0284 -0.0000
vn 0.9997 0.0226 -0.0000
vn 0.9997 0.0234 0.0000
vn 0.9996 0.0294 -0.0000
vn 0.9961 0.0882 -0.0000
vn 0.9980 0.0634 0.0000
vn 0.9892 0.1467 -0.0000
vn 0.9937 0.1119 0.0000
vn 0.9789 0.2045 -0.0000
vn 0.9845 0.1754 0.0000
vn 0.9634 0.2681 0.0000
vn 0.9648 0.2630 -0.0000
vn 0.9625 0.2714 -0.0000
vn 0.9312 0.3645 0.0000
vn 0.9658 0.2595 0.0000
vn 0.8676 0.4972 -0.0000
vn 0.9141 0.4055 0.0000
vn 0.7669 0.6418 0.0000
vn 0.7934 0.6086 0.0000
vn 0.6086 0.7934 -0.0000
vn 0.6419 0.7668 0.0000
vn 0.4059 0.9139 0.0000
vn 0.4972 0.8677 0.0000
vn 0.3645 0.9312 -0.0000
vn 0.2628 0.9648 0.0000
vn 0.2679 0.9634 -0.0000
vn 0.2595 0.9657 -0.0000
vn 0.2712 0.9625 0.0000
vn 0.1758 0.9844 0.0000
vn 0.2046 0.9788 0.0000
vn 0.1119 0.9937 -0.0000
vn 0.1471 0.9891 0.0000
vn 0.0633 0.9980 -0.0000
vn 0.0882 0.9961 0.0000
vn 0.0236 0.9997 0.0000
vn 0.0271 0.9996 0.0000
vn 0.0214 0.9998 0.0000
vn 0.0294 0.9996 0.0000
vn 0.0001 0.9701 0.2429
vn 0.0002 0.9701 0.2428
vn -0.0000 0.9702 0.2425
vn -0.0004 0.9702 0.2422
vn 0.0002 0.9702 0.2422
vn -0.0005 0.9700 0.2433
vn -0.0001 0.9702 0.2425
vn -0.0000 0.9701 0.2425
vn 0.0001 0.9704 0.2417
vn 0.0000 0.9702 0.2422
vn 0.0002 0.9701 0.2425
vn 0.0002 0.9702 0.2421
vn -0.0001 0.9701 0.2426
vn 0.0001 0.9702 0.2425
vn 0.0000 1.0000 0.0000
vn -0.0000 0.9701 -0.2425
vn 0.0002 0.9703 -0.2421
vn 0.0000 0.9702 -0.2423
vn -0.0004 0.9702 -0.2423
vn -0.0002 0.9702 -0.2421
vn 0.0000 0.9702 -0.2425
vn 0.0001 0.9701 -0.2426
vn -0.0001 0.9702 -0.2425
vn 0.0000 0.9702 -0.2424
vn 0.0001 0.9702 -0.2425
vn 0.0001 0.9703 -0.2419
vn 0.0005 0.9702 -0.2424
vn 0.0002 0.9702 -0.2423
vn -0.0001 0.9701 -0.2427
vn 0.9996 -0.0284 0.0000
vn 0.9997 -0.0226 0.0000
vn 0.9997 -0.0235 -0.0000
vn 0.9996 -0.0294 0.0000
vn 0.9961 -0.0882 0.0000
vn 0.9980 -0.0634 -0.0000
vn 0.9891 -0.1470 0.0000
vn 0.9937 -0.1119 -0.0000
vn 0.9787 -0.2052 0.0000
vn 0.9845 -0.1755 -0.0000
vn 0.9635 -0.2678 -0.0000
vn 0.9648 -0.2630 0.0000
vn 0.9625 -0.2714 0.0000
vn 0.9312 -0.3645 -0.0000
vn 0.9658 -0.2595 -0.0000
vn 0.8676 -0.4972 0.0000
vn 0.9141 -0.4055 -0.0000
vn 0.7669 -0.6418 -0.0000
vn 0.7934 -0.6086 -0.0000
vn 0.6086 -0.7934 0.0000
vn 0.6419 -0.7668 -0.0000
vn 0.4055 -0.9141 0.0000
vn 0.4972 -0.8677 -0.0000
vn 0.3645 -0.9312 0.0000
vn 0.2629 -0.9648 -0.0000
vn 0.2679 -0.9634 0.0000
vn 0.2595 -0.9657 0.0000
vn 0.2712 -0.9625 -0.0000
vn 0.1760 -0.9844 -0.0000
vn 0.2046 -0.9788 -0.0000
vn 0.1119 -0.9937 0.0000
vn 0.1471 -0.9891 -0.0000
vn 0.0633 -0.9980 0.0000
vn 0.0882 -0.9961 -0.0000
vn 0.0236 -0.9997 -0.0000
vn 0.0271 -0.9996 -0.0000
vn 0.0214 -0.9998 -0.0000
vn 0.0294 -0.9996 -0.0000
vn -0.0000 -0.9702 -0.2424
vn 0.0001 -0.9701 -0.2427
vn -0.0001 -0.9702 -0.2425
vn -0.0001 -0.9702 -0.2423
vn 0.0000 -0.9704 -0.2414
vn -0.0004 -0.9701 -0.2425
vn -0.0000 -0.9701 -0.2425
vn -0.0002 -0.9702 -0.2422
vn 0.0003 -0.9701 -0.2426
vn 0.0002 -0.9702 -0.2421
vn -0.0000 -0.9702 -0.2425
vn 0.0001 -0.9702 -0.2424
vn 0.0001 -0.9702 -0.2425
vn 0.0000 -1.0000 -0.0000
vn -0.0000 -0.9701 0.2425
vn -0.0001 -0.9704 0.2415
vn 0.0005 -0.9702 0.2422
vn -0.0002 -0.9701 0.2426
vn -0.0000 -0.9701 0.2426
vn 0.0000 -0.9702 0.2425
vn 0.0001 -0.9701 0.2426
vn -0.0001 -0.9702 0.2425
vn 0.0000 -0.9702 0.2424
vn 0.0001 -0.9702 0.2425
vn 0.0001 -0.9703 0.2419
vn 0.0004 -0.9700 0.2432
vn 0.0004 -0.9702 0.2424
vn -0.0001 -0.9701 0.2428
vn -0.9996 0.0269 0.0000
vn -0.9998 0.0214 0.0000
vn -0.9997 0.0237 -0.0000
vn -0.9996 0.0294 0.0000
vn -0.9961 0.0882 0.0000
vn -0.9980 0.0637 0.0000
vn -0.9891 0.1471 0.0000
vn -0.9938 0.1112 -0.0000
vn -0.9787 0.2053 -0.0000
vn -0.9846 0.1745 0.0000
vn -0.9634 0.2680 -0.0000
vn -0.9648 0.2629 0.0000
vn -0.9625 0.2713 0.0000
vn -0.9312 0.3645 -0.0000
vn -0.9657 0.2595 -0.0000
vn -0.8679 0.4968 -0.0000
vn -0.9141 0.4055 -0.0000
vn -0.7668 0.6419 0.0000
vn -0.7934 0.6087 -0.0000
vn -0.6087 0.7934 0.0000
vn -0.6419 0.7668 0.0000
vn -0.4055 0.9141 0.0000
vn -0.4973 0.8676 -0.0000
vn -0.3645 0.9312 0.0000
vn -0.2629 0.9648 0.0000
vn -0.2679 0.9634 0.0000
vn -0.2596 0.9657 0.0000
vn -0.2712 0.9625 -0.0000
vn -0.1754 0.9845 0.0000
vn -0.2046 0.9788 -0.0000
vn -0.1119 0.9937 0.0000
vn -0.1470 0.9891 -0.0000
vn -0.0633 0.9980 0.0000
vn -0.0882 0.9961 -0.0000
vn -0.0236 0.9997 0.0000
vn -0.0271 0.9996 -0.0000
vn -0.0214 0.9998 0.0000
vn -0.0294 0.9996 -0.0000
vn -0.9997 -0.0261 -0.0000
vn -0.9998 -0.0201 0.0000
vn -0.9997 -0.0239 -0.0000
vn -0.9996 -0.0294 -0.0000
vn -0.9961 -0.0882 -0.0000
vn -0.9980 -0.0637 -0.0000
vn -0.9891 -0.1471 -0.0000
vn -0.9938 -0.1112 0.0000
vn -0.9788 -0.2050 -0.0000
vn -0.9847 -0.1745 0.0000
vn -0.9633 -0.2683 0.0000
vn -0.9648 -0.2629 -0.0000
vn -0.9625 -0.2713 -0.0000
vn -0.9312 -0.3645 0.0000
vn -0.9657 -0.2598 0.0000
vn -0.8676 -0.4973 -0.0000
vn -0.9141 -0.4055 0.0000
vn -0.7668 -0.6419 -0.0000
vn -0.7934 -0.6087 0.0000
vn -0.6087 -0.7934 -0.0000
vn -0.6419 -0.7668 -0.0000
vn -0.4055 -0.9141 -0.0000
vn -0.4973 -0.8676 0.0000
vn -0.3645 -0.9312 -0.0000
vn -0.2629 -0.9648 -0.0000
vn -0.2680 -0.9634 0.0000
vn -0.2596 -0.9657 -0.0000
vn -0.2712 -0.9625 0.0000
vn -0.1754 -0.9845 -0.0000
vn -0.2046 -0.9788 0.0000
vn -0.1119 -0.9937 -0.0000
vn -0.1465 -0.9892 -0.0000
vn -0.0633 -0.9980 -0.0000
vn -0.0882 -0.9961 0.0000
vn -0.0236 -0.9997 -0.0000
vn -0.0271 -0.9996 0.0000
vn -0.0211 -0.9998 -0.0000
vn -0.0294 -0.9996 0.0000
vn 0.9702 -0.0000 -0.2424
vn 0.9701 0.0001 -0.2426
vn 0.9702 -0.0001 -0.2425
vn 0.9704 -0.0004 -0.2417
vn 0.9704 0.0001 -0.2417
vn 0.9707 -0.0015 -0.2403
vn 0.9702 -0.0000 -0.2425
vn 0.9701 -0.0000 -0.2425
vn 0.9701 0.0007 -0.2426
vn 0.9706 0.0002 -0.2405
vn 0.9703 0.0002 -0.2420
vn 0.9704 0.0000 -0.2415
vn 0.9701 0.0002 -0.2428
vn 0.9701 0.0000 -0.2427
vn 0.9701 -0.0001 -0.2427
vn 0.9702 0.0001 -0.2424
vn 0.0000 0.0000 -1.0000
vn -0.9701 0.0000 -0.2425
vn -0.9699 0.0003 -0.2435
vn -0.9704 0.0000 -0.2416
vn -0.9704 0.0004 -0.2417
vn -0.9700 -0.0003 -0.2430
vn -0.9701 -0.0000 -0.2427
vn -0.9701 -0.0002 -0.2426
vn -0.9701 0.0001 -0.2426
vn -0.9703 0.0001 -0.2419
vn -0.9701 -0.0001 -0.2426
vn -0.9704 0.0004 -0.2413
vn -0.9713 0.0005 -0.2380
vn -0.9701 0.0002 -0.2425
vn -0.9702 0.0001 -0.2425
vn -0.9701 -0.0002 -0.2427
vn -1.0000 0.0000 0.0000
vn 0.0000 0.0000 1.0000
vn -0.9703 -0.0002 0.2419
vn -0.9700 0.0003 0.2430
vn -0.9701 -0.0001 0.2425
vn -0.9701 0.0003 0.2428
vn -0.9702 0.0002 0.2424
vn -0.9720 -0.0006 0.2351
vn -0.9701 0.0001 0.2426
vn -0.9701 0.0000 0.2425
vn -0.9699 0.0009 0.2437
vn -0.9703 -0.0000 0.2421
vn -0.9703 -0.0003 0.2421
vn -0.9702 0.0002 0.2423
vn -0.9701 0.0000 0.2427
vn -0.9701 0.0002 0.2426
vn -0.9701 -0.0001 0.2426
vn 0.9702 0.0000 0.2425
vn 0.9702 -0.0011 0.2423
vn 0.9705 -0.0001 0.2412
vn 0.9704 0.0006 0.2415
vn 0.9702 -0.0002 0.2422
vn 0.9701 -0.0000 0.2427
vn 0.9702 -0.0004 0.2423
vn 0.9702 -0.0001 0.2424
vn 0.9701 -0.0000 0.2425
vn 0.9702 0.0000 0.2424
vn 0.9701 -0.0003 0.2427
vn 0.9714 0.0017 0.2374
vn 0.9705 0.0004 0.2412
vn 0.9701 0.0001 0.2425
vn 1.0000 0.0000 0.0000
usemtl material_1.653
s 1
f 1//1 2//2 3//3
f 1//1 3//3 4//4
f 5//5 4//5 6//5
f 5//6 1//6 4//6
f 7//7 6//7 8//7
f 7//8 5//8 6//8
f 9//9 8//9 10//9
f 9//10 7//10 8//10
f 11//11 10//12 12//13
f 11//14 12//14 13//14
f 11//11 9//15 10//12
f 14//16 13//16 15//16
f 14//17 11//17 13//17
f 16//18 15//18 17//18
f 16//19 14//19 15//19
f 18//20 17//20 19//20
f 18//21 16//21 17//21
f 20//22 19//22 21//22
f 20//23 18//23 19//23
f 22//24 20//24 21//24
f 23//25 21//26 24//27
f 23//25 22//28 21//26
f 25//29 24//29 26//29
f 25//30 23//30 24//30
f 27//31 26//31 28//31
f 27//32 25//32 26//32
f 29//33 28//33 30//33
f 29//34 27//34 28//34
f 31//35 30//36 32//37
f 31//35 29//38 30//36
usemtl material_0.665
f 33//39 34//40 35//41
f 33//39 36//42 34//40
f 33//39 37//43 36//42
f 33//39 38//44 37//43
f 39//45 33//39 35//41
f 40//46 33//39 39//45
f 27//47 29//48 31//46
f 25//49 27//47 31//46
f 23//50 25//49 31//46
f 22//41 23//50 31//46
f 20//51 22//41 31//46
f 18//52 20//51 31//46
f 16//46 31//46 33//39
f 16//46 33//39 40//46
f 16//46 18//52 31//46
f 41//46 40//46 42//46
f 41//46 16//46 40//46
f 31//53 32//53 43//53
f 31//53 43//53 33//53
f 43//54 44//55 45//56
f 43//54 46//57 44//55
f 43//54 47//58 46//57
f 43//54 48//59 47//58
f 43//54 49//60 48//59
f 43//54 50//61 49//60
f 43//54 51//54 50//61
f 17//54 52//54 53//54
f 17//54 53//54 51//54
f 32//62 19//63 17//54
f 32//62 51//54 43//54
f 32//62 17//54 51//54
f 28//64 32//62 30//65
f 26//66 32//62 28//64
f 21//59 19//63 32//62
f 24//67 21//59 32//62
f 24//67 32//62 26//66
f 54//68 55//69 56//70
f 54//68 56//70 57//71
f 58//72 57//72 59//72
f 58//73 54//73 57//73
f 60//74 59//74 61//74
f 60//75 58//75 59//75
f 62//76 61//76 63//76
f 62//77 60//77 61//77
f 64//78 63//79 65//80
f 64//81 65//81 66//81
f 64//78 62//82 63//79
f 67//83 66//83 68//83
f 67//84 64//84 66//84
f 69//85 68//85 70//85
f 69//86 67//86 68//86
f 71//87 70//87 72//87
f 71//88 69//88 70//88
f 73//89 72//89 74//89
f 73//90 71//90 72//90
f 75//91 73//91 74//91
f 76//92 74//93 77//94
f 76//92 75//95 74//93
f 78//96 77//96 79//96
f 78//97 76//97 77//97
f 80//98 79//98 81//98
f 80//99 78//99 79//99
f 82//100 81//100 83//100
f 82//101 80//101 81//101
f 84//102 83//103 85//104
f 84//102 82//105 83//103
f 86//106 87//107 88//108
f 86//106 89//109 87//107
f 86//106 90//110 89//109
f 86//106 91//111 90//110
f 92//108 86//106 88//108
f 93//112 86//106 92//108
f 80//113 82//112 84//112
f 78//114 80//113 84//112
f 76//115 78//114 84//112
f 75//116 76//115 84//112
f 73//117 75//116 84//112
f 71//118 73//117 84//112
f 69//112 84//112 86//106
f 69//112 86//106 93//112
f 69//112 71//118 84//112
f 94//112 93//112 95//112
f 94//112 69//112 93//112
f 84//119 85//119 96//119
f 84//119 96//119 86//119
f 96//120 97//121 98//122
f 96//120 99//123 97//121
f 96//120 100//124 99//123
f 96//120 101//125 100//124
f 96//120 102//126 101//125
f 96//120 103//127 102//126
f 96//120 104//120 103//127
f 70//120 105//120 106//120
f 70//120 106//120 104//120
f 85//128 72//129 70//120
f 85//128 104//120 96//120
f 85//128 70//120 104//120
f 81//130 85//128 83//131
f 79//132 85//128 81//130
f 74//125 72//129 85//128
f 77//133 74//125 85//128
f 77//133 85//128 79//132
f 107//134 108//135 109//136
f 107//134 109//136 110//137
f 111//138 110//138 112//138
f 111//139 107//139 110//139
f 113//140 112//140 114//140
f 113//141 111//141 112//141
f 115//142 114//142 116//142
f 115//143 113//143 114//143
f 117//144 116//145 118//146
f 117//147 118//147 119//147
f 117//144 115//148 116//145
f 120//149 119//149 121//149
f 120//150 117//150 119//150
f 51//151 121//151 40//151
f 51//152 120//152 121//152
f 50//153 40//153 39//153
f 50//154 51//154 40//154
f 49//155 39//155 35//155
f 49//156 50//156 39//156
f 48//157 49//157 35//157
f 47//158 35//159 34//160
f 47//158 48//161 35//159
f 46//162 34//162 36//162
f 46//163 47//163 34//163
f 44//164 36//164 37//164
f 44//165 46//165 36//165
f 45//166 37//166 38//166
f 45//167 44//167 37//167
f 43//168 38//169 33//170
f 43//168 45//171 38//169
f 122//172 123//173 124//174
f 122//172 124//174 125//175
f 126//176 125//176 127//176
f 126//177 122//177 125//177
f 128//178 127//178 129//178
f 128//179 126//179 127//179
f 130//180 129//180 131//180
f 130//181 128//181 129//181
f 132//182 131//183 133//184
f 132//185 133//185 134//185
f 132//182 130//186 131//183
f 135//187 134//187 136//187
f 135//188 132//188 134//188
f 104//189 136//189 93//189
f 104//190 135//190 136//190
f 103//191 93//191 92//191
f 103//192 104//192 93//192
f 102//193 92//193 88//193
f 102//194 103//194 92//194
f 101//195 102//195 88//195
f 100//196 88//197 87//198
f 100//196 101//199 88//197
f 99//200 87//200 89//200
f 99//201 100//201 87//201
f 97//202 89//202 90//202
f 97//203 99//203 89//203
f 98//204 90//204 91//204
f 98//205 97//205 90//205
f 96//206 91//207 86//208
f 96//206 98//209 91//207
f 55//210 62//211 64//212
f 55//210 60//213 62//211
f 55//210 58//214 60//213
f 55//210 54//215 58//214
f 67//216 55//210 64//212
f 69//217 55//210 67//216
f 6//218 4//219 3//220
f 8//221 6//218 3//220
f 10//222 8//221 3//220
f 12//223 10//222 3//220
f 13//224 12//223 3//220
f 15//225 13//224 3//220
f 17//217 3//220 55//210
f 17//217 55//210 69//217
f 17//217 15//225 3//220
f 52//217 69//217 94//217
f 52//217 17//217 69//217
f 52//226 94//226 95//226
f 52//226 95//226 53//226
f 124//227 127//228 125//229
f 124//227 129//230 127//228
f 124//227 131//231 129//230
f 124//227 133//232 131//231
f 124//227 134//233 133//232
f 124//227 136//234 134//233
f 124//227 93//227 136//234
f 51//227 53//227 95//227
f 51//227 95//227 93//227
f 108//235 120//236 51//227
f 108//235 93//227 124//227
f 108//235 51//227 93//227
f 111//237 108//235 107//238
f 113//239 108//235 111//237
f 117//240 120//236 108//235
f 115//241 117//240 108//235
f 115//241 108//235 113//239
f 109//242 108//242 124//242
f 109//242 124//242 123//242
f 105//243 41//243 42//243
f 105//243 42//243 106//243
f 123//244 130//245 132//246
f 123//244 128//247 130//245
f 123//244 126//248 128//247
f 123//244 122//249 126//248
f 135//250 123//244 132//246
f 104//251 123//244 135//250
f 112//252 110//253 109//251
f 114//254 112//252 109//251
f 116//255 114//254 109//251
f 118//256 116//255 109//251
f 119//257 118//256 109//251
f 121//258 119//257 109//251
f 40//251 109//251 123//244
f 40//251 104//251 106//251
f 40//251 123//244 104//251
f 40//251 121//258 109//251
f 42//251 40//251 106//251
f 56//259 59//260 57//261
f 56//259 61//262 59//260
f 56//259 63//263 61//262
f 56//259 65//264 63//263
f 56//259 66//265 65//264
f 56//259 68//266 66//265
f 56//259 70//267 68//266
f 16//267 41//267 105//267
f 16//267 105//267 70//267
f 16//267 70//267 56//259
f 2//268 14//259 16//267
f 2//268 16//267 56//259
f 5//269 2//268 1//270
f 7//271 2//268 5//269
f 11//272 14//259 2//268
f 9//268 11//272 2//268
f 9//268 2//268 7//271
f 3//273 2//273 56//273
f 3//273 56//273 55//273
