# Blender v2.81 (sub 16) OBJ File: ''
# www.blender.org
mtllib 16.5x27x8 elektrolit kondenzátor.mtl
o 16.5x27x8_elektrolit_kondenzátor
v 0.000089 -0.001785 -0.006776
v 0.000115 -0.001762 -0.005524
v 0.000089 -0.001785 -0.005524
v 0.000058 -0.001801 -0.006776
v 0.000058 -0.001801 -0.005524
v 0.000024 -0.001810 -0.006776
v 0.000024 -0.001810 -0.005524
v -0.000133 -0.001632 -0.006776
v -0.000138 -0.001666 -0.006776
v -0.000138 -0.001666 -0.005524
v -0.000133 -0.001632 -0.005524
v -0.000011 -0.001810 -0.006776
v -0.000011 -0.001810 -0.005524
v -0.000121 -0.001599 -0.006776
v -0.000121 -0.001599 -0.005524
v -0.000044 -0.001801 -0.006776
v -0.000044 -0.001801 -0.005524
v -0.000101 -0.001570 -0.006776
v -0.000101 -0.001570 -0.005524
v -0.000075 -0.001785 -0.006776
v -0.000075 -0.001785 -0.005524
v -0.000075 -0.001547 -0.006776
v -0.000075 -0.001547 -0.005524
v -0.000101 -0.001762 -0.006776
v -0.000101 -0.001762 -0.005524
v -0.000044 -0.001531 -0.006776
v -0.000044 -0.001531 -0.005524
v -0.000121 -0.001733 -0.006776
v -0.000121 -0.001733 -0.005524
v -0.000133 -0.001701 -0.006776
v -0.000133 -0.001701 -0.005524
v -0.000011 -0.001523 -0.006776
v -0.000011 -0.001523 -0.005524
v 0.000024 -0.001523 -0.006776
v 0.000024 -0.001523 -0.005524
v 0.000058 -0.001531 -0.006776
v 0.000058 -0.001531 -0.005524
v 0.000089 -0.001547 -0.006776
v 0.000089 -0.001547 -0.005524
v 0.000115 -0.001570 -0.006776
v 0.000115 -0.001570 -0.005524
v 0.000135 -0.001599 -0.006776
v 0.000135 -0.001599 -0.005524
v 0.000147 -0.001632 -0.006776
v 0.000147 -0.001632 -0.005524
v 0.000151 -0.001666 -0.006776
v 0.000151 -0.001666 -0.005524
v 0.000147 -0.001701 -0.006776
v 0.000147 -0.001701 -0.005524
v 0.000135 -0.001733 -0.006776
v 0.000135 -0.001733 -0.005524
v 0.000115 -0.001762 -0.006776
v 0.000089 0.002067 -0.006776
v 0.000115 0.002090 -0.005524
v 0.000089 0.002067 -0.005524
v 0.000058 0.002051 -0.006776
v 0.000058 0.002051 -0.005524
v 0.000024 0.002043 -0.006776
v 0.000024 0.002043 -0.005524
v -0.000133 0.002221 -0.006776
v -0.000138 0.002186 -0.006776
v -0.000138 0.002186 -0.005524
v -0.000133 0.002221 -0.005524
v -0.000011 0.002043 -0.006776
v -0.000011 0.002043 -0.005524
v -0.000121 0.002253 -0.006776
v -0.000121 0.002253 -0.005524
v -0.000044 0.002051 -0.006776
v -0.000044 0.002051 -0.005524
v -0.000101 0.002282 -0.006776
v -0.000101 0.002282 -0.005524
v -0.000075 0.002067 -0.006776
v -0.000075 0.002067 -0.005524
v -0.000075 0.002305 -0.006776
v -0.000075 0.002305 -0.005524
v -0.000101 0.002090 -0.006776
v -0.000101 0.002090 -0.005524
v -0.000044 0.002321 -0.006776
v -0.000044 0.002321 -0.005524
v -0.000121 0.002119 -0.006776
v -0.000121 0.002119 -0.005524
v -0.000133 0.002152 -0.006776
v -0.000133 0.002152 -0.005524
v -0.000011 0.002330 -0.006776
v -0.000011 0.002330 -0.005524
v 0.000024 0.002330 -0.006776
v 0.000024 0.002330 -0.005524
v 0.000058 0.002321 -0.006776
v 0.000058 0.002321 -0.005524
v 0.000089 0.002305 -0.006776
v 0.000089 0.002305 -0.005524
v 0.000115 0.002282 -0.006776
v 0.000115 0.002282 -0.005524
v 0.000135 0.002253 -0.006776
v 0.000135 0.002253 -0.005524
v 0.000147 0.002221 -0.006776
v 0.000147 0.002221 -0.005524
v 0.000151 0.002186 -0.006776
v 0.000151 0.002186 -0.005524
v 0.000147 0.002152 -0.006776
v 0.000147 0.002152 -0.005524
v 0.000135 0.002119 -0.006776
v 0.000135 0.002119 -0.005524
v 0.000115 0.002090 -0.006776
v 0.000007 0.000121 0.007382
v -0.002996 -0.001520 0.007382
v -0.002955 -0.001589 0.007382
v -0.003037 -0.001451 0.007382
v -0.000114 0.000329 0.007382
v -0.003075 -0.001380 0.007382
v 0.000127 0.000329 0.007382
v 0.003010 -0.001520 0.007382
v 0.002968 -0.001589 0.007382
v 0.003050 -0.001451 0.007382
v 0.003089 -0.001380 0.007382
v -0.000033 0.003751 0.007382
v -0.000114 0.003749 0.007382
v 0.000047 0.003751 0.007382
v 0.000127 0.003749 0.007382
v 0.000007 0.000121 0.007430
v 0.001163 -0.003034 0.007430
v 0.001869 -0.002693 0.007430
v 0.000399 -0.003209 0.007430
v -0.000385 -0.003209 0.007430
v -0.001150 -0.003034 0.007430
v -0.001855 -0.002693 0.007430
v -0.002467 -0.002203 0.007430
v -0.002955 -0.001589 0.007430
v 0.002481 -0.002203 0.007430
v 0.002968 -0.001589 0.007430
v -0.000114 0.000329 0.007430
v -0.003363 -0.000651 0.007430
v -0.003075 -0.001380 0.007430
v -0.003482 0.000124 0.007430
v -0.003424 0.000906 0.007430
v -0.003194 0.001655 0.007430
v -0.002802 0.002334 0.007430
v -0.002268 0.002908 0.007430
v -0.001620 0.003349 0.007430
v -0.000889 0.003634 0.007430
v -0.000114 0.003749 0.007430
v 0.003377 -0.000651 0.007430
v 0.000127 0.000329 0.007430
v 0.003089 -0.001380 0.007430
v 0.003495 0.000124 0.007430
v 0.003438 0.000906 0.007430
v 0.000903 0.003634 0.007430
v 0.000127 0.003749 0.007430
v 0.003207 0.001655 0.007430
v 0.001633 0.003349 0.007430
v 0.002815 0.002334 0.007430
v 0.002281 0.002908 0.007430
v 0.001255 -0.003524 -0.005524
v 0.001255 -0.003524 0.007479
v 0.000585 -0.003683 0.007479
v 0.000585 -0.003683 -0.005524
v -0.000103 -0.003723 0.007479
v -0.000103 -0.003723 -0.005524
v -0.000788 -0.003645 0.007479
v -0.000788 -0.003645 -0.005524
v -0.001448 -0.003450 0.007479
v -0.001448 -0.003450 -0.005524
v -0.001198 -0.003017 0.007479
v -0.000475 -0.003198 0.007479
v 0.000269 -0.003221 0.007479
v 0.001002 -0.003086 0.007479
v -0.001198 -0.003017 -0.005524
v -0.000475 -0.003198 -0.005524
v 0.000269 -0.003221 -0.005524
v 0.001002 -0.003086 -0.005524
v 0.003162 -0.001234 0.007478
v 0.003413 -0.000505 0.007478
v 0.002758 -0.001889 0.007478
v -0.003075 -0.001380 0.007478
v -0.003365 -0.000645 0.007478
v -0.003482 0.000137 0.007478
v -0.003421 0.000925 0.007478
v -0.003183 0.001679 0.007478
v 0.002220 -0.002440 0.007478
v -0.002782 0.002360 0.007478
v 0.001574 -0.002860 0.007478
v -0.002238 0.002934 0.007478
v 0.000852 -0.003127 0.007478
v -0.001579 0.003370 0.007478
v 0.000089 -0.003230 0.007478
v -0.000839 0.003647 0.007478
v -0.000678 -0.003163 0.007478
v -0.000055 0.003751 0.007478
v -0.001412 -0.002930 0.007478
v 0.000732 0.003675 0.007478
v -0.002077 -0.002541 0.007478
v -0.002641 -0.002016 0.007478
v 0.001482 0.003424 0.007478
v 0.002156 0.003011 0.007478
v 0.002720 0.002457 0.007478
v 0.003145 0.001791 0.007478
v 0.003409 0.001045 0.007478
v 0.003498 0.000260 0.007478
v -0.000636 -0.003661 0.007478
v -0.000636 -0.003661 -0.005524
v 0.000222 -0.003707 -0.005524
v -0.001464 -0.003431 0.007478
v 0.000222 -0.003707 0.007478
v 0.001070 -0.003568 -0.005524
v 0.001070 -0.003568 0.007478
v 0.001868 -0.003250 -0.005524
v 0.003887 0.001114 0.007478
v 0.003980 0.000260 0.007478
v 0.003980 0.000260 -0.005524
v 0.003887 0.001114 -0.005524
v 0.001868 -0.003250 0.007478
v 0.002579 -0.002768 -0.005524
v 0.003612 0.001928 0.007478
v 0.003612 0.001928 -0.005524
v 0.002579 -0.002768 0.007478
v 0.003169 0.002664 0.007478
v 0.003169 0.002664 -0.005524
v 0.003169 -0.002144 0.007478
v 0.003169 -0.002144 -0.005524
v 0.002579 0.003288 0.007478
v 0.002579 0.003288 -0.005524
v 0.001868 0.003770 -0.005524
v 0.003612 -0.001408 0.007478
v 0.003612 -0.001408 -0.005524
v 0.001868 0.003770 0.007478
v 0.001070 0.004088 -0.005524
v 0.003887 -0.000594 0.007478
v 0.003887 -0.000594 -0.005524
v 0.001070 0.004088 0.007478
v 0.000222 0.004227 -0.005524
v 0.000222 0.004227 0.007478
v -0.000636 0.004180 -0.005524
v -0.000636 0.004180 0.007478
v -0.001464 0.003951 -0.005524
v -0.001464 0.003951 0.007478
v -0.002223 0.003548 -0.005524
v -0.002223 0.003548 0.007478
v -0.002877 0.002992 -0.005524
v -0.002877 0.002992 0.007478
v -0.003397 0.002308 -0.005524
v -0.003397 0.002308 0.007478
v -0.003758 0.001528 -0.005524
v -0.003758 0.001528 0.007478
v -0.003943 0.000689 -0.005524
v -0.003943 0.000689 0.007478
v -0.003943 -0.000170 -0.005524
v -0.003943 -0.000170 0.007478
v -0.003758 -0.001009 -0.005524
v -0.003758 -0.001009 0.007478
v -0.003397 -0.001788 -0.005524
v -0.003397 -0.001788 0.007478
v -0.002877 -0.002472 -0.005524
v -0.002877 -0.002472 0.007478
v -0.002223 -0.003028 -0.005524
v -0.002223 -0.003028 0.007478
v -0.001464 -0.003431 -0.005524
vn 0.6631 -0.7485 -0.0000
vn 0.4647 -0.8855 -0.0000
vn 0.2393 -0.9709 -0.0000
vn -0.9927 0.1205 0.0000
vn 0.0000 -1.0000 -0.0000
vn -0.9350 0.3546 0.0000
vn -0.2393 -0.9709 -0.0000
vn -0.8230 0.5681 0.0000
vn -0.4647 -0.8855 -0.0000
vn -0.6631 0.7485 0.0000
vn -0.6631 -0.7485 -0.0000
vn -0.4647 0.8855 0.0000
vn -0.8230 -0.5681 -0.0000
vn -0.9350 -0.3546 -0.0000
vn -0.2393 0.9709 0.0000
vn -0.9927 -0.1205 -0.0000
vn 0.0000 1.0000 0.0000
vn 0.2393 0.9709 0.0000
vn 0.4647 0.8855 0.0000
vn 0.6631 0.7485 0.0000
vn 0.8230 0.5681 0.0000
vn 0.9350 0.3546 0.0000
vn 0.9927 0.1205 0.0000
vn 0.9927 -0.1205 -0.0000
vn 0.9350 -0.3546 -0.0000
vn 0.8230 -0.5681 -0.0000
vn 0.0000 0.0000 -1.0000
vn 0.0001 0.0000 -1.0000
vn 0.4647 -0.8854 0.0000
vn -0.4647 -0.8854 0.0000
vn -0.4648 0.8854 0.0000
vn 0.4648 0.8854 0.0000
vn -0.0001 0.0000 -1.0000
vn 0.0000 0.0000 1.0000
vn 0.2300 -0.9732 -0.0000
vn 0.0589 -0.9983 -0.0000
vn -0.1139 -0.9935 -0.0000
vn -0.2833 -0.9590 -0.0000
vn -0.5000 0.8660 0.0000
vn 0.5000 0.8660 0.0000
vn -0.5000 -0.8660 0.0000
vn -1.0000 0.0000 0.0000
vn 1.0000 0.0000 0.0000
vn 0.5000 -0.8660 0.0000
vn -0.9112 0.3137 -0.2672
vn -0.8900 0.3519 0.2900
vn -0.7787 0.4802 -0.4037
vn -0.8496 0.4905 -0.1939
vn 0.9299 0.3678 0.0000
vn 0.9302 0.3668 -0.0152
vn 0.9885 0.1481 -0.0302
vn 0.9884 0.1509 0.0151
vn -0.8773 0.4800 0.0000
vn -0.8654 0.4996 -0.0383
vn 0.9959 -0.0780 -0.0449
vn 0.9969 -0.0734 0.0300
vn 0.9521 -0.2999 -0.0594
vn -0.8543 0.5198 0.0000
vn 0.9548 -0.2938 0.0446
vn -0.6550 0.6398 -0.4020
vn -0.7127 0.5654 0.4153
vn 0.8595 -0.5059 -0.0735
vn 0.8645 -0.4991 0.0589
vn -0.4994 0.7688 -0.3995
vn -0.5692 0.7109 0.4132
vn 0.7228 -0.6855 -0.0873
vn 0.7307 -0.6788 0.0729
vn -0.3192 0.8610 -0.3960
vn -0.3968 0.8212 0.4102
vn 0.5601 -0.8239 0.0866
vn 0.5493 -0.8295 -0.1009
vn -0.1230 0.9119 -0.3916
vn -0.2039 0.8907 0.4063
vn 0.3617 -0.9269 0.1000
vn 0.3481 -0.9305 -0.1141
vn 0.0802 0.9189 -0.3863
vn 0.0000 0.9158 0.4015
vn 0.1455 -0.9829 0.1131
vn 0.1297 -0.9834 -0.1271
vn 0.2805 0.8815 -0.3799
vn 0.0000 -0.9995 0.0318
vn 0.2049 0.8952 0.3958
vn -0.0909 -0.9453 -0.3132
vn 0.4684 0.8011 -0.3727
vn 0.4007 0.8294 0.3892
vn 0.0230 -0.9997 0.0000
vn 0.6349 0.6813 -0.3644
vn 0.5777 0.7216 0.3815
vn 0.0000 -0.9993 -0.0383
vn 0.7269 0.5767 0.3729
vn 0.7718 0.5276 -0.3550
vn -0.0230 -0.9997 0.0000
vn 0.8660 0.5000 0.0000
vn -0.1396 -0.9427 0.3030
vn -0.3020 -0.9029 -0.3060
vn -0.3473 -0.8900 0.2956
vn -0.4986 -0.8138 -0.2984
vn 0.8543 0.5198 0.0000
vn 0.8654 0.4996 -0.0383
vn -0.5385 -0.7920 0.2879
vn 0.8773 0.4800 0.0000
vn -0.6706 -0.6825 -0.2906
vn -0.7033 -0.6535 0.2798
vn -0.8090 -0.5155 -0.2825
vn -0.8335 -0.4812 0.2715
vn -0.9065 -0.3211 -0.2741
vn -0.9221 -0.2838 0.2630
vn -0.9579 -0.1092 -0.2654
vn -0.9646 -0.0710 0.2541
vn -0.9626 0.1068 -0.2490
vn -0.9511 0.1452 0.2727
vn -0.8660 0.5000 0.0000
vn -0.1812 0.9835 0.0000
vn 0.0316 0.9995 0.0000
vn 0.2430 0.9700 0.0000
vn -0.0541 -0.9985 -0.0000
vn -0.2675 -0.9635 -0.0000
vn 0.1618 -0.9868 -0.0000
vn 0.3701 -0.9290 -0.0000
vn 0.9941 0.1081 0.0000
vn 0.5612 -0.8277 -0.0000
vn 0.9477 0.3193 0.0000
vn 0.8569 0.5156 0.0000
vn 0.7260 -0.6877 -0.0000
vn 0.5612 0.8277 0.0000
vn 0.7260 0.6877 0.0000
vn 0.8569 -0.5156 -0.0000
vn 0.3701 0.9290 0.0000
vn 0.9477 -0.3193 -0.0000
vn 0.1618 0.9868 0.0000
vn 0.9941 -0.1081 -0.0000
vn -0.0541 0.9985 0.0000
vn -0.2675 0.9635 0.0000
vn -0.4684 0.8835 0.0000
vn -0.6474 0.7622 0.0000
vn -0.7961 0.6052 0.0000
vn -0.9076 0.4199 0.0000
vn -0.9766 0.2150 0.0000
vn -0.9766 -0.2150 -0.0000
vn -0.9076 -0.4199 -0.0000
vn -0.7961 -0.6052 -0.0000
vn -0.6474 -0.7622 -0.0000
vn -0.4684 -0.8835 -0.0000
usemtl material_2.169
s 1
f 1//1 2//1 3//1
f 4//2 1//2 3//2
f 4//2 3//2 5//2
f 6//3 5//3 7//3
f 6//3 4//3 5//3
f 8//4 9//4 10//4
f 8//4 10//4 11//4
f 12//5 7//5 13//5
f 12//5 6//5 7//5
f 14//6 11//6 15//6
f 16//7 13//7 17//7
f 14//6 8//6 11//6
f 16//7 12//7 13//7
f 18//8 15//8 19//8
f 20//9 17//9 21//9
f 18//8 14//8 15//8
f 20//9 16//9 17//9
f 22//10 19//10 23//10
f 24//11 21//11 25//11
f 22//10 18//10 19//10
f 24//11 20//11 21//11
f 26//12 23//12 27//12
f 28//13 25//13 29//13
f 26//12 22//12 23//12
f 28//13 24//13 25//13
f 30//14 29//14 31//14
f 30//14 28//14 29//14
f 32//15 27//15 33//15
f 9//16 31//16 10//16
f 32//15 26//15 27//15
f 9//16 30//16 31//16
f 34//17 33//17 35//17
f 34//17 32//17 33//17
f 36//18 35//18 37//18
f 36//18 34//18 35//18
f 38//19 37//19 39//19
f 38//19 36//19 37//19
f 40//20 39//20 41//20
f 40//20 38//20 39//20
f 42//21 40//21 41//21
f 42//21 41//21 43//21
f 44//22 42//22 43//22
f 44//22 43//22 45//22
f 46//23 44//23 45//23
f 46//23 45//23 47//23
f 48//24 46//24 47//24
f 48//24 47//24 49//24
f 50//25 48//25 49//25
f 50//25 49//25 51//25
f 52//26 50//26 51//26
f 52//26 51//26 2//26
f 1//1 52//1 2//1
f 8//27 40//27 9//27
f 14//27 40//27 8//27
f 18//27 40//27 14//27
f 22//27 40//27 18//27
f 26//27 40//27 22//27
f 32//27 40//27 26//27
f 34//27 40//27 32//27
f 36//27 40//27 34//27
f 38//27 40//27 36//27
f 44//27 40//27 42//28
f 46//28 40//27 44//27
f 48//27 40//27 46//28
f 50//27 40//27 48//27
f 52//27 40//27 50//27
f 1//27 40//27 52//27
f 4//27 40//27 1//27
f 6//27 40//27 4//27
f 12//27 40//27 6//27
f 16//27 40//27 12//27
f 20//27 40//27 16//27
f 24//27 40//27 20//27
f 28//27 40//27 24//27
f 30//27 40//27 28//27
f 9//27 40//27 30//27
f 53//1 54//1 55//1
f 56//29 53//29 55//29
f 56//29 55//29 57//29
f 58//3 57//3 59//3
f 58//3 56//3 57//3
f 60//4 61//4 62//4
f 60//4 62//4 63//4
f 64//5 59//5 65//5
f 64//5 58//5 59//5
f 66//6 63//6 67//6
f 68//7 65//7 69//7
f 66//6 60//6 63//6
f 68//7 64//7 65//7
f 70//8 67//8 71//8
f 72//30 69//30 73//30
f 70//8 66//8 67//8
f 72//30 68//30 69//30
f 74//10 71//10 75//10
f 76//11 73//11 77//11
f 74//10 70//10 71//10
f 76//11 72//11 73//11
f 78//31 75//31 79//31
f 80//13 77//13 81//13
f 78//31 74//31 75//31
f 80//13 76//13 77//13
f 82//14 81//14 83//14
f 82//14 80//14 81//14
f 84//15 79//15 85//15
f 61//16 83//16 62//16
f 84//15 78//15 79//15
f 61//16 82//16 83//16
f 86//17 85//17 87//17
f 86//17 84//17 85//17
f 88//18 87//18 89//18
f 88//18 86//18 87//18
f 90//32 89//32 91//32
f 90//32 88//32 89//32
f 92//20 91//20 93//20
f 92//20 90//20 91//20
f 94//21 92//21 93//21
f 94//21 93//21 95//21
f 96//22 94//22 95//22
f 96//22 95//22 97//22
f 98//23 96//23 97//23
f 98//23 97//23 99//23
f 100//24 98//24 99//24
f 100//24 99//24 101//24
f 102//25 100//25 101//25
f 102//25 101//25 103//25
f 104//26 102//26 103//26
f 104//26 103//26 54//26
f 53//1 104//1 54//1
f 60//27 92//27 61//27
f 66//27 92//27 60//27
f 70//27 92//27 66//27
f 74//27 92//27 70//27
f 78//27 92//27 74//27
f 84//27 92//27 78//27
f 86//27 92//27 84//27
f 88//27 92//27 86//27
f 90//27 92//27 88//27
f 96//28 92//27 94//33
f 98//27 92//27 96//28
f 100//27 92//27 98//27
f 102//27 92//27 100//27
f 104//27 92//27 102//27
f 53//27 92//27 104//27
f 56//27 92//27 53//27
f 58//27 92//27 56//27
f 64//27 92//27 58//27
f 68//27 92//27 64//27
f 72//27 92//27 68//27
f 76//27 92//27 72//27
f 80//27 92//27 76//27
f 82//27 92//27 80//27
f 61//27 92//27 82//27
f 105//34 106//34 107//34
f 105//34 108//34 106//34
f 109//34 110//34 108//34
f 109//34 108//34 105//34
f 111//34 109//34 105//34
f 112//34 105//34 113//34
f 114//34 111//34 105//34
f 114//34 105//34 112//34
f 115//34 111//34 114//34
f 116//34 117//34 109//34
f 118//34 109//34 111//34
f 118//34 116//34 109//34
f 119//34 118//34 111//34
f 120//34 121//34 122//34
f 120//34 123//34 121//34
f 120//34 124//34 123//34
f 120//34 125//34 124//34
f 120//34 126//34 125//34
f 120//34 127//34 126//34
f 120//34 128//34 127//34
f 129//34 120//34 122//34
f 130//34 120//34 129//34
f 131//34 132//34 133//34
f 131//34 134//34 132//34
f 131//34 135//34 134//34
f 131//34 136//34 135//34
f 131//34 137//34 136//34
f 138//34 137//34 131//34
f 139//34 138//34 131//34
f 140//34 139//34 131//34
f 141//34 140//34 131//34
f 142//34 143//34 144//34
f 145//34 143//34 142//34
f 146//34 143//34 145//34
f 147//34 148//34 143//34
f 149//34 143//34 146//34
f 150//34 147//34 143//34
f 151//34 143//34 149//34
f 152//34 150//34 143//34
f 152//34 143//34 151//34
f 153//35 154//35 155//35
f 156//36 155//36 157//36
f 156//35 153//35 155//35
f 158//37 157//37 159//37
f 158//36 156//36 157//36
f 160//38 159//38 161//38
f 160//37 158//37 159//37
f 162//38 160//38 161//38
f 163//34 161//34 159//34
f 164//34 159//34 157//34
f 164//34 163//34 159//34
f 165//34 157//34 155//34
f 165//34 164//34 157//34
f 166//34 155//34 154//34
f 166//34 165//34 155//34
f 162//27 167//27 160//27
f 160//27 168//27 158//27
f 167//27 168//27 160//27
f 158//27 169//27 156//27
f 168//27 169//27 158//27
f 156//27 170//27 153//27
f 169//27 170//27 156//27
usemtl material_1.323
f 120//39 107//39 128//39
f 105//39 107//39 120//39
f 130//40 105//40 120//40
f 113//40 105//40 130//40
f 143//41 115//41 144//41
f 111//41 115//41 143//41
f 148//42 111//42 143//42
f 119//42 111//42 148//42
f 131//43 117//43 141//43
f 109//43 117//43 131//43
f 133//44 109//44 131//44
f 110//44 109//44 133//44
f 142//45 171//45 172//45
f 142//46 144//46 171//46
f 171//47 130//47 173//47
f 144//48 130//48 171//48
f 133//49 132//49 174//49
f 174//50 132//50 175//50
f 175//51 134//51 176//51
f 132//52 134//52 175//52
f 115//53 114//53 144//53
f 114//54 112//54 144//54
f 176//55 135//55 177//55
f 144//54 112//54 130//54
f 134//56 135//56 176//56
f 177//57 136//57 178//57
f 112//58 113//58 130//58
f 135//59 136//59 177//59
f 173//60 129//60 179//60
f 130//61 129//61 173//61
f 178//62 137//62 180//62
f 136//63 137//63 178//63
f 179//64 122//64 181//64
f 129//65 122//65 179//65
f 180//66 138//66 182//66
f 137//67 138//67 180//67
f 181//68 121//68 183//68
f 122//69 121//69 181//69
f 138//70 139//70 182//70
f 182//71 139//71 184//71
f 183//72 123//72 185//72
f 121//73 123//73 183//73
f 139//74 140//74 184//74
f 184//75 140//75 186//75
f 185//76 124//76 187//76
f 123//77 124//77 185//77
f 140//78 141//78 186//78
f 186//79 141//79 188//79
f 187//80 125//80 189//80
f 141//81 148//81 188//81
f 124//82 125//82 187//82
f 148//83 190//83 188//83
f 189//84 126//84 191//84
f 125//85 126//85 189//85
f 117//86 116//86 141//86
f 191//87 127//87 192//87
f 126//88 127//88 191//88
f 141//89 118//89 148//89
f 116//89 118//89 141//89
f 127//90 128//90 192//90
f 192//91 128//91 174//91
f 118//92 119//92 148//92
f 128//93 133//93 174//93
f 148//94 147//94 190//94
f 147//95 193//95 190//95
f 147//96 150//96 193//96
f 150//97 194//97 193//97
f 107//98 106//98 128//98
f 128//99 108//99 133//99
f 106//99 108//99 128//99
f 150//100 152//100 194//100
f 108//101 110//101 133//101
f 152//102 195//102 194//102
f 152//103 151//103 195//103
f 151//104 196//104 195//104
f 151//105 149//105 196//105
f 149//106 197//106 196//106
f 149//107 146//107 197//107
f 146//108 198//108 197//108
f 146//109 145//109 198//109
f 145//110 172//110 198//110
f 145//111 142//111 172//111
f 167//112 161//112 163//112
f 167//112 162//112 161//112
f 170//93 166//93 154//93
f 153//93 170//93 154//93
f 170//113 169//113 166//113
f 166//113 169//113 165//113
f 165//114 168//114 164//114
f 169//114 168//114 165//114
f 164//115 167//115 163//115
f 168//115 167//115 164//115
usemtl material_0.329
f 199//116 200//116 201//116
f 199//117 202//117 200//117
f 203//118 201//118 204//118
f 203//116 199//116 201//116
f 205//119 204//119 206//119
f 207//120 208//120 209//120
f 205//118 203//118 204//118
f 207//120 209//120 210//120
f 211//121 206//121 212//121
f 211//119 205//119 206//119
f 213//122 210//122 214//122
f 213//122 207//122 210//122
f 215//121 211//121 212//121
f 216//123 214//123 217//123
f 216//123 213//123 214//123
f 218//124 212//124 219//124
f 218//124 215//124 212//124
f 220//125 221//125 222//125
f 220//126 217//126 221//126
f 220//126 216//126 217//126
f 223//127 219//127 224//127
f 223//127 218//127 219//127
f 225//128 222//128 226//128
f 225//125 220//125 222//125
f 227//129 224//129 228//129
f 227//129 223//129 224//129
f 229//130 226//130 230//130
f 229//128 225//128 226//128
f 208//131 228//131 209//131
f 208//131 227//131 228//131
f 231//132 230//132 232//132
f 231//130 229//130 230//130
f 233//133 232//133 234//133
f 233//132 231//132 232//132
f 235//133 233//133 234//133
f 235//134 234//134 236//134
f 237//134 235//134 236//134
f 237//135 236//135 238//135
f 239//135 237//135 238//135
f 239//136 238//136 240//136
f 241//136 239//136 240//136
f 241//137 240//137 242//137
f 243//137 241//137 242//137
f 243//138 242//138 244//138
f 245//138 243//138 244//138
f 245//42 244//42 246//42
f 247//42 245//42 246//42
f 247//139 246//139 248//139
f 249//139 247//139 248//139
f 249//140 248//140 250//140
f 251//140 249//140 250//140
f 251//141 250//141 252//141
f 253//141 251//141 252//141
f 253//142 252//142 254//142
f 255//142 253//142 254//142
f 255//143 254//143 256//143
f 202//117 256//117 200//117
f 202//143 255//143 256//143
f 65//27 59//27 33//27
f 54//27 210//27 209//27
f 236//27 63//27 62//27
f 230//27 226//27 89//27
f 35//27 57//27 37//27
f 91//27 226//27 93//27
f 89//27 226//27 91//27
f 54//27 214//27 210//27
f 103//27 214//27 54//27
f 59//27 57//27 35//27
f 226//27 222//27 93//27
f 236//27 67//27 63//27
f 57//27 55//27 37//27
f 95//27 222//27 97//27
f 93//27 222//27 95//27
f 37//27 55//27 39//27
f 103//27 217//27 214//27
f 101//27 217//27 103//27
f 222//27 221//27 97//27
f 101//27 221//27 217//27
f 99//27 221//27 101//27
f 97//27 221//27 99//27
f 43//27 224//27 219//27
f 41//27 224//27 43//27
f 2//27 206//27 204//27
f 51//27 206//27 2//27
f 49//27 206//27 51//27
f 25//27 21//27 256//27
f 256//27 21//27 200//27
f 256//27 29//27 25//27
f 254//27 29//27 256//27
f 47//27 212//27 49//27
f 45//27 212//27 47//27
f 49//27 212//27 206//27
f 21//27 17//27 200//27
f 254//27 31//27 29//27
f 45//27 219//27 212//27
f 43//27 219//27 45//27
f 200//27 13//27 201//27
f 17//27 13//27 200//27
f 254//27 10//27 31//27
f 252//27 10//27 254//27
f 242//27 77//27 244//27
f 13//27 7//27 201//27
f 244//27 73//27 246//27
f 246//27 73//27 23//27
f 250//27 11//27 252//27
f 77//27 73//27 244//27
f 71//27 234//27 75//27
f 252//27 11//27 10//27
f 67//27 234//27 71//27
f 240//27 81//27 242//27
f 236//27 234//27 67//27
f 7//27 5//27 201//27
f 201//27 5//27 204//27
f 242//27 81//27 77//27
f 248//27 15//27 250//27
f 41//27 228//27 224//27
f 23//27 69//27 27//27
f 73//27 69//27 23//27
f 250//27 15//27 11//27
f 238//27 83//27 240//27
f 5//27 3//27 204//27
f 79//27 232//27 85//27
f 240//27 83//27 81//27
f 246//27 19//27 248//27
f 75//27 232//27 79//27
f 234//27 232//27 75//27
f 248//27 19//27 15//27
f 39//27 209//27 41//27
f 27//27 65//27 33//27
f 54//27 209//27 55//27
f 69//27 65//27 27//27
f 3//27 2//27 204//27
f 236//27 62//27 238//27
f 55//27 209//27 39//27
f 41//27 209//27 228//27
f 246//27 23//27 19//27
f 232//27 230//27 85//27
f 238//27 62//27 83//27
f 87//27 230//27 89//27
f 85//27 230//27 87//27
f 33//27 59//27 35//27
f 223//34 171//34 218//34
f 235//34 237//34 184//34
f 186//34 235//34 184//34
f 172//34 171//34 223//34
f 192//34 251//34 253//34
f 227//34 172//34 223//34
f 191//34 253//34 255//34
f 191//34 192//34 253//34
f 233//34 235//34 186//34
f 174//34 249//34 251//34
f 174//34 251//34 192//34
f 188//34 233//34 186//34
f 189//34 255//34 202//34
f 189//34 191//34 255//34
f 198//34 172//34 227//34
f 175//34 247//34 249//34
f 175//34 249//34 174//34
f 208//34 198//34 227//34
f 187//34 202//34 199//34
f 187//34 189//34 202//34
f 231//34 233//34 188//34
f 231//34 188//34 190//34
f 176//34 247//34 175//34
f 245//34 247//34 176//34
f 185//34 199//34 203//34
f 185//34 187//34 199//34
f 207//34 198//34 208//34
f 207//34 197//34 198//34
f 229//34 190//34 193//34
f 229//34 231//34 190//34
f 177//34 245//34 176//34
f 183//34 203//34 205//34
f 183//34 185//34 203//34
f 243//34 245//34 177//34
f 213//34 196//34 197//34
f 178//34 243//34 177//34
f 213//34 197//34 207//34
f 225//34 193//34 194//34
f 225//34 229//34 193//34
f 216//34 195//34 196//34
f 216//34 196//34 213//34
f 181//34 205//34 211//34
f 181//34 183//34 205//34
f 220//34 194//34 195//34
f 220//34 225//34 194//34
f 220//34 195//34 216//34
f 241//34 243//34 178//34
f 180//34 241//34 178//34
f 179//34 181//34 211//34
f 215//34 179//34 211//34
f 239//34 241//34 180//34
f 182//34 239//34 180//34
f 173//34 179//34 215//34
f 218//34 173//34 215//34
f 237//34 239//34 182//34
f 184//34 237//34 182//34
f 171//34 173//34 218//34
