# Blender v2.81 (sub 16) OBJ File: ''
# www.blender.org
mtllib 18-Pin Shrouded Header (IDC) Straight.mtl
o 18-Pin_Shrouded_Header_(IDC)_Straight
v 0.000539 0.000498 0.010088
v 0.000539 0.000496 0.010088
v 0.000539 0.000496 -0.010088
v 0.000539 0.000498 -0.010088
v 0.000539 0.000500 0.010088
v 0.000539 0.000501 -0.010089
v 0.000539 0.000502 0.010089
v 0.000538 0.000503 -0.010090
v 0.000538 0.000505 0.010091
v 0.000538 0.000506 -0.010092
v 0.000537 0.000509 0.010096
v 0.000537 0.000509 -0.010096
v 0.000535 0.000514 -0.010103
v 0.000533 0.000517 0.010111
v 0.000531 0.000521 -0.010119
v 0.000526 0.000526 0.010138
v 0.000526 0.000526 -0.010138
v 0.000521 0.000531 0.010119
v 0.000517 0.000533 -0.010111
v 0.000514 0.000535 0.010103
v 0.000509 0.000537 -0.010096
v 0.000509 0.000537 0.010096
v 0.000506 0.000538 0.010092
v 0.000505 0.000538 -0.010091
v 0.000503 0.000538 0.010090
v 0.000502 0.000539 -0.010089
v 0.000501 0.000539 0.010089
v 0.000500 0.000539 -0.010088
v 0.000498 0.000539 0.010088
v 0.000498 0.000539 -0.010088
v 0.000496 0.000539 0.010088
v 0.000496 0.000539 -0.010088
v -0.000496 0.000539 0.010088
v -0.000505 0.000538 0.010091
v -0.000509 0.000537 0.010096
v -0.000502 0.000539 0.010089
v -0.000500 0.000539 0.010088
v -0.000498 0.000539 0.010088
v -0.000517 0.000533 0.010111
v -0.000526 0.000526 0.010138
v 0.000323 0.000323 0.010950
v -0.000323 0.000323 0.010950
v -0.000496 0.000539 -0.010088
v -0.000501 0.000539 -0.010089
v -0.000498 0.000539 -0.010088
v -0.000503 0.000538 -0.010090
v -0.000506 0.000538 -0.010092
v -0.000509 0.000537 -0.010096
v -0.000514 0.000535 -0.010103
v -0.000521 0.000531 -0.010119
v -0.000526 0.000526 -0.010138
v 0.000323 0.000323 -0.010950
v -0.000323 0.000323 -0.010950
v 0.000539 -0.000498 -0.010088
v 0.000539 -0.000496 -0.010088
v 0.000539 -0.000496 0.010088
v 0.000539 -0.000498 0.010088
v 0.000539 -0.000500 -0.010088
v 0.000539 -0.000501 0.010089
v 0.000539 -0.000502 -0.010089
v 0.000538 -0.000503 0.010090
v 0.000538 -0.000505 -0.010091
v 0.000538 -0.000506 0.010092
v 0.000537 -0.000509 -0.010096
v 0.000537 -0.000509 0.010096
v 0.000535 -0.000514 0.010103
v 0.000533 -0.000517 -0.010111
v 0.000531 -0.000521 0.010119
v 0.000526 -0.000526 -0.010138
v 0.000526 -0.000526 0.010138
v 0.000521 -0.000531 -0.010119
v 0.000517 -0.000533 0.010111
v 0.000514 -0.000535 -0.010103
v 0.000509 -0.000537 0.010096
v 0.000509 -0.000537 -0.010096
v 0.000506 -0.000538 -0.010092
v 0.000505 -0.000538 0.010091
v 0.000503 -0.000538 -0.010090
v 0.000502 -0.000539 0.010089
v 0.000501 -0.000539 -0.010089
v 0.000500 -0.000539 0.010088
v 0.000498 -0.000539 -0.010088
v 0.000498 -0.000539 0.010088
v 0.000496 -0.000539 -0.010088
v 0.000496 -0.000539 0.010088
v -0.000496 -0.000539 -0.010088
v -0.000505 -0.000538 -0.010091
v -0.000509 -0.000537 -0.010096
v -0.000502 -0.000539 -0.010089
v -0.000500 -0.000539 -0.010088
v -0.000498 -0.000539 -0.010088
v -0.000517 -0.000533 -0.010111
v -0.000526 -0.000526 -0.010138
v 0.000323 -0.000323 -0.010950
v -0.000323 -0.000323 -0.010950
v -0.000496 -0.000539 0.010088
v -0.000501 -0.000539 0.010089
v -0.000498 -0.000539 0.010088
v -0.000503 -0.000538 0.010090
v -0.000506 -0.000538 0.010092
v -0.000509 -0.000537 0.010096
v -0.000514 -0.000535 0.010103
v -0.000521 -0.000531 0.010119
v -0.000526 -0.000526 0.010138
v 0.000323 -0.000323 0.010950
v -0.000323 -0.000323 0.010950
v -0.000539 0.000498 -0.010088
v -0.000539 0.000496 -0.010088
v -0.000539 0.000496 0.010088
v -0.000539 0.000498 0.010088
v -0.000539 0.000500 -0.010088
v -0.000539 0.000501 0.010089
v -0.000539 0.000502 -0.010089
v -0.000538 0.000503 0.010090
v -0.000538 0.000505 -0.010091
v -0.000538 0.000506 0.010092
v -0.000537 0.000509 -0.010096
v -0.000537 0.000509 0.010096
v -0.000535 0.000514 0.010103
v -0.000533 0.000517 -0.010111
v -0.000531 0.000521 0.010119
v -0.000539 -0.000498 0.010088
v -0.000539 -0.000496 0.010088
v -0.000539 -0.000496 -0.010088
v -0.000539 -0.000498 -0.010088
v -0.000539 -0.000500 0.010088
v -0.000539 -0.000501 -0.010089
v -0.000539 -0.000502 0.010089
v -0.000538 -0.000503 -0.010090
v -0.000538 -0.000505 0.010091
v -0.000538 -0.000506 -0.010092
v -0.000537 -0.000509 0.010096
v -0.000537 -0.000509 -0.010096
v -0.000535 -0.000514 -0.010103
v -0.000533 -0.000517 0.010111
v -0.000531 -0.000521 -0.010119
vn 0.9996 0.0284 -0.0000
vn 0.9997 0.0225 -0.0000
vn 0.9997 0.0234 0.0000
vn 0.9996 0.0294 -0.0000
vn 0.9961 0.0882 -0.0000
vn 0.9980 0.0634 0.0000
vn 0.9892 0.1465 0.0000
vn 0.9937 0.1120 0.0000
vn 0.9788 0.2046 -0.0000
vn 0.9845 0.1755 0.0000
vn 0.9634 0.2681 0.0000
vn 0.9648 0.2630 0.0000
vn 0.9625 0.2712 -0.0000
vn 0.9312 0.3645 0.0000
vn 0.9657 0.2595 0.0000
vn 0.8676 0.4973 -0.0000
vn 0.9141 0.4055 0.0000
vn 0.7669 0.6418 0.0000
vn 0.7934 0.6086 0.0000
vn 0.6086 0.7934 -0.0000
vn 0.6419 0.7668 0.0000
vn 0.4055 0.9141 -0.0000
vn 0.4972 0.8677 0.0000
vn 0.3645 0.9312 -0.0000
vn 0.2629 0.9648 0.0000
vn 0.2679 0.9635 -0.0000
vn 0.2595 0.9658 -0.0000
vn 0.2712 0.9625 0.0000
vn 0.1755 0.9845 -0.0000
vn 0.2046 0.9788 0.0000
vn 0.1119 0.9937 -0.0000
vn 0.1471 0.9891 0.0000
vn 0.0634 0.9980 -0.0000
vn 0.0882 0.9961 0.0000
vn 0.0235 0.9997 0.0000
vn 0.0270 0.9996 -0.0000
vn 0.0214 0.9998 0.0000
vn 0.0291 0.9996 0.0000
vn -0.0000 0.9702 0.2425
vn 0.0001 0.9702 0.2421
vn 0.0000 0.9701 0.2425
vn -0.0002 0.9703 0.2421
vn -0.0002 0.9701 0.2429
vn -0.0000 0.9706 0.2409
vn -0.0003 0.9703 0.2421
vn 0.0002 0.9702 0.2423
vn -0.0001 0.9700 0.2432
vn 0.0002 0.9702 0.2422
vn -0.0001 0.9701 0.2426
vn 0.0000 0.9702 0.2424
vn 0.0000 1.0000 0.0000
vn -0.0000 0.9701 -0.2425
vn -0.0001 0.9702 -0.2424
vn -0.0000 0.9702 -0.2424
vn 0.0004 0.9701 -0.2428
vn 0.0003 0.9701 -0.2428
vn 0.0001 0.9701 -0.2426
vn 0.0000 0.9702 -0.2425
vn 0.0002 0.9702 -0.2424
vn 0.0002 0.9709 -0.2394
vn 0.0001 0.9700 -0.2430
vn -0.0001 0.9701 -0.2426
vn 0.9996 -0.0284 0.0000
vn 0.9997 -0.0227 0.0000
vn 0.9997 -0.0235 -0.0000
vn 0.9996 -0.0294 0.0000
vn 0.9961 -0.0882 0.0000
vn 0.9980 -0.0634 -0.0000
vn 0.9892 -0.1465 -0.0000
vn 0.9937 -0.1120 -0.0000
vn 0.9787 -0.2051 0.0000
vn 0.9845 -0.1755 -0.0000
vn 0.9635 -0.2678 0.0000
vn 0.9648 -0.2630 0.0000
vn 0.9625 -0.2713 0.0000
vn 0.9312 -0.3645 -0.0000
vn 0.9658 -0.2592 -0.0000
vn 0.8676 -0.4973 0.0000
vn 0.9141 -0.4055 -0.0000
vn 0.7668 -0.6419 -0.0000
vn 0.7934 -0.6087 -0.0000
vn 0.6087 -0.7934 0.0000
vn 0.6420 -0.7667 -0.0000
vn 0.4055 -0.9141 0.0000
vn 0.4972 -0.8677 -0.0000
vn 0.3645 -0.9312 0.0000
vn 0.2629 -0.9648 -0.0000
vn 0.2679 -0.9635 0.0000
vn 0.2595 -0.9658 0.0000
vn 0.2712 -0.9625 -0.0000
vn 0.1755 -0.9845 0.0000
vn 0.2053 -0.9787 -0.0000
vn 0.1119 -0.9937 0.0000
vn 0.1464 -0.9892 -0.0000
vn 0.0634 -0.9980 0.0000
vn 0.0882 -0.9961 -0.0000
vn 0.0236 -0.9997 -0.0000
vn 0.0272 -0.9996 0.0000
vn 0.0211 -0.9998 -0.0000
vn 0.0294 -0.9996 -0.0000
vn -0.0000 -0.9702 -0.2425
vn -0.0000 -0.9701 -0.2426
vn -0.0005 -0.9703 -0.2418
vn -0.0000 -0.9700 -0.2429
vn -0.0006 -0.9706 -0.2408
vn 0.0000 -0.9701 -0.2425
vn -0.0002 -0.9709 -0.2394
vn -0.0005 -0.9699 -0.2435
vn 0.0002 -0.9702 -0.2423
vn -0.0001 -0.9701 -0.2426
vn 0.0000 -1.0000 -0.0000
vn 0.0000 -0.9701 0.2425
vn -0.0002 -0.9702 0.2422
vn -0.0003 -0.9710 0.2392
vn 0.0004 -0.9700 0.2431
vn -0.0001 -0.9702 0.2423
vn 0.0001 -0.9701 0.2426
vn 0.0000 -0.9702 0.2425
vn -0.0001 -0.9701 0.2426
vn 0.0000 -0.9697 0.2442
vn -0.0000 -0.9710 0.2391
vn 0.0002 -0.9702 0.2422
vn -0.0001 -0.9701 0.2428
vn -0.9996 0.0269 0.0000
vn -0.9998 0.0215 0.0000
vn -0.9997 0.0236 -0.0000
vn -0.9996 0.0290 0.0000
vn -0.9961 0.0882 0.0000
vn -0.9980 0.0637 0.0000
vn -0.9891 0.1470 0.0000
vn -0.9938 0.1113 -0.0000
vn -0.9787 0.2055 -0.0000
vn -0.9846 0.1746 -0.0000
vn -0.9634 0.2679 -0.0000
vn -0.9648 0.2629 0.0000
vn -0.9625 0.2712 0.0000
vn -0.9312 0.3645 -0.0000
vn -0.9657 0.2595 -0.0000
vn -0.8676 0.4972 0.0000
vn -0.9141 0.4055 -0.0000
vn -0.7668 0.6419 0.0000
vn -0.7934 0.6087 -0.0000
vn -0.6087 0.7934 0.0000
vn -0.6419 0.7668 0.0000
vn -0.4055 0.9141 0.0000
vn -0.4972 0.8676 -0.0000
vn -0.3645 0.9312 0.0000
vn -0.2629 0.9648 0.0000
vn -0.2679 0.9634 -0.0000
vn -0.2596 0.9657 0.0000
vn -0.2712 0.9625 0.0000
vn -0.1754 0.9845 0.0000
vn -0.2046 0.9789 -0.0000
vn -0.1119 0.9937 0.0000
vn -0.1471 0.9891 -0.0000
vn -0.0634 0.9980 0.0000
vn -0.0882 0.9961 -0.0000
vn -0.0235 0.9997 0.0000
vn -0.0270 0.9996 -0.0000
vn -0.0214 0.9998 0.0000
vn -0.0291 0.9996 0.0000
vn -0.9997 -0.0261 -0.0000
vn -0.9998 -0.0202 -0.0000
vn -0.9997 -0.0238 -0.0000
vn -0.9996 -0.0297 0.0000
vn -0.9961 -0.0882 -0.0000
vn -0.9980 -0.0637 -0.0000
vn -0.9891 -0.1470 -0.0000
vn -0.9938 -0.1113 0.0000
vn -0.9788 -0.2047 -0.0000
vn -0.9846 -0.1746 -0.0000
vn -0.9633 -0.2683 0.0000
vn -0.9649 -0.2628 -0.0000
vn -0.9625 -0.2713 -0.0000
vn -0.9312 -0.3645 0.0000
vn -0.9656 -0.2600 -0.0000
vn -0.8676 -0.4972 -0.0000
vn -0.9141 -0.4055 0.0000
vn -0.7667 -0.6420 -0.0000
vn -0.7933 -0.6088 0.0000
vn -0.6088 -0.7933 -0.0000
vn -0.6420 -0.7667 -0.0000
vn -0.4055 -0.9141 -0.0000
vn -0.4972 -0.8676 0.0000
vn -0.3645 -0.9312 -0.0000
vn -0.2629 -0.9648 -0.0000
vn -0.2680 -0.9634 -0.0000
vn -0.2596 -0.9657 -0.0000
vn -0.2712 -0.9625 -0.0000
vn -0.1754 -0.9845 -0.0000
vn -0.2052 -0.9787 0.0000
vn -0.1119 -0.9937 -0.0000
vn -0.1468 -0.9892 -0.0000
vn -0.0634 -0.9980 -0.0000
vn -0.0882 -0.9961 0.0000
vn -0.0236 -0.9997 -0.0000
vn -0.0271 -0.9996 0.0000
vn -0.0211 -0.9998 -0.0000
vn -0.0294 -0.9996 0.0000
vn 0.9702 -0.0000 -0.2425
vn 0.9702 -0.0001 -0.2425
vn 0.9705 -0.0004 -0.2412
vn 0.9704 0.0004 -0.2413
vn 0.9687 -0.0015 -0.2483
vn 0.9701 -0.0000 -0.2425
vn 0.9705 0.0007 -0.2409
vn 0.9703 -0.0001 -0.2418
vn 0.9703 0.0004 -0.2417
vn 0.9704 -0.0002 -0.2416
vn 0.9701 0.0001 -0.2428
vn 0.9702 -0.0000 -0.2423
vn 0.9702 0.0001 -0.2425
vn 0.0000 0.0000 -1.0000
vn -0.9701 0.0000 -0.2426
vn -0.9699 0.0001 -0.2436
vn -0.9700 -0.0000 -0.2432
vn -0.9701 0.0002 -0.2426
vn -0.9700 -0.0003 -0.2431
vn -0.9701 0.0000 -0.2425
vn -0.9702 -0.0003 -0.2425
vn -0.9703 0.0001 -0.2419
vn -0.9703 0.0000 -0.2418
vn -0.9693 0.0004 -0.2457
vn -0.9702 0.0001 -0.2422
vn -0.9702 -0.0001 -0.2422
vn -1.0000 0.0000 0.0000
vn 0.0000 0.0000 1.0000
vn -0.9703 -0.0001 0.2419
vn -0.9702 0.0003 0.2423
vn -0.9701 -0.0000 0.2425
vn -0.9699 -0.0001 0.2434
vn -0.9703 0.0003 0.2419
vn -0.9713 -0.0007 0.2379
vn -0.9701 0.0000 0.2426
vn -0.9699 0.0008 0.2435
vn -0.9705 -0.0001 0.2413
vn -0.9702 0.0002 0.2423
vn -0.9702 0.0005 0.2424
vn 0.9703 -0.0003 0.2419
vn 0.9703 -0.0012 0.2419
vn 0.9709 -0.0001 0.2397
vn 0.9702 0.0006 0.2422
vn 0.9702 -0.0002 0.2423
vn 0.9702 -0.0000 0.2425
vn 0.9702 -0.0001 0.2425
vn 0.9701 -0.0000 0.2425
vn 0.9700 -0.0004 0.2430
vn 0.9706 0.0017 0.2407
vn 0.9703 0.0004 0.2420
vn 0.9701 0.0001 0.2425
vn 0.9703 0.0000 0.2420
vn 1.0000 0.0000 0.0000
usemtl material_1.735
s 1
f 1//1 2//2 3//3
f 1//1 3//3 4//4
f 5//5 4//5 6//5
f 5//6 1//6 4//6
f 7//7 6//7 8//7
f 7//8 5//8 6//8
f 9//9 8//9 10//9
f 9//10 7//10 8//10
f 11//11 10//12 12//13
f 11//14 12//14 13//14
f 11//11 9//15 10//12
f 14//16 13//16 15//16
f 14//17 11//17 13//17
f 16//18 15//18 17//18
f 16//19 14//19 15//19
f 18//20 17//20 19//20
f 18//21 16//21 17//21
f 20//22 19//22 21//22
f 20//23 18//23 19//23
f 22//24 20//24 21//24
f 23//25 21//26 24//27
f 23//25 22//28 21//26
f 25//29 24//29 26//29
f 25//30 23//30 24//30
f 27//31 26//31 28//31
f 27//32 25//32 26//32
f 29//33 28//33 30//33
f 29//34 27//34 28//34
f 31//35 30//36 32//37
f 31//35 29//38 30//36
usemtl material_0.749
f 33//39 34//40 35//41
f 33//39 36//42 34//40
f 33//39 37//43 36//42
f 33//39 38//44 37//43
f 39//39 33//39 35//41
f 40//41 33//39 39//39
f 27//45 29//46 31//41
f 25//47 27//45 31//41
f 23//48 25//47 31//41
f 22//39 23//48 31//41
f 20//49 22//39 31//41
f 18//50 20//49 31//41
f 16//41 31//41 33//39
f 16//41 33//39 40//41
f 16//41 18//50 31//41
f 41//41 40//41 42//41
f 41//41 16//41 40//41
f 31//51 32//51 43//51
f 31//51 43//51 33//51
f 43//52 44//53 45//54
f 43//52 46//55 44//53
f 43//52 47//56 46//55
f 43//52 48//52 47//56
f 43//52 49//57 48//52
f 43//52 50//54 49//57
f 43//52 51//52 50//54
f 17//52 52//52 53//52
f 17//52 53//52 51//52
f 32//58 19//58 17//52
f 32//58 51//52 43//52
f 32//58 17//52 51//52
f 28//59 32//58 30//60
f 26//61 32//58 28//59
f 21//52 19//58 32//58
f 24//62 21//52 32//58
f 24//62 32//58 26//61
f 54//63 55//64 56//65
f 54//63 56//65 57//66
f 58//67 57//67 59//67
f 58//68 54//68 57//68
f 60//69 59//69 61//69
f 60//70 58//70 59//70
f 62//71 61//71 63//71
f 62//72 60//72 61//72
f 64//73 63//74 65//75
f 64//76 65//76 66//76
f 64//73 62//77 63//74
f 67//78 66//78 68//78
f 67//79 64//79 66//79
f 69//80 68//80 70//80
f 69//81 67//81 68//81
f 71//82 70//82 72//82
f 71//83 69//83 70//83
f 73//84 72//84 74//84
f 73//85 71//85 72//85
f 75//86 73//86 74//86
f 76//87 74//88 77//89
f 76//87 75//90 74//88
f 78//91 77//91 79//91
f 78//92 76//92 77//92
f 80//93 79//93 81//93
f 80//94 78//94 79//94
f 82//95 81//95 83//95
f 82//96 80//96 81//96
f 84//97 83//98 85//99
f 84//97 82//100 83//98
f 86//101 87//102 88//101
f 86//101 89//103 87//102
f 86//101 90//104 89//103
f 86//101 91//105 90//104
f 92//102 86//101 88//101
f 93//106 86//101 92//102
f 80//104 82//107 84//106
f 78//108 80//104 84//106
f 76//109 78//108 84//106
f 75//101 76//109 84//106
f 73//110 75//101 84//106
f 71//102 73//110 84//106
f 69//106 84//106 86//101
f 69//106 86//101 93//106
f 69//106 71//102 84//106
f 94//106 93//106 95//106
f 94//106 69//106 93//106
f 84//111 85//111 96//111
f 84//111 96//111 86//111
f 96//112 97//113 98//114
f 96//112 99//115 97//113
f 96//112 100//116 99//115
f 96//112 101//112 100//116
f 96//112 102//117 101//112
f 96//112 103//117 102//117
f 96//112 104//112 103//117
f 70//112 105//112 106//112
f 70//112 106//112 104//112
f 85//118 72//119 70//112
f 85//118 104//112 96//112
f 85//118 70//112 104//112
f 81//120 85//118 83//121
f 79//122 85//118 81//120
f 74//112 72//119 85//118
f 77//123 74//112 85//118
f 77//123 85//118 79//122
f 107//124 108//125 109//126
f 107//124 109//126 110//127
f 111//128 110//128 112//128
f 111//129 107//129 110//129
f 113//130 112//130 114//130
f 113//131 111//131 112//131
f 115//132 114//132 116//132
f 115//133 113//133 114//133
f 117//134 116//135 118//136
f 117//137 118//137 119//137
f 117//134 115//138 116//135
f 120//139 119//139 121//139
f 120//140 117//140 119//140
f 51//141 121//141 40//141
f 51//142 120//142 121//142
f 50//143 40//143 39//143
f 50//144 51//144 40//144
f 49//145 39//145 35//145
f 49//146 50//146 39//146
f 48//147 49//147 35//147
f 47//148 35//149 34//150
f 47//148 48//151 35//149
f 46//152 34//152 36//152
f 46//153 47//153 34//153
f 44//154 36//154 37//154
f 44//155 46//155 36//155
f 45//156 37//156 38//156
f 45//157 44//157 37//157
f 43//158 38//159 33//160
f 43//158 45//161 38//159
f 122//162 123//163 124//164
f 122//162 124//164 125//165
f 126//166 125//166 127//166
f 126//167 122//167 125//167
f 128//168 127//168 129//168
f 128//169 126//169 127//169
f 130//170 129//170 131//170
f 130//171 128//171 129//171
f 132//172 131//173 133//174
f 132//175 133//175 134//175
f 132//172 130//176 131//173
f 135//177 134//177 136//177
f 135//178 132//178 134//178
f 104//179 136//179 93//179
f 104//180 135//180 136//180
f 103//181 93//181 92//181
f 103//182 104//182 93//182
f 102//183 92//183 88//183
f 102//184 103//184 92//184
f 101//185 102//185 88//185
f 100//186 88//187 87//188
f 100//186 101//189 88//187
f 99//190 87//190 89//190
f 99//191 100//191 87//191
f 97//192 89//192 90//192
f 97//193 99//193 89//193
f 98//194 90//194 91//194
f 98//195 97//195 90//195
f 96//196 91//197 86//198
f 96//196 98//199 91//197
f 55//200 62//200 64//201
f 55//200 60//202 62//200
f 55//200 58//203 60//202
f 55//200 54//204 58//203
f 67//200 55//200 64//201
f 69//205 55//200 67//200
f 6//206 4//207 3//208
f 8//209 6//206 3//208
f 10//210 8//209 3//208
f 12//200 10//210 3//208
f 13//211 12//200 3//208
f 15//212 13//211 3//208
f 17//205 3//208 55//200
f 17//205 55//200 69//205
f 17//205 15//212 3//208
f 52//205 69//205 94//205
f 52//205 17//205 69//205
f 52//213 94//213 95//213
f 52//213 95//213 53//213
f 124//214 127//215 125//216
f 124//214 129//217 127//215
f 124//214 131//218 129//217
f 124//214 133//219 131//218
f 124//214 134//220 133//219
f 124//214 136//214 134//220
f 124//214 93//219 136//214
f 51//219 53//219 95//219
f 51//219 95//219 93//219
f 108//221 120//214 51//219
f 108//221 93//219 124//214
f 108//221 51//219 93//219
f 111//222 108//221 107//223
f 113//224 108//221 111//222
f 117//219 120//214 108//221
f 115//225 117//219 108//221
f 115//225 108//221 113//224
f 109//226 108//226 124//226
f 109//226 124//226 123//226
f 105//227 41//227 42//227
f 105//227 42//227 106//227
f 123//228 130//229 132//230
f 123//228 128//231 130//229
f 123//228 126//232 128//231
f 123//228 122//233 126//232
f 135//234 123//228 132//230
f 104//230 123//228 135//234
f 112//235 110//236 109//234
f 114//234 112//235 109//234
f 116//237 114//234 109//234
f 118//230 116//237 109//234
f 119//238 118//230 109//234
f 121//234 119//238 109//234
f 40//230 109//234 123//228
f 40//230 104//230 106//230
f 40//230 123//228 104//230
f 40//230 121//234 109//234
f 42//230 40//230 106//230
f 56//239 59//240 57//241
f 56//239 61//242 59//240
f 56//239 63//243 61//242
f 56//239 65//244 63//243
f 56//239 66//243 65//244
f 56//239 68//245 66//243
f 56//239 70//246 68//245
f 16//246 41//246 105//246
f 16//246 105//246 70//246
f 16//246 70//246 56//239
f 2//244 14//246 16//246
f 2//244 16//246 56//239
f 5//247 2//244 1//248
f 7//249 2//244 5//247
f 11//250 14//246 2//244
f 9//251 11//250 2//244
f 9//251 2//244 7//249
f 3//252 2//252 56//252
f 3//252 56//252 55//252
