# Blender v2.81 (sub 16) OBJ File: ''
# www.blender.org
mtllib 20-Pin Shrouded Header (IDC) Straight.mtl
o 20-Pin_Shrouded_Header_(IDC)_Straight
v 0.000642 0.000593 0.012015
v 0.000642 0.000591 0.012014
v 0.000642 0.000591 -0.012014
v 0.000642 0.000594 -0.012015
v 0.000642 0.000595 0.012015
v 0.000642 0.000597 -0.012016
v 0.000641 0.000598 0.012016
v 0.000641 0.000600 -0.012018
v 0.000641 0.000601 0.012019
v 0.000641 0.000603 -0.012020
v 0.000639 0.000606 0.012024
v 0.000639 0.000606 -0.012024
v 0.000637 0.000612 -0.012033
v 0.000635 0.000616 0.012042
v 0.000633 0.000620 -0.012051
v 0.000627 0.000627 0.012075
v 0.000627 0.000627 -0.012075
v 0.000620 0.000633 0.012051
v 0.000616 0.000635 -0.012042
v 0.000612 0.000637 0.012033
v 0.000606 0.000639 -0.012024
v 0.000606 0.000639 0.012024
v 0.000603 0.000641 0.012020
v 0.000601 0.000641 -0.012019
v 0.000600 0.000641 0.012018
v 0.000598 0.000641 -0.012016
v 0.000597 0.000642 0.012016
v 0.000595 0.000642 -0.012015
v 0.000594 0.000642 0.012015
v 0.000593 0.000642 -0.012015
v 0.000591 0.000642 0.012014
v 0.000591 0.000642 -0.012014
v -0.000591 0.000642 0.012014
v -0.000601 0.000641 0.012019
v -0.000606 0.000639 0.012024
v -0.000598 0.000641 0.012016
v -0.000595 0.000642 0.012015
v -0.000593 0.000642 0.012015
v -0.000616 0.000635 0.012042
v -0.000627 0.000627 0.012075
v 0.000385 0.000385 0.013042
v -0.000385 0.000385 0.013042
v -0.000591 0.000642 -0.012014
v -0.000597 0.000642 -0.012016
v -0.000594 0.000642 -0.012015
v -0.000600 0.000641 -0.012018
v -0.000603 0.000641 -0.012020
v -0.000606 0.000639 -0.012024
v -0.000612 0.000637 -0.012033
v -0.000620 0.000633 -0.012051
v -0.000627 0.000627 -0.012075
v 0.000385 0.000385 -0.013042
v -0.000385 0.000385 -0.013042
v 0.000642 -0.000593 -0.012015
v 0.000642 -0.000591 -0.012014
v 0.000642 -0.000591 0.012014
v 0.000642 -0.000594 0.012015
v 0.000642 -0.000595 -0.012015
v 0.000642 -0.000597 0.012016
v 0.000641 -0.000598 -0.012016
v 0.000641 -0.000600 0.012018
v 0.000641 -0.000601 -0.012019
v 0.000641 -0.000603 0.012020
v 0.000639 -0.000606 -0.012024
v 0.000639 -0.000606 0.012024
v 0.000637 -0.000612 0.012033
v 0.000635 -0.000616 -0.012042
v 0.000633 -0.000620 0.012051
v 0.000627 -0.000627 -0.012075
v 0.000627 -0.000627 0.012075
v 0.000620 -0.000633 -0.012051
v 0.000616 -0.000635 0.012042
v 0.000612 -0.000637 -0.012033
v 0.000606 -0.000639 0.012024
v 0.000606 -0.000639 -0.012024
v 0.000603 -0.000641 -0.012020
v 0.000601 -0.000641 0.012019
v 0.000600 -0.000641 -0.012018
v 0.000598 -0.000641 0.012016
v 0.000597 -0.000642 -0.012016
v 0.000595 -0.000642 0.012015
v 0.000594 -0.000642 -0.012015
v 0.000593 -0.000642 0.012015
v 0.000591 -0.000642 -0.012014
v 0.000591 -0.000642 0.012014
v -0.000591 -0.000642 -0.012014
v -0.000601 -0.000641 -0.012019
v -0.000606 -0.000639 -0.012024
v -0.000598 -0.000641 -0.012016
v -0.000595 -0.000642 -0.012015
v -0.000593 -0.000642 -0.012015
v -0.000616 -0.000635 -0.012042
v -0.000627 -0.000627 -0.012075
v 0.000385 -0.000385 -0.013042
v -0.000385 -0.000385 -0.013042
v -0.000591 -0.000642 0.012014
v -0.000597 -0.000642 0.012016
v -0.000594 -0.000642 0.012015
v -0.000600 -0.000641 0.012018
v -0.000603 -0.000641 0.012020
v -0.000606 -0.000639 0.012024
v -0.000612 -0.000637 0.012033
v -0.000620 -0.000633 0.012051
v -0.000627 -0.000627 0.012075
v 0.000385 -0.000385 0.013042
v -0.000385 -0.000385 0.013042
v -0.000642 0.000593 -0.012015
v -0.000642 0.000591 -0.012014
v -0.000642 0.000591 0.012014
v -0.000642 0.000594 0.012015
v -0.000642 0.000595 -0.012015
v -0.000642 0.000597 0.012016
v -0.000641 0.000598 -0.012016
v -0.000641 0.000600 0.012018
v -0.000641 0.000601 -0.012019
v -0.000641 0.000603 0.012020
v -0.000639 0.000606 -0.012024
v -0.000639 0.000606 0.012024
v -0.000637 0.000612 0.012033
v -0.000635 0.000616 -0.012042
v -0.000633 0.000620 0.012051
v -0.000642 -0.000593 0.012015
v -0.000642 -0.000591 0.012014
v -0.000642 -0.000591 -0.012014
v -0.000642 -0.000594 -0.012015
v -0.000642 -0.000595 0.012015
v -0.000642 -0.000597 -0.012016
v -0.000641 -0.000598 0.012016
v -0.000641 -0.000600 -0.012018
v -0.000641 -0.000601 0.012019
v -0.000641 -0.000603 -0.012020
v -0.000639 -0.000606 0.012024
v -0.000639 -0.000606 -0.012024
v -0.000637 -0.000612 -0.012033
v -0.000635 -0.000616 0.012042
v -0.000633 -0.000620 -0.012051
vn 0.9996 0.0271 -0.0000
vn 0.9998 0.0215 0.0000
vn 0.9997 0.0236 -0.0000
vn 0.9996 0.0294 -0.0000
vn 0.9961 0.0882 -0.0000
vn 0.9980 0.0633 0.0000
vn 0.9892 0.1466 -0.0000
vn 0.9937 0.1120 0.0000
vn 0.9789 0.2044 -0.0000
vn 0.9845 0.1755 0.0000
vn 0.9634 0.2679 0.0000
vn 0.9648 0.2629 -0.0000
vn 0.9625 0.2713 -0.0000
vn 0.9312 0.3645 0.0000
vn 0.9657 0.2595 0.0000
vn 0.8676 0.4973 -0.0000
vn 0.9141 0.4055 0.0000
vn 0.7669 0.6418 0.0000
vn 0.7935 0.6086 0.0000
vn 0.6086 0.7934 -0.0000
vn 0.6421 0.7666 0.0000
vn 0.4055 0.9141 -0.0000
vn 0.4972 0.8676 0.0000
vn 0.3645 0.9312 -0.0000
vn 0.2629 0.9648 0.0000
vn 0.2679 0.9634 -0.0000
vn 0.2595 0.9657 -0.0000
vn 0.2713 0.9625 0.0000
vn 0.1755 0.9845 -0.0000
vn 0.2045 0.9789 0.0000
vn 0.1119 0.9937 -0.0000
vn 0.1467 0.9892 0.0000
vn 0.0633 0.9980 -0.0000
vn 0.0882 0.9961 0.0000
vn 0.0236 0.9997 0.0000
vn 0.0271 0.9996 0.0000
vn 0.0211 0.9998 0.0000
vn 0.0294 0.9996 0.0000
vn -0.0000 0.9702 0.2425
vn 0.0003 0.9701 0.2428
vn -0.0001 0.9702 0.2425
vn -0.0001 0.9702 0.2422
vn -0.0005 0.9702 0.2424
vn -0.0003 0.9700 0.2432
vn -0.0000 0.9701 0.2425
vn 0.0001 0.9704 0.2414
vn -0.0001 0.9700 0.2431
vn -0.0000 0.9701 0.2426
vn 0.0001 0.9702 0.2422
vn -0.0001 0.9701 0.2426
vn 0.0002 0.9702 0.2424
vn 0.0000 1.0000 0.0000
vn -0.0000 0.9701 -0.2425
vn 0.0004 0.9704 -0.2416
vn -0.0004 0.9702 -0.2425
vn -0.0002 0.9702 -0.2423
vn 0.0001 0.9701 -0.2426
vn -0.0000 0.9702 -0.2425
vn -0.0002 0.9702 -0.2424
vn 0.0001 0.9702 -0.2424
vn 0.0001 0.9702 -0.2425
vn 0.0006 0.9703 -0.2420
vn 0.0003 0.9702 -0.2421
vn -0.0001 0.9701 -0.2426
vn 0.9996 -0.0271 0.0000
vn 0.9998 -0.0215 -0.0000
vn 0.9997 -0.0236 0.0000
vn 0.9996 -0.0294 0.0000
vn 0.9961 -0.0882 0.0000
vn 0.9980 -0.0633 -0.0000
vn 0.9891 -0.1470 0.0000
vn 0.9937 -0.1120 -0.0000
vn 0.9789 -0.2044 0.0000
vn 0.9845 -0.1755 -0.0000
vn 0.9634 -0.2679 -0.0000
vn 0.9648 -0.2629 0.0000
vn 0.9625 -0.2713 0.0000
vn 0.9312 -0.3645 -0.0000
vn 0.9657 -0.2595 -0.0000
vn 0.8676 -0.4973 0.0000
vn 0.9141 -0.4055 -0.0000
vn 0.7669 -0.6418 -0.0000
vn 0.7935 -0.6086 -0.0000
vn 0.6086 -0.7934 0.0000
vn 0.6421 -0.7666 -0.0000
vn 0.4055 -0.9141 0.0000
vn 0.4972 -0.8676 -0.0000
vn 0.3645 -0.9312 0.0000
vn 0.2629 -0.9648 -0.0000
vn 0.2679 -0.9634 0.0000
vn 0.2595 -0.9657 0.0000
vn 0.2713 -0.9625 -0.0000
vn 0.1755 -0.9845 0.0000
vn 0.2045 -0.9789 -0.0000
vn 0.1119 -0.9937 0.0000
vn 0.1467 -0.9892 -0.0000
vn 0.0633 -0.9980 0.0000
vn 0.0882 -0.9961 -0.0000
vn 0.0236 -0.9997 -0.0000
vn 0.0271 -0.9996 -0.0000
vn 0.0211 -0.9998 -0.0000
vn 0.0294 -0.9996 -0.0000
vn -0.0001 -0.9702 -0.2425
vn -0.0000 -0.9701 -0.2426
vn -0.0002 -0.9702 -0.2425
vn 0.0003 -0.9702 -0.2423
vn -0.0007 -0.9703 -0.2420
vn -0.0002 -0.9702 -0.2422
vn -0.0000 -0.9701 -0.2425
vn -0.0004 -0.9703 -0.2419
vn 0.0003 -0.9702 -0.2425
vn 0.0002 -0.9702 -0.2423
vn 0.0001 -0.9702 -0.2421
vn 0.0000 -0.9702 -0.2425
vn -0.0001 -0.9701 -0.2426
vn 0.0002 -0.9702 -0.2424
vn 0.0000 -1.0000 -0.0000
vn -0.0000 -0.9701 0.2425
vn -0.0001 -0.9705 0.2412
vn 0.0001 -0.9702 0.2424
vn 0.0000 -0.9701 0.2427
vn -0.0001 -0.9702 0.2422
vn -0.0000 -0.9702 0.2425
vn 0.0001 -0.9701 0.2426
vn -0.0002 -0.9702 0.2424
vn 0.0000 -0.9702 0.2424
vn 0.0001 -0.9702 0.2425
vn 0.0009 -0.9702 0.2425
vn 0.0002 -0.9700 0.2429
vn 0.0002 -0.9703 0.2418
vn -0.0002 -0.9702 0.2422
vn -0.9996 0.0271 0.0000
vn -0.9998 0.0215 0.0000
vn -0.9997 0.0236 0.0000
vn -0.9996 0.0294 0.0000
vn -0.9961 0.0882 0.0000
vn -0.9980 0.0633 -0.0000
vn -0.9891 0.1470 0.0000
vn -0.9937 0.1120 -0.0000
vn -0.9789 0.2044 0.0000
vn -0.9845 0.1755 -0.0000
vn -0.9634 0.2679 -0.0000
vn -0.9648 0.2629 0.0000
vn -0.9625 0.2713 0.0000
vn -0.9312 0.3645 -0.0000
vn -0.9657 0.2595 -0.0000
vn -0.8676 0.4973 0.0000
vn -0.9141 0.4055 -0.0000
vn -0.7669 0.6418 0.0000
vn -0.7935 0.6086 -0.0000
vn -0.6086 0.7934 0.0000
vn -0.6421 0.7666 0.0000
vn -0.4055 0.9141 0.0000
vn -0.4972 0.8676 -0.0000
vn -0.3645 0.9312 0.0000
vn -0.2629 0.9648 -0.0000
vn -0.2679 0.9634 0.0000
vn -0.2595 0.9657 0.0000
vn -0.2713 0.9625 -0.0000
vn -0.1755 0.9845 0.0000
vn -0.2045 0.9789 -0.0000
vn -0.1119 0.9937 0.0000
vn -0.1467 0.9892 0.0000
vn -0.0633 0.9980 0.0000
vn -0.0882 0.9961 -0.0000
vn -0.0236 0.9997 -0.0000
vn -0.0271 0.9996 -0.0000
vn -0.0211 0.9998 0.0000
vn -0.0294 0.9996 -0.0000
vn -0.9996 -0.0271 -0.0000
vn -0.9998 -0.0215 -0.0000
vn -0.9997 -0.0236 -0.0000
vn -0.9996 -0.0294 -0.0000
vn -0.9961 -0.0882 -0.0000
vn -0.9980 -0.0633 0.0000
vn -0.9892 -0.1466 -0.0000
vn -0.9937 -0.1120 0.0000
vn -0.9789 -0.2044 -0.0000
vn -0.9845 -0.1755 0.0000
vn -0.9634 -0.2679 0.0000
vn -0.9648 -0.2629 -0.0000
vn -0.9625 -0.2713 -0.0000
vn -0.9312 -0.3645 0.0000
vn -0.9657 -0.2595 0.0000
vn -0.8676 -0.4973 -0.0000
vn -0.9141 -0.4055 0.0000
vn -0.7669 -0.6418 -0.0000
vn -0.7935 -0.6086 0.0000
vn -0.6086 -0.7934 -0.0000
vn -0.6421 -0.7666 -0.0000
vn -0.4055 -0.9141 -0.0000
vn -0.4972 -0.8676 0.0000
vn -0.3645 -0.9312 -0.0000
vn -0.2629 -0.9648 0.0000
vn -0.2679 -0.9634 -0.0000
vn -0.2595 -0.9657 -0.0000
vn -0.2713 -0.9625 0.0000
vn -0.1755 -0.9845 -0.0000
vn -0.2045 -0.9789 0.0000
vn -0.1119 -0.9937 -0.0000
vn -0.1467 -0.9892 -0.0000
vn -0.0633 -0.9980 -0.0000
vn -0.0882 -0.9961 0.0000
vn -0.0236 -0.9997 0.0000
vn -0.0271 -0.9996 0.0000
vn -0.0211 -0.9998 -0.0000
vn -0.0294 -0.9996 0.0000
vn 0.9702 -0.0000 -0.2424
vn 0.9701 0.0001 -0.2428
vn 0.9702 -0.0001 -0.2424
vn 0.9703 -0.0003 -0.2419
vn 0.9707 -0.0001 -0.2403
vn 0.9698 -0.0004 -0.2441
vn 0.9702 -0.0000 -0.2425
vn 0.9701 -0.0000 -0.2425
vn 0.9699 0.0001 -0.2435
vn 0.9705 0.0004 -0.2411
vn 0.9702 0.0003 -0.2421
vn 0.9701 0.0000 -0.2428
vn 0.9701 -0.0001 -0.2427
vn 0.9702 0.0001 -0.2424
vn 0.0000 0.0000 -1.0000
vn -0.9702 -0.0000 -0.2425
vn -0.9699 0.0001 -0.2435
vn -0.9705 -0.0000 -0.2413
vn -0.9704 -0.0003 -0.2417
vn -0.9701 0.0000 -0.2428
vn -0.9702 -0.0000 -0.2424
vn -0.9701 0.0001 -0.2427
vn -0.9702 -0.0001 -0.2424
vn -0.9701 -0.0000 -0.2425
vn -0.9706 0.0004 -0.2405
vn -0.9697 0.0003 -0.2443
vn -0.9704 0.0004 -0.2415
vn -0.9702 0.0001 -0.2424
vn -0.9701 -0.0001 -0.2428
vn -1.0000 0.0000 0.0000
vn 0.0000 0.0000 1.0000
vn -0.9702 -0.0000 0.2424
vn -0.9701 0.0002 0.2428
vn -0.9702 -0.0001 0.2424
vn -0.9700 -0.0001 0.2433
vn -0.9704 -0.0002 0.2415
vn -0.9704 -0.0003 0.2415
vn -0.9702 -0.0000 0.2425
vn -0.9701 -0.0000 0.2425
vn -0.9700 0.0001 0.2433
vn -0.9705 0.0001 0.2413
vn -0.9701 0.0001 0.2425
vn -0.9702 0.0002 0.2423
vn -0.9701 -0.0001 0.2427
vn -0.9702 0.0001 0.2424
vn 0.9702 -0.0000 0.2425
vn 0.9701 -0.0001 0.2426
vn 0.9705 -0.0000 0.2413
vn 0.9702 -0.0002 0.2422
vn 0.9702 -0.0000 0.2424
vn 0.9701 0.0001 0.2427
vn 0.9702 -0.0001 0.2424
vn 0.9701 -0.0000 0.2425
vn 0.9705 0.0001 0.2412
vn 0.9700 0.0001 0.2433
vn 0.9702 0.0001 0.2425
vn 1.0000 0.0000 0.0000
usemtl material_1.069
s 1
f 1//1 2//2 3//3
f 1//1 3//3 4//4
f 5//5 4//5 6//5
f 5//6 1//6 4//6
f 7//7 6//7 8//7
f 7//8 5//8 6//8
f 9//9 8//9 10//9
f 9//10 7//10 8//10
f 11//11 10//12 12//13
f 11//14 12//14 13//14
f 11//11 9//15 10//12
f 14//16 13//16 15//16
f 14//17 11//17 13//17
f 16//18 15//18 17//18
f 16//19 14//19 15//19
f 18//20 17//20 19//20
f 18//21 16//21 17//21
f 20//22 19//22 21//22
f 20//23 18//23 19//23
f 22//24 20//24 21//24
f 23//25 21//26 24//27
f 23//25 22//28 21//26
f 25//29 24//29 26//29
f 25//30 23//30 24//30
f 27//31 26//31 28//31
f 27//32 25//32 26//32
f 29//33 28//33 30//33
f 29//34 27//34 28//34
f 31//35 30//36 32//37
f 31//35 29//38 30//36
usemtl material_0.071
f 33//39 34//40 35//41
f 33//39 36//42 34//40
f 33//39 37//43 36//42
f 33//39 38//44 37//43
f 39//41 33//39 35//41
f 40//45 33//39 39//41
f 27//46 29//47 31//45
f 25//48 27//46 31//45
f 23//49 25//48 31//45
f 22//39 23//49 31//45
f 20//50 22//39 31//45
f 18//51 20//50 31//45
f 16//45 31//45 33//39
f 16//45 33//39 40//45
f 16//45 18//51 31//45
f 41//45 40//45 42//45
f 41//45 16//45 40//45
f 31//52 32//52 43//52
f 31//52 43//52 33//52
f 43//53 44//54 45//55
f 43//53 46//56 44//54
f 43//53 47//57 46//56
f 43//53 48//58 47//57
f 43//53 49//57 48//58
f 43//53 50//59 49//57
f 43//53 51//53 50//59
f 17//53 52//53 53//53
f 17//53 53//53 51//53
f 32//60 19//61 17//53
f 32//60 51//53 43//53
f 32//60 17//53 51//53
f 28//62 32//60 30//63
f 26//54 32//60 28//62
f 21//61 19//61 32//60
f 24//64 21//61 32//60
f 24//64 32//60 26//54
f 54//65 55//66 56//67
f 54//65 56//67 57//68
f 58//69 57//69 59//69
f 58//70 54//70 57//70
f 60//71 59//71 61//71
f 60//72 58//72 59//72
f 62//73 61//73 63//73
f 62//74 60//74 61//74
f 64//75 63//76 65//77
f 64//78 65//78 66//78
f 64//75 62//79 63//76
f 67//80 66//80 68//80
f 67//81 64//81 66//81
f 69//82 68//82 70//82
f 69//83 67//83 68//83
f 71//84 70//84 72//84
f 71//85 69//85 70//85
f 73//86 72//86 74//86
f 73//87 71//87 72//87
f 75//88 73//88 74//88
f 76//89 74//90 77//91
f 76//89 75//92 74//90
f 78//93 77//93 79//93
f 78//94 76//94 77//94
f 80//95 79//95 81//95
f 80//96 78//96 79//96
f 82//97 81//97 83//97
f 82//98 80//98 81//98
f 84//99 83//100 85//101
f 84//99 82//102 83//100
f 86//103 87//104 88//105
f 86//103 89//106 87//104
f 86//103 90//107 89//106
f 86//103 91//108 90//107
f 92//103 86//103 88//105
f 93//109 86//103 92//103
f 80//110 82//111 84//109
f 78//112 80//110 84//109
f 76//113 78//112 84//109
f 75//114 76//113 84//109
f 73//115 75//114 84//109
f 71//116 73//115 84//109
f 69//109 84//109 86//103
f 69//109 86//103 93//109
f 69//109 71//116 84//109
f 94//109 93//109 95//109
f 94//109 69//109 93//109
f 84//117 85//117 96//117
f 84//117 96//117 86//117
f 96//118 97//119 98//120
f 96//118 99//121 97//119
f 96//118 100//122 99//121
f 96//118 101//123 100//122
f 96//118 102//124 101//123
f 96//118 103//125 102//124
f 96//118 104//118 103//125
f 70//118 105//118 106//118
f 70//118 106//118 104//118
f 85//126 72//127 70//118
f 85//126 104//118 96//118
f 85//126 70//118 104//118
f 81//128 85//126 83//129
f 79//130 85//126 81//128
f 74//127 72//127 85//126
f 77//131 74//127 85//126
f 77//131 85//126 79//130
f 107//132 108//133 109//134
f 107//132 109//134 110//135
f 111//136 110//136 112//136
f 111//137 107//137 110//137
f 113//138 112//138 114//138
f 113//139 111//139 112//139
f 115//140 114//140 116//140
f 115//141 113//141 114//141
f 117//142 116//143 118//144
f 117//145 118//145 119//145
f 117//142 115//146 116//143
f 120//147 119//147 121//147
f 120//148 117//148 119//148
f 51//149 121//149 40//149
f 51//150 120//150 121//150
f 50//151 40//151 39//151
f 50//152 51//152 40//152
f 49//153 39//153 35//153
f 49//154 50//154 39//154
f 48//155 49//155 35//155
f 47//156 35//157 34//158
f 47//156 48//159 35//157
f 46//160 34//160 36//160
f 46//161 47//161 34//161
f 44//162 36//162 37//162
f 44//163 46//163 36//163
f 45//164 37//164 38//164
f 45//165 44//165 37//165
f 43//166 38//167 33//168
f 43//166 45//169 38//167
f 122//170 123//171 124//172
f 122//170 124//172 125//173
f 126//174 125//174 127//174
f 126//175 122//175 125//175
f 128//176 127//176 129//176
f 128//177 126//177 127//177
f 130//178 129//178 131//178
f 130//179 128//179 129//179
f 132//180 131//181 133//182
f 132//183 133//183 134//183
f 132//180 130//184 131//181
f 135//185 134//185 136//185
f 135//186 132//186 134//186
f 104//187 136//187 93//187
f 104//188 135//188 136//188
f 103//189 93//189 92//189
f 103//190 104//190 93//190
f 102//191 92//191 88//191
f 102//192 103//192 92//192
f 101//193 102//193 88//193
f 100//194 88//195 87//196
f 100//194 101//197 88//195
f 99//198 87//198 89//198
f 99//199 100//199 87//199
f 97//200 89//200 90//200
f 97//201 99//201 89//201
f 98//202 90//202 91//202
f 98//203 97//203 90//203
f 96//204 91//205 86//206
f 96//204 98//207 91//205
f 55//208 62//209 64//210
f 55//208 60//211 62//209
f 55//208 58//212 60//211
f 55//208 54//213 58//212
f 67//214 55//208 64//210
f 69//215 55//208 67//214
f 6//216 4//217 3//214
f 8//218 6//216 3//214
f 10//219 8//218 3//214
f 12//208 10//219 3//214
f 13//220 12//208 3//214
f 15//221 13//220 3//214
f 17//215 3//214 55//208
f 17//215 55//208 69//215
f 17//215 15//221 3//214
f 52//215 69//215 94//215
f 52//215 17//215 69//215
f 52//222 94//222 95//222
f 52//222 95//222 53//222
f 124//223 127//224 125//225
f 124//223 129//226 127//224
f 124//223 131//227 129//226
f 124//223 133//228 131//227
f 124//223 134//229 133//228
f 124//223 136//230 134//229
f 124//223 93//231 136//230
f 51//231 53//231 95//231
f 51//231 95//231 93//231
f 108//228 120//223 51//231
f 108//228 93//231 124//223
f 108//228 51//231 93//231
f 111//232 108//228 107//233
f 113//234 108//228 111//232
f 117//235 120//223 108//228
f 115//236 117//235 108//228
f 115//236 108//228 113//234
f 109//237 108//237 124//237
f 109//237 124//237 123//237
f 105//238 41//238 42//238
f 105//238 42//238 106//238
f 123//239 130//240 132//241
f 123//239 128//242 130//240
f 123//239 126//243 128//242
f 123//239 122//244 126//243
f 135//245 123//239 132//241
f 104//246 123//239 135//245
f 112//247 110//248 109//245
f 114//249 112//247 109//245
f 116//250 114//249 109//245
f 118//239 116//250 109//245
f 119//251 118//239 109//245
f 121//252 119//251 109//245
f 40//246 109//245 123//239
f 40//246 104//246 106//246
f 40//246 123//239 104//246
f 40//246 121//252 109//245
f 42//246 40//246 106//246
f 56//253 59//254 57//255
f 56//253 61//254 59//254
f 56//253 63//256 61//254
f 56//253 65//257 63//256
f 56//253 66//258 65//257
f 56//253 68//259 66//258
f 56//253 70//260 68//259
f 16//260 41//260 105//260
f 16//260 105//260 70//260
f 16//260 70//260 56//253
f 2//253 14//253 16//260
f 2//253 16//260 56//253
f 5//261 2//253 1//261
f 7//262 2//253 5//261
f 11//263 14//253 2//253
f 9//257 11//263 2//253
f 9//257 2//253 7//262
f 3//264 2//264 56//264
f 3//264 56//264 55//264
