# Blender v2.81 (sub 16) OBJ File: ''
# www.blender.org
mtllib 22-Pin Shrouded Header (IDC) Straight.mtl
o 22-Pin_Shrouded_Header_(IDC)_Straight
v 0.000513 0.000474 0.009605
v 0.000513 0.000472 0.009605
v 0.000513 0.000472 -0.009605
v 0.000513 0.000475 -0.009605
v 0.000513 0.000476 0.009606
v 0.000513 0.000477 -0.009606
v 0.000513 0.000478 0.009607
v 0.000513 0.000479 -0.009608
v 0.000512 0.000481 0.009609
v 0.000512 0.000482 -0.009610
v 0.000511 0.000485 0.009613
v 0.000511 0.000485 -0.009613
v 0.000509 0.000489 -0.009620
v 0.000508 0.000493 0.009627
v 0.000506 0.000496 -0.009635
v 0.000501 0.000501 0.009653
v 0.000501 0.000501 -0.009653
v 0.000496 0.000506 0.009635
v 0.000493 0.000508 -0.009627
v 0.000489 0.000509 0.009620
v 0.000485 0.000511 -0.009613
v 0.000485 0.000511 0.009613
v 0.000482 0.000512 0.009610
v 0.000481 0.000512 -0.009609
v 0.000479 0.000513 0.009608
v 0.000478 0.000513 -0.009607
v 0.000477 0.000513 0.009606
v 0.000476 0.000513 -0.009606
v 0.000475 0.000513 0.009605
v 0.000474 0.000513 -0.009605
v 0.000472 0.000513 0.009605
v 0.000472 0.000513 -0.009605
v -0.000472 0.000513 0.009605
v -0.000481 0.000512 0.009609
v -0.000485 0.000511 0.009613
v -0.000478 0.000513 0.009607
v -0.000476 0.000513 0.009606
v -0.000474 0.000513 0.009605
v -0.000493 0.000508 0.009627
v -0.000501 0.000501 0.009653
v 0.000308 0.000308 0.010426
v -0.000308 0.000308 0.010426
v -0.000472 0.000513 -0.009605
v -0.000477 0.000513 -0.009606
v -0.000475 0.000513 -0.009605
v -0.000479 0.000513 -0.009608
v -0.000482 0.000512 -0.009610
v -0.000485 0.000511 -0.009613
v -0.000489 0.000509 -0.009620
v -0.000496 0.000506 -0.009635
v -0.000501 0.000501 -0.009653
v 0.000308 0.000308 -0.010426
v -0.000308 0.000308 -0.010426
v 0.000513 -0.000474 -0.009605
v 0.000513 -0.000472 -0.009605
v 0.000513 -0.000472 0.009605
v 0.000513 -0.000475 0.009605
v 0.000513 -0.000476 -0.009606
v 0.000513 -0.000477 0.009606
v 0.000513 -0.000478 -0.009607
v 0.000513 -0.000479 0.009608
v 0.000512 -0.000481 -0.009609
v 0.000512 -0.000482 0.009610
v 0.000511 -0.000485 -0.009613
v 0.000511 -0.000485 0.009613
v 0.000509 -0.000489 0.009620
v 0.000508 -0.000493 -0.009627
v 0.000506 -0.000496 0.009635
v 0.000501 -0.000501 -0.009653
v 0.000501 -0.000501 0.009653
v 0.000496 -0.000506 -0.009635
v 0.000493 -0.000508 0.009627
v 0.000489 -0.000509 -0.009620
v 0.000485 -0.000511 0.009613
v 0.000485 -0.000511 -0.009613
v 0.000482 -0.000512 -0.009610
v 0.000481 -0.000512 0.009609
v 0.000479 -0.000513 -0.009608
v 0.000478 -0.000513 0.009607
v 0.000477 -0.000513 -0.009606
v 0.000476 -0.000513 0.009606
v 0.000475 -0.000513 -0.009605
v 0.000474 -0.000513 0.009605
v 0.000472 -0.000513 -0.009605
v 0.000472 -0.000513 0.009605
v -0.000472 -0.000513 -0.009605
v -0.000481 -0.000512 -0.009609
v -0.000485 -0.000511 -0.009613
v -0.000478 -0.000513 -0.009607
v -0.000476 -0.000513 -0.009606
v -0.000474 -0.000513 -0.009605
v -0.000493 -0.000508 -0.009627
v -0.000501 -0.000501 -0.009653
v 0.000308 -0.000308 -0.010426
v -0.000308 -0.000308 -0.010426
v -0.000472 -0.000513 0.009605
v -0.000477 -0.000513 0.009606
v -0.000475 -0.000513 0.009605
v -0.000479 -0.000513 0.009608
v -0.000482 -0.000512 0.009610
v -0.000485 -0.000511 0.009613
v -0.000489 -0.000509 0.009620
v -0.000496 -0.000506 0.009635
v -0.000501 -0.000501 0.009653
v 0.000308 -0.000308 0.010426
v -0.000308 -0.000308 0.010426
v -0.000513 0.000474 -0.009605
v -0.000513 0.000472 -0.009605
v -0.000513 0.000472 0.009605
v -0.000513 0.000475 0.009605
v -0.000513 0.000476 -0.009606
v -0.000513 0.000477 0.009606
v -0.000513 0.000478 -0.009607
v -0.000513 0.000479 0.009608
v -0.000512 0.000481 -0.009609
v -0.000512 0.000482 0.009610
v -0.000511 0.000485 -0.009613
v -0.000511 0.000485 0.009613
v -0.000509 0.000489 0.009620
v -0.000508 0.000493 -0.009627
v -0.000506 0.000496 0.009635
v -0.000513 -0.000474 0.009605
v -0.000513 -0.000472 0.009605
v -0.000513 -0.000472 -0.009605
v -0.000513 -0.000475 -0.009605
v -0.000513 -0.000476 0.009606
v -0.000513 -0.000477 -0.009606
v -0.000513 -0.000478 0.009607
v -0.000513 -0.000479 -0.009608
v -0.000512 -0.000481 0.009609
v -0.000512 -0.000482 -0.009610
v -0.000511 -0.000485 0.009613
v -0.000511 -0.000485 -0.009613
v -0.000509 -0.000489 -0.009620
v -0.000508 -0.000493 0.009627
v -0.000506 -0.000496 -0.009635
vn 0.9996 0.0284 -0.0000
vn 0.9997 0.0227 -0.0000
vn 0.9997 0.0239 -0.0000
vn 0.9996 0.0298 -0.0000
vn 0.9961 0.0883 -0.0000
vn 0.9981 0.0623 0.0000
vn 0.9891 0.1470 -0.0000
vn 0.9938 0.1115 -0.0000
vn 0.9787 0.2055 0.0000
vn 0.9845 0.1753 -0.0000
vn 0.9635 0.2678 0.0000
vn 0.9648 0.2630 -0.0000
vn 0.9625 0.2713 -0.0000
vn 0.9312 0.3645 0.0000
vn 0.9658 0.2595 0.0000
vn 0.8676 0.4973 -0.0000
vn 0.9140 0.4056 0.0000
vn 0.7669 0.6418 0.0000
vn 0.7935 0.6086 0.0000
vn 0.6087 0.7934 -0.0000
vn 0.6419 0.7668 0.0000
vn 0.4054 0.9141 -0.0000
vn 0.4971 0.8677 0.0000
vn 0.3645 0.9312 -0.0000
vn 0.2630 0.9648 0.0000
vn 0.2679 0.9634 -0.0000
vn 0.2595 0.9657 -0.0000
vn 0.2713 0.9625 0.0000
vn 0.1756 0.9845 -0.0000
vn 0.2046 0.9788 0.0000
vn 0.1118 0.9937 -0.0000
vn 0.1470 0.9891 0.0000
vn 0.0634 0.9980 -0.0000
vn 0.0882 0.9961 0.0000
vn 0.0236 0.9997 0.0000
vn 0.0271 0.9996 0.0000
vn 0.0214 0.9998 0.0000
vn 0.0294 0.9996 0.0000
vn -0.0001 0.9702 0.2425
vn 0.0000 0.9701 0.2427
vn -0.0000 0.9702 0.2425
vn -0.0002 0.9703 0.2420
vn -0.0004 0.9702 0.2421
vn -0.0009 0.9699 0.2435
vn -0.0000 0.9701 0.2425
vn -0.0002 0.9704 0.2416
vn 0.0002 0.9702 0.2421
vn 0.0004 0.9702 0.2422
vn 0.0001 0.9702 0.2422
vn -0.0001 0.9701 0.2425
vn -0.0001 0.9701 0.2426
vn 0.0001 0.9702 0.2425
vn 0.0000 1.0000 0.0000
vn -0.0000 0.9701 -0.2425
vn 0.0002 0.9702 -0.2422
vn 0.0000 0.9703 -0.2420
vn -0.0004 0.9703 -0.2421
vn -0.0001 0.9702 -0.2421
vn 0.0001 0.9701 -0.2425
vn 0.0001 0.9701 -0.2426
vn -0.0001 0.9702 -0.2425
vn 0.0001 0.9702 -0.2425
vn 0.0000 0.9702 -0.2425
vn 0.0008 0.9702 -0.2422
vn 0.0008 0.9701 -0.2427
vn -0.0002 0.9702 -0.2423
vn 0.0000 0.9701 -0.2426
vn 0.9996 -0.0275 0.0000
vn 0.9998 -0.0215 0.0000
vn 0.9997 -0.0242 0.0000
vn 0.9995 -0.0302 0.0000
vn 0.9961 -0.0883 0.0000
vn 0.9980 -0.0627 -0.0000
vn 0.9891 -0.1470 0.0000
vn 0.9939 -0.1106 0.0000
vn 0.9789 -0.2045 0.0000
vn 0.9845 -0.1753 0.0000
vn 0.9635 -0.2678 -0.0000
vn 0.9648 -0.2629 0.0000
vn 0.9625 -0.2713 0.0000
vn 0.9312 -0.3645 -0.0000
vn 0.9658 -0.2595 -0.0000
vn 0.8676 -0.4973 0.0000
vn 0.9140 -0.4056 -0.0000
vn 0.7669 -0.6418 -0.0000
vn 0.7935 -0.6086 -0.0000
vn 0.6087 -0.7934 0.0000
vn 0.6419 -0.7668 -0.0000
vn 0.4054 -0.9141 0.0000
vn 0.4971 -0.8677 -0.0000
vn 0.3645 -0.9312 0.0000
vn 0.2630 -0.9648 -0.0000
vn 0.2679 -0.9634 0.0000
vn 0.2595 -0.9657 0.0000
vn 0.2713 -0.9625 -0.0000
vn 0.1756 -0.9845 0.0000
vn 0.2046 -0.9788 -0.0000
vn 0.1118 -0.9937 0.0000
vn 0.1470 -0.9891 -0.0000
vn 0.0634 -0.9980 0.0000
vn 0.0882 -0.9961 -0.0000
vn 0.0236 -0.9997 -0.0000
vn 0.0271 -0.9996 -0.0000
vn 0.0214 -0.9998 -0.0000
vn 0.0294 -0.9996 -0.0000
vn -0.0001 -0.9702 -0.2425
vn -0.0001 -0.9701 -0.2426
vn 0.0002 -0.9702 -0.2421
vn -0.0006 -0.9703 -0.2419
vn -0.0008 -0.9701 -0.2428
vn -0.0000 -0.9701 -0.2425
vn -0.0003 -0.9701 -0.2428
vn 0.0004 -0.9703 -0.2420
vn 0.0000 -0.9702 -0.2425
vn -0.0001 -0.9701 -0.2425
vn 0.0001 -0.9702 -0.2425
vn 0.0000 -1.0000 -0.0000
vn 0.0000 -0.9701 0.2425
vn 0.0002 -0.9703 0.2417
vn 0.0004 -0.9702 0.2425
vn -0.0001 -0.9703 0.2419
vn 0.0001 -0.9701 0.2429
vn 0.0001 -0.9701 0.2425
vn 0.0001 -0.9701 0.2426
vn -0.0001 -0.9702 0.2425
vn 0.0001 -0.9702 0.2425
vn 0.0000 -0.9702 0.2425
vn 0.0005 -0.9702 0.2422
vn 0.0007 -0.9700 0.2430
vn 0.0002 -0.9702 0.2425
vn 0.0000 -0.9701 0.2427
vn -0.9996 0.0270 0.0000
vn -0.9998 0.0215 0.0000
vn -0.9997 0.0234 0.0000
vn -0.9996 0.0294 0.0000
vn -0.9960 0.0892 0.0000
vn -0.9981 0.0621 -0.0000
vn -0.9894 0.1454 -0.0000
vn -0.9937 0.1122 -0.0000
vn -0.9788 0.2049 0.0000
vn -0.9844 0.1760 -0.0000
vn -0.9634 0.2680 -0.0000
vn -0.9648 0.2630 0.0000
vn -0.9625 0.2713 0.0000
vn -0.9311 0.3647 -0.0000
vn -0.9658 0.2595 -0.0000
vn -0.8677 0.4971 0.0000
vn -0.9140 0.4056 -0.0000
vn -0.7668 0.6419 0.0000
vn -0.7934 0.6086 -0.0000
vn -0.6087 0.7934 0.0000
vn -0.6422 0.7665 0.0000
vn -0.4055 0.9141 0.0000
vn -0.4972 0.8677 -0.0000
vn -0.3646 0.9312 0.0000
vn -0.2629 0.9648 0.0000
vn -0.2679 0.9634 0.0000
vn -0.2596 0.9657 0.0000
vn -0.2716 0.9624 0.0000
vn -0.1754 0.9845 0.0000
vn -0.2047 0.9788 -0.0000
vn -0.1119 0.9937 0.0000
vn -0.1469 0.9891 -0.0000
vn -0.0633 0.9980 0.0000
vn -0.0883 0.9961 -0.0000
vn -0.0236 0.9997 -0.0000
vn -0.0271 0.9996 0.0000
vn -0.0214 0.9998 0.0000
vn -0.0294 0.9996 -0.0000
vn -0.9996 -0.0270 -0.0000
vn -0.9998 -0.0215 -0.0000
vn -0.9997 -0.0237 -0.0000
vn -0.9996 -0.0294 -0.0000
vn -0.9960 -0.0894 -0.0000
vn -0.9981 -0.0621 0.0000
vn -0.9893 -0.1460 -0.0000
vn -0.9938 -0.1112 0.0000
vn -0.9786 -0.2056 -0.0000
vn -0.9844 -0.1760 0.0000
vn -0.9635 -0.2676 0.0000
vn -0.9648 -0.2628 -0.0000
vn -0.9625 -0.2713 -0.0000
vn -0.9311 -0.3647 0.0000
vn -0.9658 -0.2592 -0.0000
vn -0.8677 -0.4971 -0.0000
vn -0.9140 -0.4056 0.0000
vn -0.7668 -0.6419 -0.0000
vn -0.7934 -0.6086 0.0000
vn -0.6087 -0.7934 -0.0000
vn -0.6422 -0.7665 -0.0000
vn -0.4055 -0.9141 -0.0000
vn -0.4972 -0.8677 0.0000
vn -0.3646 -0.9312 -0.0000
vn -0.2629 -0.9648 -0.0000
vn -0.2680 -0.9634 0.0000
vn -0.2596 -0.9657 -0.0000
vn -0.2716 -0.9624 -0.0000
vn -0.1754 -0.9845 -0.0000
vn -0.2047 -0.9788 0.0000
vn -0.1119 -0.9937 -0.0000
vn -0.1469 -0.9891 0.0000
vn -0.0633 -0.9980 -0.0000
vn -0.0883 -0.9961 0.0000
vn -0.0236 -0.9997 0.0000
vn -0.0271 -0.9996 -0.0000
vn -0.0214 -0.9998 -0.0000
vn -0.0294 -0.9996 0.0000
vn 0.9702 -0.0001 -0.2422
vn 0.9702 -0.0001 -0.2423
vn 0.9701 0.0000 -0.2426
vn 0.9703 -0.0010 -0.2417
vn 0.9704 0.0003 -0.2414
vn 0.9703 -0.0012 -0.2420
vn 0.9702 -0.0002 -0.2425
vn 0.9701 -0.0000 -0.2425
vn 0.9701 0.0003 -0.2426
vn 0.9706 0.0005 -0.2406
vn 0.9702 0.0001 -0.2423
vn 0.9705 -0.0004 -0.2413
vn 0.9701 0.0008 -0.2426
vn 0.9702 -0.0003 -0.2424
vn 0.9702 0.0005 -0.2424
vn 0.9702 0.0002 -0.2424
vn 0.0000 0.0000 -1.0000
vn -0.9701 -0.0000 -0.2425
vn -0.9699 0.0002 -0.2435
vn -0.9703 -0.0016 -0.2419
vn -0.9702 -0.0002 -0.2421
vn -0.9701 -0.0004 -0.2425
vn -0.9701 0.0002 -0.2428
vn -0.9702 -0.0001 -0.2425
vn -0.9704 0.0000 -0.2416
vn -0.9702 0.0001 -0.2425
vn -0.9705 0.0006 -0.2411
vn -0.9709 -0.0007 -0.2395
vn -0.9701 -0.0003 -0.2429
vn -0.9702 -0.0004 -0.2424
vn -0.9701 0.0007 -0.2425
vn -1.0000 0.0000 0.0000
vn 0.0000 0.0000 1.0000
vn -0.9703 0.0000 0.2420
vn -0.9701 0.0001 0.2427
vn -0.9701 0.0000 0.2426
vn -0.9700 0.0003 0.2432
vn -0.9703 -0.0001 0.2421
vn -0.9716 0.0017 0.2366
vn -0.9702 -0.0001 0.2425
vn -0.9701 -0.0000 0.2425
vn -0.9698 -0.0001 0.2439
vn -0.9701 0.0011 0.2426
vn -0.9703 0.0001 0.2420
vn -0.9703 0.0002 0.2420
vn -0.9701 -0.0002 0.2428
vn -0.9702 0.0001 0.2425
vn -0.9701 0.0003 0.2426
vn 0.9702 -0.0001 0.2424
vn 0.9701 -0.0006 0.2425
vn 0.9704 -0.0004 0.2413
vn 0.9704 0.0006 0.2415
vn 0.9702 -0.0008 0.2423
vn 0.9702 -0.0002 0.2424
vn 0.9701 -0.0001 0.2426
vn 0.9701 -0.0000 0.2425
vn 0.9702 0.0001 0.2421
vn 0.9702 0.0002 0.2425
vn 0.9702 -0.0004 0.2423
vn 0.9710 0.0006 0.2391
vn 0.9703 0.0007 0.2420
vn 0.9701 -0.0000 0.2426
vn 0.9703 0.0009 0.2421
vn 1.0000 0.0000 0.0000
usemtl material_1.425
s 1
f 1//1 2//2 3//3
f 1//1 3//3 4//4
f 5//5 4//5 6//5
f 5//6 1//6 4//6
f 7//7 6//7 8//7
f 7//8 5//8 6//8
f 9//9 8//9 10//9
f 9//10 7//10 8//10
f 11//11 10//12 12//13
f 11//14 12//14 13//14
f 11//11 9//15 10//12
f 14//16 13//16 15//16
f 14//17 11//17 13//17
f 16//18 15//18 17//18
f 16//19 14//19 15//19
f 18//20 17//20 19//20
f 18//21 16//21 17//21
f 20//22 19//22 21//22
f 20//23 18//23 19//23
f 22//24 20//24 21//24
f 23//25 21//26 24//27
f 23//25 22//28 21//26
f 25//29 24//29 26//29
f 25//30 23//30 24//30
f 27//31 26//31 28//31
f 27//32 25//32 26//32
f 29//33 28//33 30//33
f 29//34 27//34 28//34
f 31//35 30//36 32//37
f 31//35 29//38 30//36
usemtl material_0.432
f 33//39 34//40 35//41
f 33//39 36//42 34//40
f 33//39 37//43 36//42
f 33//39 38//44 37//43
f 39//39 33//39 35//41
f 40//45 33//39 39//39
f 27//46 29//47 31//45
f 25//48 27//46 31//45
f 23//49 25//48 31//45
f 22//50 23//49 31//45
f 20//51 22//50 31//45
f 18//52 20//51 31//45
f 16//45 31//45 33//39
f 16//45 33//39 40//45
f 16//45 18//52 31//45
f 41//45 40//45 42//45
f 41//45 16//45 40//45
f 31//53 32//53 43//53
f 31//53 43//53 33//53
f 43//54 44//55 45//56
f 43//54 46//57 44//55
f 43//54 47//58 46//57
f 43//54 48//59 47//58
f 43//54 49//60 48//59
f 43//54 50//61 49//60
f 43//54 51//54 50//61
f 17//54 52//54 53//54
f 17//54 53//54 51//54
f 32//62 19//63 17//54
f 32//62 51//54 43//54
f 32//62 17//54 51//54
f 28//64 32//62 30//65
f 26//66 32//62 28//64
f 21//62 19//63 32//62
f 24//67 21//62 32//62
f 24//67 32//62 26//66
f 54//68 55//69 56//70
f 54//68 56//70 57//71
f 58//72 57//72 59//72
f 58//73 54//73 57//73
f 60//74 59//74 61//74
f 60//75 58//75 59//75
f 62//76 61//76 63//76
f 62//77 60//77 61//77
f 64//78 63//79 65//80
f 64//81 65//81 66//81
f 64//78 62//82 63//79
f 67//83 66//83 68//83
f 67//84 64//84 66//84
f 69//85 68//85 70//85
f 69//86 67//86 68//86
f 71//87 70//87 72//87
f 71//88 69//88 70//88
f 73//89 72//89 74//89
f 73//90 71//90 72//90
f 75//91 73//91 74//91
f 76//92 74//93 77//94
f 76//92 75//95 74//93
f 78//96 77//96 79//96
f 78//97 76//97 77//97
f 80//98 79//98 81//98
f 80//99 78//99 79//99
f 82//100 81//100 83//100
f 82//101 80//101 81//101
f 84//102 83//103 85//104
f 84//102 82//105 83//103
f 86//106 87//107 88//106
f 86//106 89//108 87//107
f 86//106 90//109 89//108
f 86//106 91//110 90//109
f 92//106 86//106 88//106
f 93//111 86//106 92//106
f 80//112 82//108 84//111
f 78//113 80//112 84//111
f 76//114 78//113 84//111
f 75//115 76//114 84//111
f 73//107 75//115 84//111
f 71//116 73//107 84//111
f 69//111 84//111 86//106
f 69//111 86//106 93//111
f 69//111 71//116 84//111
f 94//111 93//111 95//111
f 94//111 69//111 93//111
f 84//117 85//117 96//117
f 84//117 96//117 86//117
f 96//118 97//119 98//120
f 96//118 99//121 97//119
f 96//118 100//122 99//121
f 96//118 101//123 100//122
f 96//118 102//124 101//123
f 96//118 103//125 102//124
f 96//118 104//118 103//125
f 70//118 105//118 106//118
f 70//118 106//118 104//118
f 85//126 72//127 70//118
f 85//126 104//118 96//118
f 85//126 70//118 104//118
f 81//128 85//126 83//129
f 79//130 85//126 81//128
f 74//126 72//127 85//126
f 77//131 74//126 85//126
f 77//131 85//126 79//130
f 107//132 108//133 109//134
f 107//132 109//134 110//135
f 111//136 110//136 112//136
f 111//137 107//137 110//137
f 113//138 112//138 114//138
f 113//139 111//139 112//139
f 115//140 114//140 116//140
f 115//141 113//141 114//141
f 117//142 116//143 118//144
f 117//145 118//145 119//145
f 117//142 115//146 116//143
f 120//147 119//147 121//147
f 120//148 117//148 119//148
f 51//149 121//149 40//149
f 51//150 120//150 121//150
f 50//151 40//151 39//151
f 50//152 51//152 40//152
f 49//153 39//153 35//153
f 49//154 50//154 39//154
f 48//155 49//155 35//155
f 47//156 35//157 34//158
f 47//156 48//159 35//157
f 46//160 34//160 36//160
f 46//161 47//161 34//161
f 44//162 36//162 37//162
f 44//163 46//163 36//163
f 45//164 37//164 38//164
f 45//165 44//165 37//165
f 43//166 38//167 33//168
f 43//166 45//169 38//167
f 122//170 123//171 124//172
f 122//170 124//172 125//173
f 126//174 125//174 127//174
f 126//175 122//175 125//175
f 128//176 127//176 129//176
f 128//177 126//177 127//177
f 130//178 129//178 131//178
f 130//179 128//179 129//179
f 132//180 131//181 133//182
f 132//183 133//183 134//183
f 132//180 130//184 131//181
f 135//185 134//185 136//185
f 135//186 132//186 134//186
f 104//187 136//187 93//187
f 104//188 135//188 136//188
f 103//189 93//189 92//189
f 103//190 104//190 93//190
f 102//191 92//191 88//191
f 102//192 103//192 92//192
f 101//193 102//193 88//193
f 100//194 88//195 87//196
f 100//194 101//197 88//195
f 99//198 87//198 89//198
f 99//199 100//199 87//199
f 97//200 89//200 90//200
f 97//201 99//201 89//201
f 98//202 90//202 91//202
f 98//203 97//203 90//203
f 96//204 91//205 86//206
f 96//204 98//207 91//205
f 55//208 62//209 64//210
f 55//208 60//211 62//209
f 55//208 58//212 60//211
f 55//208 54//213 58//212
f 67//214 55//208 64//210
f 69//215 55//208 67//214
f 6//216 4//217 3//218
f 8//219 6//216 3//218
f 10//220 8//219 3//218
f 12//221 10//220 3//218
f 13//222 12//221 3//218
f 15//223 13//222 3//218
f 17//215 3//218 55//208
f 17//215 55//208 69//215
f 17//215 15//223 3//218
f 52//215 69//215 94//215
f 52//215 17//215 69//215
f 52//224 94//224 95//224
f 52//224 95//224 53//224
f 124//225 127//226 125//227
f 124//225 129//228 127//226
f 124//225 131//229 129//228
f 124//225 133//230 131//229
f 124//225 134//231 133//230
f 124//225 136//225 134//231
f 124//225 93//225 136//225
f 51//225 53//225 95//225
f 51//225 95//225 93//225
f 108//232 120//233 51//225
f 108//232 93//225 124//225
f 108//232 51//225 93//225
f 111//234 108//232 107//235
f 113//236 108//232 111//234
f 117//237 120//233 108//232
f 115//238 117//237 108//232
f 115//238 108//232 113//236
f 109//239 108//239 124//239
f 109//239 124//239 123//239
f 105//240 41//240 42//240
f 105//240 42//240 106//240
f 123//241 130//242 132//243
f 123//241 128//244 130//242
f 123//241 126//245 128//244
f 123//241 122//246 126//245
f 135//247 123//241 132//243
f 104//248 123//241 135//247
f 112//249 110//250 109//248
f 114//251 112//249 109//248
f 116//252 114//251 109//248
f 118//253 116//252 109//248
f 119//254 118//253 109//248
f 121//255 119//254 109//248
f 40//248 109//248 123//241
f 40//248 104//248 106//248
f 40//248 123//241 104//248
f 40//248 121//255 109//248
f 42//248 40//248 106//248
f 56//256 59//257 57//258
f 56//256 61//259 59//257
f 56//256 63//260 61//259
f 56//256 65//261 63//260
f 56//256 66//262 65//261
f 56//256 68//261 66//262
f 56//256 70//263 68//261
f 16//263 41//263 105//263
f 16//263 105//263 70//263
f 16//263 70//263 56//256
f 2//264 14//265 16//263
f 2//264 16//263 56//256
f 5//266 2//264 1//267
f 7//268 2//264 5//266
f 11//269 14//265 2//264
f 9//270 11//269 2//264
f 9//270 2//264 7//268
f 3//271 2//271 56//271
f 3//271 56//271 55//271
