# Blender v2.81 (sub 16) OBJ File: ''
# www.blender.org
mtllib 26-Pin Shrouded Header (IDC) Straight.mtl
o 26-Pin_Shrouded_Header_(IDC)_Straight
v 0.000494 0.000456 0.009239
v 0.000494 0.000454 0.009239
v 0.000494 0.000454 -0.009239
v 0.000494 0.000456 -0.009239
v 0.000494 0.000457 0.009239
v 0.000493 0.000459 -0.009240
v 0.000493 0.000460 0.009240
v 0.000493 0.000461 -0.009241
v 0.000493 0.000463 0.009242
v 0.000493 0.000463 -0.009243
v 0.000492 0.000466 0.009246
v 0.000492 0.000466 -0.009246
v 0.000490 0.000471 -0.009253
v 0.000488 0.000474 0.009260
v 0.000487 0.000477 -0.009267
v 0.000482 0.000482 0.009285
v 0.000482 0.000482 -0.009285
v 0.000477 0.000487 0.009267
v 0.000474 0.000488 -0.009260
v 0.000471 0.000490 0.009253
v 0.000466 0.000492 -0.009246
v 0.000466 0.000492 0.009246
v 0.000463 0.000493 0.009243
v 0.000463 0.000493 -0.009242
v 0.000461 0.000493 0.009241
v 0.000460 0.000493 -0.009240
v 0.000459 0.000493 0.009240
v 0.000457 0.000494 -0.009239
v 0.000456 0.000494 0.009239
v 0.000456 0.000494 -0.009239
v 0.000454 0.000494 0.009239
v 0.000454 0.000494 -0.009239
v -0.000454 0.000494 0.009239
v -0.000463 0.000493 0.009242
v -0.000466 0.000492 0.009246
v -0.000460 0.000493 0.009240
v -0.000457 0.000494 0.009239
v -0.000456 0.000494 0.009239
v -0.000474 0.000488 0.009260
v -0.000482 0.000482 0.009285
v 0.000296 0.000296 0.010029
v -0.000296 0.000296 0.010029
v -0.000454 0.000494 -0.009239
v -0.000459 0.000493 -0.009240
v -0.000456 0.000494 -0.009239
v -0.000461 0.000493 -0.009241
v -0.000463 0.000493 -0.009243
v -0.000466 0.000492 -0.009246
v -0.000471 0.000490 -0.009253
v -0.000477 0.000487 -0.009267
v -0.000482 0.000482 -0.009285
v 0.000296 0.000296 -0.010029
v -0.000296 0.000296 -0.010029
v 0.000494 -0.000456 -0.009239
v 0.000494 -0.000454 -0.009239
v 0.000494 -0.000454 0.009239
v 0.000494 -0.000456 0.009239
v 0.000494 -0.000457 -0.009239
v 0.000493 -0.000459 0.009240
v 0.000493 -0.000460 -0.009240
v 0.000493 -0.000461 0.009241
v 0.000493 -0.000463 -0.009242
v 0.000493 -0.000463 0.009243
v 0.000492 -0.000466 -0.009246
v 0.000492 -0.000466 0.009246
v 0.000490 -0.000471 0.009253
v 0.000488 -0.000474 -0.009260
v 0.000487 -0.000477 0.009267
v 0.000482 -0.000482 -0.009285
v 0.000482 -0.000482 0.009285
v 0.000477 -0.000487 -0.009267
v 0.000474 -0.000488 0.009260
v 0.000471 -0.000490 -0.009253
v 0.000466 -0.000492 0.009246
v 0.000466 -0.000492 -0.009246
v 0.000463 -0.000493 -0.009243
v 0.000463 -0.000493 0.009242
v 0.000461 -0.000493 -0.009241
v 0.000460 -0.000493 0.009240
v 0.000459 -0.000493 -0.009240
v 0.000457 -0.000494 0.009239
v 0.000456 -0.000494 -0.009239
v 0.000456 -0.000494 0.009239
v 0.000454 -0.000494 -0.009239
v 0.000454 -0.000494 0.009239
v -0.000454 -0.000494 -0.009239
v -0.000463 -0.000493 -0.009242
v -0.000466 -0.000492 -0.009246
v -0.000460 -0.000493 -0.009240
v -0.000457 -0.000494 -0.009239
v -0.000456 -0.000494 -0.009239
v -0.000474 -0.000488 -0.009260
v -0.000482 -0.000482 -0.009285
v 0.000296 -0.000296 -0.010029
v -0.000296 -0.000296 -0.010029
v -0.000454 -0.000494 0.009239
v -0.000459 -0.000493 0.009240
v -0.000456 -0.000494 0.009239
v -0.000461 -0.000493 0.009241
v -0.000463 -0.000493 0.009243
v -0.000466 -0.000492 0.009246
v -0.000471 -0.000490 0.009253
v -0.000477 -0.000487 0.009267
v -0.000482 -0.000482 0.009285
v 0.000296 -0.000296 0.010029
v -0.000296 -0.000296 0.010029
v -0.000494 0.000456 -0.009239
v -0.000494 0.000454 -0.009239
v -0.000494 0.000454 0.009239
v -0.000494 0.000456 0.009239
v -0.000494 0.000457 -0.009239
v -0.000493 0.000459 0.009240
v -0.000493 0.000460 -0.009240
v -0.000493 0.000461 0.009241
v -0.000493 0.000463 -0.009242
v -0.000493 0.000463 0.009243
v -0.000492 0.000466 -0.009246
v -0.000492 0.000466 0.009246
v -0.000490 0.000471 0.009253
v -0.000488 0.000474 -0.009260
v -0.000487 0.000477 0.009267
v -0.000494 -0.000456 0.009239
v -0.000494 -0.000454 0.009239
v -0.000494 -0.000454 -0.009239
v -0.000494 -0.000456 -0.009239
v -0.000494 -0.000457 0.009239
v -0.000493 -0.000459 -0.009240
v -0.000493 -0.000460 0.009240
v -0.000493 -0.000461 -0.009241
v -0.000493 -0.000463 0.009242
v -0.000493 -0.000463 -0.009243
v -0.000492 -0.000466 0.009246
v -0.000492 -0.000466 -0.009246
v -0.000490 -0.000471 -0.009253
v -0.000488 -0.000474 0.009260
v -0.000487 -0.000477 -0.009267
vn 0.9996 0.0287 -0.0000
vn 0.9997 0.0234 -0.0000
vn 0.9997 0.0233 0.0000
vn 0.9996 0.0288 -0.0000
vn 0.9961 0.0882 -0.0000
vn 0.9980 0.0633 0.0000
vn 0.9890 0.1477 -0.0000
vn 0.9937 0.1120 0.0000
vn 0.9790 0.2040 -0.0000
vn 0.9845 0.1755 0.0000
vn 0.9633 0.2683 0.0000
vn 0.9648 0.2629 -0.0000
vn 0.9624 0.2716 -0.0000
vn 0.9312 0.3644 0.0000
vn 0.9657 0.2595 0.0000
vn 0.8677 0.4971 -0.0000
vn 0.9140 0.4057 0.0000
vn 0.7668 0.6419 0.0000
vn 0.7934 0.6086 0.0000
vn 0.6087 0.7934 -0.0000
vn 0.6423 0.7664 -0.0000
vn 0.4055 0.9141 -0.0000
vn 0.4972 0.8677 0.0000
vn 0.3646 0.9312 -0.0000
vn 0.2629 0.9648 0.0000
vn 0.2678 0.9635 0.0000
vn 0.2596 0.9657 -0.0000
vn 0.2712 0.9625 0.0000
vn 0.1753 0.9845 -0.0000
vn 0.2046 0.9788 0.0000
vn 0.1120 0.9937 -0.0000
vn 0.1470 0.9891 0.0000
vn 0.0633 0.9980 -0.0000
vn 0.0882 0.9961 0.0000
vn 0.0235 0.9997 0.0000
vn 0.0270 0.9996 -0.0000
vn 0.0215 0.9998 0.0000
vn 0.0291 0.9996 0.0000
vn -0.0000 0.9702 0.2424
vn 0.0002 0.9701 0.2428
vn -0.0000 0.9701 0.2425
vn -0.0002 0.9700 0.2430
vn -0.0006 0.9701 0.2425
vn -0.0002 0.9708 0.2398
vn 0.0000 0.9702 0.2425
vn -0.0001 0.9703 0.2419
vn -0.0000 0.9701 0.2427
vn 0.0001 0.9701 0.2429
vn 0.0003 0.9702 0.2422
vn -0.0001 0.9701 0.2426
vn 0.0001 0.9702 0.2425
vn 0.0000 1.0000 0.0000
vn -0.0000 0.9701 -0.2425
vn -0.0002 0.9701 -0.2429
vn 0.0003 0.9701 -0.2426
vn 0.0001 0.9701 -0.2429
vn -0.0002 0.9702 -0.2421
vn 0.0001 0.9701 -0.2426
vn -0.0001 0.9702 -0.2425
vn 0.0000 0.9702 -0.2425
vn 0.0002 0.9702 -0.2424
vn 0.0003 0.9709 -0.2396
vn 0.0001 0.9699 -0.2433
vn -0.0001 0.9701 -0.2426
vn 0.9996 -0.0276 0.0000
vn 0.9998 -0.0222 0.0000
vn 0.9997 -0.0235 -0.0000
vn 0.9996 -0.0294 0.0000
vn 0.9960 -0.0891 -0.0000
vn 0.9980 -0.0633 -0.0000
vn 0.9890 -0.1480 0.0000
vn 0.9938 -0.1111 -0.0000
vn 0.9787 -0.2051 -0.0000
vn 0.9845 -0.1755 -0.0000
vn 0.9634 -0.2679 -0.0000
vn 0.9649 -0.2627 0.0000
vn 0.9624 -0.2718 0.0000
vn 0.9312 -0.3644 -0.0000
vn 0.9657 -0.2595 -0.0000
vn 0.8677 -0.4971 0.0000
vn 0.9140 -0.4057 -0.0000
vn 0.7667 -0.6420 -0.0000
vn 0.7934 -0.6087 -0.0000
vn 0.6088 -0.7933 0.0000
vn 0.6420 -0.7667 -0.0000
vn 0.4055 -0.9141 0.0000
vn 0.4976 -0.8674 0.0000
vn 0.3646 -0.9312 0.0000
vn 0.2630 -0.9648 -0.0000
vn 0.2679 -0.9634 0.0000
vn 0.2596 -0.9657 0.0000
vn 0.2712 -0.9625 -0.0000
vn 0.1753 -0.9845 0.0000
vn 0.2053 -0.9787 -0.0000
vn 0.1120 -0.9937 0.0000
vn 0.1464 -0.9892 -0.0000
vn 0.0633 -0.9980 0.0000
vn 0.0882 -0.9961 -0.0000
vn 0.0235 -0.9997 -0.0000
vn 0.0272 -0.9996 0.0000
vn 0.0211 -0.9998 -0.0000
vn 0.0294 -0.9996 -0.0000
vn -0.0000 -0.9702 -0.2425
vn 0.0000 -0.9701 -0.2426
vn -0.0001 -0.9702 -0.2425
vn -0.0007 -0.9703 -0.2418
vn -0.0000 -0.9701 -0.2427
vn -0.0007 -0.9709 -0.2394
vn 0.0001 -0.9701 -0.2426
vn 0.0000 -0.9701 -0.2425
vn 0.0001 -0.9700 -0.2429
vn -0.0004 -0.9707 -0.2404
vn -0.0002 -0.9700 -0.2430
vn 0.0002 -0.9702 -0.2423
vn -0.0001 -0.9701 -0.2426
vn 0.0000 -1.0000 -0.0000
vn 0.0000 -0.9701 0.2425
vn -0.0003 -0.9703 0.2419
vn -0.0000 -0.9706 0.2406
vn 0.0001 -0.9701 0.2429
vn -0.0001 -0.9702 0.2423
vn 0.0001 -0.9701 0.2426
vn -0.0000 -0.9700 0.2430
vn -0.0001 -0.9701 0.2426
vn 0.0001 -0.9697 0.2444
vn -0.0001 -0.9710 0.2392
vn 0.0003 -0.9703 0.2418
vn 0.0000 -0.9702 0.2425
vn -0.0001 -0.9701 0.2428
vn -0.9996 0.0268 0.0000
vn -0.9998 0.0214 0.0000
vn -0.9997 0.0231 -0.0000
vn -0.9996 0.0285 -0.0000
vn -0.9960 0.0892 0.0000
vn -0.9980 0.0628 0.0000
vn -0.9892 0.1466 -0.0000
vn -0.9936 0.1126 -0.0000
vn -0.9788 0.2046 0.0000
vn -0.9845 0.1755 -0.0000
vn -0.9633 0.2683 -0.0000
vn -0.9649 0.2626 0.0000
vn -0.9625 0.2712 0.0000
vn -0.9312 0.3644 -0.0000
vn -0.9658 0.2591 -0.0000
vn -0.8677 0.4971 0.0000
vn -0.9140 0.4057 -0.0000
vn -0.7668 0.6419 0.0000
vn -0.7935 0.6086 -0.0000
vn -0.6087 0.7934 0.0000
vn -0.6419 0.7668 0.0000
vn -0.4055 0.9141 0.0000
vn -0.4971 0.8677 -0.0000
vn -0.3645 0.9312 0.0000
vn -0.2630 0.9648 0.0000
vn -0.2679 0.9634 -0.0000
vn -0.2596 0.9657 0.0000
vn -0.2713 0.9625 0.0000
vn -0.1754 0.9845 0.0000
vn -0.2045 0.9789 -0.0000
vn -0.1119 0.9937 0.0000
vn -0.1471 0.9891 -0.0000
vn -0.0634 0.9980 0.0000
vn -0.0885 0.9961 0.0000
vn -0.0235 0.9997 0.0000
vn -0.0270 0.9996 -0.0000
vn -0.0211 0.9998 0.0000
vn -0.0291 0.9996 0.0000
vn -0.9997 -0.0261 -0.0000
vn -0.9998 -0.0201 -0.0000
vn -0.9997 -0.0239 -0.0000
vn -0.9996 -0.0294 -0.0000
vn -0.9960 -0.0894 -0.0000
vn -0.9980 -0.0628 -0.0000
vn -0.9891 -0.1470 -0.0000
vn -0.9937 -0.1120 0.0000
vn -0.9789 -0.2045 -0.0000
vn -0.9845 -0.1755 0.0000
vn -0.9634 -0.2679 0.0000
vn -0.9649 -0.2625 -0.0000
vn -0.9625 -0.2713 -0.0000
vn -0.9312 -0.3644 0.0000
vn -0.9658 -0.2591 0.0000
vn -0.8677 -0.4971 -0.0000
vn -0.9140 -0.4057 0.0000
vn -0.7667 -0.6420 -0.0000
vn -0.7934 -0.6087 0.0000
vn -0.6087 -0.7934 -0.0000
vn -0.6420 -0.7667 -0.0000
vn -0.4055 -0.9141 -0.0000
vn -0.4971 -0.8677 0.0000
vn -0.3645 -0.9312 -0.0000
vn -0.2630 -0.9648 -0.0000
vn -0.2680 -0.9634 0.0000
vn -0.2596 -0.9657 -0.0000
vn -0.2713 -0.9625 -0.0000
vn -0.1754 -0.9845 -0.0000
vn -0.2051 -0.9787 0.0000
vn -0.1119 -0.9937 -0.0000
vn -0.1465 -0.9892 0.0000
vn -0.0634 -0.9980 -0.0000
vn -0.0885 -0.9961 -0.0000
vn -0.0236 -0.9997 -0.0000
vn -0.0272 -0.9996 0.0000
vn -0.0211 -0.9998 -0.0000
vn -0.0294 -0.9996 0.0000
vn 0.9704 -0.0006 -0.2417
vn 0.9702 0.0003 -0.2423
vn 0.9701 0.0000 -0.2427
vn 0.9702 -0.0005 -0.2422
vn 0.9706 -0.0023 -0.2409
vn 0.9690 -0.0012 -0.2472
vn 0.9702 -0.0001 -0.2425
vn 0.9701 -0.0000 -0.2425
vn 0.9702 -0.0017 -0.2422
vn 0.9696 0.0030 -0.2445
vn 0.9700 0.0007 -0.2430
vn 0.9705 0.0007 -0.2412
vn 0.9701 -0.0000 -0.2426
vn 0.9702 0.0001 -0.2425
vn 0.9702 0.0002 -0.2424
vn 0.0000 0.0000 -1.0000
vn -0.9701 0.0000 -0.2425
vn -0.9700 0.0021 -0.2430
vn -0.9696 -0.0028 -0.2445
vn -0.9703 -0.0012 -0.2420
vn -0.9701 0.0001 -0.2428
vn -0.9701 0.0001 -0.2426
vn -0.9702 0.0003 -0.2423
vn -0.9703 0.0004 -0.2419
vn -0.9707 0.0006 -0.2405
vn -0.9689 0.0015 -0.2473
vn -0.9701 0.0004 -0.2427
vn -0.9701 -0.0002 -0.2427
vn -0.9703 0.0002 -0.2421
vn -1.0000 0.0000 0.0000
vn 0.0000 0.0000 1.0000
vn -0.9704 -0.0002 0.2415
vn -0.9702 -0.0000 0.2423
vn -0.9702 0.0004 0.2425
vn -0.9698 -0.0005 0.2438
vn -0.9704 0.0001 0.2413
vn -0.9709 -0.0010 0.2396
vn -0.9701 0.0003 0.2427
vn -0.9701 -0.0000 0.2425
vn -0.9699 -0.0021 0.2436
vn -0.9701 0.0012 0.2426
vn -0.9702 0.0012 0.2422
vn -0.9702 0.0002 0.2421
vn -0.9702 0.0002 0.2424
vn -0.9703 -0.0004 0.2420
vn -0.9701 -0.0001 0.2426
vn 0.9701 -0.0000 0.2426
vn 0.9700 0.0014 0.2432
vn 0.9701 -0.0011 0.2428
vn 0.9703 -0.0006 0.2418
vn 0.9701 0.0001 0.2427
vn 0.9702 -0.0001 0.2425
vn 0.9702 -0.0002 0.2424
vn 0.9701 0.0000 0.2425
vn 0.9703 0.0003 0.2420
vn 0.9701 0.0001 0.2425
vn 0.9701 0.0013 0.2426
vn 0.9710 0.0010 0.2393
vn 0.9700 0.0006 0.2430
vn 0.9701 -0.0000 0.2427
vn 0.9702 -0.0008 0.2422
vn 1.0000 0.0000 0.0000
usemtl material_1.453
s 1
f 1//1 2//2 3//3
f 1//1 3//3 4//4
f 5//5 4//5 6//5
f 5//6 1//6 4//6
f 7//7 6//7 8//7
f 7//8 5//8 6//8
f 9//9 8//9 10//9
f 9//10 7//10 8//10
f 11//11 10//12 12//13
f 11//14 12//14 13//14
f 11//11 9//15 10//12
f 14//16 13//16 15//16
f 14//17 11//17 13//17
f 16//18 15//18 17//18
f 16//19 14//19 15//19
f 18//20 17//20 19//20
f 18//21 16//21 17//21
f 20//22 19//22 21//22
f 20//23 18//23 19//23
f 22//24 20//24 21//24
f 23//25 21//26 24//27
f 23//25 22//28 21//26
f 25//29 24//29 26//29
f 25//30 23//30 24//30
f 27//31 26//31 28//31
f 27//32 25//32 26//32
f 29//33 28//33 30//33
f 29//34 27//34 28//34
f 31//35 30//36 32//37
f 31//35 29//38 30//36
usemtl material_0.460
f 33//39 34//40 35//41
f 33//39 36//42 34//40
f 33//39 37//43 36//42
f 33//39 38//44 37//43
f 39//45 33//39 35//41
f 40//41 33//39 39//45
f 27//46 29//47 31//41
f 25//48 27//46 31//41
f 23//49 25//48 31//41
f 22//41 23//49 31//41
f 20//50 22//41 31//41
f 18//51 20//50 31//41
f 16//41 31//41 33//39
f 16//41 33//39 40//41
f 16//41 18//51 31//41
f 41//41 40//41 42//41
f 41//41 16//41 40//41
f 31//52 32//52 43//52
f 31//52 43//52 33//52
f 43//53 44//54 45//55
f 43//53 46//56 44//54
f 43//53 47//57 46//56
f 43//53 48//53 47//57
f 43//53 49//58 48//53
f 43//53 50//59 49//58
f 43//53 51//53 50//59
f 17//53 52//53 53//53
f 17//53 53//53 51//53
f 32//60 19//60 17//53
f 32//60 51//53 43//53
f 32//60 17//53 51//53
f 28//61 32//60 30//62
f 26//63 32//60 28//61
f 21//60 19//60 32//60
f 24//64 21//60 32//60
f 24//64 32//60 26//63
f 54//65 55//66 56//67
f 54//65 56//67 57//68
f 58//69 57//69 59//69
f 58//70 54//70 57//70
f 60//71 59//71 61//71
f 60//72 58//72 59//72
f 62//73 61//73 63//73
f 62//74 60//74 61//74
f 64//75 63//76 65//77
f 64//78 65//78 66//78
f 64//75 62//79 63//76
f 67//80 66//80 68//80
f 67//81 64//81 66//81
f 69//82 68//82 70//82
f 69//83 67//83 68//83
f 71//84 70//84 72//84
f 71//85 69//85 70//85
f 73//86 72//86 74//86
f 73//87 71//87 72//87
f 75//88 73//88 74//88
f 76//89 74//90 77//91
f 76//89 75//92 74//90
f 78//93 77//93 79//93
f 78//94 76//94 77//94
f 80//95 79//95 81//95
f 80//96 78//96 79//96
f 82//97 81//97 83//97
f 82//98 80//98 81//98
f 84//99 83//100 85//101
f 84//99 82//102 83//100
f 86//103 87//104 88//105
f 86//103 89//106 87//104
f 86//103 90//107 89//106
f 86//103 91//108 90//107
f 92//109 86//103 88//105
f 93//110 86//103 92//109
f 80//111 82//112 84//110
f 78//113 80//111 84//110
f 76//114 78//113 84//110
f 75//110 76//114 84//110
f 73//115 75//110 84//110
f 71//115 73//115 84//110
f 69//110 84//110 86//103
f 69//110 86//103 93//110
f 69//110 71//115 84//110
f 94//110 93//110 95//110
f 94//110 69//110 93//110
f 84//116 85//116 96//116
f 84//116 96//116 86//116
f 96//117 97//118 98//119
f 96//117 99//120 97//118
f 96//117 100//121 99//120
f 96//117 101//117 100//121
f 96//117 102//122 101//117
f 96//117 103//122 102//122
f 96//117 104//117 103//122
f 70//117 105//117 106//117
f 70//117 106//117 104//117
f 85//123 72//124 70//117
f 85//123 104//117 96//117
f 85//123 70//117 104//117
f 81//125 85//123 83//126
f 79//127 85//123 81//125
f 74//128 72//124 85//123
f 77//129 74//128 85//123
f 77//129 85//123 79//127
f 107//130 108//131 109//132
f 107//130 109//132 110//133
f 111//134 110//134 112//134
f 111//135 107//135 110//135
f 113//136 112//136 114//136
f 113//137 111//137 112//137
f 115//138 114//138 116//138
f 115//139 113//139 114//139
f 117//140 116//141 118//142
f 117//143 118//143 119//143
f 117//140 115//144 116//141
f 120//145 119//145 121//145
f 120//146 117//146 119//146
f 51//147 121//147 40//147
f 51//148 120//148 121//148
f 50//149 40//149 39//149
f 50//150 51//150 40//150
f 49//151 39//151 35//151
f 49//152 50//152 39//152
f 48//153 49//153 35//153
f 47//154 35//155 34//156
f 47//154 48//157 35//155
f 46//158 34//158 36//158
f 46//159 47//159 34//159
f 44//160 36//160 37//160
f 44//161 46//161 36//161
f 45//162 37//162 38//162
f 45//163 44//163 37//163
f 43//164 38//165 33//166
f 43//164 45//167 38//165
f 122//168 123//169 124//170
f 122//168 124//170 125//171
f 126//172 125//172 127//172
f 126//173 122//173 125//173
f 128//174 127//174 129//174
f 128//175 126//175 127//175
f 130//176 129//176 131//176
f 130//177 128//177 129//177
f 132//178 131//179 133//180
f 132//181 133//181 134//181
f 132//178 130//182 131//179
f 135//183 134//183 136//183
f 135//184 132//184 134//184
f 104//185 136//185 93//185
f 104//186 135//186 136//186
f 103//187 93//187 92//187
f 103//188 104//188 93//188
f 102//189 92//189 88//189
f 102//190 103//190 92//190
f 101//191 102//191 88//191
f 100//192 88//193 87//194
f 100//192 101//195 88//193
f 99//196 87//196 89//196
f 99//197 100//197 87//197
f 97//198 89//198 90//198
f 97//199 99//199 89//199
f 98//200 90//200 91//200
f 98//201 97//201 90//201
f 96//202 91//203 86//204
f 96//202 98//205 91//203
f 55//206 62//207 64//208
f 55//206 60//209 62//207
f 55//206 58//210 60//209
f 55//206 54//211 58//210
f 67//212 55//206 64//208
f 69//213 55//206 67//212
f 6//214 4//215 3//216
f 8//217 6//214 3//216
f 10//218 8//217 3//216
f 12//219 10//218 3//216
f 13//220 12//219 3//216
f 15//218 13//220 3//216
f 17//213 3//216 55//206
f 17//213 55//206 69//213
f 17//213 15//218 3//216
f 52//213 69//213 94//213
f 52//213 17//213 69//213
f 52//221 94//221 95//221
f 52//221 95//221 53//221
f 124//222 127//223 125//224
f 124//222 129//225 127//223
f 124//222 131//226 129//225
f 124//222 133//227 131//226
f 124//222 134//228 133//227
f 124//222 136//227 134//228
f 124//222 93//222 136//227
f 51//222 53//222 95//222
f 51//222 95//222 93//222
f 108//229 120//222 51//222
f 108//229 93//222 124//222
f 108//229 51//222 93//222
f 111//230 108//229 107//231
f 113//232 108//229 111//230
f 117//233 120//222 108//229
f 115//234 117//233 108//229
f 115//234 108//229 113//232
f 109//235 108//235 124//235
f 109//235 124//235 123//235
f 105//236 41//236 42//236
f 105//236 42//236 106//236
f 123//237 130//238 132//239
f 123//237 128//240 130//238
f 123//237 126//241 128//240
f 123//237 122//242 126//241
f 135//243 123//237 132//239
f 104//244 123//237 135//243
f 112//245 110//246 109//244
f 114//247 112//245 109//244
f 116//248 114//247 109//244
f 118//249 116//248 109//244
f 119//250 118//249 109//244
f 121//251 119//250 109//244
f 40//244 109//244 123//237
f 40//244 104//244 106//244
f 40//244 123//237 104//244
f 40//244 121//251 109//244
f 42//244 40//244 106//244
f 56//252 59//253 57//254
f 56//252 61//255 59//253
f 56//252 63//256 61//255
f 56//252 65//257 63//256
f 56//252 66//258 65//257
f 56//252 68//252 66//258
f 56//252 70//259 68//252
f 16//259 41//259 105//259
f 16//259 105//259 70//259
f 16//259 70//259 56//252
f 2//260 14//261 16//259
f 2//260 16//259 56//252
f 5//262 2//260 1//263
f 7//264 2//260 5//262
f 11//265 14//261 2//260
f 9//266 11//265 2//260
f 9//266 2//260 7//264
f 3//267 2//267 56//267
f 3//267 56//267 55//267
