# Blender v2.81 (sub 16) OBJ File: ''
# www.blender.org
mtllib 28-Pin Shrouded Header (IDC) Straight.mtl
o 28-Pin_Shrouded_Header_(IDC)_Straight
v 0.000262 0.000242 0.004907
v 0.000262 0.000241 0.004907
v 0.000262 0.000241 -0.004907
v 0.000262 0.000242 -0.004907
v 0.000262 0.000243 0.004907
v 0.000262 0.000244 -0.004907
v 0.000262 0.000244 0.004907
v 0.000262 0.000245 -0.004908
v 0.000262 0.000246 0.004908
v 0.000262 0.000246 -0.004909
v 0.000261 0.000248 0.004911
v 0.000261 0.000248 -0.004911
v 0.000260 0.000250 -0.004914
v 0.000259 0.000252 0.004918
v 0.000258 0.000253 -0.004922
v 0.000256 0.000256 0.004931
v 0.000256 0.000256 -0.004931
v 0.000253 0.000258 0.004922
v 0.000252 0.000259 -0.004918
v 0.000250 0.000260 0.004914
v 0.000248 0.000261 -0.004911
v 0.000248 0.000261 0.004911
v 0.000246 0.000262 0.004909
v 0.000246 0.000262 -0.004908
v 0.000245 0.000262 0.004908
v 0.000244 0.000262 -0.004907
v 0.000244 0.000262 0.004907
v 0.000243 0.000262 -0.004907
v 0.000242 0.000262 0.004907
v 0.000242 0.000262 -0.004907
v 0.000241 0.000262 0.004907
v 0.000241 0.000262 -0.004907
v -0.000241 0.000262 0.004907
v -0.000246 0.000262 0.004908
v -0.000248 0.000261 0.004911
v -0.000244 0.000262 0.004907
v -0.000243 0.000262 0.004907
v -0.000242 0.000262 0.004907
v -0.000252 0.000259 0.004918
v -0.000256 0.000256 0.004931
v 0.000157 0.000157 0.005326
v -0.000157 0.000157 0.005326
v -0.000241 0.000262 -0.004907
v -0.000244 0.000262 -0.004907
v -0.000242 0.000262 -0.004907
v -0.000245 0.000262 -0.004908
v -0.000246 0.000262 -0.004909
v -0.000248 0.000261 -0.004911
v -0.000250 0.000260 -0.004914
v -0.000253 0.000258 -0.004922
v -0.000256 0.000256 -0.004931
v 0.000157 0.000157 -0.005326
v -0.000157 0.000157 -0.005326
v 0.000262 -0.000242 -0.004907
v 0.000262 -0.000241 -0.004907
v 0.000262 -0.000241 0.004907
v 0.000262 -0.000242 0.004907
v 0.000262 -0.000243 -0.004907
v 0.000262 -0.000244 0.004907
v 0.000262 -0.000244 -0.004907
v 0.000262 -0.000245 0.004908
v 0.000262 -0.000246 -0.004908
v 0.000262 -0.000246 0.004909
v 0.000261 -0.000248 -0.004911
v 0.000261 -0.000248 0.004911
v 0.000260 -0.000250 0.004914
v 0.000259 -0.000252 -0.004918
v 0.000258 -0.000253 0.004922
v 0.000256 -0.000256 -0.004931
v 0.000256 -0.000256 0.004931
v 0.000253 -0.000258 -0.004922
v 0.000252 -0.000259 0.004918
v 0.000250 -0.000260 -0.004914
v 0.000248 -0.000261 0.004911
v 0.000248 -0.000261 -0.004911
v 0.000246 -0.000262 -0.004909
v 0.000246 -0.000262 0.004908
v 0.000245 -0.000262 -0.004908
v 0.000244 -0.000262 0.004907
v 0.000244 -0.000262 -0.004907
v 0.000243 -0.000262 0.004907
v 0.000242 -0.000262 -0.004907
v 0.000242 -0.000262 0.004907
v 0.000241 -0.000262 -0.004907
v 0.000241 -0.000262 0.004907
v -0.000241 -0.000262 -0.004907
v -0.000246 -0.000262 -0.004908
v -0.000248 -0.000261 -0.004911
v -0.000244 -0.000262 -0.004907
v -0.000243 -0.000262 -0.004907
v -0.000242 -0.000262 -0.004907
v -0.000252 -0.000259 -0.004918
v -0.000256 -0.000256 -0.004931
v 0.000157 -0.000157 -0.005326
v -0.000157 -0.000157 -0.005326
v -0.000241 -0.000262 0.004907
v -0.000244 -0.000262 0.004907
v -0.000242 -0.000262 0.004907
v -0.000245 -0.000262 0.004908
v -0.000246 -0.000262 0.004909
v -0.000248 -0.000261 0.004911
v -0.000250 -0.000260 0.004914
v -0.000253 -0.000258 0.004922
v -0.000256 -0.000256 0.004931
v 0.000157 -0.000157 0.005326
v -0.000157 -0.000157 0.005326
v -0.000262 0.000242 -0.004907
v -0.000262 0.000241 -0.004907
v -0.000262 0.000241 0.004907
v -0.000262 0.000242 0.004907
v -0.000262 0.000243 -0.004907
v -0.000262 0.000244 0.004907
v -0.000262 0.000244 -0.004907
v -0.000262 0.000245 0.004908
v -0.000262 0.000246 -0.004908
v -0.000262 0.000246 0.004909
v -0.000261 0.000248 -0.004911
v -0.000261 0.000248 0.004911
v -0.000260 0.000250 0.004914
v -0.000259 0.000252 -0.004918
v -0.000258 0.000253 0.004922
v -0.000262 -0.000242 0.004907
v -0.000262 -0.000241 0.004907
v -0.000262 -0.000241 -0.004907
v -0.000262 -0.000242 -0.004907
v -0.000262 -0.000243 0.004907
v -0.000262 -0.000244 -0.004907
v -0.000262 -0.000244 0.004907
v -0.000262 -0.000245 -0.004908
v -0.000262 -0.000246 0.004908
v -0.000262 -0.000246 -0.004909
v -0.000261 -0.000248 0.004911
v -0.000261 -0.000248 -0.004911
v -0.000260 -0.000250 -0.004914
v -0.000259 -0.000252 0.004918
v -0.000258 -0.000253 -0.004922
vn 0.9996 0.0271 0.0000
vn 0.9998 0.0212 -0.0000
vn 0.9997 0.0236 -0.0000
vn 0.9996 0.0294 -0.0000
vn 0.9961 0.0883 -0.0000
vn 0.9980 0.0633 0.0000
vn 0.9892 0.1464 0.0000
vn 0.9937 0.1119 0.0000
vn 0.9788 0.2046 -0.0000
vn 0.9845 0.1755 0.0000
vn 0.9634 0.2679 0.0000
vn 0.9648 0.2630 -0.0000
vn 0.9625 0.2712 -0.0000
vn 0.9312 0.3644 0.0000
vn 0.9657 0.2595 0.0000
vn 0.8676 0.4973 -0.0000
vn 0.9141 0.4055 0.0000
vn 0.7669 0.6418 0.0000
vn 0.7934 0.6086 0.0000
vn 0.6086 0.7934 -0.0000
vn 0.6418 0.7669 0.0000
vn 0.4055 0.9141 -0.0000
vn 0.4972 0.8676 0.0000
vn 0.3645 0.9312 -0.0000
vn 0.2630 0.9648 0.0000
vn 0.2679 0.9634 -0.0000
vn 0.2595 0.9658 -0.0000
vn 0.2713 0.9625 0.0000
vn 0.1755 0.9845 -0.0000
vn 0.2045 0.9789 0.0000
vn 0.1119 0.9937 -0.0000
vn 0.1470 0.9891 0.0000
vn 0.0634 0.9980 -0.0000
vn 0.0882 0.9961 0.0000
vn 0.0235 0.9997 0.0000
vn 0.0270 0.9996 -0.0000
vn 0.0211 0.9998 0.0000
vn 0.0291 0.9996 0.0000
vn -0.0000 0.9702 0.2425
vn 0.0002 0.9702 0.2423
vn 0.0000 0.9701 0.2425
vn 0.0001 0.9701 0.2426
vn -0.0003 0.9698 0.2438
vn -0.0001 0.9705 0.2410
vn -0.0001 0.9704 0.2413
vn -0.0000 0.9701 0.2426
vn 0.0001 0.9700 0.2429
vn -0.0002 0.9701 0.2426
vn 0.0001 0.9702 0.2424
vn 0.0000 1.0000 0.0000
vn 0.0000 0.9701 -0.2425
vn -0.0003 0.9704 -0.2417
vn 0.0004 0.9702 -0.2424
vn 0.0001 0.9700 -0.2431
vn 0.0007 0.9702 -0.2423
vn 0.0002 0.9701 -0.2426
vn -0.0001 0.9702 -0.2424
vn 0.0000 0.9702 -0.2425
vn 0.0003 0.9697 -0.2442
vn 0.0001 0.9710 -0.2393
vn 0.0001 0.9702 -0.2424
vn -0.0001 0.9701 -0.2426
vn 0.9996 -0.0271 -0.0000
vn 0.9998 -0.0215 -0.0000
vn 0.9997 -0.0236 0.0000
vn 0.9996 -0.0294 0.0000
vn 0.9961 -0.0883 0.0000
vn 0.9980 -0.0633 -0.0000
vn 0.9891 -0.1470 0.0000
vn 0.9937 -0.1119 -0.0000
vn 0.9789 -0.2044 0.0000
vn 0.9845 -0.1755 -0.0000
vn 0.9634 -0.2679 -0.0000
vn 0.9648 -0.2629 0.0000
vn 0.9625 -0.2714 0.0000
vn 0.9312 -0.3644 -0.0000
vn 0.9657 -0.2595 -0.0000
vn 0.8676 -0.4973 0.0000
vn 0.9141 -0.4055 -0.0000
vn 0.7668 -0.6419 -0.0000
vn 0.7934 -0.6087 -0.0000
vn 0.6087 -0.7934 0.0000
vn 0.6419 -0.7668 -0.0000
vn 0.4055 -0.9141 0.0000
vn 0.4972 -0.8676 -0.0000
vn 0.3645 -0.9312 0.0000
vn 0.2630 -0.9648 -0.0000
vn 0.2680 -0.9634 -0.0000
vn 0.2595 -0.9658 0.0000
vn 0.2713 -0.9625 -0.0000
vn 0.1755 -0.9845 0.0000
vn 0.2051 -0.9787 -0.0000
vn 0.1119 -0.9937 0.0000
vn 0.1464 -0.9892 -0.0000
vn 0.0634 -0.9980 0.0000
vn 0.0882 -0.9961 -0.0000
vn 0.0235 -0.9997 -0.0000
vn 0.0272 -0.9996 0.0000
vn 0.0211 -0.9998 -0.0000
vn 0.0294 -0.9996 -0.0000
vn 0.0000 -0.9700 -0.2430
vn 0.0002 -0.9701 -0.2426
vn -0.0000 -0.9702 -0.2425
vn -0.0000 -0.9702 -0.2422
vn -0.0002 -0.9699 -0.2434
vn -0.0006 -0.9697 -0.2441
vn 0.0001 -0.9701 -0.2426
vn 0.0000 -0.9701 -0.2425
vn -0.0001 -0.9701 -0.2429
vn -0.0004 -0.9704 -0.2415
vn -0.0002 -0.9702 -0.2422
vn -0.0001 -0.9701 -0.2427
vn -0.0002 -0.9701 -0.2426
vn -0.0000 -0.9701 -0.2426
vn 0.0000 -1.0000 -0.0000
vn 0.0000 -0.9701 0.2425
vn -0.0004 -0.9700 0.2430
vn -0.0000 -0.9706 0.2408
vn 0.0001 -0.9703 0.2421
vn -0.0000 -0.9702 0.2423
vn 0.0002 -0.9701 0.2426
vn -0.0000 -0.9701 0.2426
vn -0.0000 -0.9701 0.2428
vn -0.0001 -0.9701 0.2426
vn 0.0003 -0.9695 0.2450
vn -0.0003 -0.9698 0.2441
vn 0.0002 -0.9704 0.2416
vn -0.0000 -0.9702 0.2425
vn -0.0002 -0.9702 0.2425
vn -0.9996 0.0271 -0.0000
vn -0.9998 0.0215 0.0000
vn -0.9997 0.0236 0.0000
vn -0.9996 0.0294 0.0000
vn -0.9961 0.0883 0.0000
vn -0.9980 0.0633 -0.0000
vn -0.9892 0.1465 -0.0000
vn -0.9937 0.1119 -0.0000
vn -0.9789 0.2046 0.0000
vn -0.9845 0.1756 -0.0000
vn -0.9634 0.2679 -0.0000
vn -0.9648 0.2630 0.0000
vn -0.9625 0.2712 0.0000
vn -0.9312 0.3644 -0.0000
vn -0.9657 0.2595 -0.0000
vn -0.8676 0.4973 0.0000
vn -0.9141 0.4055 -0.0000
vn -0.7669 0.6418 0.0000
vn -0.7934 0.6086 -0.0000
vn -0.6086 0.7934 0.0000
vn -0.6418 0.7669 0.0000
vn -0.4055 0.9141 0.0000
vn -0.4973 0.8676 -0.0000
vn -0.3645 0.9312 0.0000
vn -0.2630 0.9648 -0.0000
vn -0.2679 0.9634 0.0000
vn -0.2595 0.9658 0.0000
vn -0.2714 0.9625 0.0000
vn -0.1755 0.9845 0.0000
vn -0.2044 0.9789 -0.0000
vn -0.1119 0.9937 0.0000
vn -0.1467 0.9892 0.0000
vn -0.0634 0.9980 0.0000
vn -0.0882 0.9961 -0.0000
vn -0.0235 0.9997 0.0000
vn -0.0270 0.9996 0.0000
vn -0.0211 0.9998 0.0000
vn -0.0291 0.9996 0.0000
vn -0.9996 -0.0271 0.0000
vn -0.9998 -0.0212 -0.0000
vn -0.9997 -0.0236 -0.0000
vn -0.9996 -0.0294 -0.0000
vn -0.9961 -0.0883 -0.0000
vn -0.9980 -0.0633 0.0000
vn -0.9892 -0.1464 0.0000
vn -0.9937 -0.1119 0.0000
vn -0.9789 -0.2044 -0.0000
vn -0.9845 -0.1755 0.0000
vn -0.9634 -0.2679 0.0000
vn -0.9648 -0.2629 -0.0000
vn -0.9625 -0.2714 -0.0000
vn -0.9312 -0.3644 0.0000
vn -0.9657 -0.2595 0.0000
vn -0.8676 -0.4973 -0.0000
vn -0.9141 -0.4055 0.0000
vn -0.7668 -0.6419 -0.0000
vn -0.7934 -0.6087 0.0000
vn -0.6087 -0.7934 -0.0000
vn -0.6419 -0.7668 -0.0000
vn -0.4055 -0.9141 -0.0000
vn -0.4973 -0.8676 0.0000
vn -0.3645 -0.9312 -0.0000
vn -0.2630 -0.9648 0.0000
vn -0.2680 -0.9634 0.0000
vn -0.2595 -0.9658 -0.0000
vn -0.2714 -0.9625 -0.0000
vn -0.1755 -0.9845 -0.0000
vn -0.2051 -0.9787 0.0000
vn -0.1119 -0.9937 -0.0000
vn -0.1468 -0.9892 -0.0000
vn -0.0634 -0.9980 -0.0000
vn -0.0882 -0.9961 0.0000
vn -0.0235 -0.9997 -0.0000
vn -0.0272 -0.9996 -0.0000
vn -0.0211 -0.9998 -0.0000
vn -0.0294 -0.9996 0.0000
vn 0.9702 -0.0000 -0.2425
vn 0.9701 0.0000 -0.2428
vn 0.9702 -0.0001 -0.2425
vn 0.9703 -0.0001 -0.2419
vn 0.9706 0.0001 -0.2408
vn 0.9684 -0.0001 -0.2492
vn 0.9701 -0.0000 -0.2425
vn 0.9703 0.0001 -0.2417
vn 0.9701 0.0003 -0.2428
vn 0.9702 0.0002 -0.2422
vn 0.9701 -0.0001 -0.2428
vn 0.9702 -0.0000 -0.2423
vn 0.9702 0.0001 -0.2425
vn 0.0000 0.0000 -1.0000
vn -0.9701 -0.0000 -0.2425
vn -0.9702 -0.0001 -0.2423
vn -0.9699 -0.0003 -0.2433
vn -0.9703 -0.0002 -0.2419
vn -0.9701 0.0000 -0.2428
vn -0.9701 0.0001 -0.2427
vn -0.9702 -0.0001 -0.2424
vn -0.9702 0.0000 -0.2425
vn -0.9702 -0.0000 -0.2421
vn -0.9689 0.0001 -0.2476
vn -0.9703 0.0002 -0.2419
vn -0.9701 0.0001 -0.2425
vn -1.0000 0.0000 0.0000
vn 0.0000 0.0000 1.0000
vn -0.9702 -0.0000 0.2425
vn -0.9701 0.0002 0.2429
vn -0.9700 -0.0002 0.2431
vn -0.9700 -0.0000 0.2430
vn -0.9708 -0.0000 0.2400
vn -0.9701 -0.0000 0.2425
vn -0.9702 -0.0000 0.2422
vn -0.9704 0.0002 0.2415
vn -0.9701 0.0003 0.2426
vn -0.9701 -0.0000 0.2429
vn -0.9701 -0.0001 0.2426
vn -0.9702 0.0001 0.2425
vn 0.9702 -0.0000 0.2425
vn 0.9702 -0.0002 0.2422
vn 0.9706 -0.0001 0.2409
vn 0.9701 -0.0001 0.2426
vn 0.9701 0.0000 0.2425
vn 0.9702 0.0001 0.2422
vn 0.9702 -0.0001 0.2424
vn 0.9701 -0.0001 0.2425
vn 0.9704 -0.0001 0.2413
vn 0.9701 0.0001 0.2426
vn 0.9701 -0.0002 0.2428
vn 1.0000 0.0000 0.0000
usemtl material_1.083
s 1
f 1//1 2//2 3//3
f 1//1 3//3 4//4
f 5//5 4//5 6//5
f 5//6 1//6 4//6
f 7//7 6//7 8//7
f 7//8 5//8 6//8
f 9//9 8//9 10//9
f 9//10 7//10 8//10
f 11//11 10//12 12//13
f 11//14 12//14 13//14
f 11//11 9//15 10//12
f 14//16 13//16 15//16
f 14//17 11//17 13//17
f 16//18 15//18 17//18
f 16//19 14//19 15//19
f 18//20 17//20 19//20
f 18//21 16//21 17//21
f 20//22 19//22 21//22
f 20//23 18//23 19//23
f 22//24 20//24 21//24
f 23//25 21//26 24//27
f 23//25 22//28 21//26
f 25//29 24//29 26//29
f 25//30 23//30 24//30
f 27//31 26//31 28//31
f 27//32 25//32 26//32
f 29//33 28//33 30//33
f 29//34 27//34 28//34
f 31//35 30//36 32//37
f 31//35 29//38 30//36
usemtl material_0.086
f 33//39 34//40 35//41
f 33//39 36//42 34//40
f 33//39 37//43 36//42
f 33//39 38//44 37//43
f 39//39 33//39 35//41
f 40//41 33//39 39//39
f 27//45 29//46 31//41
f 25//47 27//45 31//41
f 23//40 25//47 31//41
f 22//39 23//40 31//41
f 20//48 22//39 31//41
f 18//49 20//48 31//41
f 16//41 31//41 33//39
f 16//41 33//39 40//41
f 16//41 18//49 31//41
f 41//41 40//41 42//41
f 41//41 16//41 40//41
f 31//50 32//50 43//50
f 31//50 43//50 33//50
f 43//51 44//52 45//53
f 43//51 46//54 44//52
f 43//51 47//55 46//54
f 43//51 48//51 47//55
f 43//51 49//56 48//51
f 43//51 50//57 49//56
f 43//51 51//51 50//57
f 17//51 52//51 53//51
f 17//51 53//51 51//51
f 32//58 19//58 17//51
f 32//58 51//51 43//51
f 32//58 17//51 51//51
f 28//59 32//58 30//60
f 26//61 32//58 28//59
f 21//58 19//58 32//58
f 24//62 21//58 32//58
f 24//62 32//58 26//61
f 54//63 55//64 56//65
f 54//63 56//65 57//66
f 58//67 57//67 59//67
f 58//68 54//68 57//68
f 60//69 59//69 61//69
f 60//70 58//70 59//70
f 62//71 61//71 63//71
f 62//72 60//72 61//72
f 64//73 63//74 65//75
f 64//76 65//76 66//76
f 64//73 62//77 63//74
f 67//78 66//78 68//78
f 67//79 64//79 66//79
f 69//80 68//80 70//80
f 69//81 67//81 68//81
f 71//82 70//82 72//82
f 71//83 69//83 70//83
f 73//84 72//84 74//84
f 73//85 71//85 72//85
f 75//86 73//86 74//86
f 76//87 74//88 77//89
f 76//87 75//90 74//88
f 78//91 77//91 79//91
f 78//92 76//92 77//92
f 80//93 79//93 81//93
f 80//94 78//94 79//94
f 82//95 81//95 83//95
f 82//96 80//96 81//96
f 84//97 83//98 85//99
f 84//97 82//100 83//98
f 86//101 87//102 88//103
f 86//101 89//104 87//102
f 86//101 90//105 89//104
f 86//101 91//106 90//105
f 92//107 86//101 88//103
f 93//108 86//101 92//107
f 80//109 82//110 84//108
f 78//111 80//109 84//108
f 76//112 78//111 84//108
f 75//103 76//112 84//108
f 73//113 75//103 84//108
f 71//114 73//113 84//108
f 69//108 84//108 86//101
f 69//108 86//101 93//108
f 69//108 71//114 84//108
f 94//108 93//108 95//108
f 94//108 69//108 93//108
f 84//115 85//115 96//115
f 84//115 96//115 86//115
f 96//116 97//117 98//118
f 96//116 99//119 97//117
f 96//116 100//120 99//119
f 96//116 101//116 100//120
f 96//116 102//121 101//116
f 96//116 103//122 102//121
f 96//116 104//116 103//122
f 70//116 105//116 106//116
f 70//116 106//116 104//116
f 85//123 72//124 70//116
f 85//123 104//116 96//116
f 85//123 70//116 104//116
f 81//125 85//123 83//126
f 79//127 85//123 81//125
f 74//128 72//124 85//123
f 77//129 74//128 85//123
f 77//129 85//123 79//127
f 107//130 108//131 109//132
f 107//130 109//132 110//133
f 111//134 110//134 112//134
f 111//135 107//135 110//135
f 113//136 112//136 114//136
f 113//137 111//137 112//137
f 115//138 114//138 116//138
f 115//139 113//139 114//139
f 117//140 116//141 118//142
f 117//143 118//143 119//143
f 117//140 115//144 116//141
f 120//145 119//145 121//145
f 120//146 117//146 119//146
f 51//147 121//147 40//147
f 51//148 120//148 121//148
f 50//149 40//149 39//149
f 50//150 51//150 40//150
f 49//151 39//151 35//151
f 49//152 50//152 39//152
f 48//153 49//153 35//153
f 47//154 35//155 34//156
f 47//154 48//157 35//155
f 46//158 34//158 36//158
f 46//159 47//159 34//159
f 44//160 36//160 37//160
f 44//161 46//161 36//161
f 45//162 37//162 38//162
f 45//163 44//163 37//163
f 43//164 38//165 33//166
f 43//164 45//167 38//165
f 122//168 123//169 124//170
f 122//168 124//170 125//171
f 126//172 125//172 127//172
f 126//173 122//173 125//173
f 128//174 127//174 129//174
f 128//175 126//175 127//175
f 130//176 129//176 131//176
f 130//177 128//177 129//177
f 132//178 131//179 133//180
f 132//181 133//181 134//181
f 132//178 130//182 131//179
f 135//183 134//183 136//183
f 135//184 132//184 134//184
f 104//185 136//185 93//185
f 104//186 135//186 136//186
f 103//187 93//187 92//187
f 103//188 104//188 93//188
f 102//189 92//189 88//189
f 102//190 103//190 92//190
f 101//191 102//191 88//191
f 100//192 88//193 87//194
f 100//192 101//195 88//193
f 99//196 87//196 89//196
f 99//197 100//197 87//197
f 97//198 89//198 90//198
f 97//199 99//199 89//199
f 98//200 90//200 91//200
f 98//201 97//201 90//201
f 96//202 91//203 86//204
f 96//202 98//205 91//203
f 55//206 62//207 64//208
f 55//206 60//209 62//207
f 55//206 58//210 60//209
f 55//206 54//211 58//210
f 67//212 55//206 64//208
f 69//212 55//206 67//212
f 6//213 4//214 3//212
f 8//215 6//213 3//212
f 10//216 8//215 3//212
f 12//206 10//216 3//212
f 13//217 12//206 3//212
f 15//218 13//217 3//212
f 17//212 3//212 55//206
f 17//212 55//206 69//212
f 17//212 15//218 3//212
f 52//212 69//212 94//212
f 52//212 17//212 69//212
f 52//219 94//219 95//219
f 52//219 95//219 53//219
f 124//220 127//221 125//222
f 124//220 129//223 127//221
f 124//220 131//224 129//223
f 124//220 133//220 131//224
f 124//220 134//225 133//220
f 124//220 136//226 134//225
f 124//220 93//220 136//226
f 51//220 53//220 95//220
f 51//220 95//220 93//220
f 108//227 120//220 51//220
f 108//227 93//220 124//220
f 108//227 51//220 93//220
f 111//228 108//227 107//229
f 113//230 108//227 111//228
f 117//231 120//220 108//227
f 115//224 117//231 108//227
f 115//224 108//227 113//230
f 109//232 108//232 124//232
f 109//232 124//232 123//232
f 105//233 41//233 42//233
f 105//233 42//233 106//233
f 123//234 130//235 132//234
f 123//234 128//236 130//235
f 123//234 126//237 128//236
f 123//234 122//238 126//237
f 135//234 123//234 132//234
f 104//239 123//234 135//234
f 112//240 110//241 109//239
f 114//240 112//240 109//239
f 116//242 114//240 109//239
f 118//243 116//242 109//239
f 119//244 118//243 109//239
f 121//245 119//244 109//239
f 40//239 109//239 123//234
f 40//239 104//239 106//239
f 40//239 123//234 104//239
f 40//239 121//245 109//239
f 42//239 40//239 106//239
f 56//246 59//247 57//248
f 56//246 61//249 59//247
f 56//246 63//247 61//249
f 56//246 65//250 63//247
f 56//246 66//251 65//250
f 56//246 68//252 66//251
f 56//246 70//250 68//252
f 16//250 41//250 105//250
f 16//250 105//250 70//250
f 16//250 70//250 56//246
f 2//246 14//250 16//250
f 2//246 16//250 56//246
f 5//253 2//246 1//254
f 7//255 2//246 5//253
f 11//246 14//250 2//246
f 9//256 11//246 2//246
f 9//256 2//246 7//255
f 3//257 2//257 56//257
f 3//257 56//257 55//257
