# Blender v2.81 (sub 16) OBJ File: ''
# www.blender.org
mtllib 32-Pin Shrouded Header (IDC) Straight.mtl
o 32-Pin_Shrouded_Header_(IDC)_Straight
v 0.000562 0.000519 0.010525
v 0.000562 0.000517 0.010525
v 0.000562 0.000517 -0.010525
v 0.000562 0.000520 -0.010525
v 0.000562 0.000521 0.010526
v 0.000562 0.000523 -0.010526
v 0.000562 0.000524 0.010527
v 0.000562 0.000525 -0.010528
v 0.000561 0.000527 0.010529
v 0.000561 0.000528 -0.010530
v 0.000560 0.000531 0.010534
v 0.000560 0.000531 -0.010534
v 0.000558 0.000536 -0.010542
v 0.000556 0.000540 0.010549
v 0.000554 0.000543 -0.010557
v 0.000549 0.000549 0.010578
v 0.000549 0.000549 -0.010578
v 0.000543 0.000554 0.010557
v 0.000540 0.000556 -0.010549
v 0.000536 0.000558 0.010542
v 0.000531 0.000560 -0.010534
v 0.000531 0.000560 0.010534
v 0.000528 0.000561 0.010530
v 0.000527 0.000561 -0.010529
v 0.000525 0.000562 0.010528
v 0.000524 0.000562 -0.010527
v 0.000523 0.000562 0.010526
v 0.000521 0.000562 -0.010526
v 0.000520 0.000562 0.010525
v 0.000519 0.000562 -0.010525
v 0.000517 0.000562 0.010525
v 0.000517 0.000562 -0.010525
v -0.000517 0.000562 0.010525
v -0.000527 0.000561 0.010529
v -0.000531 0.000560 0.010534
v -0.000524 0.000562 0.010527
v -0.000521 0.000562 0.010526
v -0.000519 0.000562 0.010525
v -0.000540 0.000556 0.010549
v -0.000549 0.000549 0.010578
v 0.000337 0.000337 0.011425
v -0.000337 0.000337 0.011425
v -0.000517 0.000562 -0.010525
v -0.000523 0.000562 -0.010526
v -0.000520 0.000562 -0.010525
v -0.000525 0.000562 -0.010528
v -0.000528 0.000561 -0.010530
v -0.000531 0.000560 -0.010534
v -0.000536 0.000558 -0.010542
v -0.000543 0.000554 -0.010557
v -0.000549 0.000549 -0.010578
v 0.000337 0.000337 -0.011425
v -0.000337 0.000337 -0.011425
v 0.000562 -0.000519 -0.010525
v 0.000562 -0.000517 -0.010525
v 0.000562 -0.000517 0.010525
v 0.000562 -0.000520 0.010525
v 0.000562 -0.000521 -0.010526
v 0.000562 -0.000523 0.010526
v 0.000562 -0.000524 -0.010527
v 0.000562 -0.000525 0.010528
v 0.000561 -0.000527 -0.010529
v 0.000561 -0.000528 0.010530
v 0.000560 -0.000531 -0.010534
v 0.000560 -0.000531 0.010534
v 0.000558 -0.000536 0.010542
v 0.000556 -0.000540 -0.010549
v 0.000554 -0.000543 0.010557
v 0.000549 -0.000549 -0.010578
v 0.000549 -0.000549 0.010578
v 0.000543 -0.000554 -0.010557
v 0.000540 -0.000556 0.010549
v 0.000536 -0.000558 -0.010542
v 0.000531 -0.000560 0.010534
v 0.000531 -0.000560 -0.010534
v 0.000528 -0.000561 -0.010530
v 0.000527 -0.000561 0.010529
v 0.000525 -0.000562 -0.010528
v 0.000524 -0.000562 0.010527
v 0.000523 -0.000562 -0.010526
v 0.000521 -0.000562 0.010526
v 0.000520 -0.000562 -0.010525
v 0.000519 -0.000562 0.010525
v 0.000517 -0.000562 -0.010525
v 0.000517 -0.000562 0.010525
v -0.000517 -0.000562 -0.010525
v -0.000527 -0.000561 -0.010529
v -0.000531 -0.000560 -0.010534
v -0.000524 -0.000562 -0.010527
v -0.000521 -0.000562 -0.010526
v -0.000519 -0.000562 -0.010525
v -0.000540 -0.000556 -0.010549
v -0.000549 -0.000549 -0.010578
v 0.000337 -0.000337 -0.011425
v -0.000337 -0.000337 -0.011425
v -0.000517 -0.000562 0.010525
v -0.000523 -0.000562 0.010526
v -0.000520 -0.000562 0.010525
v -0.000525 -0.000562 0.010528
v -0.000528 -0.000561 0.010530
v -0.000531 -0.000560 0.010534
v -0.000536 -0.000558 0.010542
v -0.000543 -0.000554 0.010557
v -0.000549 -0.000549 0.010578
v 0.000337 -0.000337 0.011425
v -0.000337 -0.000337 0.011425
v -0.000562 0.000519 -0.010525
v -0.000562 0.000517 -0.010525
v -0.000562 0.000517 0.010525
v -0.000562 0.000520 0.010525
v -0.000562 0.000521 -0.010526
v -0.000562 0.000523 0.010526
v -0.000562 0.000524 -0.010527
v -0.000562 0.000525 0.010528
v -0.000561 0.000527 -0.010529
v -0.000561 0.000528 0.010530
v -0.000560 0.000531 -0.010534
v -0.000560 0.000531 0.010534
v -0.000558 0.000536 0.010542
v -0.000556 0.000540 -0.010549
v -0.000554 0.000543 0.010557
v -0.000562 -0.000519 0.010525
v -0.000562 -0.000517 0.010525
v -0.000562 -0.000517 -0.010525
v -0.000562 -0.000520 -0.010525
v -0.000562 -0.000521 0.010526
v -0.000562 -0.000523 -0.010526
v -0.000562 -0.000524 0.010527
v -0.000562 -0.000525 -0.010528
v -0.000561 -0.000527 0.010529
v -0.000561 -0.000528 -0.010530
v -0.000560 -0.000531 0.010534
v -0.000560 -0.000531 -0.010534
v -0.000558 -0.000536 -0.010542
v -0.000556 -0.000540 0.010549
v -0.000554 -0.000543 -0.010557
vn 0.9996 0.0274 0.0000
vn 0.9998 0.0214 0.0000
vn 0.9997 0.0233 0.0000
vn 0.9996 0.0294 -0.0000
vn 0.9961 0.0882 -0.0000
vn 0.9980 0.0635 0.0000
vn 0.9891 0.1470 -0.0000
vn 0.9937 0.1119 0.0000
vn 0.9788 0.2046 -0.0000
vn 0.9845 0.1755 0.0000
vn 0.9634 0.2679 0.0000
vn 0.9648 0.2629 -0.0000
vn 0.9625 0.2712 -0.0000
vn 0.9312 0.3645 0.0000
vn 0.9657 0.2595 0.0000
vn 0.8676 0.4973 -0.0000
vn 0.9141 0.4055 0.0000
vn 0.7669 0.6418 0.0000
vn 0.7934 0.6086 0.0000
vn 0.6087 0.7934 -0.0000
vn 0.6418 0.7669 0.0000
vn 0.4055 0.9141 -0.0000
vn 0.4972 0.8676 0.0000
vn 0.3645 0.9312 -0.0000
vn 0.2629 0.9648 0.0000
vn 0.2679 0.9635 -0.0000
vn 0.2595 0.9658 -0.0000
vn 0.2712 0.9625 0.0000
vn 0.1755 0.9845 -0.0000
vn 0.2046 0.9788 0.0000
vn 0.1119 0.9937 -0.0000
vn 0.1470 0.9891 0.0000
vn 0.0634 0.9980 -0.0000
vn 0.0882 0.9961 0.0000
vn 0.0235 0.9997 0.0000
vn 0.0270 0.9996 -0.0000
vn 0.0214 0.9998 0.0000
vn 0.0291 0.9996 0.0000
vn -0.0000 0.9702 0.2425
vn 0.0002 0.9701 0.2427
vn -0.0001 0.9700 0.2431
vn -0.0000 0.9700 0.2431
vn 0.0007 0.9705 0.2412
vn -0.0001 0.9701 0.2425
vn -0.0000 0.9701 0.2425
vn -0.0005 0.9703 0.2419
vn 0.0003 0.9700 0.2430
vn -0.0000 0.9700 0.2430
vn 0.0002 0.9702 0.2422
vn -0.0001 0.9701 0.2426
vn 0.0001 0.9702 0.2425
vn 0.0000 1.0000 0.0000
vn -0.0000 0.9701 -0.2425
vn -0.0000 0.9702 -0.2423
vn 0.0000 0.9702 -0.2424
vn 0.0004 0.9700 -0.2431
vn 0.0003 0.9703 -0.2420
vn 0.0001 0.9701 -0.2425
vn 0.0001 0.9701 -0.2426
vn -0.0001 0.9702 -0.2425
vn -0.0000 0.9702 -0.2425
vn 0.0001 0.9702 -0.2425
vn 0.0003 0.9701 -0.2427
vn -0.0004 0.9705 -0.2410
vn -0.0001 0.9700 -0.2432
vn -0.0002 0.9701 -0.2426
vn 0.9996 -0.0270 -0.0000
vn 0.9998 -0.0214 -0.0000
vn 0.9997 -0.0235 -0.0000
vn 0.9996 -0.0294 0.0000
vn 0.9961 -0.0882 0.0000
vn 0.9980 -0.0635 -0.0000
vn 0.9891 -0.1470 0.0000
vn 0.9937 -0.1119 -0.0000
vn 0.9789 -0.2045 0.0000
vn 0.9845 -0.1755 -0.0000
vn 0.9634 -0.2679 -0.0000
vn 0.9648 -0.2630 0.0000
vn 0.9625 -0.2713 0.0000
vn 0.9312 -0.3645 -0.0000
vn 0.9657 -0.2595 -0.0000
vn 0.8676 -0.4973 0.0000
vn 0.9141 -0.4055 -0.0000
vn 0.7668 -0.6419 -0.0000
vn 0.7934 -0.6087 -0.0000
vn 0.6087 -0.7934 0.0000
vn 0.6419 -0.7668 -0.0000
vn 0.4055 -0.9141 0.0000
vn 0.4972 -0.8676 -0.0000
vn 0.3645 -0.9312 0.0000
vn 0.2629 -0.9648 -0.0000
vn 0.2680 -0.9634 0.0000
vn 0.2595 -0.9658 0.0000
vn 0.2712 -0.9625 -0.0000
vn 0.1755 -0.9845 0.0000
vn 0.2053 -0.9787 -0.0000
vn 0.1119 -0.9937 0.0000
vn 0.1464 -0.9892 -0.0000
vn 0.0634 -0.9980 0.0000
vn 0.0882 -0.9961 -0.0000
vn 0.0235 -0.9997 -0.0000
vn 0.0272 -0.9996 0.0000
vn 0.0211 -0.9998 -0.0000
vn 0.0294 -0.9996 -0.0000
vn 0.0000 -0.9701 -0.2425
vn 0.0002 -0.9701 -0.2426
vn -0.0000 -0.9702 -0.2425
vn -0.0004 -0.9704 -0.2417
vn -0.0000 -0.9699 -0.2435
vn 0.0002 -0.9704 -0.2414
vn 0.0000 -0.9701 -0.2426
vn -0.0000 -0.9700 -0.2429
vn -0.0001 -0.9707 -0.2405
vn -0.0006 -0.9699 -0.2436
vn 0.0001 -0.9702 -0.2423
vn -0.0001 -0.9701 -0.2426
vn 0.0000 -1.0000 -0.0000
vn 0.0000 -0.9701 0.2425
vn -0.0001 -0.9702 0.2422
vn -0.0003 -0.9710 0.2392
vn 0.0002 -0.9702 0.2423
vn 0.0000 -0.9701 0.2427
vn 0.0001 -0.9701 0.2425
vn 0.0001 -0.9701 0.2426
vn 0.0000 -0.9701 0.2426
vn -0.0000 -0.9700 0.2432
vn -0.0001 -0.9701 0.2426
vn 0.0002 -0.9694 0.2456
vn -0.0007 -0.9706 0.2409
vn 0.0005 -0.9703 0.2417
vn -0.0002 -0.9701 0.2427
vn -0.9996 0.0272 -0.0000
vn -0.9998 0.0215 0.0000
vn -0.9997 0.0233 -0.0000
vn -0.9996 0.0294 0.0000
vn -0.9961 0.0882 0.0000
vn -0.9980 0.0634 -0.0000
vn -0.9892 0.1464 0.0000
vn -0.9937 0.1119 -0.0000
vn -0.9787 0.2052 0.0000
vn -0.9845 0.1755 -0.0000
vn -0.9634 0.2679 -0.0000
vn -0.9648 0.2630 0.0000
vn -0.9624 0.2717 0.0000
vn -0.9312 0.3645 -0.0000
vn -0.9658 0.2595 -0.0000
vn -0.8676 0.4973 0.0000
vn -0.9141 0.4055 -0.0000
vn -0.7668 0.6419 0.0000
vn -0.7934 0.6087 -0.0000
vn -0.6087 0.7934 0.0000
vn -0.6419 0.7668 0.0000
vn -0.4055 0.9141 0.0000
vn -0.4972 0.8676 -0.0000
vn -0.3645 0.9312 0.0000
vn -0.2629 0.9648 -0.0000
vn -0.2680 0.9634 0.0000
vn -0.2595 0.9658 0.0000
vn -0.2713 0.9625 0.0000
vn -0.1755 0.9845 0.0000
vn -0.2045 0.9789 -0.0000
vn -0.1119 0.9937 0.0000
vn -0.1470 0.9891 -0.0000
vn -0.0634 0.9980 0.0000
vn -0.0882 0.9961 -0.0000
vn -0.0235 0.9997 0.0000
vn -0.0270 0.9996 0.0000
vn -0.0214 0.9998 0.0000
vn -0.0291 0.9996 0.0000
vn -0.9996 -0.0268 0.0000
vn -0.9998 -0.0209 -0.0000
vn -0.9997 -0.0235 0.0000
vn -0.9996 -0.0294 -0.0000
vn -0.9961 -0.0882 -0.0000
vn -0.9980 -0.0634 0.0000
vn -0.9892 -0.1464 -0.0000
vn -0.9937 -0.1119 0.0000
vn -0.9787 -0.2051 -0.0000
vn -0.9844 -0.1758 -0.0000
vn -0.9635 -0.2677 0.0000
vn -0.9648 -0.2631 -0.0000
vn -0.9625 -0.2713 -0.0000
vn -0.9312 -0.3645 0.0000
vn -0.9659 -0.2588 -0.0000
vn -0.8676 -0.4973 -0.0000
vn -0.9141 -0.4055 0.0000
vn -0.7667 -0.6420 -0.0000
vn -0.7933 -0.6088 0.0000
vn -0.6088 -0.7933 -0.0000
vn -0.6420 -0.7667 -0.0000
vn -0.4055 -0.9141 -0.0000
vn -0.4972 -0.8676 0.0000
vn -0.3645 -0.9312 -0.0000
vn -0.2629 -0.9648 0.0000
vn -0.2680 -0.9634 0.0000
vn -0.2595 -0.9657 -0.0000
vn -0.2713 -0.9625 -0.0000
vn -0.1755 -0.9845 -0.0000
vn -0.2051 -0.9787 0.0000
vn -0.1119 -0.9937 -0.0000
vn -0.1469 -0.9892 -0.0000
vn -0.0634 -0.9980 -0.0000
vn -0.0882 -0.9961 0.0000
vn -0.0236 -0.9997 -0.0000
vn -0.0272 -0.9996 -0.0000
vn -0.0211 -0.9998 -0.0000
vn -0.0294 -0.9996 0.0000
vn 0.9701 -0.0000 -0.2425
vn 0.9701 0.0001 -0.2427
vn 0.9703 -0.0001 -0.2419
vn 0.9703 0.0004 -0.2420
vn 0.9687 0.0002 -0.2482
vn 0.9702 -0.0000 -0.2425
vn 0.9701 -0.0000 -0.2426
vn 0.9703 -0.0001 -0.2420
vn 0.9701 0.0002 -0.2425
vn 0.9700 0.0001 -0.2431
vn 0.9702 -0.0000 -0.2422
vn 0.9702 0.0001 -0.2425
vn 0.0000 0.0000 -1.0000
vn -0.9701 0.0000 -0.2425
vn -0.9703 -0.0001 -0.2421
vn -0.9703 -0.0000 -0.2418
vn -0.9700 -0.0001 -0.2430
vn -0.9701 -0.0000 -0.2426
vn -0.9702 -0.0004 -0.2422
vn -0.9701 0.0001 -0.2426
vn -0.9701 -0.0001 -0.2426
vn -0.9703 -0.0006 -0.2419
vn -0.9681 -0.0004 -0.2507
vn -0.9703 0.0004 -0.2418
vn -0.9701 -0.0001 -0.2427
vn -1.0000 0.0000 0.0000
vn 0.0000 0.0000 1.0000
vn -0.9701 -0.0000 0.2425
vn -0.9702 -0.0003 0.2422
vn -0.9701 -0.0002 0.2426
vn -0.9700 0.0005 0.2432
vn -0.9700 0.0006 0.2430
vn -0.9701 0.0001 0.2426
vn -0.9699 0.0000 0.2434
vn -0.9708 0.0004 0.2398
vn -0.9702 0.0001 0.2421
vn -0.9702 0.0002 0.2425
vn -0.9701 -0.0001 0.2426
vn 0.9701 0.0000 0.2425
vn 0.9698 0.0002 0.2437
vn 0.9706 0.0002 0.2408
vn 0.9703 -0.0002 0.2419
vn 0.9702 -0.0002 0.2422
vn 0.9701 0.0001 0.2426
vn 0.9702 -0.0001 0.2425
vn 0.9702 0.0000 0.2425
vn 0.9699 -0.0000 0.2434
vn 0.9706 -0.0001 0.2405
vn 0.9702 -0.0000 0.2421
vn 0.9701 -0.0001 0.2427
vn 1.0000 0.0000 0.0000
usemtl material_1.167
s 1
f 1//1 2//2 3//3
f 1//1 3//3 4//4
f 5//5 4//5 6//5
f 5//6 1//6 4//6
f 7//7 6//7 8//7
f 7//8 5//8 6//8
f 9//9 8//9 10//9
f 9//10 7//10 8//10
f 11//11 10//12 12//13
f 11//14 12//14 13//14
f 11//11 9//15 10//12
f 14//16 13//16 15//16
f 14//17 11//17 13//17
f 16//18 15//18 17//18
f 16//19 14//19 15//19
f 18//20 17//20 19//20
f 18//21 16//21 17//21
f 20//22 19//22 21//22
f 20//23 18//23 19//23
f 22//24 20//24 21//24
f 23//25 21//26 24//27
f 23//25 22//28 21//26
f 25//29 24//29 26//29
f 25//30 23//30 24//30
f 27//31 26//31 28//31
f 27//32 25//32 26//32
f 29//33 28//33 30//33
f 29//34 27//34 28//34
f 31//35 30//36 32//37
f 31//35 29//38 30//36
usemtl material_0.172
f 33//39 34//40 35//39
f 33//39 36//41 34//40
f 33//39 37//42 36//41
f 33//39 38//43 37//42
f 39//44 33//39 35//39
f 40//45 33//39 39//44
f 27//46 29//47 31//45
f 25//48 27//46 31//45
f 23//49 25//48 31//45
f 22//39 23//49 31//45
f 20//50 22//39 31//45
f 18//51 20//50 31//45
f 16//45 31//45 33//39
f 16//45 33//39 40//45
f 16//45 18//51 31//45
f 41//45 40//45 42//45
f 41//45 16//45 40//45
f 31//52 32//52 43//52
f 31//52 43//52 33//52
f 43//53 44//54 45//55
f 43//53 46//56 44//54
f 43//53 47//57 46//56
f 43//53 48//58 47//57
f 43//53 49//59 48//58
f 43//53 50//60 49//59
f 43//53 51//53 50//60
f 17//53 52//53 53//53
f 17//53 53//53 51//53
f 32//61 19//62 17//53
f 32//61 51//53 43//53
f 32//61 17//53 51//53
f 28//63 32//61 30//64
f 26//65 32//61 28//63
f 21//61 19//62 32//61
f 24//66 21//61 32//61
f 24//66 32//61 26//65
f 54//67 55//68 56//69
f 54//67 56//69 57//70
f 58//71 57//71 59//71
f 58//72 54//72 57//72
f 60//73 59//73 61//73
f 60//74 58//74 59//74
f 62//75 61//75 63//75
f 62//76 60//76 61//76
f 64//77 63//78 65//79
f 64//80 65//80 66//80
f 64//77 62//81 63//78
f 67//82 66//82 68//82
f 67//83 64//83 66//83
f 69//84 68//84 70//84
f 69//85 67//85 68//85
f 71//86 70//86 72//86
f 71//87 69//87 70//87
f 73//88 72//88 74//88
f 73//89 71//89 72//89
f 75//90 73//90 74//90
f 76//91 74//92 77//93
f 76//91 75//94 74//92
f 78//95 77//95 79//95
f 78//96 76//96 77//96
f 80//97 79//97 81//97
f 80//98 78//98 79//98
f 82//99 81//99 83//99
f 82//100 80//100 81//100
f 84//101 83//102 85//103
f 84//101 82//104 83//102
f 86//105 87//106 88//107
f 86//105 89//108 87//106
f 86//105 90//109 89//108
f 86//105 91//110 90//109
f 92//111 86//105 88//107
f 93//105 86//105 92//111
f 80//112 82//113 84//111
f 78//114 80//112 84//111
f 76//115 78//114 84//111
f 75//107 76//115 84//111
f 73//116 75//107 84//111
f 71//111 73//116 84//111
f 69//105 84//111 86//105
f 69//105 86//105 93//105
f 69//105 71//111 84//111
f 94//105 93//105 95//105
f 94//105 69//105 93//105
f 84//117 85//117 96//117
f 84//117 96//117 86//117
f 96//118 97//119 98//120
f 96//118 99//121 97//119
f 96//118 100//122 99//121
f 96//118 101//123 100//122
f 96//118 102//124 101//123
f 96//118 103//125 102//124
f 96//118 104//118 103//125
f 70//118 105//118 106//118
f 70//118 106//118 104//118
f 85//126 72//127 70//118
f 85//126 104//118 96//118
f 85//126 70//118 104//118
f 81//128 85//126 83//129
f 79//130 85//126 81//128
f 74//118 72//127 85//126
f 77//131 74//118 85//126
f 77//131 85//126 79//130
f 107//132 108//133 109//134
f 107//132 109//134 110//135
f 111//136 110//136 112//136
f 111//137 107//137 110//137
f 113//138 112//138 114//138
f 113//139 111//139 112//139
f 115//140 114//140 116//140
f 115//141 113//141 114//141
f 117//142 116//143 118//144
f 117//145 118//145 119//145
f 117//142 115//146 116//143
f 120//147 119//147 121//147
f 120//148 117//148 119//148
f 51//149 121//149 40//149
f 51//150 120//150 121//150
f 50//151 40//151 39//151
f 50//152 51//152 40//152
f 49//153 39//153 35//153
f 49//154 50//154 39//154
f 48//155 49//155 35//155
f 47//156 35//157 34//158
f 47//156 48//159 35//157
f 46//160 34//160 36//160
f 46//161 47//161 34//161
f 44//162 36//162 37//162
f 44//163 46//163 36//163
f 45//164 37//164 38//164
f 45//165 44//165 37//165
f 43//166 38//167 33//168
f 43//166 45//169 38//167
f 122//170 123//171 124//172
f 122//170 124//172 125//173
f 126//174 125//174 127//174
f 126//175 122//175 125//175
f 128//176 127//176 129//176
f 128//177 126//177 127//177
f 130//178 129//178 131//178
f 130//179 128//179 129//179
f 132//180 131//181 133//182
f 132//183 133//183 134//183
f 132//180 130//184 131//181
f 135//185 134//185 136//185
f 135//186 132//186 134//186
f 104//187 136//187 93//187
f 104//188 135//188 136//188
f 103//189 93//189 92//189
f 103//190 104//190 93//190
f 102//191 92//191 88//191
f 102//192 103//192 92//192
f 101//193 102//193 88//193
f 100//194 88//195 87//196
f 100//194 101//197 88//195
f 99//198 87//198 89//198
f 99//199 100//199 87//199
f 97//200 89//200 90//200
f 97//201 99//201 89//201
f 98//202 90//202 91//202
f 98//203 97//203 90//203
f 96//204 91//205 86//206
f 96//204 98//207 91//205
f 55//208 62//209 64//208
f 55//208 60//210 62//209
f 55//208 58//211 60//210
f 55//208 54//212 58//211
f 67//213 55//208 64//208
f 69//208 55//208 67//213
f 6//214 4//215 3//208
f 8//216 6//214 3//208
f 10//217 8//216 3//208
f 12//208 10//217 3//208
f 13//218 12//208 3//208
f 15//219 13//218 3//208
f 17//208 3//208 55//208
f 17//208 55//208 69//208
f 17//208 15//219 3//208
f 52//208 69//208 94//208
f 52//208 17//208 69//208
f 52//220 94//220 95//220
f 52//220 95//220 53//220
f 124//221 127//222 125//223
f 124//221 129//224 127//222
f 124//221 131//225 129//224
f 124//221 133//221 131//225
f 124//221 134//226 133//221
f 124//221 136//227 134//226
f 124//221 93//221 136//227
f 51//221 53//221 95//221
f 51//221 95//221 93//221
f 108//224 120//228 51//221
f 108//224 93//221 124//221
f 108//224 51//221 93//221
f 111//229 108//224 107//230
f 113//231 108//224 111//229
f 117//221 120//228 108//224
f 115//232 117//221 108//224
f 115//232 108//224 113//231
f 109//233 108//233 124//233
f 109//233 124//233 123//233
f 105//234 41//234 42//234
f 105//234 42//234 106//234
f 123//235 130//236 132//235
f 123//235 128//237 130//236
f 123//235 126//238 128//237
f 123//235 122//239 126//238
f 135//240 123//235 132//235
f 104//235 123//235 135//240
f 112//241 110//242 109//235
f 114//243 112//241 109//235
f 116//244 114//243 109//235
f 118//235 116//244 109//235
f 119//245 118//235 109//235
f 121//245 119//245 109//235
f 40//235 109//235 123//235
f 40//235 104//235 106//235
f 40//235 123//235 104//235
f 40//235 121//245 109//235
f 42//235 40//235 106//235
f 56//246 59//247 57//248
f 56//246 61//249 59//247
f 56//246 63//250 61//249
f 56//246 65//246 63//250
f 56//246 66//251 65//246
f 56//246 68//252 66//251
f 56//246 70//246 68//252
f 16//246 41//246 105//246
f 16//246 105//246 70//246
f 16//246 70//246 56//246
f 2//253 14//253 16//246
f 2//253 16//246 56//246
f 5//254 2//253 1//255
f 7//256 2//253 5//254
f 11//246 14//253 2//253
f 9//257 11//246 2//253
f 9//257 2//253 7//256
f 3//258 2//258 56//258
f 3//258 56//258 55//258
