# Blender v2.81 (sub 16) OBJ File: ''
# www.blender.org
mtllib 44-Pin Shrouded Header (IDC) Straight.mtl
o 44-Pin_Shrouded_Header_(IDC)_Straight
v 0.000676 0.000624 0.012647
v 0.000676 0.000622 0.012647
v 0.000676 0.000622 -0.012647
v 0.000676 0.000625 -0.012648
v 0.000676 0.000626 0.012648
v 0.000675 0.000628 -0.012649
v 0.000675 0.000629 0.012649
v 0.000675 0.000631 -0.012651
v 0.000675 0.000633 0.012652
v 0.000674 0.000634 -0.012653
v 0.000673 0.000638 0.012658
v 0.000673 0.000638 -0.012658
v 0.000671 0.000644 -0.012667
v 0.000669 0.000649 0.012676
v 0.000666 0.000653 -0.012686
v 0.000660 0.000660 0.012710
v 0.000660 0.000660 -0.012710
v 0.000653 0.000666 0.012686
v 0.000649 0.000669 -0.012676
v 0.000644 0.000671 0.012667
v 0.000638 0.000673 -0.012658
v 0.000638 0.000673 0.012658
v 0.000634 0.000674 0.012653
v 0.000633 0.000675 -0.012652
v 0.000631 0.000675 0.012651
v 0.000629 0.000675 -0.012649
v 0.000628 0.000675 0.012649
v 0.000626 0.000676 -0.012648
v 0.000625 0.000676 0.012648
v 0.000624 0.000676 -0.012647
v 0.000622 0.000676 0.012647
v 0.000622 0.000676 -0.012647
v -0.000622 0.000676 0.012647
v -0.000633 0.000675 0.012652
v -0.000638 0.000673 0.012658
v -0.000629 0.000675 0.012649
v -0.000626 0.000676 0.012648
v -0.000624 0.000676 0.012647
v -0.000649 0.000669 0.012676
v -0.000660 0.000660 0.012710
v 0.000405 0.000405 0.013728
v -0.000405 0.000405 0.013728
v -0.000622 0.000676 -0.012647
v -0.000628 0.000675 -0.012649
v -0.000625 0.000676 -0.012648
v -0.000631 0.000675 -0.012651
v -0.000634 0.000674 -0.012653
v -0.000638 0.000673 -0.012658
v -0.000644 0.000671 -0.012667
v -0.000653 0.000666 -0.012686
v -0.000660 0.000660 -0.012710
v 0.000405 0.000405 -0.013728
v -0.000405 0.000405 -0.013728
v 0.000676 -0.000624 -0.012647
v 0.000676 -0.000622 -0.012647
v 0.000676 -0.000622 0.012647
v 0.000676 -0.000625 0.012648
v 0.000676 -0.000626 -0.012648
v 0.000675 -0.000628 0.012649
v 0.000675 -0.000629 -0.012649
v 0.000675 -0.000631 0.012651
v 0.000675 -0.000633 -0.012652
v 0.000674 -0.000634 0.012653
v 0.000673 -0.000638 -0.012658
v 0.000673 -0.000638 0.012658
v 0.000671 -0.000644 0.012667
v 0.000669 -0.000649 -0.012676
v 0.000666 -0.000653 0.012686
v 0.000660 -0.000660 -0.012710
v 0.000660 -0.000660 0.012710
v 0.000653 -0.000666 -0.012686
v 0.000649 -0.000669 0.012676
v 0.000644 -0.000671 -0.012667
v 0.000638 -0.000673 0.012658
v 0.000638 -0.000673 -0.012658
v 0.000634 -0.000674 -0.012653
v 0.000633 -0.000675 0.012652
v 0.000631 -0.000675 -0.012651
v 0.000629 -0.000675 0.012649
v 0.000628 -0.000675 -0.012649
v 0.000626 -0.000676 0.012648
v 0.000625 -0.000676 -0.012648
v 0.000624 -0.000676 0.012647
v 0.000622 -0.000676 -0.012647
v 0.000622 -0.000676 0.012647
v -0.000622 -0.000676 -0.012647
v -0.000633 -0.000675 -0.012652
v -0.000638 -0.000673 -0.012658
v -0.000629 -0.000675 -0.012649
v -0.000626 -0.000676 -0.012648
v -0.000624 -0.000676 -0.012647
v -0.000649 -0.000669 -0.012676
v -0.000660 -0.000660 -0.012710
v 0.000405 -0.000405 -0.013728
v -0.000405 -0.000405 -0.013728
v -0.000622 -0.000676 0.012647
v -0.000628 -0.000675 0.012649
v -0.000625 -0.000676 0.012648
v -0.000631 -0.000675 0.012651
v -0.000634 -0.000674 0.012653
v -0.000638 -0.000673 0.012658
v -0.000644 -0.000671 0.012667
v -0.000653 -0.000666 0.012686
v -0.000660 -0.000660 0.012710
v 0.000405 -0.000405 0.013728
v -0.000405 -0.000405 0.013728
v -0.000676 0.000624 -0.012647
v -0.000676 0.000622 -0.012647
v -0.000676 0.000622 0.012647
v -0.000676 0.000625 0.012648
v -0.000676 0.000626 -0.012648
v -0.000675 0.000628 0.012649
v -0.000675 0.000629 -0.012649
v -0.000675 0.000631 0.012651
v -0.000675 0.000633 -0.012652
v -0.000674 0.000634 0.012653
v -0.000673 0.000638 -0.012658
v -0.000673 0.000638 0.012658
v -0.000671 0.000644 0.012667
v -0.000669 0.000649 -0.012676
v -0.000666 0.000653 0.012686
v -0.000676 -0.000624 0.012647
v -0.000676 -0.000622 0.012647
v -0.000676 -0.000622 -0.012647
v -0.000676 -0.000625 -0.012648
v -0.000676 -0.000626 0.012648
v -0.000675 -0.000628 -0.012649
v -0.000675 -0.000629 0.012649
v -0.000675 -0.000631 -0.012651
v -0.000675 -0.000633 0.012652
v -0.000674 -0.000634 -0.012653
v -0.000673 -0.000638 0.012658
v -0.000673 -0.000638 -0.012658
v -0.000671 -0.000644 -0.012667
v -0.000669 -0.000649 0.012676
v -0.000666 -0.000653 -0.012686
vn 0.9996 0.0288 0.0000
vn 0.9997 0.0234 0.0000
vn 0.9998 0.0223 0.0000
vn 0.9996 0.0278 0.0000
vn 0.9960 0.0896 -0.0000
vn 0.9978 0.0657 -0.0000
vn 0.9892 0.1467 0.0000
vn 0.9936 0.1132 -0.0000
vn 0.9794 0.2020 -0.0000
vn 0.9841 0.1778 -0.0000
vn 0.9630 0.2694 0.0000
vn 0.9650 0.2623 -0.0000
vn 0.9626 0.2709 0.0000
vn 0.9313 0.3642 0.0000
vn 0.9653 0.2613 -0.0000
vn 0.8673 0.4977 -0.0000
vn 0.9143 0.4050 -0.0000
vn 0.7665 0.6423 0.0000
vn 0.7933 0.6088 0.0000
vn 0.6086 0.7934 -0.0000
vn 0.6419 0.7668 0.0000
vn 0.4056 0.9141 -0.0000
vn 0.4973 0.8676 0.0000
vn 0.3645 0.9312 -0.0000
vn 0.2630 0.9648 0.0000
vn 0.2679 0.9634 0.0000
vn 0.2596 0.9657 -0.0000
vn 0.2713 0.9625 0.0000
vn 0.1754 0.9845 -0.0000
vn 0.2045 0.9789 0.0000
vn 0.1119 0.9937 -0.0000
vn 0.1470 0.9891 0.0000
vn 0.0633 0.9980 -0.0000
vn 0.0883 0.9961 0.0000
vn 0.0236 0.9997 -0.0000
vn 0.0270 0.9996 -0.0000
vn 0.0215 0.9998 0.0000
vn 0.0294 0.9996 0.0000
vn -0.0000 0.9702 0.2425
vn 0.0001 0.9701 0.2428
vn -0.0001 0.9702 0.2425
vn 0.0000 0.9700 0.2433
vn -0.0003 0.9700 0.2429
vn -0.0002 0.9702 0.2422
vn -0.0000 0.9701 0.2425
vn -0.0004 0.9703 0.2418
vn -0.0003 0.9702 0.2425
vn 0.0002 0.9702 0.2424
vn 0.0001 0.9702 0.2422
vn -0.0001 0.9701 0.2425
vn -0.0001 0.9701 0.2426
vn 0.0000 1.0000 0.0000
vn 0.0000 0.9701 -0.2425
vn -0.0001 0.9700 -0.2431
vn 0.0006 0.9701 -0.2428
vn 0.0002 0.9701 -0.2428
vn -0.0002 0.9702 -0.2422
vn 0.0001 0.9701 -0.2426
vn -0.0001 0.9702 -0.2425
vn 0.0000 0.9702 -0.2425
vn 0.0002 0.9701 -0.2429
vn 0.0004 0.9712 -0.2382
vn 0.0001 0.9702 -0.2421
vn 0.0001 0.9702 -0.2425
vn 0.0000 0.9701 -0.2426
vn 0.9996 -0.0288 -0.0000
vn 0.9997 -0.0234 -0.0000
vn 0.9998 -0.0215 -0.0000
vn 0.9997 -0.0264 -0.0000
vn 0.9960 -0.0896 0.0000
vn 0.9978 -0.0657 0.0000
vn 0.9890 -0.1482 0.0000
vn 0.9940 -0.1096 0.0000
vn 0.9790 -0.2038 0.0000
vn 0.9841 -0.1778 -0.0000
vn 0.9634 -0.2679 0.0000
vn 0.9651 -0.2620 0.0000
vn 0.9628 -0.2702 -0.0000
vn 0.9311 -0.3647 -0.0000
vn 0.9658 -0.2591 -0.0000
vn 0.8673 -0.4977 0.0000
vn 0.9143 -0.4050 0.0000
vn 0.7663 -0.6424 -0.0000
vn 0.7932 -0.6089 -0.0000
vn 0.6087 -0.7934 0.0000
vn 0.6420 -0.7667 -0.0000
vn 0.4050 -0.9143 -0.0000
vn 0.4973 -0.8676 -0.0000
vn 0.3645 -0.9312 0.0000
vn 0.2630 -0.9648 -0.0000
vn 0.2678 -0.9635 0.0000
vn 0.2593 -0.9658 0.0000
vn 0.2713 -0.9625 -0.0000
vn 0.1754 -0.9845 0.0000
vn 0.2051 -0.9787 -0.0000
vn 0.1119 -0.9937 0.0000
vn 0.1464 -0.9892 -0.0000
vn 0.0633 -0.9980 0.0000
vn 0.0880 -0.9961 0.0000
vn 0.0236 -0.9997 0.0000
vn 0.0272 -0.9996 0.0000
vn 0.0215 -0.9998 -0.0000
vn 0.0294 -0.9996 -0.0000
vn -0.0000 -0.9701 -0.2425
vn -0.0000 -0.9701 -0.2426
vn -0.0001 -0.9702 -0.2421
vn -0.0001 -0.9702 -0.2425
vn 0.0001 -0.9699 -0.2434
vn -0.0007 -0.9701 -0.2426
vn -0.0001 -0.9701 -0.2428
vn -0.0007 -0.9710 -0.2392
vn -0.0004 -0.9699 -0.2436
vn 0.0001 -0.9702 -0.2423
vn 0.0002 -0.9700 -0.2429
vn -0.0001 -0.9701 -0.2426
vn 0.0000 -1.0000 -0.0000
vn 0.0000 -0.9701 0.2426
vn -0.0002 -0.9702 0.2421
vn 0.0004 -0.9706 0.2407
vn 0.0004 -0.9700 0.2433
vn 0.0000 -0.9703 0.2419
vn 0.0000 -0.9701 0.2425
vn -0.0005 -0.9702 0.2422
vn -0.0000 -0.9700 0.2430
vn 0.0001 -0.9697 0.2444
vn 0.0002 -0.9704 0.2415
vn 0.0004 -0.9704 0.2416
vn 0.0000 -0.9702 0.2425
vn -0.0001 -0.9702 0.2425
vn -0.9997 0.0255 -0.0000
vn -0.9998 0.0188 0.0000
vn -0.9997 0.0243 -0.0000
vn -0.9995 0.0300 0.0000
vn -0.9960 0.0891 -0.0000
vn -0.9981 0.0624 -0.0000
vn -0.9899 0.1421 -0.0000
vn -0.9933 0.1157 -0.0000
vn -0.9787 0.2052 0.0000
vn -0.9845 0.1755 -0.0000
vn -0.9634 0.2679 -0.0000
vn -0.9649 0.2625 0.0000
vn -0.9626 0.2711 -0.0000
vn -0.9308 0.3654 -0.0000
vn -0.9657 0.2595 -0.0000
vn -0.8678 0.4969 0.0000
vn -0.9141 0.4055 -0.0000
vn -0.7670 0.6416 0.0000
vn -0.7934 0.6086 -0.0000
vn -0.6087 0.7934 0.0000
vn -0.6422 0.7665 0.0000
vn -0.4054 0.9142 0.0000
vn -0.4975 0.8675 -0.0000
vn -0.4971 0.8677 -0.0000
vn -0.3645 0.9312 0.0000
vn -0.2625 0.9649 -0.0000
vn -0.2682 0.9634 -0.0000
vn -0.2596 0.9657 0.0000
vn -0.2715 0.9624 0.0000
vn -0.1755 0.9845 0.0000
vn -0.2044 0.9789 -0.0000
vn -0.1118 0.9937 0.0000
vn -0.1467 0.9892 0.0000
vn -0.0634 0.9980 0.0000
vn -0.0882 0.9961 -0.0000
vn -0.0235 0.9997 0.0000
vn -0.0270 0.9996 0.0000
vn -0.0215 0.9998 0.0000
vn -0.0291 0.9996 0.0000
vn -0.9999 -0.0161 -0.0000
vn -0.9999 -0.0139 -0.0000
vn -0.9997 -0.0253 0.0000
vn -0.9995 -0.0325 -0.0000
vn -0.9960 -0.0897 -0.0000
vn -0.9981 -0.0624 0.0000
vn -0.9897 -0.1434 0.0000
vn -0.9936 -0.1126 0.0000
vn -0.9784 -0.2068 0.0000
vn -0.9845 -0.1754 0.0000
vn -0.9634 -0.2679 0.0000
vn -0.9650 -0.2623 0.0000
vn -0.9627 -0.2707 -0.0000
vn -0.9306 -0.3660 -0.0000
vn -0.9657 -0.2595 0.0000
vn -0.8680 -0.4966 -0.0000
vn -0.9141 -0.4055 0.0000
vn -0.7669 -0.6417 -0.0000
vn -0.7929 -0.6094 -0.0000
vn -0.6088 -0.7933 -0.0000
vn -0.6420 -0.7667 -0.0000
vn -0.4054 -0.9142 -0.0000
vn -0.4971 -0.8677 0.0000
vn -0.3645 -0.9312 -0.0000
vn -0.2625 -0.9649 0.0000
vn -0.2685 -0.9633 0.0000
vn -0.2601 -0.9656 0.0000
vn -0.2715 -0.9624 -0.0000
vn -0.1755 -0.9845 -0.0000
vn -0.2046 -0.9788 -0.0000
vn -0.1122 -0.9937 -0.0000
vn -0.1469 -0.9892 -0.0000
vn -0.0634 -0.9980 -0.0000
vn -0.0882 -0.9961 0.0000
vn -0.0235 -0.9997 -0.0000
vn -0.0272 -0.9996 -0.0000
vn -0.0215 -0.9998 -0.0000
vn -0.0294 -0.9996 0.0000
vn 0.9704 -0.0004 -0.2416
vn 0.9702 0.0022 -0.2423
vn 0.9701 0.0001 -0.2425
vn 0.9706 0.0004 -0.2406
vn 0.9702 -0.0040 -0.2424
vn 0.9683 -0.0002 -0.2497
vn 0.9701 -0.0000 -0.2427
vn 0.9701 0.0000 -0.2426
vn 0.9697 0.0006 -0.2444
vn 0.9688 -0.0065 -0.2479
vn 0.9699 -0.0016 -0.2435
vn 0.9708 -0.0003 -0.2401
vn 0.9704 0.0023 -0.2417
vn 0.9702 0.0001 -0.2422
vn 0.9702 0.0002 -0.2424
vn 0.9701 -0.0006 -0.2427
vn 0.9701 -0.0000 -0.2425
vn 0.0000 0.0000 -1.0000
vn -0.9701 0.0000 -0.2426
vn -0.9702 0.0002 -0.2423
vn -0.9700 0.0000 -0.2432
vn -0.9700 -0.0021 -0.2431
vn -0.9699 0.0002 -0.2436
vn -0.9702 0.0010 -0.2424
vn -0.9702 -0.0006 -0.2424
vn -0.9702 -0.0001 -0.2424
vn -0.9702 -0.0000 -0.2425
vn -0.9701 0.0000 -0.2425
vn -0.9709 0.0010 -0.2397
vn -0.9711 0.0015 -0.2388
vn -0.9708 0.0066 -0.2397
vn -0.9694 -0.0019 -0.2454
vn -0.9702 -0.0009 -0.2424
vn -0.9702 0.0016 -0.2424
vn -1.0000 0.0000 0.0000
vn 0.0000 0.0000 1.0000
vn -0.9709 -0.0002 0.2394
vn -0.9703 -0.0017 0.2420
vn -0.9702 -0.0001 0.2425
vn -0.9693 0.0017 0.2459
vn -0.9708 -0.0038 0.2400
vn -0.9727 0.0028 0.2319
vn -0.9701 0.0003 0.2426
vn -0.9701 -0.0000 0.2425
vn -0.9701 -0.0000 0.2427
vn -0.9705 0.0037 0.2411
vn -0.9701 0.0005 0.2426
vn -0.9700 -0.0012 0.2431
vn -0.9699 0.0015 0.2435
vn -0.9701 -0.0002 0.2428
vn -0.9702 0.0002 0.2422
vn -0.9702 0.0004 0.2423
vn -0.9702 0.0000 0.2425
vn 0.9701 0.0000 0.2428
vn 0.9696 -0.0008 0.2445
vn 0.9692 0.0044 0.2463
vn 0.9706 -0.0008 0.2409
vn 0.9704 -0.0005 0.2415
vn 0.9701 -0.0011 0.2426
vn 0.9702 0.0005 0.2425
vn 0.9701 0.0001 0.2426
vn 0.9701 0.0000 0.2425
vn 0.9701 -0.0000 0.2426
vn 0.9704 -0.0001 0.2413
vn 0.9701 0.0002 0.2426
vn 0.9696 0.0037 0.2447
vn 0.9704 -0.0046 0.2416
vn 0.9707 -0.0004 0.2404
vn 0.9702 -0.0001 0.2425
vn 0.9702 -0.0015 0.2422
vn 1.0000 0.0000 0.0000
usemtl material_1.348
s 1
f 1//1 2//2 3//3
f 1//1 3//3 4//4
f 5//5 4//5 6//5
f 5//6 1//6 4//6
f 7//7 6//7 8//7
f 7//8 5//8 6//8
f 9//9 8//9 10//9
f 9//10 7//10 8//10
f 11//11 10//12 12//13
f 11//14 12//14 13//14
f 11//11 9//15 10//12
f 14//16 13//16 15//16
f 14//17 11//17 13//17
f 16//18 15//18 17//18
f 16//19 14//19 15//19
f 18//20 17//20 19//20
f 18//21 16//21 17//21
f 20//22 19//22 21//22
f 20//23 18//23 19//23
f 22//24 20//24 21//24
f 23//25 21//26 24//27
f 23//25 22//28 21//26
f 25//29 24//29 26//29
f 25//30 23//30 24//30
f 27//31 26//31 28//31
f 27//32 25//32 26//32
f 29//33 28//33 30//33
f 29//34 27//34 28//34
f 31//35 30//36 32//37
f 31//35 29//38 30//36
usemtl material_0.354
f 33//39 34//40 35//41
f 33//39 36//42 34//40
f 33//39 37//43 36//42
f 33//39 38//44 37//43
f 39//41 33//39 35//41
f 40//45 33//39 39//41
f 27//46 29//47 31//45
f 25//48 27//46 31//45
f 23//49 25//48 31//45
f 22//50 23//49 31//45
f 20//51 22//50 31//45
f 18//48 20//51 31//45
f 16//45 31//45 33//39
f 16//45 33//39 40//45
f 16//45 18//48 31//45
f 41//45 40//45 42//45
f 41//45 16//45 40//45
f 31//52 32//52 43//52
f 31//52 43//52 33//52
f 43//53 44//54 45//55
f 43//53 46//56 44//54
f 43//53 47//57 46//56
f 43//53 48//53 47//57
f 43//53 49//58 48//53
f 43//53 50//59 49//58
f 43//53 51//53 50//59
f 17//53 52//53 53//53
f 17//53 53//53 51//53
f 32//60 19//60 17//53
f 32//60 51//53 43//53
f 32//60 17//53 51//53
f 28//61 32//60 30//62
f 26//63 32//60 28//61
f 21//64 19//60 32//60
f 24//65 21//64 32//60
f 24//65 32//60 26//63
f 54//66 55//67 56//68
f 54//66 56//68 57//69
f 58//70 57//70 59//70
f 58//71 54//71 57//71
f 60//72 59//72 61//72
f 60//73 58//73 59//73
f 62//74 61//74 63//74
f 62//75 60//75 61//75
f 64//76 63//77 65//78
f 64//79 65//79 66//79
f 64//76 62//80 63//77
f 67//81 66//81 68//81
f 67//82 64//82 66//82
f 69//83 68//83 70//83
f 69//84 67//84 68//84
f 71//85 70//85 72//85
f 71//86 69//86 70//86
f 73//87 72//87 74//87
f 73//88 71//88 72//88
f 75//89 73//89 74//89
f 76//90 74//91 77//92
f 76//90 75//93 74//91
f 78//94 77//94 79//94
f 78//95 76//95 77//95
f 80//96 79//96 81//96
f 80//97 78//97 79//97
f 82//98 81//98 83//98
f 82//99 80//99 81//99
f 84//100 83//101 85//102
f 84//100 82//103 83//101
f 86//104 87//105 88//106
f 86//104 89//107 87//105
f 86//104 90//108 89//107
f 86//104 91//109 90//108
f 92//105 86//104 88//106
f 93//104 86//104 92//105
f 80//110 82//111 84//105
f 78//112 80//110 84//105
f 76//113 78//112 84//105
f 75//114 76//113 84//105
f 73//115 75//114 84//105
f 71//105 73//115 84//105
f 69//104 84//105 86//104
f 69//104 86//104 93//104
f 69//104 71//105 84//105
f 94//104 93//104 95//104
f 94//104 69//104 93//104
f 84//116 85//116 96//116
f 84//116 96//116 86//116
f 96//117 97//118 98//119
f 96//117 99//120 97//118
f 96//117 100//121 99//120
f 96//117 101//122 100//121
f 96//117 102//123 101//122
f 96//117 103//117 102//123
f 96//117 104//122 103//117
f 70//122 105//122 106//122
f 70//122 106//122 104//122
f 85//124 72//117 70//122
f 85//124 104//122 96//117
f 85//124 70//122 104//122
f 81//125 85//124 83//126
f 79//127 85//124 81//125
f 74//128 72//117 85//124
f 77//129 74//128 85//124
f 77//129 85//124 79//127
f 107//130 108//131 109//132
f 107//130 109//132 110//133
f 111//134 110//134 112//134
f 111//135 107//135 110//135
f 113//136 112//136 114//136
f 113//137 111//137 112//137
f 115//138 114//138 116//138
f 115//139 113//139 114//139
f 117//140 116//141 118//142
f 117//143 118//143 119//143
f 117//140 115//144 116//141
f 120//145 119//145 121//145
f 120//146 117//146 119//146
f 51//147 121//147 40//147
f 51//148 120//148 121//148
f 50//149 40//149 39//149
f 50//150 51//150 40//150
f 49//151 39//151 35//151
f 49//152 50//153 39//153
f 48//154 49//154 35//154
f 47//155 35//156 34//157
f 47//155 48//158 35//156
f 46//159 34//159 36//159
f 46//160 47//160 34//160
f 44//161 36//161 37//161
f 44//162 46//162 36//162
f 45//163 37//163 38//163
f 45//164 44//164 37//164
f 43//165 38//166 33//167
f 43//165 45//168 38//166
f 122//169 123//170 124//171
f 122//169 124//171 125//172
f 126//173 125//173 127//173
f 126//174 122//174 125//174
f 128//175 127//175 129//175
f 128//176 126//176 127//176
f 130//177 129//177 131//177
f 130//178 128//178 129//178
f 132//179 131//180 133//181
f 132//182 133//182 134//182
f 132//179 130//183 131//180
f 135//184 134//184 136//184
f 135//185 132//185 134//185
f 104//186 136//186 93//186
f 104//187 135//187 136//187
f 103//188 93//188 92//188
f 103//189 104//189 93//189
f 102//190 92//190 88//190
f 102//191 103//191 92//191
f 101//192 102//192 88//192
f 100//193 88//194 87//195
f 100//193 101//196 88//194
f 99//197 87//197 89//197
f 99//198 100//198 87//198
f 97//199 89//199 90//199
f 97//200 99//200 89//200
f 98//201 90//201 91//201
f 98//202 97//202 90//202
f 96//203 91//204 86//205
f 96//203 98//206 91//204
f 55//207 62//208 64//209
f 55//207 60//210 62//208
f 55//207 58//211 60//210
f 55//207 54//212 58//211
f 67//213 55//207 64//209
f 69//214 55//207 67//213
f 6//215 4//216 3//217
f 8//218 6//215 3//217
f 10//219 8//218 3//217
f 12//220 10//219 3//217
f 13//221 12//220 3//217
f 15//222 13//221 3//217
f 17//223 3//217 55//207
f 17//223 55//207 69//214
f 17//223 15//222 3//217
f 52//223 69//214 94//223
f 52//223 17//223 69//214
f 52//224 94//224 95//224
f 52//224 95//224 53//224
f 124//225 127//226 125//227
f 124//225 129//228 127//226
f 124//225 131//229 129//228
f 124//225 133//230 131//229
f 124//225 134//231 133//230
f 124//225 136//232 134//231
f 124//225 93//233 136//232
f 51//234 53//234 95//234
f 51//234 95//234 93//233
f 108//235 120//233 51//234
f 108//235 93//233 124//225
f 108//235 51//234 93//233
f 111//236 108//235 107//237
f 113//238 108//235 111//236
f 117//239 120//233 108//235
f 115//240 117//239 108//235
f 115//240 108//235 113//238
f 109//241 108//241 124//241
f 109//241 124//241 123//241
f 105//242 41//242 42//242
f 105//242 42//242 106//242
f 123//243 130//244 132//245
f 123//243 128//246 130//244
f 123//243 126//247 128//246
f 123//243 122//248 126//247
f 135//249 123//243 132//245
f 104//250 123//243 135//249
f 112//251 110//252 109//253
f 114//254 112//251 109//253
f 116//255 114//254 109//253
f 118//256 116//255 109//253
f 119//257 118//256 109//253
f 121//258 119//257 109//253
f 40//259 109//253 123//243
f 40//259 104//250 106//250
f 40//259 123//243 104//250
f 40//259 121//258 109//253
f 42//250 40//259 106//250
f 56//260 59//261 57//262
f 56//260 61//263 59//261
f 56//260 63//264 61//263
f 56//260 65//265 63//264
f 56//260 66//266 65//265
f 56//260 68//267 66//266
f 56//260 70//268 68//267
f 16//269 41//268 105//268
f 16//269 105//268 70//268
f 16//269 70//268 56//260
f 2//270 14//271 16//269
f 2//270 16//269 56//260
f 5//272 2//270 1//273
f 7//274 2//270 5//272
f 11//275 14//271 2//270
f 9//276 11//275 2//270
f 9//276 2//270 7//274
f 3//277 2//277 56//277
f 3//277 56//277 55//277
