# Blender v2.81 (sub 16) OBJ File: ''
# www.blender.org
mtllib 48-Pin Shrouded Header (IDC) Straight.mtl
o 48-Pin_Shrouded_Header_(IDC)_Straight
v 0.000368 0.000340 0.006886
v 0.000368 0.000338 0.006886
v 0.000368 0.000338 -0.006886
v 0.000368 0.000340 -0.006886
v 0.000368 0.000341 0.006886
v 0.000368 0.000342 -0.006887
v 0.000368 0.000343 0.006887
v 0.000367 0.000344 -0.006888
v 0.000367 0.000345 0.006888
v 0.000367 0.000345 -0.006889
v 0.000367 0.000348 0.006891
v 0.000366 0.000348 -0.006892
v 0.000365 0.000351 -0.006897
v 0.000364 0.000353 0.006902
v 0.000363 0.000355 -0.006907
v 0.000359 0.000359 0.006920
v 0.000359 0.000359 -0.006920
v 0.000355 0.000363 0.006907
v 0.000353 0.000364 -0.006902
v 0.000351 0.000365 0.006897
v 0.000348 0.000367 -0.006891
v 0.000348 0.000366 0.006892
v 0.000345 0.000367 0.006889
v 0.000345 0.000367 -0.006888
v 0.000344 0.000367 0.006888
v 0.000343 0.000368 -0.006887
v 0.000342 0.000368 0.006887
v 0.000341 0.000368 -0.006886
v 0.000340 0.000368 0.006886
v 0.000340 0.000368 -0.006886
v 0.000338 0.000368 0.006886
v 0.000338 0.000368 -0.006886
v -0.000338 0.000368 0.006886
v -0.000345 0.000367 0.006888
v -0.000348 0.000367 0.006891
v -0.000343 0.000368 0.006887
v -0.000341 0.000368 0.006886
v -0.000340 0.000368 0.006886
v -0.000353 0.000364 0.006902
v -0.000359 0.000359 0.006920
v 0.000221 0.000221 0.007475
v -0.000221 0.000221 0.007475
v -0.000338 0.000368 -0.006886
v -0.000342 0.000368 -0.006887
v -0.000340 0.000368 -0.006886
v -0.000344 0.000367 -0.006888
v -0.000345 0.000367 -0.006889
v -0.000348 0.000366 -0.006892
v -0.000351 0.000365 -0.006897
v -0.000355 0.000363 -0.006907
v -0.000359 0.000359 -0.006920
v 0.000221 0.000221 -0.007475
v -0.000221 0.000221 -0.007475
v 0.000368 -0.000340 -0.006886
v 0.000368 -0.000338 -0.006886
v 0.000368 -0.000338 0.006886
v 0.000368 -0.000340 0.006886
v 0.000368 -0.000341 -0.006886
v 0.000368 -0.000342 0.006887
v 0.000368 -0.000343 -0.006887
v 0.000367 -0.000344 0.006888
v 0.000367 -0.000345 -0.006888
v 0.000367 -0.000345 0.006889
v 0.000367 -0.000348 -0.006891
v 0.000366 -0.000348 0.006892
v 0.000365 -0.000351 0.006897
v 0.000364 -0.000353 -0.006902
v 0.000363 -0.000355 0.006907
v 0.000359 -0.000359 -0.006920
v 0.000359 -0.000359 0.006920
v 0.000355 -0.000363 -0.006907
v 0.000353 -0.000364 0.006902
v 0.000351 -0.000365 -0.006897
v 0.000348 -0.000367 0.006891
v 0.000348 -0.000366 -0.006892
v 0.000345 -0.000367 -0.006889
v 0.000345 -0.000367 0.006888
v 0.000344 -0.000367 -0.006888
v 0.000343 -0.000368 0.006887
v 0.000342 -0.000368 -0.006887
v 0.000341 -0.000368 0.006886
v 0.000340 -0.000368 -0.006886
v 0.000340 -0.000368 0.006886
v 0.000338 -0.000368 -0.006886
v 0.000338 -0.000368 0.006886
v -0.000338 -0.000368 -0.006886
v -0.000345 -0.000367 -0.006888
v -0.000348 -0.000367 -0.006891
v -0.000343 -0.000368 -0.006887
v -0.000341 -0.000368 -0.006886
v -0.000340 -0.000368 -0.006886
v -0.000353 -0.000364 -0.006902
v -0.000359 -0.000359 -0.006920
v 0.000221 -0.000221 -0.007475
v -0.000221 -0.000221 -0.007475
v -0.000338 -0.000368 0.006886
v -0.000342 -0.000368 0.006887
v -0.000340 -0.000368 0.006886
v -0.000344 -0.000367 0.006888
v -0.000345 -0.000367 0.006889
v -0.000348 -0.000366 0.006892
v -0.000351 -0.000365 0.006897
v -0.000355 -0.000363 0.006907
v -0.000359 -0.000359 0.006920
v 0.000221 -0.000221 0.007475
v -0.000221 -0.000221 0.007475
v -0.000368 0.000340 -0.006886
v -0.000368 0.000338 -0.006886
v -0.000368 0.000338 0.006886
v -0.000368 0.000340 0.006886
v -0.000368 0.000341 -0.006886
v -0.000368 0.000342 0.006887
v -0.000368 0.000343 -0.006887
v -0.000367 0.000344 0.006888
v -0.000367 0.000345 -0.006888
v -0.000367 0.000345 0.006889
v -0.000367 0.000348 -0.006891
v -0.000366 0.000348 0.006892
v -0.000365 0.000351 0.006897
v -0.000364 0.000353 -0.006902
v -0.000363 0.000355 0.006907
v -0.000368 -0.000340 0.006886
v -0.000368 -0.000338 0.006886
v -0.000368 -0.000338 -0.006886
v -0.000368 -0.000340 -0.006886
v -0.000368 -0.000341 0.006886
v -0.000368 -0.000342 -0.006887
v -0.000368 -0.000343 0.006887
v -0.000367 -0.000344 -0.006888
v -0.000367 -0.000345 0.006888
v -0.000367 -0.000345 -0.006889
v -0.000367 -0.000348 0.006891
v -0.000366 -0.000348 -0.006892
v -0.000365 -0.000351 -0.006897
v -0.000364 -0.000353 0.006902
v -0.000363 -0.000355 -0.006907
vn 0.9996 0.0278 -0.0000
vn 0.9997 0.0236 -0.0000
vn 0.9998 0.0192 0.0000
vn 0.9997 0.0233 -0.0000
vn 0.9967 0.0812 -0.0000
vn 0.9980 0.0634 0.0000
vn 0.9896 0.1436 -0.0000
vn 0.9921 0.1257 -0.0000
vn 0.9794 0.2021 -0.0000
vn 0.9845 0.1755 0.0000
vn 0.9628 0.2702 -0.0000
vn 0.9647 0.2632 0.0000
vn 0.9621 0.2727 -0.0000
vn 0.9316 0.3636 0.0000
vn 0.9651 0.2618 -0.0000
vn 0.8671 0.4981 -0.0000
vn 0.9142 0.4052 -0.0000
vn 0.7665 0.6423 0.0000
vn 0.7934 0.6086 0.0000
vn 0.6092 0.7930 0.0000
vn 0.6415 0.7671 0.0000
vn 0.4051 0.9143 0.0000
vn 0.4974 0.8675 0.0000
vn 0.3645 0.9312 -0.0000
vn 0.2639 0.9645 0.0000
vn 0.2675 0.9636 0.0000
vn 0.2588 0.9659 -0.0000
vn 0.2729 0.9620 -0.0000
vn 0.1753 0.9845 -0.0000
vn 0.2039 0.9790 0.0000
vn 0.1120 0.9937 -0.0000
vn 0.1465 0.9892 -0.0000
vn 0.0627 0.9980 0.0000
vn 0.0884 0.9961 0.0000
vn 0.0236 0.9997 0.0000
vn 0.0272 0.9996 0.0000
vn 0.0215 0.9998 0.0000
vn 0.0294 0.9996 0.0000
vn 0.0000 0.9700 0.2431
vn 0.0001 0.9698 0.2437
vn -0.0000 0.9702 0.2425
vn -0.0005 0.9702 0.2424
vn 0.0006 0.9704 0.2414
vn -0.0004 0.9697 0.2444
vn -0.0000 0.9701 0.2425
vn 0.0001 0.9706 0.2406
vn -0.0001 0.9708 0.2400
vn -0.0001 0.9703 0.2420
vn 0.0002 0.9702 0.2422
vn 0.0000 0.9700 0.2432
vn -0.0001 0.9701 0.2426
vn -0.0000 0.9703 0.2420
vn 0.0000 1.0000 0.0000
vn -0.0000 0.9701 -0.2425
vn -0.0000 0.9702 -0.2424
vn -0.0002 0.9703 -0.2418
vn -0.0002 0.9702 -0.2422
vn 0.0001 0.9698 -0.2440
vn -0.0001 0.9702 -0.2425
vn 0.0001 0.9701 -0.2426
vn 0.0000 0.9702 -0.2425
vn -0.0001 0.9695 -0.2449
vn 0.0004 0.9709 -0.2395
vn 0.0002 0.9702 -0.2421
vn -0.0002 0.9704 -0.2416
vn 0.9993 -0.0369 0.0000
vn 0.9995 -0.0330 0.0000
vn 0.9999 -0.0167 -0.0000
vn 0.9998 -0.0206 -0.0000
vn 0.9966 -0.0826 0.0000
vn 0.9980 -0.0634 -0.0000
vn 0.9893 -0.1458 -0.0000
vn 0.9921 -0.1257 0.0000
vn 0.9785 -0.2064 0.0000
vn 0.9845 -0.1755 -0.0000
vn 0.9636 -0.2673 0.0000
vn 0.9649 -0.2626 -0.0000
vn 0.9624 -0.2718 0.0000
vn 0.9316 -0.3636 -0.0000
vn 0.9661 -0.2582 -0.0000
vn 0.8673 -0.4978 0.0000
vn 0.9140 -0.4058 -0.0000
vn 0.7670 -0.6416 -0.0000
vn 0.7934 -0.6086 -0.0000
vn 0.6092 -0.7930 -0.0000
vn 0.6427 -0.7661 -0.0000
vn 0.4055 -0.9141 0.0000
vn 0.4974 -0.8675 -0.0000
vn 0.3645 -0.9312 0.0000
vn 0.2639 -0.9645 -0.0000
vn 0.2680 -0.9634 0.0000
vn 0.2596 -0.9657 0.0000
vn 0.2729 -0.9620 0.0000
vn 0.1753 -0.9845 0.0000
vn 0.2038 -0.9790 -0.0000
vn 0.1120 -0.9937 0.0000
vn 0.1465 -0.9892 0.0000
vn 0.0629 -0.9980 -0.0000
vn 0.0884 -0.9961 -0.0000
vn 0.0235 -0.9997 -0.0000
vn 0.0273 -0.9996 -0.0000
vn 0.0215 -0.9998 -0.0000
vn 0.0294 -0.9996 -0.0000
vn -0.0000 -0.9702 -0.2424
vn 0.0001 -0.9698 -0.2438
vn -0.0000 -0.9702 -0.2425
vn -0.0001 -0.9701 -0.2426
vn 0.0002 -0.9705 -0.2412
vn -0.0003 -0.9698 -0.2440
vn -0.0000 -0.9701 -0.2425
vn -0.0001 -0.9699 -0.2434
vn 0.0002 -0.9704 -0.2417
vn 0.0002 -0.9702 -0.2422
vn 0.0002 -0.9702 -0.2421
vn 0.0001 -0.9700 -0.2430
vn 0.0001 -0.9702 -0.2425
vn 0.0000 -1.0000 -0.0000
vn -0.0000 -0.9701 0.2425
vn -0.0000 -0.9706 0.2405
vn 0.0003 -0.9697 0.2442
vn -0.0001 -0.9701 0.2425
vn -0.0000 -0.9700 0.2432
vn -0.0001 -0.9702 0.2425
vn 0.0001 -0.9701 0.2426
vn 0.0001 -0.9700 0.2429
vn 0.0000 -0.9702 0.2424
vn 0.0000 -0.9702 0.2425
vn -0.0004 -0.9695 0.2451
vn 0.0003 -0.9703 0.2418
vn 0.0005 -0.9703 0.2421
vn -0.0001 -0.9701 0.2428
vn -0.9996 0.0277 0.0000
vn -0.9997 0.0235 0.0000
vn -0.9997 0.0247 -0.0000
vn -0.9995 0.0309 -0.0000
vn -0.9952 0.0976 0.0000
vn -0.9957 0.0926 -0.0000
vn -0.9948 0.1014 -0.0000
vn -0.9981 0.0610 0.0000
vn -0.9885 0.1511 0.0000
vn -0.9944 0.1060 -0.0000
vn -0.9788 0.2049 -0.0000
vn -0.9855 0.1699 0.0000
vn -0.9628 0.2702 -0.0000
vn -0.9649 0.2627 -0.0000
vn -0.9623 0.2718 0.0000
vn -0.9329 0.3601 -0.0000
vn -0.9652 0.2617 0.0000
vn -0.8677 0.4970 -0.0000
vn -0.9134 0.4070 0.0000
vn -0.7670 0.6416 0.0000
vn -0.7934 0.6086 -0.0000
vn -0.6083 0.7937 0.0000
vn -0.6415 0.7671 0.0000
vn -0.4056 0.9141 0.0000
vn -0.4971 0.8677 -0.0000
vn -0.3645 0.9312 0.0000
vn -0.2630 0.9648 -0.0000
vn -0.2687 0.9632 0.0000
vn -0.2604 0.9655 0.0000
vn -0.2713 0.9625 -0.0000
vn -0.1753 0.9845 0.0000
vn -0.2039 0.9790 -0.0000
vn -0.1115 0.9938 0.0000
vn -0.1478 0.9890 0.0000
vn -0.0633 0.9980 0.0000
vn -0.0884 0.9961 -0.0000
vn -0.0236 0.9997 -0.0000
vn -0.0269 0.9996 -0.0000
vn -0.0215 0.9998 0.0000
vn -0.0294 0.9996 -0.0000
vn -0.9999 -0.0160 0.0000
vn -0.9999 -0.0140 0.0000
vn -0.9995 -0.0331 -0.0000
vn -0.9994 -0.0352 -0.0000
vn -0.9951 -0.0984 -0.0000
vn -0.9956 -0.0939 0.0000
vn -0.9948 -0.1016 0.0000
vn -0.9981 -0.0610 -0.0000
vn -0.9881 -0.1537 0.0000
vn -0.9944 -0.1060 0.0000
vn -0.9779 -0.2091 -0.0000
vn -0.9855 -0.1699 -0.0000
vn -0.9628 -0.2702 -0.0000
vn -0.9650 -0.2622 0.0000
vn -0.9626 -0.2710 0.0000
vn -0.9327 -0.3607 0.0000
vn -0.9651 -0.2618 -0.0000
vn -0.8677 -0.4970 0.0000
vn -0.9134 -0.4070 -0.0000
vn -0.7670 -0.6416 -0.0000
vn -0.7934 -0.6086 0.0000
vn -0.6086 -0.7934 -0.0000
vn -0.6415 -0.7671 -0.0000
vn -0.4056 -0.9141 -0.0000
vn -0.4971 -0.8677 0.0000
vn -0.3645 -0.9312 -0.0000
vn -0.2630 -0.9648 0.0000
vn -0.2684 -0.9633 0.0000
vn -0.2596 -0.9657 -0.0000
vn -0.2713 -0.9625 0.0000
vn -0.1753 -0.9845 -0.0000
vn -0.2046 -0.9788 0.0000
vn -0.1117 -0.9937 -0.0000
vn -0.1469 -0.9891 0.0000
vn -0.0633 -0.9980 -0.0000
vn -0.0884 -0.9961 0.0000
vn -0.0235 -0.9997 0.0000
vn -0.0270 -0.9996 0.0000
vn -0.0215 -0.9998 -0.0000
vn -0.0294 -0.9996 0.0000
vn 0.9689 0.0012 -0.2473
vn 0.9703 -0.0022 -0.2419
vn 0.9704 0.0002 -0.2417
vn 0.9683 0.0075 -0.2496
vn 0.9672 -0.0017 -0.2540
vn 0.9739 0.0153 -0.2265
vn 0.9739 0.0152 -0.2265
vn 0.9739 0.0151 -0.2265
vn 0.9701 0.0000 -0.2425
vn 0.9689 -0.0104 -0.2471
vn 0.9678 0.0021 -0.2516
vn 0.9691 -0.0016 -0.2465
vn 0.9704 0.0017 -0.2416
vn 0.9693 0.0032 -0.2459
vn 0.9702 -0.0024 -0.2421
vn 0.9702 0.0010 -0.2421
vn 0.9701 0.0002 -0.2428
vn 0.0000 0.0000 -1.0000
vn -0.9692 0.0014 -0.2463
vn -0.9684 0.0077 -0.2495
vn -0.9678 0.0049 -0.2517
vn -0.9700 -0.0057 -0.2432
vn -0.9703 -0.0013 -0.2417
vn -0.9703 -0.0024 -0.2421
vn -0.9703 0.0018 -0.2420
vn -0.9701 0.0013 -0.2428
vn -0.9701 -0.0000 -0.2425
vn -0.9704 0.0009 -0.2416
vn -0.9701 -0.0012 -0.2428
vn -0.9701 0.0017 -0.2426
vn -0.9693 0.0048 -0.2459
vn -0.9706 0.0037 -0.2408
vn -0.9704 -0.0009 -0.2416
vn -0.9703 -0.0021 -0.2419
vn -1.0000 0.0000 0.0000
vn 0.0000 0.0000 1.0000
vn -0.9703 -0.0014 0.2420
vn -0.9704 0.0019 0.2416
vn -0.9703 0.0009 0.2420
vn -0.9705 -0.0061 0.2410
vn -0.9698 -0.0016 0.2440
vn -0.9700 -0.0096 0.2428
vn -0.9701 -0.0004 0.2428
vn -0.9701 -0.0000 0.2425
vn -0.9681 -0.0026 0.2507
vn -0.9676 0.0021 0.2523
vn -0.9692 -0.0002 0.2463
vn -0.9697 0.0008 0.2444
vn -0.9703 -0.0032 0.2419
vn -0.9702 0.0023 0.2423
vn -0.9703 0.0006 0.2421
vn -0.9700 -0.0000 0.2429
vn 0.9695 0.0032 0.2452
vn 0.9689 0.0105 0.2471
vn 0.9676 0.0114 0.2522
vn 0.9703 -0.0041 0.2420
vn 0.9693 0.0034 0.2458
vn 0.9702 0.0030 0.2422
vn 0.9703 -0.0010 0.2420
vn 0.9701 0.0011 0.2429
vn 0.9702 -0.0000 0.2425
vn 0.9701 0.0000 0.2425
vn 0.9688 -0.0012 0.2477
vn 0.9701 -0.0012 0.2428
vn 0.9746 -0.0105 0.2239
vn 0.9746 -0.0106 0.2237
vn 0.9746 -0.0105 0.2237
vn 0.9682 -0.0074 0.2500
vn 0.9671 0.0016 0.2544
vn 0.9703 0.0000 0.2420
vn 0.9704 0.0038 0.2415
vn 1.0000 0.0000 0.0000
usemtl material_1.268
s 1
f 1//1 2//2 3//3
f 1//1 3//3 4//4
f 5//5 4//5 6//5
f 5//6 1//6 4//6
f 7//7 6//7 8//7
f 7//8 5//8 6//8
f 9//9 8//9 10//9
f 9//10 7//10 8//10
f 11//11 10//12 12//13
f 11//14 12//14 13//14
f 11//11 9//15 10//12
f 14//16 13//16 15//16
f 14//17 11//17 13//17
f 16//18 15//18 17//18
f 16//19 14//19 15//19
f 18//20 17//20 19//20
f 18//21 16//21 17//21
f 20//22 19//22 21//22
f 20//23 18//23 19//23
f 22//24 20//24 21//24
f 23//25 21//26 24//27
f 23//25 22//28 21//26
f 25//29 24//29 26//29
f 25//30 23//30 24//30
f 27//31 26//31 28//31
f 27//32 25//32 26//32
f 29//33 28//33 30//33
f 29//34 27//34 28//34
f 31//35 30//36 32//37
f 31//35 29//38 30//36
usemtl material_0.273
f 33//39 34//40 35//41
f 33//39 36//42 34//40
f 33//39 37//43 36//42
f 33//39 38//44 37//43
f 39//41 33//39 35//41
f 40//45 33//39 39//41
f 27//46 29//47 31//45
f 25//48 27//46 31//45
f 23//49 25//48 31//45
f 22//50 23//49 31//45
f 20//51 22//50 31//45
f 18//52 20//51 31//45
f 16//45 31//45 33//39
f 16//45 33//39 40//45
f 16//45 18//52 31//45
f 41//45 40//45 42//45
f 41//45 16//45 40//45
f 31//53 32//53 43//53
f 31//53 43//53 33//53
f 43//54 44//55 45//56
f 43//54 46//57 44//55
f 43//54 47//58 46//57
f 43//54 48//59 47//58
f 43//54 49//60 48//59
f 43//54 50//59 49//60
f 43//54 51//54 50//59
f 17//54 52//54 53//54
f 17//54 53//54 51//54
f 32//55 19//61 17//54
f 32//55 51//54 43//54
f 32//55 17//54 51//54
f 28//62 32//55 30//63
f 26//64 32//55 28//62
f 21//61 19//61 32//55
f 24//65 21//61 32//55
f 24//65 32//55 26//64
f 54//66 55//67 56//68
f 54//66 56//68 57//69
f 58//70 57//70 59//70
f 58//71 54//71 57//71
f 60//72 59//72 61//72
f 60//73 58//73 59//73
f 62//74 61//74 63//74
f 62//75 60//75 61//75
f 64//76 63//77 65//78
f 64//79 65//79 66//79
f 64//76 62//80 63//77
f 67//81 66//81 68//81
f 67//82 64//82 66//82
f 69//83 68//83 70//83
f 69//84 67//84 68//84
f 71//85 70//85 72//85
f 71//86 69//86 70//86
f 73//87 72//87 74//87
f 73//88 71//88 72//88
f 75//89 73//89 74//89
f 76//90 74//91 77//92
f 76//90 75//93 74//91
f 78//94 77//94 79//94
f 78//95 76//95 77//95
f 80//96 79//96 81//96
f 80//97 78//97 79//97
f 82//98 81//98 83//98
f 82//99 80//99 81//99
f 84//100 83//101 85//102
f 84//100 82//103 83//101
f 86//104 87//105 88//106
f 86//104 89//107 87//105
f 86//104 90//108 89//107
f 86//104 91//109 90//108
f 92//106 86//104 88//106
f 93//110 86//104 92//106
f 80//111 82//112 84//110
f 78//113 80//111 84//110
f 76//114 78//113 84//110
f 75//115 76//114 84//110
f 73//107 75//115 84//110
f 71//116 73//107 84//110
f 69//110 84//110 86//104
f 69//110 86//104 93//110
f 69//110 71//116 84//110
f 94//110 93//110 95//110
f 94//110 69//110 93//110
f 84//117 85//117 96//117
f 84//117 96//117 86//117
f 96//118 97//119 98//120
f 96//118 99//121 97//119
f 96//118 100//122 99//121
f 96//118 101//123 100//122
f 96//118 102//124 101//123
f 96//118 103//125 102//124
f 96//118 104//118 103//125
f 70//118 105//118 106//118
f 70//118 106//118 104//118
f 85//126 72//127 70//118
f 85//126 104//118 96//118
f 85//126 70//118 104//118
f 81//128 85//126 83//129
f 79//130 85//126 81//128
f 74//127 72//127 85//126
f 77//131 74//127 85//126
f 77//131 85//126 79//130
f 107//132 108//133 109//134
f 107//132 109//134 110//135
f 111//136 110//137 112//138
f 111//139 107//139 110//139
f 113//140 112//140 114//140
f 113//141 111//136 112//138
f 115//142 114//142 116//142
f 115//143 113//143 114//143
f 117//144 116//145 118//146
f 117//147 118//147 119//147
f 117//144 115//148 116//145
f 120//149 119//149 121//149
f 120//150 117//150 119//150
f 51//151 121//151 40//151
f 51//152 120//152 121//152
f 50//153 40//153 39//153
f 50//154 51//154 40//154
f 49//155 39//155 35//155
f 49//156 50//156 39//156
f 48//157 49//157 35//157
f 47//158 35//159 34//160
f 47//158 48//161 35//159
f 46//162 34//162 36//162
f 46//163 47//163 34//163
f 44//164 36//164 37//164
f 44//165 46//165 36//165
f 45//166 37//166 38//166
f 45//167 44//167 37//167
f 43//168 38//169 33//170
f 43//168 45//171 38//169
f 122//172 123//173 124//174
f 122//172 124//174 125//175
f 126//176 125//177 127//178
f 126//179 122//179 125//179
f 128//180 127//180 129//180
f 128//181 126//176 127//178
f 130//182 129//182 131//182
f 130//183 128//183 129//183
f 132//184 131//185 133//186
f 132//187 133//187 134//187
f 132//184 130//188 131//185
f 135//189 134//189 136//189
f 135//190 132//190 134//190
f 104//191 136//191 93//191
f 104//192 135//192 136//192
f 103//193 93//193 92//193
f 103//194 104//194 93//194
f 102//195 92//195 88//195
f 102//196 103//196 92//196
f 101//197 102//197 88//197
f 100//198 88//199 87//200
f 100//198 101//201 88//199
f 99//202 87//202 89//202
f 99//203 100//203 87//203
f 97//204 89//204 90//204
f 97//205 99//205 89//205
f 98//206 90//206 91//206
f 98//207 97//207 90//207
f 96//208 91//209 86//210
f 96//208 98//211 91//209
f 55//212 62//213 64//214
f 55//212 60//215 62//213
f 55//212 58//216 60//215
f 55//217 54//218 58//219
f 67//220 55//212 64//214
f 69//220 55//212 67//220
f 6//221 4//222 3//223
f 8//224 6//221 3//223
f 10//225 8//224 3//223
f 12//226 10//225 3//223
f 13//227 12//226 3//223
f 15//228 13//227 3//223
f 17//220 3//223 55//212
f 17//220 55//212 69//220
f 17//220 15//228 3//223
f 52//220 69//220 94//220
f 52//220 17//220 69//220
f 52//229 94//229 95//229
f 52//229 95//229 53//229
f 124//230 127//231 125//232
f 124//230 129//233 127//231
f 124//230 131//234 129//233
f 124//230 133//235 131//234
f 124//230 134//236 133//235
f 124//230 136//237 134//236
f 124//230 93//238 136//237
f 51//238 53//238 95//238
f 51//238 95//238 93//238
f 108//239 120//240 51//238
f 108//239 93//238 124//230
f 108//239 51//238 93//238
f 111//241 108//239 107//242
f 113//243 108//239 111//241
f 117//244 120//240 108//239
f 115//245 117//244 108//239
f 115//245 108//239 113//243
f 109//246 108//246 124//246
f 109//246 124//246 123//246
f 105//247 41//247 42//247
f 105//247 42//247 106//247
f 123//248 130//249 132//250
f 123//248 128//251 130//249
f 123//248 126//252 128//251
f 123//248 122//253 126//252
f 135//254 123//248 132//250
f 104//255 123//248 135//254
f 112//256 110//257 109//258
f 114//259 112//256 109//258
f 116//260 114//259 109//258
f 118//261 116//260 109//258
f 119//262 118//261 109//258
f 121//263 119//262 109//258
f 40//255 109//258 123//248
f 40//255 104//255 106//255
f 40//255 123//248 104//255
f 40//255 121//263 109//258
f 42//255 40//255 106//255
f 56//264 59//265 57//266
f 56//264 61//267 59//265
f 56//264 63//268 61//267
f 56//264 65//269 63//268
f 56//264 66//270 65//269
f 56//264 68//271 66//270
f 56//264 70//272 68//271
f 16//273 41//273 105//273
f 16//273 105//273 70//272
f 16//273 70//272 56//264
f 2//274 14//275 16//273
f 2//274 16//273 56//264
f 5//276 2//277 1//278
f 7//279 2//274 5//280
f 11//281 14//275 2//274
f 9//282 11//281 2//274
f 9//282 2//274 7//279
f 3//283 2//283 56//283
f 3//283 56//283 55//283
