# Blender v2.81 (sub 16) OBJ File: ''
# www.blender.org
mtllib 4pin_con.mtl
o 4pin_con
v -0.007817 -0.008619 -0.006402
v 0.008850 -0.008619 -0.006402
v -0.007817 -0.008619 0.002639
v 0.008850 -0.008619 0.002639
v -0.005140 -0.005033 0.001730
v -0.007817 -0.005033 0.002639
v -0.005140 -0.005033 0.002639
v -0.007817 -0.005033 0.001730
v -0.005002 -0.005033 0.000526
v -0.005070 -0.005033 0.000466
v -0.007009 -0.005033 0.001275
v -0.005122 -0.005033 0.000390
v -0.004921 -0.005033 0.000569
v -0.005154 -0.005033 0.000305
v -0.004832 -0.005033 0.000590
v -0.005165 -0.005033 0.000214
v -0.004741 -0.005033 0.000590
v -0.005154 -0.005033 0.000124
v -0.005122 -0.005033 0.000038
v -0.007009 -0.005033 -0.004483
v -0.004741 -0.005033 -0.000162
v -0.004652 -0.005033 -0.000140
v -0.004832 -0.005033 -0.000162
v -0.004921 -0.005033 -0.000140
v -0.005002 -0.005033 -0.000097
v -0.005070 -0.005033 -0.000037
v -0.001870 -0.005033 0.000526
v -0.004571 -0.005033 0.000526
v -0.004652 -0.005033 0.000569
v -0.004503 -0.005033 0.000466
v -0.001939 -0.005033 0.000466
v -0.001991 -0.005033 0.000390
v -0.004451 -0.005033 0.000390
v -0.004419 -0.005033 0.000305
v -0.001789 -0.005033 0.000569
v -0.002023 -0.005033 0.000305
v -0.001701 -0.005033 0.000590
v -0.002034 -0.005033 0.000214
v -0.004408 -0.005033 0.000214
v -0.001610 -0.005033 0.000590
v -0.002023 -0.005033 0.000124
v -0.004419 -0.005033 0.000124
v -0.001991 -0.005033 0.000038
v -0.004451 -0.005033 0.000038
v -0.007817 -0.005033 -0.005796
v -0.007817 -0.005033 -0.004483
v -0.001939 -0.005033 -0.000037
v -0.004503 -0.005033 -0.000037
v -0.001870 -0.005033 -0.000097
v -0.004571 -0.005033 -0.000097
v -0.001789 -0.005033 -0.000140
v -0.001701 -0.005033 -0.000162
v -0.001610 -0.005033 -0.000162
v 0.001193 -0.005033 0.000466
v -0.001372 -0.005033 0.000466
v -0.001440 -0.005033 0.000526
v -0.001320 -0.005033 0.000390
v 0.001261 -0.005033 0.000526
v 0.001141 -0.005033 0.000390
v -0.001287 -0.005033 0.000305
v 0.001342 -0.005033 0.000569
v -0.001521 -0.005033 0.000569
v 0.001109 -0.005033 0.000305
v 0.001431 -0.005033 0.000590
v 0.001098 -0.005033 0.000214
v -0.001276 -0.005033 0.000214
v 0.001109 -0.005033 0.000124
v -0.001287 -0.005033 0.000124
v 0.001141 -0.005033 0.000038
v -0.001320 -0.005033 0.000038
v 0.001193 -0.005033 -0.000037
v -0.001372 -0.005033 -0.000037
v -0.001440 -0.005033 -0.000097
v 0.001261 -0.005033 -0.000097
v 0.001342 -0.005033 -0.000140
v -0.001521 -0.005033 -0.000140
v 0.001431 -0.005033 -0.000162
v 0.004324 -0.005033 0.000466
v 0.001812 -0.005033 0.000390
v 0.001760 -0.005033 0.000466
v 0.004393 -0.005033 0.000526
v 0.001692 -0.005033 0.000526
v 0.001611 -0.005033 0.000569
v 0.004272 -0.005033 0.000390
v 0.004473 -0.005033 0.000569
v 0.004240 -0.005033 0.000305
v 0.001844 -0.005033 0.000305
v 0.004562 -0.005033 0.000590
v 0.001522 -0.005033 0.000590
v 0.004229 -0.005033 0.000214
v 0.001855 -0.005033 0.000214
v 0.001844 -0.005033 0.000124
v 0.004240 -0.005033 0.000124
v 0.004272 -0.005033 0.000038
v 0.001812 -0.005033 0.000038
v 0.001760 -0.005033 -0.000037
v 0.004324 -0.005033 -0.000037
v 0.004393 -0.005033 -0.000097
v 0.001692 -0.005033 -0.000097
v 0.004473 -0.005033 -0.000140
v 0.001611 -0.005033 -0.000140
v 0.008042 -0.005033 0.001275
v 0.004943 -0.005033 0.000038
v 0.004976 -0.005033 0.000124
v 0.004653 -0.005033 0.000590
v 0.004742 -0.005033 0.000569
v 0.004823 -0.005033 0.000526
v 0.004891 -0.005033 0.000466
v 0.004943 -0.005033 0.000390
v 0.004976 -0.005033 0.000305
v 0.004987 -0.005033 0.000214
v 0.008042 -0.005033 -0.004483
v 0.004891 -0.005033 -0.000037
v 0.004823 -0.005033 -0.000097
v 0.004742 -0.005033 -0.000140
v 0.004653 -0.005033 -0.000162
v 0.004562 -0.005033 -0.000162
v 0.001522 -0.005033 -0.000162
v 0.008850 -0.005033 -0.005796
v 0.008850 -0.005033 -0.004483
v 0.008850 -0.005033 0.001730
v 0.006174 -0.005033 0.001730
v 0.006174 -0.005033 0.002639
v 0.008850 -0.005033 0.002639
v 0.006174 0.005321 0.001730
v 0.006174 0.005321 0.002639
v -0.005140 0.005321 0.002639
v -0.005140 0.005321 0.001730
v -0.007817 0.005321 -0.004483
v -0.007009 0.005321 -0.004483
v 0.008042 0.005321 -0.004483
v 0.008850 0.005321 -0.004483
v -0.007009 0.005321 0.001275
v 0.008042 0.005321 0.001275
v -0.004503 0.005321 -0.000037
v -0.004451 0.005321 0.000038
v -0.004419 0.005321 0.000124
v -0.004408 0.005321 0.000214
v -0.005154 0.005321 0.000124
v -0.005165 0.005321 0.000214
v -0.005122 0.005321 0.000038
v -0.005070 0.005321 -0.000037
v -0.005002 0.005321 -0.000097
v -0.004921 0.005321 -0.000140
v -0.004832 0.005321 -0.000162
v -0.004741 0.005321 -0.000162
v -0.004652 0.005321 -0.000140
v -0.004571 0.005321 -0.000097
v -0.005154 0.005321 0.000305
v -0.005122 0.005321 0.000390
v -0.004419 0.005321 0.000305
v -0.004451 0.005321 0.000390
v -0.004503 0.005321 0.000466
v -0.004571 0.005321 0.000526
v -0.004652 0.005321 0.000569
v -0.004741 0.005321 0.000590
v -0.004832 0.005321 0.000590
v -0.004921 0.005321 0.000569
v -0.005002 0.005321 0.000526
v -0.005070 0.005321 0.000466
v -0.001372 0.005321 -0.000037
v -0.001320 0.005321 0.000038
v -0.001287 0.005321 0.000124
v -0.001276 0.005321 0.000214
v -0.002023 0.005321 0.000124
v -0.002034 0.005321 0.000214
v -0.001991 0.005321 0.000038
v -0.001939 0.005321 -0.000037
v -0.001870 0.005321 -0.000097
v -0.001789 0.005321 -0.000140
v -0.001701 0.005321 -0.000162
v -0.001610 0.005321 -0.000162
v -0.001521 0.005321 -0.000140
v -0.001440 0.005321 -0.000097
v -0.001991 0.005321 0.000390
v -0.001939 0.005321 0.000466
v -0.001870 0.005321 0.000526
v -0.002023 0.005321 0.000305
v -0.001789 0.005321 0.000569
v -0.001610 0.005321 0.000590
v -0.001701 0.005321 0.000590
v -0.001521 0.005321 0.000569
v -0.001320 0.005321 0.000390
v -0.001440 0.005321 0.000526
v -0.001372 0.005321 0.000466
v -0.001287 0.005321 0.000305
v 0.001760 0.005321 -0.000037
v 0.001812 0.005321 0.000038
v 0.001844 0.005321 0.000124
v 0.001855 0.005321 0.000214
v 0.001109 0.005321 0.000124
v 0.001098 0.005321 0.000214
v 0.001141 0.005321 0.000038
v 0.001193 0.005321 -0.000037
v 0.001261 0.005321 -0.000097
v 0.001342 0.005321 -0.000140
v 0.001431 0.005321 -0.000162
v 0.001522 0.005321 -0.000162
v 0.001611 0.005321 -0.000140
v 0.001692 0.005321 -0.000097
v 0.001141 0.005321 0.000390
v 0.001193 0.005321 0.000466
v 0.001261 0.005321 0.000526
v 0.001109 0.005321 0.000305
v 0.001342 0.005321 0.000569
v 0.001522 0.005321 0.000590
v 0.001431 0.005321 0.000590
v 0.001611 0.005321 0.000569
v 0.001812 0.005321 0.000390
v 0.001692 0.005321 0.000526
v 0.001760 0.005321 0.000466
v 0.001844 0.005321 0.000305
v 0.004891 0.005321 -0.000037
v 0.004943 0.005321 0.000038
v 0.004976 0.005321 0.000124
v 0.004987 0.005321 0.000214
v 0.004240 0.005321 0.000124
v 0.004229 0.005321 0.000214
v 0.004272 0.005321 0.000038
v 0.004324 0.005321 -0.000037
v 0.004393 0.005321 -0.000097
v 0.004473 0.005321 -0.000140
v 0.004562 0.005321 -0.000162
v 0.004653 0.005321 -0.000162
v 0.004742 0.005321 -0.000140
v 0.004823 0.005321 -0.000097
v 0.004272 0.005321 0.000390
v 0.004324 0.005321 0.000466
v 0.004393 0.005321 0.000526
v 0.004240 0.005321 0.000305
v 0.004473 0.005321 0.000569
v 0.004653 0.005321 0.000590
v 0.004562 0.005321 0.000590
v 0.004742 0.005321 0.000569
v 0.004943 0.005321 0.000390
v 0.004823 0.005321 0.000526
v 0.004891 0.005321 0.000466
v 0.004976 0.005321 0.000305
v -0.007817 0.005321 -0.005796
v -0.007817 0.005321 -0.006402
v -0.007817 0.005321 0.001730
v 0.008850 0.005321 -0.006402
v 0.008850 0.005321 -0.005796
v 0.008850 0.005321 0.001730
vn 0.0000 -1.0000 0.0000
vn 0.0000 1.0000 0.0000
vn 0.0000 1.0000 -0.0001
vn 1.0000 0.0000 0.0000
vn -1.0000 0.0000 0.0000
vn 0.0000 0.0000 -1.0000
vn 0.8230 0.0000 -0.5681
vn 0.9350 -0.0000 -0.3546
vn 0.9927 0.0000 -0.1205
vn -0.9927 0.0000 -0.1206
vn -0.9350 0.0000 -0.3546
vn -0.8230 0.0000 -0.5681
vn -0.6631 0.0000 -0.7485
vn -0.4647 0.0000 -0.8855
vn -0.2393 0.0000 -0.9709
vn 0.2393 0.0000 -0.9709
vn 0.4647 0.0000 -0.8855
vn 0.6631 0.0000 -0.7485
vn -0.9350 -0.0000 0.3546
vn -0.9927 0.0000 0.1206
vn 0.9927 0.0000 0.1205
vn 0.9350 0.0000 0.3546
vn 0.8230 0.0000 0.5681
vn 0.6631 -0.0000 0.7485
vn 0.4647 -0.0000 0.8855
vn 0.2393 -0.0000 0.9709
vn 0.0000 -0.0000 1.0000
vn -0.2393 -0.0000 0.9709
vn -0.4647 -0.0000 0.8855
vn -0.6631 -0.0000 0.7485
vn -0.8230 -0.0000 0.5681
vn 0.0000 1.0000 0.0001
vn 0.8230 0.0000 -0.5680
vn 0.9927 -0.0000 -0.1206
vn 0.9927 -0.0000 0.1206
vn 0.8230 -0.0000 0.5680
vn -0.4647 0.0000 -0.8854
vn 0.4647 0.0000 -0.8854
vn 0.4647 -0.0000 0.8854
vn -0.4647 -0.0000 0.8854
usemtl material_1.076
s 1
f 1//1 2//1 3//1
f 3//1 2//1 4//1
f 5//2 6//2 7//2
f 5//2 8//2 6//2
f 9//2 10//2 11//2
f 12//2 11//2 10//2
f 13//2 9//2 11//2
f 14//2 11//2 12//2
f 15//2 13//2 11//2
f 16//2 11//2 14//2
f 17//2 15//2 11//2
f 18//2 11//2 16//2
f 19//2 11//2 18//2
f 20//2 21//2 22//2
f 20//2 23//2 21//2
f 20//2 24//2 23//2
f 20//2 25//2 24//2
f 20//2 26//2 25//2
f 27//2 28//2 29//2
f 27//2 30//2 28//2
f 27//2 31//2 30//2
f 32//2 33//2 30//2
f 32//2 34//2 33//2
f 32//2 30//2 31//2
f 35//2 27//2 29//2
f 36//2 34//2 32//2
f 37//2 29//2 17//2
f 37//2 17//2 11//2
f 37//2 35//2 29//2
f 38//2 39//2 34//2
f 38//2 34//2 36//2
f 40//2 37//2 11//2
f 41//2 42//2 39//2
f 41//2 39//2 38//2
f 43//2 44//2 42//2
f 43//2 42//2 41//2
f 45//2 46//2 20//2
f 47//2 48//2 44//2
f 47//2 44//2 43//2
f 49//2 50//2 48//2
f 49//2 22//2 50//2
f 49//2 48//2 47//2
f 51//2 22//2 49//2
f 51//2 20//2 22//2
f 52//2 20//2 51//2
f 53//2 20//2 52//2
f 54//2 55//2 56//2
f 54//2 57//2 55//2
f 58//2 54//2 56//2
f 59//2 57//2 54//2
f 59//2 60//2 57//2
f 61//2 58//2 56//2
f 61//2 56//2 62//2
f 63//2 60//2 59//2
f 64//2 61//2 62//2
f 64//2 62//2 40//2
f 64//2 40//2 11//2
f 65//2 60//2 63//2
f 65//2 66//2 60//2
f 67//2 68//2 66//2
f 67//2 66//2 65//2
f 69//2 68//2 67//2
f 69//2 70//2 68//2
f 71//2 72//2 70//2
f 71//2 73//2 72//2
f 71//2 70//2 69//2
f 74//2 73//2 71//2
f 75//2 76//2 73//2
f 75//2 73//2 74//2
f 77//2 20//2 53//2
f 77//2 76//2 75//2
f 77//2 53//2 76//2
f 78//2 79//2 80//2
f 81//2 78//2 80//2
f 81//2 82//2 83//2
f 81//2 80//2 82//2
f 84//2 79//2 78//2
f 85//2 81//2 83//2
f 86//2 87//2 79//2
f 86//2 79//2 84//2
f 88//2 83//2 89//3
f 88//2 85//2 83//2
f 90//2 91//2 87//2
f 90//2 92//2 91//2
f 90//2 87//2 86//2
f 93//2 92//2 90//2
f 94//2 95//2 92//2
f 94//2 96//2 95//2
f 94//2 92//2 93//2
f 97//2 96//2 94//2
f 98//2 96//2 97//2
f 98//2 99//2 96//2
f 100//2 99//2 98//2
f 100//2 101//2 99//2
f 102//2 103//2 104//2
f 102//2 64//2 11//2
f 102//2 89//3 64//2
f 102//2 88//2 89//3
f 102//2 105//2 88//2
f 102//2 106//2 105//2
f 102//2 107//2 106//2
f 102//2 108//2 107//2
f 102//2 109//2 108//2
f 102//2 110//2 109//2
f 102//2 111//2 110//2
f 102//2 104//2 111//2
f 112//2 113//2 103//2
f 112//2 114//2 113//2
f 112//2 115//2 114//2
f 112//2 116//2 115//2
f 112//2 117//2 116//2
f 112//2 100//2 117//2
f 112//2 103//2 102//2
f 112//2 101//2 100//2
f 112//2 20//2 77//2
f 112//2 118//2 101//2
f 112//2 77//2 118//2
f 119//2 112//2 120//2
f 119//2 45//2 20//2
f 119//2 20//2 112//2
f 20//2 11//2 19//2
f 20//2 19//2 26//2
f 121//2 122//2 123//2
f 121//2 123//2 124//2
f 125//4 126//4 122//4
f 122//4 126//4 123//4
f 127//5 128//5 7//5
f 7//5 128//5 5//5
f 129//6 130//6 46//6
f 46//6 130//6 20//6
f 112//6 131//6 120//6
f 131//6 132//6 120//6
f 130//4 133//4 20//4
f 20//4 133//4 11//4
f 133//6 134//6 11//6
f 11//6 134//6 102//6
f 134//5 131//5 102//5
f 102//5 131//5 112//5
f 135//7 136//7 48//7
f 44//8 137//8 42//8
f 136//8 137//8 44//8
f 42//9 138//9 39//9
f 137//9 138//9 42//9
f 16//10 139//10 18//10
f 140//10 139//10 16//10
f 18//11 141//11 19//11
f 139//11 141//11 18//11
f 19//12 142//12 26//12
f 141//12 142//12 19//12
f 26//13 143//13 25//13
f 142//13 143//13 26//13
f 25//14 144//14 24//14
f 143//14 144//14 25//14
f 24//15 145//15 23//15
f 144//15 145//15 24//15
f 23//6 146//6 21//6
f 145//6 146//6 23//6
f 21//16 147//16 22//16
f 146//16 147//16 21//16
f 22//17 148//17 50//17
f 147//17 148//17 22//17
f 50//18 135//18 48//18
f 148//18 135//18 50//18
f 48//7 136//7 44//7
f 12//19 149//19 14//19
f 150//19 149//19 12//19
f 14//20 140//20 16//20
f 149//20 140//20 14//20
f 39//21 151//21 34//21
f 138//21 151//21 39//21
f 34//22 152//22 33//22
f 151//22 152//22 34//22
f 33//23 153//23 30//23
f 152//23 153//23 33//23
f 30//24 154//24 28//24
f 153//24 154//24 30//24
f 28//25 155//25 29//25
f 154//25 155//25 28//25
f 29//26 156//26 17//26
f 155//26 156//26 29//26
f 17//27 157//27 15//27
f 156//27 157//27 17//27
f 15//28 158//28 13//28
f 157//28 158//28 15//28
f 13//29 159//29 9//29
f 158//29 159//29 13//29
f 9//30 160//30 10//30
f 159//30 160//30 9//30
f 10//31 150//31 12//31
f 160//31 150//31 10//31
f 150//2 160//2 159//2
f 149//2 159//2 158//2
f 149//2 150//2 159//2
f 139//2 140//2 149//2
f 155//2 158//2 157//2
f 155//2 157//2 156//32
f 155//2 149//2 158//2
f 143//2 142//2 141//2
f 143//2 141//2 139//2
f 152//2 154//2 153//2
f 144//2 143//2 139//2
f 151//2 155//2 154//2
f 151//2 149//2 155//2
f 151//2 154//2 152//2
f 137//2 151//2 138//2
f 137//2 139//2 149//2
f 137//2 149//2 151//2
f 147//2 146//3 145//2
f 147//2 145//2 144//2
f 147//2 144//2 139//2
f 147//2 139//2 137//2
f 148//2 137//2 136//2
f 148//2 147//2 137//2
f 135//2 148//2 136//2
f 161//33 162//33 72//7
f 70//8 163//8 68//8
f 162//8 163//8 70//8
f 68//34 164//34 66//34
f 163//34 164//34 68//34
f 38//10 165//10 41//10
f 166//10 165//10 38//10
f 41//11 167//11 43//11
f 165//11 167//11 41//11
f 43//12 168//12 47//12
f 167//12 168//12 43//12
f 47//13 169//13 49//13
f 168//13 169//13 47//13
f 49//14 170//14 51//14
f 169//14 170//14 49//14
f 51//15 171//15 52//15
f 170//15 171//15 51//15
f 52//6 172//6 53//6
f 171//6 172//6 52//6
f 53//16 173//16 76//16
f 172//16 173//16 53//16
f 76//17 174//17 73//17
f 173//17 174//17 76//17
f 73//18 161//18 72//18
f 174//18 161//18 73//18
f 72//7 162//33 70//7
f 175//2 176//2 177//2
f 178//2 177//2 179//2
f 178//2 175//2 177//2
f 180//2 179//2 181//32
f 165//2 166//2 178//2
f 182//2 179//2 180//2
f 169//2 168//2 167//2
f 169//2 167//2 165//2
f 183//2 184//2 185//2
f 170//2 169//2 165//2
f 186//2 182//2 184//2
f 186//2 178//2 179//2
f 186//2 179//2 182//2
f 186//2 184//2 183//2
f 163//2 186//2 164//2
f 163//2 165//2 178//2
f 163//2 178//2 186//2
f 173//2 172//3 171//2
f 173//2 171//2 170//2
f 173//2 170//2 165//2
f 173//2 165//2 163//2
f 174//2 163//2 162//2
f 174//2 173//2 163//2
f 161//2 174//2 162//2
f 32//19 178//19 36//19
f 175//19 178//19 32//19
f 36//20 166//20 38//20
f 178//20 166//20 36//20
f 66//35 186//35 60//35
f 164//35 186//35 66//35
f 60//22 183//22 57//22
f 186//22 183//22 60//22
f 57//23 185//36 55//23
f 183//36 185//36 57//23
f 55//24 184//24 56//24
f 185//24 184//24 55//24
f 56//25 182//25 62//25
f 184//25 182//25 56//25
f 62//26 180//26 40//26
f 182//26 180//26 62//26
f 40//27 181//27 37//27
f 180//27 181//27 40//27
f 37//28 179//28 35//28
f 181//28 179//28 37//28
f 35//29 177//29 27//29
f 179//29 177//29 35//29
f 27//30 176//30 31//30
f 177//30 176//30 27//30
f 31//31 175//31 32//31
f 176//31 175//31 31//31
f 187//7 188//7 96//7
f 95//8 189//8 92//8
f 188//8 189//8 95//8
f 92//34 190//34 91//34
f 189//34 190//34 92//34
f 65//10 191//10 67//10
f 192//10 191//10 65//10
f 67//11 193//11 69//11
f 191//11 193//11 67//11
f 69//12 194//12 71//12
f 193//12 194//12 69//12
f 71//13 195//13 74//13
f 194//13 195//13 71//13
f 74//37 196//37 75//37
f 195//37 196//37 74//37
f 75//15 197//15 77//15
f 196//15 197//15 75//15
f 77//6 198//6 118//6
f 197//6 198//6 77//6
f 118//16 199//16 101//16
f 198//16 199//16 118//16
f 101//38 200//38 99//38
f 199//38 200//38 101//38
f 99//18 187//18 96//18
f 200//18 187//18 99//18
f 96//7 188//7 95//7
f 201//2 202//2 203//2
f 204//2 203//2 205//2
f 204//2 201//2 203//2
f 206//2 205//2 207//2
f 191//2 192//2 204//2
f 208//2 205//2 206//2
f 195//2 194//2 193//2
f 195//2 193//2 191//2
f 209//2 210//2 211//2
f 196//2 195//2 191//2
f 212//2 208//2 210//2
f 212//2 204//2 205//2
f 212//2 205//2 208//2
f 212//2 210//2 209//2
f 189//2 212//2 190//2
f 189//2 191//2 204//2
f 189//2 204//2 212//2
f 199//2 198//3 197//2
f 199//2 197//2 196//2
f 199//2 196//2 191//2
f 199//2 191//2 189//2
f 200//2 189//2 188//2
f 200//2 199//2 189//2
f 187//2 200//2 188//2
f 59//19 204//19 63//19
f 201//19 204//19 59//19
f 63//20 192//20 65//20
f 204//20 192//20 63//20
f 91//35 212//35 87//35
f 190//35 212//35 91//35
f 87//22 209//22 79//22
f 212//22 209//22 87//22
f 79//23 211//23 80//23
f 209//23 211//23 79//23
f 80//24 210//24 82//24
f 211//24 210//24 80//24
f 82//39 208//39 83//39
f 210//39 208//39 82//39
f 83//26 206//26 89//26
f 208//26 206//26 83//26
f 89//27 207//27 64//27
f 206//27 207//27 89//27
f 64//28 205//28 61//28
f 207//28 205//28 64//28
f 61//40 203//40 58//40
f 205//40 203//40 61//40
f 58//30 202//30 54//30
f 203//30 202//30 58//30
f 54//31 201//31 59//31
f 202//31 201//31 54//31
f 213//7 214//7 113//7
f 103//8 215//8 104//8
f 214//8 215//8 103//8
f 104//34 216//34 111//34
f 215//34 216//34 104//34
f 90//10 217//10 93//10
f 218//10 217//10 90//10
f 93//11 219//11 94//11
f 217//11 219//11 93//11
f 94//12 220//12 97//12
f 219//12 220//12 94//12
f 97//13 221//13 98//13
f 220//13 221//13 97//13
f 98//37 222//37 100//37
f 221//37 222//37 98//37
f 100//15 223//15 117//15
f 222//15 223//15 100//15
f 117//6 224//6 116//6
f 223//6 224//6 117//6
f 116//16 225//16 115//16
f 224//16 225//16 116//16
f 115//38 226//38 114//38
f 225//38 226//38 115//38
f 114//18 213//18 113//18
f 226//18 213//18 114//18
f 113//7 214//7 103//7
f 227//2 228//2 229//2
f 230//2 229//2 231//2
f 230//2 227//2 229//2
f 232//2 231//2 233//2
f 217//2 218//2 230//2
f 234//2 231//2 232//2
f 221//2 220//2 219//2
f 221//2 219//2 217//2
f 235//2 236//2 237//2
f 222//2 221//2 217//2
f 238//2 234//2 236//2
f 238//2 230//2 231//2
f 238//2 231//2 234//2
f 238//2 236//2 235//2
f 215//2 238//2 216//2
f 215//2 217//2 230//2
f 215//2 230//2 238//2
f 225//2 224//3 223//2
f 225//2 223//2 222//2
f 225//2 222//2 217//2
f 225//2 217//2 215//2
f 226//2 215//2 214//2
f 226//2 225//2 215//2
f 213//32 226//2 214//2
f 84//19 230//19 86//19
f 227//19 230//19 84//19
f 86//20 218//20 90//20
f 230//20 218//20 86//20
f 111//35 238//35 110//35
f 216//35 238//35 111//35
f 110//22 235//22 109//22
f 238//22 235//22 110//22
f 109//23 237//23 108//23
f 235//23 237//23 109//23
f 108//24 236//24 107//24
f 237//24 236//24 108//24
f 107//39 234//39 106//39
f 236//39 234//39 107//39
f 106//26 232//26 105//26
f 234//26 232//26 106//26
f 105//27 233//27 88//27
f 232//27 233//27 105//27
f 88//28 231//28 85//28
f 233//28 231//28 88//28
f 85//40 229//40 81//40
f 231//40 229//40 85//40
f 81//30 228//30 78//30
f 229//30 228//30 81//30
f 78//31 227//31 84//31
f 228//31 227//31 78//31
usemtl material_0.079
f 46//5 45//5 1//5
f 3//5 46//5 1//5
f 8//5 46//5 3//5
f 6//5 8//5 3//5
f 239//5 240//5 45//5
f 241//5 129//5 46//5
f 241//5 46//5 8//5
f 240//5 1//5 45//5
f 128//27 241//27 5//27
f 5//27 241//27 8//27
f 242//2 240//2 239//2
f 242//2 239//2 243//2
f 129//2 241//2 133//2
f 130//2 129//2 133//2
f 125//2 128//2 127//2
f 125//2 127//2 126//2
f 132//2 131//2 134//2
f 132//2 134//2 244//2
f 241//2 128//2 133//2
f 125//2 244//2 134//2
f 125//2 134//2 128//2
f 128//2 134//2 133//2
f 243//27 239//27 119//27
f 119//27 239//27 45//27
f 121//4 124//4 4//4
f 120//4 4//4 2//4
f 120//4 121//4 4//4
f 119//4 120//4 2//4
f 132//4 244//4 121//4
f 132//4 121//4 120//4
f 242//4 243//4 119//4
f 2//4 242//4 119//4
f 244//27 125//27 121//27
f 121//27 125//27 122//27
f 7//27 6//27 3//27
f 123//27 3//27 4//27
f 123//27 127//27 7//27
f 123//27 7//27 3//27
f 124//27 123//27 4//27
f 126//27 127//27 123//27
f 1//6 242//6 2//6
f 240//6 242//6 1//6
