# Blender v2.81 (sub 16) OBJ File: ''
# www.blender.org
mtllib 60-Pin Shrouded Header (IDC) Straight.mtl
o 60-Pin_Shrouded_Header_(IDC)_Straight
v 0.000579 0.000534 0.010831
v 0.000579 0.000532 0.010831
v 0.000579 0.000532 -0.010831
v 0.000579 0.000535 -0.010832
v 0.000579 0.000536 0.010832
v 0.000578 0.000538 -0.010833
v 0.000578 0.000539 0.010833
v 0.000578 0.000541 -0.010834
v 0.000578 0.000542 0.010835
v 0.000577 0.000543 -0.010836
v 0.000577 0.000547 0.010840
v 0.000576 0.000547 -0.010840
v 0.000574 0.000552 -0.010848
v 0.000573 0.000556 0.010856
v 0.000570 0.000559 -0.010865
v 0.000565 0.000565 0.010885
v 0.000565 0.000565 -0.010885
v 0.000559 0.000570 0.010865
v 0.000556 0.000573 -0.010856
v 0.000552 0.000574 0.010848
v 0.000547 0.000577 -0.010840
v 0.000547 0.000576 0.010840
v 0.000543 0.000577 0.010836
v 0.000542 0.000578 -0.010835
v 0.000541 0.000578 0.010834
v 0.000539 0.000578 -0.010833
v 0.000538 0.000578 0.010833
v 0.000536 0.000579 -0.010832
v 0.000535 0.000579 0.010832
v 0.000534 0.000579 -0.010831
v 0.000532 0.000579 0.010831
v 0.000532 0.000579 -0.010831
v -0.000532 0.000579 0.010831
v -0.000542 0.000578 0.010835
v -0.000547 0.000577 0.010840
v -0.000539 0.000578 0.010833
v -0.000536 0.000579 0.010832
v -0.000534 0.000579 0.010831
v -0.000556 0.000573 0.010856
v -0.000565 0.000565 0.010885
v 0.000347 0.000347 0.011757
v -0.000347 0.000347 0.011757
v -0.000532 0.000579 -0.010831
v -0.000538 0.000578 -0.010833
v -0.000535 0.000579 -0.010832
v -0.000541 0.000578 -0.010834
v -0.000543 0.000577 -0.010836
v -0.000547 0.000576 -0.010840
v -0.000552 0.000574 -0.010848
v -0.000559 0.000570 -0.010865
v -0.000565 0.000565 -0.010885
v 0.000347 0.000347 -0.011757
v -0.000347 0.000347 -0.011757
v 0.000579 -0.000534 -0.010831
v 0.000579 -0.000532 -0.010831
v 0.000579 -0.000532 0.010831
v 0.000579 -0.000535 0.010832
v 0.000579 -0.000536 -0.010832
v 0.000578 -0.000538 0.010833
v 0.000578 -0.000539 -0.010833
v 0.000578 -0.000541 0.010834
v 0.000578 -0.000542 -0.010835
v 0.000577 -0.000543 0.010836
v 0.000577 -0.000547 -0.010840
v 0.000576 -0.000547 0.010840
v 0.000574 -0.000552 0.010848
v 0.000573 -0.000556 -0.010856
v 0.000570 -0.000559 0.010865
v 0.000565 -0.000565 -0.010885
v 0.000565 -0.000565 0.010885
v 0.000559 -0.000570 -0.010865
v 0.000556 -0.000573 0.010856
v 0.000552 -0.000574 -0.010848
v 0.000547 -0.000577 0.010840
v 0.000547 -0.000576 -0.010840
v 0.000543 -0.000577 -0.010836
v 0.000542 -0.000578 0.010835
v 0.000541 -0.000578 -0.010834
v 0.000539 -0.000578 0.010833
v 0.000538 -0.000578 -0.010833
v 0.000536 -0.000579 0.010832
v 0.000535 -0.000579 -0.010832
v 0.000534 -0.000579 0.010831
v 0.000532 -0.000579 -0.010831
v 0.000532 -0.000579 0.010831
v -0.000532 -0.000579 -0.010831
v -0.000542 -0.000578 -0.010835
v -0.000547 -0.000577 -0.010840
v -0.000539 -0.000578 -0.010833
v -0.000536 -0.000579 -0.010832
v -0.000534 -0.000579 -0.010831
v -0.000556 -0.000573 -0.010856
v -0.000565 -0.000565 -0.010885
v 0.000347 -0.000347 -0.011757
v -0.000347 -0.000347 -0.011757
v -0.000532 -0.000579 0.010831
v -0.000538 -0.000578 0.010833
v -0.000535 -0.000579 0.010832
v -0.000541 -0.000578 0.010834
v -0.000543 -0.000577 0.010836
v -0.000547 -0.000576 0.010840
v -0.000552 -0.000574 0.010848
v -0.000559 -0.000570 0.010865
v -0.000565 -0.000565 0.010885
v 0.000347 -0.000347 0.011757
v -0.000347 -0.000347 0.011757
v -0.000579 0.000534 -0.010831
v -0.000579 0.000532 -0.010831
v -0.000579 0.000532 0.010831
v -0.000579 0.000535 0.010832
v -0.000579 0.000536 -0.010832
v -0.000578 0.000538 0.010833
v -0.000578 0.000539 -0.010833
v -0.000578 0.000541 0.010834
v -0.000578 0.000542 -0.010835
v -0.000577 0.000543 0.010836
v -0.000577 0.000547 -0.010840
v -0.000576 0.000547 0.010840
v -0.000574 0.000552 0.010848
v -0.000573 0.000556 -0.010856
v -0.000570 0.000559 0.010865
v -0.000579 -0.000534 0.010831
v -0.000579 -0.000532 0.010831
v -0.000579 -0.000532 -0.010831
v -0.000579 -0.000535 -0.010832
v -0.000579 -0.000536 0.010832
v -0.000578 -0.000538 -0.010833
v -0.000578 -0.000539 0.010833
v -0.000578 -0.000541 -0.010834
v -0.000578 -0.000542 0.010835
v -0.000577 -0.000543 -0.010836
v -0.000577 -0.000547 0.010840
v -0.000576 -0.000547 -0.010840
v -0.000574 -0.000552 -0.010848
v -0.000573 -0.000556 0.010856
v -0.000570 -0.000559 -0.010865
vn 0.9996 0.0270 -0.0000
vn 0.9998 0.0210 0.0000
vn 0.9997 0.0236 -0.0000
vn 0.9996 0.0294 -0.0000
vn 0.9961 0.0882 -0.0000
vn 0.9980 0.0634 0.0000
vn 0.9892 0.1464 0.0000
vn 0.9937 0.1119 0.0000
vn 0.9789 0.2045 -0.0000
vn 0.9845 0.1755 0.0000
vn 0.9634 0.2679 0.0000
vn 0.9648 0.2629 0.0000
vn 0.9625 0.2712 -0.0000
vn 0.9312 0.3645 0.0000
vn 0.9657 0.2595 0.0000
vn 0.8676 0.4973 -0.0000
vn 0.9141 0.4055 0.0000
vn 0.7669 0.6418 0.0000
vn 0.7934 0.6086 0.0000
vn 0.6086 0.7934 -0.0000
vn 0.6418 0.7669 0.0000
vn 0.4055 0.9141 -0.0000
vn 0.4973 0.8676 0.0000
vn 0.3645 0.9312 -0.0000
vn 0.2630 0.9648 0.0000
vn 0.2679 0.9635 -0.0000
vn 0.2595 0.9658 -0.0000
vn 0.2713 0.9625 0.0000
vn 0.1755 0.9845 -0.0000
vn 0.2045 0.9789 0.0000
vn 0.1119 0.9937 -0.0000
vn 0.1470 0.9891 0.0000
vn 0.0633 0.9980 -0.0000
vn 0.0883 0.9961 0.0000
vn 0.0235 0.9997 0.0000
vn 0.0270 0.9996 -0.0000
vn 0.0211 0.9998 0.0000
vn 0.0291 0.9996 0.0000
vn -0.0000 0.9702 0.2425
vn 0.0000 0.9702 0.2422
vn -0.0001 0.9702 0.2425
vn 0.0001 0.9701 0.2428
vn -0.0002 0.9700 0.2431
vn -0.0000 0.9705 0.2410
vn 0.0000 0.9701 0.2425
vn -0.0001 0.9705 0.2413
vn 0.0001 0.9701 0.2426
vn -0.0000 0.9701 0.2429
vn 0.0003 0.9702 0.2422
vn -0.0001 0.9701 0.2425
vn -0.0001 0.9701 0.2426
vn 0.0001 0.9702 0.2425
vn 0.0000 1.0000 0.0000
vn -0.0000 0.9702 -0.2425
vn -0.0003 0.9704 -0.2417
vn 0.0004 0.9702 -0.2424
vn 0.0001 0.9700 -0.2429
vn 0.0004 0.9702 -0.2422
vn 0.0001 0.9702 -0.2425
vn 0.0001 0.9701 -0.2426
vn -0.0001 0.9702 -0.2425
vn -0.0000 0.9701 -0.2425
vn 0.0005 0.9698 -0.2438
vn 0.0004 0.9709 -0.2393
vn 0.0001 0.9701 -0.2428
vn 0.0001 0.9702 -0.2424
vn -0.0001 0.9701 -0.2426
vn 0.9996 -0.0270 0.0000
vn 0.9998 -0.0214 -0.0000
vn 0.9997 -0.0236 0.0000
vn 0.9996 -0.0294 0.0000
vn 0.9961 -0.0882 0.0000
vn 0.9980 -0.0634 -0.0000
vn 0.9891 -0.1470 0.0000
vn 0.9937 -0.1119 -0.0000
vn 0.9789 -0.2044 0.0000
vn 0.9845 -0.1755 -0.0000
vn 0.9634 -0.2679 -0.0000
vn 0.9648 -0.2629 0.0000
vn 0.9625 -0.2713 0.0000
vn 0.9312 -0.3645 -0.0000
vn 0.9657 -0.2595 -0.0000
vn 0.8676 -0.4973 0.0000
vn 0.9141 -0.4055 -0.0000
vn 0.7668 -0.6419 -0.0000
vn 0.7934 -0.6087 -0.0000
vn 0.6087 -0.7934 0.0000
vn 0.6419 -0.7668 -0.0000
vn 0.4055 -0.9141 0.0000
vn 0.4973 -0.8676 -0.0000
vn 0.3645 -0.9312 0.0000
vn 0.2630 -0.9648 -0.0000
vn 0.2680 -0.9634 -0.0000
vn 0.2595 -0.9658 0.0000
vn 0.2713 -0.9625 -0.0000
vn 0.1755 -0.9845 0.0000
vn 0.2051 -0.9787 -0.0000
vn 0.1119 -0.9937 0.0000
vn 0.1464 -0.9892 -0.0000
vn 0.0633 -0.9980 0.0000
vn 0.0883 -0.9961 -0.0000
vn 0.0235 -0.9997 -0.0000
vn 0.0272 -0.9996 0.0000
vn 0.0211 -0.9998 -0.0000
vn 0.0294 -0.9996 -0.0000
vn -0.0000 -0.9700 -0.2430
vn 0.0000 -0.9701 -0.2426
vn -0.0001 -0.9702 -0.2425
vn -0.0001 -0.9702 -0.2423
vn -0.0001 -0.9701 -0.2428
vn -0.0005 -0.9698 -0.2441
vn 0.0000 -0.9701 -0.2425
vn -0.0001 -0.9700 -0.2429
vn -0.0002 -0.9704 -0.2415
vn -0.0001 -0.9703 -0.2420
vn 0.0001 -0.9701 -0.2426
vn -0.0001 -0.9701 -0.2425
vn -0.0001 -0.9701 -0.2426
vn 0.0000 -1.0000 -0.0000
vn 0.0000 -0.9701 0.2425
vn -0.0003 -0.9700 0.2431
vn 0.0000 -0.9706 0.2407
vn 0.0002 -0.9703 0.2419
vn -0.0002 -0.9702 0.2423
vn 0.0001 -0.9702 0.2425
vn 0.0001 -0.9701 0.2426
vn 0.0000 -0.9701 0.2428
vn -0.0000 -0.9701 0.2426
vn 0.0005 -0.9696 0.2445
vn 0.0000 -0.9698 0.2441
vn 0.0002 -0.9703 0.2420
vn -0.0000 -0.9702 0.2424
vn -0.9996 0.0270 0.0000
vn -0.9998 0.0214 0.0000
vn -0.9997 0.0236 0.0000
vn -0.9996 0.0294 0.0000
vn -0.9961 0.0882 0.0000
vn -0.9980 0.0634 -0.0000
vn -0.9892 0.1466 -0.0000
vn -0.9937 0.1119 -0.0000
vn -0.9789 0.2046 0.0000
vn -0.9845 0.1755 -0.0000
vn -0.9634 0.2679 -0.0000
vn -0.9648 0.2629 0.0000
vn -0.9625 0.2712 0.0000
vn -0.9312 0.3645 -0.0000
vn -0.9657 0.2595 -0.0000
vn -0.8676 0.4973 0.0000
vn -0.9141 0.4055 -0.0000
vn -0.7669 0.6418 0.0000
vn -0.7934 0.6086 -0.0000
vn -0.6086 0.7934 0.0000
vn -0.6418 0.7669 0.0000
vn -0.4055 0.9141 0.0000
vn -0.4973 0.8676 -0.0000
vn -0.3645 0.9312 0.0000
vn -0.2630 0.9648 -0.0000
vn -0.2679 0.9634 0.0000
vn -0.2595 0.9658 0.0000
vn -0.2713 0.9625 0.0000
vn -0.1755 0.9845 0.0000
vn -0.2045 0.9789 -0.0000
vn -0.1119 0.9937 0.0000
vn -0.1467 0.9892 0.0000
vn -0.0634 0.9980 0.0000
vn -0.0882 0.9961 -0.0000
vn -0.0235 0.9997 -0.0000
vn -0.0270 0.9996 -0.0000
vn -0.0211 0.9998 0.0000
vn -0.0291 0.9996 0.0000
vn -0.9996 -0.0270 -0.0000
vn -0.9998 -0.0210 0.0000
vn -0.9997 -0.0236 -0.0000
vn -0.9996 -0.0294 -0.0000
vn -0.9961 -0.0882 -0.0000
vn -0.9980 -0.0634 0.0000
vn -0.9892 -0.1464 0.0000
vn -0.9937 -0.1119 0.0000
vn -0.9789 -0.2044 -0.0000
vn -0.9845 -0.1755 0.0000
vn -0.9634 -0.2679 0.0000
vn -0.9648 -0.2629 -0.0000
vn -0.9625 -0.2713 -0.0000
vn -0.9312 -0.3645 0.0000
vn -0.9657 -0.2595 0.0000
vn -0.8676 -0.4973 -0.0000
vn -0.9141 -0.4055 0.0000
vn -0.7668 -0.6419 -0.0000
vn -0.7934 -0.6087 0.0000
vn -0.6087 -0.7934 -0.0000
vn -0.6419 -0.7668 -0.0000
vn -0.4055 -0.9141 -0.0000
vn -0.4973 -0.8676 0.0000
vn -0.3645 -0.9312 -0.0000
vn -0.2630 -0.9648 0.0000
vn -0.2680 -0.9634 0.0000
vn -0.2595 -0.9658 -0.0000
vn -0.2713 -0.9625 -0.0000
vn -0.1755 -0.9845 -0.0000
vn -0.2051 -0.9787 0.0000
vn -0.1119 -0.9937 -0.0000
vn -0.1469 -0.9892 -0.0000
vn -0.0634 -0.9980 -0.0000
vn -0.0882 -0.9961 0.0000
vn -0.0235 -0.9997 0.0000
vn -0.0272 -0.9996 0.0000
vn -0.0211 -0.9998 -0.0000
vn -0.0294 -0.9996 0.0000
vn 0.9702 -0.0000 -0.2425
vn 0.9701 0.0000 -0.2426
vn 0.9701 -0.0001 -0.2425
vn 0.9703 -0.0001 -0.2421
vn 0.9707 0.0000 -0.2402
vn 0.9686 -0.0002 -0.2486
vn 0.9701 -0.0000 -0.2425
vn 0.9703 0.0001 -0.2417
vn 0.9703 0.0003 -0.2421
vn 0.9702 0.0003 -0.2422
vn 0.9701 -0.0001 -0.2429
vn 0.9702 -0.0000 -0.2423
vn 0.9702 0.0001 -0.2425
vn 0.0000 0.0000 -1.0000
vn -0.9702 -0.0000 -0.2425
vn -0.9702 -0.0001 -0.2423
vn -0.9703 -0.0003 -0.2421
vn -0.9702 -0.0003 -0.2422
vn -0.9701 0.0000 -0.2426
vn -0.9701 0.0001 -0.2426
vn -0.9702 -0.0001 -0.2425
vn -0.9701 -0.0000 -0.2425
vn -0.9702 0.0000 -0.2424
vn -0.9707 0.0000 -0.2404
vn -0.9689 0.0002 -0.2473
vn -0.9703 0.0002 -0.2420
vn -0.9702 0.0001 -0.2424
vn -1.0000 0.0000 0.0000
vn 0.0000 0.0000 1.0000
vn -0.9702 -0.0000 0.2424
vn -0.9701 0.0002 0.2426
vn -0.9702 -0.0001 0.2425
vn -0.9699 -0.0002 0.2434
vn -0.9704 -0.0001 0.2416
vn -0.9708 -0.0002 0.2397
vn -0.9701 -0.0000 0.2425
vn -0.9707 0.0002 0.2403
vn -0.9702 0.0000 0.2425
vn -0.9702 0.0000 0.2422
vn -0.9701 0.0003 0.2426
vn -0.9700 -0.0000 0.2429
vn -0.9701 -0.0001 0.2426
vn -0.9702 0.0001 0.2425
vn 0.9701 -0.0000 0.2425
vn 0.9701 -0.0003 0.2427
vn 0.9707 -0.0002 0.2402
vn 0.9701 -0.0001 0.2426
vn 0.9702 -0.0002 0.2421
vn 0.9701 0.0000 0.2426
vn 0.9702 0.0001 0.2422
vn 0.9702 -0.0001 0.2425
vn 0.9702 0.0000 0.2425
vn 0.9702 -0.0000 0.2422
vn 0.9706 0.0001 0.2407
vn 0.9700 0.0001 0.2431
vn 0.9702 0.0001 0.2425
vn 0.9701 -0.0002 0.2426
vn 1.0000 0.0000 0.0000
usemtl material_1.605
s 1
f 1//1 2//2 3//3
f 1//1 3//3 4//4
f 5//5 4//5 6//5
f 5//6 1//6 4//6
f 7//7 6//7 8//7
f 7//8 5//8 6//8
f 9//9 8//9 10//9
f 9//10 7//10 8//10
f 11//11 10//12 12//13
f 11//14 12//14 13//14
f 11//11 9//15 10//12
f 14//16 13//16 15//16
f 14//17 11//17 13//17
f 16//18 15//18 17//18
f 16//19 14//19 15//19
f 18//20 17//20 19//20
f 18//21 16//21 17//21
f 20//22 19//22 21//22
f 20//23 18//23 19//23
f 22//24 20//24 21//24
f 23//25 21//26 24//27
f 23//25 22//28 21//26
f 25//29 24//29 26//29
f 25//30 23//30 24//30
f 27//31 26//31 28//31
f 27//32 25//32 26//32
f 29//33 28//33 30//33
f 29//34 27//34 28//34
f 31//35 30//36 32//37
f 31//35 29//38 30//36
usemtl material_0.616
f 33//39 34//40 35//41
f 33//39 36//42 34//40
f 33//39 37//43 36//42
f 33//39 38//44 37//43
f 39//39 33//39 35//41
f 40//45 33//39 39//39
f 27//46 29//47 31//45
f 25//48 27//46 31//45
f 23//49 25//48 31//45
f 22//50 23//49 31//45
f 20//51 22//50 31//45
f 18//52 20//51 31//45
f 16//45 31//45 33//39
f 16//45 33//39 40//45
f 16//45 18//52 31//45
f 41//45 40//45 42//45
f 41//45 16//45 40//45
f 31//53 32//53 43//53
f 31//53 43//53 33//53
f 43//54 44//55 45//56
f 43//54 46//57 44//55
f 43//54 47//58 46//57
f 43//54 48//59 47//58
f 43//54 49//60 48//59
f 43//54 50//61 49//60
f 43//54 51//62 50//61
f 17//62 52//62 53//62
f 17//62 53//62 51//62
f 32//54 19//54 17//62
f 32//54 51//62 43//54
f 32//54 17//62 51//62
f 28//63 32//54 30//64
f 26//65 32//54 28//63
f 21//66 19//54 32//54
f 24//67 21//66 32//54
f 24//67 32//54 26//65
f 54//68 55//69 56//70
f 54//68 56//70 57//71
f 58//72 57//72 59//72
f 58//73 54//73 57//73
f 60//74 59//74 61//74
f 60//75 58//75 59//75
f 62//76 61//76 63//76
f 62//77 60//77 61//77
f 64//78 63//79 65//80
f 64//81 65//81 66//81
f 64//78 62//82 63//79
f 67//83 66//83 68//83
f 67//84 64//84 66//84
f 69//85 68//85 70//85
f 69//86 67//86 68//86
f 71//87 70//87 72//87
f 71//88 69//88 70//88
f 73//89 72//89 74//89
f 73//90 71//90 72//90
f 75//91 73//91 74//91
f 76//92 74//93 77//94
f 76//92 75//95 74//93
f 78//96 77//96 79//96
f 78//97 76//97 77//97
f 80//98 79//98 81//98
f 80//99 78//99 79//99
f 82//100 81//100 83//100
f 82//101 80//101 81//101
f 84//102 83//103 85//104
f 84//102 82//105 83//103
f 86//106 87//107 88//108
f 86//106 89//109 87//107
f 86//106 90//110 89//109
f 86//106 91//111 90//110
f 92//107 86//106 88//108
f 93//112 86//106 92//107
f 80//113 82//114 84//112
f 78//115 80//113 84//112
f 76//116 78//115 84//112
f 75//117 76//116 84//112
f 73//118 75//117 84//112
f 71//118 73//118 84//112
f 69//112 84//112 86//106
f 69//112 86//106 93//112
f 69//112 71//118 84//112
f 94//112 93//112 95//112
f 94//112 69//112 93//112
f 84//119 85//119 96//119
f 84//119 96//119 86//119
f 96//120 97//121 98//122
f 96//120 99//123 97//121
f 96//120 100//124 99//123
f 96//120 101//125 100//124
f 96//120 102//126 101//125
f 96//120 103//126 102//126
f 96//120 104//120 103//126
f 70//120 105//120 106//120
f 70//120 106//120 104//120
f 85//127 72//128 70//120
f 85//127 104//120 96//120
f 85//127 70//120 104//120
f 81//129 85//127 83//130
f 79//131 85//127 81//129
f 74//125 72//128 85//127
f 77//132 74//125 85//127
f 77//132 85//127 79//131
f 107//133 108//134 109//135
f 107//133 109//135 110//136
f 111//137 110//137 112//137
f 111//138 107//138 110//138
f 113//139 112//139 114//139
f 113//140 111//140 112//140
f 115//141 114//141 116//141
f 115//142 113//142 114//142
f 117//143 116//144 118//145
f 117//146 118//146 119//146
f 117//143 115//147 116//144
f 120//148 119//148 121//148
f 120//149 117//149 119//149
f 51//150 121//150 40//150
f 51//151 120//151 121//151
f 50//152 40//152 39//152
f 50//153 51//153 40//153
f 49//154 39//154 35//154
f 49//155 50//155 39//155
f 48//156 49//156 35//156
f 47//157 35//158 34//159
f 47//157 48//160 35//158
f 46//161 34//161 36//161
f 46//162 47//162 34//162
f 44//163 36//163 37//163
f 44//164 46//164 36//164
f 45//165 37//165 38//165
f 45//166 44//166 37//166
f 43//167 38//168 33//169
f 43//167 45//170 38//168
f 122//171 123//172 124//173
f 122//171 124//173 125//174
f 126//175 125//175 127//175
f 126//176 122//176 125//176
f 128//177 127//177 129//177
f 128//178 126//178 127//178
f 130//179 129//179 131//179
f 130//180 128//180 129//180
f 132//181 131//182 133//183
f 132//184 133//184 134//184
f 132//181 130//185 131//182
f 135//186 134//186 136//186
f 135//187 132//187 134//187
f 104//188 136//188 93//188
f 104//189 135//189 136//189
f 103//190 93//190 92//190
f 103//191 104//191 93//191
f 102//192 92//192 88//192
f 102//193 103//193 92//193
f 101//194 102//194 88//194
f 100//195 88//196 87//197
f 100//195 101//198 88//196
f 99//199 87//199 89//199
f 99//200 100//200 87//200
f 97//201 89//201 90//201
f 97//202 99//202 89//202
f 98//203 90//203 91//203
f 98//204 97//204 90//204
f 96//205 91//206 86//207
f 96//205 98//208 91//206
f 55//209 62//210 64//211
f 55//209 60//212 62//210
f 55//209 58//213 60//212
f 55//209 54//214 58//213
f 67//215 55//209 64//211
f 69//215 55//209 67//215
f 6//216 4//217 3//209
f 8//218 6//216 3//209
f 10//219 8//218 3//209
f 12//210 10//219 3//209
f 13//220 12//210 3//209
f 15//221 13//220 3//209
f 17//215 3//209 55//209
f 17//215 55//209 69//215
f 17//215 15//221 3//209
f 52//215 69//215 94//215
f 52//215 17//215 69//215
f 52//222 94//222 95//222
f 52//222 95//222 53//222
f 124//223 127//224 125//225
f 124//223 129//226 127//224
f 124//223 131//227 129//226
f 124//223 133//227 131//227
f 124//223 134//228 133//227
f 124//223 136//229 134//228
f 124//223 93//230 136//229
f 51//230 53//230 95//230
f 51//230 95//230 93//230
f 108//231 120//230 51//230
f 108//231 93//230 124//223
f 108//231 51//230 93//230
f 111//232 108//231 107//233
f 113//234 108//231 111//232
f 117//235 120//230 108//231
f 115//227 117//235 108//231
f 115//227 108//231 113//234
f 109//236 108//236 124//236
f 109//236 124//236 123//236
f 105//237 41//237 42//237
f 105//237 42//237 106//237
f 123//238 130//239 132//240
f 123//238 128//241 130//239
f 123//238 126//242 128//241
f 123//238 122//243 126//242
f 135//244 123//238 132//240
f 104//244 123//238 135//244
f 112//238 110//245 109//246
f 114//247 112//238 109//246
f 116//248 114//247 109//246
f 118//249 116//248 109//246
f 119//250 118//249 109//246
f 121//251 119//250 109//246
f 40//244 109//246 123//238
f 40//244 104//244 106//244
f 40//244 123//238 104//244
f 40//244 121//251 109//246
f 42//244 40//244 106//244
f 56//252 59//253 57//254
f 56//252 61//255 59//253
f 56//252 63//256 61//255
f 56//252 65//257 63//256
f 56//252 66//258 65//257
f 56//252 68//259 66//258
f 56//252 70//252 68//259
f 16//252 41//252 105//252
f 16//252 105//252 70//252
f 16//252 70//252 56//252
f 2//260 14//252 16//252
f 2//260 16//252 56//252
f 5//261 2//260 1//262
f 7//263 2//260 5//261
f 11//264 14//252 2//260
f 9//265 11//264 2//260
f 9//265 2//260 7//263
f 3//266 2//266 56//266
f 3//266 56//266 55//266
