# Blender v2.81 (sub 16) OBJ File: ''
# www.blender.org
mtllib 66-Pin Shrouded Header (IDC) Straight.mtl
o 66-Pin_Shrouded_Header_(IDC)_Straight
v 0.000502 0.000463 0.009389
v 0.000502 0.000462 0.009389
v 0.000502 0.000462 -0.009389
v 0.000502 0.000464 -0.009389
v 0.000502 0.000465 0.009389
v 0.000501 0.000466 -0.009390
v 0.000501 0.000467 0.009390
v 0.000501 0.000469 -0.009391
v 0.000501 0.000470 0.009392
v 0.000501 0.000471 -0.009393
v 0.000500 0.000474 0.009396
v 0.000500 0.000474 -0.009397
v 0.000498 0.000478 -0.009403
v 0.000496 0.000482 0.009410
v 0.000494 0.000484 -0.009417
v 0.000490 0.000490 0.009436
v 0.000490 0.000490 -0.009436
v 0.000484 0.000494 0.009417
v 0.000482 0.000496 -0.009410
v 0.000478 0.000498 0.009403
v 0.000474 0.000500 -0.009396
v 0.000474 0.000500 0.009397
v 0.000471 0.000501 0.009393
v 0.000470 0.000501 -0.009392
v 0.000469 0.000501 0.009391
v 0.000467 0.000501 -0.009390
v 0.000466 0.000501 0.009390
v 0.000465 0.000502 -0.009389
v 0.000464 0.000502 0.009389
v 0.000463 0.000502 -0.009389
v 0.000462 0.000502 0.009389
v 0.000462 0.000502 -0.009389
v -0.000462 0.000502 0.009389
v -0.000470 0.000501 0.009392
v -0.000474 0.000500 0.009396
v -0.000467 0.000501 0.009390
v -0.000465 0.000502 0.009389
v -0.000463 0.000502 0.009389
v -0.000482 0.000496 0.009410
v -0.000490 0.000490 0.009436
v 0.000301 0.000301 0.010191
v -0.000301 0.000301 0.010191
v -0.000462 0.000502 -0.009389
v -0.000466 0.000501 -0.009390
v -0.000464 0.000502 -0.009389
v -0.000469 0.000501 -0.009391
v -0.000471 0.000501 -0.009393
v -0.000474 0.000500 -0.009397
v -0.000478 0.000498 -0.009403
v -0.000484 0.000494 -0.009417
v -0.000490 0.000490 -0.009436
v 0.000301 0.000301 -0.010191
v -0.000301 0.000301 -0.010191
v 0.000502 -0.000463 -0.009389
v 0.000502 -0.000462 -0.009389
v 0.000502 -0.000462 0.009389
v 0.000502 -0.000464 0.009389
v 0.000502 -0.000465 -0.009389
v 0.000501 -0.000466 0.009390
v 0.000501 -0.000467 -0.009390
v 0.000501 -0.000469 0.009391
v 0.000501 -0.000470 -0.009392
v 0.000501 -0.000471 0.009393
v 0.000500 -0.000474 -0.009396
v 0.000500 -0.000474 0.009397
v 0.000498 -0.000478 0.009403
v 0.000496 -0.000482 -0.009410
v 0.000494 -0.000484 0.009417
v 0.000490 -0.000490 -0.009436
v 0.000490 -0.000490 0.009436
v 0.000484 -0.000494 -0.009417
v 0.000482 -0.000496 0.009410
v 0.000478 -0.000498 -0.009403
v 0.000474 -0.000500 0.009396
v 0.000474 -0.000500 -0.009397
v 0.000471 -0.000501 -0.009393
v 0.000470 -0.000501 0.009392
v 0.000469 -0.000501 -0.009391
v 0.000467 -0.000501 0.009390
v 0.000466 -0.000501 -0.009390
v 0.000465 -0.000502 0.009389
v 0.000464 -0.000502 -0.009389
v 0.000463 -0.000502 0.009389
v 0.000462 -0.000502 -0.009389
v 0.000462 -0.000502 0.009389
v -0.000462 -0.000502 -0.009389
v -0.000470 -0.000501 -0.009392
v -0.000474 -0.000500 -0.009396
v -0.000467 -0.000501 -0.009390
v -0.000465 -0.000502 -0.009389
v -0.000463 -0.000502 -0.009389
v -0.000482 -0.000496 -0.009410
v -0.000490 -0.000490 -0.009436
v 0.000301 -0.000301 -0.010191
v -0.000301 -0.000301 -0.010191
v -0.000462 -0.000502 0.009389
v -0.000466 -0.000501 0.009390
v -0.000464 -0.000502 0.009389
v -0.000469 -0.000501 0.009391
v -0.000471 -0.000501 0.009393
v -0.000474 -0.000500 0.009397
v -0.000478 -0.000498 0.009403
v -0.000484 -0.000494 0.009417
v -0.000490 -0.000490 0.009436
v 0.000301 -0.000301 0.010191
v -0.000301 -0.000301 0.010191
v -0.000502 0.000463 -0.009389
v -0.000502 0.000462 -0.009389
v -0.000502 0.000462 0.009389
v -0.000502 0.000464 0.009389
v -0.000502 0.000465 -0.009389
v -0.000501 0.000466 0.009390
v -0.000501 0.000467 -0.009390
v -0.000501 0.000469 0.009391
v -0.000501 0.000470 -0.009392
v -0.000501 0.000471 0.009393
v -0.000500 0.000474 -0.009396
v -0.000500 0.000474 0.009397
v -0.000498 0.000478 0.009403
v -0.000496 0.000482 -0.009410
v -0.000494 0.000484 0.009417
v -0.000502 -0.000463 0.009389
v -0.000502 -0.000462 0.009389
v -0.000502 -0.000462 -0.009389
v -0.000502 -0.000464 -0.009389
v -0.000502 -0.000465 0.009389
v -0.000501 -0.000466 -0.009390
v -0.000501 -0.000467 0.009390
v -0.000501 -0.000469 -0.009391
v -0.000501 -0.000470 0.009392
v -0.000501 -0.000471 -0.009393
v -0.000500 -0.000474 0.009396
v -0.000500 -0.000474 -0.009397
v -0.000498 -0.000478 -0.009403
v -0.000496 -0.000482 0.009410
v -0.000494 -0.000484 -0.009417
vn 0.9995 0.0308 0.0000
vn 0.9997 0.0258 0.0000
vn 0.9997 0.0233 0.0000
vn 0.9996 0.0294 -0.0000
vn 0.9961 0.0886 -0.0000
vn 0.9982 0.0600 0.0000
vn 0.9894 0.1453 0.0000
vn 0.9937 0.1124 0.0000
vn 0.9786 0.2060 -0.0000
vn 0.9843 0.1764 0.0000
vn 0.9638 0.2667 0.0000
vn 0.9647 0.2634 -0.0000
vn 0.9624 0.2717 -0.0000
vn 0.9311 0.3648 0.0000
vn 0.9660 0.2584 -0.0000
vn 0.8678 0.4969 -0.0000
vn 0.9140 0.4057 0.0000
vn 0.7668 0.6419 0.0000
vn 0.7935 0.6085 0.0000
vn 0.6086 0.7934 -0.0000
vn 0.6421 0.7666 0.0000
vn 0.4059 0.9139 -0.0000
vn 0.4970 0.8678 0.0000
vn 0.3646 0.9312 -0.0000
vn 0.2628 0.9648 0.0000
vn 0.2679 0.9634 0.0000
vn 0.2596 0.9657 -0.0000
vn 0.2711 0.9626 0.0000
vn 0.1754 0.9845 -0.0000
vn 0.2045 0.9789 0.0000
vn 0.1119 0.9937 -0.0000
vn 0.1477 0.9890 0.0000
vn 0.0634 0.9980 -0.0000
vn 0.0881 0.9961 0.0000
vn 0.0235 0.9997 -0.0000
vn 0.0271 0.9996 -0.0000
vn 0.0214 0.9998 0.0000
vn 0.0294 0.9996 0.0000
vn -0.0000 0.9702 0.2425
vn 0.0001 0.9701 0.2429
vn -0.0003 0.9702 0.2423
vn -0.0002 0.9701 0.2427
vn -0.0000 0.9697 0.2443
vn -0.0001 0.9702 0.2425
vn -0.0000 0.9701 0.2425
vn 0.0001 0.9702 0.2424
vn -0.0000 0.9702 0.2421
vn -0.0000 0.9703 0.2419
vn 0.0000 0.9702 0.2423
vn -0.0001 0.9701 0.2427
vn 0.0002 0.9702 0.2425
vn 0.0000 1.0000 0.0000
vn -0.0000 0.9701 -0.2425
vn 0.0002 0.9705 -0.2409
vn -0.0002 0.9701 -0.2428
vn 0.0002 0.9701 -0.2428
vn -0.0001 0.9702 -0.2424
vn 0.0001 0.9701 -0.2426
vn -0.0002 0.9702 -0.2425
vn 0.0000 0.9702 -0.2425
vn 0.0001 0.9702 -0.2425
vn 0.0004 0.9705 -0.2410
vn -0.0001 0.9695 -0.2450
vn 0.0001 0.9703 -0.2420
vn 0.0000 0.9701 -0.2426
vn 0.9996 -0.0269 -0.0000
vn 0.9998 -0.0214 -0.0000
vn 0.9997 -0.0248 -0.0000
vn 0.9995 -0.0309 0.0000
vn 0.9960 -0.0893 -0.0000
vn 0.9982 -0.0600 -0.0000
vn 0.9892 -0.1466 0.0000
vn 0.9939 -0.1105 0.0000
vn 0.9784 -0.2066 0.0000
vn 0.9843 -0.1764 -0.0000
vn 0.9639 -0.2661 0.0000
vn 0.9647 -0.2632 0.0000
vn 0.9625 -0.2712 -0.0000
vn 0.9311 -0.3648 -0.0000
vn 0.9663 -0.2574 0.0000
vn 0.8678 -0.4969 0.0000
vn 0.9140 -0.4057 -0.0000
vn 0.7668 -0.6419 -0.0000
vn 0.7935 -0.6085 -0.0000
vn 0.6086 -0.7934 0.0000
vn 0.6424 -0.7664 -0.0000
vn 0.4054 -0.9141 0.0000
vn 0.4968 -0.8678 0.0000
vn 0.3646 -0.9312 0.0000
vn 0.2628 -0.9648 -0.0000
vn 0.2682 -0.9634 0.0000
vn 0.2596 -0.9657 0.0000
vn 0.2711 -0.9626 -0.0000
vn 0.1754 -0.9845 0.0000
vn 0.2045 -0.9789 -0.0000
vn 0.1119 -0.9937 0.0000
vn 0.1472 -0.9891 -0.0000
vn 0.0634 -0.9980 0.0000
vn 0.0881 -0.9961 -0.0000
vn 0.0235 -0.9997 0.0000
vn 0.0272 -0.9996 0.0000
vn 0.0214 -0.9998 -0.0000
vn 0.0294 -0.9996 -0.0000
vn -0.0000 -0.9702 -0.2425
vn 0.0002 -0.9700 -0.2431
vn -0.0001 -0.9702 -0.2425
vn -0.0002 -0.9703 -0.2418
vn -0.0004 -0.9702 -0.2425
vn 0.0001 -0.9701 -0.2428
vn -0.0000 -0.9701 -0.2425
vn -0.0002 -0.9702 -0.2422
vn 0.0000 -0.9701 -0.2427
vn 0.0002 -0.9700 -0.2430
vn -0.0001 -0.9701 -0.2425
vn 0.0001 -0.9702 -0.2424
vn -0.0001 -0.9701 -0.2427
vn 0.0002 -0.9702 -0.2425
vn 0.0000 -1.0000 -0.0000
vn -0.0000 -0.9701 0.2425
vn -0.0001 -0.9705 0.2411
vn 0.0003 -0.9701 0.2428
vn -0.0003 -0.9701 0.2425
vn 0.0003 -0.9700 0.2431
vn -0.0001 -0.9702 0.2424
vn 0.0001 -0.9701 0.2426
vn -0.0002 -0.9702 0.2425
vn 0.0000 -0.9702 0.2425
vn 0.0001 -0.9702 0.2425
vn 0.0004 -0.9702 0.2422
vn -0.0002 -0.9695 0.2452
vn 0.0003 -0.9701 0.2426
vn -0.0001 -0.9701 0.2429
vn -0.9996 0.0267 -0.0000
vn -0.9998 0.0215 0.0000
vn -0.9998 0.0221 -0.0000
vn -0.9996 0.0275 -0.0000
vn -0.9958 0.0916 -0.0000
vn -0.9980 0.0634 -0.0000
vn -0.9896 0.1441 0.0000
vn -0.9937 0.1119 -0.0000
vn -0.9790 0.2038 0.0000
vn -0.9844 0.1761 -0.0000
vn -0.9632 0.2686 -0.0000
vn -0.9648 0.2630 -0.0000
vn -0.9624 0.2718 0.0000
vn -0.9311 0.3648 -0.0000
vn -0.9656 0.2600 -0.0000
vn -0.8678 0.4969 0.0000
vn -0.9140 0.4058 -0.0000
vn -0.7668 0.6419 0.0000
vn -0.7935 0.6086 -0.0000
vn -0.6091 0.7931 -0.0000
vn -0.6415 0.7671 0.0000
vn -0.4056 0.9141 0.0000
vn -0.4968 0.8678 0.0000
vn -0.3646 0.9312 0.0000
vn -0.2630 0.9648 -0.0000
vn -0.2679 0.9634 0.0000
vn -0.2596 0.9657 0.0000
vn -0.2714 0.9625 -0.0000
vn -0.1752 0.9845 0.0000
vn -0.2047 0.9788 -0.0000
vn -0.1117 0.9937 0.0000
vn -0.1464 0.9892 0.0000
vn -0.0633 0.9980 0.0000
vn -0.0882 0.9961 -0.0000
vn -0.0236 0.9997 0.0000
vn -0.0271 0.9996 0.0000
vn -0.0215 0.9998 0.0000
vn -0.0294 0.9996 -0.0000
vn -0.9999 -0.0172 -0.0000
vn -0.9999 -0.0164 -0.0000
vn -0.9997 -0.0240 0.0000
vn -0.9996 -0.0295 -0.0000
vn -0.9957 -0.0922 -0.0000
vn -0.9957 -0.0921 0.0000
vn -0.9980 -0.0638 -0.0000
vn -0.9894 -0.1451 -0.0000
vn -0.9940 -0.1096 -0.0000
vn -0.9786 -0.2058 -0.0000
vn -0.9844 -0.1761 0.0000
vn -0.9634 -0.2679 0.0000
vn -0.9649 -0.2627 0.0000
vn -0.9624 -0.2718 -0.0000
vn -0.9309 -0.3654 0.0000
vn -0.9657 -0.2595 0.0000
vn -0.8678 -0.4969 -0.0000
vn -0.9140 -0.4058 0.0000
vn -0.7668 -0.6419 -0.0000
vn -0.7935 -0.6086 0.0000
vn -0.6086 -0.7934 -0.0000
vn -0.6415 -0.7671 -0.0000
vn -0.4056 -0.9141 -0.0000
vn -0.4970 -0.8678 0.0000
vn -0.3646 -0.9312 -0.0000
vn -0.2630 -0.9648 0.0000
vn -0.2680 -0.9634 0.0000
vn -0.2596 -0.9657 -0.0000
vn -0.2714 -0.9625 0.0000
vn -0.1752 -0.9845 -0.0000
vn -0.2047 -0.9788 0.0000
vn -0.1121 -0.9937 -0.0000
vn -0.1464 -0.9892 0.0000
vn -0.0633 -0.9980 -0.0000
vn -0.0882 -0.9961 0.0000
vn -0.0236 -0.9997 -0.0000
vn -0.0271 -0.9996 -0.0000
vn -0.0215 -0.9998 -0.0000
vn -0.0294 -0.9996 0.0000
vn 0.9709 0.0004 -0.2394
vn 0.9702 -0.0011 -0.2423
vn 0.9702 0.0006 -0.2425
vn 0.9693 0.0006 -0.2457
vn 0.9712 0.0015 -0.2382
vn 0.9714 -0.0016 -0.2374
vn 0.9702 -0.0001 -0.2424
vn 0.9702 -0.0000 -0.2425
vn 0.9699 -0.0014 -0.2434
vn 0.9703 0.0018 -0.2417
vn 0.9702 0.0011 -0.2422
vn 0.9699 -0.0005 -0.2435
vn 0.9703 -0.0005 -0.2418
vn 0.9702 0.0001 -0.2424
vn 0.9701 -0.0002 -0.2426
vn 0.9701 -0.0000 -0.2425
vn 0.0000 0.0000 -1.0000
vn -0.9699 -0.0017 -0.2434
vn -0.9693 -0.0033 -0.2457
vn -0.9691 0.0014 -0.2466
vn -0.9708 -0.0000 -0.2399
vn -0.9704 -0.0005 -0.2415
vn -0.9701 0.0000 -0.2426
vn -0.9702 -0.0004 -0.2423
vn -0.9701 -0.0000 -0.2425
vn -0.9703 -0.0011 -0.2421
vn -0.9702 0.0003 -0.2424
vn -0.9701 -0.0014 -0.2427
vn -0.9691 -0.0012 -0.2467
vn -0.9706 -0.0006 -0.2408
vn -0.9701 -0.0015 -0.2426
vn -0.9702 -0.0015 -0.2425
vn -1.0000 0.0000 0.0000
vn 0.0000 0.0000 1.0000
vn -0.9704 0.0004 0.2416
vn -0.9702 0.0016 0.2422
vn -0.9701 0.0002 0.2428
vn -0.9706 0.0006 0.2408
vn -0.9698 0.0010 0.2439
vn -0.9698 0.0000 0.2439
vn -0.9702 -0.0003 0.2423
vn -0.9701 -0.0000 0.2425
vn -0.9694 0.0022 0.2455
vn -0.9689 -0.0044 0.2473
vn -0.9701 0.0001 0.2426
vn -0.9707 -0.0002 0.2403
vn -0.9704 0.0003 0.2417
vn -0.9701 -0.0000 0.2426
vn -0.9701 -0.0003 0.2427
vn 0.9702 0.0000 0.2425
vn 0.9701 0.0023 0.2428
vn 0.9702 -0.0037 0.2423
vn 0.9701 -0.0010 0.2427
vn 0.9699 -0.0007 0.2437
vn 0.9704 0.0003 0.2416
vn 0.9701 0.0010 0.2427
vn 0.9701 -0.0003 0.2426
vn 0.9701 0.0000 0.2425
vn 0.9710 -0.0003 0.2391
vn 0.9702 0.0001 0.2424
vn 0.9710 0.0014 0.2392
vn 0.9722 -0.0018 0.2343
vn 0.9693 -0.0002 0.2460
vn 0.9701 -0.0011 0.2426
vn 0.9702 0.0018 0.2424
vn 1.0000 0.0000 0.0000
usemtl material_1.733
s 1
f 1//1 2//2 3//3
f 1//1 3//3 4//4
f 5//5 4//5 6//5
f 5//6 1//6 4//6
f 7//7 6//7 8//7
f 7//8 5//8 6//8
f 9//9 8//9 10//9
f 9//10 7//10 8//10
f 11//11 10//12 12//13
f 11//14 12//14 13//14
f 11//11 9//15 10//12
f 14//16 13//16 15//16
f 14//17 11//17 13//17
f 16//18 15//18 17//18
f 16//19 14//19 15//19
f 18//20 17//20 19//20
f 18//21 16//21 17//21
f 20//22 19//22 21//22
f 20//23 18//23 19//23
f 22//24 20//24 21//24
f 23//25 21//26 24//27
f 23//25 22//28 21//26
f 25//29 24//29 26//29
f 25//30 23//30 24//30
f 27//31 26//31 28//31
f 27//32 25//32 26//32
f 29//33 28//33 30//33
f 29//34 27//34 28//34
f 31//35 30//36 32//37
f 31//35 29//38 30//36
usemtl material_0.747
f 33//39 34//40 35//39
f 33//39 36//41 34//40
f 33//39 37//42 36//41
f 33//39 38//43 37//42
f 39//44 33//39 35//39
f 40//45 33//39 39//44
f 27//46 29//47 31//45
f 25//48 27//46 31//45
f 23//49 25//48 31//45
f 22//46 23//49 31//45
f 20//50 22//46 31//45
f 18//51 20//50 31//45
f 16//45 31//45 33//39
f 16//45 33//39 40//45
f 16//45 18//51 31//45
f 41//45 40//45 42//45
f 41//45 16//45 40//45
f 31//52 32//52 43//52
f 31//52 43//52 33//52
f 43//53 44//54 45//53
f 43//53 46//55 44//54
f 43//53 47//56 46//55
f 43//53 48//57 47//56
f 43//53 49//58 48//57
f 43//53 50//59 49//58
f 43//53 51//53 50//59
f 17//53 52//53 53//53
f 17//53 53//53 51//53
f 32//60 19//61 17//53
f 32//60 51//53 43//53
f 32//60 17//53 51//53
f 28//62 32//60 30//63
f 26//53 32//60 28//62
f 21//64 19//61 32//60
f 24//65 21//64 32//60
f 24//65 32//60 26//53
f 54//66 55//67 56//68
f 54//66 56//68 57//69
f 58//70 57//70 59//70
f 58//71 54//71 57//71
f 60//72 59//72 61//72
f 60//73 58//73 59//73
f 62//74 61//74 63//74
f 62//75 60//75 61//75
f 64//76 63//77 65//78
f 64//79 65//79 66//79
f 64//76 62//80 63//77
f 67//81 66//81 68//81
f 67//82 64//82 66//82
f 69//83 68//83 70//83
f 69//84 67//84 68//84
f 71//85 70//85 72//85
f 71//86 69//86 70//86
f 73//87 72//87 74//87
f 73//88 71//88 72//88
f 75//89 73//89 74//89
f 76//90 74//91 77//92
f 76//90 75//93 74//91
f 78//94 77//94 79//94
f 78//95 76//95 77//95
f 80//96 79//96 81//96
f 80//97 78//97 79//97
f 82//98 81//98 83//98
f 82//99 80//99 81//99
f 84//100 83//101 85//102
f 84//100 82//103 83//101
f 86//104 87//105 88//106
f 86//104 89//107 87//105
f 86//104 90//108 89//107
f 86//104 91//109 90//108
f 92//106 86//104 88//106
f 93//110 86//104 92//106
f 80//111 82//112 84//110
f 78//113 80//111 84//110
f 76//114 78//113 84//110
f 75//115 76//114 84//110
f 73//116 75//115 84//110
f 71//117 73//116 84//110
f 69//110 84//110 86//104
f 69//110 86//104 93//110
f 69//110 71//117 84//110
f 94//110 93//110 95//110
f 94//110 69//110 93//110
f 84//118 85//118 96//118
f 84//118 96//118 86//118
f 96//119 97//120 98//121
f 96//119 99//122 97//120
f 96//119 100//123 99//122
f 96//119 101//124 100//123
f 96//119 102//125 101//124
f 96//119 103//126 102//125
f 96//119 104//119 103//126
f 70//119 105//119 106//119
f 70//119 106//119 104//119
f 85//127 72//128 70//119
f 85//127 104//119 96//119
f 85//127 70//119 104//119
f 81//129 85//127 83//130
f 79//131 85//127 81//129
f 74//119 72//128 85//127
f 77//132 74//119 85//127
f 77//132 85//127 79//131
f 107//133 108//134 109//135
f 107//133 109//135 110//136
f 111//137 110//137 112//137
f 111//138 107//138 110//138
f 113//139 112//139 114//139
f 113//140 111//140 112//140
f 115//141 114//141 116//141
f 115//142 113//142 114//142
f 117//143 116//144 118//145
f 117//146 118//146 119//146
f 117//143 115//147 116//144
f 120//148 119//148 121//148
f 120//149 117//149 119//149
f 51//150 121//150 40//150
f 51//151 120//151 121//151
f 50//152 40//152 39//152
f 50//153 51//153 40//153
f 49//154 39//154 35//154
f 49//155 50//155 39//155
f 48//156 49//156 35//156
f 47//157 35//158 34//159
f 47//157 48//160 35//158
f 46//161 34//161 36//161
f 46//162 47//162 34//162
f 44//163 36//163 37//163
f 44//164 46//164 36//164
f 45//165 37//165 38//165
f 45//166 44//166 37//166
f 43//167 38//168 33//169
f 43//167 45//170 38//168
f 122//171 123//172 124//173
f 122//171 124//173 125//174
f 126//175 125//176 127//175
f 126//177 122//177 125//177
f 128//178 127//178 129//178
f 128//179 126//179 127//179
f 130//180 129//180 131//180
f 130//181 128//181 129//181
f 132//182 131//183 133//184
f 132//185 133//185 134//185
f 132//182 130//186 131//183
f 135//187 134//187 136//187
f 135//188 132//188 134//188
f 104//189 136//189 93//189
f 104//190 135//190 136//190
f 103//191 93//191 92//191
f 103//192 104//192 93//192
f 102//193 92//193 88//193
f 102//194 103//194 92//194
f 101//195 102//195 88//195
f 100//196 88//197 87//198
f 100//196 101//199 88//197
f 99//200 87//200 89//200
f 99//201 100//201 87//201
f 97//202 89//202 90//202
f 97//203 99//203 89//203
f 98//204 90//204 91//204
f 98//205 97//205 90//205
f 96//206 91//207 86//208
f 96//206 98//209 91//207
f 55//210 62//211 64//212
f 55//210 60//213 62//211
f 55//210 58//214 60//213
f 55//210 54//215 58//214
f 67//216 55//210 64//212
f 69//217 55//210 67//216
f 6//218 4//219 3//217
f 8//220 6//218 3//217
f 10//221 8//220 3//217
f 12//222 10//221 3//217
f 13//223 12//222 3//217
f 15//224 13//223 3//217
f 17//225 3//217 55//210
f 17//225 55//210 69//217
f 17//225 15//224 3//217
f 52//225 69//217 94//225
f 52//225 17//225 69//217
f 52//226 94//226 95//226
f 52//226 95//226 53//226
f 124//227 127//228 125//229
f 124//227 129//230 127//228
f 124//227 131//231 129//230
f 124//227 133//232 131//231
f 124//227 134//233 133//232
f 124//227 136//234 134//233
f 124//227 93//234 136//234
f 51//234 53//234 95//234
f 51//234 95//234 93//234
f 108//235 120//236 51//234
f 108//235 93//234 124//227
f 108//235 51//234 93//234
f 111//237 108//235 107//238
f 113//239 108//235 111//237
f 117//240 120//236 108//235
f 115//241 117//240 108//235
f 115//241 108//235 113//239
f 109//242 108//242 124//242
f 109//242 124//242 123//242
f 105//243 41//243 42//243
f 105//243 42//243 106//243
f 123//244 130//245 132//246
f 123//244 128//247 130//245
f 123//244 126//248 128//247
f 123//244 122//249 126//248
f 135//250 123//244 132//246
f 104//251 123//244 135//250
f 112//252 110//253 109//254
f 114//255 112//252 109//254
f 116//256 114//255 109//254
f 118//257 116//256 109//254
f 119//258 118//257 109//254
f 121//251 119//258 109//254
f 40//251 109//254 123//244
f 40//251 104//251 106//251
f 40//251 123//244 104//251
f 40//251 121//251 109//254
f 42//251 40//251 106//251
f 56//259 59//260 57//261
f 56//259 61//262 59//260
f 56//259 63//263 61//262
f 56//259 65//264 63//263
f 56//259 66//265 65//264
f 56//259 68//266 66//265
f 56//259 70//267 68//266
f 16//259 41//267 105//267
f 16//259 105//267 70//267
f 16//259 70//267 56//259
f 2//268 14//269 16//259
f 2//268 16//259 56//259
f 5//270 2//268 1//271
f 7//272 2//268 5//270
f 11//273 14//269 2//268
f 9//274 11//273 2//268
f 9//274 2//268 7//272
f 3//275 2//275 56//275
f 3//275 56//275 55//275
