# Blender v2.81 (sub 16) OBJ File: ''
# www.blender.org
mtllib 70-Pin Shrouded Header (IDC) Straight.mtl
o 70-Pin_Shrouded_Header_(IDC)_Straight
v 0.000503 0.000464 0.009408
v 0.000503 0.000462 0.009408
v 0.000503 0.000462 -0.009408
v 0.000503 0.000465 -0.009408
v 0.000503 0.000466 0.009409
v 0.000502 0.000467 -0.009409
v 0.000502 0.000468 0.009410
v 0.000502 0.000470 -0.009411
v 0.000502 0.000471 0.009412
v 0.000502 0.000472 -0.009412
v 0.000501 0.000475 0.009416
v 0.000501 0.000475 -0.009416
v 0.000499 0.000479 -0.009423
v 0.000497 0.000483 0.009430
v 0.000495 0.000485 -0.009437
v 0.000491 0.000491 0.009455
v 0.000491 0.000491 -0.009455
v 0.000485 0.000495 0.009437
v 0.000483 0.000497 -0.009430
v 0.000479 0.000499 0.009423
v 0.000475 0.000501 -0.009416
v 0.000475 0.000501 0.009416
v 0.000472 0.000502 0.009412
v 0.000471 0.000502 -0.009412
v 0.000470 0.000502 0.009411
v 0.000468 0.000502 -0.009410
v 0.000467 0.000502 0.009409
v 0.000466 0.000503 -0.009409
v 0.000465 0.000503 0.009408
v 0.000464 0.000503 -0.009408
v 0.000462 0.000503 0.009408
v 0.000462 0.000503 -0.009408
v -0.000462 0.000503 0.009408
v -0.000471 0.000502 0.009412
v -0.000475 0.000501 0.009416
v -0.000468 0.000502 0.009410
v -0.000466 0.000503 0.009409
v -0.000464 0.000503 0.009408
v -0.000483 0.000497 0.009430
v -0.000491 0.000491 0.009455
v 0.000302 0.000302 0.010212
v -0.000302 0.000302 0.010212
v -0.000462 0.000503 -0.009408
v -0.000467 0.000502 -0.009409
v -0.000465 0.000503 -0.009408
v -0.000470 0.000502 -0.009411
v -0.000472 0.000502 -0.009412
v -0.000475 0.000501 -0.009416
v -0.000479 0.000499 -0.009423
v -0.000485 0.000495 -0.009437
v -0.000491 0.000491 -0.009455
v 0.000302 0.000302 -0.010212
v -0.000302 0.000302 -0.010212
v 0.000503 -0.000464 -0.009408
v 0.000503 -0.000462 -0.009408
v 0.000503 -0.000462 0.009408
v 0.000503 -0.000465 0.009408
v 0.000503 -0.000466 -0.009409
v 0.000502 -0.000467 0.009409
v 0.000502 -0.000468 -0.009410
v 0.000502 -0.000470 0.009411
v 0.000502 -0.000471 -0.009412
v 0.000502 -0.000472 0.009412
v 0.000501 -0.000475 -0.009416
v 0.000501 -0.000475 0.009416
v 0.000499 -0.000479 0.009423
v 0.000497 -0.000483 -0.009430
v 0.000495 -0.000485 0.009437
v 0.000491 -0.000491 -0.009455
v 0.000491 -0.000491 0.009455
v 0.000485 -0.000495 -0.009437
v 0.000483 -0.000497 0.009430
v 0.000479 -0.000499 -0.009423
v 0.000475 -0.000501 0.009416
v 0.000475 -0.000501 -0.009416
v 0.000472 -0.000502 -0.009412
v 0.000471 -0.000502 0.009412
v 0.000470 -0.000502 -0.009411
v 0.000468 -0.000502 0.009410
v 0.000467 -0.000502 -0.009409
v 0.000466 -0.000503 0.009409
v 0.000465 -0.000503 -0.009408
v 0.000464 -0.000503 0.009408
v 0.000462 -0.000503 -0.009408
v 0.000462 -0.000503 0.009408
v -0.000462 -0.000503 -0.009408
v -0.000471 -0.000502 -0.009412
v -0.000475 -0.000501 -0.009416
v -0.000468 -0.000502 -0.009410
v -0.000466 -0.000503 -0.009409
v -0.000464 -0.000503 -0.009408
v -0.000483 -0.000497 -0.009430
v -0.000491 -0.000491 -0.009455
v 0.000302 -0.000302 -0.010212
v -0.000302 -0.000302 -0.010212
v -0.000462 -0.000503 0.009408
v -0.000467 -0.000502 0.009409
v -0.000465 -0.000503 0.009408
v -0.000470 -0.000502 0.009411
v -0.000472 -0.000502 0.009412
v -0.000475 -0.000501 0.009416
v -0.000479 -0.000499 0.009423
v -0.000485 -0.000495 0.009437
v -0.000491 -0.000491 0.009455
v 0.000302 -0.000302 0.010212
v -0.000302 -0.000302 0.010212
v -0.000503 0.000464 -0.009408
v -0.000503 0.000462 -0.009408
v -0.000503 0.000462 0.009408
v -0.000503 0.000465 0.009408
v -0.000503 0.000466 -0.009409
v -0.000502 0.000467 0.009409
v -0.000502 0.000468 -0.009410
v -0.000502 0.000470 0.009411
v -0.000502 0.000471 -0.009412
v -0.000502 0.000472 0.009412
v -0.000501 0.000475 -0.009416
v -0.000501 0.000475 0.009416
v -0.000499 0.000479 0.009423
v -0.000497 0.000483 -0.009430
v -0.000495 0.000485 0.009437
v -0.000503 -0.000464 0.009408
v -0.000503 -0.000462 0.009408
v -0.000503 -0.000462 -0.009408
v -0.000503 -0.000465 -0.009408
v -0.000503 -0.000466 0.009409
v -0.000502 -0.000467 -0.009409
v -0.000502 -0.000468 0.009410
v -0.000502 -0.000470 -0.009411
v -0.000502 -0.000471 0.009412
v -0.000502 -0.000472 -0.009412
v -0.000501 -0.000475 0.009416
v -0.000501 -0.000475 -0.009416
v -0.000499 -0.000479 -0.009423
v -0.000497 -0.000483 0.009430
v -0.000495 -0.000485 -0.009437
vn 0.9995 0.0311 -0.0000
vn 0.9997 0.0258 -0.0000
vn 0.9997 0.0236 -0.0000
vn 0.9996 0.0293 -0.0000
vn 0.9961 0.0886 -0.0000
vn 0.9981 0.0616 0.0000
vn 0.9892 0.1467 -0.0000
vn 0.9936 0.1126 0.0000
vn 0.9787 0.2053 0.0000
vn 0.9848 0.1739 -0.0000
vn 0.9634 0.2679 0.0000
vn 0.9648 0.2629 -0.0000
vn 0.9625 0.2712 -0.0000
vn 0.9312 0.3645 0.0000
vn 0.9658 0.2591 0.0000
vn 0.8676 0.4973 -0.0000
vn 0.9140 0.4057 0.0000
vn 0.7669 0.6418 0.0000
vn 0.7935 0.6086 0.0000
vn 0.6086 0.7934 -0.0000
vn 0.6419 0.7668 0.0000
vn 0.4055 0.9141 -0.0000
vn 0.4969 0.8678 -0.0000
vn 0.3645 0.9312 -0.0000
vn 0.2629 0.9648 0.0000
vn 0.2679 0.9634 0.0000
vn 0.2596 0.9657 -0.0000
vn 0.2712 0.9625 0.0000
vn 0.1753 0.9845 -0.0000
vn 0.2046 0.9788 0.0000
vn 0.1120 0.9937 -0.0000
vn 0.1471 0.9891 0.0000
vn 0.0634 0.9980 -0.0000
vn 0.0883 0.9961 0.0000
vn 0.0235 0.9997 -0.0000
vn 0.0270 0.9996 0.0000
vn 0.0214 0.9998 0.0000
vn 0.0294 0.9996 0.0000
vn -0.0000 0.9702 0.2425
vn 0.0002 0.9701 0.2428
vn -0.0002 0.9701 0.2426
vn -0.0004 0.9702 0.2422
vn 0.0003 0.9707 0.2402
vn -0.0000 0.9701 0.2425
vn -0.0000 0.9703 0.2418
vn -0.0002 0.9701 0.2427
vn -0.0000 0.9700 0.2431
vn 0.0002 0.9702 0.2422
vn -0.0001 0.9701 0.2426
vn 0.0001 0.9702 0.2424
vn 0.0000 1.0000 0.0000
vn 0.0000 0.9701 -0.2425
vn -0.0001 0.9702 -0.2424
vn 0.0007 0.9701 -0.2425
vn -0.0001 0.9700 -0.2432
vn -0.0002 0.9703 -0.2421
vn -0.0000 0.9701 -0.2426
vn 0.0001 0.9701 -0.2426
vn -0.0001 0.9702 -0.2425
vn 0.0000 0.9702 -0.2424
vn 0.0000 0.9702 -0.2425
vn 0.0005 0.9703 -0.2420
vn 0.0004 0.9711 -0.2387
vn -0.0001 0.9700 -0.2430
vn -0.0001 0.9701 -0.2426
vn 0.9996 -0.0291 0.0000
vn 0.9997 -0.0234 0.0000
vn 0.9997 -0.0244 0.0000
vn 0.9995 -0.0308 0.0000
vn 0.9960 -0.0890 -0.0000
vn 0.9981 -0.0615 0.0000
vn 0.9891 -0.1471 0.0000
vn 0.9936 -0.1126 -0.0000
vn 0.9785 -0.2062 -0.0000
vn 0.9848 -0.1738 0.0000
vn 0.9636 -0.2673 0.0000
vn 0.9648 -0.2628 0.0000
vn 0.9625 -0.2713 0.0000
vn 0.9312 -0.3645 -0.0000
vn 0.9659 -0.2588 -0.0000
vn 0.8676 -0.4973 0.0000
vn 0.9140 -0.4057 -0.0000
vn 0.7668 -0.6419 -0.0000
vn 0.7934 -0.6087 -0.0000
vn 0.6087 -0.7934 0.0000
vn 0.6420 -0.7667 -0.0000
vn 0.4055 -0.9141 0.0000
vn 0.4972 -0.8677 -0.0000
vn 0.3645 -0.9312 0.0000
vn 0.2629 -0.9648 -0.0000
vn 0.2680 -0.9634 0.0000
vn 0.2596 -0.9657 0.0000
vn 0.2712 -0.9625 -0.0000
vn 0.1753 -0.9845 0.0000
vn 0.2052 -0.9787 -0.0000
vn 0.1120 -0.9937 0.0000
vn 0.1464 -0.9892 -0.0000
vn 0.0634 -0.9980 0.0000
vn 0.0883 -0.9961 -0.0000
vn 0.0236 -0.9997 0.0000
vn 0.0272 -0.9996 -0.0000
vn 0.0211 -0.9998 0.0000
vn 0.0294 -0.9996 -0.0000
vn -0.0000 -0.9702 -0.2425
vn 0.0001 -0.9701 -0.2427
vn 0.0001 -0.9704 -0.2414
vn -0.0006 -0.9699 -0.2434
vn -0.0002 -0.9708 -0.2399
vn 0.0000 -0.9701 -0.2426
vn 0.0000 -0.9701 -0.2425
vn -0.0003 -0.9700 -0.2431
vn -0.0006 -0.9705 -0.2409
vn -0.0003 -0.9699 -0.2436
vn 0.0001 -0.9702 -0.2423
vn -0.0001 -0.9701 -0.2426
vn 0.0000 -1.0000 -0.0000
vn 0.0000 -0.9701 0.2425
vn -0.0004 -0.9703 0.2417
vn 0.0003 -0.9710 0.2391
vn 0.0002 -0.9701 0.2427
vn -0.0001 -0.9702 0.2423
vn -0.0000 -0.9701 0.2426
vn -0.0002 -0.9702 0.2425
vn 0.0000 -0.9702 0.2425
vn 0.0005 -0.9698 0.2440
vn 0.0001 -0.9710 0.2392
vn 0.0005 -0.9704 0.2414
vn -0.0001 -0.9701 0.2427
vn -0.9997 0.0256 0.0000
vn -0.9998 0.0188 -0.0000
vn -0.9997 0.0242 0.0000
vn -0.9995 0.0300 -0.0000
vn -0.9962 0.0874 -0.0000
vn -0.9980 0.0635 0.0000
vn -0.9895 0.1445 0.0000
vn -0.9937 0.1123 -0.0000
vn -0.9786 0.2057 -0.0000
vn -0.9845 0.1755 -0.0000
vn -0.9635 0.2677 -0.0000
vn -0.9646 0.2637 0.0000
vn -0.9621 0.2726 0.0000
vn -0.9312 0.3645 -0.0000
vn -0.9658 0.2595 -0.0000
vn -0.8676 0.4973 0.0000
vn -0.9141 0.4055 -0.0000
vn -0.7668 0.6419 0.0000
vn -0.7934 0.6087 -0.0000
vn -0.6087 0.7934 0.0000
vn -0.6419 0.7668 0.0000
vn -0.4055 0.9141 0.0000
vn -0.4973 0.8676 -0.0000
vn -0.3646 0.9312 0.0000
vn -0.2629 0.9648 0.0000
vn -0.2680 0.9634 0.0000
vn -0.2595 0.9658 0.0000
vn -0.2712 0.9625 0.0000
vn -0.1755 0.9845 0.0000
vn -0.2045 0.9789 -0.0000
vn -0.1119 0.9937 0.0000
vn -0.1471 0.9891 -0.0000
vn -0.0634 0.9980 0.0000
vn -0.0885 0.9961 -0.0000
vn -0.0235 0.9997 -0.0000
vn -0.0269 0.9996 -0.0000
vn -0.0214 0.9998 0.0000
vn -0.0291 0.9996 0.0000
vn -0.9997 -0.0257 -0.0000
vn -0.9998 -0.0188 0.0000
vn -0.9997 -0.0247 -0.0000
vn -0.9995 -0.0310 0.0000
vn -0.9961 -0.0880 0.0000
vn -0.9980 -0.0635 -0.0000
vn -0.9894 -0.1453 -0.0000
vn -0.9936 -0.1126 -0.0000
vn -0.9784 -0.2066 -0.0000
vn -0.9845 -0.1755 0.0000
vn -0.9635 -0.2677 0.0000
vn -0.9646 -0.2637 -0.0000
vn -0.9622 -0.2722 -0.0000
vn -0.9312 -0.3645 0.0000
vn -0.9658 -0.2595 0.0000
vn -0.8674 -0.4977 -0.0000
vn -0.9141 -0.4055 0.0000
vn -0.7667 -0.6420 -0.0000
vn -0.7933 -0.6088 0.0000
vn -0.6088 -0.7933 -0.0000
vn -0.6420 -0.7667 -0.0000
vn -0.4055 -0.9141 -0.0000
vn -0.4973 -0.8676 0.0000
vn -0.3646 -0.9312 -0.0000
vn -0.2629 -0.9648 -0.0000
vn -0.2682 -0.9634 0.0000
vn -0.2595 -0.9658 -0.0000
vn -0.2712 -0.9625 -0.0000
vn -0.1755 -0.9845 -0.0000
vn -0.2051 -0.9787 0.0000
vn -0.1119 -0.9937 -0.0000
vn -0.1465 -0.9892 0.0000
vn -0.0637 -0.9980 -0.0000
vn -0.0885 -0.9961 0.0000
vn -0.0236 -0.9997 0.0000
vn -0.0272 -0.9996 0.0000
vn -0.0211 -0.9998 -0.0000
vn -0.0294 -0.9996 0.0000
vn 0.9704 0.0001 -0.2415
vn 0.9702 -0.0002 -0.2425
vn 0.9701 0.0002 -0.2427
vn 0.9701 -0.0005 -0.2425
vn 0.9709 0.0013 -0.2393
vn 0.9695 -0.0008 -0.2452
vn 0.9701 -0.0000 -0.2425
vn 0.9708 0.0022 -0.2400
vn 0.9707 0.0006 -0.2403
vn 0.9704 0.0003 -0.2415
vn 0.9705 -0.0014 -0.2411
vn 0.9702 0.0001 -0.2425
vn 0.9701 -0.0000 -0.2426
vn 0.9702 0.0004 -0.2424
vn 0.9702 0.0001 -0.2424
vn 0.0000 0.0000 -1.0000
vn -0.9701 -0.0000 -0.2426
vn -0.9700 -0.0012 -0.2430
vn -0.9694 -0.0008 -0.2453
vn -0.9704 -0.0004 -0.2415
vn -0.9702 -0.0010 -0.2422
vn -0.9701 0.0001 -0.2426
vn -0.9701 0.0000 -0.2425
vn -0.9703 0.0002 -0.2418
vn -0.9707 -0.0013 -0.2402
vn -0.9695 0.0032 -0.2451
vn -0.9701 -0.0004 -0.2428
vn -0.9702 0.0003 -0.2423
vn -1.0000 0.0000 0.0000
vn 0.0000 0.0000 1.0000
vn -0.9704 -0.0001 0.2415
vn -0.9703 -0.0009 0.2421
vn -0.9701 -0.0001 0.2425
vn -0.9699 -0.0005 0.2435
vn -0.9706 0.0001 0.2406
vn -0.9714 0.0015 0.2374
vn -0.9701 0.0000 0.2426
vn -0.9701 0.0000 0.2425
vn -0.9700 0.0013 0.2432
vn -0.9699 0.0001 0.2435
vn -0.9703 -0.0008 0.2420
vn -0.9702 0.0003 0.2424
vn -0.9701 -0.0001 0.2426
vn 0.9705 -0.0004 0.2411
vn 0.9707 -0.0029 0.2401
vn 0.9711 0.0001 0.2385
vn 0.9703 0.0002 0.2417
vn 0.9701 0.0003 0.2428
vn 0.9701 0.0000 0.2425
vn 0.9701 0.0001 0.2426
vn 0.9702 -0.0001 0.2424
vn 0.9703 -0.0001 0.2419
vn 0.9702 0.0000 0.2425
vn 0.9703 -0.0015 0.2420
vn 0.9714 -0.0004 0.2374
vn 0.9700 -0.0003 0.2430
vn 0.9701 -0.0002 0.2427
vn 0.9702 0.0001 0.2423
vn 1.0000 0.0000 0.0000
usemtl material_1.582
s 1
f 1//1 2//2 3//3
f 1//1 3//3 4//4
f 5//5 4//5 6//5
f 5//6 1//6 4//6
f 7//7 6//7 8//7
f 7//8 5//8 6//8
f 9//9 8//9 10//9
f 9//10 7//10 8//10
f 11//11 10//12 12//13
f 11//14 12//14 13//14
f 11//11 9//15 10//12
f 14//16 13//16 15//16
f 14//17 11//17 13//17
f 16//18 15//18 17//18
f 16//19 14//19 15//19
f 18//20 17//20 19//20
f 18//21 16//21 17//21
f 20//22 19//22 21//22
f 20//23 18//23 19//23
f 22//24 20//24 21//24
f 23//25 21//26 24//27
f 23//25 22//28 21//26
f 25//29 24//29 26//29
f 25//30 23//30 24//30
f 27//31 26//31 28//31
f 27//32 25//32 26//32
f 29//33 28//33 30//33
f 29//34 27//34 28//34
f 31//35 30//36 32//37
f 31//35 29//38 30//36
usemtl material_0.593
f 33//39 34//40 35//39
f 33//39 36//41 34//40
f 33//39 37//42 36//41
f 33//39 38//43 37//42
f 39//39 33//39 35//39
f 40//44 33//39 39//39
f 27//45 29//46 31//44
f 25//47 27//45 31//44
f 23//48 25//47 31//44
f 22//44 23//48 31//44
f 20//49 22//44 31//44
f 18//50 20//49 31//44
f 16//44 31//44 33//39
f 16//44 33//39 40//44
f 16//44 18//50 31//44
f 41//44 40//44 42//44
f 41//44 16//44 40//44
f 31//51 32//51 43//51
f 31//51 43//51 33//51
f 43//52 44//53 45//54
f 43//52 46//55 44//53
f 43//52 47//56 46//55
f 43//52 48//57 47//56
f 43//52 49//58 48//57
f 43//52 50//59 49//58
f 43//52 51//52 50//59
f 17//52 52//52 53//52
f 17//52 53//52 51//52
f 32//60 19//61 17//52
f 32//60 51//52 43//52
f 32//60 17//52 51//52
f 28//62 32//60 30//63
f 26//64 32//60 28//62
f 21//61 19//61 32//60
f 24//65 21//61 32//60
f 24//65 32//60 26//64
f 54//66 55//67 56//68
f 54//66 56//68 57//69
f 58//70 57//70 59//70
f 58//71 54//71 57//71
f 60//72 59//72 61//72
f 60//73 58//73 59//73
f 62//74 61//74 63//74
f 62//75 60//75 61//75
f 64//76 63//77 65//78
f 64//79 65//79 66//79
f 64//76 62//80 63//77
f 67//81 66//81 68//81
f 67//82 64//82 66//82
f 69//83 68//83 70//83
f 69//84 67//84 68//84
f 71//85 70//85 72//85
f 71//86 69//86 70//86
f 73//87 72//87 74//87
f 73//88 71//88 72//88
f 75//89 73//89 74//89
f 76//90 74//91 77//92
f 76//90 75//93 74//91
f 78//94 77//94 79//94
f 78//95 76//95 77//95
f 80//96 79//96 81//96
f 80//97 78//97 79//97
f 82//98 81//98 83//98
f 82//99 80//99 81//99
f 84//100 83//101 85//102
f 84//100 82//103 83//101
f 86//104 87//105 88//104
f 86//104 89//106 87//105
f 86//104 90//107 89//106
f 86//104 91//108 90//107
f 92//109 86//104 88//104
f 93//110 86//104 92//109
f 80//111 82//112 84//109
f 78//113 80//111 84//109
f 76//114 78//113 84//109
f 75//110 76//114 84//109
f 73//115 75//110 84//109
f 71//115 73//115 84//109
f 69//110 84//109 86//104
f 69//110 86//104 93//110
f 69//110 71//115 84//109
f 94//110 93//110 95//110
f 94//110 69//110 93//110
f 84//116 85//116 96//116
f 84//116 96//116 86//116
f 96//117 97//118 98//119
f 96//117 99//120 97//118
f 96//117 100//121 99//120
f 96//117 101//122 100//121
f 96//117 102//123 101//122
f 96//117 103//122 102//123
f 96//117 104//117 103//122
f 70//117 105//117 106//117
f 70//117 106//117 104//117
f 85//124 72//122 70//117
f 85//124 104//117 96//117
f 85//124 70//117 104//117
f 81//125 85//124 83//126
f 79//127 85//124 81//125
f 74//124 72//122 85//124
f 77//128 74//124 85//124
f 77//128 85//124 79//127
f 107//129 108//130 109//131
f 107//129 109//131 110//132
f 111//133 110//133 112//133
f 111//134 107//134 110//134
f 113//135 112//135 114//135
f 113//136 111//136 112//136
f 115//137 114//137 116//137
f 115//138 113//138 114//138
f 117//139 116//140 118//141
f 117//142 118//142 119//142
f 117//139 115//143 116//140
f 120//144 119//144 121//144
f 120//145 117//145 119//145
f 51//146 121//146 40//146
f 51//147 120//147 121//147
f 50//148 40//148 39//148
f 50//149 51//149 40//149
f 49//150 39//150 35//150
f 49//151 50//151 39//151
f 48//152 49//152 35//152
f 47//153 35//154 34//155
f 47//153 48//156 35//154
f 46//157 34//157 36//157
f 46//158 47//158 34//158
f 44//159 36//159 37//159
f 44//160 46//160 36//160
f 45//161 37//161 38//161
f 45//162 44//162 37//162
f 43//163 38//164 33//165
f 43//163 45//166 38//164
f 122//167 123//168 124//169
f 122//167 124//169 125//170
f 126//171 125//171 127//171
f 126//172 122//172 125//172
f 128//173 127//173 129//173
f 128//174 126//174 127//174
f 130//175 129//175 131//175
f 130//176 128//176 129//176
f 132//177 131//178 133//179
f 132//180 133//180 134//180
f 132//177 130//181 131//178
f 135//182 134//182 136//182
f 135//183 132//183 134//183
f 104//184 136//184 93//184
f 104//185 135//185 136//185
f 103//186 93//186 92//186
f 103//187 104//187 93//187
f 102//188 92//188 88//188
f 102//189 103//189 92//189
f 101//190 102//190 88//190
f 100//191 88//192 87//193
f 100//191 101//194 88//192
f 99//195 87//195 89//195
f 99//196 100//196 87//196
f 97//197 89//197 90//197
f 97//198 99//198 89//198
f 98//199 90//199 91//199
f 98//200 97//200 90//200
f 96//201 91//202 86//203
f 96//201 98//204 91//202
f 55//205 62//206 64//207
f 55//205 60//208 62//206
f 55//205 58//209 60//208
f 55//205 54//210 58//209
f 67//211 55//205 64//207
f 69//211 55//205 67//211
f 6//212 4//213 3//214
f 8//215 6//212 3//214
f 10//216 8//215 3//214
f 12//217 10//216 3//214
f 13//218 12//217 3//214
f 15//219 13//218 3//214
f 17//211 3//214 55//205
f 17//211 55//205 69//211
f 17//211 15//219 3//214
f 52//211 69//211 94//211
f 52//211 17//211 69//211
f 52//220 94//220 95//220
f 52//220 95//220 53//220
f 124//221 127//222 125//223
f 124//221 129//224 127//222
f 124//221 131//225 129//224
f 124//221 133//221 131//225
f 124//221 134//226 133//221
f 124//221 136//221 134//226
f 124//221 93//227 136//221
f 51//227 53//227 95//227
f 51//227 95//227 93//227
f 108//228 120//221 51//227
f 108//228 93//227 124//221
f 108//228 51//227 93//227
f 111//229 108//228 107//230
f 113//231 108//228 111//229
f 117//226 120//221 108//228
f 115//232 117//226 108//228
f 115//232 108//228 113//231
f 109//233 108//233 124//233
f 109//233 124//233 123//233
f 105//234 41//234 42//234
f 105//234 42//234 106//234
f 123//235 130//236 132//237
f 123//235 128//238 130//236
f 123//235 126//239 128//238
f 123//235 122//240 126//239
f 135//241 123//235 132//237
f 104//242 123//235 135//241
f 112//243 110//244 109//241
f 114//245 112//243 109//241
f 116//246 114//245 109//241
f 118//246 116//246 109//241
f 119//247 118//246 109//241
f 121//242 119//247 109//241
f 40//242 109//241 123//235
f 40//242 104//242 106//242
f 40//242 123//235 104//242
f 40//242 121//242 109//241
f 42//242 40//242 106//242
f 56//248 59//249 57//250
f 56//248 61//251 59//249
f 56//248 63//252 61//251
f 56//248 65//253 63//252
f 56//248 66//254 65//253
f 56//248 68//255 66//254
f 56//248 70//253 68//255
f 16//253 41//253 105//253
f 16//253 105//253 70//253
f 16//253 70//253 56//248
f 2//256 14//257 16//253
f 2//256 16//253 56//248
f 5//258 2//256 1//259
f 7//260 2//256 5//258
f 11//261 14//257 2//256
f 9//262 11//261 2//256
f 9//262 2//256 7//260
f 3//263 2//263 56//263
f 3//263 56//263 55//263
