# Blender v2.81 (sub 16) OBJ File: ''
# www.blender.org
mtllib 72-Pin Shrouded Header (IDC) Straight.mtl
o 72-Pin_Shrouded_Header_(IDC)_Straight
v 0.000578 0.000534 0.010822
v 0.000578 0.000532 0.010822
v 0.000578 0.000532 -0.010822
v 0.000578 0.000535 -0.010822
v 0.000578 0.000536 0.010823
v 0.000578 0.000537 -0.010823
v 0.000578 0.000538 0.010824
v 0.000578 0.000540 -0.010825
v 0.000577 0.000542 0.010826
v 0.000577 0.000543 -0.010827
v 0.000576 0.000546 0.010831
v 0.000576 0.000546 -0.010831
v 0.000574 0.000551 -0.010839
v 0.000572 0.000555 0.010847
v 0.000570 0.000558 -0.010855
v 0.000565 0.000565 0.010876
v 0.000565 0.000565 -0.010876
v 0.000558 0.000570 0.010855
v 0.000555 0.000572 -0.010847
v 0.000551 0.000574 0.010839
v 0.000546 0.000576 -0.010831
v 0.000546 0.000576 0.010831
v 0.000543 0.000577 0.010827
v 0.000542 0.000577 -0.010826
v 0.000540 0.000578 0.010825
v 0.000538 0.000578 -0.010824
v 0.000537 0.000578 0.010823
v 0.000536 0.000578 -0.010823
v 0.000535 0.000578 0.010822
v 0.000534 0.000578 -0.010822
v 0.000532 0.000578 0.010822
v 0.000532 0.000578 -0.010822
v -0.000532 0.000578 0.010822
v -0.000542 0.000577 0.010826
v -0.000546 0.000576 0.010831
v -0.000538 0.000578 0.010824
v -0.000536 0.000578 0.010823
v -0.000534 0.000578 0.010822
v -0.000555 0.000572 0.010847
v -0.000565 0.000565 0.010876
v 0.000347 0.000347 0.011747
v -0.000347 0.000347 0.011747
v -0.000532 0.000578 -0.010822
v -0.000537 0.000578 -0.010823
v -0.000535 0.000578 -0.010822
v -0.000540 0.000578 -0.010825
v -0.000543 0.000577 -0.010827
v -0.000546 0.000576 -0.010831
v -0.000551 0.000574 -0.010839
v -0.000558 0.000570 -0.010855
v -0.000565 0.000565 -0.010876
v 0.000347 0.000347 -0.011747
v -0.000347 0.000347 -0.011747
v 0.000578 -0.000534 -0.010822
v 0.000578 -0.000532 -0.010822
v 0.000578 -0.000532 0.010822
v 0.000578 -0.000535 0.010822
v 0.000578 -0.000536 -0.010823
v 0.000578 -0.000537 0.010823
v 0.000578 -0.000538 -0.010824
v 0.000578 -0.000540 0.010825
v 0.000577 -0.000542 -0.010826
v 0.000577 -0.000543 0.010827
v 0.000576 -0.000546 -0.010831
v 0.000576 -0.000546 0.010831
v 0.000574 -0.000551 0.010839
v 0.000572 -0.000555 -0.010847
v 0.000570 -0.000558 0.010855
v 0.000565 -0.000565 -0.010876
v 0.000565 -0.000565 0.010876
v 0.000558 -0.000570 -0.010855
v 0.000555 -0.000572 0.010847
v 0.000551 -0.000574 -0.010839
v 0.000546 -0.000576 0.010831
v 0.000546 -0.000576 -0.010831
v 0.000543 -0.000577 -0.010827
v 0.000542 -0.000577 0.010826
v 0.000540 -0.000578 -0.010825
v 0.000538 -0.000578 0.010824
v 0.000537 -0.000578 -0.010823
v 0.000536 -0.000578 0.010823
v 0.000535 -0.000578 -0.010822
v 0.000534 -0.000578 0.010822
v 0.000532 -0.000578 -0.010822
v 0.000532 -0.000578 0.010822
v -0.000532 -0.000578 -0.010822
v -0.000542 -0.000577 -0.010826
v -0.000546 -0.000576 -0.010831
v -0.000538 -0.000578 -0.010824
v -0.000536 -0.000578 -0.010823
v -0.000534 -0.000578 -0.010822
v -0.000555 -0.000572 -0.010847
v -0.000565 -0.000565 -0.010876
v 0.000347 -0.000347 -0.011747
v -0.000347 -0.000347 -0.011747
v -0.000532 -0.000578 0.010822
v -0.000537 -0.000578 0.010823
v -0.000535 -0.000578 0.010822
v -0.000540 -0.000578 0.010825
v -0.000543 -0.000577 0.010827
v -0.000546 -0.000576 0.010831
v -0.000551 -0.000574 0.010839
v -0.000558 -0.000570 0.010855
v -0.000565 -0.000565 0.010876
v 0.000347 -0.000347 0.011747
v -0.000347 -0.000347 0.011747
v -0.000578 0.000534 -0.010822
v -0.000578 0.000532 -0.010822
v -0.000578 0.000532 0.010822
v -0.000578 0.000535 0.010822
v -0.000578 0.000536 -0.010823
v -0.000578 0.000537 0.010823
v -0.000578 0.000538 -0.010824
v -0.000578 0.000540 0.010825
v -0.000577 0.000542 -0.010826
v -0.000577 0.000543 0.010827
v -0.000576 0.000546 -0.010831
v -0.000576 0.000546 0.010831
v -0.000574 0.000551 0.010839
v -0.000572 0.000555 -0.010847
v -0.000570 0.000558 0.010855
v -0.000578 -0.000534 0.010822
v -0.000578 -0.000532 0.010822
v -0.000578 -0.000532 -0.010822
v -0.000578 -0.000535 -0.010822
v -0.000578 -0.000536 0.010823
v -0.000578 -0.000537 -0.010823
v -0.000578 -0.000538 0.010824
v -0.000578 -0.000540 -0.010825
v -0.000577 -0.000542 0.010826
v -0.000577 -0.000543 -0.010827
v -0.000576 -0.000546 0.010831
v -0.000576 -0.000546 -0.010831
v -0.000574 -0.000551 -0.010839
v -0.000572 -0.000555 0.010847
v -0.000570 -0.000558 -0.010855
vn 0.9996 0.0286 -0.0000
vn 0.9997 0.0234 -0.0000
vn 0.9997 0.0233 -0.0000
vn 0.9996 0.0289 -0.0000
vn 0.9960 0.0890 -0.0000
vn 0.9980 0.0633 0.0000
vn 0.9890 0.1477 -0.0000
vn 0.9937 0.1122 0.0000
vn 0.9790 0.2038 -0.0000
vn 0.9845 0.1755 0.0000
vn 0.9633 0.2682 -0.0000
vn 0.9648 0.2629 0.0000
vn 0.9623 0.2718 -0.0000
vn 0.9312 0.3645 0.0000
vn 0.9658 0.2595 0.0000
vn 0.8677 0.4971 -0.0000
vn 0.9140 0.4057 0.0000
vn 0.7665 0.6423 0.0000
vn 0.7934 0.6086 0.0000
vn 0.6087 0.7934 -0.0000
vn 0.6423 0.7665 0.0000
vn 0.4055 0.9141 -0.0000
vn 0.4972 0.8677 0.0000
vn 0.3646 0.9312 -0.0000
vn 0.2629 0.9648 -0.0000
vn 0.2679 0.9634 0.0000
vn 0.2596 0.9657 -0.0000
vn 0.2712 0.9625 0.0000
vn 0.1753 0.9845 -0.0000
vn 0.2046 0.9788 0.0000
vn 0.1120 0.9937 -0.0000
vn 0.1470 0.9891 0.0000
vn 0.0633 0.9980 -0.0000
vn 0.0882 0.9961 0.0000
vn 0.0236 0.9997 0.0000
vn 0.0271 0.9996 0.0000
vn 0.0211 0.9998 0.0000
vn 0.0294 0.9996 0.0000
vn -0.0000 0.9702 0.2425
vn 0.0002 0.9701 0.2429
vn -0.0001 0.9702 0.2425
vn -0.0004 0.9702 0.2421
vn -0.0000 0.9702 0.2421
vn -0.0010 0.9699 0.2437
vn -0.0000 0.9701 0.2425
vn -0.0001 0.9705 0.2413
vn 0.0002 0.9701 0.2426
vn 0.0003 0.9702 0.2421
vn -0.0001 0.9701 0.2426
vn 0.0001 0.9702 0.2425
vn 0.0000 1.0000 0.0000
vn -0.0000 0.9701 -0.2425
vn 0.0003 0.9699 -0.2434
vn -0.0002 0.9701 -0.2426
vn -0.0004 0.9702 -0.2421
vn -0.0001 0.9701 -0.2425
vn 0.0000 0.9702 -0.2425
vn 0.0001 0.9701 -0.2426
vn -0.0001 0.9702 -0.2425
vn 0.0001 0.9702 -0.2425
vn 0.0003 0.9703 -0.2418
vn 0.0008 0.9700 -0.2433
vn 0.0002 0.9703 -0.2421
vn -0.0005 0.9700 -0.2429
vn 0.9996 -0.0276 0.0000
vn 0.9998 -0.0221 0.0000
vn 0.9997 -0.0234 0.0000
vn 0.9996 -0.0294 0.0000
vn 0.9960 -0.0894 -0.0000
vn 0.9980 -0.0633 -0.0000
vn 0.9890 -0.1477 0.0000
vn 0.9938 -0.1111 0.0000
vn 0.9787 -0.2052 -0.0000
vn 0.9845 -0.1755 -0.0000
vn 0.9635 -0.2679 -0.0000
vn 0.9649 -0.2628 -0.0000
vn 0.9623 -0.2718 0.0000
vn 0.9312 -0.3645 -0.0000
vn 0.9658 -0.2595 -0.0000
vn 0.8677 -0.4971 0.0000
vn 0.9140 -0.4057 -0.0000
vn 0.7665 -0.6423 -0.0000
vn 0.7934 -0.6086 -0.0000
vn 0.6087 -0.7934 0.0000
vn 0.6423 -0.7665 -0.0000
vn 0.4055 -0.9141 0.0000
vn 0.4972 -0.8677 -0.0000
vn 0.3646 -0.9312 0.0000
vn 0.2630 -0.9648 0.0000
vn 0.2679 -0.9634 0.0000
vn 0.2596 -0.9657 0.0000
vn 0.2712 -0.9625 -0.0000
vn 0.1753 -0.9845 0.0000
vn 0.2046 -0.9788 -0.0000
vn 0.1120 -0.9937 0.0000
vn 0.1470 -0.9891 -0.0000
vn 0.0633 -0.9980 0.0000
vn 0.0882 -0.9961 -0.0000
vn 0.0236 -0.9997 -0.0000
vn 0.0271 -0.9996 -0.0000
vn 0.0214 -0.9998 -0.0000
vn 0.0294 -0.9996 -0.0000
vn -0.0001 -0.9702 -0.2425
vn 0.0001 -0.9701 -0.2427
vn -0.0002 -0.9703 -0.2421
vn -0.0002 -0.9705 -0.2411
vn -0.0009 -0.9701 -0.2427
vn -0.0000 -0.9702 -0.2425
vn -0.0000 -0.9701 -0.2425
vn -0.0002 -0.9703 -0.2419
vn 0.0002 -0.9701 -0.2426
vn 0.0003 -0.9702 -0.2422
vn 0.0003 -0.9703 -0.2421
vn -0.0001 -0.9701 -0.2426
vn 0.0001 -0.9702 -0.2425
vn 0.0000 -1.0000 -0.0000
vn -0.0000 -0.9701 0.2425
vn 0.0002 -0.9705 0.2410
vn -0.0001 -0.9699 0.2436
vn -0.0003 -0.9702 0.2421
vn 0.0000 -0.9702 0.2425
vn 0.0001 -0.9701 0.2426
vn -0.0001 -0.9702 0.2425
vn 0.0001 -0.9702 0.2425
vn 0.0001 -0.9703 0.2419
vn 0.0007 -0.9698 0.2438
vn 0.0004 -0.9702 0.2423
vn -0.0002 -0.9701 0.2429
vn -0.9996 0.0269 0.0000
vn -0.9998 0.0214 0.0000
vn -0.9997 0.0231 0.0000
vn -0.9996 0.0291 0.0000
vn -0.9960 0.0891 -0.0000
vn -0.9981 0.0624 -0.0000
vn -0.9892 0.1464 0.0000
vn -0.9936 0.1126 -0.0000
vn -0.9789 0.2045 0.0000
vn -0.9845 0.1755 -0.0000
vn -0.9633 0.2683 -0.0000
vn -0.9649 0.2626 0.0000
vn -0.9625 0.2714 0.0000
vn -0.9312 0.3645 -0.0000
vn -0.9657 0.2596 -0.0000
vn -0.8675 0.4975 -0.0000
vn -0.9140 0.4057 -0.0000
vn -0.7668 0.6419 0.0000
vn -0.7934 0.6086 -0.0000
vn -0.6086 0.7934 0.0000
vn -0.6419 0.7668 0.0000
vn -0.4055 0.9141 0.0000
vn -0.4972 0.8677 -0.0000
vn -0.3645 0.9312 0.0000
vn -0.2630 0.9648 0.0000
vn -0.2679 0.9634 0.0000
vn -0.2596 0.9657 0.0000
vn -0.2713 0.9625 -0.0000
vn -0.1754 0.9845 0.0000
vn -0.2045 0.9789 -0.0000
vn -0.1119 0.9937 0.0000
vn -0.1471 0.9891 -0.0000
vn -0.0633 0.9980 0.0000
vn -0.0882 0.9961 -0.0000
vn -0.0236 0.9997 -0.0000
vn -0.0271 0.9996 -0.0000
vn -0.0211 0.9998 0.0000
vn -0.0294 0.9996 -0.0000
vn -0.9997 -0.0261 -0.0000
vn -0.9998 -0.0201 -0.0000
vn -0.9997 -0.0239 -0.0000
vn -0.9996 -0.0294 -0.0000
vn -0.9960 -0.0895 -0.0000
vn -0.9981 -0.0624 0.0000
vn -0.9892 -0.1467 -0.0000
vn -0.9937 -0.1123 -0.0000
vn -0.9789 -0.2044 -0.0000
vn -0.9845 -0.1755 0.0000
vn -0.9634 -0.2679 0.0000
vn -0.9649 -0.2625 -0.0000
vn -0.9625 -0.2714 -0.0000
vn -0.9312 -0.3645 0.0000
vn -0.9658 -0.2591 0.0000
vn -0.8677 -0.4971 -0.0000
vn -0.9140 -0.4057 0.0000
vn -0.7668 -0.6419 -0.0000
vn -0.7934 -0.6086 0.0000
vn -0.6086 -0.7934 -0.0000
vn -0.6419 -0.7668 -0.0000
vn -0.4059 -0.9139 0.0000
vn -0.4972 -0.8677 0.0000
vn -0.3645 -0.9312 -0.0000
vn -0.2630 -0.9648 -0.0000
vn -0.2680 -0.9634 0.0000
vn -0.2596 -0.9657 -0.0000
vn -0.2713 -0.9625 0.0000
vn -0.1754 -0.9845 -0.0000
vn -0.2045 -0.9789 0.0000
vn -0.1119 -0.9937 -0.0000
vn -0.1468 -0.9892 -0.0000
vn -0.0633 -0.9980 -0.0000
vn -0.0882 -0.9961 0.0000
vn -0.0236 -0.9997 0.0000
vn -0.0271 -0.9996 0.0000
vn -0.0214 -0.9998 -0.0000
vn -0.0294 -0.9996 0.0000
vn 0.9704 -0.0006 -0.2415
vn 0.9701 0.0001 -0.2428
vn 0.9702 -0.0002 -0.2422
vn 0.9701 -0.0005 -0.2428
vn 0.9708 -0.0024 -0.2399
vn 0.9706 -0.0008 -0.2406
vn 0.9702 -0.0001 -0.2425
vn 0.9701 -0.0000 -0.2425
vn 0.9699 -0.0018 -0.2437
vn 0.9698 0.0032 -0.2441
vn 0.9700 0.0007 -0.2430
vn 0.9705 0.0008 -0.2410
vn 0.9701 0.0003 -0.2426
vn 0.9702 0.0002 -0.2425
vn 0.9702 0.0002 -0.2424
vn 0.9702 0.0003 -0.2423
vn 0.0000 0.0000 -1.0000
vn -0.9701 -0.0000 -0.2425
vn -0.9699 0.0020 -0.2434
vn -0.9698 -0.0028 -0.2441
vn -0.9704 -0.0014 -0.2414
vn -0.9701 -0.0005 -0.2428
vn -0.9702 -0.0000 -0.2425
vn -0.9701 0.0001 -0.2426
vn -0.9704 0.0004 -0.2416
vn -0.9709 0.0007 -0.2393
vn -0.9706 0.0013 -0.2405
vn -0.9700 0.0004 -0.2432
vn -0.9701 -0.0002 -0.2427
vn -0.9702 0.0002 -0.2423
vn -1.0000 0.0000 0.0000
vn 0.0000 0.0000 1.0000
vn -0.9704 -0.0002 0.2416
vn -0.9702 -0.0001 0.2424
vn -0.9702 0.0003 0.2423
vn -0.9699 -0.0005 0.2434
vn -0.9706 -0.0002 0.2405
vn -0.9714 -0.0009 0.2375
vn -0.9701 -0.0000 0.2425
vn -0.9698 -0.0023 0.2437
vn -0.9696 0.0012 0.2446
vn -0.9703 0.0010 0.2421
vn -0.9702 0.0002 0.2422
vn -0.9702 0.0000 0.2425
vn -0.9701 0.0002 0.2426
vn 0.9701 -0.0000 0.2426
vn 0.9699 0.0015 0.2435
vn 0.9696 -0.0013 0.2446
vn 0.9704 -0.0006 0.2416
vn 0.9701 -0.0000 0.2427
vn 0.9702 -0.0002 0.2425
vn 0.9702 -0.0002 0.2424
vn 0.9701 0.0000 0.2425
vn 0.9703 0.0002 0.2419
vn 0.9702 0.0001 0.2425
vn 0.9707 0.0014 0.2404
vn 0.9714 0.0009 0.2375
vn 0.9700 0.0006 0.2432
vn 0.9702 -0.0008 0.2423
vn 1.0000 0.0000 0.0000
usemtl material_1.162
s 1
f 1//1 2//2 3//3
f 1//1 3//3 4//4
f 5//5 4//5 6//5
f 5//6 1//6 4//6
f 7//7 6//7 8//7
f 7//8 5//8 6//8
f 9//9 8//9 10//9
f 9//10 7//10 8//10
f 11//11 10//12 12//13
f 11//14 12//14 13//14
f 11//11 9//15 10//12
f 14//16 13//16 15//16
f 14//17 11//17 13//17
f 16//18 15//18 17//18
f 16//19 14//19 15//19
f 18//20 17//20 19//20
f 18//21 16//21 17//21
f 20//22 19//22 21//22
f 20//23 18//23 19//23
f 22//24 20//24 21//24
f 23//25 21//26 24//27
f 23//25 22//28 21//26
f 25//29 24//29 26//29
f 25//30 23//30 24//30
f 27//31 26//31 28//31
f 27//32 25//32 26//32
f 29//33 28//33 30//33
f 29//34 27//34 28//34
f 31//35 30//36 32//37
f 31//35 29//38 30//36
usemtl material_0.166
f 33//39 34//40 35//41
f 33//39 36//42 34//40
f 33//39 37//43 36//42
f 33//39 38//44 37//43
f 39//39 33//39 35//41
f 40//45 33//39 39//39
f 27//46 29//47 31//45
f 25//45 27//46 31//45
f 23//48 25//45 31//45
f 22//39 23//48 31//45
f 20//49 22//39 31//45
f 18//50 20//49 31//45
f 16//45 31//45 33//39
f 16//45 33//39 40//45
f 16//45 18//50 31//45
f 41//45 40//45 42//45
f 41//45 16//45 40//45
f 31//51 32//51 43//51
f 31//51 43//51 33//51
f 43//52 44//53 45//54
f 43//52 46//55 44//53
f 43//52 47//56 46//55
f 43//52 48//57 47//56
f 43//52 49//58 48//57
f 43//52 50//59 49//58
f 43//52 51//52 50//59
f 17//52 52//52 53//52
f 17//52 53//52 51//52
f 32//60 19//57 17//52
f 32//60 51//52 43//52
f 32//60 17//52 51//52
f 28//61 32//60 30//62
f 26//63 32//60 28//61
f 21//60 19//57 32//60
f 24//64 21//60 32//60
f 24//64 32//60 26//63
f 54//65 55//66 56//67
f 54//65 56//67 57//68
f 58//69 57//69 59//69
f 58//70 54//70 57//70
f 60//71 59//71 61//71
f 60//72 58//72 59//72
f 62//73 61//73 63//73
f 62//74 60//74 61//74
f 64//75 63//76 65//77
f 64//78 65//78 66//78
f 64//75 62//79 63//76
f 67//80 66//80 68//80
f 67//81 64//81 66//81
f 69//82 68//82 70//82
f 69//83 67//83 68//83
f 71//84 70//84 72//84
f 71//85 69//85 70//85
f 73//86 72//86 74//86
f 73//87 71//87 72//87
f 75//88 73//88 74//88
f 76//89 74//90 77//91
f 76//89 75//92 74//90
f 78//93 77//93 79//93
f 78//94 76//94 77//94
f 80//95 79//95 81//95
f 80//96 78//96 79//96
f 82//97 81//97 83//97
f 82//98 80//98 81//98
f 84//99 83//100 85//101
f 84//99 82//102 83//100
f 86//103 87//104 88//103
f 86//103 89//105 87//104
f 86//103 90//106 89//105
f 86//103 91//107 90//106
f 92//108 86//103 88//103
f 93//109 86//103 92//108
f 80//110 82//111 84//109
f 78//112 80//110 84//109
f 76//113 78//112 84//109
f 75//108 76//113 84//109
f 73//114 75//108 84//109
f 71//115 73//114 84//109
f 69//109 84//109 86//103
f 69//109 86//103 93//109
f 69//109 71//115 84//109
f 94//109 93//109 95//109
f 94//109 69//109 93//109
f 84//116 85//116 96//116
f 84//116 96//116 86//116
f 96//117 97//118 98//119
f 96//117 99//117 97//118
f 96//117 100//120 99//117
f 96//117 101//121 100//120
f 96//117 102//122 101//121
f 96//117 103//123 102//122
f 96//117 104//117 103//123
f 70//117 105//117 106//117
f 70//117 106//117 104//117
f 85//124 72//121 70//117
f 85//124 104//117 96//117
f 85//124 70//117 104//117
f 81//125 85//124 83//126
f 79//127 85//124 81//125
f 74//124 72//121 85//124
f 77//128 74//124 85//124
f 77//128 85//124 79//127
f 107//129 108//130 109//131
f 107//129 109//131 110//132
f 111//133 110//133 112//133
f 111//134 107//134 110//134
f 113//135 112//135 114//135
f 113//136 111//136 112//136
f 115//137 114//137 116//137
f 115//138 113//138 114//138
f 117//139 116//140 118//141
f 117//142 118//142 119//142
f 117//139 115//143 116//140
f 120//144 119//144 121//144
f 120//145 117//145 119//145
f 51//146 121//146 40//146
f 51//147 120//147 121//147
f 50//148 40//148 39//148
f 50//149 51//149 40//149
f 49//150 39//150 35//150
f 49//151 50//151 39//151
f 48//152 49//152 35//152
f 47//153 35//154 34//155
f 47//153 48//156 35//154
f 46//157 34//157 36//157
f 46//158 47//158 34//158
f 44//159 36//159 37//159
f 44//160 46//160 36//160
f 45//161 37//161 38//161
f 45//162 44//162 37//162
f 43//163 38//164 33//165
f 43//163 45//166 38//164
f 122//167 123//168 124//169
f 122//167 124//169 125//170
f 126//171 125//171 127//171
f 126//172 122//172 125//172
f 128//173 127//173 129//173
f 128//174 126//174 127//174
f 130//175 129//175 131//175
f 130//176 128//176 129//176
f 132//177 131//178 133//179
f 132//180 133//180 134//180
f 132//177 130//181 131//178
f 135//182 134//182 136//182
f 135//183 132//183 134//183
f 104//184 136//184 93//184
f 104//185 135//185 136//185
f 103//186 93//186 92//186
f 103//187 104//187 93//187
f 102//188 92//188 88//188
f 102//189 103//189 92//189
f 101//190 102//190 88//190
f 100//191 88//192 87//193
f 100//191 101//194 88//192
f 99//195 87//195 89//195
f 99//196 100//196 87//196
f 97//197 89//197 90//197
f 97//198 99//198 89//198
f 98//199 90//199 91//199
f 98//200 97//200 90//200
f 96//201 91//202 86//203
f 96//201 98//204 91//202
f 55//205 62//206 64//207
f 55//205 60//208 62//206
f 55//205 58//209 60//208
f 55//205 54//210 58//209
f 67//211 55//205 64//207
f 69//212 55//205 67//211
f 6//213 4//214 3//215
f 8//216 6//213 3//215
f 10//217 8//216 3//215
f 12//218 10//217 3//215
f 13//219 12//218 3//215
f 15//220 13//219 3//215
f 17//212 3//215 55//205
f 17//212 55//205 69//212
f 17//212 15//220 3//215
f 52//212 69//212 94//212
f 52//212 17//212 69//212
f 52//221 94//221 95//221
f 52//221 95//221 53//221
f 124//222 127//223 125//224
f 124//222 129//225 127//223
f 124//222 131//226 129//225
f 124//222 133//222 131//226
f 124//222 134//227 133//222
f 124//222 136//228 134//227
f 124//222 93//222 136//228
f 51//222 53//222 95//222
f 51//222 95//222 93//222
f 108//229 120//222 51//222
f 108//229 93//222 124//222
f 108//229 51//222 93//222
f 111//230 108//229 107//231
f 113//232 108//229 111//230
f 117//233 120//222 108//229
f 115//234 117//233 108//229
f 115//234 108//229 113//232
f 109//235 108//235 124//235
f 109//235 124//235 123//235
f 105//236 41//236 42//236
f 105//236 42//236 106//236
f 123//237 130//238 132//239
f 123//237 128//240 130//238
f 123//237 126//241 128//240
f 123//237 122//242 126//241
f 135//243 123//237 132//239
f 104//243 123//237 135//243
f 112//244 110//245 109//243
f 114//246 112//244 109//243
f 116//247 114//246 109//243
f 118//248 116//247 109//243
f 119//248 118//248 109//243
f 121//249 119//248 109//243
f 40//243 109//243 123//237
f 40//243 104//243 106//243
f 40//243 123//237 104//243
f 40//243 121//249 109//243
f 42//243 40//243 106//243
f 56//250 59//251 57//252
f 56//250 61//253 59//251
f 56//250 63//254 61//253
f 56//250 65//255 63//254
f 56//250 66//256 65//255
f 56//250 68//250 66//256
f 56//250 70//257 68//250
f 16//257 41//257 105//257
f 16//257 105//257 70//257
f 16//257 70//257 56//250
f 2//258 14//259 16//257
f 2//258 16//257 56//250
f 5//260 2//258 1//261
f 7//262 2//258 5//260
f 11//254 14//259 2//258
f 9//263 11//254 2//258
f 9//263 2//258 7//262
f 3//264 2//264 56//264
f 3//264 56//264 55//264
