# Blender v2.81 (sub 16) OBJ File: ''
# www.blender.org
mtllib 8.5x13x3.5 elektrolit kondenzátor.mtl
o 8.5x13x3.5_elektrolit_kondenzátor
v 0.000494 -0.002653 -0.012369
v 0.000581 -0.002576 -0.008196
v 0.000494 -0.002653 -0.008196
v 0.000392 -0.002707 -0.012369
v 0.000392 -0.002707 -0.008196
v 0.000279 -0.002735 -0.012369
v 0.000279 -0.002735 -0.008196
v -0.000247 -0.002141 -0.012369
v -0.000261 -0.002257 -0.012369
v -0.000261 -0.002257 -0.008196
v -0.000247 -0.002141 -0.008196
v 0.000163 -0.002735 -0.012369
v 0.000163 -0.002735 -0.008196
v -0.000206 -0.002033 -0.012369
v -0.000206 -0.002033 -0.008196
v 0.000050 -0.002707 -0.012369
v 0.000050 -0.002707 -0.008196
v -0.000140 -0.001937 -0.012369
v -0.000140 -0.001937 -0.008196
v -0.000053 -0.002653 -0.012369
v -0.000053 -0.002653 -0.008196
v -0.000053 -0.001860 -0.012369
v -0.000053 -0.001860 -0.008196
v -0.000140 -0.002576 -0.012369
v -0.000140 -0.002576 -0.008196
v 0.000050 -0.001806 -0.012369
v 0.000050 -0.001806 -0.008196
v -0.000206 -0.002480 -0.012369
v -0.000206 -0.002480 -0.008196
v -0.000247 -0.002372 -0.012369
v -0.000247 -0.002372 -0.008196
v 0.000163 -0.001779 -0.012369
v 0.000163 -0.001779 -0.008196
v 0.000279 -0.001779 -0.012369
v 0.000279 -0.001779 -0.008196
v 0.000392 -0.001806 -0.012369
v 0.000392 -0.001806 -0.008196
v 0.000494 -0.001860 -0.012369
v 0.000494 -0.001860 -0.008196
v 0.000581 -0.001937 -0.012369
v 0.000581 -0.001937 -0.008196
v 0.000647 -0.002033 -0.012369
v 0.000647 -0.002033 -0.008196
v 0.000689 -0.002141 -0.012369
v 0.000689 -0.002141 -0.008196
v 0.000702 -0.002257 -0.012369
v 0.000702 -0.002257 -0.008196
v 0.000689 -0.002372 -0.012369
v 0.000689 -0.002372 -0.008196
v 0.000647 -0.002480 -0.012369
v 0.000647 -0.002480 -0.008196
v 0.000581 -0.002576 -0.012369
v 0.000494 0.002966 -0.012369
v 0.000581 0.003043 -0.008196
v 0.000494 0.002966 -0.008196
v 0.000392 0.002912 -0.012369
v 0.000392 0.002912 -0.008196
v 0.000279 0.002884 -0.012369
v 0.000279 0.002884 -0.008196
v -0.000247 0.003477 -0.012369
v -0.000261 0.003362 -0.012369
v -0.000261 0.003362 -0.008196
v -0.000247 0.003477 -0.008196
v 0.000163 0.002884 -0.012369
v 0.000163 0.002884 -0.008196
v -0.000206 0.003586 -0.012369
v -0.000206 0.003586 -0.008196
v 0.000050 0.002912 -0.012369
v 0.000050 0.002912 -0.008196
v -0.000140 0.003682 -0.012369
v -0.000140 0.003682 -0.008196
v -0.000053 0.002966 -0.012369
v -0.000053 0.002966 -0.008196
v -0.000053 0.003759 -0.012369
v -0.000053 0.003759 -0.008196
v -0.000140 0.003043 -0.012369
v -0.000140 0.003043 -0.008196
v 0.000050 0.003812 -0.012369
v 0.000050 0.003812 -0.008196
v -0.000206 0.003138 -0.012369
v -0.000206 0.003138 -0.008196
v -0.000247 0.003247 -0.012369
v -0.000247 0.003247 -0.008196
v 0.000163 0.003840 -0.012369
v 0.000163 0.003840 -0.008196
v 0.000279 0.003840 -0.012369
v 0.000279 0.003840 -0.008196
v 0.000392 0.003812 -0.012369
v 0.000392 0.003812 -0.008196
v 0.000494 0.003759 -0.012369
v 0.000494 0.003759 -0.008196
v 0.000581 0.003682 -0.012369
v 0.000581 0.003682 -0.008196
v 0.000647 0.003586 -0.012369
v 0.000647 0.003586 -0.008196
v 0.000689 0.003477 -0.012369
v 0.000689 0.003477 -0.008196
v 0.000702 0.003362 -0.012369
v 0.000702 0.003362 -0.008196
v 0.000689 0.003247 -0.012369
v 0.000689 0.003247 -0.008196
v 0.000647 0.003138 -0.012369
v 0.000647 0.003138 -0.008196
v 0.000581 0.003043 -0.012369
v 0.000221 0.000089 0.012353
v -0.004229 -0.002171 0.012353
v -0.004083 -0.002396 0.012353
v -0.004363 -0.001939 0.012353
v -0.000180 0.000784 0.012353
v -0.004485 -0.001701 0.012353
v 0.000622 0.000784 0.012353
v 0.004671 -0.002171 0.012353
v 0.004525 -0.002396 0.012353
v 0.004805 -0.001939 0.012353
v 0.004927 -0.001701 0.012353
v 0.000087 0.005768 0.012353
v -0.000180 0.005755 0.012353
v 0.000355 0.005768 0.012353
v 0.000622 0.005755 0.012353
v 0.000221 0.000089 0.012514
v 0.001474 -0.004512 0.012514
v 0.002654 -0.004063 0.012514
v 0.000221 -0.004665 0.012514
v -0.001032 -0.004512 0.012514
v -0.002212 -0.004063 0.012514
v -0.003249 -0.003343 0.012514
v -0.004083 -0.002396 0.012514
v 0.003691 -0.003343 0.012514
v 0.004525 -0.002396 0.012514
v -0.000180 0.000784 0.012514
v -0.004888 -0.000504 0.012514
v -0.004485 -0.001701 0.012514
v -0.004993 0.000754 0.012514
v -0.004792 0.002000 0.012514
v -0.004298 0.003161 0.012514
v -0.003539 0.004170 0.012514
v -0.002560 0.004967 0.012514
v -0.001418 0.005506 0.012514
v -0.000180 0.005755 0.012514
v 0.005330 -0.000504 0.012514
v 0.000622 0.000784 0.012514
v 0.004927 -0.001701 0.012514
v 0.005434 0.000754 0.012514
v 0.005234 0.002000 0.012514
v 0.001860 0.005506 0.012514
v 0.000622 0.005755 0.012514
v 0.004739 0.003161 0.012514
v 0.003002 0.004967 0.012514
v 0.003980 0.004170 0.012514
v 0.000927 -0.006274 -0.008197
v 0.002371 -0.005965 0.012676
v 0.000927 -0.006274 0.012676
v 0.002371 -0.005965 -0.008197
v -0.000549 -0.006267 -0.008197
v -0.000549 -0.006267 0.012676
v -0.001991 -0.005944 -0.008197
v -0.001991 -0.005944 0.012676
v -0.003329 -0.005321 -0.008197
v -0.003329 -0.005321 0.012676
v -0.004504 -0.004425 -0.008197
v -0.004504 -0.004425 0.012676
v -0.005459 -0.003299 -0.008197
v -0.005459 -0.003299 0.012676
v -0.003028 -0.003530 0.012676
v -0.003877 -0.002677 0.012676
v -0.002006 -0.004166 0.012676
v -0.004508 -0.001652 0.012676
v -0.000865 -0.004550 0.012676
v 0.000333 -0.004663 0.012676
v 0.001525 -0.004499 0.012676
v -0.003028 -0.003530 -0.008197
v -0.003877 -0.002677 -0.008197
v -0.002006 -0.004166 -0.008197
v -0.004508 -0.001652 -0.008197
v -0.000865 -0.004550 -0.008197
v 0.000333 -0.004663 -0.008197
v 0.001525 -0.004499 -0.008197
v 0.004824 -0.001903 0.012674
v 0.004091 -0.002946 0.012674
v -0.004485 -0.001701 0.012674
v -0.004885 -0.000522 0.012674
v -0.004994 0.000719 0.012674
v -0.004806 0.001950 0.012674
v 0.003127 -0.003780 0.012674
v -0.004332 0.003101 0.012674
v 0.001989 -0.004356 0.012674
v -0.003599 0.004107 0.012674
v -0.002648 0.004911 0.012674
v 0.000746 -0.004638 0.012674
v -0.001533 0.005466 0.012674
v -0.000529 -0.004611 0.012674
v -0.000319 0.005742 0.012674
v -0.001759 -0.004274 0.012674
v -0.002871 -0.003650 0.012674
v 0.000926 0.005722 0.012674
v -0.003798 -0.002775 0.012674
v 0.002131 0.005408 0.012674
v 0.003227 0.004817 0.012674
v 0.004151 0.003984 0.012674
v 0.004853 0.002955 0.012674
v 0.005290 0.001789 0.012674
v 0.005438 0.000553 0.012674
v 0.005283 -0.000713 0.012674
v -0.000602 -0.006220 0.012674
v -0.002199 -0.005827 -0.008196
v -0.000602 -0.006220 -0.008196
v -0.002199 -0.005827 0.012674
v 0.001043 -0.006220 0.012674
v 0.001043 -0.006220 -0.008196
v 0.006845 0.002186 0.012674
v 0.007044 0.000553 0.012674
v 0.007044 0.000553 -0.008196
v 0.002640 -0.005827 0.012674
v 0.002640 -0.005827 -0.008196
v 0.006845 0.002186 -0.008196
v 0.004097 -0.005062 0.012674
v 0.004097 -0.005062 -0.008196
v 0.006262 0.003723 0.012674
v 0.006262 0.003723 -0.008196
v 0.005328 -0.003972 0.012674
v 0.005328 -0.003972 -0.008196
v 0.005328 0.005077 0.012674
v 0.005328 0.005077 -0.008196
v 0.006262 -0.002618 0.012674
v 0.006262 -0.002618 -0.008196
v 0.004097 0.006168 0.012674
v 0.004097 0.006168 -0.008196
v 0.006845 -0.001080 0.012674
v 0.006845 -0.001080 -0.008196
v 0.002640 0.006932 0.012674
v 0.002640 0.006932 -0.008196
v 0.001043 0.007326 0.012674
v 0.001043 0.007326 -0.008196
v -0.000602 0.007326 0.012674
v -0.000602 0.007326 -0.008196
v -0.002199 0.006932 0.012674
v -0.002199 0.006932 -0.008196
v -0.003655 0.006168 0.012674
v -0.003655 0.006168 -0.008196
v -0.004886 0.005077 0.012674
v -0.004886 0.005077 -0.008196
v -0.005820 0.003723 0.012674
v -0.005820 0.003723 -0.008196
v -0.006404 0.002186 0.012674
v -0.006404 0.002186 -0.008196
v -0.006602 0.000553 0.012674
v -0.006602 0.000553 -0.008196
v -0.006404 -0.001080 0.012674
v -0.006404 -0.001080 -0.008196
v -0.005820 -0.002618 0.012674
v -0.005820 -0.002618 -0.008196
v -0.004886 -0.003972 0.012674
v -0.004886 -0.003972 -0.008196
v -0.003655 -0.005062 0.012674
v -0.003655 -0.005062 -0.008196
vn 0.6631 -0.7485 0.0000
vn 0.4647 -0.8855 0.0000
vn 0.2393 -0.9709 0.0000
vn -0.9927 0.1205 0.0000
vn 0.0000 -1.0000 0.0000
vn -0.9350 0.3546 0.0000
vn -0.2393 -0.9709 0.0000
vn -0.8230 0.5681 0.0000
vn -0.4647 -0.8855 0.0000
vn -0.6631 0.7485 0.0000
vn -0.6631 -0.7485 0.0000
vn -0.4647 0.8855 0.0000
vn -0.8230 -0.5681 0.0000
vn -0.9350 -0.3546 0.0000
vn -0.2393 0.9709 0.0000
vn -0.9927 -0.1205 0.0000
vn 0.0000 1.0000 0.0000
vn 0.2393 0.9709 0.0000
vn 0.4647 0.8855 0.0000
vn 0.6631 0.7485 0.0000
vn 0.8230 0.5681 0.0000
vn 0.9350 0.3546 0.0000
vn 0.9927 0.1205 0.0000
vn 0.9927 -0.1205 0.0000
vn 0.9350 -0.3546 0.0000
vn 0.8230 -0.5681 0.0000
vn 0.0000 0.0000 -1.0000
vn -0.0001 0.0000 -1.0000
vn -0.0000 0.0000 1.0000
vn 0.2094 -0.9778 -0.0000
vn -0.0047 -1.0000 -0.0000
vn -0.2185 -0.9758 -0.0000
vn -0.4222 -0.9065 -0.0000
vn -0.6064 -0.7952 -0.0000
vn -0.7624 -0.6471 -0.0000
vn -0.5000 0.8660 0.0000
vn 0.5000 0.8660 0.0000
vn -0.5000 -0.8660 0.0000
vn -1.0000 0.0000 0.0000
vn 1.0000 0.0000 0.0000
vn 0.5000 -0.8660 0.0000
vn -0.7954 0.5589 -0.2345
vn -0.8634 0.4985 0.0777
vn 0.9470 0.3212 0.0000
vn 0.9474 0.3200 0.0095
vn 0.9471 0.3208 0.0034
vn 0.9961 0.0877 -0.0128
vn 0.9475 0.3196 0.0129
vn -0.8905 0.4549 0.0000
vn -0.8629 0.4982 -0.0853
vn 0.9882 -0.1508 -0.0252
vn 0.9963 0.0827 0.0255
vn -0.6362 0.7353 -0.2336
vn -0.7305 0.6431 0.2296
vn -0.8392 0.5438 0.0000
vn 0.9240 -0.3805 -0.0372
vn 0.9866 -0.1590 0.0377
vn -0.4390 0.8679 -0.2324
vn 0.8071 -0.5883 -0.0488
vn 0.9190 -0.3911 0.0495
vn -0.5548 0.8000 0.2285
vn 0.6444 -0.7623 -0.0601
vn -0.2155 0.9488 -0.2311
vn 0.7977 -0.6000 0.0610
vn -0.3465 0.9101 0.2273
vn 0.4451 -0.8927 -0.0710
vn 0.6298 -0.7734 0.0721
vn 0.0211 0.9731 -0.2296
vn -0.1178 0.9670 0.2259
vn 0.2207 -0.9719 -0.0815
vn 0.2566 0.9393 -0.2279
vn 0.4252 -0.9013 0.0828
vn 0.1179 0.9674 0.2243
vn 0.1961 -0.9762 0.0930
vn 0.4770 0.8493 -0.2260
vn 0.0000 -0.9964 -0.0843
vn 0.0000 -0.9968 -0.0794
vn 0.0000 -0.9970 -0.0780
vn 0.3469 0.9111 0.2225
vn -0.0157 -0.9855 -0.1691
vn 0.6691 0.7086 -0.2240
vn 0.5559 0.8015 0.2206
vn 0.8214 0.5255 -0.2218
vn 0.0513 -0.9987 0.0000
vn 0.7325 0.6448 0.2184
vn 0.8660 0.5000 0.0000
vn 0.0000 -0.9964 -0.0853
vn -0.1940 -0.9658 0.1721
vn -0.2490 -0.9548 -0.1626
vn 0.8392 0.5438 0.0000
vn -0.0513 -0.9987 0.0000
vn 0.8629 0.4982 -0.0853
vn -0.4208 -0.8919 0.1654
vn 0.8905 0.4549 0.0000
vn -0.4687 -0.8695 -0.1557
vn -0.6234 -0.7657 0.1584
vn -0.6621 -0.7346 -0.1484
vn -0.8182 -0.5574 -0.1408
vn -0.7900 -0.5942 0.1510
vn -0.9280 -0.3481 -0.1328
vn -0.9107 -0.3875 0.1431
vn -0.9851 -0.1184 -0.1244
vn -0.9782 -0.1576 0.1350
vn -0.9835 0.1211 -0.1343
vn -0.9886 0.0820 0.1264
vn -0.9240 0.3557 -0.1405
vn -0.9392 0.3168 0.1327
vn -0.8660 0.5000 0.0000
vn -0.1367 0.9906 0.0000
vn 0.0940 0.9956 0.0000
vn 0.3196 0.9475 0.0000
vn 0.5283 0.8491 0.0000
vn 0.7088 0.7054 0.0000
vn 0.8516 0.5242 0.0000
usemtl material_2.336
s 1
f 1//1 2//1 3//1
f 4//2 1//2 3//2
f 4//2 3//2 5//2
f 6//3 5//3 7//3
f 6//3 4//3 5//3
f 8//4 9//4 10//4
f 8//4 10//4 11//4
f 12//5 7//5 13//5
f 12//5 6//5 7//5
f 14//6 11//6 15//6
f 16//7 13//7 17//7
f 14//6 8//6 11//6
f 16//7 12//7 13//7
f 18//8 15//8 19//8
f 20//9 17//9 21//9
f 18//8 14//8 15//8
f 20//9 16//9 17//9
f 22//10 19//10 23//10
f 24//11 21//11 25//11
f 22//10 18//10 19//10
f 24//11 20//11 21//11
f 26//12 23//12 27//12
f 28//13 25//13 29//13
f 26//12 22//12 23//12
f 28//13 24//13 25//13
f 30//14 29//14 31//14
f 30//14 28//14 29//14
f 32//15 27//15 33//15
f 9//16 31//16 10//16
f 32//15 26//15 27//15
f 9//16 30//16 31//16
f 34//17 33//17 35//17
f 34//17 32//17 33//17
f 36//18 35//18 37//18
f 36//18 34//18 35//18
f 38//19 37//19 39//19
f 38//19 36//19 37//19
f 40//20 39//20 41//20
f 40//20 38//20 39//20
f 42//21 40//21 41//21
f 42//21 41//21 43//21
f 44//22 42//22 43//22
f 44//22 43//22 45//22
f 46//23 44//23 45//23
f 46//23 45//23 47//23
f 48//24 46//24 47//24
f 48//24 47//24 49//24
f 50//25 48//25 49//25
f 50//25 49//25 51//25
f 52//26 50//26 51//26
f 52//26 51//26 2//26
f 1//1 52//1 2//1
f 8//27 40//27 9//27
f 14//27 40//27 8//27
f 18//27 40//27 14//27
f 22//27 40//27 18//27
f 26//27 40//27 22//27
f 32//27 40//27 26//27
f 34//27 40//27 32//27
f 36//27 40//27 34//27
f 38//27 40//27 36//27
f 44//27 40//27 42//28
f 46//27 40//27 44//27
f 48//27 40//27 46//27
f 50//27 40//27 48//27
f 52//27 40//27 50//27
f 1//27 40//27 52//27
f 4//27 40//27 1//27
f 6//27 40//27 4//27
f 12//27 40//27 6//27
f 16//27 40//27 12//27
f 20//27 40//27 16//27
f 24//27 40//27 20//27
f 28//27 40//27 24//27
f 30//27 40//27 28//27
f 9//27 40//27 30//27
f 53//1 54//1 55//1
f 56//2 53//2 55//2
f 56//2 55//2 57//2
f 58//3 57//3 59//3
f 58//3 56//3 57//3
f 60//4 61//4 62//4
f 60//4 62//4 63//4
f 64//5 59//5 65//5
f 64//5 58//5 59//5
f 66//6 63//6 67//6
f 68//7 65//7 69//7
f 66//6 60//6 63//6
f 68//7 64//7 65//7
f 70//8 67//8 71//8
f 72//9 69//9 73//9
f 70//8 66//8 67//8
f 72//9 68//9 69//9
f 74//10 71//10 75//10
f 76//11 73//11 77//11
f 74//10 70//10 71//10
f 76//11 72//11 73//11
f 78//12 75//12 79//12
f 80//13 77//13 81//13
f 78//12 74//12 75//12
f 80//13 76//13 77//13
f 82//14 81//14 83//14
f 82//14 80//14 81//14
f 84//15 79//15 85//15
f 61//16 83//16 62//16
f 84//15 78//15 79//15
f 61//16 82//16 83//16
f 86//17 85//17 87//17
f 86//17 84//17 85//17
f 88//18 87//18 89//18
f 88//18 86//18 87//18
f 90//19 89//19 91//19
f 90//19 88//19 89//19
f 92//20 91//20 93//20
f 92//20 90//20 91//20
f 94//21 92//21 93//21
f 94//21 93//21 95//21
f 96//22 94//22 95//22
f 96//22 95//22 97//22
f 98//23 96//23 97//23
f 98//23 97//23 99//23
f 100//24 98//24 99//24
f 100//24 99//24 101//24
f 102//25 100//25 101//25
f 102//25 101//25 103//25
f 104//26 102//26 103//26
f 104//26 103//26 54//26
f 53//1 104//1 54//1
f 60//27 92//27 61//27
f 66//27 92//27 60//27
f 70//27 92//27 66//27
f 74//27 92//27 70//27
f 78//27 92//27 74//27
f 84//27 92//27 78//27
f 86//27 92//27 84//27
f 88//27 92//27 86//27
f 90//27 92//27 88//27
f 96//27 92//27 94//27
f 98//27 92//27 96//27
f 100//27 92//27 98//27
f 102//27 92//27 100//27
f 104//27 92//27 102//27
f 53//27 92//27 104//27
f 56//27 92//27 53//27
f 58//27 92//27 56//27
f 64//27 92//27 58//27
f 68//27 92//27 64//27
f 72//27 92//27 68//27
f 76//27 92//27 72//27
f 80//27 92//27 76//27
f 82//27 92//27 80//27
f 61//27 92//27 82//27
f 105//29 106//29 107//29
f 105//29 108//29 106//29
f 109//29 110//29 108//29
f 109//29 108//29 105//29
f 111//29 109//29 105//29
f 112//29 105//29 113//29
f 114//29 111//29 105//29
f 114//29 105//29 112//29
f 115//29 111//29 114//29
f 116//29 117//29 109//29
f 118//29 109//29 111//29
f 118//29 116//29 109//29
f 119//29 118//29 111//29
f 120//29 121//29 122//29
f 120//29 123//29 121//29
f 120//29 124//29 123//29
f 120//29 125//29 124//29
f 120//29 126//29 125//29
f 120//29 127//29 126//29
f 128//29 120//29 122//29
f 129//29 120//29 128//29
f 130//29 131//29 132//29
f 130//29 133//29 131//29
f 130//29 134//29 133//29
f 130//29 135//29 134//29
f 136//29 135//29 130//29
f 137//29 136//29 130//29
f 138//29 137//29 130//29
f 139//29 138//29 130//29
f 140//29 141//29 142//29
f 143//29 141//29 140//29
f 144//29 141//29 143//29
f 145//29 146//29 141//29
f 147//29 141//29 144//29
f 148//29 145//29 141//29
f 149//29 148//29 141//29
f 149//29 141//29 147//29
f 150//30 151//30 152//30
f 150//30 153//30 151//30
f 154//31 152//31 155//31
f 154//31 150//31 152//31
f 156//32 155//32 157//32
f 156//32 154//32 155//32
f 158//33 157//33 159//33
f 158//33 156//33 157//33
f 160//34 159//34 161//34
f 160//34 158//34 159//34
f 162//35 161//35 163//35
f 162//35 160//35 161//35
f 164//29 161//29 159//29
f 165//29 163//29 161//29
f 165//29 161//29 164//29
f 166//29 159//29 157//29
f 166//29 164//29 159//29
f 167//29 163//29 165//29
f 168//29 157//29 155//29
f 168//29 166//29 157//29
f 169//29 155//29 152//29
f 169//29 168//29 155//29
f 170//29 152//29 151//29
f 170//29 169//29 152//29
f 160//27 171//27 158//27
f 162//27 172//27 160//27
f 160//27 172//27 171//27
f 158//27 173//27 156//27
f 171//27 173//27 158//27
f 162//27 174//27 172//27
f 156//27 175//27 154//27
f 173//27 175//27 156//27
f 154//27 176//27 150//27
f 175//27 176//27 154//27
f 150//27 177//27 153//27
f 176//27 177//27 150//27
usemtl material_1.714
f 120//36 107//36 127//36
f 105//36 107//36 120//36
f 129//37 105//37 120//37
f 113//37 105//37 129//37
f 141//38 115//38 142//38
f 111//38 115//38 141//38
f 146//39 111//39 141//39
f 119//39 111//39 146//39
f 130//40 117//40 139//40
f 109//40 117//40 130//40
f 132//41 109//41 130//41
f 110//41 109//41 132//41
f 178//42 129//42 179//42
f 142//43 129//43 178//43
f 180//44 132//45 181//46
f 181//47 131//47 182//47
f 132//45 131//48 181//46
f 115//49 114//49 142//49
f 142//50 112//50 129//50
f 114//50 112//50 142//50
f 182//51 133//51 183//51
f 131//52 133//52 182//52
f 179//53 128//53 184//53
f 129//54 128//54 179//54
f 112//55 113//55 129//55
f 183//56 134//56 185//56
f 133//57 134//57 183//57
f 184//58 122//58 186//58
f 185//59 135//59 187//59
f 134//60 135//60 185//60
f 128//61 122//61 184//61
f 187//62 136//62 188//62
f 186//63 121//63 189//63
f 135//64 136//64 187//64
f 122//65 121//65 186//65
f 188//66 137//66 190//66
f 136//67 137//67 188//67
f 189//68 123//68 191//68
f 121//69 123//69 189//69
f 190//70 138//70 192//70
f 191//71 124//71 193//71
f 137//72 138//72 190//72
f 123//73 124//73 191//73
f 138//74 139//74 192//74
f 193//75 125//75 194//75
f 139//76 146//77 192//78
f 124//79 125//79 193//79
f 192//80 146//80 195//80
f 194//81 126//81 196//81
f 125//82 126//82 194//82
f 196//83 127//83 180//83
f 117//84 116//84 139//84
f 126//85 127//85 196//85
f 127//86 132//86 180//86
f 139//76 118//87 146//77
f 116//87 118//87 139//76
f 146//88 145//88 195//88
f 195//89 145//89 197//89
f 107//90 106//90 127//90
f 118//91 119//91 146//91
f 127//92 108//92 132//92
f 106//92 108//92 127//92
f 145//93 148//93 197//93
f 108//94 110//94 132//94
f 197//95 148//95 198//95
f 148//96 149//96 198//96
f 198//97 149//97 199//97
f 199//98 147//98 200//98
f 149//99 147//99 199//99
f 200//100 144//100 201//100
f 147//101 144//101 200//101
f 201//102 143//102 202//102
f 144//103 143//103 201//103
f 202//104 140//104 203//104
f 143//105 140//105 202//105
f 203//106 142//106 178//106
f 140//107 142//107 203//107
f 174//108 163//108 167//108
f 174//108 162//108 163//108
f 153//86 170//86 151//86
f 153//86 177//86 170//86
f 177//109 176//109 170//109
f 170//109 176//109 169//109
f 169//110 175//110 168//110
f 176//110 175//110 169//110
f 168//111 173//111 166//111
f 175//111 173//111 168//111
f 166//112 171//112 164//112
f 173//112 171//112 166//112
f 164//113 172//113 165//113
f 171//113 172//113 164//113
f 165//114 174//114 167//114
f 172//114 174//114 165//114
usemtl material_0.728
f 204//7 205//7 206//7
f 204//7 207//7 205//7
f 208//5 206//5 209//5
f 208//5 204//5 206//5
f 210//23 211//23 212//23
f 213//3 209//3 214//3
f 210//23 212//23 215//23
f 213//3 208//3 209//3
f 216//2 214//2 217//2
f 218//22 215//22 219//22
f 216//2 213//2 214//2
f 218//22 210//22 215//22
f 220//1 217//1 221//1
f 220//1 216//1 217//1
f 222//21 219//21 223//21
f 222//21 218//21 219//21
f 224//26 221//26 225//26
f 224//26 220//26 221//26
f 226//20 223//20 227//20
f 226//20 222//20 223//20
f 228//25 225//25 229//25
f 228//25 224//25 225//25
f 230//19 227//19 231//19
f 230//19 226//19 227//19
f 211//24 229//24 212//24
f 211//24 228//24 229//24
f 232//18 231//18 233//18
f 232//18 230//18 231//18
f 234//17 233//17 235//17
f 234//17 232//17 233//17
f 236//15 235//15 237//15
f 236//15 234//15 235//15
f 238//12 237//12 239//12
f 238//12 236//12 237//12
f 240//10 239//10 241//10
f 240//10 238//10 239//10
f 242//8 240//8 241//8
f 242//8 241//8 243//8
f 244//6 242//6 243//6
f 244//6 243//6 245//6
f 246//4 244//4 245//4
f 246//4 245//4 247//4
f 248//16 246//16 247//16
f 248//16 247//16 249//16
f 250//14 248//14 249//14
f 250//14 249//14 251//14
f 252//13 250//13 251//13
f 252//13 251//13 253//13
f 254//11 252//11 253//11
f 254//11 253//11 255//11
f 207//9 254//9 255//9
f 207//9 255//9 205//9
f 89//27 233//27 91//27
f 87//27 233//27 89//27
f 85//27 233//27 87//27
f 235//27 233//27 85//27
f 54//27 215//27 212//27
f 35//27 57//27 37//27
f 103//27 215//27 54//27
f 59//27 57//27 35//27
f 239//27 67//27 63//27
f 233//27 231//27 91//27
f 93//27 231//27 95//27
f 91//27 231//27 93//27
f 37//27 55//27 39//27
f 103//27 219//27 215//27
f 101//27 219//27 103//27
f 57//27 55//27 37//27
f 231//27 227//27 95//27
f 95//27 227//27 97//27
f 101//27 223//27 219//27
f 39//27 54//27 41//27
f 227//27 223//27 97//27
f 55//27 54//27 39//27
f 99//27 223//27 101//27
f 97//27 223//27 99//27
f 45//27 225//27 221//27
f 43//27 225//27 45//27
f 25//27 21//27 205//27
f 205//27 21//27 206//27
f 205//27 29//27 25//27
f 255//27 29//27 205//27
f 49//27 217//27 51//27
f 21//27 17//27 206//27
f 255//27 31//27 29//27
f 51//27 217//27 214//27
f 253//27 31//27 255//27
f 49//27 221//27 217//27
f 47//27 221//27 49//27
f 45//27 221//27 47//27
f 17//27 13//27 206//27
f 253//27 10//27 31//27
f 245//27 77//27 247//27
f 206//27 7//27 209//27
f 247//27 77//27 19//27
f 13//27 7//27 206//27
f 253//27 11//27 10//27
f 251//27 11//27 253//27
f 7//27 5//27 209//27
f 19//27 73//27 23//27
f 77//27 73//27 19//27
f 249//27 15//27 251//27
f 243//27 81//27 245//27
f 251//27 15//27 11//27
f 245//27 81//27 77//27
f 73//27 69//27 23//27
f 209//27 3//27 214//27
f 5//27 3//27 209//27
f 23//27 69//27 27//27
f 71//27 237//27 75//27
f 67//27 237//27 71//27
f 239//27 237//27 67//27
f 241//27 83//27 243//27
f 41//27 229//27 43//27
f 247//27 19//27 249//27
f 243//27 83//27 81//27
f 249//27 19//27 15//27
f 27//27 65//27 33//27
f 43//27 229//27 225//27
f 3//27 2//27 214//27
f 69//27 65//27 27//27
f 79//27 235//27 85//27
f 75//27 235//27 79//27
f 237//27 235//27 75//27
f 241//27 62//27 83//27
f 41//27 212//27 229//27
f 65//27 59//27 33//27
f 2//27 51//27 214//27
f 33//27 59//27 35//27
f 54//27 212//27 41//27
f 239//27 63//27 241//27
f 241//27 63//27 62//27
f 236//29 238//29 188//29
f 236//29 188//29 190//29
f 228//29 203//29 224//29
f 202//29 203//29 228//29
f 234//29 236//29 190//29
f 234//29 190//29 192//29
f 196//29 250//29 252//29
f 194//29 252//29 254//29
f 194//29 196//29 252//29
f 180//29 248//29 250//29
f 211//29 202//29 228//29
f 180//29 250//29 196//29
f 211//29 201//29 202//29
f 193//29 254//29 207//29
f 193//29 194//29 254//29
f 181//29 246//29 248//29
f 181//29 248//29 180//29
f 191//29 207//29 204//29
f 232//29 234//29 192//29
f 191//29 193//29 207//29
f 232//29 192//29 195//29
f 182//29 246//29 181//29
f 210//29 201//29 211//29
f 210//29 200//29 201//29
f 244//29 246//29 182//29
f 189//29 204//29 208//29
f 230//29 195//29 197//29
f 230//29 232//29 195//29
f 189//29 191//29 204//29
f 218//29 199//29 200//29
f 218//29 200//29 210//29
f 183//29 244//29 182//29
f 226//29 230//29 197//29
f 226//29 197//29 198//29
f 186//29 208//29 213//29
f 222//29 198//29 199//29
f 222//29 226//29 198//29
f 186//29 189//29 208//29
f 222//29 199//29 218//29
f 242//29 244//29 183//29
f 185//29 242//29 183//29
f 184//29 213//29 216//29
f 184//29 186//29 213//29
f 240//29 242//29 185//29
f 187//29 240//29 185//29
f 179//29 184//29 216//29
f 220//29 179//29 216//29
f 238//29 240//29 187//29
f 238//29 187//29 188//29
f 178//29 179//29 220//29
f 224//29 178//29 220//29
f 203//29 178//29 224//29
