# Blender v2.81 (sub 16) OBJ File: ''
# www.blender.org
mtllib Arduino NanoV3 + Female Headers.mtl
o Arduino_NanoV3_+_Female_Headers
v -0.005916 -0.000234 -0.001997
v -0.005986 -0.000234 -0.001976
v -0.005986 0.000234 -0.001976
v -0.006058 0.000234 -0.001973
v -0.006058 -0.000234 -0.001973
v -0.006129 0.000234 -0.001988
v -0.006129 -0.000234 -0.001988
v -0.006326 -0.000234 -0.002264
v -0.006319 -0.000234 -0.002329
v -0.006326 0.000234 -0.002264
v -0.006319 0.000234 -0.002329
v -0.006194 0.000234 -0.002020
v -0.006194 -0.000234 -0.002020
v -0.006249 0.000234 -0.002067
v -0.006297 -0.000234 -0.002391
v -0.006297 0.000234 -0.002391
v -0.006249 -0.000234 -0.002067
v -0.006291 0.000234 -0.002125
v -0.006262 -0.000234 -0.002447
v -0.006262 0.000234 -0.002447
v -0.006291 -0.000234 -0.002125
v -0.006317 0.000234 -0.002193
v -0.006216 -0.000234 -0.002493
v -0.006216 0.000234 -0.002493
v -0.006317 -0.000234 -0.002193
v -0.006160 -0.000234 -0.002528
v -0.006160 0.000234 -0.002528
v -0.006099 -0.000234 -0.002549
v -0.006099 0.000234 -0.002549
v -0.006034 -0.000234 -0.002557
v -0.006034 0.000234 -0.002557
v -0.005962 0.000234 -0.002548
v -0.005962 -0.000234 -0.002548
v -0.005895 0.000234 -0.002521
v -0.005895 -0.000234 -0.002521
v -0.005836 0.000234 -0.002479
v -0.005836 -0.000234 -0.002479
v -0.005789 0.000234 -0.002424
v -0.005789 -0.000234 -0.002424
v -0.005757 0.000234 -0.002359
v -0.005757 -0.000234 -0.002359
v -0.005743 0.000234 -0.002289
v -0.005743 -0.000234 -0.002289
v -0.005746 0.000234 -0.002216
v -0.005746 -0.000234 -0.002216
v -0.005766 0.000234 -0.002147
v -0.005766 -0.000234 -0.002147
v -0.005803 0.000234 -0.002085
v -0.005803 -0.000234 -0.002085
v -0.005854 0.000234 -0.002034
v -0.005854 -0.000234 -0.002034
v -0.005916 0.000234 -0.001997
v 0.005916 -0.000234 0.001997
v 0.005986 -0.000234 0.001976
v 0.005986 0.000234 0.001976
v 0.006058 0.000234 0.001973
v 0.006058 -0.000234 0.001973
v 0.006129 0.000234 0.001988
v 0.006129 -0.000234 0.001988
v 0.006326 -0.000234 0.002264
v 0.006319 -0.000234 0.002329
v 0.006326 0.000234 0.002264
v 0.006319 0.000234 0.002329
v 0.006194 0.000234 0.002020
v 0.006194 -0.000234 0.002020
v 0.006249 0.000234 0.002067
v 0.006297 -0.000234 0.002391
v 0.006297 0.000234 0.002391
v 0.006249 -0.000234 0.002067
v 0.006291 0.000234 0.002125
v 0.006262 -0.000234 0.002447
v 0.006262 0.000234 0.002447
v 0.006291 -0.000234 0.002125
v 0.006317 0.000234 0.002193
v 0.006216 -0.000234 0.002493
v 0.006216 0.000234 0.002493
v 0.006317 -0.000234 0.002193
v 0.006160 -0.000234 0.002528
v 0.006160 0.000234 0.002528
v 0.006099 -0.000234 0.002549
v 0.006099 0.000234 0.002549
v 0.006034 -0.000234 0.002557
v 0.006034 0.000234 0.002557
v 0.005962 0.000234 0.002548
v 0.005962 -0.000234 0.002548
v 0.005895 0.000234 0.002521
v 0.005895 -0.000234 0.002521
v 0.005836 0.000234 0.002479
v 0.005836 -0.000234 0.002479
v 0.005789 0.000234 0.002424
v 0.005789 -0.000234 0.002424
v 0.005757 0.000234 0.002359
v 0.005757 -0.000234 0.002359
v 0.005743 0.000234 0.002289
v 0.005743 -0.000234 0.002289
v 0.005746 0.000234 0.002216
v 0.005746 -0.000234 0.002216
v 0.005766 0.000234 0.002147
v 0.005766 -0.000234 0.002147
v 0.005803 0.000234 0.002085
v 0.005803 -0.000234 0.002085
v 0.005854 0.000234 0.002034
v 0.005854 -0.000234 0.002034
v 0.005916 0.000234 0.001997
v 0.005916 0.000234 -0.001997
v 0.005986 0.000234 -0.001976
v 0.005986 -0.000234 -0.001976
v 0.006058 -0.000234 -0.001973
v 0.006058 0.000234 -0.001973
v 0.006129 -0.000234 -0.001988
v 0.006129 0.000234 -0.001988
v 0.006326 0.000234 -0.002264
v 0.006319 0.000234 -0.002329
v 0.006326 -0.000234 -0.002264
v 0.006319 -0.000234 -0.002329
v 0.006194 -0.000234 -0.002020
v 0.006194 0.000234 -0.002020
v 0.006249 -0.000234 -0.002067
v 0.006297 0.000234 -0.002391
v 0.006297 -0.000234 -0.002391
v 0.006249 0.000234 -0.002067
v 0.006291 -0.000234 -0.002125
v 0.006262 0.000234 -0.002447
v 0.006262 -0.000234 -0.002447
v 0.006291 0.000234 -0.002125
v 0.006317 -0.000234 -0.002193
v 0.006216 0.000234 -0.002493
v 0.006216 -0.000234 -0.002493
v 0.006317 0.000234 -0.002193
v 0.006160 0.000234 -0.002528
v 0.006160 -0.000234 -0.002528
v 0.006099 0.000234 -0.002549
v 0.006099 -0.000234 -0.002549
v 0.006034 0.000234 -0.002557
v 0.006034 -0.000234 -0.002557
v 0.005962 -0.000234 -0.002548
v 0.005962 0.000234 -0.002548
v 0.005895 -0.000234 -0.002521
v 0.005895 0.000234 -0.002521
v 0.005836 -0.000234 -0.002479
v 0.005836 0.000234 -0.002479
v 0.005789 -0.000234 -0.002424
v 0.005789 0.000234 -0.002424
v 0.005757 -0.000234 -0.002359
v 0.005757 0.000234 -0.002359
v 0.005743 -0.000234 -0.002289
v 0.005743 0.000234 -0.002289
v 0.005746 -0.000234 -0.002216
v 0.005746 0.000234 -0.002216
v 0.005766 -0.000234 -0.002147
v 0.005766 0.000234 -0.002147
v 0.005803 -0.000234 -0.002085
v 0.005803 0.000234 -0.002085
v 0.005854 -0.000234 -0.002034
v 0.005854 0.000234 -0.002034
v 0.005916 -0.000234 -0.001997
v -0.005916 0.000234 0.001997
v -0.005986 0.000234 0.001976
v -0.005986 -0.000234 0.001976
v -0.006058 -0.000234 0.001973
v -0.006058 0.000234 0.001973
v -0.006129 -0.000234 0.001988
v -0.006129 0.000234 0.001988
v -0.006326 0.000234 0.002264
v -0.006319 0.000234 0.002329
v -0.006326 -0.000234 0.002264
v -0.006319 -0.000234 0.002329
v -0.006194 -0.000234 0.002020
v -0.006194 0.000234 0.002020
v -0.006249 -0.000234 0.002067
v -0.006297 0.000234 0.002391
v -0.006297 -0.000234 0.002391
v -0.006249 0.000234 0.002067
v -0.006291 -0.000234 0.002125
v -0.006262 0.000234 0.002447
v -0.006262 -0.000234 0.002447
v -0.006291 0.000234 0.002125
v -0.006317 -0.000234 0.002193
v -0.006216 0.000234 0.002493
v -0.006216 -0.000234 0.002493
v -0.006317 0.000234 0.002193
v -0.006160 0.000234 0.002528
v -0.006160 -0.000234 0.002528
v -0.006099 0.000234 0.002549
v -0.006099 -0.000234 0.002549
v -0.006034 0.000234 0.002557
v -0.006034 -0.000234 0.002557
v -0.005962 -0.000234 0.002548
v -0.005962 0.000234 0.002548
v -0.005895 -0.000234 0.002521
v -0.005895 0.000234 0.002521
v -0.005836 -0.000234 0.002479
v -0.005836 0.000234 0.002479
v -0.005789 -0.000234 0.002424
v -0.005789 0.000234 0.002424
v -0.005757 -0.000234 0.002359
v -0.005757 0.000234 0.002359
v -0.005743 -0.000234 0.002289
v -0.005743 0.000234 0.002289
v -0.005746 -0.000234 0.002216
v -0.005746 0.000234 0.002216
v -0.005766 -0.000234 0.002147
v -0.005766 0.000234 0.002147
v -0.005803 -0.000234 0.002085
v -0.005803 0.000234 0.002085
v -0.005854 -0.000234 0.002034
v -0.005854 0.000234 0.002034
v -0.005916 -0.000234 0.001997
v -0.006384 0.000234 0.002615
v -0.006384 -0.000234 -0.002615
v -0.006384 -0.000234 0.002615
v -0.006384 0.000234 -0.002615
v 0.006384 0.000234 -0.002615
v 0.006384 -0.000234 -0.002615
v 0.006384 -0.000234 0.002615
v 0.006384 0.000234 0.002615
vn -0.2853 0.0000 -0.9584
vn -0.0413 0.0000 -0.9991
vn 0.2052 0.0000 -0.9787
vn 0.9937 0.0000 0.1120
vn 0.4392 0.0000 -0.8984
vn 0.6463 0.0000 -0.7631
vn 0.9439 0.0000 0.3303
vn 0.8138 0.0000 -0.5811
vn 0.8467 0.0000 0.5320
vn 0.9316 0.0000 -0.3635
vn 0.7071 0.0000 0.7071
vn 0.9923 0.0000 -0.1237
vn 0.5320 0.0000 0.8467
vn 0.3303 0.0000 0.9439
vn 0.1120 0.0000 0.9937
vn -0.1237 0.0000 0.9923
vn -0.3635 0.0000 0.9316
vn -0.5811 0.0000 0.8138
vn -0.7631 0.0000 0.6463
vn -0.8984 0.0000 0.4392
vn -0.9787 0.0000 0.2052
vn -0.9991 0.0000 -0.0413
vn -0.9584 0.0000 -0.2853
vn -0.8591 0.0000 -0.5119
vn -0.7071 0.0000 -0.7071
vn -0.5119 0.0000 -0.8591
vn 0.2853 0.0000 0.9584
vn 0.0413 0.0000 0.9991
vn -0.2052 0.0000 0.9787
vn -0.9937 0.0000 -0.1120
vn -0.4392 0.0000 0.8984
vn -0.6463 0.0000 0.7631
vn -0.9439 0.0000 -0.3303
vn -0.8138 0.0000 0.5811
vn -0.8467 0.0000 -0.5320
vn -0.9316 0.0000 0.3635
vn -0.9923 0.0000 0.1237
vn -0.5320 0.0000 -0.8467
vn -0.3303 0.0000 -0.9439
vn -0.1120 0.0000 -0.9937
vn 0.1237 0.0000 -0.9923
vn 0.3635 0.0000 -0.9316
vn 0.5811 0.0000 -0.8138
vn 0.7631 0.0000 -0.6463
vn 0.8984 0.0000 -0.4392
vn 0.9787 0.0000 -0.2052
vn 0.9991 0.0000 0.0413
vn 0.9584 0.0000 0.2854
vn 0.9584 0.0000 0.2853
vn 0.8591 0.0000 0.5119
vn 0.5119 0.0000 0.8591
vn 0.2853 0.0000 -0.9584
vn 0.0413 0.0000 -0.9991
vn -0.2052 0.0000 -0.9787
vn -0.9937 0.0000 0.1120
vn -0.4392 0.0000 -0.8984
vn -0.6463 0.0000 -0.7631
vn -0.9439 0.0000 0.3303
vn -0.8138 0.0000 -0.5811
vn -0.8467 0.0000 0.5320
vn -0.9316 0.0000 -0.3635
vn -0.7071 0.0000 0.7071
vn -0.9923 0.0000 -0.1237
vn -0.5320 0.0000 0.8467
vn -0.3303 0.0000 0.9439
vn -0.1120 0.0000 0.9937
vn 0.1237 0.0000 0.9923
vn 0.3635 0.0000 0.9316
vn 0.5811 0.0000 0.8138
vn 0.7631 0.0000 0.6463
vn 0.8984 0.0000 0.4392
vn 0.9787 0.0000 0.2052
vn 0.9991 0.0000 -0.0413
vn 0.9584 0.0000 -0.2854
vn 0.9584 0.0000 -0.2853
vn 0.8591 0.0000 -0.5119
vn 0.7071 0.0000 -0.7071
vn 0.5119 0.0000 -0.8591
vn -0.2853 0.0000 0.9584
vn -0.0413 0.0000 0.9991
vn 0.2052 0.0000 0.9787
vn 0.9937 0.0000 -0.1120
vn 0.4392 0.0000 0.8984
vn 0.6463 0.0000 0.7631
vn 0.9439 0.0000 -0.3303
vn 0.8138 0.0000 0.5811
vn 0.8467 0.0000 -0.5320
vn 0.9316 0.0000 0.3635
vn 0.9923 0.0000 0.1237
vn 0.5320 0.0000 -0.8467
vn 0.3303 0.0000 -0.9439
vn 0.1120 0.0000 -0.9937
vn -0.1237 0.0000 -0.9923
vn -0.3635 0.0000 -0.9316
vn -0.5811 0.0000 -0.8138
vn -0.7631 0.0000 -0.6463
vn -0.8984 0.0000 -0.4392
vn -0.9787 0.0000 -0.2052
vn -0.9991 0.0000 0.0413
vn -0.9584 0.0000 0.2853
vn -0.8591 0.0000 0.5119
vn -0.5119 0.0000 0.8591
vn -1.0000 0.0000 0.0000
vn 0.0000 0.0000 -1.0000
vn 1.0000 0.0000 0.0000
vn 0.0000 0.0000 1.0000
vn -0.0000 1.0000 0.0000
vn -0.0000 -1.0000 -0.0000
usemtl material_1.526
s 1
f 1//1 2//1 3//1
f 3//2 2//2 4//2
f 2//2 5//2 4//2
f 4//3 5//3 6//3
f 5//3 7//3 6//3
f 8//4 9//4 10//4
f 10//4 9//4 11//4
f 6//5 7//5 12//5
f 7//5 13//5 12//5
f 12//6 13//6 14//6
f 11//7 15//7 16//7
f 9//7 15//7 11//7
f 13//6 17//6 14//6
f 14//8 17//8 18//8
f 16//9 19//9 20//9
f 15//9 19//9 16//9
f 17//8 21//8 18//8
f 18//10 21//10 22//10
f 20//11 23//11 24//11
f 22//12 25//12 10//12
f 19//11 23//11 20//11
f 21//10 25//10 22//10
f 25//12 8//12 10//12
f 24//13 26//13 27//13
f 23//13 26//13 24//13
f 27//14 28//14 29//14
f 26//14 28//14 27//14
f 29//15 30//15 31//15
f 31//16 30//16 32//16
f 28//15 30//15 29//15
f 32//17 33//17 34//17
f 30//16 33//16 32//16
f 34//18 35//18 36//18
f 33//17 35//17 34//17
f 36//19 37//19 38//19
f 35//18 37//18 36//18
f 37//19 39//19 38//19
f 38//20 39//20 40//20
f 39//20 41//20 40//20
f 40//21 41//21 42//21
f 41//21 43//21 42//21
f 42//22 43//22 44//22
f 43//22 45//22 44//22
f 44//23 45//23 46//23
f 45//23 47//23 46//23
f 46//24 47//24 48//24
f 47//24 49//24 48//24
f 48//25 49//25 50//25
f 49//25 51//25 50//25
f 50//26 51//26 52//26
f 51//26 1//26 52//26
f 52//1 1//1 3//1
usemtl material_0.536
f 53//27 54//27 55//27
f 55//28 54//28 56//28
f 54//28 57//28 56//28
f 56//29 57//29 58//29
f 57//29 59//29 58//29
f 60//30 61//30 62//30
f 62//30 61//30 63//30
f 58//31 59//31 64//31
f 59//31 65//31 64//31
f 64//32 65//32 66//32
f 63//33 67//33 68//33
f 61//33 67//33 63//33
f 65//32 69//32 66//32
f 66//34 69//34 70//34
f 68//35 71//35 72//35
f 67//35 71//35 68//35
f 69//34 73//34 70//34
f 70//36 73//36 74//36
f 72//25 75//25 76//25
f 74//37 77//37 62//37
f 71//25 75//25 72//25
f 73//36 77//36 74//36
f 77//37 60//37 62//37
f 76//38 78//38 79//38
f 75//38 78//38 76//38
f 79//39 80//39 81//39
f 78//39 80//39 79//39
f 81//40 82//40 83//40
f 83//41 82//41 84//41
f 80//40 82//40 81//40
f 84//42 85//42 86//42
f 82//41 85//41 84//41
f 86//43 87//43 88//43
f 85//42 87//42 86//42
f 88//44 89//44 90//44
f 87//43 89//43 88//43
f 89//44 91//44 90//44
f 90//45 91//45 92//45
f 91//45 93//45 92//45
f 92//46 93//46 94//46
f 93//46 95//46 94//46
f 94//47 95//47 96//47
f 95//47 97//47 96//47
f 96//48 97//49 98//48
f 97//49 99//49 98//48
f 98//50 99//50 100//50
f 99//50 101//50 100//50
f 100//11 101//11 102//11
f 101//11 103//11 102//11
f 102//51 103//51 104//51
f 103//51 53//51 104//51
f 104//27 53//27 55//27
f 105//52 106//52 107//52
f 107//53 106//53 108//53
f 106//53 109//53 108//53
f 108//54 109//54 110//54
f 109//54 111//54 110//54
f 112//55 113//55 114//55
f 114//55 113//55 115//55
f 110//56 111//56 116//56
f 111//56 117//56 116//56
f 116//57 117//57 118//57
f 115//58 119//58 120//58
f 113//58 119//58 115//58
f 117//57 121//57 118//57
f 118//59 121//59 122//59
f 120//60 123//60 124//60
f 119//60 123//60 120//60
f 121//59 125//59 122//59
f 122//61 125//61 126//61
f 124//62 127//62 128//62
f 126//63 129//63 114//63
f 123//62 127//62 124//62
f 125//61 129//61 126//61
f 129//63 112//63 114//63
f 128//64 130//64 131//64
f 127//64 130//64 128//64
f 131//65 132//65 133//65
f 130//65 132//65 131//65
f 133//66 134//66 135//66
f 135//67 134//67 136//67
f 132//66 134//66 133//66
f 136//68 137//68 138//68
f 134//67 137//67 136//67
f 138//69 139//69 140//69
f 137//68 139//68 138//68
f 140//70 141//70 142//70
f 139//69 141//69 140//69
f 141//70 143//70 142//70
f 142//71 143//71 144//71
f 143//71 145//71 144//71
f 144//72 145//72 146//72
f 145//72 147//72 146//72
f 146//73 147//73 148//73
f 147//73 149//73 148//73
f 148//74 149//75 150//74
f 149//75 151//75 150//74
f 150//76 151//76 152//76
f 151//76 153//76 152//76
f 152//77 153//77 154//77
f 153//77 155//77 154//77
f 154//78 155//78 156//78
f 155//78 105//78 156//78
f 156//52 105//52 107//52
f 157//79 158//79 159//79
f 159//80 158//80 160//80
f 158//80 161//80 160//80
f 160//81 161//81 162//81
f 161//81 163//81 162//81
f 164//82 165//82 166//82
f 166//82 165//82 167//82
f 162//83 163//83 168//83
f 163//83 169//83 168//83
f 168//84 169//84 170//84
f 167//85 171//85 172//85
f 165//85 171//85 167//85
f 169//84 173//84 170//84
f 170//86 173//86 174//86
f 172//87 175//87 176//87
f 171//87 175//87 172//87
f 173//86 177//86 174//86
f 174//88 177//88 178//88
f 176//77 179//77 180//77
f 178//89 181//89 166//89
f 175//77 179//77 176//77
f 177//88 181//88 178//88
f 181//89 164//89 166//89
f 180//90 182//90 183//90
f 179//90 182//90 180//90
f 183//91 184//91 185//91
f 182//91 184//91 183//91
f 185//92 186//92 187//92
f 187//93 186//93 188//93
f 184//92 186//92 185//92
f 188//94 189//94 190//94
f 186//93 189//93 188//93
f 190//95 191//95 192//95
f 189//94 191//94 190//94
f 192//96 193//96 194//96
f 191//95 193//95 192//95
f 193//96 195//96 194//96
f 194//97 195//97 196//97
f 195//97 197//97 196//97
f 196//98 197//98 198//98
f 197//98 199//98 198//98
f 198//99 199//99 200//99
f 199//99 201//99 200//99
f 200//100 201//100 202//100
f 201//100 203//100 202//100
f 202//101 203//101 204//101
f 203//101 205//101 204//101
f 204//62 205//62 206//62
f 205//62 207//62 206//62
f 206//102 207//102 208//102
f 207//102 157//102 208//102
f 208//79 157//79 159//79
f 209//103 210//103 211//103
f 209//103 212//103 210//103
f 210//104 213//104 214//104
f 212//104 213//104 210//104
f 213//105 215//105 214//105
f 213//105 216//105 215//105
f 216//106 211//106 215//106
f 216//106 209//106 211//106
f 175//107 209//107 179//107
f 182//107 179//107 209//107
f 171//107 209//107 175//107
f 184//107 182//107 209//107
f 165//107 209//107 171//107
f 186//107 184//107 209//107
f 164//107 209//107 165//107
f 181//107 209//107 164//107
f 189//107 186//107 209//107
f 12//107 14//107 173//107
f 12//107 173//107 169//107
f 12//107 169//107 163//107
f 18//107 173//107 14//107
f 18//107 177//107 173//107
f 6//107 12//107 163//107
f 22//107 177//107 18//107
f 22//107 181//107 177//107
f 4//107 6//107 163//107
f 4//107 163//107 161//107
f 3//107 4//107 161//107
f 3//107 161//107 158//107
f 3//107 158//107 157//107
f 52//107 3//107 157//107
f 52//107 157//107 207//107
f 50//107 52//107 207//107
f 212//107 22//107 10//107
f 212//107 10//107 11//107
f 212//107 11//107 16//107
f 212//107 16//107 20//107
f 24//107 212//107 20//107
f 48//107 50//107 207//107
f 48//107 207//107 205//107
f 48//107 205//107 203//107
f 27//107 212//107 24//107
f 46//107 48//107 203//107
f 29//107 212//107 27//107
f 31//107 212//107 29//107
f 32//107 212//107 31//107
f 88//107 195//107 193//107
f 90//107 195//107 88//107
f 86//107 193//107 191//107
f 86//107 191//107 189//107
f 86//107 88//107 193//107
f 92//107 197//107 195//107
f 92//107 195//107 90//107
f 84//107 86//107 189//107
f 94//107 199//107 197//107
f 94//107 197//107 92//107
f 96//107 203//107 201//107
f 96//107 201//107 199//107
f 96//107 199//107 94//107
f 98//107 203//107 96//107
f 98//107 46//107 203//107
f 216//107 84//107 189//107
f 216//107 189//107 209//107
f 216//107 83//107 84//107
f 216//107 76//107 79//107
f 216//107 79//107 81//107
f 216//107 81//107 83//107
f 72//107 76//107 216//107
f 68//107 72//107 216//107
f 63//107 68//107 216//107
f 62//107 63//107 216//107
f 74//107 62//107 216//107
f 153//107 98//107 100//107
f 155//107 153//107 100//107
f 155//107 100//107 102//107
f 155//107 102//107 104//107
f 151//107 44//107 46//107
f 151//107 46//107 98//107
f 151//107 98//107 153//107
f 105//107 155//107 104//107
f 149//107 44//107 151//107
f 106//107 104//107 55//107
f 106//107 55//107 56//107
f 106//107 105//107 104//107
f 147//107 40//107 42//107
f 147//107 42//107 44//107
f 147//107 44//107 149//107
f 109//107 106//107 56//107
f 111//107 56//107 58//107
f 111//107 58//107 64//107
f 111//107 109//107 56//107
f 145//107 40//107 147//107
f 143//107 38//107 40//107
f 143//107 40//107 145//107
f 117//107 111//107 64//107
f 141//107 36//107 38//107
f 141//107 38//107 143//107
f 121//107 64//107 66//107
f 121//107 66//107 70//107
f 121//107 117//107 64//107
f 125//107 70//107 74//107
f 125//107 121//107 70//107
f 129//107 125//107 74//107
f 213//107 134//107 132//107
f 213//107 132//107 130//107
f 213//107 130//107 127//107
f 213//107 127//107 123//107
f 213//107 123//107 119//107
f 213//107 119//107 113//107
f 213//107 113//107 112//107
f 213//107 112//107 129//107
f 213//107 137//107 134//107
f 216//107 213//107 129//107
f 216//107 129//107 74//107
f 213//107 212//107 32//107
f 213//107 32//107 34//107
f 213//107 34//107 36//107
f 213//107 36//107 137//107
f 137//107 36//107 139//107
f 139//107 36//107 141//107
f 212//107 209//107 181//107
f 212//107 181//107 22//107
f 211//108 176//108 180//108
f 180//108 183//108 211//108
f 211//108 172//108 176//108
f 183//108 185//108 211//108
f 211//108 167//108 172//108
f 185//108 187//108 211//108
f 211//108 166//108 167//108
f 187//108 188//108 211//108
f 211//108 178//108 166//108
f 17//108 13//108 170//108
f 170//108 13//108 168//108
f 170//108 21//108 17//108
f 174//108 21//108 170//108
f 178//108 21//108 174//108
f 13//108 7//108 168//108
f 168//108 7//108 162//108
f 178//108 25//108 21//108
f 7//108 5//108 162//108
f 162//108 5//108 160//108
f 5//108 2//108 160//108
f 160//108 2//108 159//108
f 2//108 1//108 159//108
f 159//108 1//108 208//108
f 1//108 51//108 208//108
f 206//108 51//108 204//108
f 208//108 51//108 206//108
f 15//108 210//108 19//108
f 9//108 210//108 15//108
f 8//108 210//108 9//108
f 25//108 210//108 8//108
f 210//108 23//108 19//108
f 51//108 49//108 204//108
f 210//108 26//108 23//108
f 204//108 47//108 202//108
f 49//108 47//108 204//108
f 210//108 28//108 26//108
f 210//108 30//108 28//108
f 210//108 33//108 30//108
f 192//108 91//108 89//108
f 194//108 91//108 192//108
f 196//108 91//108 194//108
f 89//108 87//108 192//108
f 192//108 87//108 190//108
f 196//108 93//108 91//108
f 87//108 85//108 190//108
f 190//108 85//108 188//108
f 196//108 95//108 93//108
f 198//108 95//108 196//108
f 200//108 95//108 198//108
f 200//108 97//108 95//108
f 202//108 99//108 200//108
f 200//108 99//108 97//108
f 85//108 215//108 188//108
f 188//108 215//108 211//108
f 80//108 215//108 82//108
f 78//108 215//108 80//108
f 75//108 215//108 78//108
f 82//108 215//108 85//108
f 75//108 71//108 215//108
f 71//108 67//108 215//108
f 67//108 61//108 215//108
f 61//108 60//108 215//108
f 60//108 77//108 215//108
f 101//108 152//108 103//108
f 152//108 154//108 103//108
f 47//108 150//108 202//108
f 202//108 150//108 99//108
f 99//108 150//108 101//108
f 101//108 150//108 152//108
f 103//108 156//108 53//108
f 154//108 156//108 103//108
f 53//108 107//108 54//108
f 156//108 107//108 53//108
f 45//108 148//108 47//108
f 47//108 148//108 150//108
f 43//108 146//108 45//108
f 45//108 146//108 148//108
f 41//108 146//108 43//108
f 107//108 108//108 54//108
f 54//108 108//108 57//108
f 57//108 110//108 59//108
f 108//108 110//108 57//108
f 39//108 144//108 41//108
f 41//108 144//108 146//108
f 65//108 116//108 69//108
f 59//108 116//108 65//108
f 110//108 116//108 59//108
f 39//108 142//108 144//108
f 116//108 118//108 69//108
f 37//108 140//108 39//108
f 39//108 140//108 142//108
f 73//108 122//108 77//108
f 69//108 122//108 73//108
f 118//108 122//108 69//108
f 122//108 126//108 77//108
f 136//108 214//108 135//108
f 114//108 214//108 126//108
f 115//108 214//108 114//108
f 120//108 214//108 115//108
f 124//108 214//108 120//108
f 128//108 214//108 124//108
f 131//108 214//108 128//108
f 133//108 214//108 131//108
f 135//108 214//108 133//108
f 211//108 210//108 25//108
f 211//108 25//108 178//108
f 210//108 214//108 33//108
f 33//108 214//108 35//108
f 35//108 214//108 37//108
f 37//108 214//108 136//108
f 37//108 136//108 138//108
f 37//108 138//108 140//108
f 214//108 215//108 126//108
f 126//108 215//108 77//108
