# Blender v2.81 (sub 16) OBJ File: ''
# www.blender.org
mtllib B02MB-GHS-TBT.mtl
o B02MB-GHS-TBT
v -0.002476 -0.000629 -0.007638
v -0.003419 -0.000629 0.011460
v -0.002476 -0.000629 0.011460
v -0.003419 -0.000629 -0.007638
v -0.002476 -0.002987 0.009103
v -0.003419 -0.000887 0.011460
v -0.003419 -0.002987 0.009103
v -0.002476 -0.000887 0.011460
v -0.002476 -0.002987 -0.005280
v -0.003419 -0.002987 -0.005280
v -0.002476 -0.009117 -0.006459
v -0.002476 -0.009117 -0.005280
v -0.003419 -0.009117 -0.005280
v -0.003419 -0.009117 -0.006459
v -0.003419 -0.012418 -0.006459
v -0.002476 -0.012418 -0.006459
v -0.002476 -0.012418 -0.007874
v -0.003419 -0.012418 -0.007874
v -0.003419 -0.007703 -0.007874
v -0.003419 -0.007703 -0.007638
v -0.003419 -0.006995 -0.005280
v -0.003419 -0.004637 -0.005280
v -0.003419 -0.004637 0.009103
v -0.003419 -0.006995 0.011460
v -0.003419 -0.006737 0.011460
v -0.002476 -0.004637 -0.005280
v -0.002476 -0.004637 0.009103
v -0.002476 -0.006737 0.011460
v -0.002476 -0.006995 0.011460
v -0.002476 -0.006995 -0.005280
v -0.002476 -0.007703 -0.007874
v -0.002476 -0.007703 -0.007638
v -0.013558 -0.006524 0.008395
v -0.010728 -0.000157 0.008395
v -0.013558 -0.000157 0.008395
v -0.010728 -0.006524 0.008395
v -0.013558 -0.006524 0.000850
v -0.010728 -0.006524 0.000850
v -0.008842 0.008331 0.002029
v -0.011200 0.005501 0.002029
v -0.008842 0.005501 0.002029
v -0.011200 0.008331 0.002029
v -0.013558 0.007623 0.001558
v -0.010728 0.007623 -0.004809
v -0.013558 0.007623 -0.004809
v -0.010728 0.007623 0.001558
v -0.013558 0.000078 -0.004809
v -0.010728 0.000078 -0.004809
v -0.003466 -0.001572 -0.002922
v -0.003466 -0.000629 -0.002922
v -0.003419 -0.000629 -0.002922
v -0.003419 -0.001572 -0.002922
v -0.003419 -0.001572 0.011460
v -0.010728 -0.000157 0.011460
v -0.013558 -0.000157 0.011460
v -0.013558 0.010689 0.011460
v -0.011789 0.010689 0.001558
v -0.013558 0.010689 0.001558
v -0.011789 0.010689 0.011460
v -0.011200 0.008331 0.011460
v -0.011200 0.005501 0.011460
v -0.013558 -0.009353 0.000850
v -0.010728 -0.009353 0.000850
v -0.010728 -0.009353 0.011460
v -0.013558 -0.009353 -0.005280
v 0.010728 -0.009353 0.000850
v 0.010728 -0.009353 0.011460
v 0.013558 -0.009353 -0.005280
v 0.013558 -0.009353 0.000850
v -0.008842 -0.006995 -0.005044
v -0.008842 0.002672 0.011460
v -0.008842 -0.006995 0.011460
v -0.008842 0.002672 -0.005044
v -0.005541 0.002672 -0.005044
v -0.005541 0.002672 0.011460
v -0.005541 -0.000629 -0.005044
v -0.005541 -0.000629 0.011460
v -0.003890 -0.000629 -0.005044
v -0.003890 -0.000629 0.011460
v -0.003890 -0.001572 -0.005044
v -0.003890 -0.001572 0.011460
v -0.003466 -0.001572 -0.005044
v -0.001768 0.001257 0.006745
v 0.004126 0.001257 0.009010
v 0.001768 0.001257 0.006745
v -0.004126 0.001257 0.009010
v -0.001768 0.001257 -0.000329
v 0.001768 0.001257 -0.000329
v -0.004126 0.001257 -0.007638
v 0.004126 0.001257 -0.007638
v -0.010728 0.001257 -0.007166
v -0.009549 0.001257 -0.007638
v -0.010728 0.001257 -0.007638
v -0.009549 0.001257 -0.007166
v -0.010728 0.000078 -0.007638
v -0.013558 0.000078 -0.007638
v -0.013558 -0.004637 -0.005280
v -0.013558 -0.004637 -0.007638
v -0.003466 -0.004637 -0.007638
v -0.003466 -0.004637 -0.005280
v -0.003466 -0.004637 -0.005044
v -0.003466 -0.000629 -0.007638
v -0.002476 -0.000629 -0.002922
v -0.002429 -0.000629 -0.007638
v -0.002429 -0.000629 -0.002922
v -0.008842 0.005501 -0.007638
v -0.008842 0.008331 -0.007638
v -0.006484 0.008331 0.011460
v -0.006484 0.008331 -0.007638
v -0.006484 0.005501 -0.007638
v -0.006484 0.005501 0.011460
v -0.004126 0.008331 -0.007638
v -0.004126 0.008331 0.011460
v -0.004126 -0.000157 0.011460
v -0.011789 0.010641 0.001558
v -0.011789 0.010641 0.011460
v -0.010728 0.010641 0.001558
v -0.010728 0.010641 -0.007166
v -0.009549 0.010641 -0.007166
v -0.009549 0.010641 -0.007638
v 0.008842 0.008331 -0.007638
v 0.006484 0.008331 -0.007638
v 0.009549 0.010641 -0.007638
v 0.004126 0.008331 -0.007638
v 0.006484 0.005501 -0.007638
v 0.008842 0.005501 -0.007638
v 0.009549 0.001257 -0.007638
v 0.010728 0.001257 -0.007638
v 0.010728 0.000078 -0.007638
v 0.013558 0.000078 -0.007638
v 0.013558 -0.004637 -0.007638
v 0.003466 -0.000629 -0.007638
v 0.002429 -0.000629 -0.007638
v 0.003466 -0.004637 -0.007638
v 0.002429 -0.004637 -0.007638
v -0.002429 -0.004637 -0.007638
v -0.002004 -0.000629 0.011460
v -0.002476 -0.001572 0.011460
v -0.002004 -0.001572 0.011460
v 0.011789 0.010689 0.011460
v 0.011789 0.010641 0.011460
v 0.013558 0.010689 0.011460
v 0.011200 0.008331 0.011460
v 0.011200 0.005501 0.011460
v 0.006484 0.008331 0.011460
v 0.013558 -0.000157 0.011460
v 0.004126 0.008331 0.011460
v 0.006484 0.005501 0.011460
v 0.008842 0.002672 0.011460
v 0.010728 -0.000157 0.011460
v 0.005541 0.002672 0.011460
v 0.004126 -0.000157 0.011460
v 0.005541 -0.000629 0.011460
v 0.003890 -0.000629 0.011460
v 0.008842 -0.006995 0.011460
v 0.003419 -0.000629 0.011460
v 0.002476 -0.000629 0.011460
v 0.002004 -0.000629 0.011460
v 0.003419 -0.001572 0.011460
v 0.003890 -0.001572 0.011460
v 0.002004 -0.001572 0.011460
v 0.002476 -0.001572 0.011460
v 0.010728 0.010641 0.001558
v 0.011789 0.010641 0.001558
v 0.009549 0.010641 -0.007166
v 0.010728 0.010641 -0.007166
v -0.002429 -0.004637 -0.005044
v -0.002429 -0.004637 -0.005280
v 0.008842 -0.006995 -0.005044
v -0.002004 -0.001572 -0.005044
v -0.002429 -0.001572 -0.005044
v 0.002004 -0.001572 -0.005044
v 0.002429 -0.004637 -0.005044
v 0.002429 -0.001572 -0.005044
v 0.002004 -0.000629 -0.005044
v -0.002004 -0.000629 -0.005044
v 0.003466 -0.004637 -0.005044
v 0.003890 -0.001572 -0.005044
v 0.003466 -0.001572 -0.005044
v 0.005541 -0.000629 -0.005044
v 0.003890 -0.000629 -0.005044
v 0.008842 0.002672 -0.005044
v 0.005541 0.002672 -0.005044
v 0.003466 -0.004637 -0.005280
v 0.013558 -0.004637 -0.005280
v 0.002429 -0.004637 -0.005280
v -0.002476 -0.001572 -0.002922
v -0.002429 -0.001572 -0.002922
v 0.002429 -0.001572 -0.002922
v 0.002429 -0.000629 -0.002922
v 0.002476 -0.000629 -0.002922
v 0.002476 -0.001572 -0.002922
v 0.003419 -0.000629 -0.002922
v 0.003466 -0.000629 -0.002922
v 0.001768 0.003615 -0.000329
v -0.001768 0.003615 -0.000329
v 0.013558 -0.006524 0.000850
v 0.013558 0.000078 -0.004809
v 0.013558 -0.000157 0.008395
v 0.013558 -0.006524 0.008395
v 0.013558 0.007623 -0.004809
v 0.013558 0.007623 0.001558
v 0.013558 0.010689 0.001558
v 0.011789 0.010689 0.001558
v 0.003419 -0.001572 -0.002922
v 0.011200 0.008331 0.002029
v 0.008842 0.008331 0.002029
v 0.008842 0.005501 0.002029
v 0.011200 0.005501 0.002029
v 0.009549 0.001257 -0.007166
v 0.010728 0.001257 -0.007166
v 0.003466 -0.001572 -0.002922
v 0.010728 -0.000157 0.008395
v 0.010728 -0.006524 0.008395
v 0.010728 -0.006524 0.000850
v 0.010728 0.007623 0.001558
v 0.010728 0.000078 -0.004809
v 0.010728 0.007623 -0.004809
v 0.003419 -0.000629 -0.007638
v 0.002476 -0.000629 -0.007638
v 0.002476 -0.000887 0.011460
v 0.003419 -0.000887 0.011460
v 0.003419 -0.002987 0.009103
v 0.002476 -0.002987 0.009103
v 0.003419 -0.002987 -0.005280
v 0.002476 -0.002987 -0.005280
v 0.003419 -0.009117 -0.006459
v 0.003419 -0.009117 -0.005280
v 0.002476 -0.009117 -0.005280
v 0.002476 -0.009117 -0.006459
v 0.002476 -0.012418 -0.006459
v 0.003419 -0.012418 -0.006459
v 0.003419 -0.012418 -0.007874
v 0.002476 -0.012418 -0.007874
v 0.003419 -0.007703 -0.007874
v 0.003419 -0.007703 -0.007638
v 0.003419 -0.006995 -0.005280
v 0.003419 -0.004637 -0.005280
v 0.003419 -0.004637 0.009103
v 0.003419 -0.006737 0.011460
v 0.003419 -0.006995 0.011460
v 0.002476 -0.004637 0.009103
v 0.002476 -0.006737 0.011460
v 0.002476 -0.004637 -0.005280
v 0.002476 -0.006995 -0.005280
v 0.002476 -0.006995 0.011460
v 0.002476 -0.007703 -0.007638
v 0.002476 -0.007703 -0.007874
v -0.010728 0.010689 0.001558
v -0.011671 0.007623 0.001558
v -0.010728 0.007623 0.001558
v -0.011671 0.010689 0.001558
v -0.011671 0.010689 -0.007874
v -0.010728 0.010689 -0.007874
v -0.010728 0.000078 -0.007874
v -0.011671 0.000078 -0.007874
v -0.010728 0.000078 -0.004809
v -0.011671 0.000078 -0.004809
v -0.010728 0.007623 -0.004809
v -0.011671 0.007623 -0.004809
v 0.011671 0.010689 0.001558
v 0.010728 0.007623 0.001558
v 0.011671 0.007623 0.001558
v 0.010728 0.010689 0.001558
v 0.010728 0.010689 -0.007874
v 0.011671 0.010689 -0.007874
v 0.011671 0.000078 -0.007874
v 0.010728 0.000078 -0.007874
v 0.011671 0.000078 -0.004809
v 0.010728 0.000078 -0.004809
v 0.011671 0.007623 -0.004809
v 0.010728 0.007623 -0.004809
vn 0.0000 1.0000 0.0000
vn 0.0000 -0.7468 0.6650
vn 0.0000 -1.0000 -0.0000
vn 0.0000 0.0000 1.0000
vn -1.0000 0.0000 0.0000
vn 0.0000 0.7468 0.6650
vn 0.0000 0.0000 -1.0000
vn 1.0000 -0.0000 0.0000
vn 0.0000 0.8660 0.5000
vn 0.0000 0.9487 0.3162
usemtl material_0.539
s 1
f 1//1 2//1 3//1
f 1//1 4//1 2//1
f 5//2 6//2 7//2
f 8//2 6//2 5//2
f 7//3 9//3 5//3
f 10//3 9//3 7//3
f 11//3 12//3 13//3
f 11//3 13//3 14//3
f 11//4 15//4 16//4
f 11//4 14//4 15//4
f 17//3 16//3 15//3
f 17//3 15//3 18//3
f 18//5 14//5 19//5
f 15//5 14//5 18//5
f 14//5 20//5 19//5
f 13//5 21//5 14//5
f 14//5 21//5 20//5
f 21//5 22//5 20//5
f 22//5 10//5 4//5
f 21//5 23//5 22//5
f 24//5 25//5 23//5
f 7//5 2//5 10//5
f 6//5 2//5 7//5
f 10//5 2//5 4//5
f 4//5 20//5 22//5
f 21//5 24//5 23//5
f 9//4 22//4 26//4
f 9//4 10//4 22//4
f 27//6 25//6 28//6
f 27//6 23//6 25//6
f 26//1 23//1 27//1
f 26//1 22//1 23//1
f 28//4 24//4 29//4
f 28//4 25//4 24//4
f 30//4 13//4 12//4
f 30//4 21//4 13//4
f 30//3 29//3 24//3
f 30//3 24//3 21//3
f 19//7 31//7 17//7
f 19//7 17//7 18//7
f 20//7 4//7 1//7
f 20//7 1//7 32//7
f 32//1 31//1 19//1
f 32//1 19//1 20//1
f 11//8 16//8 17//8
f 11//8 17//8 31//8
f 32//8 11//8 31//8
f 30//8 12//8 11//8
f 30//8 11//8 32//8
f 26//8 30//8 32//8
f 1//8 9//8 26//8
f 27//8 30//8 26//8
f 28//8 29//8 27//8
f 3//8 5//8 9//8
f 3//8 8//8 5//8
f 3//8 9//8 1//8
f 29//8 30//8 27//8
f 32//8 1//8 26//8
f 33//4 34//4 35//4
f 36//4 34//4 33//4
f 37//3 36//3 33//3
f 38//3 36//3 37//3
f 39//4 40//4 41//4
f 39//4 42//4 40//4
f 43//1 44//1 45//1
f 46//1 44//1 43//1
f 45//7 44//7 47//7
f 47//7 44//7 48//7
f 49//7 50//7 51//7
f 49//7 51//7 52//7
f 2//8 53//8 52//8
f 2//8 52//8 51//8
f 35//3 54//3 55//3
f 34//3 54//3 35//3
f 56//1 57//1 58//1
f 59//1 57//1 56//1
f 40//8 60//8 61//8
f 42//8 60//8 40//8
f 62//4 38//4 37//4
f 63//4 38//4 62//4
f 36//5 38//5 63//5
f 64//5 36//5 63//5
f 54//5 34//5 36//5
f 54//5 36//5 64//5
f 65//3 63//3 62//3
f 66//3 67//3 64//3
f 66//3 64//3 63//3
f 68//3 69//3 66//3
f 68//3 66//3 63//3
f 68//3 63//3 65//3
f 70//8 71//8 72//8
f 73//8 71//8 70//8
f 71//3 74//3 75//3
f 73//3 74//3 71//3
f 76//5 75//5 74//5
f 77//5 75//5 76//5
f 77//3 78//3 79//3
f 76//3 78//3 77//3
f 79//5 78//5 80//5
f 79//5 80//5 81//5
f 49//3 53//3 81//3
f 52//3 53//3 49//3
f 80//3 49//3 81//3
f 82//3 49//3 80//3
f 83//1 84//1 85//1
f 86//1 84//1 83//1
f 83//1 87//1 86//1
f 84//1 88//1 85//1
f 87//1 89//1 86//1
f 88//1 90//1 87//1
f 87//1 90//1 89//1
f 84//1 90//1 88//1
f 91//1 92//1 93//1
f 94//1 92//1 91//1
f 47//1 95//1 96//1
f 48//1 95//1 47//1
f 45//5 47//5 43//5
f 96//5 97//5 47//5
f 98//5 97//5 96//5
f 43//5 56//5 58//5
f 65//5 37//5 97//5
f 97//5 37//5 47//5
f 43//5 35//5 56//5
f 47//5 35//5 43//5
f 37//5 35//5 47//5
f 65//5 62//5 37//5
f 35//5 55//5 56//5
f 37//5 33//5 35//5
f 97//3 99//3 100//3
f 98//3 99//3 97//3
f 100//8 82//8 101//8
f 99//8 82//8 100//8
f 102//8 82//8 99//8
f 82//8 50//8 49//8
f 102//8 50//8 82//8
f 2//3 103//3 3//3
f 51//3 103//3 2//3
f 50//3 102//3 51//3
f 103//3 104//3 105//3
f 51//3 104//3 103//3
f 102//3 104//3 51//3
f 106//8 39//8 41//8
f 107//8 39//8 106//8
f 60//3 39//3 108//3
f 42//3 39//3 60//3
f 107//3 109//3 39//3
f 109//3 108//3 39//3
f 110//5 108//5 109//5
f 111//5 108//5 110//5
f 111//1 41//1 61//1
f 61//1 41//1 40//1
f 41//1 110//1 106//1
f 111//1 110//1 41//1
f 112//8 86//8 89//8
f 86//8 113//8 114//8
f 112//8 113//8 86//8
f 115//8 59//8 116//8
f 57//8 59//8 115//8
f 43//7 115//7 46//7
f 58//7 115//7 43//7
f 58//7 57//7 115//7
f 115//7 117//7 46//7
f 48//5 91//5 95//5
f 91//5 93//5 95//5
f 117//5 44//5 46//5
f 48//5 44//5 91//5
f 117//5 118//5 44//5
f 118//5 91//5 44//5
f 91//7 119//7 94//7
f 91//7 118//7 119//7
f 92//5 119//5 120//5
f 94//5 119//5 92//5
f 121//7 122//7 123//7
f 122//7 124//7 123//7
f 122//7 125//7 124//7
f 126//7 127//7 125//7
f 128//7 129//7 127//7
f 130//7 131//7 129//7
f 125//7 90//7 124//7
f 127//7 90//7 125//7
f 129//7 132//7 127//7
f 127//7 132//7 90//7
f 132//7 133//7 90//7
f 112//7 120//7 124//7
f 124//7 120//7 123//7
f 109//7 120//7 112//7
f 109//7 107//7 120//7
f 112//7 110//7 109//7
f 131//7 134//7 129//7
f 129//7 134//7 132//7
f 112//7 89//7 110//7
f 90//7 104//7 89//7
f 133//7 104//7 90//7
f 104//7 102//7 89//7
f 135//7 136//7 133//7
f 133//7 136//7 104//7
f 110//7 92//7 106//7
f 102//7 92//7 89//7
f 89//7 92//7 110//7
f 99//7 95//7 102//7
f 92//7 95//7 93//7
f 102//7 95//7 92//7
f 95//7 98//7 96//7
f 99//7 98//7 95//7
f 92//7 120//7 106//7
f 106//7 120//7 107//7
f 123//7 127//7 121//7
f 121//7 127//7 126//7
f 137//4 138//4 139//4
f 140//4 141//4 142//4
f 3//4 138//4 137//4
f 3//4 114//4 2//4
f 141//4 143//4 142//4
f 114//4 79//4 2//4
f 143//4 144//4 142//4
f 141//4 145//4 143//4
f 144//4 146//4 142//4
f 79//4 81//4 2//4
f 2//4 81//4 53//4
f 56//4 61//4 60//4
f 147//4 148//4 145//4
f 148//4 149//4 144//4
f 75//4 77//4 114//4
f 144//4 150//4 146//4
f 114//4 77//4 79//4
f 149//4 150//4 144//4
f 111//4 71//4 75//4
f 148//4 151//4 149//4
f 147//4 151//4 148//4
f 61//4 71//4 111//4
f 61//4 54//4 71//4
f 56//4 55//4 61//4
f 61//4 55//4 54//4
f 151//4 152//4 153//4
f 152//4 154//4 153//4
f 155//4 64//4 67//4
f 72//4 64//4 155//4
f 152//4 156//4 154//4
f 67//4 150//4 155//4
f 141//4 116//4 145//4
f 145//4 116//4 147//4
f 147//4 116//4 113//4
f 113//4 116//4 108//4
f 54//4 64//4 72//4
f 149//4 155//4 150//4
f 72//4 71//4 54//4
f 147//4 152//4 151//4
f 152//4 114//4 157//4
f 157//4 114//4 158//4
f 158//4 114//4 137//4
f 137//4 114//4 3//4
f 114//4 113//4 75//4
f 152//4 157//4 156//4
f 154//4 159//4 160//4
f 156//4 159//4 154//4
f 158//4 161//4 157//4
f 157//4 161//4 162//4
f 108//4 111//4 113//4
f 111//4 75//4 113//4
f 59//4 56//4 116//4
f 56//4 60//4 116//4
f 116//4 60//4 108//4
f 117//1 115//1 116//1
f 119//1 118//1 117//1
f 163//1 116//1 141//1
f 163//1 117//1 116//1
f 164//1 163//1 141//1
f 165//1 119//1 117//1
f 165//1 117//1 163//1
f 123//1 120//1 119//1
f 123//1 119//1 165//1
f 166//1 165//1 163//1
f 113//3 124//3 147//3
f 112//3 124//3 113//3
f 152//9 84//9 114//9
f 114//9 84//9 86//9
f 167//1 168//1 101//1
f 101//1 168//1 100//1
f 155//1 169//1 72//1
f 72//1 169//1 70//1
f 167//4 101//4 70//4
f 76//4 70//4 101//4
f 73//4 70//4 76//4
f 80//4 76//4 101//4
f 82//4 80//4 101//4
f 78//4 76//4 80//4
f 170//4 171//4 167//4
f 74//4 73//4 76//4
f 172//4 170//4 167//4
f 172//4 167//4 173//4
f 174//4 172//4 173//4
f 175//4 176//4 170//4
f 175//4 170//4 172//4
f 169//4 177//4 173//4
f 169//4 167//4 70//4
f 169//4 173//4 167//4
f 178//4 179//4 177//4
f 180//4 181//4 178//4
f 180//4 177//4 169//4
f 180//4 178//4 177//4
f 182//4 183//4 180//4
f 182//4 180//4 169//4
f 184//7 185//7 68//7
f 186//7 184//7 68//7
f 65//7 100//7 168//7
f 65//7 168//7 186//7
f 65//7 97//7 100//7
f 65//7 186//7 68//7
f 187//7 103//7 105//7
f 187//7 105//7 188//7
f 3//5 103//5 187//5
f 3//5 187//5 138//5
f 189//7 190//7 191//7
f 189//7 191//7 192//7
f 157//8 162//8 192//8
f 157//8 192//8 191//8
f 136//5 171//5 104//5
f 168//5 171//5 136//5
f 167//5 171//5 168//5
f 188//5 105//5 171//5
f 171//5 105//5 104//5
f 188//3 139//3 138//3
f 188//3 138//3 187//3
f 170//3 188//3 171//3
f 170//3 139//3 188//3
f 137//8 170//8 176//8
f 137//8 139//8 170//8
f 137//3 175//3 158//3
f 176//3 175//3 137//3
f 158//5 175//5 172//5
f 158//5 172//5 161//5
f 189//3 162//3 161//3
f 192//3 162//3 189//3
f 172//3 189//3 161//3
f 174//3 189//3 172//3
f 168//3 135//3 186//3
f 136//3 135//3 168//3
f 186//8 174//8 173//8
f 135//8 174//8 186//8
f 133//8 174//8 135//8
f 174//8 190//8 189//8
f 133//8 190//8 174//8
f 177//1 184//1 173//1
f 173//1 184//1 186//1
f 157//3 193//3 156//3
f 191//3 193//3 157//3
f 190//3 133//3 191//3
f 193//3 132//3 194//3
f 191//3 132//3 193//3
f 133//3 132//3 191//3
f 83//10 195//10 196//10
f 85//10 195//10 83//10
f 87//7 195//7 88//7
f 196//7 195//7 87//7
f 83//5 196//5 87//5
f 85//8 88//8 195//8
f 131//8 130//8 185//8
f 68//8 197//8 69//8
f 185//8 197//8 68//8
f 130//8 198//8 185//8
f 185//8 198//8 197//8
f 197//8 199//8 200//8
f 198//8 199//8 197//8
f 201//8 202//8 198//8
f 198//8 202//8 199//8
f 203//8 142//8 202//8
f 199//8 142//8 146//8
f 202//8 142//8 199//8
f 140//1 203//1 204//1
f 142//1 203//1 140//1
f 156//5 193//5 205//5
f 156//5 205//5 159//5
f 184//3 131//3 185//3
f 134//3 131//3 184//3
f 154//3 180//3 153//3
f 181//3 180//3 154//3
f 164//5 140//5 204//5
f 141//5 140//5 164//5
f 206//4 207//4 208//4
f 206//4 208//4 209//4
f 90//5 84//5 124//5
f 152//5 147//5 84//5
f 84//5 147//5 124//5
f 209//5 143//5 206//5
f 144//5 143//5 209//5
f 144//1 208//1 148//1
f 144//1 209//1 208//1
f 208//1 125//1 148//1
f 208//1 126//1 125//1
f 125//8 145//8 148//8
f 122//8 145//8 125//8
f 145//3 207//3 143//3
f 207//3 206//3 143//3
f 122//3 121//3 207//3
f 145//3 122//3 207//3
f 126//5 207//5 121//5
f 208//5 207//5 126//5
f 128//1 127//1 210//1
f 128//1 210//1 211//1
f 180//8 151//8 153//8
f 183//8 151//8 180//8
f 151//3 182//3 149//3
f 183//3 182//3 151//3
f 169//5 149//5 182//5
f 155//5 149//5 169//5
f 154//8 178//8 181//8
f 154//8 160//8 178//8
f 212//3 160//3 159//3
f 212//3 159//3 205//3
f 178//3 212//3 179//3
f 178//3 160//3 212//3
f 205//7 193//7 194//7
f 205//7 194//7 212//7
f 134//5 179//5 132//5
f 184//5 179//5 134//5
f 177//5 179//5 184//5
f 212//5 194//5 179//5
f 179//5 194//5 132//5
f 210//7 166//7 211//7
f 165//7 166//7 210//7
f 127//8 165//8 210//8
f 123//8 165//8 127//8
f 199//3 146//3 150//3
f 199//3 150//3 213//3
f 200//4 199//4 213//4
f 200//4 213//4 214//4
f 197//3 200//3 214//3
f 197//3 214//3 215//3
f 69//4 197//4 215//4
f 69//4 215//4 66//4
f 215//8 214//8 66//8
f 214//8 67//8 66//8
f 213//8 150//8 214//8
f 214//8 150//8 67//8
f 164//7 203//7 202//7
f 164//7 202//7 216//7
f 204//7 203//7 164//7
f 163//7 164//7 216//7
f 198//1 130//1 129//1
f 198//1 129//1 217//1
f 218//7 201//7 198//7
f 218//7 198//7 217//7
f 202//1 201//1 218//1
f 202//1 218//1 216//1
f 211//8 217//8 129//8
f 128//8 211//8 129//8
f 218//8 163//8 216//8
f 218//8 217//8 211//8
f 166//8 163//8 218//8
f 211//8 166//8 218//8
f 219//1 220//1 157//1
f 219//1 157//1 156//1
f 157//4 221//4 156//4
f 156//4 221//4 222//4
f 223//2 221//2 224//2
f 222//2 221//2 223//2
f 224//3 225//3 223//3
f 226//3 225//3 224//3
f 227//3 228//3 229//3
f 227//3 229//3 230//3
f 227//4 230//4 231//4
f 227//4 231//4 232//4
f 233//3 232//3 231//3
f 233//3 231//3 234//3
f 227//8 232//8 233//8
f 227//8 233//8 235//8
f 236//8 227//8 235//8
f 237//8 228//8 227//8
f 237//8 227//8 236//8
f 238//8 237//8 236//8
f 219//8 225//8 238//8
f 239//8 237//8 238//8
f 240//8 241//8 239//8
f 156//8 223//8 225//8
f 156//8 222//8 223//8
f 156//8 225//8 219//8
f 241//8 237//8 239//8
f 236//8 219//8 238//8
f 239//6 242//6 243//6
f 239//6 243//6 240//6
f 225//4 226//4 244//4
f 225//4 244//4 238//4
f 238//1 244//1 242//1
f 238//1 242//1 239//1
f 237//4 245//4 229//4
f 237//4 229//4 228//4
f 240//4 243//4 246//4
f 240//4 246//4 241//4
f 237//3 241//3 246//3
f 237//3 246//3 245//3
f 247//7 220//7 219//7
f 247//7 219//7 236//7
f 248//7 233//7 234//7
f 248//7 235//7 233//7
f 236//1 235//1 248//1
f 236//1 248//1 247//1
f 234//5 230//5 248//5
f 231//5 230//5 234//5
f 230//5 247//5 248//5
f 229//5 245//5 230//5
f 230//5 245//5 247//5
f 245//5 244//5 247//5
f 244//5 226//5 220//5
f 245//5 242//5 244//5
f 246//5 243//5 242//5
f 224//5 157//5 226//5
f 221//5 157//5 224//5
f 226//5 157//5 220//5
f 220//5 247//5 244//5
f 245//5 246//5 242//5
f 249//4 250//4 251//4
f 252//4 250//4 249//4
f 253//1 249//1 254//1
f 252//1 249//1 253//1
f 255//7 253//7 254//7
f 256//7 253//7 255//7
f 257//3 256//3 255//3
f 258//3 256//3 257//3
f 259//4 258//4 257//4
f 260//4 258//4 259//4
f 251//3 260//3 259//3
f 250//3 260//3 251//3
f 252//5 253//5 260//5
f 256//5 260//5 253//5
f 250//5 252//5 260//5
f 258//5 260//5 256//5
f 254//8 249//8 259//8
f 259//8 255//8 254//8
f 249//8 251//8 259//8
f 259//8 257//8 255//8
f 261//4 262//4 263//4
f 264//4 262//4 261//4
f 261//1 265//1 264//1
f 266//1 265//1 261//1
f 267//7 265//7 266//7
f 268//7 265//7 267//7
f 269//3 268//3 267//3
f 270//3 268//3 269//3
f 271//4 270//4 269//4
f 272//4 270//4 271//4
f 263//3 272//3 271//3
f 262//3 272//3 263//3
f 271//8 261//8 263//8
f 266//8 261//8 271//8
f 267//8 271//8 269//8
f 267//8 266//8 271//8
f 264//5 272//5 262//5
f 264//5 265//5 272//5
f 272//5 268//5 270//5
f 265//5 268//5 272//5
usemtl material_1.529
f 3//4 6//4 8//4
f 2//4 6//4 3//4
