# Blender v2.81 (sub 16) OBJ File: ''
# www.blender.org
mtllib B4B-XH-A.mtl
o B4B-XH-A
v -0.000394 0.006150 -0.000394
v -0.000394 -0.006150 0.000394
v -0.000394 0.006150 0.000394
v -0.000394 -0.006150 -0.000394
v 0.000394 0.006150 -0.000394
v 0.000394 -0.006150 -0.000394
v 0.000394 0.006150 0.000394
v 0.000394 -0.006150 0.000394
v 0.000148 -0.006396 0.000148
v -0.000148 -0.006396 -0.000148
v 0.000148 -0.006396 -0.000148
v -0.000148 -0.006396 0.000148
v -0.000148 0.006396 -0.000148
v 0.000148 0.006396 0.000148
v 0.000148 0.006396 -0.000148
v -0.000148 0.006396 0.000148
vn -1.0000 0.0000 0.0000
vn 0.0000 0.0000 -1.0000
vn 1.0000 -0.0000 0.0000
vn 0.0000 -0.0000 1.0000
vn 0.0000 -1.0000 0.0000
vn 0.0000 1.0000 0.0000
vn 0.0000 0.7071 0.7071
vn -0.7071 0.7071 0.0000
vn 0.7071 0.7071 0.0000
vn 0.0000 0.7071 -0.7071
vn 0.0000 -0.7071 -0.7071
vn 0.7071 -0.7071 0.0000
vn -0.7071 -0.7071 0.0000
vn 0.0000 -0.7071 0.7071
usemtl material_1.618
s 1
f 1//1 2//1 3//1
f 4//1 2//1 1//1
usemtl material_0.629
f 5//2 4//2 1//2
f 6//2 4//2 5//2
f 7//3 6//3 5//3
f 8//3 6//3 7//3
f 3//4 8//4 7//4
f 2//4 8//4 3//4
f 9//5 10//5 11//5
f 12//5 10//5 9//5
f 13//6 14//6 15//6
f 13//6 16//6 14//6
f 14//7 16//7 3//7
f 14//7 3//7 7//7
f 16//8 13//8 1//8
f 16//8 1//8 3//8
f 15//9 14//9 7//9
f 15//9 7//9 5//9
f 13//10 15//10 5//10
f 13//10 5//10 1//10
f 4//11 6//11 10//11
f 10//11 6//11 11//11
f 6//12 8//12 11//12
f 11//12 8//12 9//12
f 12//13 4//13 10//13
f 2//13 4//13 12//13
f 8//14 2//14 9//14
f 9//14 2//14 12//14
