# Blender v2.81 (sub 16) OBJ File: ''
# www.blender.org
mtllib BH-10.mtl
o BH-10
v -0.008012 -0.003978 -0.002284
v -0.009978 -0.003978 0.006465
v -0.009978 -0.003978 -0.002284
v -0.008012 -0.003978 0.006465
v -0.008012 -0.004371 0.006465
v -0.008012 -0.004371 -0.002284
v -0.007324 -0.004371 -0.002284
v -0.007324 -0.004371 0.006465
v -0.007324 -0.003978 -0.002284
v -0.007324 -0.003978 0.006465
v -0.000344 -0.003978 -0.002284
v -0.000344 -0.003978 0.006465
v -0.000344 -0.004371 0.006465
v -0.000344 -0.004371 -0.002284
v 0.000344 -0.004371 -0.002284
v 0.000344 -0.004371 0.006465
v 0.000344 -0.003978 -0.002284
v 0.000344 -0.003978 0.006465
v 0.007324 -0.003978 -0.002284
v 0.007324 -0.003978 0.006465
v 0.007324 -0.004371 0.006465
v 0.007324 -0.004371 -0.002284
v 0.008012 -0.004371 0.006465
v 0.008012 -0.004371 -0.002284
v 0.008012 -0.003978 -0.002284
v 0.008012 -0.003978 0.006465
v 0.009978 -0.003978 -0.002284
v 0.009978 -0.003978 0.006465
v 0.009978 -0.001226 0.004106
v 0.009978 -0.001226 -0.002284
v 0.009978 0.004476 -0.002284
v 0.009978 0.001724 0.004106
v 0.009978 0.001724 -0.002284
v 0.009978 0.004476 0.006465
v 0.002458 0.004476 0.000174
v 0.002458 0.004476 0.006465
v -0.009978 0.004476 -0.002284
v -0.002458 0.004476 0.000174
v -0.009978 0.004476 0.006465
v -0.002458 0.004476 0.006465
v -0.009978 -0.001226 0.004106
v -0.009978 -0.001226 -0.002284
v -0.009978 0.001724 0.004106
v -0.009978 0.001724 -0.002284
v -0.008897 -0.002897 0.006465
v -0.008897 0.003395 0.006465
v -0.002458 0.003395 0.006465
v 0.008897 -0.002897 0.006465
v 0.008897 0.003395 0.006465
v 0.002458 0.003395 0.006465
v 0.000315 -0.001314 -0.002284
v 0.002182 -0.001314 -0.002284
v -0.002182 0.001812 -0.002284
v -0.000315 0.001812 -0.002284
v -0.002182 0.001183 -0.002284
v -0.000315 0.001183 -0.002284
v 0.002182 -0.000685 -0.002284
v 0.000315 -0.000685 -0.002284
v 0.000315 0.001183 -0.002284
v -0.000315 -0.000685 -0.002284
v 0.002812 -0.001314 -0.002284
v -0.008897 -0.001226 -0.002284
v -0.005309 -0.001314 -0.002284
v -0.005309 -0.000685 -0.002284
v 0.002182 0.001183 -0.002284
v -0.004679 -0.001314 -0.002284
v -0.008897 0.001724 -0.002284
v 0.000315 0.001812 -0.002284
v 0.002182 0.001812 -0.002284
v 0.004679 -0.001314 -0.002284
v 0.005309 -0.001314 -0.002284
v 0.002812 -0.000685 -0.002284
v 0.004679 -0.000685 -0.002284
v -0.005309 0.001183 -0.002284
v 0.002812 0.001183 -0.002284
v -0.004679 -0.000685 -0.002284
v -0.002812 -0.001314 -0.002284
v -0.005309 0.001812 -0.002284
v -0.002812 -0.000685 -0.002284
v 0.004679 0.001183 -0.002284
v -0.004679 0.001183 -0.002284
v -0.002182 -0.001314 -0.002284
v 0.005309 0.001183 -0.002284
v 0.005309 -0.000685 -0.002284
v -0.004679 0.001812 -0.002284
v 0.002812 0.001812 -0.002284
v 0.004679 0.001812 -0.002284
v 0.008897 -0.001226 -0.002284
v -0.002812 0.001183 -0.002284
v -0.000315 -0.001314 -0.002284
v -0.002812 0.001812 -0.002284
v 0.005309 0.001812 -0.002284
v 0.008897 0.001724 -0.002284
v -0.002182 -0.000685 -0.002284
v -0.008897 0.003395 0.000174
v -0.002458 0.003395 0.000174
v 0.002458 0.003395 0.000174
v 0.008897 0.003395 0.000174
v 0.008897 -0.001226 0.004106
v 0.008897 -0.002897 0.000174
v 0.008897 0.001724 0.004106
v 0.008897 -0.001226 0.000174
v 0.008897 0.001724 0.000174
v -0.008897 -0.002897 0.000174
v -0.008897 -0.001226 0.000174
v -0.008897 -0.001226 0.004106
v -0.008897 0.001724 0.004106
v -0.008897 0.001724 0.000174
v 0.002182 0.001183 0.000174
v 0.000315 -0.000685 0.000174
v 0.002182 -0.000685 0.000174
v 0.000315 0.001183 0.000174
v -0.005309 -0.001314 0.000174
v 0.002182 0.001812 0.000174
v 0.000315 0.001812 0.000174
v 0.004679 -0.000685 0.000174
v 0.002812 -0.001314 0.000174
v 0.004679 -0.001314 0.000174
v 0.002812 -0.000685 0.000174
v -0.004679 -0.001314 0.000174
v -0.005309 -0.000685 0.000174
v 0.002812 0.001183 0.000174
v -0.002812 -0.001314 0.000174
v -0.005309 0.001183 0.000174
v 0.002812 0.001812 0.000174
v -0.002812 -0.000685 0.000174
v -0.004679 -0.000685 0.000174
v 0.004679 0.001183 0.000174
v -0.004679 0.001183 0.000174
v 0.005309 -0.001314 0.000174
v 0.002182 -0.001314 0.000174
v 0.000315 -0.001314 0.000174
v -0.000315 -0.001314 0.000174
v -0.002182 -0.001314 0.000174
v -0.005309 0.001812 0.000174
v 0.005309 0.001183 0.000174
v 0.005309 -0.000685 0.000174
v 0.004679 0.001812 0.000174
v -0.000315 0.001812 0.000174
v -0.002812 0.001183 0.000174
v -0.000315 -0.000685 0.000174
v -0.002182 -0.000685 0.000174
v -0.002812 0.001812 0.000174
v -0.004679 0.001812 0.000174
v 0.005309 0.001812 0.000174
v -0.002182 0.001183 0.000174
v -0.000315 0.001183 0.000174
v -0.002182 0.001812 0.000174
v 0.000118 0.001615 0.005089
v -0.000118 0.001615 0.005089
v -0.000118 0.001379 0.005089
v 0.000118 0.001379 0.005089
v 0.000315 0.001812 0.004748
v -0.000315 0.001812 0.004748
v -0.000315 0.001183 0.004748
v 0.000315 0.001183 0.004748
v 0.000315 0.001812 -0.005384
v 0.000315 0.001183 -0.005384
v -0.000315 0.001183 -0.005384
v -0.000315 0.001812 -0.005384
v -0.000118 0.001615 -0.005725
v 0.000118 0.001615 -0.005725
v -0.000118 0.001379 -0.005725
v 0.000118 0.001379 -0.005725
v 0.000118 -0.001117 0.005089
v -0.000118 -0.000882 0.005089
v -0.000118 -0.001117 0.005089
v 0.000118 -0.000882 0.005089
v -0.000315 -0.000685 0.004748
v -0.000315 -0.001314 0.004748
v 0.000315 -0.001314 0.004748
v 0.000315 -0.000685 0.004748
v 0.000315 -0.000685 -0.005384
v -0.000315 -0.000685 -0.005384
v 0.000315 -0.001314 -0.005384
v -0.000315 -0.001314 -0.005384
v -0.000118 -0.000882 -0.005725
v 0.000118 -0.001117 -0.005725
v -0.000118 -0.001117 -0.005725
v 0.000118 -0.000882 -0.005725
v 0.002615 0.001615 0.005089
v 0.002379 0.001615 0.005089
v 0.002379 0.001379 0.005089
v 0.002615 0.001379 0.005089
v 0.002812 0.001812 0.004748
v 0.002182 0.001812 0.004748
v 0.002182 0.001183 0.004748
v 0.002812 0.001183 0.004748
v 0.002812 0.001812 -0.005384
v 0.002812 0.001183 -0.005384
v 0.002182 0.001183 -0.005384
v 0.002182 0.001812 -0.005384
v 0.002379 0.001615 -0.005725
v 0.002615 0.001615 -0.005725
v 0.002379 0.001379 -0.005725
v 0.002615 0.001379 -0.005725
v 0.002615 -0.001117 0.005089
v 0.002379 -0.000882 0.005089
v 0.002379 -0.001117 0.005089
v 0.002615 -0.000882 0.005089
v 0.002182 -0.000685 0.004748
v 0.002182 -0.001314 0.004748
v 0.002812 -0.001314 0.004748
v 0.002812 -0.000685 0.004748
v 0.002812 -0.000685 -0.005384
v 0.002182 -0.000685 -0.005384
v 0.002812 -0.001314 -0.005384
v 0.002182 -0.001314 -0.005384
v 0.002379 -0.000882 -0.005725
v 0.002615 -0.001117 -0.005725
v 0.002379 -0.001117 -0.005725
v 0.002615 -0.000882 -0.005725
v 0.005112 0.001615 0.005089
v 0.004876 0.001615 0.005089
v 0.004876 0.001379 0.005089
v 0.005112 0.001379 0.005089
v 0.005309 0.001812 0.004748
v 0.004679 0.001812 0.004748
v 0.004679 0.001183 0.004748
v 0.005309 0.001183 0.004748
v 0.005309 0.001812 -0.005384
v 0.005309 0.001183 -0.005384
v 0.004679 0.001183 -0.005384
v 0.004679 0.001812 -0.005384
v 0.004876 0.001615 -0.005725
v 0.005112 0.001615 -0.005725
v 0.004876 0.001379 -0.005725
v 0.005112 0.001379 -0.005725
v 0.005112 -0.001117 0.005089
v 0.004876 -0.000882 0.005089
v 0.004876 -0.001117 0.005089
v 0.005112 -0.000882 0.005089
v 0.004679 -0.000685 0.004748
v 0.004679 -0.001314 0.004748
v 0.005309 -0.001314 0.004748
v 0.005309 -0.000685 0.004748
v 0.005309 -0.000685 -0.005384
v 0.004679 -0.000685 -0.005384
v 0.005309 -0.001314 -0.005384
v 0.004679 -0.001314 -0.005384
v 0.004876 -0.000882 -0.005725
v 0.005112 -0.001117 -0.005725
v 0.004876 -0.001117 -0.005725
v 0.005112 -0.000882 -0.005725
v -0.002379 0.001615 0.005089
v -0.002615 0.001615 0.005089
v -0.002615 0.001379 0.005089
v -0.002379 0.001379 0.005089
v -0.002182 0.001812 0.004748
v -0.002812 0.001812 0.004748
v -0.002812 0.001183 0.004748
v -0.002182 0.001183 0.004748
v -0.002182 0.001812 -0.005384
v -0.002182 0.001183 -0.005384
v -0.002812 0.001183 -0.005384
v -0.002812 0.001812 -0.005384
v -0.002615 0.001615 -0.005725
v -0.002379 0.001615 -0.005725
v -0.002615 0.001379 -0.005725
v -0.002379 0.001379 -0.005725
v -0.002379 -0.001117 0.005089
v -0.002615 -0.000882 0.005089
v -0.002615 -0.001117 0.005089
v -0.002379 -0.000882 0.005089
v -0.002812 -0.000685 0.004748
v -0.002812 -0.001314 0.004748
v -0.002182 -0.001314 0.004748
v -0.002182 -0.000685 0.004748
v -0.002182 -0.000685 -0.005384
v -0.002812 -0.000685 -0.005384
v -0.002182 -0.001314 -0.005384
v -0.002812 -0.001314 -0.005384
v -0.002615 -0.000882 -0.005725
v -0.002379 -0.001117 -0.005725
v -0.002615 -0.001117 -0.005725
v -0.002379 -0.000882 -0.005725
v -0.004876 0.001615 0.005089
v -0.005112 0.001615 0.005089
v -0.005112 0.001379 0.005089
v -0.004876 0.001379 0.005089
v -0.004679 0.001812 0.004748
v -0.005309 0.001812 0.004748
v -0.005309 0.001183 0.004748
v -0.004679 0.001183 0.004748
v -0.004679 0.001812 -0.005384
v -0.004679 0.001183 -0.005384
v -0.005309 0.001183 -0.005384
v -0.005309 0.001812 -0.005384
v -0.005112 0.001615 -0.005725
v -0.004876 0.001615 -0.005725
v -0.005112 0.001379 -0.005725
v -0.004876 0.001379 -0.005725
v -0.004876 -0.001117 0.005089
v -0.005112 -0.000882 0.005089
v -0.005112 -0.001117 0.005089
v -0.004876 -0.000882 0.005089
v -0.005309 -0.000685 0.004748
v -0.005309 -0.001314 0.004748
v -0.004679 -0.001314 0.004748
v -0.004679 -0.000685 0.004748
v -0.004679 -0.000685 -0.005384
v -0.005309 -0.000685 -0.005384
v -0.004679 -0.001314 -0.005384
v -0.005309 -0.001314 -0.005384
v -0.005112 -0.000882 -0.005725
v -0.004876 -0.001117 -0.005725
v -0.005112 -0.001117 -0.005725
v -0.004876 -0.000882 -0.005725
vn 0.0000 -1.0000 -0.0000
vn -1.0000 0.0000 0.0000
vn 1.0000 0.0000 0.0000
vn 0.0000 1.0000 0.0000
vn 0.0000 0.0000 1.0000
vn 0.0000 0.0000 -1.0000
vn -0.8660 0.0000 0.5000
vn 0.0000 -0.8660 0.5000
vn 0.0000 0.8660 0.5000
vn 0.8660 0.0000 0.5000
vn 0.8660 0.0000 -0.5000
vn 0.0000 0.8660 -0.5000
vn 0.0000 -0.8660 -0.5000
vn -0.8660 0.0000 -0.5000
usemtl material_0.226
s 1
f 1//1 2//1 3//1
f 1//1 4//1 2//1
f 5//2 1//2 6//2
f 4//2 1//2 5//2
f 7//1 8//1 6//1
f 6//1 8//1 5//1
f 9//3 10//3 8//3
f 9//3 8//3 7//3
f 11//1 12//1 9//1
f 9//1 12//1 10//1
f 13//2 11//2 14//2
f 12//2 11//2 13//2
f 15//1 13//1 14//1
f 16//1 13//1 15//1
f 17//3 18//3 16//3
f 17//3 16//3 15//3
f 19//1 20//1 17//1
f 17//1 20//1 18//1
f 21//2 19//2 22//2
f 20//2 19//2 21//2
f 23//1 22//1 24//1
f 23//1 21//1 22//1
f 25//3 26//3 23//3
f 25//3 23//3 24//3
f 27//1 26//1 25//1
f 27//1 28//1 26//1
f 27//3 29//3 28//3
f 30//3 29//3 27//3
f 31//3 32//3 33//3
f 29//3 32//3 28//3
f 31//3 34//3 32//3
f 32//3 34//3 28//3
f 35//4 34//4 31//4
f 36//4 34//4 35//4
f 37//4 38//4 35//4
f 37//4 35//4 31//4
f 39//4 40//4 38//4
f 39//4 38//4 37//4
f 41//2 42//2 3//2
f 41//2 3//2 2//2
f 43//2 37//2 44//2
f 39//2 43//2 41//2
f 39//2 41//2 2//2
f 39//2 37//2 43//2
f 45//5 2//5 4//5
f 10//5 4//5 5//5
f 10//5 5//5 8//5
f 10//5 45//5 4//5
f 46//5 2//5 45//5
f 39//5 2//5 46//5
f 18//5 12//5 13//5
f 18//5 13//5 16//5
f 40//5 46//5 47//5
f 40//5 39//5 46//5
f 26//5 20//5 21//5
f 26//5 21//5 23//5
f 48//5 26//5 28//5
f 48//5 20//5 26//5
f 49//5 36//5 50//5
f 49//5 48//5 28//5
f 34//5 36//5 49//5
f 34//5 49//5 28//5
f 48//5 45//5 10//5
f 48//5 10//5 12//5
f 48//5 12//5 18//5
f 48//5 18//5 20//5
f 51//6 52//6 17//6
f 53//6 54//6 55//6
f 55//6 54//6 56//6
f 51//6 57//6 52//6
f 58//6 57//6 51//6
f 6//6 9//6 7//6
f 56//6 59//6 60//6
f 1//6 9//6 6//6
f 60//6 59//6 58//6
f 52//6 61//6 17//6
f 42//6 62//6 3//6
f 3//6 62//6 1//6
f 1//6 62//6 9//6
f 62//6 63//6 9//6
f 62//6 64//6 63//6
f 59//6 65//6 58//6
f 63//6 66//6 9//6
f 58//6 65//6 57//6
f 44//6 37//6 67//6
f 68//6 69//6 59//6
f 59//6 69//6 65//6
f 70//6 71//6 19//6
f 72//6 73//6 61//6
f 67//6 74//6 62//6
f 62//6 74//6 64//6
f 61//6 73//6 70//6
f 57//6 75//6 72//6
f 76//6 77//6 66//6
f 65//6 75//6 57//6
f 22//6 25//6 24//6
f 19//6 25//6 22//6
f 14//6 17//6 15//6
f 11//6 17//6 14//6
f 67//6 78//6 74//6
f 37//6 78//6 67//6
f 76//6 79//6 77//6
f 72//6 80//6 73//6
f 64//6 81//6 76//6
f 75//6 80//6 72//6
f 74//6 81//6 64//6
f 77//6 82//6 11//6
f 73//6 83//6 84//6
f 37//6 85//6 78//6
f 80//6 83//6 73//6
f 86//6 87//6 75//6
f 75//6 87//6 80//6
f 84//6 88//6 71//6
f 76//6 89//6 79//6
f 25//6 88//6 27//6
f 81//6 89//6 76//6
f 82//6 90//6 11//6
f 71//6 88//6 19//6
f 19//6 88//6 25//6
f 85//6 91//6 81//6
f 37//6 91//6 85//6
f 88//6 30//6 27//6
f 81//6 91//6 89//6
f 92//6 93//6 83//6
f 79//6 55//6 94//6
f 83//6 93//6 84//6
f 84//6 93//6 88//6
f 89//6 55//6 79//6
f 94//6 60//6 82//6
f 87//6 31//6 92//6
f 93//6 31//6 33//6
f 82//6 60//6 90//6
f 86//6 31//6 87//6
f 11//6 51//6 17//6
f 90//6 51//6 11//6
f 92//6 31//6 93//6
f 37//6 31//6 91//6
f 91//6 31//6 53//6
f 53//6 31//6 54//6
f 54//6 31//6 68//6
f 68//6 31//6 69//6
f 69//6 31//6 86//6
f 19//6 17//6 61//6
f 19//6 61//6 70//6
f 11//6 9//6 66//6
f 11//6 66//6 77//6
f 94//6 56//6 60//6
f 55//6 56//6 94//6
f 95//1 96//1 46//1
f 96//1 47//1 46//1
f 96//3 40//3 47//3
f 38//3 40//3 96//3
f 36//2 35//2 50//2
f 50//2 35//2 97//2
f 97//1 49//1 50//1
f 98//1 49//1 97//1
f 99//2 100//2 48//2
f 49//2 101//2 48//2
f 48//2 101//2 99//2
f 99//2 102//2 100//2
f 101//2 98//2 103//2
f 49//2 98//2 101//2
f 48//4 100//4 45//4
f 45//4 100//4 104//4
f 105//3 106//3 104//3
f 106//3 45//3 104//3
f 95//3 107//3 108//3
f 107//3 46//3 106//3
f 95//3 46//3 107//3
f 106//3 46//3 45//3
f 109//5 110//5 111//5
f 109//5 112//5 110//5
f 113//5 105//5 104//5
f 114//5 112//5 109//5
f 114//5 115//5 112//5
f 116//5 117//5 118//5
f 116//5 119//5 117//5
f 120//5 113//5 104//5
f 121//5 105//5 113//5
f 122//5 111//5 119//5
f 122//5 109//5 111//5
f 123//5 120//5 104//5
f 124//5 108//5 105//5
f 97//5 115//5 114//5
f 124//5 105//5 121//5
f 97//5 114//5 125//5
f 126//5 127//5 120//5
f 128//5 119//5 116//5
f 126//5 120//5 123//5
f 128//5 122//5 119//5
f 129//5 121//5 127//5
f 129//5 124//5 121//5
f 100//5 118//5 117//5
f 100//5 130//5 118//5
f 100//5 117//5 131//5
f 100//5 132//5 133//5
f 134//5 123//5 104//5
f 135//5 95//5 108//5
f 100//5 131//5 132//5
f 135//5 108//5 124//5
f 100//5 133//5 104//5
f 136//5 116//5 137//5
f 136//5 128//5 116//5
f 138//5 122//5 128//5
f 138//5 125//5 122//5
f 138//5 97//5 125//5
f 35//5 38//5 139//5
f 35//5 115//5 97//5
f 35//5 139//5 115//5
f 133//5 134//5 104//5
f 140//5 129//5 127//5
f 140//5 127//5 126//5
f 141//5 142//5 134//5
f 102//5 137//5 130//5
f 102//5 130//5 100//5
f 141//5 134//5 133//5
f 143//5 144//5 129//5
f 103//5 136//5 137//5
f 103//5 145//5 136//5
f 143//5 129//5 140//5
f 103//5 137//5 102//5
f 146//5 126//5 142//5
f 146//5 140//5 126//5
f 98//5 145//5 103//5
f 96//5 95//5 135//5
f 96//5 135//5 144//5
f 98//5 97//5 138//5
f 98//5 138//5 145//5
f 147//5 142//5 141//5
f 147//5 146//5 142//5
f 96//5 143//5 148//5
f 96//5 144//5 143//5
f 112//5 141//5 110//5
f 112//5 147//5 141//5
f 139//5 96//5 148//5
f 139//5 148//5 146//5
f 139//5 146//5 147//5
f 111//5 110//5 132//5
f 111//5 132//5 131//5
f 38//5 96//5 139//5
f 33//1 103//1 93//1
f 103//1 32//1 101//1
f 33//1 32//1 103//1
f 88//3 103//3 102//3
f 93//3 103//3 88//3
f 29//4 102//4 99//4
f 102//4 30//4 88//4
f 29//4 30//4 102//4
f 99//6 32//6 29//6
f 101//6 32//6 99//6
f 106//4 105//4 41//4
f 105//4 42//4 41//4
f 105//4 62//4 42//4
f 108//2 67//2 105//2
f 105//2 67//2 62//2
f 67//1 108//1 44//1
f 108//1 43//1 44//1
f 108//1 107//1 43//1
f 41//6 107//6 106//6
f 43//6 107//6 41//6
usemtl material_1.221
f 149//5 150//5 151//5
f 149//5 151//5 152//5
f 153//4 139//4 154//4
f 153//4 115//4 139//4
f 154//2 147//2 155//2
f 154//2 139//2 147//2
f 112//1 156//1 155//1
f 112//1 155//1 147//1
f 115//3 153//3 156//3
f 115//3 156//3 112//3
f 157//3 59//3 158//3
f 157//3 68//3 59//3
f 158//1 56//1 159//1
f 158//1 59//1 56//1
f 54//2 160//2 159//2
f 54//2 159//2 56//2
f 68//4 157//4 160//4
f 68//4 160//4 54//4
f 161//6 162//6 163//6
f 163//6 162//6 164//6
f 165//5 166//5 167//5
f 168//5 166//5 165//5
f 169//2 133//2 170//2
f 169//2 141//2 133//2
f 132//1 171//1 170//1
f 132//1 170//1 133//1
f 110//3 172//3 171//3
f 110//3 171//3 132//3
f 172//4 141//4 169//4
f 172//4 110//4 141//4
f 58//4 173//4 174//4
f 58//4 174//4 60//4
f 173//3 51//3 175//3
f 173//3 58//3 51//3
f 175//1 90//1 176//1
f 175//1 51//1 90//1
f 60//2 174//2 176//2
f 60//2 176//2 90//2
f 177//6 178//6 179//6
f 177//6 180//6 178//6
f 166//7 169//7 170//7
f 166//7 170//7 167//7
f 171//8 167//8 170//8
f 171//8 165//8 167//8
f 168//9 169//9 166//9
f 168//9 172//9 169//9
f 172//10 165//10 171//10
f 172//10 168//10 165//10
f 150//9 153//9 154//9
f 149//9 153//9 150//9
f 151//7 154//7 155//7
f 150//7 154//7 151//7
f 156//10 149//10 152//10
f 153//10 149//10 156//10
f 155//8 152//8 151//8
f 156//8 152//8 155//8
f 178//11 173//11 175//11
f 180//11 173//11 178//11
f 174//12 180//12 177//12
f 173//12 180//12 174//12
f 179//13 175//13 176//13
f 178//13 175//13 179//13
f 176//14 177//14 179//14
f 174//14 177//14 176//14
f 164//13 159//13 163//13
f 164//13 158//13 159//13
f 162//11 158//11 164//11
f 162//11 157//11 158//11
f 160//14 163//14 159//14
f 160//14 161//14 163//14
f 157//12 162//12 161//12
f 157//12 161//12 160//12
f 181//5 182//5 183//5
f 181//5 183//5 184//5
f 185//4 114//4 186//4
f 185//4 125//4 114//4
f 186//2 109//2 187//2
f 186//2 114//2 109//2
f 122//1 188//1 187//1
f 122//1 187//1 109//1
f 125//3 185//3 188//3
f 125//3 188//3 122//3
f 189//3 75//3 190//3
f 189//3 86//3 75//3
f 190//1 65//1 191//1
f 190//1 75//1 65//1
f 69//2 192//2 191//2
f 69//2 191//2 65//2
f 86//4 189//4 192//4
f 86//4 192//4 69//4
f 193//6 194//6 195//6
f 195//6 194//6 196//6
f 197//5 198//5 199//5
f 200//5 198//5 197//5
f 201//2 131//2 202//2
f 201//2 111//2 131//2
f 117//1 203//1 202//1
f 117//1 202//1 131//1
f 119//3 204//3 203//3
f 119//3 203//3 117//3
f 204//4 111//4 201//4
f 204//4 119//4 111//4
f 72//4 205//4 206//4
f 72//4 206//4 57//4
f 205//3 61//3 207//3
f 205//3 72//3 61//3
f 207//1 52//1 208//1
f 207//1 61//1 52//1
f 57//2 206//2 208//2
f 57//2 208//2 52//2
f 209//6 210//6 211//6
f 209//6 212//6 210//6
f 213//5 214//5 215//5
f 213//5 215//5 216//5
f 217//4 138//4 218//4
f 217//4 145//4 138//4
f 218//2 128//2 219//2
f 218//2 138//2 128//2
f 136//1 220//1 219//1
f 136//1 219//1 128//1
f 145//3 217//3 220//3
f 145//3 220//3 136//3
f 221//3 83//3 222//3
f 221//3 92//3 83//3
f 222//1 80//1 223//1
f 222//1 83//1 80//1
f 87//2 224//2 223//2
f 87//2 223//2 80//2
f 92//4 221//4 224//4
f 92//4 224//4 87//4
f 225//6 226//6 227//6
f 227//6 226//6 228//6
f 229//5 230//5 231//5
f 232//5 230//5 229//5
f 233//2 118//2 234//2
f 233//2 116//2 118//2
f 130//1 235//1 234//1
f 130//1 234//1 118//1
f 137//3 236//3 235//3
f 137//3 235//3 130//3
f 236//4 116//4 233//4
f 236//4 137//4 116//4
f 84//4 237//4 238//4
f 84//4 238//4 73//4
f 237//3 71//3 239//3
f 237//3 84//3 71//3
f 239//1 70//1 240//1
f 239//1 71//1 70//1
f 73//2 238//2 240//2
f 73//2 240//2 70//2
f 241//6 242//6 243//6
f 241//6 244//6 242//6
f 245//5 246//5 247//5
f 245//5 247//5 248//5
f 249//4 143//4 250//4
f 249//4 148//4 143//4
f 250//2 140//2 251//2
f 250//2 143//2 140//2
f 146//1 252//1 251//1
f 146//1 251//1 140//1
f 148//3 249//3 252//3
f 148//3 252//3 146//3
f 253//3 55//3 254//3
f 253//3 53//3 55//3
f 254//1 89//1 255//1
f 254//1 55//1 89//1
f 91//2 256//2 255//2
f 91//2 255//2 89//2
f 53//4 253//4 256//4
f 53//4 256//4 91//4
f 257//6 258//6 259//6
f 259//6 258//6 260//6
f 261//5 262//5 263//5
f 264//5 262//5 261//5
f 265//2 123//2 266//2
f 265//2 126//2 123//2
f 134//1 267//1 266//1
f 134//1 266//1 123//1
f 142//3 268//3 267//3
f 142//3 267//3 134//3
f 268//4 126//4 265//4
f 268//4 142//4 126//4
f 94//4 269//4 270//4
f 94//4 270//4 79//4
f 269//3 82//3 271//3
f 269//3 94//3 82//3
f 271//1 77//1 272//1
f 271//1 82//1 77//1
f 79//2 270//2 272//2
f 79//2 272//2 77//2
f 273//6 274//6 275//6
f 273//6 276//6 274//6
f 277//5 278//5 279//5
f 277//5 279//5 280//5
f 281//4 135//4 282//4
f 281//4 144//4 135//4
f 282//2 124//2 283//2
f 282//2 135//2 124//2
f 129//1 284//1 283//1
f 129//1 283//1 124//1
f 144//3 281//3 284//3
f 144//3 284//3 129//3
f 285//3 81//3 286//3
f 285//3 85//3 81//3
f 286//1 74//1 287//1
f 286//1 81//1 74//1
f 78//2 288//2 287//2
f 78//2 287//2 74//2
f 85//4 285//4 288//4
f 85//4 288//4 78//4
f 289//6 290//6 291//6
f 291//6 290//6 292//6
f 293//5 294//5 295//5
f 296//5 294//5 293//5
f 297//2 113//2 298//2
f 297//2 121//2 113//2
f 120//1 299//1 298//1
f 120//1 298//1 113//1
f 127//3 300//3 299//3
f 127//3 299//3 120//3
f 300//4 121//4 297//4
f 300//4 127//4 121//4
f 76//4 301//4 302//4
f 76//4 302//4 64//4
f 301//3 66//3 303//3
f 301//3 76//3 66//3
f 303//1 63//1 304//1
f 303//1 66//1 63//1
f 64//2 302//2 304//2
f 64//2 304//2 63//2
f 305//6 306//6 307//6
f 305//6 308//6 306//6
f 198//7 201//7 202//7
f 198//7 202//7 199//7
f 203//8 199//8 202//8
f 203//8 197//8 199//8
f 200//9 201//9 198//9
f 200//9 204//9 201//9
f 204//10 197//10 203//10
f 204//10 200//10 197//10
f 182//9 185//9 186//9
f 181//9 185//9 182//9
f 183//7 186//7 187//7
f 182//7 186//7 183//7
f 188//10 181//10 184//10
f 185//10 181//10 188//10
f 187//8 184//8 183//8
f 188//8 184//8 187//8
f 210//11 205//11 207//11
f 212//11 205//11 210//11
f 206//12 212//12 209//12
f 205//12 212//12 206//12
f 211//13 207//13 208//13
f 210//13 207//13 211//13
f 208//14 209//14 211//14
f 206//14 209//14 208//14
f 196//13 191//13 195//13
f 196//13 190//13 191//13
f 194//11 190//11 196//11
f 194//11 189//11 190//11
f 192//14 195//14 191//14
f 192//14 193//14 195//14
f 189//12 194//12 193//12
f 189//12 193//12 192//12
f 230//7 233//7 234//7
f 230//7 234//7 231//7
f 235//8 231//8 234//8
f 235//8 229//8 231//8
f 232//9 233//9 230//9
f 232//9 236//9 233//9
f 236//10 229//10 235//10
f 236//10 232//10 229//10
f 214//9 217//9 218//9
f 213//9 217//9 214//9
f 215//7 218//7 219//7
f 214//7 218//7 215//7
f 220//10 213//10 216//10
f 217//10 213//10 220//10
f 219//8 216//8 215//8
f 220//8 216//8 219//8
f 242//11 237//11 239//11
f 244//11 237//11 242//11
f 238//12 244//12 241//12
f 237//12 244//12 238//12
f 243//13 239//13 240//13
f 242//13 239//13 243//13
f 240//14 241//14 243//14
f 238//14 241//14 240//14
f 228//13 223//13 227//13
f 228//13 222//13 223//13
f 226//11 222//11 228//11
f 226//11 221//11 222//11
f 224//14 227//14 223//14
f 224//14 225//14 227//14
f 221//12 226//12 225//12
f 221//12 225//12 224//12
f 262//7 265//7 266//7
f 262//7 266//7 263//7
f 261//8 263//8 266//8
f 267//8 261//8 266//8
f 264//9 265//9 262//9
f 264//9 268//9 265//9
f 268//10 261//10 267//10
f 268//10 264//10 261//10
f 246//9 245//9 250//9
f 245//9 249//9 250//9
f 247//7 250//7 251//7
f 246//7 250//7 247//7
f 252//10 245//10 248//10
f 249//10 245//10 252//10
f 251//8 248//8 247//8
f 252//8 248//8 251//8
f 274//11 269//11 271//11
f 276//11 269//11 274//11
f 270//12 276//12 273//12
f 269//12 276//12 270//12
f 275//13 274//13 272//13
f 274//13 271//13 272//13
f 272//14 273//14 275//14
f 270//14 273//14 272//14
f 260//13 255//13 259//13
f 260//13 254//13 255//13
f 258//11 254//11 260//11
f 258//11 253//11 254//11
f 256//14 259//14 255//14
f 256//14 257//14 259//14
f 258//12 257//12 256//12
f 253//12 258//12 256//12
f 294//7 297//7 298//7
f 294//7 298//7 295//7
f 299//8 295//8 298//8
f 299//8 293//8 295//8
f 296//9 297//9 294//9
f 296//9 300//9 297//9
f 300//10 293//10 299//10
f 300//10 296//10 293//10
f 278//9 281//9 282//9
f 277//9 281//9 278//9
f 279//7 282//7 283//7
f 278//7 282//7 279//7
f 284//10 277//10 280//10
f 281//10 277//10 284//10
f 283//8 280//8 279//8
f 284//8 280//8 283//8
f 306//11 301//11 303//11
f 308//11 301//11 306//11
f 302//12 308//12 305//12
f 301//12 308//12 302//12
f 307//13 303//13 304//13
f 306//13 303//13 307//13
f 304//14 305//14 307//14
f 302//14 305//14 304//14
f 292//13 287//13 291//13
f 292//13 286//13 287//13
f 290//11 286//11 292//11
f 290//11 285//11 286//11
f 288//14 291//14 287//14
f 288//14 289//14 291//14
f 285//12 290//12 289//12
f 285//12 289//12 288//12
