# Blender v2.81 (sub 16) OBJ File: ''
# www.blender.org
mtllib CI22-3pins.mtl
o CI22-3pins
v -0.003114 -0.004605 -0.007265
v -0.003581 -0.003417 -0.001919
v -0.003114 -0.003417 -0.007265
v -0.003581 -0.004605 -0.001919
v -0.004324 -0.003417 -0.001455
v -0.004324 -0.004605 -0.001455
v -0.004324 -0.003417 0.000030
v -0.004324 -0.004605 0.000030
v -0.003671 -0.003417 0.001645
v -0.003671 -0.004605 0.001645
v -0.002409 -0.003417 0.001645
v -0.002409 -0.004605 0.001645
v -0.002409 -0.003417 -0.006077
v -0.002409 -0.004605 -0.006077
v 0.002863 -0.003417 -0.006077
v 0.002863 -0.004605 -0.006077
v 0.002863 -0.003417 0.001645
v 0.002863 -0.004605 0.001645
v 0.004125 -0.003417 0.001645
v 0.004125 -0.004605 0.001645
v 0.004779 -0.003417 0.000030
v 0.004779 -0.004605 0.000030
v 0.004779 -0.003417 -0.001455
v 0.004779 -0.004605 -0.001455
v 0.004037 -0.003417 -0.001919
v 0.004037 -0.004605 -0.001919
v 0.003569 -0.003417 -0.007265
v 0.003569 -0.004605 -0.007265
v -0.005935 -0.003417 -0.006077
v -0.007123 -0.003417 -0.006077
v -0.007123 -0.003417 -0.007265
v -0.005935 -0.003417 0.003427
v 0.006391 -0.003417 -0.006077
v 0.007579 -0.003417 -0.007265
v 0.007579 -0.003417 -0.006077
v 0.006391 -0.003417 0.003427
v 0.003153 0.000081 0.003130
v 0.004638 0.000081 0.003278
v 0.004638 0.000081 0.003130
v 0.003153 0.000081 0.003278
v 0.004676 0.001558 -0.000509
v 0.002966 0.002115 -0.000509
v 0.003115 0.001558 -0.000509
v 0.004825 0.002115 -0.000509
v 0.002966 0.002115 -0.000471
v 0.004825 0.002115 -0.000471
v 0.002188 0.001558 0.003130
v 0.003115 0.001558 0.003130
v 0.004676 0.001558 0.003130
v 0.005604 0.001558 0.003130
v 0.004638 0.001558 -0.001474
v 0.003153 0.001558 -0.001474
v 0.002188 0.001558 -0.007265
v 0.003153 0.001558 -0.007265
v 0.004638 0.001558 -0.007265
v 0.005604 0.001558 -0.007265
v 0.003153 0.002301 -0.002588
v 0.004638 0.002301 -0.002588
v 0.003153 0.002301 -0.007265
v 0.004638 0.002301 -0.007265
v 0.004638 0.000675 0.003872
v 0.003153 0.000675 0.003872
v 0.003153 0.001417 0.003872
v 0.004638 0.001417 0.003872
v 0.004638 0.001417 0.003130
v 0.003153 0.001417 0.003130
v 0.005604 -0.002303 -0.007265
v 0.005604 -0.002303 0.003130
v 0.002188 -0.002303 0.003130
v 0.002188 -0.002303 -0.007265
v 0.003265 -0.000513 0.003130
v 0.003265 -0.001776 0.003130
v 0.004527 -0.001776 0.003130
v 0.004527 -0.000513 0.003130
v 0.004975 0.002672 0.004318
v 0.004638 0.001417 0.004318
v 0.004975 0.002672 0.000048
v 0.004876 0.002304 0.000048
v 0.003153 0.001417 0.004318
v 0.002916 0.002304 0.000048
v 0.002817 0.002672 0.000048
v 0.002817 0.002672 0.004318
v 0.006391 0.002672 -0.006077
v 0.006391 0.002672 0.004318
v 0.001262 0.002672 0.000048
v -0.005935 0.002672 -0.006077
v -0.000896 0.002672 0.000048
v -0.002451 0.002672 0.000048
v 0.001262 0.002672 0.004318
v -0.004608 0.002672 0.000048
v -0.002451 0.002672 0.004318
v -0.000896 0.002672 0.004318
v -0.005935 0.002672 0.004318
v -0.004608 0.002672 0.004318
v 0.004527 -0.000513 0.003575
v 0.004527 -0.001776 0.003575
v 0.003265 -0.001776 0.003575
v -0.005237 -0.002303 -0.007265
v -0.007123 0.003860 -0.007265
v 0.007579 0.003860 -0.007265
v -0.002787 0.002301 -0.007265
v -0.000559 0.002301 -0.007265
v 0.000926 0.002301 -0.007265
v -0.005237 0.001558 -0.007265
v -0.006279 0.000333 -0.007265
v -0.007123 -0.000511 -0.007265
v -0.001822 -0.002303 -0.007265
v -0.001525 -0.002303 -0.007265
v -0.007123 0.001177 -0.007265
v -0.004272 0.002301 -0.007265
v -0.004272 0.001558 -0.007265
v 0.001891 -0.002303 -0.007265
v -0.001822 0.001558 -0.007265
v -0.002787 0.001558 -0.007265
v -0.001525 0.001558 -0.007265
v -0.000559 0.001558 -0.007265
v 0.001891 0.001558 -0.007265
v 0.000926 0.001558 -0.007265
v -0.000559 0.000081 0.003130
v 0.000926 0.000081 0.003278
v 0.000926 0.000081 0.003130
v -0.000559 0.000081 0.003278
v 0.000963 0.001558 -0.000509
v -0.000746 0.002115 -0.000509
v -0.000597 0.001558 -0.000509
v 0.001113 0.002115 -0.000509
v -0.000746 0.002115 -0.000471
v 0.001113 0.002115 -0.000471
v -0.001525 0.001558 0.003130
v -0.000597 0.001558 0.003130
v 0.000963 0.001558 0.003130
v 0.001891 0.001558 0.003130
v 0.000926 0.001558 -0.001474
v -0.000559 0.001558 -0.001474
v -0.000559 0.002301 -0.002588
v 0.000926 0.002301 -0.002588
v 0.000926 0.000675 0.003872
v -0.000559 0.000675 0.003872
v -0.000559 0.001417 0.003872
v 0.000926 0.001417 0.003872
v 0.000926 0.001417 0.003130
v -0.000559 0.001417 0.003130
v 0.001891 -0.002303 0.003130
v -0.001525 -0.002303 0.003130
v -0.000448 -0.000513 0.003130
v -0.000448 -0.001776 0.003130
v 0.000814 -0.001776 0.003130
v 0.000814 -0.000513 0.003130
v 0.000926 0.001417 0.004318
v 0.001163 0.002304 0.000048
v -0.000559 0.001417 0.004318
v -0.000797 0.002304 0.000048
v 0.000814 -0.000513 0.003575
v 0.000814 -0.001776 0.003575
v -0.000448 -0.001776 0.003575
v -0.004272 0.000081 0.003130
v -0.002787 0.000081 0.003278
v -0.002787 0.000081 0.003130
v -0.004272 0.000081 0.003278
v -0.002749 0.001558 -0.000509
v -0.004459 0.002115 -0.000509
v -0.004310 0.001558 -0.000509
v -0.002600 0.002115 -0.000509
v -0.004459 0.002115 -0.000471
v -0.002600 0.002115 -0.000471
v -0.005237 0.001558 0.003130
v -0.004310 0.001558 0.003130
v -0.002749 0.001558 0.003130
v -0.001822 0.001558 0.003130
v -0.002787 0.001558 -0.001474
v -0.004272 0.001558 -0.001474
v -0.004272 0.002301 -0.002588
v -0.002787 0.002301 -0.002588
v -0.002787 0.000675 0.003872
v -0.004272 0.000675 0.003872
v -0.004272 0.001417 0.003872
v -0.002787 0.001417 0.003872
v -0.002787 0.001417 0.003130
v -0.004272 0.001417 0.003130
v -0.001822 -0.002303 0.003130
v -0.005237 -0.002303 0.003130
v -0.004161 -0.000513 0.003130
v -0.004161 -0.001776 0.003130
v -0.002898 -0.001776 0.003130
v -0.002898 -0.000513 0.003130
v -0.002787 0.001417 0.004318
v -0.002549 0.002304 0.000048
v -0.004272 0.001417 0.004318
v -0.004161 -0.000513 0.003575
v -0.002898 -0.000513 0.003575
v -0.002898 -0.001776 0.003575
v -0.004510 0.002304 0.000048
v -0.005935 0.000415 0.004318
v 0.006391 0.000415 0.004318
v -0.002601 -0.002073 0.003872
v -0.002601 -0.000216 0.003872
v -0.004458 -0.000216 0.003872
v -0.004458 -0.002073 0.003872
v -0.004161 -0.001776 0.003575
v -0.005935 -0.000031 0.003872
v -0.005935 -0.002971 0.003872
v -0.000745 -0.002073 0.003872
v -0.000745 -0.000216 0.003872
v 0.001111 -0.002073 0.003872
v 0.002968 -0.000216 0.003872
v 0.001111 -0.000216 0.003872
v 0.002968 -0.002073 0.003872
v 0.006391 -0.002971 0.003872
v 0.004824 -0.002073 0.003872
v 0.006391 -0.000031 0.003872
v 0.004824 -0.000216 0.003872
v -0.006279 0.000333 -0.006077
v -0.007123 0.001177 -0.006077
v -0.007123 0.003860 -0.006077
v 0.007579 0.003860 -0.006077
v -0.007123 -0.000511 -0.006077
v -0.000448 -0.000513 0.003575
v 0.003265 -0.000513 0.003575
vn -0.9962 0.0000 -0.0872
vn -0.5299 0.0000 -0.8480
vn -1.0000 -0.0000 0.0000
vn -0.9272 -0.0000 0.3746
vn 0.0000 -0.0000 1.0000
vn 1.0000 0.0000 0.0000
vn 0.9269 -0.0000 0.3754
vn 0.5301 0.0000 -0.8479
vn 0.9962 0.0000 -0.0872
vn 0.0000 -1.0000 -0.0000
vn 0.0000 1.0000 0.0000
vn 0.0000 -0.8321 -0.5547
vn 0.0000 0.7071 -0.7071
vn 0.0000 0.0000 -1.0000
vn -0.9659 0.2588 0.0000
vn 0.0000 -0.9397 0.3420
vn 0.9659 0.2588 0.0000
vn -0.7071 0.0000 0.7071
vn 0.0000 -0.7071 0.7071
vn 0.7071 0.0000 0.7071
vn 0.0000 0.7071 0.7071
vn -0.7071 -0.7071 -0.0000
vn -0.7071 0.7071 0.0000
usemtl material_1.483
s 1
f 1//1 2//1 3//1
f 1//1 4//1 2//1
usemtl material_0.491
f 4//2 5//2 2//2
f 4//2 6//2 5//2
f 6//3 7//3 5//3
f 6//3 8//3 7//3
f 8//4 9//4 7//4
f 8//4 10//4 9//4
f 10//5 11//5 9//5
f 10//5 12//5 11//5
f 12//6 13//6 11//6
f 12//6 14//6 13//6
f 14//5 15//5 13//5
f 14//5 16//5 15//5
f 16//3 17//3 15//3
f 16//3 18//3 17//3
f 18//5 19//5 17//5
f 18//5 20//5 19//5
f 20//7 21//7 19//7
f 20//7 22//7 21//7
f 22//6 23//6 21//6
f 22//6 24//6 23//6
f 24//8 25//8 23//8
f 24//8 26//8 25//8
f 26//9 27//9 25//9
f 26//9 28//9 27//9
f 12//10 10//10 8//10
f 4//10 8//10 6//10
f 4//10 12//10 8//10
f 1//10 14//10 4//10
f 22//10 20//10 18//10
f 26//10 22//10 18//10
f 24//10 22//10 26//10
f 16//10 14//10 1//10
f 28//10 26//10 16//10
f 28//10 16//10 1//10
f 18//10 16//10 26//10
f 14//10 12//10 4//10
f 29//10 30//10 31//10
f 3//10 29//10 31//10
f 2//10 5//10 29//10
f 32//10 5//10 7//10
f 9//10 32//10 7//10
f 11//10 32//10 9//10
f 33//10 27//10 34//10
f 35//10 33//10 34//10
f 23//10 25//10 33//10
f 36//10 17//10 19//10
f 36//10 19//10 21//10
f 36//10 21//10 23//10
f 3//10 2//10 29//10
f 11//10 13//10 15//10
f 11//10 15//10 17//10
f 25//10 27//10 33//10
f 33//10 36//10 23//10
f 36//10 32//10 11//10
f 36//10 11//10 17//10
f 32//10 29//10 5//10
f 37//11 38//11 39//11
f 40//11 38//11 37//11
f 41//5 42//5 43//5
f 44//5 42//5 41//5
f 45//10 44//10 46//10
f 42//10 44//10 45//10
f 47//10 43//10 48//10
f 49//10 41//10 50//10
f 43//10 51//10 41//10
f 52//10 51//10 43//10
f 53//10 54//10 52//10
f 55//10 56//10 51//10
f 47//10 53//10 43//10
f 43//10 53//10 52//10
f 56//10 50//10 41//10
f 56//10 41//10 51//10
f 57//12 51//12 52//12
f 57//12 58//12 51//12
f 59//10 58//10 57//10
f 60//10 58//10 59//10
f 58//3 55//3 51//3
f 58//3 60//3 55//3
f 59//6 57//6 54//6
f 57//6 52//6 54//6
f 40//13 61//13 38//13
f 62//13 61//13 40//13
f 63//14 61//14 62//14
f 63//14 64//14 61//14
f 61//3 65//3 38//3
f 38//3 65//3 39//3
f 61//3 64//3 65//3
f 37//6 62//6 40//6
f 66//6 62//6 37//6
f 63//6 62//6 66//6
f 50//3 67//3 68//3
f 56//3 67//3 50//3
f 69//6 53//6 47//6
f 70//6 53//6 69//6
f 68//11 70//11 69//11
f 67//11 70//11 68//11
f 69//14 71//14 72//14
f 69//14 37//14 71//14
f 73//14 68//14 72//14
f 72//14 68//14 69//14
f 69//14 47//14 37//14
f 73//14 74//14 68//14
f 47//14 66//14 37//14
f 47//14 48//14 66//14
f 71//14 39//14 74//14
f 37//14 39//14 71//14
f 74//14 39//14 68//14
f 65//14 50//14 39//14
f 49//14 50//14 65//14
f 39//14 50//14 68//14
f 75//15 64//15 76//15
f 75//15 49//15 64//15
f 49//15 65//15 64//15
f 75//15 77//15 49//15
f 77//15 78//15 49//15
f 46//15 41//15 78//15
f 44//15 41//15 46//15
f 41//15 49//15 78//15
f 76//11 63//11 79//11
f 64//11 63//11 76//11
f 46//16 78//16 80//16
f 46//16 80//16 45//16
f 78//5 81//5 80//5
f 77//5 81//5 78//5
f 63//17 82//17 79//17
f 66//17 48//17 63//17
f 63//17 48//17 82//17
f 43//17 45//17 80//17
f 43//17 42//17 45//17
f 48//17 81//17 82//17
f 80//17 81//17 48//17
f 48//17 43//17 80//17
f 81//11 77//11 83//11
f 84//11 83//11 77//11
f 85//11 81//11 83//11
f 75//11 84//11 77//11
f 86//11 85//11 83//11
f 87//11 85//11 86//11
f 88//11 87//11 86//11
f 89//11 82//11 81//11
f 89//11 81//11 85//11
f 90//11 88//11 86//11
f 91//11 92//11 87//11
f 91//11 87//11 88//11
f 93//11 94//11 90//11
f 93//11 90//11 86//11
f 95//3 73//3 96//3
f 74//3 73//3 95//3
f 96//11 72//11 97//11
f 73//11 72//11 96//11
f 34//14 27//14 67//14
f 3//14 31//14 98//14
f 99//14 100//14 101//14
f 101//14 100//14 102//14
f 102//14 100//14 103//14
f 103//14 100//14 59//14
f 104//14 98//14 105//14
f 106//14 98//14 31//14
f 106//14 105//14 98//14
f 98//14 107//14 3//14
f 3//14 108//14 1//14
f 107//14 108//14 3//14
f 109//14 104//14 105//14
f 109//14 99//14 104//14
f 104//14 110//14 111//14
f 99//14 110//14 104//14
f 99//14 101//14 110//14
f 1//14 112//14 28//14
f 108//14 112//14 1//14
f 101//14 113//14 114//14
f 113//14 115//14 107//14
f 107//14 115//14 108//14
f 101//14 115//14 113//14
f 112//14 27//14 28//14
f 70//14 27//14 112//14
f 115//14 102//14 116//14
f 101//14 102//14 115//14
f 70//14 67//14 27//14
f 103//14 117//14 118//14
f 117//14 53//14 112//14
f 112//14 53//14 70//14
f 103//14 53//14 117//14
f 53//14 59//14 54//14
f 103//14 59//14 53//14
f 67//14 56//14 34//14
f 60//14 56//14 55//14
f 60//14 100//14 56//14
f 56//14 100//14 34//14
f 59//14 100//14 60//14
f 119//11 120//11 121//11
f 122//11 120//11 119//11
f 123//5 124//5 125//5
f 126//5 124//5 123//5
f 127//10 126//10 128//10
f 124//10 126//10 127//10
f 129//10 125//10 130//10
f 131//10 123//10 132//10
f 125//10 133//10 123//10
f 134//10 133//10 125//10
f 115//10 116//10 134//10
f 118//10 117//10 133//10
f 129//10 115//10 125//10
f 125//10 115//10 134//10
f 117//10 132//10 123//10
f 117//10 123//10 133//10
f 135//12 133//12 134//12
f 135//12 136//12 133//12
f 102//10 136//10 135//10
f 103//10 136//10 102//10
f 136//3 118//3 133//3
f 136//3 103//3 118//3
f 102//6 135//6 116//6
f 135//6 134//6 116//6
f 122//13 137//13 120//13
f 138//13 137//13 122//13
f 139//14 137//14 138//14
f 139//14 140//14 137//14
f 137//3 141//3 120//3
f 120//3 141//3 121//3
f 137//3 140//3 141//3
f 119//6 138//6 122//6
f 142//6 138//6 119//6
f 139//6 138//6 142//6
f 132//3 112//3 143//3
f 117//3 112//3 132//3
f 144//6 115//6 129//6
f 108//6 115//6 144//6
f 143//11 108//11 144//11
f 112//11 108//11 143//11
f 144//14 145//14 146//14
f 144//14 119//14 145//14
f 147//14 143//14 146//14
f 146//14 143//14 144//14
f 144//14 129//14 119//14
f 147//14 148//14 143//14
f 129//14 142//14 119//14
f 129//14 130//14 142//14
f 145//14 121//14 148//14
f 119//14 121//14 145//14
f 148//14 121//14 143//14
f 141//14 132//14 121//14
f 131//14 132//14 141//14
f 121//14 132//14 143//14
f 89//15 140//15 149//15
f 89//15 131//15 140//15
f 131//15 141//15 140//15
f 89//15 85//15 131//15
f 85//15 150//15 131//15
f 128//15 123//15 150//15
f 126//15 123//15 128//15
f 123//15 131//15 150//15
f 149//11 139//11 151//11
f 140//11 139//11 149//11
f 150//16 152//16 127//16
f 128//16 150//16 127//16
f 85//5 152//5 150//5
f 85//5 87//5 152//5
f 139//17 92//17 151//17
f 142//17 130//17 139//17
f 139//17 130//17 92//17
f 125//17 127//17 152//17
f 125//17 124//17 127//17
f 130//17 87//17 92//17
f 152//17 87//17 130//17
f 130//17 125//17 152//17
f 153//3 147//3 154//3
f 148//3 147//3 153//3
f 154//11 146//11 155//11
f 147//11 146//11 154//11
f 156//11 157//11 158//11
f 159//11 157//11 156//11
f 160//5 161//5 162//5
f 163//5 161//5 160//5
f 164//10 163//10 165//10
f 161//10 163//10 164//10
f 166//10 162//10 167//10
f 168//10 160//10 169//10
f 162//10 170//10 160//10
f 171//10 170//10 162//10
f 104//10 111//10 171//10
f 114//10 113//10 170//10
f 166//10 104//10 162//10
f 162//10 104//10 171//10
f 113//10 169//10 160//10
f 113//10 160//10 170//10
f 172//12 170//12 171//12
f 172//12 173//12 170//12
f 110//10 173//10 172//10
f 101//10 173//10 110//10
f 173//3 114//3 170//3
f 173//3 101//3 114//3
f 110//6 172//6 111//6
f 172//6 171//6 111//6
f 159//13 174//13 157//13
f 175//13 174//13 159//13
f 176//14 174//14 175//14
f 176//14 177//14 174//14
f 174//3 178//3 157//3
f 157//3 178//3 158//3
f 174//3 177//3 178//3
f 156//6 175//6 159//6
f 179//6 175//6 156//6
f 176//6 175//6 179//6
f 169//3 107//3 180//3
f 113//3 107//3 169//3
f 181//6 104//6 166//6
f 98//6 104//6 181//6
f 180//11 98//11 181//11
f 107//11 98//11 180//11
f 181//14 182//14 183//14
f 181//14 156//14 182//14
f 184//14 180//14 183//14
f 183//14 180//14 181//14
f 181//14 166//14 156//14
f 184//14 185//14 180//14
f 166//14 179//14 156//14
f 166//14 167//14 179//14
f 182//14 158//14 185//14
f 156//14 158//14 182//14
f 185//14 158//14 180//14
f 178//14 169//14 158//14
f 168//14 169//14 178//14
f 158//14 169//14 180//14
f 91//15 177//15 186//15
f 91//15 168//15 177//15
f 168//15 178//15 177//15
f 91//15 88//15 168//15
f 88//15 187//15 168//15
f 165//15 160//15 187//15
f 163//15 160//15 165//15
f 160//15 168//15 187//15
f 186//11 176//11 188//11
f 177//11 176//11 186//11
f 189//10 185//10 190//10
f 182//10 185//10 189//10
f 190//3 184//3 191//3
f 185//3 184//3 190//3
f 165//16 187//16 192//16
f 165//16 192//16 164//16
f 187//5 90//5 192//5
f 88//5 90//5 187//5
f 188//5 93//5 193//5
f 94//5 93//5 188//5
f 186//5 188//5 193//5
f 151//5 186//5 193//5
f 92//5 91//5 186//5
f 92//5 186//5 151//5
f 149//5 151//5 193//5
f 82//5 89//5 149//5
f 82//5 149//5 79//5
f 194//5 76//5 79//5
f 194//5 79//5 149//5
f 194//5 149//5 193//5
f 84//5 75//5 76//5
f 84//5 76//5 194//5
f 176//17 94//17 188//17
f 179//17 167//17 176//17
f 176//17 167//17 94//17
f 162//17 164//17 192//17
f 162//17 161//17 164//17
f 167//17 90//17 94//17
f 192//17 90//17 167//17
f 167//17 162//17 192//17
f 190//18 191//18 195//18
f 196//18 190//18 195//18
f 196//19 197//19 189//19
f 196//19 189//19 190//19
f 189//20 197//20 198//20
f 189//20 198//20 199//20
f 195//21 199//21 198//21
f 191//21 199//21 195//21
f 191//11 183//11 199//11
f 184//11 183//11 191//11
f 200//5 201//5 198//5
f 197//5 200//5 198//5
f 195//5 198//5 201//5
f 202//5 195//5 201//5
f 203//5 196//5 195//5
f 203//5 195//5 202//5
f 204//5 202//5 201//5
f 205//5 206//5 204//5
f 205//5 204//5 207//5
f 208//5 209//5 207//5
f 208//5 207//5 204//5
f 208//5 204//5 201//5
f 210//5 211//5 209//5
f 210//5 209//5 208//5
f 210//5 200//5 197//5
f 210//5 197//5 196//5
f 210//5 196//5 203//5
f 210//5 203//5 206//5
f 210//5 206//5 205//5
f 210//5 205//5 211//5
f 199//6 182//6 189//6
f 183//6 182//6 199//6
f 208//19 201//19 32//19
f 208//19 32//19 36//19
f 200//3 193//3 93//3
f 200//3 93//3 86//3
f 200//3 86//3 29//3
f 32//3 201//3 200//3
f 32//3 200//3 29//3
f 194//19 193//19 200//19
f 194//19 200//19 210//19
f 210//6 208//6 36//6
f 210//6 36//6 33//6
f 210//6 33//6 83//6
f 84//6 194//6 210//6
f 84//6 210//6 83//6
f 212//22 109//22 105//22
f 212//22 213//22 109//22
f 213//3 99//3 109//3
f 213//3 214//3 99//3
f 214//11 100//11 99//11
f 214//11 215//11 100//11
f 215//6 34//6 100//6
f 215//6 35//6 34//6
f 30//3 106//3 31//3
f 30//3 216//3 106//3
f 216//23 105//23 106//23
f 216//23 212//23 105//23
f 216//5 30//5 29//5
f 212//5 216//5 29//5
f 86//5 213//5 212//5
f 214//5 213//5 86//5
f 83//5 33//5 35//5
f 215//5 83//5 35//5
f 29//5 86//5 212//5
f 215//5 214//5 86//5
f 215//5 86//5 83//5
f 153//18 154//18 204//18
f 206//18 153//18 204//18
f 206//19 203//19 217//19
f 206//19 217//19 153//19
f 217//20 203//20 202//20
f 217//20 202//20 155//20
f 204//21 155//21 202//21
f 154//21 155//21 204//21
f 217//10 148//10 153//10
f 145//10 148//10 217//10
f 155//6 145//6 217//6
f 146//6 145//6 155//6
f 95//18 96//18 209//18
f 211//18 95//18 209//18
f 211//19 205//19 218//19
f 211//19 218//19 95//19
f 218//20 205//20 207//20
f 218//20 207//20 97//20
f 209//21 97//21 207//21
f 96//21 97//21 209//21
f 218//10 74//10 95//10
f 71//10 74//10 218//10
f 97//6 71//6 218//6
f 72//6 71//6 97//6
