# Blender v2.81 (sub 16) OBJ File: ''
# www.blender.org
mtllib DF13A-6P-1.25H.mtl
o DF13A-6P-1.25H
v -0.000336 -0.001826 -0.001110
v 0.000336 -0.001826 -0.003807
v -0.000336 -0.001826 -0.003807
v 0.000336 -0.001826 -0.001110
v 0.000336 -0.002499 -0.001110
v 0.000336 -0.002499 -0.003807
v -0.000336 -0.002499 -0.003807
v -0.000336 -0.002499 -0.001110
v 0.000336 -0.001490 -0.000774
v 0.000336 -0.001565 -0.000782
v -0.000336 -0.001490 -0.000774
v -0.000336 -0.001565 -0.000782
v 0.000336 -0.001636 -0.000807
v -0.000336 -0.001636 -0.000807
v 0.000336 -0.001700 -0.000847
v -0.000336 -0.001700 -0.000847
v 0.000336 -0.001753 -0.000900
v -0.000336 -0.001753 -0.000900
v 0.000336 -0.001793 -0.000964
v -0.000336 -0.001793 -0.000964
v 0.000336 -0.001818 -0.001035
v -0.000336 -0.001818 -0.001035
v 0.000336 -0.002474 -0.000885
v 0.000336 -0.002399 -0.000672
v 0.000336 -0.002279 -0.000481
v 0.000336 -0.002119 -0.000321
v 0.000336 -0.001928 -0.000201
v 0.000336 -0.001715 -0.000126
v 0.000336 -0.001490 -0.000101
v -0.000336 -0.001490 -0.000101
v -0.000336 -0.001715 -0.000126
v -0.000336 -0.001928 -0.000201
v -0.000336 -0.002119 -0.000321
v -0.000336 -0.002279 -0.000481
v -0.000336 -0.002399 -0.000672
v -0.000336 -0.002474 -0.000885
v 0.000336 0.001490 -0.000774
v -0.000336 0.001490 -0.000774
v 0.000336 0.001490 -0.000101
v -0.000336 0.001490 -0.000101
v -0.000336 0.002499 0.000236
v 0.000336 0.002499 0.000236
v 0.000336 0.002474 0.000011
v -0.000336 0.002474 0.000011
v -0.000336 0.002399 -0.000202
v 0.000336 0.002399 -0.000202
v -0.000336 0.002279 -0.000394
v 0.000336 0.002279 -0.000394
v -0.000336 0.002119 -0.000553
v 0.000336 0.002119 -0.000553
v -0.000336 0.001928 -0.000674
v 0.000336 0.001928 -0.000674
v -0.000336 0.001715 -0.000748
v 0.000336 0.001715 -0.000748
v 0.000336 0.001565 -0.000092
v 0.000336 0.001636 -0.000067
v 0.000336 0.001700 -0.000027
v 0.000336 0.001753 0.000026
v 0.000336 0.001793 0.000090
v 0.000336 0.001818 0.000161
v 0.000336 0.001826 0.000236
v -0.000336 0.001826 0.000236
v -0.000336 0.001818 0.000161
v -0.000336 0.001793 0.000090
v -0.000336 0.001753 0.000026
v -0.000336 0.001700 -0.000027
v -0.000336 0.001636 -0.000067
v -0.000336 0.001565 -0.000092
v -0.000336 0.002499 0.007253
v 0.000336 0.002499 0.007253
v 0.000336 0.001826 0.007253
v -0.000336 0.001826 0.007253
v -0.000048 -0.002211 -0.003994
v 0.000048 -0.002115 -0.003994
v 0.000048 -0.002211 -0.003994
v -0.000048 -0.002115 -0.003994
v 0.000149 0.002312 0.007542
v -0.000149 0.002312 0.007542
v -0.000149 0.002014 0.007542
v 0.000149 0.002014 0.007542
vn 0.0000 1.0000 0.0000
vn 1.0000 0.0000 0.0000
vn 0.0000 -1.0000 -0.0000
vn -1.0000 0.0000 0.0000
vn 0.0000 0.1120 -0.9937
vn 0.0000 0.3303 -0.9439
vn 0.0000 0.5320 -0.8467
vn 0.0000 0.7071 -0.7071
vn 0.0000 0.8467 -0.5320
vn 0.0000 0.9439 -0.3303
vn 0.0000 0.9937 -0.1120
vn 0.0000 -0.1120 0.9937
vn 0.0000 -0.3303 0.9439
vn 0.0000 -0.5320 0.8467
vn 0.0000 -0.7071 0.7071
vn 0.0000 -0.8467 0.5320
vn 0.0000 -0.9439 0.3303
vn 0.0000 -0.9937 0.1120
vn 0.0000 0.0000 -1.0000
vn 0.0000 -0.0000 1.0000
vn 0.0000 -0.1119 0.9937
vn 0.5446 0.0000 -0.8387
vn 0.0000 0.5446 -0.8387
vn 0.0000 -0.5446 -0.8387
vn -0.5446 0.0000 -0.8387
vn 0.0000 0.8387 0.5446
vn -0.8387 0.0000 0.5446
vn 0.8387 0.0000 0.5446
vn 0.0000 -0.8387 0.5446
usemtl material_1.654
s 1
f 1//1 2//1 3//1
f 4//1 2//1 1//1
usemtl material_0.666
f 2//2 5//2 6//2
f 4//2 5//2 2//2
f 7//3 5//3 8//3
f 6//3 5//3 7//3
f 7//4 1//4 3//4
f 8//4 1//4 7//4
f 9//5 10//5 11//5
f 11//5 10//5 12//5
f 12//6 13//6 14//6
f 10//6 13//6 12//6
f 14//7 15//7 16//7
f 13//7 15//7 14//7
f 16//8 17//8 18//8
f 15//8 17//8 16//8
f 18//9 19//9 20//9
f 17//9 19//9 18//9
f 20//10 21//10 22//10
f 19//10 21//10 20//10
f 22//11 4//11 1//11
f 21//11 4//11 22//11
f 5//2 21//2 23//2
f 4//2 21//2 5//2
f 23//2 19//2 24//2
f 21//2 19//2 23//2
f 24//2 17//2 25//2
f 19//2 17//2 24//2
f 15//2 26//2 17//2
f 17//2 26//2 25//2
f 13//2 27//2 15//2
f 15//2 27//2 26//2
f 10//2 28//2 13//2
f 13//2 28//2 27//2
f 9//2 29//2 10//2
f 10//2 29//2 28//2
f 28//12 29//12 30//12
f 28//12 30//12 31//12
f 27//13 31//13 32//13
f 27//13 28//13 31//13
f 26//14 32//14 33//14
f 26//14 27//14 32//14
f 25//15 33//15 34//15
f 25//15 26//15 33//15
f 24//16 34//16 35//16
f 24//16 25//16 34//16
f 23//17 35//17 36//17
f 23//17 24//17 35//17
f 5//18 36//18 8//18
f 5//18 23//18 36//18
f 33//4 18//4 34//4
f 16//4 18//4 33//4
f 32//4 14//4 33//4
f 33//4 14//4 16//4
f 34//4 20//4 35//4
f 18//4 20//4 34//4
f 35//4 22//4 36//4
f 20//4 22//4 35//4
f 31//4 12//4 32//4
f 32//4 12//4 14//4
f 36//4 1//4 8//4
f 22//4 1//4 36//4
f 30//4 11//4 31//4
f 31//4 11//4 12//4
f 11//19 37//19 9//19
f 38//19 37//19 11//19
f 37//2 39//2 9//2
f 9//2 39//2 29//2
f 39//20 40//20 29//20
f 29//20 40//20 30//20
f 40//4 38//4 30//4
f 30//4 38//4 11//4
f 41//11 42//11 43//11
f 44//11 41//11 43//11
f 45//10 43//10 46//10
f 45//10 44//10 43//10
f 47//9 46//9 48//9
f 47//9 45//9 46//9
f 49//8 48//8 50//8
f 49//8 47//8 48//8
f 51//7 50//7 52//7
f 51//7 49//7 50//7
f 53//6 52//6 54//6
f 53//6 51//6 52//6
f 38//5 54//5 37//5
f 38//5 53//5 54//5
f 54//2 55//2 37//2
f 37//2 55//2 39//2
f 52//2 56//2 54//2
f 54//2 56//2 55//2
f 50//2 57//2 52//2
f 52//2 57//2 56//2
f 57//2 48//2 58//2
f 50//2 48//2 57//2
f 58//2 46//2 59//2
f 48//2 46//2 58//2
f 59//2 43//2 60//2
f 46//2 43//2 59//2
f 60//2 42//2 61//2
f 43//2 42//2 60//2
f 61//18 62//18 60//18
f 62//18 63//18 60//18
f 60//17 64//17 59//17
f 63//17 64//17 60//17
f 59//16 65//16 58//16
f 64//16 65//16 59//16
f 58//15 66//15 57//15
f 65//15 66//15 58//15
f 57//14 67//14 56//14
f 66//14 67//14 57//14
f 56//13 68//13 55//13
f 67//13 68//13 56//13
f 55//21 40//21 39//21
f 68//21 40//21 55//21
f 62//4 41//4 63//4
f 41//4 44//4 63//4
f 68//4 53//4 40//4
f 40//4 53//4 38//4
f 63//4 45//4 64//4
f 44//4 45//4 63//4
f 67//4 51//4 68//4
f 68//4 51//4 53//4
f 64//4 47//4 65//4
f 45//4 47//4 64//4
f 65//4 49//4 66//4
f 66//4 49//4 67//4
f 67//4 49//4 51//4
f 47//4 49//4 65//4
f 69//1 42//1 41//1
f 70//1 42//1 69//1
f 70//2 71//2 42//2
f 42//2 71//2 61//2
f 62//3 71//3 72//3
f 61//3 71//3 62//3
f 72//4 69//4 62//4
f 62//4 69//4 41//4
f 73//19 74//19 75//19
f 76//19 74//19 73//19
f 77//20 78//20 79//20
f 77//20 79//20 80//20
f 75//22 74//22 6//22
f 6//22 74//22 2//22
f 74//23 76//23 2//23
f 2//23 76//23 3//23
f 7//24 75//24 6//24
f 73//24 75//24 7//24
f 76//25 73//25 3//25
f 3//25 73//25 7//25
f 70//26 69//26 78//26
f 70//26 78//26 77//26
f 69//27 72//27 79//27
f 69//27 79//27 78//27
f 71//28 70//28 77//28
f 71//28 77//28 80//28
f 72//29 71//29 80//29
f 72//29 80//29 79//29
