# Blender v2.81 (sub 16) OBJ File: ''
# www.blender.org
mtllib DF13-3P-1.25DSA(50).mtl
o DF13-3P-1.25DSA(50)
v -0.003291 0.005219 -0.001269
v -0.003291 0.005219 -0.002033
v -0.003291 -0.008102 -0.002033
v -0.003291 -0.008102 -0.001269
v -0.002527 0.005219 -0.002033
v -0.002527 -0.008102 -0.002033
v -0.002527 0.005219 -0.001269
v -0.002527 -0.008102 -0.001269
v -0.002745 -0.008320 -0.001815
v -0.002745 -0.008320 -0.001487
v -0.003073 -0.008320 -0.001815
v -0.003073 -0.008320 -0.001487
v -0.002745 0.005437 -0.001487
v -0.002745 0.005437 -0.001815
v -0.003073 0.005437 -0.001815
v -0.003073 0.005437 -0.001487
v -0.000562 0.005219 -0.001269
v -0.000562 0.005219 -0.002033
v -0.000562 -0.008102 -0.002033
v -0.000562 -0.008102 -0.001269
v 0.000203 0.005219 -0.002033
v 0.000203 -0.008102 -0.002033
v 0.000203 0.005219 -0.001269
v 0.000203 -0.008102 -0.001269
v -0.000016 -0.008320 -0.001815
v -0.000016 -0.008320 -0.001487
v -0.000343 -0.008320 -0.001815
v -0.000343 -0.008320 -0.001487
v -0.000016 0.005437 -0.001487
v -0.000016 0.005437 -0.001815
v -0.000343 0.005437 -0.001815
v -0.000343 0.005437 -0.001487
v 0.002168 0.005219 -0.001269
v 0.002168 0.005219 -0.002033
v 0.002168 -0.008102 -0.002033
v 0.002168 -0.008102 -0.001269
v 0.002932 0.005219 -0.002033
v 0.002932 -0.008102 -0.002033
v 0.002932 0.005219 -0.001269
v 0.002932 -0.008102 -0.001269
v 0.002714 -0.008320 -0.001815
v 0.002714 -0.008320 -0.001487
v 0.002386 -0.008320 -0.001815
v 0.002386 -0.008320 -0.001487
v 0.002714 0.005437 -0.001487
v 0.002714 0.005437 -0.001815
v 0.002386 0.005437 -0.001815
v 0.002386 0.005437 -0.001487
v -0.003619 -0.003298 0.002716
v -0.003619 -0.003298 0.003372
v -0.006081 -0.003298 0.003372
v -0.006081 -0.003298 0.002280
v -0.000889 -0.003298 0.002716
v -0.000889 -0.003298 0.003372
v -0.002199 -0.003298 0.003372
v -0.002199 -0.003298 0.002716
v 0.001841 -0.003298 0.002716
v 0.001841 -0.003298 0.003372
v 0.000530 -0.003298 0.003372
v 0.000530 -0.003298 0.002716
v 0.004619 -0.003298 0.003372
v 0.003260 -0.003298 0.003372
v 0.003260 -0.003298 0.002716
v 0.004619 -0.003298 0.002280
v 0.003260 -0.001878 0.003372
v 0.004619 -0.001114 0.003372
v 0.001841 -0.001878 0.003372
v 0.000530 -0.001878 0.003372
v 0.003828 0.001725 0.003372
v 0.005711 -0.001114 0.003372
v -0.000889 -0.001878 0.003372
v -0.002199 -0.001878 0.003372
v 0.005711 0.006092 0.003372
v 0.003828 0.006092 0.003372
v -0.003619 -0.001878 0.003372
v -0.004198 0.001725 0.003372
v -0.004198 0.006092 0.003372
v -0.006081 0.006092 0.003372
v 0.005711 -0.003298 -0.004053
v 0.005711 -0.003298 0.001002
v -0.006081 -0.003298 0.001002
v -0.006081 -0.003298 -0.004053
v 0.005711 -0.002531 0.001002
v 0.005711 -0.001114 0.002280
v 0.005711 -0.002531 0.002280
v 0.005711 0.003116 -0.001651
v 0.005711 0.006092 -0.004053
v 0.005711 0.003116 0.000533
v 0.005711 0.006092 -0.001651
v 0.005711 0.006092 0.000533
v -0.006081 0.006092 -0.001651
v -0.004853 0.006092 -0.003398
v -0.006081 0.006092 -0.004053
v -0.004853 0.006092 -0.001651
v 0.004483 0.006092 -0.003398
v 0.004483 0.006092 -0.001651
v 0.004483 0.006092 0.001734
v 0.003828 0.006092 0.001734
v 0.004483 0.006092 0.000533
v -0.004853 0.006092 0.001734
v -0.006081 0.006092 0.000533
v -0.004198 0.006092 0.001734
v -0.004853 0.006092 0.000533
v -0.003897 0.000633 -0.004053
v -0.002805 0.000633 -0.004053
v -0.003897 0.003909 -0.004053
v -0.002805 0.003909 -0.004053
v 0.002436 0.000633 -0.004053
v 0.003527 0.000633 -0.004053
v 0.002436 0.003909 -0.004053
v 0.003527 0.003909 -0.004053
v -0.006081 -0.002531 0.002280
v -0.006081 -0.002531 0.001002
v -0.006081 0.003116 0.000533
v -0.006081 0.003116 -0.001651
v -0.004853 0.003116 -0.001651
v -0.004853 0.003116 0.000533
v -0.002014 0.001725 0.002607
v -0.000376 0.001725 0.002607
v -0.002014 -0.002206 0.002607
v -0.000376 -0.002206 0.002607
v -0.000376 0.001725 0.001734
v -0.000376 -0.002206 0.001734
v -0.002014 0.001725 0.001734
v -0.002014 -0.002206 0.001734
v 0.004483 0.003116 -0.001651
v 0.004483 0.003116 0.000533
v 0.001644 0.001725 0.002607
v 0.001644 -0.002206 0.001734
v 0.001644 -0.002206 0.002607
v 0.001644 0.001725 0.001734
v 0.000006 0.001725 0.002607
v 0.000006 -0.002206 0.002607
v 0.000006 0.001725 0.001734
v 0.000006 -0.002206 0.001734
v 0.004619 -0.002531 0.002280
v 0.004619 -0.002531 0.002280
v 0.004619 -0.001114 0.002280
v -0.003619 -0.001878 0.002716
v -0.002199 -0.001878 0.002716
v -0.000889 -0.001878 0.002716
v 0.000530 -0.001878 0.002716
v 0.001841 -0.001878 0.002716
v 0.003260 -0.001878 0.002716
v 0.003828 0.001725 0.001734
v 0.004483 -0.002206 0.001734
v -0.004198 0.001725 0.001734
v 0.004483 -0.002206 -0.003398
v -0.004853 -0.002206 0.001734
v -0.004853 -0.002206 -0.003398
v 0.003527 0.000633 -0.003398
v 0.002436 0.000633 -0.003398
v 0.003527 0.003909 -0.003398
v 0.002436 0.003909 -0.003398
v -0.002805 0.000633 -0.003398
v -0.003897 0.000633 -0.003398
v -0.002805 0.003909 -0.003398
v -0.003897 0.003909 -0.003398
vn -1.0000 0.0000 0.0000
vn 0.0000 0.0000 -1.0000
vn 1.0000 0.0000 0.0000
vn 0.0000 -0.0000 1.0000
vn 0.0000 -1.0000 0.0000
vn 0.0000 1.0000 0.0000
vn -0.7071 -0.7071 0.0000
vn 0.0000 -0.7071 0.7071
vn 0.0000 -0.7071 -0.7071
vn 0.7071 -0.7071 0.0000
vn -0.7071 0.7071 0.0000
vn 0.0000 0.7071 -0.7071
vn 0.7071 0.7071 0.0000
vn 0.0000 0.7071 0.7071
usemtl material_1.517
s 1
f 1//1 2//1 3//1
f 1//1 3//1 4//1
f 2//2 5//2 6//2
f 2//2 6//2 3//2
f 5//3 7//3 8//3
f 5//3 8//3 6//3
f 7//4 1//4 4//4
f 7//4 4//4 8//4
f 9//5 10//5 11//5
f 11//5 10//5 12//5
f 13//6 14//6 15//6
f 13//6 15//6 16//6
f 11//7 12//7 4//7
f 11//7 4//7 3//7
f 12//8 10//8 8//8
f 12//8 8//8 4//8
f 9//9 11//9 3//9
f 9//9 3//9 6//9
f 10//10 9//10 6//10
f 10//10 6//10 8//10
f 2//11 1//11 15//11
f 15//11 1//11 16//11
f 14//12 2//12 15//12
f 5//12 2//12 14//12
f 7//13 5//13 13//13
f 13//13 5//13 14//13
f 17//1 18//1 19//1
f 17//1 19//1 20//1
f 18//2 21//2 22//2
f 18//2 22//2 19//2
f 21//3 23//3 24//3
f 21//3 24//3 22//3
f 23//4 17//4 20//4
f 23//4 20//4 24//4
f 25//5 26//5 27//5
f 27//5 26//5 28//5
f 29//6 30//6 31//6
f 29//6 31//6 32//6
f 27//7 28//7 20//7
f 27//7 20//7 19//7
f 28//8 26//8 24//8
f 28//8 24//8 20//8
f 25//9 27//9 19//9
f 25//9 19//9 22//9
f 26//10 25//10 22//10
f 26//10 22//10 24//10
f 18//11 17//11 31//11
f 31//11 17//11 32//11
f 30//12 18//12 31//12
f 21//12 18//12 30//12
f 23//13 21//13 29//13
f 29//13 21//13 30//13
usemtl material_0.527
f 1//14 7//14 16//14
f 16//14 7//14 13//14
f 17//14 23//14 32//14
f 32//14 23//14 29//14
f 33//1 34//1 35//1
f 33//1 35//1 36//1
f 34//2 37//2 38//2
f 34//2 38//2 35//2
f 37//3 39//3 40//3
f 37//3 40//3 38//3
f 39//4 33//4 36//4
f 39//4 36//4 40//4
f 41//5 42//5 43//5
f 43//5 42//5 44//5
f 45//6 46//6 47//6
f 45//6 47//6 48//6
f 43//7 44//7 36//7
f 43//7 36//7 35//7
f 44//8 42//8 40//8
f 44//8 40//8 36//8
f 41//9 43//9 35//9
f 41//9 35//9 38//9
f 42//10 41//10 38//10
f 42//10 38//10 40//10
f 34//11 33//11 47//11
f 47//11 33//11 48//11
f 33//14 39//14 48//14
f 48//14 39//14 45//14
f 46//12 34//12 47//12
f 37//12 34//12 46//12
f 39//13 37//13 45//13
f 45//13 37//13 46//13
f 49//5 50//5 51//5
f 49//5 51//5 52//5
f 53//5 54//5 55//5
f 53//5 55//5 56//5
f 57//5 58//5 59//5
f 57//5 59//5 60//5
f 61//5 62//5 63//5
f 64//5 63//5 57//5
f 64//5 61//5 63//5
f 52//5 64//5 57//5
f 52//5 57//5 60//5
f 52//5 60//5 53//5
f 52//5 53//5 56//5
f 52//5 56//5 49//5
f 61//4 65//4 62//4
f 66//4 65//4 61//4
f 67//4 68//4 58//4
f 58//4 68//4 59//4
f 65//4 69//4 67//4
f 70//4 69//4 66//4
f 66//4 69//4 65//4
f 67//4 69//4 68//4
f 69//4 71//4 68//4
f 54//4 72//4 55//4
f 71//4 72//4 54//4
f 70//4 73//4 69//4
f 73//4 74//4 69//4
f 75//4 51//4 50//4
f 72//4 76//4 75//4
f 71//4 76//4 72//4
f 69//4 76//4 71//4
f 75//4 76//4 51//4
f 77//4 78//4 76//4
f 76//4 78//4 51//4
f 79//5 80//5 81//5
f 79//5 81//5 82//5
f 79//3 83//3 80//3
f 83//3 84//3 85//3
f 79//3 86//3 83//3
f 83//3 86//3 84//3
f 79//3 87//3 86//3
f 84//3 88//3 70//3
f 86//3 88//3 84//3
f 87//3 89//3 86//3
f 90//3 73//3 88//3
f 88//3 73//3 70//3
f 91//6 92//6 93//6
f 94//6 92//6 91//6
f 89//6 95//6 96//6
f 89//6 87//6 95//6
f 87//6 93//6 95//6
f 95//6 93//6 92//6
f 74//6 97//6 98//6
f 73//6 97//6 74//6
f 97//6 90//6 99//6
f 73//6 90//6 97//6
f 78//6 100//6 101//6
f 77//6 100//6 78//6
f 77//6 102//6 100//6
f 100//6 103//6 101//6
f 104//2 105//2 82//2
f 104//2 93//2 106//2
f 82//2 93//2 104//2
f 93//2 107//2 106//2
f 82//2 108//2 79//2
f 105//2 108//2 82//2
f 108//2 109//2 79//2
f 107//2 110//2 105//2
f 105//2 110//2 108//2
f 111//2 87//2 109//2
f 110//2 87//2 111//2
f 109//2 87//2 79//2
f 93//2 87//2 107//2
f 107//2 87//2 110//2
f 51//1 112//1 52//1
f 113//1 82//1 81//1
f 112//1 114//1 113//1
f 51//1 78//1 112//1
f 112//1 78//1 114//1
f 113//1 115//1 82//1
f 114//1 115//1 113//1
f 78//1 101//1 114//1
f 91//1 93//1 115//1
f 115//1 93//1 82//1
f 114//6 116//6 115//6
f 117//6 116//6 114//6
f 101//2 117//2 114//2
f 103//2 117//2 101//2
f 115//4 94//4 91//4
f 116//4 94//4 115//4
f 118//2 119//2 120//2
f 120//2 119//2 121//2
f 119//1 122//1 121//1
f 121//1 122//1 123//1
f 124//3 118//3 125//3
f 125//3 118//3 120//3
f 86//4 89//4 96//4
f 86//4 96//4 126//4
f 88//6 86//6 126//6
f 88//6 126//6 127//6
f 90//2 88//2 127//2
f 90//2 127//2 99//2
f 128//1 129//1 130//1
f 128//1 131//1 129//1
f 132//2 130//2 133//2
f 132//2 128//2 130//2
f 134//3 133//3 135//3
f 134//3 132//3 133//3
f 136//3 61//3 64//3
f 137//3 138//3 136//3
f 138//3 66//3 136//3
f 136//3 66//3 61//3
f 138//5 70//5 66//5
f 84//5 70//5 138//5
f 84//4 137//4 85//4
f 84//4 138//4 137//4
f 75//3 50//3 49//3
f 75//3 49//3 139//3
f 140//5 72//5 75//5
f 140//5 75//5 139//5
f 56//1 72//1 140//1
f 55//1 72//1 56//1
f 139//4 49//4 56//4
f 140//4 139//4 56//4
f 71//3 54//3 53//3
f 71//3 53//3 141//3
f 142//5 68//5 71//5
f 142//5 71//5 141//5
f 60//1 68//1 142//1
f 59//1 68//1 60//1
f 141//4 53//4 60//4
f 142//4 141//4 60//4
f 67//3 58//3 57//3
f 67//3 57//3 143//3
f 144//5 65//5 67//5
f 144//5 67//5 143//5
f 63//1 65//1 144//1
f 62//1 65//1 63//1
f 143//4 57//4 63//4
f 144//4 143//4 63//4
f 52//2 136//2 64//2
f 112//2 136//2 52//2
f 113//5 137//5 112//5
f 83//5 137//5 113//5
f 137//5 136//5 112//5
f 83//5 85//5 137//5
f 80//4 113//4 81//4
f 83//4 113//4 80//4
usemtl material_2.255
f 131//2 145//2 129//2
f 129//2 145//2 146//2
f 98//2 97//2 145//2
f 97//2 146//2 145//2
f 123//2 134//2 135//2
f 122//2 134//2 123//2
f 76//6 118//6 147//6
f 118//6 124//6 147//6
f 76//6 119//6 118//6
f 119//6 134//6 122//6
f 132//6 134//6 119//6
f 132//6 69//6 128//6
f 128//6 145//6 131//6
f 69//6 145//6 128//6
f 76//6 69//6 119//6
f 119//6 69//6 132//6
f 146//1 97//1 127//1
f 146//1 126//1 148//1
f 127//1 126//1 146//1
f 97//1 99//1 127//1
f 96//1 95//1 126//1
f 126//1 95//1 148//1
f 149//2 147//2 125//2
f 147//2 124//2 125//2
f 100//2 102//2 147//2
f 149//2 100//2 147//2
f 150//3 116//3 149//3
f 150//3 92//3 116//3
f 116//3 117//3 149//3
f 92//3 94//3 116//3
f 103//3 100//3 117//3
f 117//3 100//3 149//3
f 151//4 152//4 148//4
f 151//4 95//4 153//4
f 153//4 95//4 154//4
f 148//4 95//4 151//4
f 148//4 155//4 150//4
f 152//4 155//4 148//4
f 155//4 156//4 150//4
f 154//4 157//4 152//4
f 152//4 157//4 155//4
f 158//4 92//4 156//4
f 157//4 92//4 158//4
f 95//4 92//4 154//4
f 154//4 92//4 157//4
f 156//4 92//4 150//4
f 120//6 123//6 125//6
f 121//6 123//6 120//6
f 125//6 150//6 149//6
f 123//6 150//6 125//6
f 133//6 129//6 135//6
f 130//6 129//6 133//6
f 135//6 148//6 123//6
f 146//6 148//6 129//6
f 123//6 148//6 150//6
f 129//6 148//6 135//6
f 102//3 76//3 147//3
f 77//3 76//3 102//3
f 145//1 74//1 98//1
f 69//1 74//1 145//1
f 151//6 109//6 152//6
f 152//6 109//6 108//6
f 110//3 152//3 108//3
f 154//3 152//3 110//3
f 111//5 154//5 110//5
f 153//5 154//5 111//5
f 109//1 153//1 111//1
f 151//1 153//1 109//1
f 107//5 158//5 106//5
f 157//5 158//5 107//5
f 106//3 156//3 104//3
f 158//3 156//3 106//3
f 155//6 105//6 156//6
f 156//6 105//6 104//6
f 105//1 157//1 107//1
f 155//1 157//1 105//1
