# Blender v2.81 (sub 16) OBJ File: ''
# www.blender.org
mtllib DF13-4P-1.25DSA(50).mtl
o DF13-4P-1.25DSA(50)
v -0.003427 0.004000 -0.000921
v -0.003427 0.004000 -0.001482
v -0.003427 -0.005761 -0.001482
v -0.003427 -0.005761 -0.000921
v -0.002867 0.004000 -0.001482
v -0.002867 -0.005761 -0.001482
v -0.002867 0.004000 -0.000921
v -0.002867 -0.005761 -0.000921
v -0.003027 -0.005921 -0.001322
v -0.003027 -0.005921 -0.001082
v -0.003267 -0.005921 -0.001322
v -0.003267 -0.005921 -0.001082
v -0.003027 0.004160 -0.001082
v -0.003027 0.004160 -0.001322
v -0.003267 0.004160 -0.001322
v -0.003267 0.004160 -0.001082
v -0.001427 0.004000 -0.000921
v -0.001427 0.004000 -0.001482
v -0.001427 -0.005761 -0.001482
v -0.001427 -0.005761 -0.000921
v -0.000867 0.004000 -0.001482
v -0.000867 -0.005761 -0.001482
v -0.000867 0.004000 -0.000921
v -0.000867 -0.005761 -0.000921
v -0.001027 -0.005921 -0.001322
v -0.001027 -0.005921 -0.001082
v -0.001267 -0.005921 -0.001322
v -0.001267 -0.005921 -0.001082
v -0.001027 0.004160 -0.001082
v -0.001027 0.004160 -0.001322
v -0.001267 0.004160 -0.001322
v -0.001267 0.004160 -0.001082
v 0.000573 0.004000 -0.000921
v 0.000573 0.004000 -0.001482
v 0.000573 -0.005761 -0.001482
v 0.000573 -0.005761 -0.000921
v 0.001133 0.004000 -0.001482
v 0.001133 -0.005761 -0.001482
v 0.001133 0.004000 -0.000921
v 0.001133 -0.005761 -0.000921
v 0.000973 -0.005921 -0.001322
v 0.000973 -0.005921 -0.001082
v 0.000733 -0.005921 -0.001322
v 0.000733 -0.005921 -0.001082
v 0.000973 0.004160 -0.001082
v 0.000973 0.004160 -0.001322
v 0.000733 0.004160 -0.001322
v 0.000733 0.004160 -0.001082
v 0.002573 0.004000 -0.000921
v 0.002573 0.004000 -0.001482
v 0.002573 -0.005761 -0.001482
v 0.002573 -0.005761 -0.000921
v 0.003133 0.004000 -0.001482
v 0.003133 -0.005761 -0.001482
v 0.003133 0.004000 -0.000921
v 0.003133 -0.005761 -0.000921
v 0.002973 -0.005921 -0.001322
v 0.002973 -0.005921 -0.001082
v 0.002733 -0.005921 -0.001322
v 0.002733 -0.005921 -0.001082
v 0.002973 0.004160 -0.001082
v 0.002973 0.004160 -0.001322
v 0.002733 0.004160 -0.001322
v 0.002733 0.004160 -0.001082
v -0.003667 -0.002240 0.001999
v -0.003667 -0.002240 0.002479
v -0.005472 -0.002240 0.002479
v -0.005472 -0.002240 0.001679
v -0.001667 -0.002240 0.001999
v -0.001667 -0.002240 0.002479
v -0.002627 -0.002240 0.002479
v -0.002627 -0.002240 0.001999
v 0.000333 -0.002240 0.001999
v 0.000333 -0.002240 0.002479
v -0.000627 -0.002240 0.002479
v -0.000627 -0.002240 0.001999
v 0.002333 -0.002240 0.001999
v 0.002333 -0.002240 0.002479
v 0.001373 -0.002240 0.002479
v 0.001373 -0.002240 0.001999
v 0.004369 -0.002240 0.002479
v 0.003373 -0.002240 0.002479
v 0.003373 -0.002240 0.001999
v 0.004369 -0.002240 0.001679
v 0.003373 -0.001200 0.002479
v 0.004369 -0.000640 0.002479
v 0.001373 -0.001200 0.002479
v 0.002333 -0.001200 0.002479
v 0.003789 0.001440 0.002479
v 0.005169 -0.000640 0.002479
v 0.000333 -0.001200 0.002479
v -0.000627 -0.001200 0.002479
v 0.005169 0.004640 0.002479
v 0.003789 0.004640 0.002479
v -0.002627 -0.001200 0.002479
v -0.001667 -0.001200 0.002479
v -0.003667 -0.001200 0.002479
v -0.004092 0.001440 0.002479
v -0.004092 0.004640 0.002479
v -0.005472 0.004640 0.002479
v 0.005169 -0.002240 -0.002962
v 0.005169 -0.002240 0.000742
v -0.005472 -0.002240 0.000742
v -0.005472 -0.002240 -0.002962
v 0.005169 -0.001678 0.000742
v 0.005169 -0.000640 0.001679
v 0.005169 -0.001678 0.001679
v 0.005169 0.002459 -0.001202
v 0.005169 0.004640 -0.002962
v 0.005169 0.002459 0.000399
v 0.005169 0.004640 -0.001202
v 0.005169 0.004640 0.000399
v -0.005472 0.004640 -0.001202
v -0.004572 0.004640 -0.002482
v -0.005472 0.004640 -0.002962
v -0.004572 0.004640 -0.001202
v 0.004269 0.004640 -0.002482
v 0.004269 0.004640 -0.001202
v 0.004269 0.004640 0.001279
v 0.003789 0.004640 0.001279
v 0.004269 0.004640 0.000399
v -0.004572 0.004640 0.001279
v -0.005472 0.004640 0.000399
v -0.004092 0.004640 0.001279
v -0.004572 0.004640 0.000399
v -0.003871 0.000640 -0.002962
v -0.003071 0.000640 -0.002962
v -0.003871 0.003040 -0.002962
v -0.003071 0.003040 -0.002962
v 0.002769 0.000640 -0.002962
v 0.003569 0.000640 -0.002962
v 0.002769 0.003040 -0.002962
v 0.003569 0.003040 -0.002962
v -0.005472 -0.001678 0.001679
v -0.005472 -0.001678 0.000742
v -0.005472 0.002459 0.000399
v -0.005472 0.002459 -0.001202
v -0.004572 0.002459 -0.001202
v -0.004572 0.002459 0.000399
v -0.002491 0.001440 0.001919
v -0.001291 0.001440 0.001919
v -0.002491 -0.001440 0.001919
v -0.001291 -0.001440 0.001919
v -0.001291 0.001440 0.001279
v -0.001291 -0.001440 0.001279
v -0.002491 0.001440 0.001279
v -0.002491 -0.001440 0.001279
v 0.004269 0.002459 -0.001202
v 0.004269 0.002459 0.000399
v 0.002189 0.001440 0.001919
v 0.002189 -0.001440 0.001279
v 0.002189 -0.001440 0.001919
v 0.002189 0.001440 0.001279
v 0.000989 0.001440 0.001919
v 0.000989 -0.001440 0.001919
v 0.000989 0.001440 0.001279
v 0.000989 -0.001440 0.001279
v 0.004369 -0.001678 0.001679
v 0.004369 -0.001678 0.001679
v 0.004369 -0.000640 0.001679
v -0.003667 -0.001200 0.001999
v -0.002627 -0.001200 0.001999
v -0.001667 -0.001200 0.001999
v -0.000627 -0.001200 0.001999
v 0.002333 -0.001200 0.001999
v 0.003373 -0.001200 0.001999
v 0.000333 -0.001200 0.001999
v 0.001373 -0.001200 0.001999
v 0.003789 0.001440 0.001279
v 0.004269 -0.001440 0.001279
v -0.004092 0.001440 0.001279
v 0.004269 -0.001440 -0.002482
v -0.004572 -0.001440 0.001279
v -0.004572 -0.001440 -0.002482
v 0.003569 0.000640 -0.002482
v 0.002769 0.000640 -0.002482
v 0.003569 0.003040 -0.002482
v 0.002769 0.003040 -0.002482
v -0.003071 0.000640 -0.002482
v -0.003871 0.000640 -0.002482
v -0.003071 0.003040 -0.002482
v -0.003871 0.003040 -0.002482
vn -1.0000 0.0000 0.0000
vn 0.0000 0.0000 -1.0000
vn 1.0000 -0.0000 0.0000
vn 0.0000 -0.0000 1.0000
vn 0.0000 -1.0000 0.0000
vn 0.0000 1.0000 0.0000
vn -0.7071 -0.7071 0.0000
vn 0.0000 -0.7071 0.7071
vn 0.0000 -0.7071 -0.7071
vn 0.7071 -0.7071 0.0000
vn -0.7071 0.7071 0.0000
vn 0.0000 0.7071 -0.7071
vn 0.7071 0.7071 0.0000
vn 0.0000 0.7071 0.7071
usemtl material_1.193
s 1
f 1//1 2//1 3//1
f 1//1 3//1 4//1
f 2//2 5//2 6//2
f 2//2 6//2 3//2
f 5//3 7//3 8//3
f 5//3 8//3 6//3
f 7//4 1//4 4//4
f 7//4 4//4 8//4
f 9//5 10//5 11//5
f 11//5 10//5 12//5
f 13//6 14//6 15//6
f 13//6 15//6 16//6
f 11//7 12//7 4//7
f 11//7 4//7 3//7
f 12//8 10//8 8//8
f 12//8 8//8 4//8
f 9//9 11//9 3//9
f 9//9 3//9 6//9
f 10//10 9//10 6//10
f 10//10 6//10 8//10
f 2//11 1//11 15//11
f 15//11 1//11 16//11
f 14//12 2//12 15//12
f 5//12 2//12 14//12
f 7//13 5//13 13//13
f 13//13 5//13 14//13
f 17//1 18//1 19//1
f 17//1 19//1 20//1
f 18//2 21//2 22//2
f 18//2 22//2 19//2
f 21//3 23//3 24//3
f 21//3 24//3 22//3
f 23//4 17//4 20//4
f 23//4 20//4 24//4
f 25//5 26//5 27//5
f 27//5 26//5 28//5
f 29//6 30//6 31//6
f 29//6 31//6 32//6
f 27//7 28//7 20//7
f 27//7 20//7 19//7
f 28//8 26//8 24//8
f 28//8 24//8 20//8
f 25//9 27//9 19//9
f 25//9 19//9 22//9
f 26//10 25//10 22//10
f 26//10 22//10 24//10
f 18//11 17//11 31//11
f 31//11 17//11 32//11
f 30//12 18//12 31//12
f 21//12 18//12 30//12
f 23//13 21//13 29//13
f 29//13 21//13 30//13
usemtl material_0.198
f 1//14 7//14 16//14
f 16//14 7//14 13//14
f 17//14 23//14 32//14
f 32//14 23//14 29//14
f 33//1 34//1 35//1
f 33//1 35//1 36//1
f 34//2 37//2 38//2
f 34//2 38//2 35//2
f 37//3 39//3 40//3
f 37//3 40//3 38//3
f 39//4 33//4 36//4
f 39//4 36//4 40//4
f 41//5 42//5 43//5
f 43//5 42//5 44//5
f 45//6 46//6 47//6
f 45//6 47//6 48//6
f 43//7 44//7 36//7
f 43//7 36//7 35//7
f 44//8 42//8 40//8
f 44//8 40//8 36//8
f 41//9 43//9 35//9
f 41//9 35//9 38//9
f 42//10 41//10 38//10
f 42//10 38//10 40//10
f 34//11 33//11 47//11
f 47//11 33//11 48//11
f 33//14 39//14 48//14
f 48//14 39//14 45//14
f 46//12 34//12 47//12
f 37//12 34//12 46//12
f 39//13 37//13 45//13
f 45//13 37//13 46//13
f 49//1 50//1 51//1
f 49//1 51//1 52//1
f 50//2 53//2 54//2
f 50//2 54//2 51//2
f 53//3 55//3 56//3
f 53//3 56//3 54//3
f 55//4 49//4 52//4
f 55//4 52//4 56//4
f 57//5 58//5 59//5
f 59//5 58//5 60//5
f 61//6 62//6 63//6
f 61//6 63//6 64//6
f 59//7 60//7 52//7
f 59//7 52//7 51//7
f 60//8 58//8 56//8
f 60//8 56//8 52//8
f 57//9 59//9 51//9
f 57//9 51//9 54//9
f 58//10 57//10 54//10
f 58//10 54//10 56//10
f 50//11 49//11 63//11
f 63//11 49//11 64//11
f 49//14 55//14 64//14
f 64//14 55//14 61//14
f 62//12 50//12 63//12
f 53//12 50//12 62//12
f 55//13 53//13 61//13
f 61//13 53//13 62//13
f 65//5 66//5 67//5
f 65//5 67//5 68//5
f 69//5 70//5 71//5
f 69//5 71//5 72//5
f 73//5 74//5 75//5
f 73//5 75//5 76//5
f 77//5 78//5 79//5
f 77//5 79//5 80//5
f 81//5 82//5 83//5
f 84//5 83//5 77//5
f 84//5 81//5 83//5
f 68//5 84//5 77//5
f 68//5 77//5 80//5
f 68//5 80//5 73//5
f 68//5 73//5 76//5
f 68//5 76//5 69//5
f 68//5 69//5 72//5
f 68//5 72//5 65//5
f 81//4 85//4 82//4
f 86//4 85//4 81//4
f 78//4 87//4 79//4
f 88//4 87//4 78//4
f 85//4 89//4 88//4
f 90//4 89//4 86//4
f 86//4 89//4 85//4
f 88//4 89//4 87//4
f 89//4 91//4 87//4
f 91//4 92//4 74//4
f 74//4 92//4 75//4
f 89//4 92//4 91//4
f 90//4 93//4 89//4
f 93//4 94//4 89//4
f 70//4 95//4 71//4
f 96//4 95//4 70//4
f 97//4 67//4 66//4
f 95//4 98//4 97//4
f 92//4 98//4 96//4
f 89//4 98//4 92//4
f 96//4 98//4 95//4
f 97//4 98//4 67//4
f 99//4 100//4 98//4
f 98//4 100//4 67//4
f 101//5 102//5 103//5
f 101//5 103//5 104//5
f 101//3 105//3 102//3
f 105//3 106//3 107//3
f 101//3 108//3 105//3
f 105//3 108//3 106//3
f 101//3 109//3 108//3
f 106//3 110//3 90//3
f 108//3 110//3 106//3
f 109//3 111//3 108//3
f 112//3 93//3 110//3
f 110//3 93//3 90//3
f 113//6 114//6 115//6
f 116//6 114//6 113//6
f 111//6 117//6 118//6
f 111//6 109//6 117//6
f 109//6 115//6 117//6
f 117//6 115//6 114//6
f 94//6 119//6 120//6
f 93//6 119//6 94//6
f 119//6 112//6 121//6
f 93//6 112//6 119//6
f 100//6 122//6 123//6
f 99//6 122//6 100//6
f 99//6 124//6 122//6
f 122//6 125//6 123//6
f 126//2 127//2 104//2
f 126//2 115//2 128//2
f 104//2 115//2 126//2
f 115//2 129//2 128//2
f 104//2 130//2 101//2
f 127//2 130//2 104//2
f 130//2 131//2 101//2
f 129//2 132//2 127//2
f 127//2 132//2 130//2
f 133//2 109//2 131//2
f 132//2 109//2 133//2
f 131//2 109//2 101//2
f 115//2 109//2 129//2
f 129//2 109//2 132//2
f 67//1 134//1 68//1
f 135//1 104//1 103//1
f 134//1 136//1 135//1
f 67//1 100//1 134//1
f 134//1 100//1 136//1
f 135//1 137//1 104//1
f 136//1 137//1 135//1
f 100//1 123//1 136//1
f 113//1 115//1 137//1
f 137//1 115//1 104//1
f 136//6 138//6 137//6
f 139//6 138//6 136//6
f 123//2 139//2 136//2
f 125//2 139//2 123//2
f 138//4 113//4 137//4
f 138//4 116//4 113//4
f 140//2 141//2 142//2
f 142//2 141//2 143//2
f 141//1 144//1 143//1
f 143//1 144//1 145//1
f 146//3 140//3 147//3
f 147//3 140//3 142//3
f 108//4 111//4 118//4
f 108//4 118//4 148//4
f 110//6 108//6 148//6
f 110//6 148//6 149//6
f 112//2 110//2 149//2
f 112//2 149//2 121//2
f 150//1 151//1 152//1
f 150//1 153//1 151//1
f 154//2 152//2 155//2
f 154//2 150//2 152//2
f 156//3 155//3 157//3
f 156//3 154//3 155//3
f 158//3 81//3 84//3
f 159//3 160//3 158//3
f 160//3 86//3 158//3
f 158//3 86//3 81//3
f 106//5 86//5 160//5
f 90//5 86//5 106//5
f 106//4 159//4 107//4
f 106//4 160//4 159//4
f 161//3 97//3 66//3
f 161//3 66//3 65//3
f 162//5 95//5 97//5
f 162//5 97//5 161//5
f 95//1 162//1 71//1
f 71//1 162//1 72//1
f 162//4 65//4 72//4
f 162//4 161//4 65//4
f 163//3 96//3 70//3
f 163//3 70//3 69//3
f 164//5 92//5 96//5
f 164//5 96//5 163//5
f 92//1 164//1 75//1
f 75//1 164//1 76//1
f 164//4 69//4 76//4
f 164//4 163//4 69//4
f 165//3 88//3 78//3
f 165//3 78//3 77//3
f 166//5 85//5 88//5
f 166//5 88//5 165//5
f 85//1 166//1 82//1
f 82//1 166//1 83//1
f 166//4 77//4 83//4
f 166//4 165//4 77//4
f 167//3 91//3 74//3
f 167//3 74//3 73//3
f 168//5 87//5 91//5
f 168//5 91//5 167//5
f 87//1 168//1 79//1
f 79//1 168//1 80//1
f 168//4 73//4 80//4
f 168//4 167//4 73//4
f 68//2 158//2 84//2
f 134//2 158//2 68//2
f 135//5 159//5 134//5
f 105//5 159//5 135//5
f 159//5 158//5 134//5
f 105//5 107//5 159//5
f 102//4 135//4 103//4
f 105//4 135//4 102//4
usemtl material_2.112
f 153//2 169//2 151//2
f 151//2 169//2 170//2
f 120//2 119//2 169//2
f 119//2 170//2 169//2
f 145//2 156//2 157//2
f 144//2 156//2 145//2
f 98//6 140//6 171//6
f 140//6 146//6 171//6
f 98//6 141//6 140//6
f 141//6 156//6 144//6
f 154//6 156//6 141//6
f 154//6 89//6 150//6
f 150//6 169//6 153//6
f 89//6 169//6 150//6
f 98//6 89//6 141//6
f 141//6 89//6 154//6
f 170//1 119//1 149//1
f 170//1 148//1 172//1
f 149//1 148//1 170//1
f 119//1 121//1 149//1
f 118//1 117//1 148//1
f 148//1 117//1 172//1
f 173//2 171//2 147//2
f 171//2 146//2 147//2
f 122//2 124//2 171//2
f 173//2 122//2 171//2
f 174//3 138//3 173//3
f 174//3 114//3 138//3
f 138//3 139//3 173//3
f 114//3 116//3 138//3
f 125//3 122//3 139//3
f 139//3 122//3 173//3
f 175//4 176//4 172//4
f 175//4 117//4 177//4
f 177//4 117//4 178//4
f 172//4 117//4 175//4
f 172//4 179//4 174//4
f 176//4 179//4 172//4
f 179//4 180//4 174//4
f 178//4 181//4 176//4
f 176//4 181//4 179//4
f 182//4 114//4 180//4
f 181//4 114//4 182//4
f 117//4 114//4 178//4
f 178//4 114//4 181//4
f 180//4 114//4 174//4
f 142//6 145//6 147//6
f 143//6 145//6 142//6
f 147//6 174//6 173//6
f 145//6 174//6 147//6
f 145//6 157//6 174//6
f 155//6 151//6 157//6
f 152//6 151//6 155//6
f 170//6 172//6 151//6
f 157//6 172//6 174//6
f 151//6 172//6 157//6
f 124//3 98//3 171//3
f 99//3 98//3 124//3
f 169//1 94//1 120//1
f 89//1 94//1 169//1
f 175//6 131//6 176//6
f 176//6 131//6 130//6
f 130//3 178//3 176//3
f 132//3 178//3 130//3
f 132//5 177//5 178//5
f 133//5 177//5 132//5
f 177//1 133//1 175//1
f 175//1 133//1 131//1
f 128//5 181//5 182//5
f 129//5 181//5 128//5
f 126//3 182//3 180//3
f 128//3 182//3 126//3
f 179//6 127//6 180//6
f 180//6 127//6 126//6
f 181//1 129//1 179//1
f 179//1 129//1 127//1
