# Blender v2.81 (sub 16) OBJ File: ''
# www.blender.org
mtllib DF13A-2P-1.25H.mtl
o DF13A-2P-1.25H
v -0.002471 -0.003623 0.003153
v -0.002471 -0.003623 0.000876
v -0.002435 -0.003935 0.000876
v -0.002435 -0.003935 0.003153
v -0.002332 -0.004231 0.000876
v -0.002332 -0.004231 0.003153
v -0.002165 -0.004497 0.000876
v -0.002165 -0.004497 0.003153
v -0.001943 -0.004718 0.000876
v -0.001943 -0.004718 0.003153
v -0.001677 -0.004885 0.000876
v -0.001677 -0.004885 0.003153
v -0.001381 -0.004989 0.000876
v -0.001381 -0.004989 0.003153
v -0.001069 -0.005024 0.003153
v -0.001069 -0.005024 0.000876
v -0.001770 -0.003623 0.000876
v -0.001770 -0.003623 0.003153
v -0.001752 -0.003779 0.000876
v -0.001752 -0.003779 0.003153
v -0.001701 -0.003927 0.000876
v -0.001701 -0.003927 0.003153
v -0.001617 -0.004060 0.003153
v -0.001617 -0.004060 0.000876
v -0.001506 -0.004171 0.003153
v -0.001506 -0.004171 0.000876
v -0.001373 -0.004254 0.003153
v -0.001373 -0.004254 0.000876
v -0.001225 -0.004306 0.003153
v -0.001225 -0.004306 0.000876
v -0.001069 -0.004323 0.003153
v -0.001069 -0.004323 0.000876
v 0.001908 0.004259 0.003153
v 0.001908 0.006886 0.004904
v 0.001908 0.004259 0.004904
v 0.001908 -0.003623 0.003153
v 0.001908 0.004259 -0.003153
v 0.001908 -0.003623 -0.003153
v 0.001908 0.004259 -0.004904
v 0.001908 0.006886 -0.004904
v 0.001208 0.006886 0.004904
v 0.001208 0.004259 0.003153
v 0.001208 0.004259 0.004904
v 0.001208 0.004259 -0.003153
v 0.001208 -0.003623 -0.003153
v 0.001208 -0.003623 0.003153
v 0.001208 0.006886 -0.004904
v 0.001208 0.004259 -0.004904
v -0.002471 -0.002047 0.003153
v -0.001770 -0.002047 0.003153
v 0.000507 -0.004323 0.003153
v 0.000507 -0.005024 0.003153
v -0.002471 -0.003623 -0.003153
v -0.001770 -0.002047 -0.003153
v -0.001770 -0.003623 -0.003153
v -0.002471 -0.002047 -0.003153
v -0.001069 -0.005024 -0.003153
v 0.000507 -0.004323 -0.003153
v 0.000507 -0.005024 -0.003153
v -0.001069 -0.004323 -0.003153
v -0.002165 -0.004497 -0.003153
v -0.001506 -0.004171 -0.003153
v -0.001943 -0.004718 -0.003153
v -0.001617 -0.004060 -0.003153
v -0.001373 -0.004254 -0.003153
v -0.001677 -0.004885 -0.003153
v -0.002332 -0.004231 -0.003153
v -0.001701 -0.003927 -0.003153
v -0.001225 -0.004306 -0.003153
v -0.001381 -0.004989 -0.003153
v -0.002435 -0.003935 -0.003153
v -0.001752 -0.003779 -0.003153
v -0.001069 -0.004323 -0.000876
v -0.001069 -0.005024 -0.000876
v 0.001873 -0.003935 0.003153
v 0.001873 -0.003935 -0.003153
v 0.001769 -0.004231 0.003153
v 0.001769 -0.004231 -0.003153
v 0.001603 -0.004497 0.003153
v 0.001603 -0.004497 -0.003153
v 0.001381 -0.004718 0.003153
v 0.001381 -0.004718 -0.003153
v 0.001115 -0.004885 0.003153
v 0.001115 -0.004885 -0.003153
v 0.000819 -0.004989 0.003153
v 0.000819 -0.004989 -0.003153
v 0.001190 -0.003779 0.003153
v 0.001190 -0.003779 -0.003153
v 0.001138 -0.003927 0.003153
v 0.001138 -0.003927 -0.003153
v 0.001055 -0.004060 0.003153
v 0.001055 -0.004060 -0.003153
v 0.000944 -0.004171 0.003153
v 0.000944 -0.004171 -0.003153
v 0.000811 -0.004254 0.003153
v 0.000811 -0.004254 -0.003153
v 0.000663 -0.004306 0.003153
v 0.000663 -0.004306 -0.003153
v -0.002471 -0.003623 -0.000876
v -0.002435 -0.003935 -0.000876
v -0.002332 -0.004231 -0.000876
v -0.002165 -0.004497 -0.000876
v -0.001943 -0.004718 -0.000876
v -0.001677 -0.004885 -0.000876
v -0.001381 -0.004989 -0.000876
v -0.001770 -0.003623 -0.000876
v -0.001752 -0.003779 -0.000876
v -0.001701 -0.003927 -0.000876
v -0.001617 -0.004060 -0.000876
v -0.001506 -0.004171 -0.000876
v -0.001373 -0.004254 -0.000876
v -0.001225 -0.004306 -0.000876
v 0.001190 0.006886 -0.005060
v 0.001873 0.006886 -0.005216
v 0.000819 0.006886 -0.006270
v 0.000507 0.006886 -0.006305
v 0.000507 0.006886 -0.005605
v 0.000663 0.006886 -0.005587
v 0.001769 0.006886 -0.005512
v 0.001138 0.006886 -0.005208
v 0.001115 0.006886 -0.006167
v 0.000811 0.006886 -0.005535
v 0.001603 0.006886 -0.005778
v 0.001055 0.006886 -0.005341
v 0.001381 0.006886 -0.006000
v 0.000944 0.006886 -0.005452
v 0.000507 0.004259 -0.005605
v 0.000819 0.004259 -0.006270
v 0.000663 0.004259 -0.005587
v 0.000507 0.004259 -0.006305
v 0.001190 0.004259 -0.005060
v 0.001873 0.004259 -0.005216
v 0.001115 0.004259 -0.006167
v 0.000811 0.004259 -0.005535
v 0.001138 0.004259 -0.005208
v 0.001769 0.004259 -0.005512
v 0.001381 0.004259 -0.006000
v 0.000944 0.004259 -0.005452
v 0.001603 0.004259 -0.005778
v 0.001055 0.004259 -0.005341
v 0.000157 0.004259 -0.005605
v 0.000157 0.004259 -0.006305
v 0.000157 0.006886 -0.006305
v 0.000157 0.006886 -0.005605
v 0.001055 0.004259 0.005341
v 0.001603 0.004259 0.005778
v 0.001381 0.004259 0.006000
v 0.000944 0.004259 0.005452
v 0.000811 0.004259 0.005535
v 0.001115 0.004259 0.006167
v 0.001138 0.004259 0.005208
v 0.001769 0.004259 0.005512
v 0.000663 0.004259 0.005587
v 0.000819 0.004259 0.006270
v 0.001190 0.004259 0.005060
v 0.001873 0.004259 0.005216
v 0.000507 0.004259 0.005605
v 0.000507 0.004259 0.006305
v 0.001603 0.006886 0.005778
v 0.001055 0.006886 0.005341
v 0.001381 0.006886 0.006000
v 0.000944 0.006886 0.005452
v 0.000811 0.006886 0.005535
v 0.001115 0.006886 0.006167
v 0.001769 0.006886 0.005512
v 0.001138 0.006886 0.005208
v 0.001873 0.006886 0.005216
v 0.001190 0.006886 0.005060
v 0.000663 0.006886 0.005587
v 0.000819 0.006886 0.006270
v 0.000507 0.006886 0.005605
v 0.000507 0.006886 0.006305
v 0.000157 0.006886 0.005605
v 0.000157 0.006886 0.006305
v 0.000157 0.004259 0.006305
v 0.000157 0.004259 0.005605
vn -0.9937 -0.1120 -0.0000
vn -0.9439 -0.3303 0.0000
vn -0.8467 -0.5320 0.0000
vn -0.7071 -0.7071 0.0000
vn -0.5320 -0.8467 0.0000
vn -0.3303 -0.9439 0.0000
vn -0.1120 -0.9937 0.0000
vn 0.9937 0.1120 0.0000
vn 0.9439 0.3303 0.0000
vn 0.8467 0.5320 0.0000
vn 0.7071 0.7071 0.0000
vn 0.5320 0.8467 0.0000
vn 0.3303 0.9439 0.0000
vn 0.1120 0.9937 0.0000
vn 1.0000 -0.0000 0.0000
vn -1.0000 0.0000 0.0000
vn 0.0000 1.0000 -0.0000
vn 0.0000 -1.0000 -0.0000
vn 0.0000 -0.0000 1.0000
vn 0.0000 0.0000 -1.0000
vn 0.9937 -0.1120 -0.0000
vn 0.9439 -0.3303 0.0000
vn 0.8467 -0.5320 0.0000
vn 0.7071 -0.7071 0.0000
vn 0.5320 -0.8467 0.0000
vn 0.3303 -0.9439 0.0000
vn 0.1120 -0.9937 0.0000
vn -0.9937 0.1120 0.0000
vn -0.9439 0.3303 0.0000
vn -0.8467 0.5320 0.0000
vn -0.7071 0.7071 0.0000
vn -0.5320 0.8467 0.0000
vn -0.3303 0.9439 0.0000
vn -0.1120 0.9937 0.0000
vn 0.1120 0.0000 -0.9937
vn 0.5320 0.0000 -0.8467
vn 0.3303 0.0000 -0.9439
vn 0.7071 0.0000 -0.7071
vn 0.8467 0.0000 -0.5320
vn 0.9439 0.0000 -0.3303
vn 0.9937 0.0000 -0.1120
vn -0.1120 -0.0000 0.9937
vn -0.3303 -0.0000 0.9439
vn -0.5321 -0.0000 0.8467
vn -0.5320 -0.0000 0.8467
vn -0.8467 -0.0000 0.5320
vn -0.7071 -0.0000 0.7071
vn -0.9439 -0.0000 0.3303
vn -0.9937 -0.0000 0.1120
vn 0.1120 -0.0000 0.9937
vn 0.3303 -0.0000 0.9439
vn 0.5320 -0.0000 0.8467
vn 0.7071 -0.0000 0.7071
vn 0.8467 -0.0000 0.5320
vn 0.9439 -0.0000 0.3303
vn 0.9937 -0.0000 0.1120
vn -0.1120 0.0000 -0.9937
vn -0.3303 0.0000 -0.9439
vn -0.5320 0.0000 -0.8467
vn -0.7071 0.0000 -0.7071
vn -0.8467 0.0000 -0.5321
vn -0.8467 0.0000 -0.5320
vn -0.9439 0.0000 -0.3303
vn -0.9937 0.0000 -0.1120
usemtl material_1.403
s 1
f 1//1 2//1 3//1
f 4//2 3//2 5//2
f 4//1 1//1 3//1
f 6//3 5//3 7//3
f 6//2 4//2 5//2
f 8//4 7//4 9//4
f 8//3 6//3 7//3
f 10//5 9//5 11//5
f 10//4 8//4 9//4
f 12//6 11//6 13//6
f 12//5 10//5 11//5
f 14//6 12//6 13//6
f 15//7 13//7 16//7
f 15//7 14//7 13//7
usemtl material_0.410
f 17//8 18//8 19//8
f 19//9 20//9 21//9
f 18//8 20//8 19//8
f 20//9 22//9 21//9
f 21//10 23//10 24//10
f 22//10 23//10 21//10
f 24//11 25//11 26//11
f 23//11 25//11 24//11
f 26//12 27//12 28//12
f 25//12 27//12 26//12
f 28//13 29//13 30//13
f 27//13 29//13 28//13
f 30//14 31//14 32//14
f 29//14 31//14 30//14
f 33//15 34//15 35//15
f 36//15 37//15 33//15
f 38//15 37//15 36//15
f 39//15 40//15 37//15
f 33//15 40//15 34//15
f 37//15 40//15 33//15
f 41//16 42//16 43//16
f 44//16 45//16 46//16
f 44//16 46//16 42//16
f 47//16 48//16 44//16
f 47//16 42//16 41//16
f 47//16 44//16 42//16
f 34//17 47//17 41//17
f 40//17 47//17 34//17
f 43//18 33//18 35//18
f 42//18 33//18 43//18
f 44//18 39//18 37//18
f 48//18 39//18 44//18
f 18//19 49//19 1//19
f 50//19 49//19 18//19
f 51//19 15//19 52//19
f 51//19 31//19 15//19
f 36//19 42//19 46//19
f 33//19 42//19 36//19
f 15//19 31//19 14//19
f 14//19 29//19 12//19
f 31//19 29//19 14//19
f 29//19 27//19 12//19
f 27//19 10//19 12//19
f 27//19 25//19 10//19
f 23//19 8//19 25//19
f 25//19 8//19 10//19
f 22//19 6//19 23//19
f 23//19 6//19 8//19
f 20//19 4//19 22//19
f 22//19 4//19 6//19
f 18//19 1//19 20//19
f 20//19 1//19 4//19
f 53//20 54//20 55//20
f 56//20 54//20 53//20
f 57//20 58//20 59//20
f 60//20 58//20 57//20
f 61//20 62//20 63//20
f 61//20 64//20 62//20
f 63//20 65//20 66//20
f 62//20 65//20 63//20
f 67//20 68//20 61//20
f 61//20 68//20 64//20
f 66//20 69//20 70//20
f 65//20 69//20 66//20
f 71//20 72//20 67//20
f 67//20 72//20 68//20
f 53//20 55//20 71//20
f 71//20 55//20 72//20
f 70//20 60//20 57//20
f 69//20 60//20 70//20
f 45//20 37//20 38//20
f 44//20 37//20 45//20
f 60//17 73//17 58//17
f 32//17 51//17 73//17
f 73//17 51//17 58//17
f 32//17 31//17 51//17
f 74//18 57//18 59//18
f 52//18 16//18 74//18
f 52//18 74//18 59//18
f 15//18 16//18 52//18
f 38//21 36//21 75//21
f 76//22 75//22 77//22
f 76//21 38//21 75//21
f 78//23 77//23 79//23
f 78//22 76//22 77//22
f 80//24 79//24 81//24
f 80//23 78//23 79//23
f 82//25 81//25 83//25
f 82//24 80//24 81//24
f 84//26 83//26 85//26
f 84//25 82//25 83//25
f 86//27 85//27 52//27
f 86//26 84//26 85//26
f 59//27 86//27 52//27
f 46//28 45//28 87//28
f 87//29 88//29 89//29
f 45//28 88//28 87//28
f 89//30 90//30 91//30
f 88//29 90//29 89//29
f 91//31 92//31 93//31
f 90//30 92//30 91//30
f 93//32 94//32 95//32
f 92//31 94//31 93//31
f 95//33 96//33 97//33
f 94//32 96//32 95//32
f 97//34 98//34 51//34
f 96//33 98//33 97//33
f 98//34 58//34 51//34
f 99//1 53//1 71//1
f 100//2 71//2 67//2
f 100//1 99//1 71//1
f 101//3 67//3 61//3
f 101//2 100//2 67//2
f 102//4 61//4 63//4
f 102//3 101//3 61//3
f 103//5 63//5 66//5
f 103//4 102//4 63//4
f 104//6 66//6 70//6
f 104//5 103//5 66//5
f 105//7 70//7 57//7
f 105//6 104//6 70//6
f 74//7 105//7 57//7
f 55//8 106//8 72//8
f 72//9 107//9 68//9
f 106//8 107//8 72//8
f 68//10 108//10 64//10
f 107//9 108//9 68//9
f 64//11 109//11 62//11
f 108//10 109//10 64//10
f 62//12 110//12 65//12
f 109//11 110//11 62//11
f 65//13 111//13 69//13
f 110//12 111//12 65//12
f 69//14 112//14 60//14
f 111//13 112//13 69//13
f 112//14 73//14 60//14
f 49//16 2//16 1//16
f 49//16 99//16 2//16
f 49//16 56//16 99//16
f 56//16 53//16 99//16
f 17//15 50//15 18//15
f 54//15 17//15 106//15
f 54//15 50//15 17//15
f 55//15 54//15 106//15
f 50//17 56//17 49//17
f 54//17 56//17 50//17
f 58//20 98//20 59//20
f 59//20 98//20 86//20
f 86//20 96//20 84//20
f 98//20 96//20 86//20
f 84//20 94//20 82//20
f 96//20 94//20 84//20
f 92//20 80//20 94//20
f 94//20 80//20 82//20
f 90//20 78//20 92//20
f 92//20 78//20 80//20
f 45//20 76//20 88//20
f 88//20 76//20 90//20
f 90//20 76//20 78//20
f 45//20 38//20 76//20
f 79//19 91//19 81//19
f 81//19 91//19 93//19
f 77//19 89//19 79//19
f 79//19 89//19 91//19
f 81//19 95//19 83//19
f 93//19 95//19 81//19
f 83//19 97//19 85//19
f 95//19 97//19 83//19
f 75//19 87//19 77//19
f 77//19 87//19 89//19
f 36//19 46//19 75//19
f 75//19 46//19 87//19
f 85//19 51//19 52//19
f 97//19 51//19 85//19
f 40//17 113//17 47//17
f 114//17 113//17 40//17
f 115//17 116//17 117//17
f 115//17 117//17 118//17
f 119//17 120//17 113//17
f 119//17 113//17 114//17
f 121//17 118//17 122//17
f 121//17 115//17 118//17
f 123//17 124//17 120//17
f 123//17 120//17 119//17
f 125//17 126//17 124//17
f 125//17 122//17 126//17
f 125//17 121//17 122//17
f 125//17 124//17 123//17
f 127//18 128//18 129//18
f 130//18 128//18 127//18
f 131//18 132//18 48//18
f 48//18 132//18 39//18
f 129//18 133//18 134//18
f 128//18 133//18 129//18
f 135//18 136//18 131//18
f 131//18 136//18 132//18
f 134//18 137//18 138//18
f 133//18 137//18 134//18
f 138//18 139//18 140//18
f 140//18 139//18 135//18
f 135//18 139//18 136//18
f 137//18 139//18 138//18
f 128//35 130//35 116//35
f 128//35 116//35 115//35
f 133//36 121//36 125//36
f 133//37 115//37 121//37
f 133//37 128//37 115//37
f 137//38 125//38 123//38
f 137//36 133//36 125//36
f 139//39 123//39 119//39
f 139//38 137//38 123//38
f 136//40 119//40 114//40
f 136//39 139//39 119//39
f 132//41 114//41 40//41
f 132//40 136//40 114//40
f 39//41 132//41 40//41
f 127//42 129//42 117//42
f 117//42 129//42 118//42
f 118//43 134//43 122//43
f 129//43 134//43 118//43
f 122//44 138//45 126//44
f 134//45 138//45 122//44
f 124//46 140//46 120//46
f 126//47 140//47 124//47
f 138//47 140//47 126//47
f 140//46 135//46 120//46
f 120//48 131//48 113//48
f 135//48 131//48 120//48
f 113//49 48//49 47//49
f 131//49 48//49 113//49
f 141//18 130//18 127//18
f 142//18 130//18 141//18
f 116//17 143//17 117//17
f 117//17 143//17 144//17
f 142//20 116//20 130//20
f 143//20 116//20 142//20
f 117//19 141//19 127//19
f 117//19 144//19 141//19
f 144//16 143//16 141//16
f 141//16 143//16 142//16
f 145//18 146//18 147//18
f 145//18 147//18 148//18
f 149//18 147//18 150//18
f 149//18 148//18 147//18
f 151//18 152//18 146//18
f 151//18 146//18 145//18
f 153//18 150//18 154//18
f 153//18 149//18 150//18
f 155//18 156//18 152//18
f 155//18 152//18 151//18
f 43//18 35//18 156//18
f 43//18 156//18 155//18
f 157//18 154//18 158//18
f 157//18 153//18 154//18
f 159//17 160//17 161//17
f 161//17 160//17 162//17
f 161//17 163//17 164//17
f 162//17 163//17 161//17
f 165//17 166//17 159//17
f 159//17 166//17 160//17
f 167//17 168//17 165//17
f 165//17 168//17 166//17
f 164//17 169//17 170//17
f 163//17 169//17 164//17
f 170//17 171//17 172//17
f 169//17 171//17 170//17
f 34//17 41//17 167//17
f 167//17 41//17 168//17
f 170//50 172//50 158//50
f 170//51 154//51 150//51
f 170//50 158//50 154//50
f 164//52 150//52 147//52
f 164//51 170//51 150//51
f 161//53 147//53 146//53
f 161//52 164//52 147//52
f 159//54 146//54 152//54
f 159//53 161//53 146//53
f 165//55 152//55 156//55
f 165//54 159//54 152//54
f 167//56 156//56 35//56
f 167//55 165//55 156//55
f 34//56 167//56 35//56
f 171//57 169//57 157//57
f 157//57 169//57 153//57
f 153//58 163//58 149//58
f 169//58 163//58 153//58
f 149//59 162//59 148//59
f 163//59 162//59 149//59
f 148//60 160//60 145//60
f 162//60 160//60 148//60
f 145//61 166//62 151//61
f 160//62 166//62 145//61
f 151//63 168//63 155//63
f 166//63 168//63 151//63
f 155//64 41//64 43//64
f 168//64 41//64 155//64
f 171//17 173//17 172//17
f 172//17 173//17 174//17
f 175//18 157//18 158//18
f 176//18 157//18 175//18
f 172//19 174//19 158//19
f 158//19 174//19 175//19
f 173//20 171//20 157//20
f 173//20 157//20 176//20
f 174//16 176//16 175//16
f 173//16 176//16 174//16
f 7//20 26//20 9//20
f 24//20 26//20 7//20
f 5//20 21//20 7//20
f 7//20 21//20 24//20
f 9//20 28//20 11//20
f 26//20 28//20 9//20
f 3//20 19//20 5//20
f 5//20 19//20 21//20
f 11//20 30//20 13//20
f 28//20 30//20 11//20
f 2//20 17//20 3//20
f 3//20 17//20 19//20
f 13//20 32//20 16//20
f 30//20 32//20 13//20
f 16//16 73//16 74//16
f 32//16 73//16 16//16
f 74//19 112//19 105//19
f 73//19 112//19 74//19
f 105//19 111//19 104//19
f 112//19 111//19 105//19
f 104//19 110//19 103//19
f 111//19 110//19 104//19
f 110//19 109//19 103//19
f 109//19 102//19 103//19
f 109//19 108//19 102//19
f 107//19 101//19 108//19
f 108//19 101//19 102//19
f 107//19 100//19 101//19
f 106//19 99//19 107//19
f 107//19 99//19 100//19
f 17//18 99//18 106//18
f 2//18 99//18 17//18
