# Blender v2.81 (sub 16) OBJ File: ''
# www.blender.org
mtllib DS1025 (PLS-03T CONNFLY).mtl
o DS1025_(PLS-03T_CONNFLY)
v 0.001368 0.001721 -0.000199
v 0.001168 0.001721 -0.000199
v 0.001168 0.001721 0.000699
v 0.001368 0.001721 0.000699
v 0.003804 0.001721 0.000699
v 0.003804 0.001821 0.000799
v 0.003804 0.001821 0.000929
v 0.003804 0.000024 0.000929
v 0.003804 0.000024 -0.000409
v 0.003804 0.001721 -0.000199
v 0.003804 0.001821 -0.000409
v 0.003804 0.001821 -0.000299
v 0.002216 0.001821 -0.000060
v 0.001468 0.001821 -0.000299
v 0.001468 0.001821 0.000799
v 0.002855 0.001821 0.000579
v 0.002216 0.001821 0.000579
v 0.001867 0.001821 0.001528
v 0.003205 0.001821 0.001528
v 0.003604 0.001821 0.000799
v -0.003604 0.001821 0.000799
v -0.003804 0.001821 0.000799
v -0.003804 0.001821 0.000929
v -0.003205 0.001821 0.001528
v 0.001867 0.001821 -0.001008
v 0.001268 0.001821 -0.000409
v -0.002855 0.001821 0.000579
v 0.002855 0.001821 -0.000060
v -0.003604 0.001821 -0.000299
v -0.003804 0.001821 -0.000409
v -0.003804 0.001821 -0.000299
v 0.003604 0.001821 -0.000299
v -0.002216 0.001821 0.000579
v -0.001867 0.001821 0.001528
v -0.002855 0.001821 -0.000060
v 0.003205 0.001821 -0.001008
v -0.001468 0.001821 0.000799
v -0.003205 0.001821 -0.001008
v -0.001268 0.001821 0.000929
v -0.002216 0.001821 -0.000060
v -0.001068 0.001821 0.000799
v -0.000669 0.001821 0.001528
v -0.001468 0.001821 -0.000299
v -0.000319 0.001821 0.000579
v -0.001867 0.001821 -0.001008
v -0.001268 0.001821 -0.000409
v -0.001068 0.001821 -0.000299
v 0.000319 0.001821 0.000579
v 0.000669 0.001821 0.001528
v -0.000319 0.001821 -0.000060
v 0.001068 0.001821 0.000799
v -0.000669 0.001821 -0.001008
v 0.001268 0.001821 0.000929
v 0.000319 0.001821 -0.000060
v 0.001068 0.001821 -0.000299
v 0.000669 0.001821 -0.001008
v 0.003704 0.001721 -0.000199
v 0.003704 0.001721 0.000699
v 0.003654 0.000024 0.001079
v 0.003205 -0.000675 0.001528
v 0.003654 -0.000675 0.001079
v -0.003804 0.000024 0.000929
v -0.002855 0.000024 0.000579
v -0.003654 0.000024 0.001079
v -0.003804 0.000024 -0.000409
v -0.002855 0.000024 -0.000060
v -0.003654 0.000024 -0.000559
v -0.002216 0.000024 0.000579
v -0.001418 0.000024 0.001079
v -0.001268 0.000024 0.000929
v -0.000319 0.000024 0.000579
v -0.001118 0.000024 0.001079
v -0.002216 0.000024 -0.000060
v -0.001268 0.000024 -0.000409
v -0.001418 0.000024 -0.000559
v -0.001118 0.000024 -0.000559
v -0.000319 0.000024 -0.000060
v 0.000319 0.000024 0.000579
v 0.001118 0.000024 0.001079
v 0.001268 0.000024 0.000929
v 0.002216 0.000024 0.000579
v 0.001418 0.000024 0.001079
v 0.001118 0.000024 -0.000559
v 0.000319 0.000024 -0.000060
v 0.001268 0.000024 -0.000409
v 0.001418 0.000024 -0.000559
v 0.002216 0.000024 -0.000060
v 0.002855 0.000024 0.000579
v 0.002855 0.000024 -0.000060
v 0.003654 0.000024 -0.000559
v 0.003654 -0.000675 -0.000559
v 0.003205 -0.000675 -0.001008
v 0.001867 -0.000675 -0.001008
v 0.001418 -0.000675 -0.000559
v 0.001118 -0.000675 -0.000559
v 0.000669 -0.000675 -0.001008
v -0.000669 -0.000675 -0.001008
v -0.001118 -0.000675 -0.000559
v -0.001418 -0.000675 -0.000559
v -0.001867 -0.000675 -0.001008
v -0.003205 -0.000675 -0.001008
v -0.003654 -0.000675 -0.000559
v -0.003804 0.001721 -0.000199
v -0.003804 0.001721 0.000699
v -0.003704 0.001721 -0.000199
v -0.003704 0.001721 0.000699
v -0.003654 -0.000675 0.001079
v -0.003205 -0.000675 0.001528
v -0.001867 -0.000675 0.001528
v -0.001418 -0.000675 0.001079
v -0.001118 -0.000675 0.001079
v -0.000669 -0.000675 0.001528
v 0.000669 -0.000675 0.001528
v 0.001118 -0.000675 0.001079
v 0.001418 -0.000675 0.001079
v 0.001867 -0.000675 0.001528
v -0.001168 0.001721 0.000699
v -0.001368 0.001721 0.000699
v -0.001368 0.001721 -0.000199
v -0.001168 0.001721 -0.000199
v -0.002216 0.007537 -0.000060
v -0.002216 0.007537 0.000579
v -0.002855 0.007537 0.000579
v -0.002855 0.007537 -0.000060
v 0.000319 0.007537 -0.000060
v 0.000319 0.007537 0.000579
v -0.000319 0.007537 0.000579
v -0.000319 0.007537 -0.000060
v 0.002855 0.007537 -0.000060
v 0.002855 0.007537 0.000579
v 0.002216 0.007537 0.000579
v 0.002216 0.007537 -0.000060
v -0.002216 -0.000948 -0.000060
v -0.002855 -0.000948 -0.000060
v -0.002855 -0.002898 -0.000369
v -0.002855 -0.002898 -0.001008
v -0.002855 -0.003995 -0.001008
v -0.002855 -0.003995 -0.000369
v -0.002855 -0.002756 -0.000354
v -0.002855 -0.002622 -0.000979
v -0.002855 -0.002359 -0.000893
v -0.002855 -0.002620 -0.000310
v -0.002855 -0.002120 -0.000754
v -0.002855 -0.002497 -0.000238
v -0.002855 -0.001348 -0.000190
v -0.002855 -0.001725 0.000326
v -0.002855 -0.001486 0.000464
v -0.002855 -0.001225 -0.000119
v -0.002855 -0.001223 0.000550
v -0.002855 -0.001090 -0.000075
v -0.002855 -0.000948 0.000579
v -0.002216 -0.000948 0.000579
v -0.002216 -0.002898 -0.001008
v -0.002216 -0.002898 -0.000369
v -0.002216 -0.003995 -0.000369
v -0.002216 -0.003995 -0.001008
v -0.002216 -0.002622 -0.000979
v -0.002216 -0.002756 -0.000354
v -0.002216 -0.002359 -0.000893
v -0.002216 -0.002620 -0.000310
v -0.002216 -0.002120 -0.000754
v -0.002216 -0.002497 -0.000238
v -0.002216 -0.001348 -0.000190
v -0.002216 -0.001486 0.000464
v -0.002216 -0.001725 0.000326
v -0.002216 -0.001225 -0.000119
v -0.002216 -0.001090 -0.000075
v -0.002216 -0.001223 0.000550
v 0.000319 -0.000948 -0.000060
v -0.000319 -0.000948 -0.000060
v -0.000319 -0.002898 -0.000369
v -0.000319 -0.002898 -0.001008
v -0.000319 -0.003995 -0.001008
v -0.000319 -0.003995 -0.000369
v -0.000319 -0.002756 -0.000354
v -0.000319 -0.002622 -0.000979
v -0.000319 -0.002359 -0.000893
v -0.000319 -0.002620 -0.000310
v -0.000319 -0.002120 -0.000754
v -0.000319 -0.002497 -0.000238
v -0.000319 -0.001348 -0.000190
v -0.000319 -0.001725 0.000326
v -0.000319 -0.001486 0.000464
v -0.000319 -0.001225 -0.000119
v -0.000319 -0.001223 0.000550
v -0.000319 -0.001090 -0.000075
v -0.000319 -0.000948 0.000579
v 0.000319 -0.000948 0.000579
v 0.000319 -0.002898 -0.001008
v 0.000319 -0.002898 -0.000369
v 0.000319 -0.003995 -0.000369
v 0.000319 -0.003995 -0.001008
v 0.000319 -0.002622 -0.000979
v 0.000319 -0.002756 -0.000354
v 0.000319 -0.002359 -0.000893
v 0.000319 -0.002620 -0.000310
v 0.000319 -0.002120 -0.000754
v 0.000319 -0.002497 -0.000238
v 0.000319 -0.001348 -0.000190
v 0.000319 -0.001486 0.000464
v 0.000319 -0.001725 0.000326
v 0.000319 -0.001225 -0.000119
v 0.000319 -0.001090 -0.000075
v 0.000319 -0.001223 0.000550
v 0.002855 -0.000948 -0.000060
v 0.002216 -0.000948 -0.000060
v 0.002216 -0.002898 -0.000369
v 0.002216 -0.002898 -0.001008
v 0.002216 -0.003995 -0.001008
v 0.002216 -0.003995 -0.000369
v 0.002216 -0.002756 -0.000354
v 0.002216 -0.002622 -0.000979
v 0.002216 -0.002359 -0.000893
v 0.002216 -0.002620 -0.000310
v 0.002216 -0.002120 -0.000754
v 0.002216 -0.002497 -0.000238
v 0.002216 -0.001348 -0.000190
v 0.002216 -0.001725 0.000326
v 0.002216 -0.001486 0.000464
v 0.002216 -0.001225 -0.000119
v 0.002216 -0.001223 0.000550
v 0.002216 -0.001090 -0.000075
v 0.002216 -0.000948 0.000579
v 0.002855 -0.000948 0.000579
v 0.002855 -0.002898 -0.001008
v 0.002855 -0.002898 -0.000369
v 0.002855 -0.003995 -0.000369
v 0.002855 -0.003995 -0.001008
v 0.002855 -0.002622 -0.000979
v 0.002855 -0.002756 -0.000354
v 0.002855 -0.002359 -0.000893
v 0.002855 -0.002620 -0.000310
v 0.002855 -0.002120 -0.000754
v 0.002855 -0.002497 -0.000238
v 0.002855 -0.001348 -0.000190
v 0.002855 -0.001486 0.000464
v 0.002855 -0.001725 0.000326
v 0.002855 -0.001225 -0.000119
v 0.002855 -0.001090 -0.000075
v 0.002855 -0.001223 0.000550
v -0.002316 0.007812 0.000480
v -0.002316 0.007812 0.000040
v -0.002756 0.007812 0.000480
v -0.002756 0.007812 0.000040
v 0.000220 0.007812 0.000480
v 0.000220 0.007812 0.000040
v -0.000220 0.007812 0.000480
v -0.000220 0.007812 0.000040
v 0.002756 0.007812 0.000480
v 0.002756 0.007812 0.000040
v 0.002316 0.007812 0.000480
v 0.002316 0.007812 0.000040
v -0.002756 -0.004269 -0.000469
v -0.002756 -0.004269 -0.000908
v -0.002316 -0.004269 -0.000908
v -0.002316 -0.004269 -0.000469
v -0.000220 -0.004269 -0.000469
v -0.000220 -0.004269 -0.000908
v 0.000220 -0.004269 -0.000908
v 0.000220 -0.004269 -0.000469
v 0.002316 -0.004269 -0.000469
v 0.002316 -0.004269 -0.000908
v 0.002756 -0.004269 -0.000908
v 0.002756 -0.004269 -0.000469
vn 0.0000 1.0000 0.0000
vn 1.0000 -0.0000 0.0000
vn 0.7071 -0.0000 0.7071
vn -0.0000 -1.0000 -0.0000
vn 0.7071 0.0000 -0.7071
vn 0.0000 0.0000 -1.0000
vn -0.7071 0.0000 -0.7071
vn -1.0000 -0.0000 0.0000
vn 0.0000 0.7071 0.7071
vn -0.7071 0.7071 0.0000
vn 0.0000 0.7071 -0.7071
vn -0.7071 -0.0000 0.7071
vn 0.0000 -0.0000 1.0000
vn 0.7071 0.7071 0.0000
vn 0.9397 0.3420 0.0000
vn 0.0000 0.3420 0.9397
vn -0.9397 0.3420 0.0000
vn 0.0000 0.3420 -0.9397
vn 0.0000 0.5020 -0.8649
vn 0.0000 0.3103 -0.9506
vn 0.0000 0.1050 -0.9945
vn 0.0000 0.5900 -0.8074
vn -0.9397 -0.3420 0.0000
vn 0.0000 -0.1050 0.9945
vn 0.0000 -0.3103 0.9506
vn 0.0000 -0.5020 0.8649
vn 0.0000 -0.5900 0.8074
vn 0.9397 -0.3420 0.0000
vn 0.0000 -0.3420 -0.9397
vn 0.0000 -0.3420 0.9397
usemtl material_0.152
s 1
f 1//1 2//1 3//1
f 1//1 3//1 4//1
f 5//2 6//2 7//2
f 5//2 7//2 8//2
f 5//2 8//2 9//2
f 10//2 5//2 9//2
f 11//2 12//2 10//2
f 11//2 10//2 9//2
f 13//1 14//1 15//1
f 16//1 17//1 18//1
f 16//1 18//1 19//1
f 20//1 16//1 19//1
f 21//1 22//1 23//1
f 21//1 23//1 24//1
f 25//1 26//1 14//1
f 25//1 14//1 13//1
f 7//1 20//1 19//1
f 27//1 21//1 24//1
f 28//1 16//1 20//1
f 28//1 25//1 13//1
f 6//1 20//1 7//1
f 29//1 30//1 31//1
f 32//1 28//1 20//1
f 33//1 24//1 34//1
f 33//1 27//1 24//1
f 35//1 29//1 21//1
f 35//1 21//1 27//1
f 36//1 25//1 28//1
f 36//1 28//1 32//1
f 11//1 32//1 12//1
f 37//1 33//1 34//1
f 11//1 36//1 32//1
f 38//1 30//1 29//1
f 38//1 29//1 35//1
f 39//1 37//1 34//1
f 40//1 33//1 37//1
f 41//1 39//1 42//1
f 41//1 37//1 39//1
f 43//1 40//1 37//1
f 44//1 41//1 42//1
f 45//1 35//1 40//1
f 45//1 38//1 35//1
f 45//1 40//1 43//1
f 45//1 43//1 46//1
f 47//1 46//1 43//1
f 48//1 42//1 49//1
f 48//1 44//1 42//1
f 50//1 47//1 41//1
f 50//1 41//1 44//1
f 51//1 48//1 49//1
f 52//1 46//1 47//1
f 52//1 47//1 50//1
f 53//1 51//1 49//1
f 54//1 48//1 51//1
f 15//1 51//1 53//1
f 15//1 53//1 18//1
f 55//1 54//1 51//1
f 17//1 15//1 18//1
f 56//1 54//1 55//1
f 56//1 52//1 50//1
f 56//1 55//1 26//1
f 56//1 50//1 54//1
f 14//1 26//1 55//1
f 13//1 15//1 17//1
f 10//1 57//1 58//1
f 10//1 58//1 5//1
f 59//3 60//3 61//3
f 19//3 60//3 59//3
f 7//3 59//3 8//3
f 7//3 19//3 59//3
f 62//4 63//4 64//4
f 65//4 66//4 62//4
f 67//4 66//4 65//4
f 62//4 66//4 63//4
f 68//4 69//4 63//4
f 63//4 69//4 64//4
f 68//4 70//4 69//4
f 70//4 71//4 72//4
f 73//4 74//4 68//4
f 68//4 74//4 70//4
f 66//4 75//4 73//4
f 67//4 75//4 66//4
f 73//4 75//4 74//4
f 76//4 77//4 74//4
f 70//4 77//4 71//4
f 74//4 77//4 70//4
f 78//4 79//4 71//4
f 71//4 79//4 72//4
f 78//4 80//4 79//4
f 80//4 81//4 82//4
f 77//4 83//4 84//4
f 76//4 83//4 77//4
f 84//4 85//4 78//4
f 83//4 85//4 84//4
f 78//4 85//4 80//4
f 86//4 87//4 85//4
f 80//4 87//4 81//4
f 85//4 87//4 80//4
f 81//4 88//4 82//4
f 88//4 59//4 82//4
f 88//4 8//4 59//4
f 86//4 89//4 87//4
f 89//4 9//4 88//4
f 88//4 9//4 8//4
f 86//4 90//4 89//4
f 89//4 90//4 9//4
f 90//5 91//5 92//5
f 11//5 9//5 90//5
f 36//5 11//5 90//5
f 36//5 90//5 92//5
f 25//6 92//6 93//6
f 25//6 36//6 92//6
f 86//7 93//7 94//7
f 25//7 93//7 86//7
f 26//7 86//7 85//7
f 26//7 25//7 86//7
f 83//5 95//5 96//5
f 26//5 85//5 83//5
f 56//5 26//5 83//5
f 56//5 83//5 96//5
f 52//6 96//6 97//6
f 52//6 56//6 96//6
f 76//7 97//7 98//7
f 52//7 97//7 76//7
f 46//7 76//7 74//7
f 46//7 52//7 76//7
f 75//5 99//5 100//5
f 46//5 74//5 75//5
f 45//5 46//5 75//5
f 45//5 75//5 100//5
f 38//6 100//6 101//6
f 38//6 45//6 100//6
f 67//7 101//7 102//7
f 38//7 101//7 67//7
f 30//7 67//7 65//7
f 30//7 38//7 67//7
f 103//8 31//8 30//8
f 103//8 30//8 65//8
f 104//8 65//8 62//8
f 104//8 103//8 65//8
f 23//8 22//8 104//8
f 23//8 104//8 62//8
f 105//9 29//9 31//9
f 103//9 105//9 31//9
f 105//10 21//10 29//10
f 105//10 106//10 21//10
f 106//11 22//11 21//11
f 106//11 104//11 22//11
f 64//12 107//12 108//12
f 23//12 62//12 64//12
f 24//12 23//12 64//12
f 24//12 64//12 108//12
f 34//13 108//13 109//13
f 34//13 24//13 108//13
f 69//3 109//3 110//3
f 34//3 109//3 69//3
f 39//3 69//3 70//3
f 39//3 34//3 69//3
f 72//12 111//12 112//12
f 39//12 70//12 72//12
f 42//12 39//12 72//12
f 42//12 72//12 112//12
f 49//13 112//13 113//13
f 49//13 42//13 112//13
f 79//3 113//3 114//3
f 49//3 113//3 79//3
f 53//3 79//3 80//3
f 53//3 49//3 79//3
f 82//12 115//12 116//12
f 53//12 80//12 82//12
f 18//12 53//12 82//12
f 18//12 82//12 116//12
f 19//13 116//13 60//13
f 19//13 18//13 116//13
f 117//11 118//11 37//11
f 117//11 37//11 41//11
f 118//14 43//14 37//14
f 118//14 119//14 43//14
f 119//9 120//9 47//9
f 119//9 47//9 43//9
f 116//4 61//4 60//4
f 115//4 61//4 116//4
f 82//6 59//6 115//6
f 115//6 59//6 61//6
f 107//6 69//6 110//6
f 64//6 69//6 107//6
f 99//13 67//13 102//13
f 75//13 67//13 99//13
f 95//13 76//13 98//13
f 83//13 76//13 95//13
f 91//13 86//13 94//13
f 90//13 86//13 91//13
f 111//6 79//6 114//6
f 72//6 79//6 111//6
f 93//4 91//4 94//4
f 92//4 91//4 93//4
f 98//4 96//4 95//4
f 97//4 96//4 98//4
f 102//4 100//4 99//4
f 101//4 100//4 102//4
f 105//1 104//1 106//1
f 105//1 103//1 104//1
f 108//4 110//4 109//4
f 107//4 110//4 108//4
f 112//4 114//4 113//4
f 111//4 114//4 112//4
f 120//1 118//1 117//1
f 120//1 119//1 118//1
f 2//9 1//9 14//9
f 2//9 14//9 55//9
f 3//14 55//14 51//14
f 3//14 2//14 55//14
f 4//11 3//11 51//11
f 4//11 51//11 15//11
f 120//10 41//10 47//10
f 120//10 117//10 41//10
f 57//9 12//9 32//9
f 57//9 10//9 12//9
f 58//14 32//14 20//14
f 58//14 57//14 32//14
f 58//11 20//11 6//11
f 5//11 58//11 6//11
f 1//10 15//10 14//10
f 1//10 4//10 15//10
usemtl material_1.148
f 121//2 33//2 40//2
f 121//2 122//2 33//2
f 122//13 27//13 33//13
f 122//13 123//13 27//13
f 123//8 35//8 27//8
f 123//8 124//8 35//8
f 124//6 40//6 35//6
f 124//6 121//6 40//6
f 125//2 48//2 54//2
f 125//2 126//2 48//2
f 126//13 44//13 48//13
f 126//13 127//13 44//13
f 127//8 50//8 44//8
f 127//8 128//8 50//8
f 128//6 54//6 50//6
f 128//6 125//6 54//6
f 129//2 16//2 28//2
f 129//2 130//2 16//2
f 130//13 17//13 16//13
f 130//13 131//13 17//13
f 131//8 13//8 17//8
f 131//8 132//8 13//8
f 132//6 28//6 13//6
f 132//6 129//6 28//6
f 66//6 133//6 134//6
f 66//6 73//6 133//6
f 135//8 136//8 137//8
f 135//8 137//8 138//8
f 139//8 140//8 136//8
f 139//8 141//8 140//8
f 139//8 136//8 135//8
f 142//8 141//8 139//8
f 143//8 141//8 142//8
f 144//8 143//8 142//8
f 145//8 143//8 144//8
f 146//8 145//8 144//8
f 147//8 148//8 145//8
f 147//8 145//8 146//8
f 149//8 150//8 148//8
f 149//8 148//8 147//8
f 151//8 134//8 150//8
f 151//8 150//8 149//8
f 63//8 66//8 134//8
f 63//8 134//8 151//8
f 68//13 151//13 152//13
f 68//13 63//13 151//13
f 153//2 154//2 155//2
f 153//2 155//2 156//2
f 157//2 158//2 154//2
f 157//2 154//2 153//2
f 159//2 160//2 158//2
f 159//2 158//2 157//2
f 161//2 162//2 160//2
f 161//2 160//2 159//2
f 163//2 164//2 165//2
f 163//2 165//2 162//2
f 163//2 162//2 161//2
f 166//2 164//2 163//2
f 167//2 168//2 164//2
f 167//2 164//2 166//2
f 133//2 152//2 168//2
f 133//2 168//2 167//2
f 73//2 68//2 152//2
f 73//2 152//2 133//2
f 77//6 169//6 170//6
f 77//6 84//6 169//6
f 171//8 172//8 173//8
f 171//8 173//8 174//8
f 175//8 176//8 172//8
f 175//8 177//8 176//8
f 175//8 172//8 171//8
f 178//8 177//8 175//8
f 179//8 177//8 178//8
f 180//8 179//8 178//8
f 181//8 179//8 180//8
f 182//8 181//8 180//8
f 183//8 184//8 181//8
f 183//8 181//8 182//8
f 185//8 186//8 184//8
f 185//8 184//8 183//8
f 187//8 170//8 186//8
f 187//8 186//8 185//8
f 71//8 77//8 170//8
f 71//8 170//8 187//8
f 78//13 187//13 188//13
f 78//13 71//13 187//13
f 189//2 190//2 191//2
f 189//2 191//2 192//2
f 193//2 194//2 190//2
f 193//2 190//2 189//2
f 195//2 196//2 194//2
f 195//2 194//2 193//2
f 197//2 198//2 196//2
f 197//2 196//2 195//2
f 199//2 200//2 201//2
f 199//2 201//2 198//2
f 199//2 198//2 197//2
f 202//2 200//2 199//2
f 203//2 204//2 200//2
f 203//2 200//2 202//2
f 169//2 188//2 204//2
f 169//2 204//2 203//2
f 84//2 78//2 188//2
f 84//2 188//2 169//2
f 87//6 205//6 206//6
f 87//6 89//6 205//6
f 207//8 208//8 209//8
f 207//8 209//8 210//8
f 211//8 212//8 208//8
f 211//8 213//8 212//8
f 211//8 208//8 207//8
f 214//8 213//8 211//8
f 215//8 213//8 214//8
f 216//8 215//8 214//8
f 217//8 215//8 216//8
f 218//8 217//8 216//8
f 219//8 220//8 217//8
f 219//8 217//8 218//8
f 221//8 222//8 220//8
f 221//8 220//8 219//8
f 223//8 206//8 222//8
f 223//8 222//8 221//8
f 81//8 87//8 206//8
f 81//8 206//8 223//8
f 88//13 223//13 224//13
f 88//13 81//13 223//13
f 225//2 226//2 227//2
f 225//2 227//2 228//2
f 229//2 230//2 226//2
f 229//2 226//2 225//2
f 231//2 232//2 230//2
f 231//2 230//2 229//2
f 233//2 234//2 232//2
f 233//2 232//2 231//2
f 235//2 236//2 237//2
f 235//2 237//2 234//2
f 235//2 234//2 233//2
f 238//2 236//2 235//2
f 239//2 240//2 236//2
f 239//2 236//2 238//2
f 205//2 224//2 240//2
f 205//2 240//2 239//2
f 89//2 88//2 224//2
f 89//2 224//2 205//2
f 121//15 241//15 122//15
f 242//15 241//15 121//15
f 241//16 123//16 122//16
f 241//16 243//16 123//16
f 243//17 124//17 123//17
f 243//17 244//17 124//17
f 244//18 121//18 124//18
f 244//18 242//18 121//18
f 125//15 245//15 126//15
f 246//15 245//15 125//15
f 245//16 127//16 126//16
f 245//16 247//16 127//16
f 247//17 128//17 127//17
f 247//17 248//17 128//17
f 248//18 125//18 128//18
f 248//18 246//18 125//18
f 129//15 249//15 130//15
f 250//15 249//15 129//15
f 249//16 131//16 130//16
f 249//16 251//16 131//16
f 251//17 132//17 131//17
f 251//17 252//17 132//17
f 252//18 129//18 132//18
f 252//18 250//18 129//18
f 163//19 148//19 166//19
f 145//19 148//19 163//19
f 166//20 150//20 167//20
f 148//20 150//20 166//20
f 167//21 134//21 133//21
f 150//21 134//21 167//21
f 145//22 161//22 143//22
f 145//22 163//22 161//22
f 157//21 153//21 136//21
f 157//21 136//21 140//21
f 159//20 140//20 141//20
f 159//20 157//20 140//20
f 161//19 141//19 143//19
f 161//19 159//19 141//19
f 136//6 156//6 137//6
f 136//6 153//6 156//6
f 137//23 253//23 138//23
f 254//23 253//23 137//23
f 154//13 138//13 155//13
f 154//13 135//13 138//13
f 135//24 158//24 139//24
f 154//24 158//24 135//24
f 139//25 160//25 142//25
f 158//25 160//25 139//25
f 142//26 162//26 144//26
f 160//26 162//26 142//26
f 165//27 144//27 162//27
f 165//27 146//27 144//27
f 147//26 146//26 165//26
f 147//26 165//26 164//26
f 149//25 164//25 168//25
f 149//25 147//25 164//25
f 151//24 168//24 152//24
f 151//24 149//24 168//24
f 155//28 255//28 156//28
f 256//28 255//28 155//28
f 199//19 184//19 202//19
f 181//19 184//19 199//19
f 202//20 186//20 203//20
f 184//20 186//20 202//20
f 203//21 170//21 169//21
f 186//21 170//21 203//21
f 181//22 197//22 179//22
f 181//22 199//22 197//22
f 193//21 189//21 172//21
f 193//21 172//21 176//21
f 195//20 176//20 177//20
f 195//20 193//20 176//20
f 197//19 177//19 179//19
f 197//19 195//19 177//19
f 172//6 192//6 173//6
f 172//6 189//6 192//6
f 173//23 257//23 174//23
f 258//23 257//23 173//23
f 190//13 174//13 191//13
f 190//13 171//13 174//13
f 171//24 194//24 175//24
f 190//24 194//24 171//24
f 175//25 196//25 178//25
f 194//25 196//25 175//25
f 178//26 198//26 180//26
f 196//26 198//26 178//26
f 201//27 180//27 198//27
f 201//27 182//27 180//27
f 183//26 182//26 201//26
f 183//26 201//26 200//26
f 185//25 200//25 204//25
f 185//25 183//25 200//25
f 187//24 204//24 188//24
f 187//24 185//24 204//24
f 191//28 259//28 192//28
f 260//28 259//28 191//28
f 235//19 220//19 238//19
f 217//19 220//19 235//19
f 238//20 222//20 239//20
f 220//20 222//20 238//20
f 239//21 206//21 205//21
f 222//21 206//21 239//21
f 217//22 233//22 215//22
f 217//22 235//22 233//22
f 229//21 225//21 208//21
f 229//21 208//21 212//21
f 231//20 212//20 213//20
f 231//20 229//20 212//20
f 233//19 213//19 215//19
f 233//19 231//19 213//19
f 208//6 228//6 209//6
f 208//6 225//6 228//6
f 209//23 261//23 210//23
f 262//23 261//23 209//23
f 226//13 210//13 227//13
f 226//13 207//13 210//13
f 207//24 230//24 211//24
f 226//24 230//24 207//24
f 211//25 232//25 214//25
f 230//25 232//25 211//25
f 214//26 234//26 216//26
f 232//26 234//26 214//26
f 237//27 216//27 234//27
f 237//27 218//27 216//27
f 219//26 218//26 237//26
f 219//26 237//26 236//26
f 221//25 236//25 240//25
f 221//25 219//25 236//25
f 223//24 240//24 224//24
f 223//24 221//24 240//24
f 227//28 263//28 228//28
f 264//28 263//28 227//28
f 242//1 244//1 243//1
f 242//1 243//1 241//1
f 246//1 248//1 247//1
f 246//1 247//1 245//1
f 250//1 252//1 251//1
f 250//1 251//1 249//1
f 156//29 254//29 137//29
f 255//29 254//29 156//29
f 253//4 255//4 256//4
f 254//4 255//4 253//4
f 138//30 256//30 155//30
f 253//30 256//30 138//30
f 192//29 258//29 173//29
f 259//29 258//29 192//29
f 257//4 259//4 260//4
f 258//4 259//4 257//4
f 174//30 260//30 191//30
f 257//30 260//30 174//30
f 228//29 262//29 209//29
f 263//29 262//29 228//29
f 261//4 263//4 264//4
f 262//4 263//4 261//4
f 210//30 264//30 227//30
f 261//30 264//30 210//30
