# Blender v2.81 (sub 16) OBJ File: ''
# www.blender.org
mtllib DS1069-7 CWF-7.mtl
o DS1069-7_CWF-7
v -0.010720 -0.001658 0.001542
v -0.010602 -0.001658 0.001424
v -0.011567 -0.001658 0.001261
v -0.010460 -0.001658 0.001335
v -0.011567 -0.001658 0.000017
v -0.010809 -0.001658 0.001683
v -0.010303 -0.001658 0.001280
v -0.010864 -0.001658 0.001841
v -0.012437 -0.001658 0.001261
v -0.010883 -0.001658 0.002007
v -0.010137 -0.001658 0.001261
v -0.007773 -0.001658 0.001261
v -0.012437 -0.001658 0.006236
v -0.010883 -0.001658 0.005241
v -0.010883 -0.001658 0.006236
v -0.010385 -0.001658 0.005738
v 0.010137 -0.001658 0.001261
v 0.011567 -0.001658 0.000017
v 0.007773 -0.001658 0.001261
v 0.010303 -0.001658 0.001280
v 0.010460 -0.001658 0.001335
v 0.010602 -0.001658 0.001424
v 0.011567 -0.001658 0.001261
v 0.010720 -0.001658 0.001542
v 0.010809 -0.001658 0.001683
v 0.010864 -0.001658 0.001841
v 0.010883 -0.001658 0.002007
v 0.012437 -0.001658 0.001261
v -0.007773 -0.001658 0.006236
v 0.007773 -0.001658 0.006236
v 0.010883 -0.001658 0.005241
v 0.010385 -0.001658 0.005738
v 0.010883 -0.001658 0.006236
v 0.012437 -0.001658 0.006236
v -0.007773 -0.002529 0.006236
v 0.007773 -0.002529 0.006236
v 0.010883 -0.002529 0.006236
v 0.012437 -0.002529 0.006236
v 0.005162 -0.002529 -0.001973
v 0.004167 -0.002529 -0.001973
v 0.004167 -0.002529 -0.002470
v -0.010385 -0.002529 -0.001973
v -0.012437 -0.002529 -0.002470
v -0.010385 -0.002529 -0.002470
v 0.005162 -0.002529 -0.002470
v -0.007276 -0.002529 -0.001973
v -0.008271 -0.002529 -0.001973
v -0.008271 -0.002529 -0.002470
v 0.008271 -0.002529 -0.001973
v 0.007276 -0.002529 -0.001973
v 0.007276 -0.002529 -0.002470
v -0.007276 -0.002529 -0.002470
v 0.008271 -0.002529 -0.002470
v -0.010602 -0.002529 0.001424
v 0.007773 -0.002529 0.001261
v 0.002052 -0.002529 -0.001973
v -0.010720 -0.002529 0.001542
v -0.010809 -0.002529 0.001683
v 0.012437 -0.002529 -0.002470
v 0.010385 -0.002529 -0.001973
v 0.010385 -0.002529 -0.002470
v 0.010137 -0.002529 0.001261
v -0.010460 -0.002529 0.001335
v -0.010864 -0.002529 0.001841
v 0.010303 -0.002529 0.001280
v -0.010303 -0.002529 0.001280
v 0.010460 -0.002529 0.001335
v 0.010602 -0.002529 0.001424
v -0.010137 -0.002529 0.001261
v 0.010720 -0.002529 0.001542
v -0.010883 -0.002529 0.002007
v 0.010809 -0.002529 0.001683
v 0.010864 -0.002529 0.001841
v 0.010883 -0.002529 0.002007
v -0.007773 -0.002529 0.001261
v -0.005162 -0.002529 -0.001973
v -0.001057 -0.002529 -0.001973
v 0.001057 -0.002529 -0.001973
v -0.012437 -0.002529 0.006236
v -0.004167 -0.002529 -0.001973
v -0.005162 -0.002529 -0.002470
v -0.004167 -0.002529 -0.002470
v -0.010883 -0.002529 0.005241
v 0.010385 -0.002529 0.005738
v 0.010883 -0.002529 0.005241
v -0.010883 -0.002529 0.006236
v -0.010385 -0.002529 0.005738
v -0.002052 -0.002529 -0.001973
v -0.002052 -0.002529 -0.002470
v -0.001057 -0.002529 -0.002470
v 0.001057 -0.002529 -0.002470
v 0.002052 -0.002529 -0.002470
v 0.012437 -0.000290 0.001261
v 0.012437 0.004622 -0.002470
v 0.012437 0.004622 0.006236
v 0.012437 -0.000290 0.006236
v 0.011567 -0.000290 0.001261
v 0.011567 0.003752 0.000017
v 0.011567 0.003752 0.005863
v 0.011567 -0.000290 0.005863
v -0.009726 0.000605 0.000017
v -0.009726 -0.000191 0.000017
v -0.008930 -0.000191 0.000017
v -0.011567 0.003752 0.000017
v -0.008930 0.000605 0.000017
v -0.006617 -0.000191 0.000017
v -0.005821 -0.000191 0.000017
v -0.006617 0.000605 0.000017
v -0.005821 0.000605 0.000017
v -0.003507 -0.000191 0.000017
v -0.003507 0.000605 0.000017
v -0.002711 -0.000191 0.000017
v -0.002711 0.000605 0.000017
v -0.000398 -0.000191 0.000017
v -0.000398 0.000605 0.000017
v 0.000398 -0.000191 0.000017
v 0.002711 0.000605 0.000017
v 0.000398 0.000605 0.000017
v 0.002711 -0.000191 0.000017
v 0.005821 0.000605 0.000017
v 0.003507 0.000605 0.000017
v 0.003507 -0.000191 0.000017
v 0.005821 -0.000191 0.000017
v 0.008930 0.000605 0.000017
v 0.006617 0.000605 0.000017
v 0.006617 -0.000191 0.000017
v 0.008930 -0.000191 0.000017
v 0.009726 -0.000191 0.000017
v 0.009726 0.000605 0.000017
v -0.011567 -0.000290 0.001261
v -0.011567 0.003752 0.005863
v -0.011567 -0.000290 0.005863
v -0.012437 -0.000290 0.001261
v -0.012437 0.004622 -0.002470
v -0.012437 0.004622 0.006236
v -0.012437 -0.000290 0.006236
v -0.010385 0.004622 -0.002470
v -0.010385 0.004622 -0.001973
v -0.009726 -0.000191 -0.001973
v -0.008930 -0.000191 -0.001973
v -0.008930 0.000605 -0.001973
v -0.009726 0.000605 -0.001973
v -0.008271 0.004622 -0.001973
v -0.008271 0.004622 -0.002470
v -0.007276 0.004622 -0.002470
v -0.007276 0.004622 -0.001973
v -0.006617 -0.000191 -0.001973
v -0.005821 -0.000191 -0.001973
v -0.005821 0.000605 -0.001973
v -0.006617 0.000605 -0.001973
v -0.005162 0.004622 -0.001973
v -0.005162 0.004622 -0.002470
v -0.004167 0.004622 -0.002470
v -0.004167 0.004622 -0.001973
v -0.002711 0.000605 -0.001973
v -0.002711 -0.000191 -0.001973
v -0.003507 -0.000191 -0.001973
v -0.003507 0.000605 -0.001973
v -0.002052 0.004622 -0.001973
v -0.002052 0.004622 -0.002470
v -0.001057 0.004622 -0.002470
v -0.001057 0.004622 -0.001973
v 0.000398 0.000605 -0.001973
v 0.000398 -0.000191 -0.001973
v -0.000398 -0.000191 -0.001973
v -0.000398 0.000605 -0.001973
v 0.001057 0.004622 -0.001973
v 0.001057 0.004622 -0.002470
v 0.002052 0.004622 -0.002470
v 0.002052 0.004622 -0.001973
v 0.003507 0.000605 -0.001973
v 0.003507 -0.000191 -0.001973
v 0.002711 -0.000191 -0.001973
v 0.002711 0.000605 -0.001973
v 0.004167 0.004622 -0.001973
v 0.004167 0.004622 -0.002470
v 0.005162 0.004622 -0.002470
v 0.005162 0.004622 -0.001973
v 0.006617 0.000605 -0.001973
v 0.006617 -0.000191 -0.001973
v 0.005821 -0.000191 -0.001973
v 0.005821 0.000605 -0.001973
v 0.007276 0.004622 -0.001973
v 0.007276 0.004622 -0.002470
v 0.008271 0.004622 -0.002470
v 0.008271 0.004622 -0.001973
v 0.009726 0.000605 -0.001973
v 0.009726 -0.000191 -0.001973
v 0.008930 -0.000191 -0.001973
v 0.008930 0.000605 -0.001973
v 0.010385 0.004622 -0.001973
v 0.010385 0.004622 -0.002470
v 0.011940 -0.000290 0.006236
v -0.011940 0.004125 0.006236
v -0.011940 -0.000290 0.006236
v 0.011940 0.004125 0.006236
v -0.006617 0.000605 0.005150
v -0.005821 0.000605 0.005150
v -0.005821 -0.000191 0.005150
v -0.006617 -0.000191 0.005150
v -0.003507 0.000605 0.005150
v -0.002711 0.000605 0.005150
v -0.002711 -0.000191 0.005150
v -0.003507 -0.000191 0.005150
v -0.000398 0.000605 0.005150
v 0.000398 0.000605 0.005150
v 0.000398 -0.000191 0.005150
v -0.000398 -0.000191 0.005150
v 0.002711 0.000605 0.005150
v 0.003507 0.000605 0.005150
v 0.003507 -0.000191 0.005150
v 0.002711 -0.000191 0.005150
v 0.005821 0.000605 0.005150
v 0.006617 0.000605 0.005150
v 0.006617 -0.000191 0.005150
v 0.005821 -0.000191 0.005150
v 0.008930 0.000605 0.005150
v 0.009726 0.000605 0.005150
v 0.009726 -0.000191 0.005150
v 0.008930 -0.000191 0.005150
v -0.009726 0.000605 0.005150
v -0.008930 0.000605 0.005150
v -0.008930 -0.000191 0.005150
v -0.009726 -0.000191 0.005150
v -0.008930 0.000605 -0.006359
v -0.009726 0.000605 -0.006359
v -0.009726 -0.000191 -0.006359
v -0.008930 -0.000191 -0.006359
v -0.005821 0.000605 -0.006359
v -0.006617 0.000605 -0.006359
v -0.006617 -0.000191 -0.006359
v -0.005821 -0.000191 -0.006359
v -0.002711 0.000605 -0.006359
v -0.003507 0.000605 -0.006359
v -0.003507 -0.000191 -0.006359
v -0.002711 -0.000191 -0.006359
v 0.000398 0.000605 -0.006359
v -0.000398 0.000605 -0.006359
v -0.000398 -0.000191 -0.006359
v 0.000398 -0.000191 -0.006359
v 0.003507 0.000605 -0.006359
v 0.002711 0.000605 -0.006359
v 0.002711 -0.000191 -0.006359
v 0.003507 -0.000191 -0.006359
v 0.006617 0.000605 -0.006359
v 0.005821 0.000605 -0.006359
v 0.005821 -0.000191 -0.006359
v 0.006617 -0.000191 -0.006359
v 0.009726 0.000605 -0.006359
v 0.008930 0.000605 -0.006359
v 0.008930 -0.000191 -0.006359
v 0.009726 -0.000191 -0.006359
v -0.006492 0.000481 0.005614
v -0.005945 0.000481 0.005614
v -0.005945 -0.000066 0.005614
v -0.006492 -0.000066 0.005614
v -0.003383 0.000481 0.005614
v -0.002836 0.000481 0.005614
v -0.002836 -0.000066 0.005614
v -0.003383 -0.000066 0.005614
v -0.000274 0.000481 0.005614
v 0.000274 0.000481 0.005614
v 0.000274 -0.000066 0.005614
v -0.000274 -0.000066 0.005614
v 0.003383 0.000481 0.005614
v 0.002836 0.000481 0.005614
v 0.003383 -0.000066 0.005614
v 0.002836 -0.000066 0.005614
v 0.006492 0.000481 0.005614
v 0.005945 0.000481 0.005614
v 0.006492 -0.000066 0.005614
v 0.005945 -0.000066 0.005614
v 0.009602 0.000481 0.005614
v 0.009054 0.000481 0.005614
v 0.009602 -0.000066 0.005614
v 0.009054 -0.000066 0.005614
v -0.009602 0.000481 0.005614
v -0.009054 0.000481 0.005614
v -0.009054 -0.000066 0.005614
v -0.009602 -0.000066 0.005614
v -0.009602 0.000481 -0.006823
v -0.009054 0.000481 -0.006823
v -0.009602 -0.000066 -0.006823
v -0.009054 -0.000066 -0.006823
v -0.006492 0.000481 -0.006823
v -0.005945 0.000481 -0.006823
v -0.006492 -0.000066 -0.006823
v -0.005945 -0.000066 -0.006823
v -0.003383 0.000481 -0.006823
v -0.002836 0.000481 -0.006823
v -0.003383 -0.000066 -0.006823
v -0.002836 -0.000066 -0.006823
v -0.000274 0.000481 -0.006823
v 0.000274 0.000481 -0.006823
v -0.000274 -0.000066 -0.006823
v 0.000274 -0.000066 -0.006823
v 0.002836 0.000481 -0.006823
v 0.003383 0.000481 -0.006823
v 0.002836 -0.000066 -0.006823
v 0.003383 -0.000066 -0.006823
v 0.005945 0.000481 -0.006823
v 0.006492 0.000481 -0.006823
v 0.005945 -0.000066 -0.006823
v 0.006492 -0.000066 -0.006823
v 0.009054 0.000481 -0.006823
v 0.009602 0.000481 -0.006823
v 0.009054 -0.000066 -0.006823
v 0.009602 -0.000066 -0.006823
vn 0.0000 1.0000 0.0000
vn 0.0000 0.0000 1.0000
vn 0.0000 -1.0000 0.0000
vn -0.7071 0.0000 0.7071
vn -0.7071 0.0000 -0.7071
vn -1.0000 0.0000 0.0000
vn -0.1120 0.0000 0.9937
vn -0.3303 0.0000 0.9439
vn -0.5320 -0.0000 0.8467
vn -0.8467 0.0000 0.5320
vn -0.9439 0.0000 0.3303
vn -0.9937 0.0000 0.1120
vn 1.0000 0.0000 0.0000
vn 0.7071 0.0000 0.7071
vn 0.7071 0.0000 -0.7071
vn 0.9937 0.0000 0.1120
vn 0.9439 0.0000 0.3303
vn 0.8467 0.0000 0.5320
vn 0.5320 -0.0000 0.8467
vn 0.3303 0.0000 0.9439
vn 0.1120 0.0000 0.9937
vn 0.0000 0.0000 -1.0000
vn 0.0000 -0.7071 0.7071
vn 0.0000 0.9659 0.2588
vn 0.9659 0.0000 0.2588
vn 0.0000 -0.9659 0.2588
vn -0.9659 0.0000 0.2588
vn 0.0000 0.9659 -0.2588
vn -0.9659 0.0000 -0.2588
vn 0.0000 -0.9659 -0.2588
vn 0.9659 0.0000 -0.2588
usemtl material_1.701
s 1
f 1//1 2//1 3//1
f 3//1 4//1 5//1
f 2//1 4//1 3//1
f 3//1 6//1 1//1
f 4//1 7//1 5//1
f 3//1 8//1 6//1
f 9//1 10//1 3//1
f 3//1 10//1 8//1
f 7//1 11//1 5//1
f 11//1 12//1 5//1
f 13//1 14//1 9//1
f 9//1 14//1 10//1
f 13//1 15//1 14//1
f 15//1 16//1 14//1
f 17//1 18//1 19//1
f 20//1 18//1 17//1
f 19//1 18//1 12//1
f 12//1 18//1 5//1
f 20//1 21//1 18//1
f 22//1 23//1 21//1
f 24//1 23//1 22//1
f 25//1 23//1 24//1
f 26//1 23//1 25//1
f 21//1 23//1 18//1
f 26//1 27//1 23//1
f 27//1 28//1 23//1
f 29//1 30//1 12//1
f 12//1 30//1 19//1
f 27//1 31//1 28//1
f 32//1 33//1 31//1
f 33//1 34//1 31//1
f 31//1 34//1 28//1
f 30//2 29//2 35//2
f 30//2 35//2 36//2
f 34//2 33//2 37//2
f 34//2 37//2 38//2
f 39//3 40//3 41//3
f 42//3 43//3 44//3
f 39//3 41//3 45//3
f 46//3 47//3 48//3
f 49//3 50//3 51//3
f 46//3 48//3 52//3
f 49//3 51//3 53//3
f 54//3 43//3 42//3
f 55//3 40//3 39//3
f 55//3 56//3 40//3
f 54//3 57//3 43//3
f 55//3 39//3 50//3
f 55//3 50//3 49//3
f 58//3 43//3 57//3
f 59//3 60//3 61//3
f 62//3 55//3 49//3
f 63//3 54//3 42//3
f 62//3 49//3 60//3
f 64//3 43//3 58//3
f 65//3 62//3 60//3
f 66//3 63//3 42//3
f 67//3 65//3 60//3
f 68//3 60//3 59//3
f 69//3 42//3 47//3
f 68//3 67//3 60//3
f 69//3 66//3 42//3
f 70//3 68//3 59//3
f 71//3 43//3 64//3
f 72//3 70//3 59//3
f 73//3 72//3 59//3
f 74//3 73//3 59//3
f 75//3 46//3 76//3
f 36//3 35//3 77//3
f 75//3 47//3 46//3
f 36//3 78//3 56//3
f 75//3 69//3 47//3
f 36//3 77//3 78//3
f 36//3 56//3 55//3
f 79//3 43//3 71//3
f 80//3 76//3 81//3
f 80//3 81//3 82//3
f 80//3 75//3 76//3
f 83//3 79//3 71//3
f 37//3 84//3 85//3
f 38//3 85//3 74//3
f 86//3 79//3 83//3
f 38//3 74//3 59//3
f 86//3 83//3 87//3
f 38//3 37//3 85//3
f 88//3 75//3 80//3
f 77//3 88//3 89//3
f 77//3 89//3 90//3
f 35//3 88//3 77//3
f 35//3 75//3 88//3
f 56//3 78//3 91//3
f 56//3 91//3 92//3
f 32//4 37//4 33//4
f 84//4 37//4 32//4
f 31//5 84//5 32//5
f 85//5 84//5 31//5
f 27//6 85//6 31//6
f 74//6 85//6 27//6
f 62//7 65//7 17//7
f 17//7 65//7 20//7
f 20//8 67//8 21//8
f 65//8 67//8 20//8
f 21//9 68//9 22//9
f 67//9 68//9 21//9
f 22//4 70//4 24//4
f 68//4 70//4 22//4
f 24//10 72//10 25//10
f 70//10 72//10 24//10
f 25//11 73//11 26//11
f 72//11 73//11 25//11
f 26//12 74//12 27//12
f 73//12 74//12 26//12
f 19//2 62//2 17//2
f 55//2 62//2 19//2
f 30//13 55//13 19//13
f 36//13 55//13 30//13
f 59//13 93//13 28//13
f 59//13 94//13 93//13
f 28//13 38//13 59//13
f 28//13 34//13 38//13
f 93//13 95//13 96//13
f 94//13 95//13 93//13
f 93//2 23//2 28//2
f 97//2 23//2 93//2
f 97//6 18//6 23//6
f 98//6 18//6 97//6
f 99//6 97//6 100//6
f 99//6 98//6 97//6
f 101//2 5//2 102//2
f 103//2 102//2 5//2
f 104//2 101//2 105//2
f 104//2 5//2 101//2
f 106//2 103//2 5//2
f 107//2 106//2 5//2
f 108//2 105//2 103//2
f 108//2 104//2 105//2
f 108//2 103//2 106//2
f 109//2 104//2 108//2
f 110//2 107//2 5//2
f 111//2 109//2 107//2
f 111//2 107//2 110//2
f 111//2 104//2 109//2
f 112//2 110//2 5//2
f 113//2 104//2 111//2
f 114//2 112//2 5//2
f 115//2 113//2 112//2
f 115//2 112//2 114//2
f 116//2 114//2 5//2
f 117//2 118//2 116//2
f 117//2 116//2 119//2
f 120//2 121//2 122//2
f 120//2 122//2 123//2
f 124//2 125//2 126//2
f 124//2 126//2 127//2
f 18//2 122//2 119//2
f 18//2 126//2 123//2
f 18//2 128//2 127//2
f 18//2 119//2 116//2
f 18//2 116//2 5//2
f 18//2 123//2 122//2
f 18//2 127//2 126//2
f 129//2 128//2 18//2
f 98//2 117//2 121//2
f 98//2 120//2 125//2
f 98//2 124//2 129//2
f 98//2 121//2 120//2
f 98//2 125//2 124//2
f 98//2 129//2 18//2
f 98//2 104//2 113//2
f 98//2 113//2 115//2
f 98//2 115//2 118//2
f 98//2 118//2 117//2
f 5//13 130//13 3//13
f 5//13 104//13 130//13
f 130//13 131//13 132//13
f 104//13 131//13 130//13
f 130//2 9//2 3//2
f 133//2 9//2 130//2
f 133//6 43//6 9//6
f 134//6 43//6 133//6
f 79//6 9//6 43//6
f 13//6 9//6 79//6
f 135//6 133//6 136//6
f 135//6 134//6 133//6
f 15//2 13//2 79//2
f 15//2 79//2 86//2
f 15//14 87//14 16//14
f 86//14 87//14 15//14
f 16//15 83//15 14//15
f 87//15 83//15 16//15
f 14//13 71//13 10//13
f 83//13 71//13 14//13
f 71//16 64//16 10//16
f 10//16 64//16 8//16
f 8//17 58//17 6//17
f 64//17 58//17 8//17
f 6//18 57//18 1//18
f 58//18 57//18 6//18
f 1//14 54//14 2//14
f 57//14 54//14 1//14
f 2//19 63//19 4//19
f 54//19 63//19 2//19
f 4//20 66//20 7//20
f 63//20 66//20 4//20
f 7//21 69//21 11//21
f 66//21 69//21 7//21
f 11//2 75//2 12//2
f 69//2 75//2 11//2
f 12//6 35//6 29//6
f 75//6 35//6 12//6
f 43//22 137//22 44//22
f 134//22 137//22 43//22
f 42//13 137//13 138//13
f 44//13 137//13 42//13
f 139//22 47//22 42//22
f 139//22 140//22 47//22
f 141//22 47//22 140//22
f 142//22 139//22 42//22
f 138//22 141//22 142//22
f 138//22 143//22 141//22
f 143//22 47//22 141//22
f 42//22 138//22 142//22
f 144//6 48//6 143//6
f 143//6 48//6 47//6
f 48//22 145//22 52//22
f 144//22 145//22 48//22
f 46//13 145//13 146//13
f 52//13 145//13 46//13
f 147//22 76//22 46//22
f 147//22 148//22 76//22
f 149//22 76//22 148//22
f 150//22 147//22 46//22
f 146//22 149//22 150//22
f 146//22 151//22 149//22
f 46//22 146//22 150//22
f 151//22 76//22 149//22
f 151//6 81//6 76//6
f 152//6 81//6 151//6
f 81//22 152//22 82//22
f 152//22 153//22 82//22
f 80//13 153//13 154//13
f 82//13 153//13 80//13
f 155//22 88//22 156//22
f 157//22 88//22 80//22
f 157//22 156//22 88//22
f 158//22 157//22 80//22
f 154//22 155//22 158//22
f 154//22 159//22 155//22
f 80//22 154//22 158//22
f 159//22 88//22 155//22
f 159//6 89//6 88//6
f 160//6 89//6 159//6
f 160//22 161//22 89//22
f 89//22 161//22 90//22
f 77//13 161//13 162//13
f 90//13 161//13 77//13
f 163//22 78//22 164//22
f 165//22 78//22 77//22
f 165//22 164//22 78//22
f 166//22 165//22 77//22
f 162//22 163//22 166//22
f 162//22 167//22 163//22
f 77//22 162//22 166//22
f 167//22 78//22 163//22
f 167//6 91//6 78//6
f 168//6 91//6 167//6
f 168//22 169//22 91//22
f 91//22 169//22 92//22
f 56//13 169//13 170//13
f 92//13 169//13 56//13
f 171//22 40//22 172//22
f 173//22 40//22 56//22
f 173//22 172//22 40//22
f 174//22 173//22 56//22
f 170//22 171//22 174//22
f 170//22 175//22 171//22
f 56//22 170//22 174//22
f 175//22 40//22 171//22
f 175//6 41//6 40//6
f 176//6 41//6 175//6
f 176//22 177//22 41//22
f 41//22 177//22 45//22
f 39//13 177//13 178//13
f 45//13 177//13 39//13
f 179//22 50//22 180//22
f 181//22 50//22 39//22
f 181//22 180//22 50//22
f 182//22 181//22 39//22
f 178//22 179//22 182//22
f 178//22 183//22 179//22
f 39//22 178//22 182//22
f 183//22 50//22 179//22
f 183//6 51//6 50//6
f 184//6 51//6 183//6
f 184//22 185//22 51//22
f 51//22 185//22 53//22
f 49//13 185//13 186//13
f 53//13 185//13 49//13
f 187//22 60//22 188//22
f 189//22 60//22 49//22
f 189//22 188//22 60//22
f 190//22 189//22 49//22
f 186//22 187//22 190//22
f 186//22 191//22 187//22
f 49//22 186//22 190//22
f 191//22 60//22 187//22
f 191//6 61//6 60//6
f 192//6 61//6 191//6
f 192//22 94//22 61//22
f 61//22 94//22 59//22
f 193//3 100//3 96//3
f 100//3 93//3 96//3
f 100//3 97//3 93//3
f 191//1 94//1 192//1
f 183//1 186//1 185//1
f 183//1 185//1 184//1
f 95//1 191//1 186//1
f 95//1 183//1 178//1
f 95//1 94//1 191//1
f 95//1 186//1 183//1
f 175//1 178//1 177//1
f 175//1 177//1 176//1
f 175//1 95//1 178//1
f 170//1 95//1 175//1
f 167//1 170//1 169//1
f 167//1 169//1 168//1
f 167//1 95//1 170//1
f 159//1 162//1 161//1
f 159//1 161//1 160//1
f 152//1 154//1 153//1
f 151//1 154//1 152//1
f 143//1 146//1 145//1
f 143//1 145//1 144//1
f 134//1 138//1 137//1
f 135//1 151//1 146//1
f 135//1 143//1 138//1
f 135//1 167//1 162//1
f 135//1 159//1 154//1
f 135//1 95//1 167//1
f 135//1 162//1 159//1
f 135//1 154//1 151//1
f 135//1 146//1 143//1
f 135//1 138//1 134//1
f 194//2 136//2 195//2
f 135//2 136//2 194//2
f 196//2 193//2 96//2
f 95//2 196//2 96//2
f 95//2 135//2 194//2
f 95//2 194//2 196//2
f 99//4 193//4 196//4
f 99//4 100//4 193//4
f 98//3 131//3 104//3
f 99//3 131//3 98//3
f 195//14 131//14 194//14
f 132//14 131//14 195//14
f 195//3 136//3 132//3
f 132//3 133//3 130//3
f 136//3 133//3 132//3
f 131//23 196//23 194//23
f 131//23 99//23 196//23
usemtl material_0.713
f 197//1 198//1 109//1
f 197//1 109//1 108//1
f 198//13 199//13 107//13
f 198//13 107//13 109//13
f 199//3 200//3 106//3
f 199//3 106//3 107//3
f 200//6 197//6 108//6
f 200//6 108//6 106//6
f 201//1 202//1 113//1
f 201//1 113//1 111//1
f 202//13 203//13 112//13
f 202//13 112//13 113//13
f 203//3 204//3 110//3
f 203//3 110//3 112//3
f 204//6 201//6 111//6
f 204//6 111//6 110//6
f 205//1 206//1 118//1
f 205//1 118//1 115//1
f 206//13 207//13 116//13
f 206//13 116//13 118//13
f 207//3 208//3 114//3
f 207//3 114//3 116//3
f 208//6 205//6 115//6
f 208//6 115//6 114//6
f 209//1 210//1 121//1
f 209//1 121//1 117//1
f 210//13 211//13 122//13
f 210//13 122//13 121//13
f 211//3 212//3 119//3
f 211//3 119//3 122//3
f 212//6 209//6 117//6
f 212//6 117//6 119//6
f 213//1 214//1 125//1
f 213//1 125//1 120//1
f 214//13 215//13 126//13
f 214//13 126//13 125//13
f 215//3 216//3 123//3
f 215//3 123//3 126//3
f 216//6 213//6 120//6
f 216//6 120//6 123//6
f 217//1 218//1 129//1
f 217//1 129//1 124//1
f 218//13 219//13 128//13
f 218//13 128//13 129//13
f 219//3 220//3 127//3
f 219//3 127//3 128//3
f 220//6 217//6 124//6
f 220//6 124//6 127//6
f 221//1 222//1 105//1
f 221//1 105//1 101//1
f 222//13 223//13 103//13
f 222//13 103//13 105//13
f 223//3 224//3 102//3
f 223//3 102//3 103//3
f 224//6 221//6 101//6
f 224//6 101//6 102//6
f 142//1 225//1 226//1
f 142//1 141//1 225//1
f 139//6 226//6 227//6
f 139//6 142//6 226//6
f 140//3 227//3 228//3
f 140//3 139//3 227//3
f 141//13 228//13 225//13
f 141//13 140//13 228//13
f 150//1 229//1 230//1
f 150//1 149//1 229//1
f 147//6 230//6 231//6
f 147//6 150//6 230//6
f 148//3 231//3 232//3
f 148//3 147//3 231//3
f 149//13 232//13 229//13
f 149//13 148//13 232//13
f 158//1 233//1 234//1
f 158//1 155//1 233//1
f 157//6 234//6 235//6
f 157//6 158//6 234//6
f 156//3 235//3 236//3
f 156//3 157//3 235//3
f 155//13 236//13 233//13
f 155//13 156//13 236//13
f 166//1 237//1 238//1
f 166//1 163//1 237//1
f 165//6 238//6 239//6
f 165//6 166//6 238//6
f 164//3 239//3 240//3
f 164//3 165//3 239//3
f 163//13 240//13 237//13
f 163//13 164//13 240//13
f 174//1 241//1 242//1
f 174//1 171//1 241//1
f 173//6 242//6 243//6
f 173//6 174//6 242//6
f 172//3 243//3 244//3
f 172//3 173//3 243//3
f 171//13 244//13 241//13
f 171//13 172//13 244//13
f 182//1 245//1 246//1
f 182//1 179//1 245//1
f 181//6 246//6 247//6
f 181//6 182//6 246//6
f 180//3 247//3 248//3
f 180//3 181//3 247//3
f 179//13 248//13 245//13
f 179//13 180//13 248//13
f 190//1 249//1 250//1
f 190//1 187//1 249//1
f 189//6 250//6 251//6
f 189//6 190//6 250//6
f 188//3 251//3 252//3
f 188//3 189//3 251//3
f 187//13 252//13 249//13
f 187//13 188//13 252//13
f 253//24 198//24 197//24
f 253//24 254//24 198//24
f 254//25 199//25 198//25
f 254//25 255//25 199//25
f 255//26 200//26 199//26
f 255//26 256//26 200//26
f 256//27 197//27 200//27
f 256//27 253//27 197//27
f 257//24 202//24 201//24
f 257//24 258//24 202//24
f 258//25 203//25 202//25
f 258//25 259//25 203//25
f 259//26 204//26 203//26
f 259//26 260//26 204//26
f 260//27 201//27 204//27
f 260//27 257//27 201//27
f 261//24 206//24 205//24
f 261//24 262//24 206//24
f 262//25 207//25 206//25
f 262//25 263//25 207//25
f 263//26 208//26 207//26
f 263//26 264//26 208//26
f 264//27 205//27 208//27
f 264//27 261//27 205//27
f 209//24 265//24 210//24
f 266//24 265//24 209//24
f 265//25 211//25 210//25
f 265//25 267//25 211//25
f 211//26 268//26 212//26
f 267//26 268//26 211//26
f 268//27 209//27 212//27
f 268//27 266//27 209//27
f 213//24 269//24 214//24
f 270//24 269//24 213//24
f 269//25 215//25 214//25
f 269//25 271//25 215//25
f 215//26 272//26 216//26
f 271//26 272//26 215//26
f 272//27 213//27 216//27
f 272//27 270//27 213//27
f 217//24 273//24 218//24
f 274//24 273//24 217//24
f 273//25 219//25 218//25
f 273//25 275//25 219//25
f 219//26 276//26 220//26
f 275//26 276//26 219//26
f 276//27 217//27 220//27
f 276//27 274//27 217//27
f 277//24 222//24 221//24
f 277//24 278//24 222//24
f 278//25 223//25 222//25
f 278//25 279//25 223//25
f 279//26 224//26 223//26
f 279//26 280//26 224//26
f 280//27 221//27 224//27
f 280//27 277//27 221//27
f 225//28 281//28 226//28
f 282//28 281//28 225//28
f 226//29 283//29 227//29
f 281//29 283//29 226//29
f 227//30 284//30 228//30
f 283//30 284//30 227//30
f 228//31 282//31 225//31
f 284//31 282//31 228//31
f 229//28 285//28 230//28
f 286//28 285//28 229//28
f 230//29 287//29 231//29
f 285//29 287//29 230//29
f 231//30 288//30 232//30
f 287//30 288//30 231//30
f 232//31 286//31 229//31
f 288//31 286//31 232//31
f 233//28 289//28 234//28
f 290//28 289//28 233//28
f 234//29 291//29 235//29
f 289//29 291//29 234//29
f 235//30 292//30 236//30
f 291//30 292//30 235//30
f 236//31 290//31 233//31
f 292//31 290//31 236//31
f 237//28 293//28 238//28
f 294//28 293//28 237//28
f 238//29 295//29 239//29
f 293//29 295//29 238//29
f 239//30 296//30 240//30
f 295//30 296//30 239//30
f 240//31 294//31 237//31
f 296//31 294//31 240//31
f 241//28 297//28 242//28
f 298//28 297//28 241//28
f 242//29 299//29 243//29
f 297//29 299//29 242//29
f 243//30 300//30 244//30
f 299//30 300//30 243//30
f 244//31 298//31 241//31
f 300//31 298//31 244//31
f 245//28 301//28 246//28
f 302//28 301//28 245//28
f 246//29 303//29 247//29
f 301//29 303//29 246//29
f 247//30 304//30 248//30
f 303//30 304//30 247//30
f 248//31 302//31 245//31
f 304//31 302//31 248//31
f 249//28 305//28 250//28
f 306//28 305//28 249//28
f 250//29 307//29 251//29
f 305//29 307//29 250//29
f 251//30 308//30 252//30
f 307//30 308//30 251//30
f 252//31 306//31 249//31
f 308//31 306//31 252//31
f 254//2 253//2 256//2
f 254//2 256//2 255//2
f 258//2 257//2 260//2
f 258//2 260//2 259//2
f 262//2 261//2 264//2
f 262//2 264//2 263//2
f 265//2 266//2 268//2
f 265//2 268//2 267//2
f 269//2 270//2 272//2
f 269//2 272//2 271//2
f 273//2 274//2 276//2
f 273//2 276//2 275//2
f 278//2 277//2 280//2
f 278//2 280//2 279//2
f 281//22 282//22 283//22
f 283//22 282//22 284//22
f 285//22 286//22 287//22
f 287//22 286//22 288//22
f 289//22 290//22 291//22
f 291//22 290//22 292//22
f 293//22 294//22 295//22
f 295//22 294//22 296//22
f 297//22 298//22 299//22
f 299//22 298//22 300//22
f 301//22 302//22 303//22
f 303//22 302//22 304//22
f 305//22 306//22 307//22
f 307//22 306//22 308//22
