# Blender v2.81 (sub 16) OBJ File: ''
# www.blender.org
mtllib DS1069-3 CWF-3R.mtl
o DS1069-3_CWF-3R
v 0.005746 -0.002566 0.002601
v 0.004836 -0.002868 0.002601
v 0.004709 -0.002741 0.002601
v 0.004557 -0.002646 0.002601
v 0.005746 -0.001230 0.002601
v 0.004932 -0.003020 0.002601
v 0.004388 -0.002586 0.002601
v 0.004991 -0.003190 0.002601
v 0.004209 -0.002566 0.002601
v 0.006682 -0.002566 0.002601
v 0.005011 -0.003368 0.002601
v 0.001670 -0.002566 0.002601
v 0.006682 -0.007912 0.002601
v 0.005011 -0.006843 0.002601
v 0.005011 -0.007912 0.002601
v 0.004477 -0.007377 0.002601
v -0.001670 -0.002566 0.002601
v -0.004209 -0.002566 0.002601
v -0.005746 -0.001230 0.002601
v -0.004388 -0.002586 0.002601
v -0.004557 -0.002646 0.002601
v -0.004709 -0.002741 0.002601
v -0.005746 -0.002566 0.002601
v -0.004836 -0.002868 0.002601
v -0.004932 -0.003020 0.002601
v -0.004991 -0.003190 0.002601
v -0.005011 -0.003368 0.002601
v -0.006682 -0.002566 0.002601
v 0.001670 -0.007912 0.002601
v -0.001670 -0.007912 0.002601
v -0.005011 -0.006843 0.002601
v -0.004477 -0.007377 0.002601
v -0.005011 -0.007912 0.002601
v -0.006682 -0.007912 0.002601
v 0.005011 -0.007912 0.003536
v 0.006682 -0.007912 0.003536
v -0.001670 -0.007912 0.003536
v 0.001670 -0.007912 0.003536
v 0.002205 0.000908 0.003536
v 0.001136 0.000908 0.003536
v 0.001670 -0.002566 0.003536
v -0.005011 -0.006843 0.003536
v -0.006682 -0.007912 0.003536
v -0.005011 -0.007912 0.003536
v 0.004209 -0.002566 0.003536
v 0.002205 0.001443 0.003536
v 0.001136 0.001443 0.003536
v -0.004477 -0.007377 0.003536
v 0.004477 0.000908 0.003536
v 0.004388 -0.002586 0.003536
v 0.004557 -0.002646 0.003536
v 0.004709 -0.002741 0.003536
v -0.005011 -0.003368 0.003536
v 0.006682 0.001443 0.003536
v 0.005011 -0.003368 0.003536
v 0.004836 -0.002868 0.003536
v 0.004932 -0.003020 0.003536
v 0.004991 -0.003190 0.003536
v 0.004477 0.001443 0.003536
v -0.006682 0.001443 0.003536
v -0.004836 -0.002868 0.003536
v -0.004709 -0.002741 0.003536
v -0.004932 -0.003020 0.003536
v -0.004991 -0.003190 0.003536
v -0.004477 0.000908 0.003536
v -0.004388 -0.002586 0.003536
v -0.004209 -0.002566 0.003536
v -0.004557 -0.002646 0.003536
v -0.004477 0.001443 0.003536
v 0.005011 -0.006843 0.003536
v 0.004477 -0.007377 0.003536
v -0.002205 0.000908 0.003536
v -0.001670 -0.002566 0.003536
v -0.001136 0.000908 0.003536
v -0.001136 0.001443 0.003536
v -0.002205 0.001443 0.003536
v -0.006682 -0.002566 0.001131
v -0.006682 -0.007912 -0.004148
v -0.006682 -0.007912 0.001131
v -0.006682 0.007456 -0.004148
v -0.006682 0.001443 0.002534
v -0.006682 0.007456 -0.001475
v -0.005746 -0.002566 0.001131
v -0.005746 -0.007511 -0.003212
v -0.005746 -0.007511 0.001131
v -0.005746 -0.001230 -0.003212
v -0.003768 -0.001230 0.000168
v -0.003768 -0.001230 0.001024
v -0.002913 -0.001230 0.000168
v -0.002913 -0.001230 0.001024
v -0.000428 -0.001230 0.000168
v -0.000428 -0.001230 0.001024
v 0.005746 -0.001230 -0.003212
v 0.000428 -0.001230 0.000168
v 0.002913 -0.001230 0.000168
v 0.002913 -0.001230 0.001024
v 0.000428 -0.001230 0.001024
v 0.003768 -0.001230 0.000168
v 0.003768 -0.001230 0.001024
v 0.005746 -0.002566 0.001131
v 0.005746 -0.007511 -0.003212
v 0.005746 -0.007511 0.001131
v 0.006682 -0.002566 0.001131
v 0.006682 -0.007912 -0.004148
v 0.006682 -0.007912 0.001131
v 0.006682 0.007456 -0.004148
v 0.006682 0.001443 0.002534
v 0.006682 0.007456 -0.001475
v 0.005746 0.001443 0.002534
v 0.004477 0.001443 -0.004148
v 0.005746 0.001443 -0.004148
v 0.004477 0.000908 -0.004148
v 0.003768 0.000908 0.001024
v 0.002913 0.000908 0.001024
v 0.002913 0.000908 0.000168
v 0.003768 0.000908 0.000168
v 0.002205 0.000908 -0.004148
v 0.002205 0.001443 -0.004148
v 0.001136 0.001443 -0.004148
v 0.001136 0.000908 -0.004148
v 0.000428 0.000908 0.001024
v -0.000428 0.000908 0.001024
v -0.000428 0.000908 0.000168
v 0.000428 0.000908 0.000168
v -0.001136 0.000908 -0.004148
v -0.001136 0.001443 -0.004148
v -0.002205 0.001443 -0.004148
v -0.002205 0.000908 -0.004148
v -0.002913 0.000908 0.001024
v -0.003768 0.000908 0.001024
v -0.003768 0.000908 0.000168
v -0.002913 0.000908 0.000168
v -0.004477 0.000908 -0.004148
v -0.004477 0.001443 -0.004148
v -0.005746 0.001443 0.002534
v -0.005746 0.001443 -0.004148
v -0.005746 0.007456 -0.001475
v -0.005746 0.007456 -0.004148
v 0.005746 0.007456 -0.004148
v -0.006147 -0.007912 -0.003613
v -0.006147 -0.007912 0.001131
v 0.006147 -0.007912 0.001131
v 0.006147 -0.007912 -0.003613
v 0.005746 0.007456 -0.001475
v -0.000428 -0.006745 0.001024
v -0.000428 -0.006745 0.000168
v 0.000428 -0.006745 0.001024
v 0.000428 -0.006745 0.000168
v 0.002913 -0.006745 0.001024
v 0.002913 -0.006745 0.000168
v 0.003768 -0.006745 0.001024
v 0.003768 -0.006745 0.000168
v -0.003768 -0.006745 0.001024
v -0.003768 -0.006745 0.000168
v -0.002913 -0.006745 0.001024
v -0.002913 -0.006745 0.000168
v 0.002913 0.003527 -0.000206
v 0.002913 0.004383 -0.008326
v 0.002913 0.003527 -0.008326
v 0.002913 0.004383 -0.000206
v 0.002913 0.003518 -0.000122
v 0.002913 0.004352 0.000068
v 0.002913 0.003490 -0.000043
v 0.002913 0.004261 0.000328
v 0.002913 0.003446 0.000028
v 0.002913 0.004114 0.000561
v 0.002913 0.003920 0.000756
v 0.002913 0.003386 0.000087
v 0.002913 0.003316 0.000131
v 0.002913 0.003687 0.000902
v 0.002913 0.003427 0.000993
v 0.002913 0.003236 0.000159
v 0.002913 0.003153 0.001024
v 0.002913 0.003153 0.000168
v 0.003768 0.003153 0.000168
v 0.003768 0.003153 0.001024
v 0.003768 0.004383 -0.000206
v 0.003768 0.003527 -0.008326
v 0.003768 0.004383 -0.008326
v 0.003768 0.003527 -0.000206
v 0.003768 0.003427 0.000993
v 0.003768 0.003236 0.000159
v 0.003768 0.003316 0.000131
v 0.003768 0.004352 0.000068
v 0.003768 0.003518 -0.000122
v 0.003768 0.003490 -0.000043
v 0.003768 0.003687 0.000902
v 0.003768 0.004261 0.000328
v 0.003768 0.003920 0.000756
v 0.003768 0.003386 0.000087
v 0.003768 0.003446 0.000028
v 0.003768 0.004114 0.000561
v -0.000428 0.003527 -0.000206
v -0.000428 0.004383 -0.008326
v -0.000428 0.003527 -0.008326
v -0.000428 0.004383 -0.000206
v -0.000428 0.003518 -0.000122
v -0.000428 0.004352 0.000068
v -0.000428 0.003490 -0.000043
v -0.000428 0.004261 0.000328
v -0.000428 0.003446 0.000028
v -0.000428 0.004114 0.000561
v -0.000428 0.003920 0.000756
v -0.000428 0.003386 0.000087
v -0.000428 0.003316 0.000131
v -0.000428 0.003687 0.000902
v -0.000428 0.003427 0.000993
v -0.000428 0.003236 0.000159
v -0.000428 0.003153 0.001024
v -0.000428 0.003153 0.000168
v 0.000428 0.003153 0.000168
v 0.000428 0.003153 0.001024
v 0.000428 0.004383 -0.000206
v 0.000428 0.003527 -0.008326
v 0.000428 0.004383 -0.008326
v 0.000428 0.003527 -0.000206
v 0.000428 0.003427 0.000993
v 0.000428 0.003236 0.000159
v 0.000428 0.003316 0.000131
v 0.000428 0.004352 0.000068
v 0.000428 0.003518 -0.000122
v 0.000428 0.003490 -0.000043
v 0.000428 0.003687 0.000902
v 0.000428 0.004261 0.000328
v 0.000428 0.003920 0.000756
v 0.000428 0.003386 0.000087
v 0.000428 0.003446 0.000028
v 0.000428 0.004114 0.000561
v -0.003768 0.003527 -0.000206
v -0.003768 0.004383 -0.008326
v -0.003768 0.003527 -0.008326
v -0.003768 0.004383 -0.000206
v -0.003768 0.003518 -0.000122
v -0.003768 0.004352 0.000068
v -0.003768 0.003490 -0.000043
v -0.003768 0.004261 0.000328
v -0.003768 0.003446 0.000028
v -0.003768 0.004114 0.000561
v -0.003768 0.003920 0.000756
v -0.003768 0.003386 0.000087
v -0.003768 0.003316 0.000131
v -0.003768 0.003687 0.000902
v -0.003768 0.003427 0.000993
v -0.003768 0.003236 0.000159
v -0.003768 0.003153 0.001024
v -0.003768 0.003153 0.000168
v -0.002913 0.003153 0.000168
v -0.002913 0.003153 0.001024
v -0.002913 0.004383 -0.000206
v -0.002913 0.003527 -0.008326
v -0.002913 0.004383 -0.008326
v -0.002913 0.003527 -0.000206
v -0.002913 0.003427 0.000993
v -0.002913 0.003236 0.000159
v -0.002913 0.003316 0.000131
v -0.002913 0.004352 0.000068
v -0.002913 0.003518 -0.000122
v -0.002913 0.003490 -0.000043
v -0.002913 0.003687 0.000902
v -0.002913 0.004261 0.000328
v -0.002913 0.003920 0.000756
v -0.002913 0.003386 0.000087
v -0.002913 0.003446 0.000028
v -0.002913 0.004114 0.000561
v -0.000294 -0.007243 0.000302
v -0.000294 -0.007243 0.000890
v 0.000294 -0.007243 0.000890
v 0.000294 -0.007243 0.000302
v 0.003047 -0.007243 0.000302
v 0.003047 -0.007243 0.000890
v 0.003635 -0.007243 0.000890
v 0.003635 -0.007243 0.000302
v -0.003635 -0.007243 0.000302
v -0.003635 -0.007243 0.000890
v -0.003047 -0.007243 0.000890
v -0.003047 -0.007243 0.000302
v 0.003047 0.003661 -0.008825
v 0.003047 0.004249 -0.008825
v 0.003635 0.004249 -0.008825
v 0.003635 0.003661 -0.008825
v -0.000294 0.003661 -0.008825
v -0.000294 0.004249 -0.008825
v 0.000294 0.004249 -0.008825
v 0.000294 0.003661 -0.008825
v -0.003635 0.003661 -0.008825
v -0.003635 0.004249 -0.008825
v -0.003047 0.004249 -0.008825
v -0.003047 0.003661 -0.008825
vn 0.0000 0.0000 -1.0000
vn 0.0000 -1.0000 0.0000
vn 0.0000 0.0000 1.0000
vn 1.0000 0.0000 0.0000
vn -0.7071 -0.7071 0.0000
vn -0.7071 0.7071 0.0000
vn -1.0000 0.0000 0.0000
vn -0.1120 -0.9937 0.0000
vn -0.3303 -0.9439 -0.0000
vn -0.5320 -0.8467 -0.0000
vn -0.8467 -0.5320 0.0000
vn -0.9439 -0.3303 -0.0000
vn -0.9937 -0.1120 -0.0000
vn 0.1120 -0.9937 0.0000
vn 0.3303 -0.9439 -0.0000
vn 0.5320 -0.8467 -0.0000
vn 0.7071 -0.7071 0.0000
vn 0.8467 -0.5320 0.0000
vn 0.9439 -0.3303 -0.0000
vn 0.9937 -0.1120 -0.0000
vn 0.7071 0.7071 0.0000
vn 0.0000 1.0000 0.0000
vn 0.0000 0.5547 0.8321
vn 0.0000 -0.7071 0.7071
vn -0.9659 -0.2588 0.0000
vn 0.0000 -0.2588 0.9659
vn 0.9659 -0.2588 0.0000
vn 0.0000 -0.2588 -0.9659
vn -0.9659 0.0000 -0.2588
vn 0.0000 -0.9937 -0.1120
vn 0.0000 -0.9439 -0.3303
vn 0.0000 -0.8467 -0.5320
vn 0.0000 -0.7071 -0.7071
vn 0.0000 -0.5320 -0.8467
vn 0.0000 -0.3303 -0.9439
vn 0.0000 -0.1120 -0.9937
vn 0.0000 0.9937 0.1120
vn 0.0000 0.9439 0.3303
vn 0.0000 0.8467 0.5320
vn 0.0000 0.7071 0.7071
vn 0.0000 0.5320 0.8467
vn 0.0000 0.3303 0.9439
vn 0.0000 0.1120 0.9937
vn 0.9659 0.0000 -0.2588
vn 0.0000 0.9659 -0.2588
vn 0.0000 -0.9659 -0.2588
usemtl material_1.497
s 1
f 1//1 2//1 3//1
f 1//1 4//1 5//1
f 3//1 4//1 1//1
f 1//1 6//1 2//1
f 4//1 7//1 5//1
f 1//1 8//1 6//1
f 7//1 9//1 5//1
f 10//1 11//1 1//1
f 1//1 11//1 8//1
f 9//1 12//1 5//1
f 13//1 14//1 10//1
f 10//1 14//1 11//1
f 13//1 15//1 14//1
f 15//1 16//1 14//1
f 12//1 17//1 5//1
f 18//1 19//1 17//1
f 20//1 19//1 18//1
f 17//1 19//1 5//1
f 20//1 21//1 19//1
f 22//1 23//1 21//1
f 24//1 23//1 22//1
f 25//1 23//1 24//1
f 26//1 23//1 25//1
f 21//1 23//1 19//1
f 26//1 27//1 23//1
f 27//1 28//1 23//1
f 29//1 30//1 12//1
f 12//1 30//1 17//1
f 27//1 31//1 28//1
f 32//1 33//1 31//1
f 33//1 34//1 31//1
f 31//1 34//1 28//1
f 15//2 13//2 35//2
f 35//2 13//2 36//2
f 37//2 29//2 38//2
f 30//2 29//2 37//2
f 39//3 40//3 41//3
f 42//3 43//3 44//3
f 39//3 41//3 45//3
f 46//3 47//3 40//3
f 48//3 42//3 44//3
f 46//3 40//3 39//3
f 49//3 45//3 50//3
f 49//3 50//3 51//3
f 49//3 51//3 52//3
f 53//3 43//3 42//3
f 49//3 39//3 45//3
f 54//3 55//3 36//3
f 54//3 52//3 56//3
f 54//3 56//3 57//3
f 54//3 57//3 58//3
f 54//3 58//3 55//3
f 54//3 49//3 52//3
f 54//3 59//3 49//3
f 60//3 61//3 62//3
f 60//3 63//3 61//3
f 60//3 64//3 63//3
f 60//3 53//3 64//3
f 60//3 43//3 53//3
f 65//3 66//3 67//3
f 65//3 68//3 66//3
f 65//3 62//3 68//3
f 65//3 60//3 62//3
f 69//3 60//3 65//3
f 70//3 71//3 35//3
f 72//3 67//3 73//3
f 72//3 65//3 67//3
f 36//3 70//3 35//3
f 41//3 73//3 37//3
f 41//3 37//3 38//3
f 74//3 72//3 73//3
f 75//3 76//3 72//3
f 75//3 72//3 74//3
f 55//3 70//3 36//3
f 40//3 73//3 41//3
f 40//3 74//3 73//3
f 45//2 41//2 12//2
f 45//2 12//2 9//2
f 41//4 38//4 29//4
f 41//4 29//4 12//4
f 35//5 71//5 16//5
f 35//5 16//5 15//5
f 71//6 70//6 14//6
f 71//6 14//6 16//6
f 70//7 55//7 11//7
f 70//7 11//7 14//7
f 9//8 7//8 45//8
f 45//8 7//8 50//8
f 50//9 4//9 51//9
f 7//9 4//9 50//9
f 51//10 3//10 52//10
f 4//10 3//10 51//10
f 52//5 2//5 56//5
f 3//5 2//5 52//5
f 56//11 6//11 57//11
f 2//11 6//11 56//11
f 57//12 8//12 58//12
f 6//12 8//12 57//12
f 58//13 11//13 55//13
f 8//13 11//13 58//13
f 30//7 73//7 17//7
f 37//7 73//7 30//7
f 17//2 67//2 18//2
f 73//2 67//2 17//2
f 67//14 66//14 18//14
f 18//14 66//14 20//14
f 20//15 68//15 21//15
f 66//15 68//15 20//15
f 21//16 62//16 22//16
f 68//16 62//16 21//16
f 22//17 61//17 24//17
f 62//17 61//17 22//17
f 24//18 63//18 25//18
f 61//18 63//18 24//18
f 25//19 64//19 26//19
f 63//19 64//19 25//19
f 26//20 53//20 27//20
f 64//20 53//20 26//20
f 27//4 42//4 31//4
f 53//4 42//4 27//4
f 31//21 48//21 32//21
f 42//21 48//21 31//21
f 32//17 44//17 33//17
f 48//17 44//17 32//17
f 43//2 33//2 44//2
f 34//2 33//2 43//2
f 77//7 78//7 79//7
f 28//7 34//7 43//7
f 80//7 78//7 77//7
f 81//7 77//7 28//7
f 81//7 80//7 77//7
f 60//7 28//7 43//7
f 60//7 81//7 28//7
f 82//7 80//7 81//7
f 23//2 77//2 83//2
f 28//2 77//2 23//2
f 84//4 83//4 85//4
f 86//4 83//4 84//4
f 83//4 19//4 23//4
f 86//4 19//4 83//4
f 19//2 86//2 87//2
f 88//2 19//2 87//2
f 89//2 87//2 86//2
f 90//2 19//2 88//2
f 91//2 89//2 86//2
f 92//2 90//2 89//2
f 92//2 89//2 91//2
f 92//2 19//2 90//2
f 93//2 94//2 91//2
f 93//2 91//2 86//2
f 95//2 94//2 93//2
f 96//2 97//2 94//2
f 96//2 94//2 95//2
f 98//2 95//2 93//2
f 5//2 96//2 99//2
f 5//2 99//2 98//2
f 5//2 97//2 96//2
f 5//2 98//2 93//2
f 5//2 19//2 92//2
f 5//2 92//2 97//2
f 100//7 101//7 102//7
f 100//7 93//7 101//7
f 5//7 100//7 1//7
f 5//7 93//7 100//7
f 10//2 100//2 103//2
f 1//2 100//2 10//2
f 104//4 103//4 105//4
f 13//4 10//4 36//4
f 104//4 106//4 103//4
f 103//4 107//4 10//4
f 106//4 107//4 103//4
f 10//4 54//4 36//4
f 107//4 54//4 10//4
f 106//4 108//4 107//4
f 109//22 59//22 54//22
f 107//22 109//22 54//22
f 110//22 59//22 109//22
f 111//22 110//22 109//22
f 49//7 110//7 112//7
f 59//7 110//7 49//7
f 113//22 39//22 49//22
f 113//22 114//22 39//22
f 115//22 39//22 114//22
f 116//22 113//22 49//22
f 112//22 115//22 116//22
f 112//22 117//22 115//22
f 117//22 39//22 115//22
f 49//22 112//22 116//22
f 117//4 46//4 39//4
f 118//4 46//4 117//4
f 118//22 119//22 47//22
f 118//22 47//22 46//22
f 40//7 119//7 120//7
f 47//7 119//7 40//7
f 121//22 74//22 40//22
f 121//22 122//22 74//22
f 123//22 74//22 122//22
f 124//22 121//22 40//22
f 120//22 123//22 124//22
f 120//22 125//22 123//22
f 125//22 74//22 123//22
f 40//22 120//22 124//22
f 125//4 75//4 74//4
f 126//4 75//4 125//4
f 126//22 127//22 76//22
f 126//22 76//22 75//22
f 72//7 127//7 128//7
f 76//7 127//7 72//7
f 129//22 65//22 72//22
f 129//22 130//22 65//22
f 131//22 65//22 130//22
f 132//22 129//22 72//22
f 128//22 131//22 132//22
f 128//22 133//22 131//22
f 133//22 65//22 131//22
f 72//22 128//22 132//22
f 134//4 69//4 133//4
f 133//4 69//4 65//4
f 135//22 81//22 60//22
f 69//22 135//22 60//22
f 134//22 136//22 135//22
f 134//22 135//22 69//22
f 82//23 135//23 137//23
f 82//23 81//23 135//23
f 80//22 137//22 138//22
f 80//22 82//22 137//22
f 112//1 111//1 104//1
f 110//1 111//1 112//1
f 117//1 112//1 104//1
f 120//1 117//1 104//1
f 119//1 118//1 117//1
f 119//1 117//1 120//1
f 139//1 106//1 111//1
f 125//1 104//1 78//1
f 125//1 120//1 104//1
f 128//1 125//1 78//1
f 127//1 126//1 125//1
f 127//1 125//1 128//1
f 133//1 128//1 78//1
f 136//1 134//1 133//1
f 136//1 133//1 78//1
f 80//1 138//1 136//1
f 106//1 104//1 111//1
f 78//1 80//1 136//1
f 79//2 140//2 141//2
f 78//2 140//2 79//2
f 142//2 143//2 105//2
f 143//2 104//2 105//2
f 78//2 104//2 140//2
f 140//2 104//2 143//2
f 77//3 85//3 83//3
f 85//3 79//3 141//3
f 77//3 79//3 85//3
f 86//3 101//3 93//3
f 84//3 101//3 86//3
f 103//3 102//3 105//3
f 100//3 102//3 103//3
f 102//3 142//3 105//3
f 139//22 144//22 108//22
f 139//22 108//22 106//22
f 144//23 109//23 107//23
f 144//23 107//23 108//23
f 144//7 139//7 111//7
f 144//7 111//7 109//7
f 138//4 137//4 136//4
f 136//4 137//4 135//4
f 142//5 101//5 143//5
f 102//5 101//5 142//5
f 143//24 84//24 140//24
f 101//24 84//24 143//24
f 84//17 141//17 140//17
f 84//17 85//17 141//17
usemtl material_0.505
f 145//7 92//7 91//7
f 145//7 91//7 146//7
f 145//3 147//3 97//3
f 145//3 97//3 92//3
f 94//4 147//4 148//4
f 97//4 147//4 94//4
f 146//1 91//1 94//1
f 148//1 146//1 94//1
f 149//7 96//7 95//7
f 149//7 95//7 150//7
f 149//3 151//3 99//3
f 149//3 99//3 96//3
f 98//4 151//4 152//4
f 99//4 151//4 98//4
f 150//1 95//1 98//1
f 152//1 150//1 98//1
f 153//7 88//7 87//7
f 153//7 87//7 154//7
f 153//3 155//3 90//3
f 153//3 90//3 88//3
f 90//4 155//4 156//4
f 90//4 156//4 89//4
f 156//1 154//1 87//1
f 156//1 87//1 89//1
f 157//7 158//7 159//7
f 157//7 160//7 158//7
f 161//7 162//7 160//7
f 161//7 160//7 157//7
f 163//7 164//7 162//7
f 163//7 162//7 161//7
f 165//7 166//7 164//7
f 165//7 164//7 163//7
f 167//7 165//7 168//7
f 167//7 168//7 169//7
f 167//7 166//7 165//7
f 170//7 167//7 169//7
f 171//7 169//7 172//7
f 171//7 170//7 169//7
f 173//7 172//7 174//7
f 173//7 171//7 172//7
f 114//7 174//7 115//7
f 114//7 173//7 174//7
f 116//1 115//1 174//1
f 116//1 174//1 175//1
f 176//4 113//4 116//4
f 176//4 116//4 175//4
f 177//4 178//4 179//4
f 177//4 180//4 178//4
f 181//4 182//4 183//4
f 181//4 175//4 182//4
f 181//4 176//4 175//4
f 184//4 185//4 180//4
f 184//4 186//4 185//4
f 184//4 180//4 177//4
f 187//4 181//4 183//4
f 188//4 186//4 184//4
f 189//4 190//4 191//4
f 189//4 183//4 190//4
f 189//4 187//4 183//4
f 192//4 191//4 186//4
f 192//4 189//4 191//4
f 192//4 186//4 188//4
f 114//3 113//3 176//3
f 114//3 176//3 173//3
f 193//7 194//7 195//7
f 193//7 196//7 194//7
f 197//7 198//7 196//7
f 197//7 196//7 193//7
f 199//7 200//7 198//7
f 199//7 198//7 197//7
f 201//7 202//7 200//7
f 201//7 200//7 199//7
f 203//7 201//7 204//7
f 203//7 204//7 205//7
f 203//7 202//7 201//7
f 206//7 203//7 205//7
f 207//7 205//7 208//7
f 207//7 206//7 205//7
f 209//7 208//7 210//7
f 209//7 207//7 208//7
f 122//7 210//7 123//7
f 122//7 209//7 210//7
f 124//1 123//1 210//1
f 124//1 210//1 211//1
f 212//4 121//4 124//4
f 212//4 124//4 211//4
f 213//4 214//4 215//4
f 213//4 216//4 214//4
f 217//4 218//4 219//4
f 217//4 211//4 218//4
f 217//4 212//4 211//4
f 220//4 221//4 216//4
f 220//4 222//4 221//4
f 220//4 216//4 213//4
f 223//4 217//4 219//4
f 224//4 222//4 220//4
f 225//4 226//4 227//4
f 225//4 219//4 226//4
f 225//4 223//4 219//4
f 228//4 227//4 222//4
f 228//4 225//4 227//4
f 228//4 222//4 224//4
f 122//3 121//3 212//3
f 122//3 212//3 209//3
f 229//7 230//7 231//7
f 229//7 232//7 230//7
f 233//7 234//7 232//7
f 233//7 232//7 229//7
f 235//7 236//7 234//7
f 235//7 234//7 233//7
f 237//7 238//7 236//7
f 237//7 236//7 235//7
f 239//7 237//7 240//7
f 239//7 240//7 241//7
f 239//7 238//7 237//7
f 242//7 239//7 241//7
f 243//7 241//7 244//7
f 243//7 242//7 241//7
f 245//7 244//7 246//7
f 245//7 243//7 244//7
f 130//7 246//7 131//7
f 130//7 245//7 246//7
f 132//1 131//1 246//1
f 132//1 246//1 247//1
f 248//4 129//4 132//4
f 248//4 132//4 247//4
f 249//4 250//4 251//4
f 249//4 252//4 250//4
f 253//4 254//4 255//4
f 253//4 247//4 254//4
f 253//4 248//4 247//4
f 256//4 257//4 252//4
f 256//4 258//4 257//4
f 256//4 252//4 249//4
f 259//4 253//4 255//4
f 260//4 258//4 256//4
f 261//4 262//4 263//4
f 261//4 255//4 262//4
f 261//4 259//4 255//4
f 264//4 263//4 258//4
f 264//4 261//4 263//4
f 264//4 258//4 260//4
f 130//3 129//3 248//3
f 130//3 248//3 245//3
f 265//25 145//25 146//25
f 265//25 266//25 145//25
f 266//26 147//26 145//26
f 266//26 267//26 147//26
f 267//27 148//27 147//27
f 267//27 268//27 148//27
f 148//28 265//28 146//28
f 268//28 265//28 148//28
f 269//25 149//25 150//25
f 269//25 270//25 149//25
f 149//26 271//26 151//26
f 270//26 271//26 149//26
f 271//27 152//27 151//27
f 271//27 272//27 152//27
f 152//28 269//28 150//28
f 272//28 269//28 152//28
f 273//25 153//25 154//25
f 273//25 274//25 153//25
f 274//26 155//26 153//26
f 274//26 275//26 155//26
f 275//27 156//27 155//27
f 275//27 276//27 156//27
f 276//28 154//28 156//28
f 276//28 273//28 154//28
f 158//29 277//29 159//29
f 278//29 277//29 158//29
f 180//2 159//2 178//2
f 180//2 157//2 159//2
f 157//30 185//30 161//30
f 180//30 185//30 157//30
f 161//31 186//31 163//31
f 185//31 186//31 161//31
f 163//32 191//32 165//32
f 186//32 191//32 163//32
f 165//33 190//33 168//33
f 191//33 190//33 165//33
f 168//34 183//34 169//34
f 190//34 183//34 168//34
f 169//35 182//35 172//35
f 183//35 182//35 169//35
f 172//36 175//36 174//36
f 182//36 175//36 172//36
f 184//37 177//37 160//37
f 184//37 160//37 162//37
f 188//38 162//38 164//38
f 188//38 184//38 162//38
f 192//39 164//39 166//39
f 192//39 188//39 164//39
f 189//40 166//40 167//40
f 189//40 192//40 166//40
f 187//41 167//41 170//41
f 187//41 189//41 167//41
f 181//42 170//42 171//42
f 181//42 187//42 170//42
f 176//43 171//43 173//43
f 176//43 181//43 171//43
f 160//22 179//22 158//22
f 160//22 177//22 179//22
f 178//44 279//44 179//44
f 280//44 279//44 178//44
f 194//29 281//29 195//29
f 282//29 281//29 194//29
f 216//2 195//2 214//2
f 216//2 193//2 195//2
f 193//30 221//30 197//30
f 216//30 221//30 193//30
f 197//31 222//31 199//31
f 221//31 222//31 197//31
f 199//32 227//32 201//32
f 222//32 227//32 199//32
f 201//33 226//33 204//33
f 227//33 226//33 201//33
f 204//34 219//34 205//34
f 226//34 219//34 204//34
f 205//35 218//35 208//35
f 219//35 218//35 205//35
f 208//36 211//36 210//36
f 218//36 211//36 208//36
f 220//37 213//37 196//37
f 220//37 196//37 198//37
f 224//38 198//38 200//38
f 224//38 220//38 198//38
f 228//39 200//39 202//39
f 228//39 224//39 200//39
f 225//40 202//40 203//40
f 225//40 228//40 202//40
f 223//41 203//41 206//41
f 223//41 225//41 203//41
f 217//42 206//42 207//42
f 217//42 223//42 206//42
f 212//43 207//43 209//43
f 212//43 217//43 207//43
f 196//22 215//22 194//22
f 196//22 213//22 215//22
f 214//44 283//44 215//44
f 284//44 283//44 214//44
f 230//29 285//29 231//29
f 286//29 285//29 230//29
f 252//2 231//2 250//2
f 252//2 229//2 231//2
f 229//30 257//30 233//30
f 252//30 257//30 229//30
f 233//31 258//31 235//31
f 257//31 258//31 233//31
f 235//32 263//32 237//32
f 258//32 263//32 235//32
f 237//33 262//33 240//33
f 263//33 262//33 237//33
f 240//34 255//34 241//34
f 262//34 255//34 240//34
f 241//35 254//35 244//35
f 255//35 254//35 241//35
f 244//36 247//36 246//36
f 254//36 247//36 244//36
f 256//37 249//37 232//37
f 256//37 232//37 234//37
f 260//38 234//38 236//38
f 260//38 256//38 234//38
f 264//39 236//39 238//39
f 264//39 260//39 236//39
f 261//40 238//40 239//40
f 261//40 264//40 238//40
f 259//41 239//41 242//41
f 259//41 261//41 239//41
f 253//42 242//42 243//42
f 253//42 259//42 242//42
f 248//43 243//43 245//43
f 248//43 253//43 243//43
f 232//22 251//22 230//22
f 232//22 249//22 251//22
f 250//44 287//44 251//44
f 288//44 287//44 250//44
f 267//2 265//2 268//2
f 267//2 266//2 265//2
f 271//2 269//2 272//2
f 271//2 270//2 269//2
f 275//2 273//2 276//2
f 275//2 274//2 273//2
f 179//45 278//45 158//45
f 279//45 278//45 179//45
f 278//1 279//1 277//1
f 277//1 279//1 280//1
f 159//46 280//46 178//46
f 277//46 280//46 159//46
f 215//45 282//45 194//45
f 283//45 282//45 215//45
f 282//1 283//1 281//1
f 281//1 283//1 284//1
f 195//46 284//46 214//46
f 281//46 284//46 195//46
f 251//45 286//45 230//45
f 287//45 286//45 251//45
f 286//1 287//1 285//1
f 285//1 287//1 288//1
f 231//46 288//46 250//46
f 285//46 288//46 231//46
