# Blender v2.81 (sub 16) OBJ File: ''
# www.blender.org
mtllib DS1013-8S (IDC-8MS CONNFLY).mtl
o DS1013-8S_(IDC-8MS_CONNFLY)
v -0.003236 -0.003654 0.003008
v -0.007731 -0.003654 0.005616
v -0.007731 -0.003654 -0.002210
v -0.001836 -0.003654 -0.000644
v -0.004105 -0.003654 0.004747
v -0.001836 -0.003654 0.005616
v -0.002366 -0.003654 0.004747
v 0.007885 -0.003654 -0.002210
v 0.001990 -0.003654 -0.000644
v 0.007885 -0.003654 0.005616
v 0.001990 -0.003654 0.005616
v -0.002366 -0.003741 0.004747
v -0.003236 -0.003741 0.003008
v -0.004105 -0.003741 0.004747
v 0.001990 -0.002175 -0.000644
v -0.001836 -0.002175 -0.000644
v -0.001836 -0.002610 -0.000297
v -0.001836 -0.002175 -0.000297
v -0.001836 -0.002610 0.005094
v -0.001836 -0.003132 0.005616
v -0.007210 -0.003132 0.005616
v -0.007210 0.003476 0.005616
v -0.007731 0.003998 0.005616
v 0.007364 -0.003132 0.005616
v 0.001990 -0.003132 0.005616
v 0.007885 0.003998 0.005616
v 0.007364 0.003476 0.005616
v -0.007731 -0.001306 0.003529
v -0.007731 -0.001306 -0.002210
v -0.007731 0.001650 0.003529
v -0.007731 0.003998 -0.002210
v -0.007731 0.001650 -0.002210
v 0.001460 0.000998 -0.002210
v 0.003112 0.000998 -0.002210
v 0.001460 -0.000654 -0.002210
v 0.003112 -0.000654 -0.002210
v -0.006688 -0.001306 -0.002210
v 0.003112 -0.001210 -0.002210
v 0.001460 -0.001210 -0.002210
v 0.003668 -0.001210 -0.002210
v 0.000903 -0.001210 -0.002210
v -0.000749 -0.001210 -0.002210
v -0.003514 -0.001210 -0.002210
v 0.003668 0.000998 -0.002210
v 0.003668 -0.000654 -0.002210
v -0.003514 -0.000654 -0.002210
v 0.003112 0.001555 -0.002210
v 0.001460 0.001555 -0.002210
v -0.002958 -0.001210 -0.002210
v -0.006688 0.001650 -0.002210
v 0.006842 -0.001306 -0.002210
v 0.007885 -0.001306 -0.002210
v -0.003514 0.000998 -0.002210
v 0.004494 0.003129 -0.002210
v 0.003668 0.001555 -0.002210
v -0.001305 -0.001210 -0.002210
v -0.002958 0.000998 -0.002210
v -0.002958 -0.000654 -0.002210
v 0.006842 0.001650 -0.002210
v -0.003514 0.001555 -0.002210
v -0.001305 -0.000654 -0.002210
v 0.004494 0.003998 -0.002210
v 0.007885 0.003998 -0.002210
v 0.007885 0.001650 -0.002210
v -0.004340 0.003129 -0.002210
v -0.002958 0.001555 -0.002210
v -0.001305 0.001555 -0.002210
v -0.000749 0.001555 -0.002210
v 0.000903 0.001555 -0.002210
v -0.004340 0.003998 -0.002210
v -0.001305 0.000998 -0.002210
v -0.000749 -0.000654 -0.002210
v 0.000903 -0.000654 -0.002210
v -0.000749 0.000998 -0.002210
v 0.000903 0.000998 -0.002210
v 0.007885 -0.001306 0.003529
v 0.007885 0.001650 0.003529
v 0.001990 -0.002610 -0.000297
v 0.001990 -0.002175 -0.000297
v 0.001990 -0.002610 0.005094
v -0.006688 -0.002610 0.005094
v 0.003112 0.000998 -0.000297
v 0.001460 -0.000654 -0.000297
v 0.003112 -0.000654 -0.000297
v 0.001460 0.000998 -0.000297
v -0.003514 -0.001210 -0.000297
v -0.006688 -0.001306 -0.000297
v -0.006688 -0.002610 -0.000297
v 0.006842 -0.002610 -0.000297
v 0.003668 -0.001210 -0.000297
v 0.003112 0.001555 -0.000297
v 0.001460 0.001555 -0.000297
v -0.003514 -0.000654 -0.000297
v 0.003668 0.000998 -0.000297
v 0.003668 -0.000654 -0.000297
v -0.002958 -0.001210 -0.000297
v 0.006842 -0.001306 -0.000297
v 0.006842 0.001650 -0.000297
v 0.003668 0.001555 -0.000297
v 0.006842 0.002955 -0.000297
v -0.001305 -0.001210 -0.000297
v -0.003514 0.000998 -0.000297
v -0.006688 0.001650 -0.000297
v 0.000903 -0.001210 -0.000297
v -0.000749 -0.001210 -0.000297
v -0.006688 0.002955 -0.000297
v -0.002958 0.001555 -0.000297
v -0.001305 0.001555 -0.000297
v -0.000749 0.001555 -0.000297
v -0.003514 0.001555 -0.000297
v 0.000903 0.001555 -0.000297
v -0.002958 0.000998 -0.000297
v -0.002958 -0.000654 -0.000297
v -0.001305 -0.000654 -0.000297
v -0.001305 0.000998 -0.000297
v -0.000749 0.000998 -0.000297
v -0.000749 -0.000654 -0.000297
v 0.000903 -0.000654 -0.000297
v 0.001460 -0.001210 -0.000297
v 0.003112 -0.001210 -0.000297
v 0.000903 0.000998 -0.000297
v 0.006842 -0.002610 0.005094
v 0.006842 0.002955 0.005094
v 0.004494 0.003998 -0.001340
v -0.004340 0.003998 -0.001340
v -0.006688 0.002955 0.005094
v -0.006688 -0.001306 0.003529
v -0.006688 0.001650 0.003529
v 0.006842 0.001650 0.003529
v 0.006842 -0.001306 0.003529
v -0.002958 -0.000654 -0.005101
v -0.003514 -0.000654 -0.005101
v -0.003514 -0.001210 -0.005101
v -0.002958 -0.001210 -0.005101
v -0.002958 0.001555 -0.005101
v -0.003514 0.001555 -0.005101
v -0.003514 0.000998 -0.005101
v -0.002958 0.000998 -0.005101
v 0.003668 -0.000654 -0.005101
v 0.003112 -0.000654 -0.005101
v 0.003112 -0.001210 -0.005101
v 0.003668 -0.001210 -0.005101
v 0.003668 0.001555 -0.005101
v 0.003112 0.001555 -0.005101
v 0.003112 0.000998 -0.005101
v 0.003668 0.000998 -0.005101
v 0.001460 -0.000654 -0.005101
v 0.000903 -0.000654 -0.005101
v 0.000903 -0.001210 -0.005101
v 0.001460 -0.001210 -0.005101
v 0.001460 0.001555 -0.005101
v 0.000903 0.001555 -0.005101
v 0.000903 0.000998 -0.005101
v 0.001460 0.000998 -0.005101
v -0.000749 -0.000654 -0.005101
v -0.001305 -0.000654 -0.005101
v -0.001305 -0.001210 -0.005101
v -0.000749 -0.001210 -0.005101
v -0.000749 0.001555 -0.005101
v -0.001305 0.001555 -0.005101
v -0.001305 0.000998 -0.005101
v -0.000749 0.000998 -0.005101
v -0.003514 -0.000654 0.004682
v -0.002958 -0.000654 0.004682
v -0.002958 -0.001210 0.004682
v -0.003514 -0.001210 0.004682
v -0.003514 0.001555 0.004682
v -0.002958 0.001555 0.004682
v -0.002958 0.000998 0.004682
v -0.003514 0.000998 0.004682
v 0.003112 -0.000654 0.004682
v 0.003668 -0.000654 0.004682
v 0.003668 -0.001210 0.004682
v 0.003112 -0.001210 0.004682
v 0.003112 0.001555 0.004682
v 0.003668 0.001555 0.004682
v 0.003668 0.000998 0.004682
v 0.003112 0.000998 0.004682
v 0.000903 -0.000654 0.004682
v 0.001460 -0.000654 0.004682
v 0.001460 -0.001210 0.004682
v 0.000903 -0.001210 0.004682
v 0.000903 0.001555 0.004682
v 0.001460 0.001555 0.004682
v 0.001460 0.000998 0.004682
v 0.000903 0.000998 0.004682
v -0.001305 -0.000654 0.004682
v -0.000749 -0.000654 0.004682
v -0.000749 -0.001210 0.004682
v -0.001305 -0.001210 0.004682
v -0.001305 0.001555 0.004682
v -0.000749 0.001555 0.004682
v -0.000749 0.000998 0.004682
v -0.001305 0.000998 0.004682
v -0.003427 -0.000741 -0.005340
v -0.003045 -0.000741 -0.005340
v -0.003427 -0.001123 -0.005340
v -0.003045 -0.001123 -0.005340
v -0.003427 0.001468 -0.005340
v -0.003045 0.001468 -0.005340
v -0.003427 0.001085 -0.005340
v -0.003045 0.001085 -0.005340
v 0.003199 -0.000741 -0.005340
v 0.003581 -0.000741 -0.005340
v 0.003199 -0.001123 -0.005340
v 0.003581 -0.001123 -0.005340
v 0.003199 0.001468 -0.005340
v 0.003581 0.001468 -0.005340
v 0.003199 0.001085 -0.005340
v 0.003581 0.001085 -0.005340
v 0.000990 -0.000741 -0.005340
v 0.001373 -0.000741 -0.005340
v 0.000990 -0.001123 -0.005340
v 0.001373 -0.001123 -0.005340
v 0.000990 0.001468 -0.005340
v 0.001373 0.001468 -0.005340
v 0.000990 0.001085 -0.005340
v 0.001373 0.001085 -0.005340
v -0.001219 -0.000741 -0.005340
v -0.000836 -0.000741 -0.005340
v -0.001219 -0.001123 -0.005340
v -0.000836 -0.001123 -0.005340
v -0.001219 0.001468 -0.005340
v -0.000836 0.001468 -0.005340
v -0.001219 0.001085 -0.005340
v -0.000836 0.001085 -0.005340
v -0.003427 -0.000741 0.004921
v -0.003045 -0.000741 0.004921
v -0.003045 -0.001123 0.004921
v -0.003427 -0.001123 0.004921
v -0.003427 0.001468 0.004921
v -0.003045 0.001468 0.004921
v -0.003045 0.001085 0.004921
v -0.003427 0.001085 0.004921
v 0.003199 -0.000741 0.004921
v 0.003581 -0.000741 0.004921
v 0.003581 -0.001123 0.004921
v 0.003199 -0.001123 0.004921
v 0.003199 0.001468 0.004921
v 0.003581 0.001468 0.004921
v 0.003581 0.001085 0.004921
v 0.003199 0.001085 0.004921
v 0.000990 -0.000741 0.004921
v 0.001373 -0.000741 0.004921
v 0.001373 -0.001123 0.004921
v 0.000990 -0.001123 0.004921
v 0.000990 0.001468 0.004921
v 0.001373 0.001468 0.004921
v 0.001373 0.001085 0.004921
v 0.000990 0.001085 0.004921
v -0.001219 -0.000741 0.004921
v -0.000836 -0.000741 0.004921
v -0.000836 -0.001123 0.004921
v -0.001219 -0.001123 0.004921
v -0.001219 0.001468 0.004921
v -0.000836 0.001468 0.004921
v -0.000836 0.001085 0.004921
v -0.001219 0.001085 0.004921
vn 0.0000 -1.0000 0.0000
vn 0.8944 0.0000 -0.4472
vn 0.0000 0.0000 1.0000
vn -0.8944 0.0000 -0.4472
vn 1.0000 -0.0000 0.0000
vn -1.0000 -0.0000 0.0000
vn 0.0000 0.0000 -1.0000
vn 0.0000 0.7071 0.7071
vn 0.0000 1.0000 0.0000
vn -0.7071 0.0000 0.7071
vn 0.7071 0.0000 0.7071
vn 0.0000 -0.7071 0.7071
vn 0.0000 0.7071 -0.7071
vn 0.0000 0.9397 -0.3420
vn -0.9397 0.0000 -0.3420
vn 0.0000 -0.9397 -0.3420
vn 0.9397 0.0000 -0.3420
vn 0.0000 0.9397 0.3420
vn 0.9397 0.0000 0.3420
vn 0.0000 -0.9397 0.3420
vn -0.9397 0.0000 0.3420
usemtl material_0.676
s 1
f 1//1 2//1 3//1
f 1//1 3//1 4//1
f 5//1 2//1 1//1
f 6//1 5//1 7//1
f 6//1 2//1 5//1
f 8//1 9//1 4//1
f 8//1 4//1 3//1
f 10//1 11//1 9//1
f 10//1 9//1 8//1
f 4//1 6//1 7//1
f 4//1 7//1 1//1
f 1//2 7//2 12//2
f 1//2 12//2 13//2
f 7//3 5//3 14//3
f 7//3 14//3 12//3
f 5//4 1//4 13//4
f 5//4 13//4 14//4
f 15//3 4//3 9//3
f 16//3 4//3 15//3
f 4//5 16//5 17//5
f 16//5 18//5 17//5
f 6//5 19//5 20//5
f 4//5 19//5 6//5
f 17//5 19//5 4//5
f 6//3 21//3 2//3
f 20//3 21//3 6//3
f 22//3 2//3 21//3
f 23//3 2//3 22//3
f 24//3 25//3 11//3
f 10//3 24//3 11//3
f 26//3 27//3 24//3
f 26//3 24//3 10//3
f 26//3 23//3 22//3
f 26//3 22//3 27//3
f 28//6 29//6 3//6
f 28//6 3//6 2//6
f 30//6 31//6 32//6
f 30//6 28//6 2//6
f 23//6 31//6 30//6
f 23//6 30//6 2//6
f 33//7 34//7 35//7
f 35//7 34//7 36//7
f 29//7 37//7 3//7
f 38//7 8//7 39//7
f 40//7 8//7 38//7
f 39//7 8//7 41//7
f 41//7 8//7 42//7
f 42//7 8//7 3//7
f 37//7 43//7 3//7
f 34//7 44//7 36//7
f 36//7 44//7 45//7
f 37//7 46//7 43//7
f 33//7 47//7 34//7
f 48//7 47//7 33//7
f 43//7 49//7 3//7
f 32//7 31//7 50//7
f 45//7 51//7 40//7
f 40//7 51//7 8//7
f 51//7 52//7 8//7
f 50//7 53//7 37//7
f 37//7 53//7 46//7
f 47//7 54//7 55//7
f 49//7 56//7 3//7
f 46//7 57//7 58//7
f 45//7 59//7 51//7
f 55//7 59//7 44//7
f 53//7 57//7 46//7
f 54//7 59//7 55//7
f 44//7 59//7 45//7
f 50//7 60//7 53//7
f 58//7 61//7 49//7
f 49//7 61//7 56//7
f 56//7 42//7 3//7
f 62//7 63//7 54//7
f 59//7 63//7 64//7
f 54//7 63//7 59//7
f 65//7 54//7 66//7
f 66//7 54//7 67//7
f 67//7 54//7 68//7
f 68//7 54//7 69//7
f 69//7 54//7 48//7
f 48//7 54//7 47//7
f 60//7 65//7 66//7
f 31//7 65//7 50//7
f 50//7 65//7 60//7
f 31//7 70//7 65//7
f 57//7 71//7 58//7
f 58//7 71//7 61//7
f 72//7 73//7 42//7
f 42//7 73//7 41//7
f 61//7 74//7 72//7
f 71//7 74//7 61//7
f 66//7 67//7 57//7
f 57//7 67//7 71//7
f 74//7 75//7 72//7
f 72//7 75//7 73//7
f 74//7 69//7 75//7
f 68//7 69//7 74//7
f 75//7 33//7 73//7
f 73//7 33//7 35//7
f 39//7 36//7 38//7
f 35//7 36//7 39//7
f 8//5 76//5 10//5
f 52//5 76//5 8//5
f 63//5 77//5 64//5
f 76//5 77//5 10//5
f 63//5 26//5 77//5
f 77//5 26//5 10//5
f 15//6 9//6 78//6
f 79//6 15//6 78//6
f 80//6 9//6 11//6
f 80//6 11//6 25//6
f 80//6 78//6 9//6
f 14//1 13//1 12//1
f 18//1 16//1 79//1
f 79//1 16//1 15//1
f 21//8 20//8 81//8
f 20//8 19//8 81//8
f 82//3 83//3 84//3
f 82//3 85//3 83//3
f 86//3 87//3 88//3
f 89//3 90//3 78//3
f 17//3 86//3 88//3
f 91//3 85//3 82//3
f 91//3 92//3 85//3
f 93//3 87//3 86//3
f 94//3 84//3 95//3
f 96//3 86//3 17//3
f 94//3 82//3 84//3
f 18//3 96//3 17//3
f 97//3 90//3 89//3
f 97//3 95//3 90//3
f 97//3 94//3 95//3
f 98//3 94//3 97//3
f 98//3 99//3 94//3
f 100//3 91//3 99//3
f 101//3 96//3 18//3
f 100//3 99//3 98//3
f 102//3 103//3 87//3
f 18//3 79//3 104//3
f 18//3 104//3 105//3
f 102//3 87//3 93//3
f 100//3 106//3 107//3
f 100//3 107//3 108//3
f 100//3 108//3 109//3
f 110//3 106//3 103//3
f 100//3 109//3 111//3
f 100//3 111//3 92//3
f 100//3 92//3 91//3
f 110//3 103//3 102//3
f 105//3 101//3 18//3
f 112//3 93//3 113//3
f 112//3 102//3 93//3
f 114//3 113//3 96//3
f 114//3 96//3 101//3
f 107//3 106//3 110//3
f 115//3 112//3 113//3
f 115//3 113//3 114//3
f 116//3 114//3 117//3
f 116//3 115//3 114//3
f 108//3 107//3 112//3
f 108//3 112//3 115//3
f 118//3 117//3 105//3
f 118//3 105//3 104//3
f 119//3 104//3 79//3
f 120//3 119//3 79//3
f 120//3 79//3 78//3
f 121//3 116//3 117//3
f 121//3 117//3 118//3
f 111//3 116//3 121//3
f 111//3 109//3 116//3
f 84//3 119//3 120//3
f 84//3 83//3 119//3
f 90//3 120//3 78//3
f 85//3 118//3 83//3
f 85//3 121//3 118//3
f 88//9 19//9 17//9
f 81//9 19//9 88//9
f 27//10 122//10 24//10
f 123//10 122//10 27//10
f 25//8 122//8 80//8
f 24//8 122//8 25//8
f 124//9 63//9 62//9
f 26//9 63//9 124//9
f 125//9 26//9 124//9
f 31//9 125//9 70//9
f 23//9 125//9 31//9
f 23//9 26//9 125//9
f 81//11 22//11 21//11
f 81//11 126//11 22//11
f 126//12 27//12 22//12
f 123//12 27//12 126//12
f 29//9 87//9 37//9
f 87//9 28//9 127//9
f 29//9 28//9 87//9
f 30//1 103//1 128//1
f 103//1 32//1 50//1
f 30//1 32//1 103//1
f 127//7 30//7 128//7
f 28//7 30//7 127//7
f 37//6 87//6 103//6
f 37//6 103//6 50//6
f 70//5 125//5 65//5
f 125//13 54//13 65//13
f 124//13 54//13 125//13
f 124//6 62//6 54//6
f 64//1 98//1 59//1
f 98//1 77//1 129//1
f 64//1 77//1 98//1
f 97//5 51//5 59//5
f 97//5 59//5 98//5
f 76//9 97//9 130//9
f 97//9 52//9 51//9
f 76//9 52//9 97//9
f 129//7 76//7 130//7
f 77//7 76//7 129//7
f 78//9 80//9 89//9
f 80//9 122//9 89//9
f 87//5 127//5 88//5
f 127//5 81//5 88//5
f 106//5 128//5 103//5
f 127//5 128//5 81//5
f 106//5 126//5 128//5
f 128//5 126//5 81//5
f 130//6 97//6 89//6
f 122//6 130//6 89//6
f 129//6 100//6 98//6
f 129//6 130//6 122//6
f 123//6 100//6 129//6
f 123//6 129//6 122//6
f 123//1 106//1 100//1
f 123//1 126//1 106//1
usemtl material_1.664
f 46//9 131//9 132//9
f 46//9 58//9 131//9
f 43//6 132//6 133//6
f 43//6 46//6 132//6
f 49//1 133//1 134//1
f 49//1 43//1 133//1
f 58//5 134//5 131//5
f 58//5 49//5 134//5
f 60//9 135//9 136//9
f 60//9 66//9 135//9
f 53//6 136//6 137//6
f 53//6 60//6 136//6
f 57//1 137//1 138//1
f 57//1 53//1 137//1
f 66//5 138//5 135//5
f 66//5 57//5 138//5
f 36//9 139//9 140//9
f 36//9 45//9 139//9
f 38//6 140//6 141//6
f 38//6 36//6 140//6
f 40//1 141//1 142//1
f 40//1 38//1 141//1
f 45//5 142//5 139//5
f 45//5 40//5 142//5
f 47//9 143//9 144//9
f 47//9 55//9 143//9
f 34//6 144//6 145//6
f 34//6 47//6 144//6
f 44//1 145//1 146//1
f 44//1 34//1 145//1
f 55//5 146//5 143//5
f 55//5 44//5 146//5
f 73//9 147//9 148//9
f 73//9 35//9 147//9
f 41//6 148//6 149//6
f 41//6 73//6 148//6
f 39//1 149//1 150//1
f 39//1 41//1 149//1
f 35//5 150//5 147//5
f 35//5 39//5 150//5
f 69//9 151//9 152//9
f 69//9 48//9 151//9
f 75//6 152//6 153//6
f 75//6 69//6 152//6
f 33//1 153//1 154//1
f 33//1 75//1 153//1
f 48//5 154//5 151//5
f 48//5 33//5 154//5
f 61//9 155//9 156//9
f 61//9 72//9 155//9
f 56//6 156//6 157//6
f 56//6 61//6 156//6
f 42//1 157//1 158//1
f 42//1 56//1 157//1
f 72//5 158//5 155//5
f 72//5 42//5 158//5
f 67//9 159//9 160//9
f 67//9 68//9 159//9
f 71//6 160//6 161//6
f 71//6 67//6 160//6
f 74//1 161//1 162//1
f 74//1 71//1 161//1
f 68//5 162//5 159//5
f 68//5 74//5 162//5
f 163//9 164//9 113//9
f 163//9 113//9 93//9
f 164//5 165//5 96//5
f 164//5 96//5 113//5
f 165//1 166//1 86//1
f 165//1 86//1 96//1
f 166//6 163//6 93//6
f 166//6 93//6 86//6
f 167//9 168//9 107//9
f 167//9 107//9 110//9
f 168//5 169//5 112//5
f 168//5 112//5 107//5
f 169//1 170//1 102//1
f 169//1 102//1 112//1
f 170//6 167//6 110//6
f 170//6 110//6 102//6
f 171//9 172//9 95//9
f 171//9 95//9 84//9
f 172//5 173//5 90//5
f 172//5 90//5 95//5
f 173//1 174//1 120//1
f 173//1 120//1 90//1
f 174//6 171//6 84//6
f 174//6 84//6 120//6
f 175//9 176//9 99//9
f 175//9 99//9 91//9
f 176//5 177//5 94//5
f 176//5 94//5 99//5
f 177//1 178//1 82//1
f 177//1 82//1 94//1
f 178//6 175//6 91//6
f 178//6 91//6 82//6
f 179//9 180//9 83//9
f 179//9 83//9 118//9
f 180//5 181//5 119//5
f 180//5 119//5 83//5
f 181//1 182//1 104//1
f 181//1 104//1 119//1
f 182//6 179//6 118//6
f 182//6 118//6 104//6
f 183//9 184//9 92//9
f 183//9 92//9 111//9
f 184//5 185//5 85//5
f 184//5 85//5 92//5
f 185//1 186//1 121//1
f 185//1 121//1 85//1
f 186//6 183//6 111//6
f 186//6 111//6 121//6
f 187//9 188//9 117//9
f 187//9 117//9 114//9
f 188//5 189//5 105//5
f 188//5 105//5 117//5
f 189//1 190//1 101//1
f 189//1 101//1 105//1
f 190//6 187//6 114//6
f 190//6 114//6 101//6
f 191//9 192//9 109//9
f 191//9 109//9 108//9
f 192//5 193//5 116//5
f 192//5 116//5 109//5
f 193//1 194//1 115//1
f 193//1 115//1 116//1
f 194//6 191//6 108//6
f 194//6 108//6 115//6
f 131//14 195//14 132//14
f 196//14 195//14 131//14
f 132//15 197//15 133//15
f 195//15 197//15 132//15
f 133//16 198//16 134//16
f 197//16 198//16 133//16
f 134//17 196//17 131//17
f 198//17 196//17 134//17
f 135//14 199//14 136//14
f 200//14 199//14 135//14
f 136//15 201//15 137//15
f 199//15 201//15 136//15
f 137//16 202//16 138//16
f 201//16 202//16 137//16
f 138//17 200//17 135//17
f 202//17 200//17 138//17
f 139//14 203//14 140//14
f 204//14 203//14 139//14
f 140//15 205//15 141//15
f 203//15 205//15 140//15
f 141//16 206//16 142//16
f 205//16 206//16 141//16
f 142//17 204//17 139//17
f 206//17 204//17 142//17
f 143//14 207//14 144//14
f 208//14 207//14 143//14
f 144//15 209//15 145//15
f 207//15 209//15 144//15
f 145//16 210//16 146//16
f 209//16 210//16 145//16
f 146//17 208//17 143//17
f 210//17 208//17 146//17
f 147//14 211//14 148//14
f 212//14 211//14 147//14
f 148//15 213//15 149//15
f 211//15 213//15 148//15
f 149//16 214//16 150//16
f 213//16 214//16 149//16
f 150//17 212//17 147//17
f 214//17 212//17 150//17
f 151//14 215//14 152//14
f 216//14 215//14 151//14
f 152//15 217//15 153//15
f 215//15 217//15 152//15
f 153//16 218//16 154//16
f 217//16 218//16 153//16
f 154//17 216//17 151//17
f 218//17 216//17 154//17
f 155//14 219//14 156//14
f 220//14 219//14 155//14
f 156//15 221//15 157//15
f 219//15 221//15 156//15
f 157//16 222//16 158//16
f 221//16 222//16 157//16
f 158//17 220//17 155//17
f 222//17 220//17 158//17
f 159//14 223//14 160//14
f 224//14 223//14 159//14
f 160//15 225//15 161//15
f 223//15 225//15 160//15
f 161//16 226//16 162//16
f 225//16 226//16 161//16
f 162//17 224//17 159//17
f 226//17 224//17 162//17
f 227//18 164//18 163//18
f 227//18 228//18 164//18
f 228//19 165//19 164//19
f 228//19 229//19 165//19
f 229//20 166//20 165//20
f 229//20 230//20 166//20
f 230//21 163//21 166//21
f 230//21 227//21 163//21
f 231//18 168//18 167//18
f 231//18 232//18 168//18
f 232//19 169//19 168//19
f 232//19 233//19 169//19
f 169//20 234//20 170//20
f 233//20 234//20 169//20
f 234//21 167//21 170//21
f 234//21 231//21 167//21
f 235//18 172//18 171//18
f 235//18 236//18 172//18
f 236//19 173//19 172//19
f 236//19 237//19 173//19
f 173//20 238//20 174//20
f 237//20 238//20 173//20
f 238//21 171//21 174//21
f 238//21 235//21 171//21
f 239//18 176//18 175//18
f 239//18 240//18 176//18
f 240//19 177//19 176//19
f 240//19 241//19 177//19
f 177//20 242//20 178//20
f 241//20 242//20 177//20
f 178//21 239//21 175//21
f 242//21 239//21 178//21
f 243//18 180//18 179//18
f 243//18 244//18 180//18
f 244//19 181//19 180//19
f 244//19 245//19 181//19
f 245//20 182//20 181//20
f 245//20 246//20 182//20
f 246//21 179//21 182//21
f 246//21 243//21 179//21
f 247//18 184//18 183//18
f 247//18 248//18 184//18
f 248//19 185//19 184//19
f 248//19 249//19 185//19
f 249//20 186//20 185//20
f 249//20 250//20 186//20
f 250//21 183//21 186//21
f 250//21 247//21 183//21
f 251//18 188//18 187//18
f 251//18 252//18 188//18
f 252//19 189//19 188//19
f 252//19 253//19 189//19
f 253//20 190//20 189//20
f 253//20 254//20 190//20
f 190//21 251//21 187//21
f 254//21 251//21 190//21
f 255//18 192//18 191//18
f 255//18 256//18 192//18
f 256//19 193//19 192//19
f 256//19 257//19 193//19
f 193//20 258//20 194//20
f 257//20 258//20 193//20
f 258//21 191//21 194//21
f 258//21 255//21 191//21
f 195//7 196//7 197//7
f 197//7 196//7 198//7
f 199//7 200//7 201//7
f 201//7 200//7 202//7
f 203//7 204//7 205//7
f 205//7 204//7 206//7
f 207//7 208//7 209//7
f 209//7 208//7 210//7
f 211//7 212//7 213//7
f 213//7 212//7 214//7
f 215//7 216//7 217//7
f 217//7 216//7 218//7
f 219//7 220//7 221//7
f 221//7 220//7 222//7
f 223//7 224//7 225//7
f 225//7 224//7 226//7
f 228//3 227//3 230//3
f 228//3 230//3 229//3
f 232//3 231//3 234//3
f 232//3 234//3 233//3
f 236//3 235//3 238//3
f 236//3 238//3 237//3
f 240//3 239//3 242//3
f 240//3 242//3 241//3
f 244//3 243//3 246//3
f 244//3 246//3 245//3
f 248//3 247//3 250//3
f 248//3 250//3 249//3
f 252//3 251//3 254//3
f 252//3 254//3 253//3
f 256//3 255//3 258//3
f 256//3 258//3 257//3
