# Blender v2.81 (sub 16) OBJ File: ''
# www.blender.org
mtllib DS1070-3 (WF-3 CONNFLY).mtl
o DS1070-3_(WF-3_CONNFLY)
v 0.003828 0.002366 -0.004338
v 0.004572 0.002366 -0.005538
v 0.003828 0.002366 -0.005538
v 0.004572 0.002366 -0.001937
v 0.000780 0.002366 -0.004338
v 0.002268 0.002366 -0.004338
v 0.002268 0.002366 -0.005538
v 0.000780 0.002366 -0.005538
v 0.003048 0.002366 -0.001937
v -0.000780 0.002366 -0.004338
v -0.002268 0.002366 -0.004338
v -0.000780 0.002366 -0.005538
v -0.002268 0.002366 -0.005538
v -0.003828 0.002366 -0.004338
v -0.003828 0.002366 -0.005538
v -0.004572 0.002366 -0.005538
v -0.003048 0.002366 -0.001937
v -0.004572 0.002366 -0.001937
v 0.002935 0.002366 0.008078
v 0.002983 0.002366 0.008030
v 0.003018 0.002366 0.007973
v 0.003041 0.002366 0.007910
v 0.002815 0.002366 0.008135
v 0.002878 0.002366 0.008113
v 0.002748 0.002366 0.008143
v 0.003048 0.002366 0.007843
v -0.003048 0.002366 0.007843
v -0.002748 0.002366 0.008143
v -0.002935 0.002366 0.008078
v -0.003041 0.002366 0.007910
v -0.003018 0.002366 0.007973
v -0.002983 0.002366 0.008030
v -0.002878 0.002366 0.008113
v -0.002815 0.002366 0.008135
v -0.002664 -0.000898 -0.001937
v -0.003432 -0.000898 -0.001937
v -0.004572 -0.004714 -0.001937
v -0.003432 -0.000130 -0.001937
v -0.003048 0.001286 -0.001937
v -0.002664 -0.000130 -0.001937
v -0.000384 -0.000898 -0.001937
v -0.000384 -0.000130 -0.001937
v 0.004572 -0.004714 -0.001937
v 0.000384 -0.000898 -0.001937
v 0.002664 -0.000898 -0.001937
v 0.002664 -0.000130 -0.001937
v 0.000384 -0.000130 -0.001937
v 0.003432 -0.000898 -0.001937
v 0.003048 0.001286 -0.001937
v 0.003432 -0.000130 -0.001937
v 0.003048 0.001286 0.007843
v 0.003048 0.001286 0.003943
v 0.003048 0.000926 0.003583
v 0.003048 0.000926 0.001063
v 0.003048 0.001286 0.000703
v -0.003048 0.001286 0.003943
v -0.003048 0.001286 0.007843
v -0.003048 0.000926 0.001063
v -0.003048 0.000926 0.003583
v -0.003048 0.001286 0.000703
v -0.000384 -0.000130 -0.004338
v 0.000384 -0.000130 -0.004338
v 0.000384 -0.000898 -0.004338
v -0.000780 -0.004714 -0.004338
v -0.000384 -0.000898 -0.004338
v 0.000780 -0.004714 -0.004338
v -0.000780 -0.004714 -0.005538
v -0.002268 -0.004714 -0.005538
v -0.002268 -0.004714 -0.004338
v -0.003432 -0.000130 -0.004338
v -0.002664 -0.000130 -0.004338
v -0.002664 -0.000898 -0.004338
v -0.003828 -0.004714 -0.004338
v -0.003432 -0.000898 -0.004338
v -0.003828 -0.004714 -0.005538
v -0.004572 -0.004714 -0.005538
v -0.002748 0.001286 0.008143
v 0.002748 0.001286 0.008143
v 0.004572 -0.004714 -0.005538
v 0.003828 -0.004714 -0.005538
v 0.003828 -0.004714 -0.004338
v 0.002664 -0.000130 -0.004338
v 0.003432 -0.000130 -0.004338
v 0.003432 -0.000898 -0.004338
v 0.002268 -0.004714 -0.004338
v 0.002664 -0.000898 -0.004338
v 0.002268 -0.004714 -0.005538
v 0.000780 -0.004714 -0.005538
v 0.002983 0.001286 0.008030
v 0.003041 0.001286 0.007910
v 0.003018 0.001286 0.007973
v 0.002935 0.001286 0.008078
v 0.002878 0.001286 0.008113
v 0.002815 0.001286 0.008135
v -0.003018 0.001286 0.007973
v -0.003041 0.001286 0.007910
v -0.002878 0.001286 0.008113
v -0.002815 0.001286 0.008135
v -0.002983 0.001286 0.008030
v -0.002935 0.001286 0.008078
v -0.003432 -0.000130 0.007333
v -0.002664 -0.000130 0.007333
v -0.002664 -0.000898 0.007333
v -0.003432 -0.000898 0.007333
v 0.002664 -0.000130 0.007333
v 0.003432 -0.000130 0.007333
v 0.003432 -0.000898 0.007333
v 0.002664 -0.000898 0.007333
v -0.000384 -0.000130 0.007333
v 0.000384 -0.000130 0.007333
v 0.000384 -0.000898 0.007333
v -0.000384 -0.000898 0.007333
v 0.000384 -0.000130 -0.009168
v -0.000384 -0.000130 -0.009168
v -0.000384 -0.000898 -0.009168
v 0.000384 -0.000898 -0.009168
v -0.002664 -0.000130 -0.009168
v -0.003432 -0.000130 -0.009168
v -0.003432 -0.000898 -0.009168
v -0.002664 -0.000898 -0.009168
v 0.003432 -0.000130 -0.009168
v 0.002664 -0.000130 -0.009168
v 0.002664 -0.000898 -0.009168
v 0.003432 -0.000898 -0.009168
v -0.003312 -0.000250 0.007663
v -0.002784 -0.000250 0.007663
v -0.002784 -0.000778 0.007663
v -0.003312 -0.000778 0.007663
v 0.002784 -0.000250 0.007663
v 0.003312 -0.000250 0.007663
v 0.003312 -0.000778 0.007663
v 0.002784 -0.000778 0.007663
v -0.000264 -0.000250 0.007663
v 0.000264 -0.000250 0.007663
v 0.000264 -0.000778 0.007663
v -0.000264 -0.000778 0.007663
v -0.000264 -0.000250 -0.009498
v 0.000264 -0.000250 -0.009498
v -0.000264 -0.000778 -0.009498
v 0.000264 -0.000778 -0.009498
v -0.003312 -0.000250 -0.009498
v -0.002784 -0.000250 -0.009498
v -0.003312 -0.000778 -0.009498
v -0.002784 -0.000778 -0.009498
v 0.002784 -0.000250 -0.009498
v 0.003312 -0.000250 -0.009498
v 0.002784 -0.000778 -0.009498
v 0.003312 -0.000778 -0.009498
vn 0.0000 1.0000 0.0000
vn 0.0000 -0.0000 1.0000
vn 1.0000 0.0000 0.0000
vn -1.0000 -0.0000 0.0000
vn 0.0000 -1.0000 -0.0000
vn -0.0000 0.0000 -1.0000
vn 0.0000 -0.7071 0.7071
vn 0.0000 -0.7071 -0.7071
vn 0.9937 0.0000 0.1120
vn 0.9439 0.0000 0.3303
vn 0.8467 0.0000 0.5320
vn 0.7071 0.0000 0.7071
vn 0.5320 0.0000 0.8467
vn 0.3303 0.0000 0.9439
vn 0.1120 0.0000 0.9937
vn 0.1119 0.0000 0.9937
vn -0.9937 0.0000 0.1120
vn -0.9439 0.0000 0.3303
vn -0.8467 0.0000 0.5320
vn -0.7071 0.0000 0.7071
vn -0.5320 0.0000 0.8467
vn -0.3303 0.0000 0.9439
vn -0.1120 0.0000 0.9937
vn -0.1119 0.0000 0.9937
vn 0.0000 0.9397 0.3420
vn 0.9397 0.0000 0.3420
vn 0.0000 -0.9397 0.3420
vn -0.9397 0.0000 0.3420
vn 0.0000 0.9397 -0.3420
vn -0.9397 0.0000 -0.3420
vn 0.0000 -0.9397 -0.3420
vn 0.9397 0.0000 -0.3420
usemtl material_1.449
s 1
f 1//1 2//1 3//1
f 4//1 2//1 1//1
f 5//1 6//1 7//1
f 5//1 7//1 8//1
f 9//1 1//1 6//1
f 9//1 4//1 1//1
f 9//1 6//1 5//1
f 10//1 9//1 5//1
f 11//1 10//1 12//1
f 11//1 12//1 13//1
f 14//1 15//1 16//1
f 17//1 11//1 14//1
f 17//1 9//1 10//1
f 17//1 10//1 11//1
f 18//1 17//1 14//1
f 18//1 14//1 16//1
f 19//1 20//1 21//1
f 19//1 21//1 22//1
f 23//1 24//1 19//1
f 23//1 19//1 22//1
f 25//1 22//1 26//1
f 25//1 23//1 22//1
f 27//1 28//1 25//1
f 27//1 26//1 9//1
f 27//1 9//1 17//1
f 27//1 25//1 26//1
f 29//1 27//1 30//1
f 29//1 30//1 31//1
f 29//1 31//1 32//1
f 29//1 33//1 34//1
f 29//1 34//1 28//1
f 29//1 28//1 27//1
f 35//2 36//2 37//2
f 18//2 36//2 38//2
f 18//2 37//2 36//2
f 39//2 38//2 40//2
f 39//2 18//2 38//2
f 41//2 35//2 37//2
f 17//2 18//2 39//2
f 42//2 40//2 35//2
f 42//2 35//2 41//2
f 42//2 39//2 40//2
f 43//2 44//2 41//2
f 43//2 41//2 37//2
f 45//2 44//2 43//2
f 46//2 47//2 44//2
f 46//2 44//2 45//2
f 48//2 45//2 43//2
f 49//2 46//2 50//2
f 49//2 47//2 46//2
f 4//2 9//2 49//2
f 4//2 50//2 48//2
f 4//2 49//2 50//2
f 4//2 48//2 43//2
f 49//2 39//2 42//2
f 49//2 42//2 47//2
f 51//3 52//3 26//3
f 53//3 54//3 52//3
f 52//3 54//3 55//3
f 52//3 9//3 26//3
f 55//3 9//3 52//3
f 55//3 49//3 9//3
f 56//4 57//4 27//4
f 58//4 59//4 56//4
f 58//4 56//4 60//4
f 17//4 56//4 27//4
f 17//4 60//4 56//4
f 39//4 60//4 17//4
f 60//5 39//5 49//5
f 60//5 49//5 55//5
f 5//6 61//6 10//6
f 62//6 61//6 5//6
f 63//6 64//6 65//6
f 66//6 64//6 63//6
f 5//6 66//6 62//6
f 62//6 66//6 63//6
f 64//6 10//6 65//6
f 65//6 10//6 61//6
f 10//3 67//3 12//3
f 64//3 67//3 10//3
f 68//6 12//6 67//6
f 13//6 12//6 68//6
f 68//4 69//4 13//4
f 13//4 69//4 11//4
f 11//6 70//6 14//6
f 71//6 70//6 11//6
f 72//6 73//6 74//6
f 69//6 73//6 72//6
f 73//6 14//6 74//6
f 74//6 14//6 70//6
f 11//6 69//6 71//6
f 71//6 69//6 72//6
f 14//3 75//3 15//3
f 73//3 75//3 14//3
f 76//6 15//6 75//6
f 16//6 15//6 76//6
f 37//4 16//4 76//4
f 37//4 18//4 16//4
f 77//2 78//2 25//2
f 28//2 77//2 25//2
f 4//3 79//3 2//3
f 4//3 43//3 79//3
f 3//6 2//6 80//6
f 80//6 2//6 79//6
f 3//4 81//4 1//4
f 80//4 81//4 3//4
f 1//6 82//6 6//6
f 83//6 82//6 1//6
f 84//6 85//6 86//6
f 81//6 85//6 84//6
f 1//6 81//6 83//6
f 83//6 81//6 84//6
f 85//6 6//6 86//6
f 86//6 6//6 82//6
f 6//3 87//3 7//3
f 85//3 87//3 6//3
f 8//6 7//6 88//6
f 88//6 7//6 87//6
f 8//4 66//4 5//4
f 88//4 66//4 8//4
f 73//5 76//5 75//5
f 37//5 73//5 69//5
f 37//5 76//5 73//5
f 67//5 69//5 68//5
f 64//5 37//5 69//5
f 64//5 69//5 67//5
f 85//5 66//5 88//5
f 85//5 88//5 87//5
f 81//5 80//5 79//5
f 43//5 64//5 66//5
f 43//5 85//5 81//5
f 43//5 37//5 64//5
f 43//5 66//5 85//5
f 43//5 81//5 79//5
f 89//5 51//5 90//5
f 89//5 90//5 91//5
f 78//5 52//5 51//5
f 78//5 89//5 92//5
f 78//5 92//5 93//5
f 78//5 93//5 94//5
f 78//5 51//5 89//5
f 77//5 56//5 52//5
f 77//5 52//5 78//5
f 57//5 56//5 77//5
f 95//5 96//5 57//5
f 95//5 57//5 77//5
f 97//5 77//5 98//5
f 99//5 97//5 100//5
f 99//5 77//5 97//5
f 99//5 95//5 77//5
f 56//7 53//7 52//7
f 56//7 59//7 53//7
f 59//5 54//5 53//5
f 59//5 58//5 54//5
f 58//8 55//8 54//8
f 58//8 60//8 55//8
f 90//9 51//9 26//9
f 90//9 26//9 22//9
f 91//10 22//10 21//10
f 91//10 90//10 22//10
f 89//11 21//11 20//11
f 89//11 91//11 21//11
f 92//12 20//12 19//12
f 92//12 89//12 20//12
f 93//13 19//13 24//13
f 93//13 92//13 19//13
f 94//14 24//14 23//14
f 94//14 93//14 24//14
f 78//15 23//16 25//16
f 78//15 94//15 23//16
f 30//17 27//17 57//17
f 30//17 57//17 96//17
f 31//18 96//18 95//18
f 31//18 30//18 96//18
f 32//19 95//19 99//19
f 32//19 31//19 95//19
f 29//20 99//20 100//20
f 29//20 32//20 99//20
f 33//21 100//21 97//21
f 33//21 29//21 100//21
f 34//22 97//22 98//22
f 34//22 33//22 97//22
f 28//23 98//24 77//24
f 28//23 34//23 98//24
usemtl material_0.456
f 101//1 102//1 40//1
f 101//1 40//1 38//1
f 102//3 103//3 35//3
f 102//3 35//3 40//3
f 103//5 104//5 36//5
f 103//5 36//5 35//5
f 104//4 101//4 38//4
f 104//4 38//4 36//4
f 105//1 106//1 50//1
f 105//1 50//1 46//1
f 106//3 107//3 48//3
f 106//3 48//3 50//3
f 107//5 108//5 45//5
f 107//5 45//5 48//5
f 108//4 105//4 46//4
f 108//4 46//4 45//4
f 109//1 110//1 47//1
f 109//1 47//1 42//1
f 110//3 111//3 44//3
f 110//3 44//3 47//3
f 111//5 112//5 41//5
f 111//5 41//5 44//5
f 112//4 109//4 42//4
f 112//4 42//4 41//4
f 61//1 113//1 114//1
f 61//1 62//1 113//1
f 65//4 114//4 115//4
f 65//4 61//4 114//4
f 63//5 115//5 116//5
f 63//5 65//5 115//5
f 62//3 116//3 113//3
f 62//3 63//3 116//3
f 70//1 117//1 118//1
f 70//1 71//1 117//1
f 74//4 118//4 119//4
f 74//4 70//4 118//4
f 72//5 119//5 120//5
f 72//5 74//5 119//5
f 71//3 120//3 117//3
f 71//3 72//3 120//3
f 82//1 121//1 122//1
f 82//1 83//1 121//1
f 86//4 122//4 123//4
f 86//4 82//4 122//4
f 84//5 123//5 124//5
f 84//5 86//5 123//5
f 83//3 124//3 121//3
f 83//3 84//3 124//3
f 125//25 102//25 101//25
f 125//25 126//25 102//25
f 126//26 103//26 102//26
f 126//26 127//26 103//26
f 127//27 104//27 103//27
f 127//27 128//27 104//27
f 128//28 101//28 104//28
f 128//28 125//28 101//28
f 129//25 106//25 105//25
f 129//25 130//25 106//25
f 130//26 107//26 106//26
f 130//26 131//26 107//26
f 131//27 108//27 107//27
f 131//27 132//27 108//27
f 132//28 105//28 108//28
f 132//28 129//28 105//28
f 133//25 110//25 109//25
f 133//25 134//25 110//25
f 134//26 111//26 110//26
f 134//26 135//26 111//26
f 135//27 112//27 111//27
f 135//27 136//27 112//27
f 136//28 109//28 112//28
f 136//28 133//28 109//28
f 113//29 137//29 114//29
f 138//29 137//29 113//29
f 114//30 139//30 115//30
f 137//30 139//30 114//30
f 115//31 140//31 116//31
f 139//31 140//31 115//31
f 116//32 138//32 113//32
f 140//32 138//32 116//32
f 117//29 141//29 118//29
f 142//29 141//29 117//29
f 118//30 143//30 119//30
f 141//30 143//30 118//30
f 119//31 144//31 120//31
f 143//31 144//31 119//31
f 120//32 142//32 117//32
f 144//32 142//32 120//32
f 121//29 145//29 122//29
f 146//29 145//29 121//29
f 122//30 147//30 123//30
f 145//30 147//30 122//30
f 123//31 148//31 124//31
f 147//31 148//31 123//31
f 124//32 146//32 121//32
f 148//32 146//32 124//32
f 126//2 125//2 128//2
f 126//2 128//2 127//2
f 130//2 129//2 132//2
f 130//2 132//2 131//2
f 134//2 133//2 136//2
f 134//2 136//2 135//2
f 137//6 138//6 139//6
f 139//6 138//6 140//6
f 141//6 142//6 143//6
f 143//6 142//6 144//6
f 145//6 146//6 147//6
f 147//6 146//6 148//6
