# Blender v2.81 (sub 16) OBJ File: ''
# www.blender.org
mtllib DS1070-2 (WF-2 CONNFLY).mtl
o DS1070-2_(WF-2_CONNFLY)
v 0.002763 0.002612 -0.006021
v 0.003655 0.002612 -0.007460
v 0.002763 0.002612 -0.007460
v 0.003655 0.002612 -0.003143
v -0.000892 0.002612 -0.006021
v 0.000892 0.002612 -0.006021
v 0.000892 0.002612 -0.007460
v -0.000892 0.002612 -0.007460
v 0.001827 0.002612 -0.003143
v -0.002763 0.002612 -0.006021
v -0.002763 0.002612 -0.007460
v -0.003655 0.002612 -0.007460
v -0.001827 0.002612 -0.003143
v -0.003655 0.002612 -0.003143
v 0.001692 0.002612 0.008866
v 0.001749 0.002612 0.008809
v 0.001792 0.002612 0.008741
v 0.001818 0.002612 0.008665
v 0.001548 0.002612 0.008936
v 0.001624 0.002612 0.008909
v 0.001468 0.002612 0.008945
v 0.001827 0.002612 0.008585
v -0.001827 0.002612 0.008585
v -0.001468 0.002612 0.008945
v -0.001749 0.002612 0.008809
v -0.001818 0.002612 0.008665
v -0.001792 0.002612 0.008741
v -0.001624 0.002612 0.008909
v -0.001548 0.002612 0.008936
v -0.001692 0.002612 0.008866
v -0.001367 -0.001302 -0.003143
v -0.002288 -0.001302 -0.003143
v -0.003655 -0.005877 -0.003143
v -0.002288 -0.000381 -0.003143
v -0.001827 0.001317 -0.003143
v -0.001367 -0.000381 -0.003143
v 0.001367 -0.001302 -0.003143
v 0.003655 -0.005877 -0.003143
v 0.001367 -0.000381 -0.003143
v 0.002288 -0.001302 -0.003143
v 0.001827 0.001317 -0.003143
v 0.002288 -0.000381 -0.003143
v 0.001827 0.001317 0.008585
v 0.001827 0.001317 0.003908
v 0.001827 0.000886 0.003477
v 0.001827 0.000886 0.000455
v 0.001827 0.001317 0.000023
v -0.001827 0.001317 0.003908
v -0.001827 0.001317 0.008585
v -0.001827 0.000886 0.000455
v -0.001827 0.000886 0.003477
v -0.001827 0.001317 0.000023
v 0.001367 -0.000381 -0.006021
v 0.002288 -0.000381 -0.006021
v 0.002288 -0.001302 -0.006021
v 0.000892 -0.005877 -0.006021
v 0.001367 -0.001302 -0.006021
v 0.002763 -0.005877 -0.006021
v 0.000892 -0.005877 -0.007460
v -0.000892 -0.005877 -0.007460
v -0.000892 -0.005877 -0.006021
v -0.002288 -0.000381 -0.006021
v -0.001367 -0.000381 -0.006021
v -0.001367 -0.001302 -0.006021
v -0.002763 -0.005877 -0.006021
v -0.002288 -0.001302 -0.006021
v -0.002763 -0.005877 -0.007460
v -0.003655 -0.005877 -0.007460
v -0.001468 0.001317 0.008945
v 0.001468 0.001317 0.008945
v 0.003655 -0.005877 -0.007460
v 0.002763 -0.005877 -0.007460
v 0.001749 0.001317 0.008809
v 0.001818 0.001317 0.008665
v 0.001792 0.001317 0.008741
v 0.001692 0.001317 0.008866
v 0.001624 0.001317 0.008909
v 0.001548 0.001317 0.008936
v -0.001624 0.001317 0.008909
v -0.001548 0.001317 0.008936
v -0.001749 0.001317 0.008809
v -0.001692 0.001317 0.008866
v -0.001792 0.001317 0.008741
v -0.001818 0.001317 0.008665
v -0.002288 -0.000381 0.007974
v -0.001367 -0.000381 0.007974
v -0.001367 -0.001302 0.007974
v -0.002288 -0.001302 0.007974
v 0.001367 -0.000381 0.007974
v 0.002288 -0.000381 0.007974
v 0.002288 -0.001302 0.007974
v 0.001367 -0.001302 0.007974
v 0.002288 -0.000381 -0.011813
v 0.001367 -0.000381 -0.011813
v 0.001367 -0.001302 -0.011813
v 0.002288 -0.001302 -0.011813
v -0.001367 -0.000381 -0.011813
v -0.002288 -0.000381 -0.011813
v -0.002288 -0.001302 -0.011813
v -0.001367 -0.001302 -0.011813
v -0.002144 -0.000524 0.008369
v -0.001511 -0.000524 0.008369
v -0.001511 -0.001158 0.008369
v -0.002144 -0.001158 0.008369
v 0.001511 -0.000524 0.008369
v 0.002144 -0.000524 0.008369
v 0.002144 -0.001158 0.008369
v 0.001511 -0.001158 0.008369
v 0.001511 -0.000524 -0.012208
v 0.002144 -0.000524 -0.012208
v 0.001511 -0.001158 -0.012208
v 0.002144 -0.001158 -0.012208
v -0.002144 -0.000524 -0.012208
v -0.001511 -0.000524 -0.012208
v -0.002144 -0.001158 -0.012208
v -0.001511 -0.001158 -0.012208
vn 0.0000 1.0000 -0.0000
vn 0.0000 -0.0000 1.0000
vn 1.0000 0.0000 0.0000
vn -1.0000 -0.0000 0.0000
vn 0.0000 -1.0000 -0.0000
vn 0.0000 0.0000 -1.0000
vn 0.0000 -0.7071 0.7071
vn 0.0000 -0.7071 -0.7071
vn 0.9937 0.0000 0.1120
vn 0.9439 0.0000 0.3303
vn 0.8467 0.0000 0.5320
vn 0.7071 0.0000 0.7071
vn 0.5321 0.0000 0.8467
vn 0.5320 0.0000 0.8467
vn 0.3303 0.0000 0.9439
vn 0.3302 0.0000 0.9439
vn 0.1120 0.0000 0.9937
vn -0.9937 0.0000 0.1120
vn -0.9439 0.0000 0.3303
vn -0.8467 0.0000 0.5320
vn -0.7071 0.0000 0.7071
vn -0.5321 0.0000 0.8467
vn -0.5320 0.0000 0.8467
vn -0.3303 0.0000 0.9439
vn -0.3302 0.0000 0.9439
vn -0.1120 0.0000 0.9937
vn 0.0000 0.9397 0.3420
vn 0.9397 0.0000 0.3420
vn 0.0000 -0.9397 0.3420
vn -0.9397 0.0000 0.3420
vn 0.0000 0.9397 -0.3420
vn -0.9397 0.0000 -0.3420
vn 0.0000 -0.9397 -0.3420
vn 0.9397 0.0000 -0.3420
usemtl material_1.376
s 1
f 1//1 2//1 3//1
f 4//1 2//1 1//1
f 5//1 6//1 7//1
f 5//1 7//1 8//1
f 9//1 1//1 6//1
f 9//1 4//1 1//1
f 10//1 11//1 12//1
f 13//1 5//1 10//1
f 13//1 9//1 6//1
f 13//1 6//1 5//1
f 14//1 13//1 10//1
f 14//1 10//1 12//1
f 15//1 16//1 17//1
f 15//1 17//1 18//1
f 19//1 20//1 15//1
f 21//1 18//1 22//1
f 21//1 19//1 15//1
f 21//1 15//1 18//1
f 23//1 24//1 21//1
f 23//1 22//1 9//1
f 23//1 9//1 13//1
f 23//1 21//1 22//1
f 25//1 23//1 26//1
f 25//1 26//1 27//1
f 25//1 28//1 29//1
f 25//1 29//1 24//1
f 25//1 24//1 23//1
f 30//1 28//1 25//1
f 31//2 32//2 33//2
f 14//2 32//2 34//2
f 14//2 33//2 32//2
f 35//2 34//2 36//2
f 35//2 14//2 34//2
f 37//2 33//2 38//2
f 37//2 31//2 33//2
f 13//2 14//2 35//2
f 39//2 36//2 31//2
f 39//2 35//2 36//2
f 39//2 31//2 37//2
f 40//2 37//2 38//2
f 41//2 39//2 42//2
f 41//2 35//2 39//2
f 4//2 9//2 41//2
f 4//2 42//2 40//2
f 4//2 41//2 42//2
f 4//2 40//2 38//2
f 43//3 44//3 22//3
f 45//3 46//3 44//3
f 44//3 46//3 47//3
f 44//3 9//3 22//3
f 47//3 9//3 44//3
f 47//3 41//3 9//3
f 48//4 49//4 23//4
f 50//4 51//4 48//4
f 50//4 48//4 52//4
f 13//4 48//4 23//4
f 13//4 52//4 48//4
f 35//4 52//4 13//4
f 52//5 35//5 41//5
f 52//5 41//5 47//5
f 1//6 53//6 6//6
f 54//6 53//6 1//6
f 55//6 56//6 57//6
f 58//6 56//6 55//6
f 1//6 58//6 54//6
f 54//6 58//6 55//6
f 56//6 6//6 57//6
f 57//6 6//6 53//6
f 6//3 59//3 7//3
f 56//3 59//3 6//3
f 60//6 7//6 59//6
f 8//6 7//6 60//6
f 60//4 61//4 8//4
f 8//4 61//4 5//4
f 5//6 62//6 10//6
f 63//6 62//6 5//6
f 64//6 65//6 66//6
f 61//6 65//6 64//6
f 65//6 10//6 66//6
f 66//6 10//6 62//6
f 5//6 61//6 63//6
f 63//6 61//6 64//6
f 10//3 67//3 11//3
f 65//3 67//3 10//3
f 68//6 11//6 67//6
f 12//6 11//6 68//6
f 33//4 12//4 68//4
f 33//4 14//4 12//4
f 24//2 69//2 70//2
f 24//2 70//2 21//2
f 4//3 71//3 2//3
f 4//3 38//3 71//3
f 3//6 2//6 72//6
f 72//6 2//6 71//6
f 3//4 58//4 1//4
f 72//4 58//4 3//4
f 65//5 68//5 67//5
f 33//5 65//5 61//5
f 33//5 68//5 65//5
f 56//5 61//5 60//5
f 56//5 60//5 59//5
f 56//5 33//5 61//5
f 58//5 72//5 71//5
f 38//5 56//5 58//5
f 38//5 33//5 56//5
f 38//5 58//5 71//5
f 73//5 43//5 74//5
f 73//5 74//5 75//5
f 70//5 73//5 76//5
f 70//5 76//5 77//5
f 70//5 77//5 78//5
f 70//5 43//5 73//5
f 49//5 48//5 44//5
f 49//5 44//5 43//5
f 69//5 49//5 43//5
f 69//5 43//5 70//5
f 79//5 69//5 80//5
f 81//5 79//5 82//5
f 81//5 83//5 84//5
f 81//5 84//5 49//5
f 81//5 49//5 69//5
f 81//5 69//5 79//5
f 48//7 45//7 44//7
f 48//7 51//7 45//7
f 51//5 46//5 45//5
f 51//5 50//5 46//5
f 50//8 47//8 46//8
f 50//8 52//8 47//8
f 74//9 43//9 22//9
f 74//9 22//9 18//9
f 75//10 18//10 17//10
f 75//10 74//10 18//10
f 73//11 17//11 16//11
f 73//11 75//11 17//11
f 76//12 16//12 15//12
f 76//12 73//12 16//12
f 77//13 15//14 20//14
f 77//13 76//13 15//14
f 78//15 20//15 19//15
f 78//15 77//16 20//15
f 70//17 19//17 21//17
f 70//17 78//17 19//17
f 26//18 23//18 49//18
f 26//18 49//18 84//18
f 27//19 84//19 83//19
f 27//19 26//19 84//19
f 25//20 83//20 81//20
f 25//20 27//20 83//20
f 30//21 81//21 82//21
f 30//21 25//21 81//21
f 28//22 82//23 79//23
f 28//22 30//22 82//23
f 29//24 79//24 80//24
f 29//24 28//25 79//24
f 24//26 80//26 69//26
f 24//26 29//26 80//26
usemtl material_0.383
f 85//1 86//1 36//1
f 85//1 36//1 34//1
f 86//3 87//3 31//3
f 86//3 31//3 36//3
f 87//5 88//5 32//5
f 87//5 32//5 31//5
f 88//4 85//4 34//4
f 88//4 34//4 32//4
f 89//1 90//1 42//1
f 89//1 42//1 39//1
f 90//3 91//3 40//3
f 90//3 40//3 42//3
f 91//5 92//5 37//5
f 91//5 37//5 40//5
f 92//4 89//4 39//4
f 92//4 39//4 37//4
f 53//1 93//1 94//1
f 53//1 54//1 93//1
f 57//4 94//4 95//4
f 57//4 53//4 94//4
f 55//5 95//5 96//5
f 55//5 57//5 95//5
f 54//3 96//3 93//3
f 54//3 55//3 96//3
f 62//1 97//1 98//1
f 62//1 63//1 97//1
f 66//4 98//4 99//4
f 66//4 62//4 98//4
f 64//5 99//5 100//5
f 64//5 66//5 99//5
f 63//3 100//3 97//3
f 63//3 64//3 100//3
f 101//27 86//27 85//27
f 101//27 102//27 86//27
f 102//28 87//28 86//28
f 102//28 103//28 87//28
f 103//29 88//29 87//29
f 103//29 104//29 88//29
f 104//30 85//30 88//30
f 104//30 101//30 85//30
f 105//27 90//27 89//27
f 105//27 106//27 90//27
f 106//28 91//28 90//28
f 106//28 107//28 91//28
f 107//29 92//29 91//29
f 107//29 108//29 92//29
f 108//30 89//30 92//30
f 108//30 105//30 89//30
f 93//31 109//31 94//31
f 110//31 109//31 93//31
f 94//32 111//32 95//32
f 109//32 111//32 94//32
f 95//33 112//33 96//33
f 111//33 112//33 95//33
f 96//34 110//34 93//34
f 112//34 110//34 96//34
f 97//31 113//31 98//31
f 114//31 113//31 97//31
f 98//32 115//32 99//32
f 113//32 115//32 98//32
f 99//33 116//33 100//33
f 115//33 116//33 99//33
f 100//34 114//34 97//34
f 116//34 114//34 100//34
f 102//2 101//2 104//2
f 102//2 104//2 103//2
f 106//2 105//2 108//2
f 106//2 108//2 107//2
f 109//6 110//6 111//6
f 111//6 110//6 112//6
f 113//6 114//6 115//6
f 115//6 114//6 116//6
