# Blender v2.81 (sub 16) OBJ File: ''
# www.blender.org
mtllib DS1013-10S (IDC-10MS CONNFLY).mtl
o DS1013-10S_(IDC-10MS_CONNFLY)
v -0.007115 -0.006047 0.005085
v -0.014500 -0.006047 0.009370
v -0.014500 -0.006047 -0.003486
v -0.003000 -0.006047 -0.000915
v -0.008543 -0.006047 0.007942
v -0.003000 -0.006047 0.009370
v -0.005686 -0.006047 0.007942
v 0.014785 -0.006047 -0.003486
v 0.003285 -0.006047 -0.000915
v 0.014785 -0.006047 0.009370
v 0.003285 -0.006047 0.009370
v -0.005686 -0.006190 0.007942
v -0.007115 -0.006190 0.005085
v -0.008543 -0.006190 0.007942
v 0.003285 -0.003618 -0.000915
v -0.003000 -0.003618 -0.000915
v -0.003000 -0.004333 -0.000344
v -0.003000 -0.003618 -0.000344
v -0.003000 -0.004333 0.008513
v -0.003000 -0.005190 0.009370
v -0.013643 -0.005190 0.009370
v -0.013643 0.005667 0.009370
v -0.014500 0.006524 0.009370
v 0.013928 -0.005190 0.009370
v 0.003285 -0.005190 0.009370
v 0.014785 0.006524 0.009370
v 0.013928 0.005667 0.009370
v -0.014500 -0.002190 0.005942
v -0.014500 -0.002190 -0.003486
v -0.014500 0.002667 0.005942
v -0.014500 0.006524 -0.003486
v -0.014500 0.002667 -0.003486
v -0.012786 -0.002190 -0.003486
v 0.000599 -0.001119 -0.003486
v 0.003314 0.001596 -0.003486
v 0.003314 -0.001119 -0.003486
v 0.000599 0.001596 -0.003486
v 0.000599 0.002510 -0.003486
v 0.003314 0.002510 -0.003486
v -0.007572 -0.002033 -0.003486
v 0.004228 0.001596 -0.003486
v -0.006658 -0.002033 -0.003486
v 0.004228 -0.001119 -0.003486
v -0.007572 -0.001119 -0.003486
v 0.004228 -0.002033 -0.003486
v 0.006942 -0.001119 -0.003486
v 0.006942 -0.002033 -0.003486
v -0.012786 0.002667 -0.003486
v -0.007572 0.001596 -0.003486
v 0.006942 0.001596 -0.003486
v -0.003943 -0.002033 -0.003486
v -0.007572 0.002510 -0.003486
v -0.000315 -0.002033 -0.003486
v 0.000599 -0.002033 -0.003486
v -0.006658 0.001596 -0.003486
v -0.006658 -0.001119 -0.003486
v 0.003314 -0.002033 -0.003486
v 0.007856 -0.002033 -0.003486
v -0.003943 -0.001119 -0.003486
v 0.004228 0.002510 -0.003486
v 0.006942 0.002510 -0.003486
v -0.003029 -0.002033 -0.003486
v 0.007856 0.001596 -0.003486
v 0.007856 -0.001119 -0.003486
v 0.013070 -0.002190 -0.003486
v -0.008929 0.005096 -0.003486
v -0.006658 0.002510 -0.003486
v 0.014785 -0.002190 -0.003486
v -0.008929 0.006524 -0.003486
v 0.009213 0.005096 -0.003486
v 0.007856 0.002510 -0.003486
v -0.003943 0.001596 -0.003486
v -0.003029 0.001596 -0.003486
v -0.003029 -0.001119 -0.003486
v 0.013070 0.002667 -0.003486
v -0.000315 -0.001119 -0.003486
v -0.003943 0.002510 -0.003486
v 0.009213 0.006524 -0.003486
v 0.014785 0.006524 -0.003486
v 0.014785 0.002667 -0.003486
v -0.003029 0.002510 -0.003486
v -0.000315 0.002510 -0.003486
v -0.000315 0.001596 -0.003486
v 0.014785 -0.002190 0.005942
v 0.014785 0.002667 0.005942
v 0.003285 -0.004333 -0.000344
v 0.003285 -0.003618 -0.000344
v 0.003285 -0.004333 0.008513
v -0.012786 -0.004333 0.008513
v 0.006942 -0.002033 -0.000344
v 0.004228 -0.002033 -0.000344
v 0.003314 0.001596 -0.000344
v 0.000599 -0.001119 -0.000344
v 0.003314 -0.001119 -0.000344
v 0.000599 0.001596 -0.000344
v -0.007572 -0.002033 -0.000344
v -0.012786 -0.002190 -0.000344
v -0.012786 -0.004333 -0.000344
v 0.003314 0.002510 -0.000344
v 0.000599 0.002510 -0.000344
v 0.004228 0.001596 -0.000344
v 0.004228 -0.001119 -0.000344
v -0.007572 -0.001119 -0.000344
v -0.012786 0.002667 -0.000344
v 0.006942 -0.001119 -0.000344
v 0.007856 -0.002033 -0.000344
v -0.006658 -0.002033 -0.000344
v -0.003943 -0.002033 -0.000344
v 0.006942 0.001596 -0.000344
v -0.007572 0.001596 -0.000344
v 0.013070 -0.004333 -0.000344
v -0.003029 -0.002033 -0.000344
v 0.006942 0.002510 -0.000344
v 0.004228 0.002510 -0.000344
v -0.003943 -0.001119 -0.000344
v -0.006658 -0.001119 -0.000344
v 0.007856 0.001596 -0.000344
v 0.007856 -0.001119 -0.000344
v -0.007572 0.002510 -0.000344
v -0.012786 0.004810 -0.000344
v -0.006658 0.001596 -0.000344
v 0.013070 -0.002190 -0.000344
v 0.013070 0.002667 -0.000344
v 0.007856 0.002510 -0.000344
v -0.006658 0.002510 -0.000344
v 0.013070 0.004810 -0.000344
v -0.000315 -0.002033 -0.000344
v 0.000599 -0.002033 -0.000344
v -0.003943 0.002510 -0.000344
v -0.003029 0.002510 -0.000344
v -0.003943 0.001596 -0.000344
v -0.000315 0.002510 -0.000344
v -0.000315 -0.001119 -0.000344
v -0.003029 -0.001119 -0.000344
v -0.003029 0.001596 -0.000344
v 0.003314 -0.002033 -0.000344
v -0.000315 0.001596 -0.000344
v 0.013070 -0.004333 0.008513
v 0.013070 0.004810 0.008513
v 0.009213 0.006524 -0.002058
v -0.008929 0.006524 -0.002058
v -0.012786 0.004810 0.008513
v -0.012786 -0.002190 0.005942
v -0.012786 0.002667 0.005942
v 0.013070 0.002667 0.005942
v 0.013070 -0.002190 0.005942
v -0.003029 0.002510 -0.008237
v -0.003943 0.002510 -0.008237
v -0.003943 0.001596 -0.008237
v -0.003029 0.001596 -0.008237
v -0.003029 -0.001119 -0.008237
v -0.003943 -0.001119 -0.008237
v -0.003943 -0.002033 -0.008237
v -0.003029 -0.002033 -0.008237
v 0.000599 0.002510 -0.008237
v -0.000315 0.002510 -0.008237
v -0.000315 0.001596 -0.008237
v 0.000599 0.001596 -0.008237
v 0.000599 -0.001119 -0.008237
v -0.000315 -0.001119 -0.008237
v -0.000315 -0.002033 -0.008237
v 0.000599 -0.002033 -0.008237
v 0.004228 0.002510 -0.008237
v 0.003314 0.002510 -0.008237
v 0.003314 0.001596 -0.008237
v 0.004228 0.001596 -0.008237
v 0.004228 -0.001119 -0.008237
v 0.003314 -0.001119 -0.008237
v 0.003314 -0.002033 -0.008237
v 0.004228 -0.002033 -0.008237
v 0.007856 0.002510 -0.008237
v 0.006942 0.002510 -0.008237
v 0.006942 0.001596 -0.008237
v 0.007856 0.001596 -0.008237
v 0.007856 -0.001119 -0.008237
v 0.006942 -0.001119 -0.008237
v 0.006942 -0.002033 -0.008237
v 0.007856 -0.002033 -0.008237
v -0.006658 0.002510 -0.008237
v -0.007572 0.002510 -0.008237
v -0.007572 0.001596 -0.008237
v -0.006658 0.001596 -0.008237
v -0.006658 -0.001119 -0.008237
v -0.007572 -0.001119 -0.008237
v -0.007572 -0.002033 -0.008237
v -0.006658 -0.002033 -0.008237
v -0.007572 -0.001119 0.007835
v -0.006658 -0.001119 0.007835
v -0.006658 -0.002033 0.007835
v -0.007572 -0.002033 0.007835
v -0.007572 0.002510 0.007835
v -0.006658 0.002510 0.007835
v -0.006658 0.001596 0.007835
v -0.007572 0.001596 0.007835
v 0.006942 -0.001119 0.007835
v 0.007856 -0.001119 0.007835
v 0.007856 -0.002033 0.007835
v 0.006942 -0.002033 0.007835
v 0.006942 0.002510 0.007835
v 0.007856 0.002510 0.007835
v 0.007856 0.001596 0.007835
v 0.006942 0.001596 0.007835
v 0.003314 -0.001119 0.007835
v 0.004228 -0.001119 0.007835
v 0.004228 -0.002033 0.007835
v 0.003314 -0.002033 0.007835
v 0.003314 0.002510 0.007835
v 0.004228 0.002510 0.007835
v 0.004228 0.001596 0.007835
v 0.003314 0.001596 0.007835
v -0.000315 -0.001119 0.007835
v 0.000599 -0.001119 0.007835
v 0.000599 -0.002033 0.007835
v -0.000315 -0.002033 0.007835
v -0.000315 0.002510 0.007835
v 0.000599 0.002510 0.007835
v 0.000599 0.001596 0.007835
v -0.000315 0.001596 0.007835
v -0.003943 -0.001119 0.007835
v -0.003029 -0.001119 0.007835
v -0.003029 -0.002033 0.007835
v -0.003943 -0.002033 0.007835
v -0.003943 0.002510 0.007835
v -0.003029 0.002510 0.007835
v -0.003029 0.001596 0.007835
v -0.003943 0.001596 0.007835
v -0.003800 0.002367 -0.008629
v -0.003172 0.002367 -0.008629
v -0.003800 0.001739 -0.008629
v -0.003172 0.001739 -0.008629
v -0.003800 -0.001261 -0.008629
v -0.003172 -0.001261 -0.008629
v -0.003800 -0.001890 -0.008629
v -0.003172 -0.001890 -0.008629
v -0.000172 0.002367 -0.008629
v 0.000457 0.002367 -0.008629
v -0.000172 0.001739 -0.008629
v 0.000457 0.001739 -0.008629
v -0.000172 -0.001261 -0.008629
v 0.000457 -0.001261 -0.008629
v -0.000172 -0.001890 -0.008629
v 0.000457 -0.001890 -0.008629
v 0.003456 0.002367 -0.008629
v 0.004085 0.002367 -0.008629
v 0.003456 0.001739 -0.008629
v 0.004085 0.001739 -0.008629
v 0.003456 -0.001261 -0.008629
v 0.004085 -0.001261 -0.008629
v 0.003456 -0.001890 -0.008629
v 0.004085 -0.001890 -0.008629
v 0.007085 0.002367 -0.008629
v 0.007713 0.002367 -0.008629
v 0.007085 0.001739 -0.008629
v 0.007713 0.001739 -0.008629
v 0.007085 -0.001261 -0.008629
v 0.007713 -0.001261 -0.008629
v 0.007085 -0.001890 -0.008629
v 0.007713 -0.001890 -0.008629
v -0.007429 0.002367 -0.008629
v -0.006800 0.002367 -0.008629
v -0.007429 0.001739 -0.008629
v -0.006800 0.001739 -0.008629
v -0.007429 -0.001261 -0.008629
v -0.006800 -0.001261 -0.008629
v -0.007429 -0.001890 -0.008629
v -0.006800 -0.001890 -0.008629
v -0.007429 -0.001261 0.008228
v -0.006800 -0.001261 0.008228
v -0.006800 -0.001890 0.008228
v -0.007429 -0.001890 0.008228
v -0.007429 0.002367 0.008228
v -0.006800 0.002367 0.008228
v -0.006800 0.001739 0.008228
v -0.007429 0.001739 0.008228
v 0.007085 -0.001261 0.008228
v 0.007713 -0.001261 0.008228
v 0.007713 -0.001890 0.008228
v 0.007085 -0.001890 0.008228
v 0.007085 0.002367 0.008228
v 0.007713 0.002367 0.008228
v 0.007713 0.001739 0.008228
v 0.007085 0.001739 0.008228
v 0.003456 -0.001261 0.008228
v 0.004085 -0.001261 0.008228
v 0.004085 -0.001890 0.008228
v 0.003456 -0.001890 0.008228
v 0.003456 0.002367 0.008228
v 0.004085 0.002367 0.008228
v 0.004085 0.001739 0.008228
v 0.003456 0.001739 0.008228
v -0.000172 -0.001261 0.008228
v 0.000457 -0.001261 0.008228
v 0.000457 -0.001890 0.008228
v -0.000172 -0.001890 0.008228
v -0.000172 0.002367 0.008228
v 0.000457 0.002367 0.008228
v 0.000457 0.001739 0.008228
v -0.000172 0.001739 0.008228
v -0.003800 -0.001261 0.008228
v -0.003172 -0.001261 0.008228
v -0.003172 -0.001890 0.008228
v -0.003800 -0.001890 0.008228
v -0.003800 0.002367 0.008228
v -0.003172 0.002367 0.008228
v -0.003172 0.001739 0.008228
v -0.003800 0.001739 0.008228
vn -0.0000 -1.0000 -0.0000
vn 0.8944 0.0000 -0.4472
vn 0.0000 0.0000 1.0000
vn -0.8944 0.0000 -0.4472
vn 1.0000 -0.0000 0.0000
vn -1.0000 -0.0000 0.0000
vn 0.0000 0.0000 -1.0000
vn 0.0000 0.7071 0.7071
vn 0.0000 1.0000 0.0000
vn -0.7071 0.0000 0.7071
vn 0.7071 0.0000 0.7071
vn 0.0000 -0.7071 0.7071
vn 0.0000 0.7071 -0.7071
vn 0.0000 0.9397 -0.3420
vn -0.9397 0.0000 -0.3420
vn 0.0000 -0.9397 -0.3420
vn 0.9397 0.0000 -0.3420
vn 0.0000 0.9397 0.3420
vn 0.9397 0.0000 0.3420
vn 0.0000 -0.9397 0.3420
vn -0.9397 0.0000 0.3420
usemtl material_0.334
s 1
f 1//1 2//1 3//1
f 1//1 3//1 4//1
f 5//1 2//1 1//1
f 6//1 5//1 7//1
f 6//1 7//1 1//1
f 6//1 1//1 4//1
f 6//1 2//1 5//1
f 8//1 9//1 4//1
f 8//1 4//1 3//1
f 10//1 11//1 9//1
f 10//1 9//1 8//1
f 1//2 7//2 12//2
f 1//2 12//2 13//2
f 7//3 5//3 14//3
f 7//3 14//3 12//3
f 5//4 1//4 13//4
f 5//4 13//4 14//4
f 15//3 4//3 9//3
f 16//3 4//3 15//3
f 4//5 16//5 17//5
f 16//5 18//5 17//5
f 6//5 19//5 20//5
f 4//5 19//5 6//5
f 17//5 19//5 4//5
f 6//3 21//3 2//3
f 20//3 21//3 6//3
f 22//3 2//3 21//3
f 23//3 2//3 22//3
f 24//3 25//3 11//3
f 10//3 24//3 11//3
f 26//3 27//3 24//3
f 26//3 24//3 10//3
f 26//3 23//3 22//3
f 26//3 22//3 27//3
f 28//6 29//6 3//6
f 28//6 3//6 2//6
f 30//6 31//6 32//6
f 30//6 28//6 2//6
f 23//6 31//6 30//6
f 23//6 30//6 2//6
f 29//7 33//7 3//7
f 34//7 35//7 36//7
f 37//7 35//7 34//7
f 38//7 39//7 37//7
f 33//7 40//7 3//7
f 37//7 39//7 35//7
f 35//7 41//7 36//7
f 40//7 42//7 3//7
f 36//7 41//7 43//7
f 33//7 44//7 40//7
f 45//7 46//7 47//7
f 32//7 31//7 48//7
f 43//7 46//7 45//7
f 48//7 49//7 33//7
f 33//7 49//7 44//7
f 41//7 50//7 43//7
f 42//7 51//7 3//7
f 43//7 50//7 46//7
f 48//7 52//7 49//7
f 53//7 8//7 3//7
f 54//7 8//7 53//7
f 44//7 55//7 56//7
f 47//7 8//7 45//7
f 49//7 55//7 44//7
f 45//7 8//7 57//7
f 58//7 8//7 47//7
f 56//7 59//7 42//7
f 42//7 59//7 51//7
f 57//7 8//7 54//7
f 60//7 61//7 41//7
f 41//7 61//7 50//7
f 51//7 62//7 3//7
f 50//7 63//7 46//7
f 46//7 63//7 64//7
f 58//7 65//7 8//7
f 52//7 66//7 67//7
f 64//7 65//7 58//7
f 31//7 66//7 48//7
f 48//7 66//7 52//7
f 65//7 68//7 8//7
f 31//7 69//7 66//7
f 61//7 70//7 71//7
f 62//7 53//7 3//7
f 55//7 72//7 56//7
f 56//7 72//7 59//7
f 72//7 73//7 59//7
f 59//7 73//7 74//7
f 63//7 75//7 64//7
f 70//7 75//7 71//7
f 74//7 76//7 62//7
f 71//7 75//7 63//7
f 64//7 75//7 65//7
f 62//7 76//7 53//7
f 67//7 77//7 55//7
f 78//7 79//7 70//7
f 75//7 79//7 80//7
f 55//7 77//7 72//7
f 70//7 79//7 75//7
f 66//7 70//7 67//7
f 67//7 70//7 77//7
f 77//7 70//7 81//7
f 81//7 70//7 82//7
f 82//7 70//7 38//7
f 38//7 70//7 39//7
f 39//7 70//7 60//7
f 60//7 70//7 61//7
f 73//7 83//7 74//7
f 74//7 83//7 76//7
f 34//7 36//7 54//7
f 54//7 36//7 57//7
f 81//7 82//7 73//7
f 73//7 82//7 83//7
f 83//7 37//7 76//7
f 76//7 37//7 34//7
f 8//5 84//5 10//5
f 68//5 84//5 8//5
f 79//5 85//5 80//5
f 84//5 85//5 10//5
f 79//5 26//5 85//5
f 85//5 26//5 10//5
f 15//6 9//6 86//6
f 87//6 15//6 86//6
f 88//6 9//6 11//6
f 88//6 11//6 25//6
f 88//6 86//6 9//6
f 14//1 13//1 12//1
f 18//1 16//1 87//1
f 87//1 16//1 15//1
f 21//8 20//8 89//8
f 20//8 19//8 89//8
f 90//3 87//3 86//3
f 90//3 91//3 87//3
f 92//3 93//3 94//3
f 92//3 95//3 93//3
f 96//3 97//3 98//3
f 99//3 95//3 92//3
f 99//3 100//3 95//3
f 101//3 92//3 94//3
f 101//3 94//3 102//3
f 103//3 104//3 97//3
f 103//3 97//3 96//3
f 105//3 91//3 90//3
f 105//3 102//3 91//3
f 106//3 90//3 86//3
f 17//3 107//3 96//3
f 17//3 96//3 98//3
f 18//3 107//3 17//3
f 108//3 107//3 18//3
f 109//3 102//3 105//3
f 109//3 101//3 102//3
f 110//3 104//3 103//3
f 111//3 106//3 86//3
f 112//3 108//3 18//3
f 113//3 114//3 101//3
f 115//3 116//3 107//3
f 113//3 101//3 109//3
f 115//3 107//3 108//3
f 117//3 105//3 118//3
f 119//3 120//3 104//3
f 119//3 104//3 110//3
f 117//3 109//3 105//3
f 121//3 103//3 116//3
f 121//3 110//3 103//3
f 122//3 118//3 106//3
f 122//3 106//3 111//3
f 123//3 124//3 117//3
f 123//3 117//3 118//3
f 123//3 118//3 122//3
f 125//3 120//3 119//3
f 126//3 113//3 124//3
f 126//3 114//3 113//3
f 126//3 124//3 123//3
f 127//3 112//3 18//3
f 18//3 87//3 128//3
f 18//3 128//3 127//3
f 126//3 120//3 129//3
f 126//3 129//3 130//3
f 131//3 116//3 115//3
f 126//3 130//3 132//3
f 131//3 121//3 116//3
f 126//3 132//3 100//3
f 126//3 100//3 99//3
f 126//3 99//3 114//3
f 133//3 134//3 112//3
f 133//3 112//3 127//3
f 135//3 115//3 134//3
f 135//3 131//3 115//3
f 129//3 125//3 121//3
f 129//3 121//3 131//3
f 129//3 120//3 125//3
f 136//3 128//3 87//3
f 137//3 135//3 134//3
f 137//3 134//3 133//3
f 94//3 128//3 136//3
f 94//3 93//3 128//3
f 91//3 136//3 87//3
f 132//3 130//3 135//3
f 132//3 135//3 137//3
f 95//3 137//3 133//3
f 95//3 133//3 93//3
f 98//9 19//9 17//9
f 89//9 19//9 98//9
f 27//10 138//10 24//10
f 139//10 138//10 27//10
f 25//8 138//8 88//8
f 24//8 138//8 25//8
f 140//9 79//9 78//9
f 26//9 79//9 140//9
f 31//9 141//9 69//9
f 23//9 140//9 141//9
f 23//9 26//9 140//9
f 23//9 141//9 31//9
f 89//11 22//11 21//11
f 89//11 142//11 22//11
f 142//12 139//12 22//12
f 139//12 27//12 22//12
f 29//9 97//9 33//9
f 97//9 28//9 143//9
f 29//9 28//9 97//9
f 30//1 104//1 144//1
f 104//1 32//1 48//1
f 30//1 32//1 104//1
f 143//7 30//7 144//7
f 28//7 30//7 143//7
f 33//6 97//6 104//6
f 33//6 104//6 48//6
f 69//5 141//5 66//5
f 141//13 140//13 66//13
f 140//13 70//13 66//13
f 140//6 78//6 70//6
f 80//1 123//1 75//1
f 123//1 85//1 145//1
f 80//1 85//1 123//1
f 122//5 65//5 75//5
f 122//5 75//5 123//5
f 84//9 122//9 146//9
f 122//9 68//9 65//9
f 84//9 68//9 122//9
f 145//7 84//7 146//7
f 85//7 84//7 145//7
f 88//9 111//9 86//9
f 88//9 138//9 111//9
f 97//5 143//5 98//5
f 143//5 89//5 98//5
f 120//5 144//5 104//5
f 143//5 144//5 89//5
f 120//5 142//5 144//5
f 144//5 142//5 89//5
f 146//6 122//6 111//6
f 138//6 146//6 111//6
f 145//6 126//6 123//6
f 145//6 146//6 138//6
f 139//6 126//6 145//6
f 139//6 145//6 138//6
f 126//1 142//1 120//1
f 139//1 142//1 126//1
usemtl material_1.328
f 77//9 147//9 148//9
f 77//9 81//9 147//9
f 72//6 148//6 149//6
f 72//6 77//6 148//6
f 73//1 149//1 150//1
f 73//1 72//1 149//1
f 81//5 150//5 147//5
f 81//5 73//5 150//5
f 59//9 151//9 152//9
f 59//9 74//9 151//9
f 51//6 152//6 153//6
f 51//6 59//6 152//6
f 62//1 153//1 154//1
f 62//1 51//1 153//1
f 74//5 154//5 151//5
f 74//5 62//5 154//5
f 82//9 155//9 156//9
f 82//9 38//9 155//9
f 83//6 156//6 157//6
f 83//6 82//6 156//6
f 37//1 157//1 158//1
f 37//1 83//1 157//1
f 38//5 158//5 155//5
f 38//5 37//5 158//5
f 76//9 159//9 160//9
f 76//9 34//9 159//9
f 53//6 160//6 161//6
f 53//6 76//6 160//6
f 54//1 161//1 162//1
f 54//1 53//1 161//1
f 34//5 162//5 159//5
f 34//5 54//5 162//5
f 39//9 163//9 164//9
f 39//9 60//9 163//9
f 35//6 164//6 165//6
f 35//6 39//6 164//6
f 41//1 165//1 166//1
f 41//1 35//1 165//1
f 60//5 166//5 163//5
f 60//5 41//5 166//5
f 36//9 167//9 168//9
f 36//9 43//9 167//9
f 57//6 168//6 169//6
f 57//6 36//6 168//6
f 45//1 169//1 170//1
f 45//1 57//1 169//1
f 43//5 170//5 167//5
f 43//5 45//5 170//5
f 61//9 171//9 172//9
f 61//9 71//9 171//9
f 50//6 172//6 173//6
f 50//6 61//6 172//6
f 63//1 173//1 174//1
f 63//1 50//1 173//1
f 71//5 174//5 171//5
f 71//5 63//5 174//5
f 46//9 175//9 176//9
f 46//9 64//9 175//9
f 47//6 176//6 177//6
f 47//6 46//6 176//6
f 58//1 177//1 178//1
f 58//1 47//1 177//1
f 64//5 178//5 175//5
f 64//5 58//5 178//5
f 52//9 179//9 180//9
f 52//9 67//9 179//9
f 49//6 180//6 181//6
f 49//6 52//6 180//6
f 55//1 181//1 182//1
f 55//1 49//1 181//1
f 67//5 182//5 179//5
f 67//5 55//5 182//5
f 44//9 183//9 184//9
f 44//9 56//9 183//9
f 40//6 184//6 185//6
f 40//6 44//6 184//6
f 42//1 185//1 186//1
f 42//1 40//1 185//1
f 56//5 186//5 183//5
f 56//5 42//5 186//5
f 187//9 188//9 116//9
f 187//9 116//9 103//9
f 188//5 189//5 107//5
f 188//5 107//5 116//5
f 189//1 190//1 96//1
f 189//1 96//1 107//1
f 190//6 187//6 103//6
f 190//6 103//6 96//6
f 191//9 192//9 125//9
f 191//9 125//9 119//9
f 192//5 193//5 121//5
f 192//5 121//5 125//5
f 193//1 194//1 110//1
f 193//1 110//1 121//1
f 194//6 191//6 119//6
f 194//6 119//6 110//6
f 195//9 196//9 118//9
f 195//9 118//9 105//9
f 196//5 197//5 106//5
f 196//5 106//5 118//5
f 197//1 198//1 90//1
f 197//1 90//1 106//1
f 198//6 195//6 105//6
f 198//6 105//6 90//6
f 199//9 200//9 124//9
f 199//9 124//9 113//9
f 200//5 201//5 117//5
f 200//5 117//5 124//5
f 201//1 202//1 109//1
f 201//1 109//1 117//1
f 202//6 199//6 113//6
f 202//6 113//6 109//6
f 203//9 204//9 102//9
f 203//9 102//9 94//9
f 204//5 205//5 91//5
f 204//5 91//5 102//5
f 205//1 206//1 136//1
f 205//1 136//1 91//1
f 206//6 203//6 94//6
f 206//6 94//6 136//6
f 207//9 208//9 114//9
f 207//9 114//9 99//9
f 208//5 209//5 101//5
f 208//5 101//5 114//5
f 209//1 210//1 92//1
f 209//1 92//1 101//1
f 210//6 207//6 99//6
f 210//6 99//6 92//6
f 211//9 212//9 93//9
f 211//9 93//9 133//9
f 212//5 213//5 128//5
f 212//5 128//5 93//5
f 213//1 214//1 127//1
f 213//1 127//1 128//1
f 214//6 211//6 133//6
f 214//6 133//6 127//6
f 215//9 216//9 100//9
f 215//9 100//9 132//9
f 216//5 217//5 95//5
f 216//5 95//5 100//5
f 217//1 218//1 137//1
f 217//1 137//1 95//1
f 218//6 215//6 132//6
f 218//6 132//6 137//6
f 219//9 220//9 134//9
f 219//9 134//9 115//9
f 220//5 221//5 112//5
f 220//5 112//5 134//5
f 221//1 222//1 108//1
f 221//1 108//1 112//1
f 222//6 219//6 115//6
f 222//6 115//6 108//6
f 223//9 224//9 130//9
f 223//9 130//9 129//9
f 224//5 225//5 135//5
f 224//5 135//5 130//5
f 225//1 226//1 131//1
f 225//1 131//1 135//1
f 226//6 223//6 129//6
f 226//6 129//6 131//6
f 147//14 227//14 148//14
f 228//14 227//14 147//14
f 148//15 229//15 149//15
f 227//15 229//15 148//15
f 149//16 230//16 150//16
f 229//16 230//16 149//16
f 150//17 228//17 147//17
f 230//17 228//17 150//17
f 151//14 231//14 152//14
f 232//14 231//14 151//14
f 152//15 233//15 153//15
f 231//15 233//15 152//15
f 153//16 234//16 154//16
f 233//16 234//16 153//16
f 154//17 232//17 151//17
f 234//17 232//17 154//17
f 155//14 235//14 156//14
f 236//14 235//14 155//14
f 156//15 237//15 157//15
f 235//15 237//15 156//15
f 157//16 238//16 158//16
f 237//16 238//16 157//16
f 158//17 236//17 155//17
f 238//17 236//17 158//17
f 159//14 239//14 160//14
f 240//14 239//14 159//14
f 160//15 241//15 161//15
f 239//15 241//15 160//15
f 161//16 242//16 162//16
f 241//16 242//16 161//16
f 162//17 240//17 159//17
f 242//17 240//17 162//17
f 163//14 243//14 164//14
f 244//14 243//14 163//14
f 164//15 245//15 165//15
f 243//15 245//15 164//15
f 165//16 246//16 166//16
f 245//16 246//16 165//16
f 166//17 244//17 163//17
f 246//17 244//17 166//17
f 167//14 247//14 168//14
f 248//14 247//14 167//14
f 168//15 249//15 169//15
f 247//15 249//15 168//15
f 169//16 250//16 170//16
f 249//16 250//16 169//16
f 170//17 248//17 167//17
f 250//17 248//17 170//17
f 171//14 251//14 172//14
f 252//14 251//14 171//14
f 172//15 253//15 173//15
f 251//15 253//15 172//15
f 173//16 254//16 174//16
f 253//16 254//16 173//16
f 174//17 252//17 171//17
f 254//17 252//17 174//17
f 175//14 255//14 176//14
f 256//14 255//14 175//14
f 176//15 257//15 177//15
f 255//15 257//15 176//15
f 177//16 258//16 178//16
f 257//16 258//16 177//16
f 178//17 256//17 175//17
f 258//17 256//17 178//17
f 179//14 259//14 180//14
f 260//14 259//14 179//14
f 180//15 261//15 181//15
f 259//15 261//15 180//15
f 181//16 262//16 182//16
f 261//16 262//16 181//16
f 182//17 260//17 179//17
f 262//17 260//17 182//17
f 183//14 263//14 184//14
f 264//14 263//14 183//14
f 184//15 265//15 185//15
f 263//15 265//15 184//15
f 185//16 266//16 186//16
f 265//16 266//16 185//16
f 186//17 264//17 183//17
f 266//17 264//17 186//17
f 267//18 188//18 187//18
f 267//18 268//18 188//18
f 268//19 189//19 188//19
f 268//19 269//19 189//19
f 269//20 190//20 189//20
f 269//20 270//20 190//20
f 270//21 187//21 190//21
f 270//21 267//21 187//21
f 271//18 192//18 191//18
f 271//18 272//18 192//18
f 272//19 193//19 192//19
f 272//19 273//19 193//19
f 193//20 274//20 194//20
f 273//20 274//20 193//20
f 274//21 191//21 194//21
f 274//21 271//21 191//21
f 275//18 196//18 195//18
f 275//18 276//18 196//18
f 276//19 197//19 196//19
f 276//19 277//19 197//19
f 277//20 198//20 197//20
f 277//20 278//20 198//20
f 278//21 195//21 198//21
f 278//21 275//21 195//21
f 279//18 200//18 199//18
f 279//18 280//18 200//18
f 280//19 201//19 200//19
f 280//19 281//19 201//19
f 281//20 202//20 201//20
f 281//20 282//20 202//20
f 282//21 199//21 202//21
f 282//21 279//21 199//21
f 283//18 204//18 203//18
f 283//18 284//18 204//18
f 284//19 205//19 204//19
f 284//19 285//19 205//19
f 205//20 286//20 206//20
f 285//20 286//20 205//20
f 286//21 203//21 206//21
f 286//21 283//21 203//21
f 287//18 208//18 207//18
f 287//18 288//18 208//18
f 288//19 209//19 208//19
f 288//19 289//19 209//19
f 209//20 290//20 210//20
f 289//20 290//20 209//20
f 210//21 287//21 207//21
f 290//21 287//21 210//21
f 291//18 212//18 211//18
f 291//18 292//18 212//18
f 292//19 213//19 212//19
f 292//19 293//19 213//19
f 293//20 214//20 213//20
f 293//20 294//20 214//20
f 294//21 211//21 214//21
f 294//21 291//21 211//21
f 295//18 216//18 215//18
f 295//18 296//18 216//18
f 296//19 217//19 216//19
f 296//19 297//19 217//19
f 297//20 218//20 217//20
f 297//20 298//20 218//20
f 298//21 215//21 218//21
f 298//21 295//21 215//21
f 299//18 220//18 219//18
f 299//18 300//18 220//18
f 300//19 221//19 220//19
f 300//19 301//19 221//19
f 301//20 222//20 221//20
f 301//20 302//20 222//20
f 222//21 299//21 219//21
f 302//21 299//21 222//21
f 303//18 224//18 223//18
f 303//18 304//18 224//18
f 304//19 225//19 224//19
f 304//19 305//19 225//19
f 225//20 306//20 226//20
f 305//20 306//20 225//20
f 306//21 223//21 226//21
f 306//21 303//21 223//21
f 227//7 228//7 229//7
f 229//7 228//7 230//7
f 231//7 232//7 233//7
f 233//7 232//7 234//7
f 235//7 236//7 237//7
f 237//7 236//7 238//7
f 239//7 240//7 241//7
f 241//7 240//7 242//7
f 243//7 244//7 245//7
f 245//7 244//7 246//7
f 247//7 248//7 249//7
f 249//7 248//7 250//7
f 251//7 252//7 253//7
f 253//7 252//7 254//7
f 255//7 256//7 257//7
f 257//7 256//7 258//7
f 259//7 260//7 261//7
f 261//7 260//7 262//7
f 263//7 264//7 265//7
f 265//7 264//7 266//7
f 268//3 267//3 270//3
f 268//3 270//3 269//3
f 272//3 271//3 274//3
f 272//3 274//3 273//3
f 276//3 275//3 278//3
f 276//3 278//3 277//3
f 280//3 279//3 282//3
f 280//3 282//3 281//3
f 284//3 283//3 286//3
f 284//3 286//3 285//3
f 288//3 287//3 290//3
f 288//3 290//3 289//3
f 292//3 291//3 294//3
f 292//3 294//3 293//3
f 296//3 295//3 298//3
f 296//3 298//3 297//3
f 300//3 299//3 302//3
f 300//3 302//3 301//3
f 304//3 303//3 306//3
f 304//3 306//3 305//3
