# Blender v2.81 (sub 16) OBJ File: ''
# www.blender.org
mtllib DS1069-4 CWF-4.mtl
o DS1069-4_CWF-4
v 0.008636 -0.002041 0.007966
v 0.010794 -0.002041 0.007966
v 0.008636 -0.002041 0.006585
v 0.010794 -0.002041 0.001058
v -0.008409 -0.002041 0.001448
v -0.008245 -0.002041 0.001284
v -0.009585 -0.002041 0.001058
v -0.008049 -0.002041 0.001160
v -0.009585 -0.002041 -0.000669
v -0.008533 -0.002041 0.001644
v -0.007830 -0.002041 0.001084
v -0.008610 -0.002041 0.001864
v -0.010794 -0.002041 0.001058
v -0.008636 -0.002041 0.002094
v -0.007599 -0.002041 0.001058
v -0.004318 -0.002041 0.001058
v -0.010794 -0.002041 0.007966
v -0.008636 -0.002041 0.006585
v -0.008636 -0.002041 0.007966
v -0.007945 -0.002041 0.007275
v 0.007599 -0.002041 0.001058
v 0.009585 -0.002041 -0.000669
v 0.004318 -0.002041 0.001058
v 0.007830 -0.002041 0.001084
v 0.008049 -0.002041 0.001160
v 0.008245 -0.002041 0.001284
v 0.009585 -0.002041 0.001058
v 0.008409 -0.002041 0.001448
v 0.008533 -0.002041 0.001644
v 0.008610 -0.002041 0.001864
v 0.008636 -0.002041 0.002094
v -0.004318 -0.002041 0.007966
v 0.004318 -0.002041 0.007966
v 0.007945 -0.002041 0.007275
v -0.004318 -0.003250 0.007966
v 0.004318 -0.003250 0.007966
v 0.008636 -0.003250 0.007966
v 0.010794 -0.003250 0.007966
v 0.007830 -0.003250 0.001084
v 0.007599 -0.003250 0.001058
v 0.007945 -0.003250 -0.003433
v 0.008049 -0.003250 0.001160
v -0.007945 -0.003250 -0.003433
v -0.010794 -0.003250 -0.004123
v -0.007945 -0.003250 -0.004123
v 0.008245 -0.003250 0.001284
v 0.010794 -0.003250 -0.004123
v 0.008409 -0.003250 0.001448
v 0.008533 -0.003250 0.001644
v -0.003627 -0.003250 -0.003433
v -0.005009 -0.003250 -0.003433
v -0.005009 -0.003250 -0.004123
v -0.003627 -0.003250 -0.004123
v 0.008610 -0.003250 0.001864
v -0.008245 -0.003250 0.001284
v 0.008636 -0.003250 0.002094
v -0.008409 -0.003250 0.001448
v -0.004318 -0.003250 0.001058
v 0.004318 -0.003250 0.001058
v -0.008533 -0.003250 0.001644
v -0.008049 -0.003250 0.001160
v -0.007830 -0.003250 0.001084
v 0.007945 -0.003250 0.007275
v 0.008636 -0.003250 0.006585
v -0.008610 -0.003250 0.001864
v -0.007599 -0.003250 0.001058
v -0.008636 -0.003250 0.002094
v -0.000691 -0.003250 -0.003433
v -0.010794 -0.003250 0.007966
v 0.000691 -0.003250 -0.003433
v -0.000691 -0.003250 -0.004123
v 0.000691 -0.003250 -0.004123
v -0.008636 -0.003250 0.006585
v -0.008636 -0.003250 0.007966
v -0.007945 -0.003250 0.007275
v 0.005009 -0.003250 -0.003433
v 0.003627 -0.003250 -0.003433
v 0.003627 -0.003250 -0.004123
v 0.005009 -0.003250 -0.004123
v 0.007945 -0.003250 -0.004123
v 0.010794 -0.000141 0.001058
v 0.010794 0.006681 -0.004123
v 0.010794 0.006681 0.007966
v 0.010794 -0.000141 0.007966
v 0.009585 -0.000141 0.001058
v 0.009585 0.005472 -0.000669
v 0.009585 0.005472 0.007448
v 0.009585 -0.000141 0.007448
v -0.007029 0.001103 -0.000669
v -0.007029 -0.000003 -0.000669
v -0.005924 -0.000003 -0.000669
v -0.009585 0.005472 -0.000669
v -0.005924 0.001103 -0.000669
v -0.002712 -0.000003 -0.000669
v -0.001606 -0.000003 -0.000669
v -0.002712 0.001103 -0.000669
v -0.001606 0.001103 -0.000669
v 0.001606 -0.000003 -0.000669
v 0.001606 0.001103 -0.000669
v 0.005924 0.001103 -0.000669
v 0.002712 0.001103 -0.000669
v 0.002712 -0.000003 -0.000669
v 0.005924 -0.000003 -0.000669
v 0.007029 -0.000003 -0.000669
v 0.007029 0.001103 -0.000669
v -0.009585 -0.000141 0.001058
v -0.009585 0.005472 0.007448
v -0.009585 -0.000141 0.007448
v -0.010794 -0.000141 0.001058
v -0.010794 0.006681 -0.004123
v -0.010794 0.006681 0.007966
v -0.010794 -0.000141 0.007966
v -0.007945 0.006681 -0.004123
v -0.007945 0.006681 -0.003433
v -0.007029 -0.000003 -0.003433
v -0.005924 -0.000003 -0.003433
v -0.005924 0.001103 -0.003433
v -0.007029 0.001103 -0.003433
v -0.005009 0.006681 -0.003433
v -0.005009 0.006681 -0.004123
v -0.003627 0.006681 -0.004123
v -0.003627 0.006681 -0.003433
v -0.002712 -0.000003 -0.003433
v -0.001606 -0.000003 -0.003433
v -0.001606 0.001103 -0.003433
v -0.002712 0.001103 -0.003433
v -0.000691 0.006681 -0.003433
v -0.000691 0.006681 -0.004123
v 0.000691 0.006681 -0.004123
v 0.000691 0.006681 -0.003433
v 0.002712 0.001103 -0.003433
v 0.002712 -0.000003 -0.003433
v 0.001606 -0.000003 -0.003433
v 0.001606 0.001103 -0.003433
v 0.003627 0.006681 -0.003433
v 0.003627 0.006681 -0.004123
v 0.005009 0.006681 -0.004123
v 0.005009 0.006681 -0.003433
v 0.007029 0.001103 -0.003433
v 0.007029 -0.000003 -0.003433
v 0.005924 -0.000003 -0.003433
v 0.005924 0.001103 -0.003433
v 0.007945 0.006681 -0.003433
v 0.007945 0.006681 -0.004123
v 0.010104 -0.000141 0.007966
v -0.010104 0.005990 0.007966
v -0.010104 -0.000141 0.007966
v 0.010104 0.005990 0.007966
v -0.002712 0.001103 0.006458
v -0.001606 0.001103 0.006458
v -0.001606 -0.000003 0.006458
v -0.002712 -0.000003 0.006458
v 0.001606 0.001103 0.006458
v 0.002712 0.001103 0.006458
v 0.002712 -0.000003 0.006458
v 0.001606 -0.000003 0.006458
v 0.005924 0.001103 0.006458
v 0.007029 0.001103 0.006458
v 0.007029 -0.000003 0.006458
v 0.005924 -0.000003 0.006458
v -0.007029 0.001103 0.006458
v -0.005924 0.001103 0.006458
v -0.005924 -0.000003 0.006458
v -0.007029 -0.000003 0.006458
v -0.005924 0.001103 -0.009524
v -0.007029 0.001103 -0.009524
v -0.007029 -0.000003 -0.009524
v -0.005924 -0.000003 -0.009524
v -0.001606 0.001103 -0.009524
v -0.002712 0.001103 -0.009524
v -0.002712 -0.000003 -0.009524
v -0.001606 -0.000003 -0.009524
v 0.002712 0.001103 -0.009524
v 0.001606 0.001103 -0.009524
v 0.001606 -0.000003 -0.009524
v 0.002712 -0.000003 -0.009524
v 0.007029 0.001103 -0.009524
v 0.005924 0.001103 -0.009524
v 0.005924 -0.000003 -0.009524
v 0.007029 -0.000003 -0.009524
v -0.002539 0.000930 0.007103
v -0.001779 0.000930 0.007103
v -0.001779 0.000170 0.007103
v -0.002539 0.000170 0.007103
v 0.001779 0.000930 0.007103
v 0.002539 0.000930 0.007103
v 0.002539 0.000170 0.007103
v 0.001779 0.000170 0.007103
v 0.006097 0.000930 0.007103
v 0.006857 0.000930 0.007103
v 0.006857 0.000170 0.007103
v 0.006097 0.000170 0.007103
v -0.006857 0.000930 0.007103
v -0.006097 0.000930 0.007103
v -0.006097 0.000170 0.007103
v -0.006857 0.000170 0.007103
v -0.006857 0.000930 -0.010168
v -0.006097 0.000930 -0.010168
v -0.006857 0.000170 -0.010168
v -0.006097 0.000170 -0.010168
v -0.002539 0.000930 -0.010168
v -0.001779 0.000930 -0.010168
v -0.002539 0.000170 -0.010168
v -0.001779 0.000170 -0.010168
v 0.001779 0.000930 -0.010168
v 0.002539 0.000930 -0.010168
v 0.001779 0.000170 -0.010168
v 0.002539 0.000170 -0.010168
v 0.006097 0.000930 -0.010168
v 0.006857 0.000930 -0.010168
v 0.006097 0.000170 -0.010168
v 0.006857 0.000170 -0.010168
vn 0.0000 1.0000 0.0000
vn 0.0000 0.0000 1.0000
vn 0.0000 -1.0000 -0.0000
vn -0.7071 0.0000 0.7071
vn -0.7071 0.0000 -0.7071
vn -1.0000 0.0000 0.0000
vn -0.1120 0.0000 0.9937
vn -0.3303 0.0000 0.9439
vn -0.5320 0.0000 0.8467
vn -0.8467 0.0000 0.5320
vn -0.9439 0.0000 0.3303
vn -0.9937 0.0000 0.1120
vn 1.0000 0.0000 0.0000
vn 0.7071 0.0000 0.7071
vn 0.7071 0.0000 -0.7071
vn 0.9937 0.0000 0.1120
vn 0.9439 0.0000 0.3303
vn 0.8467 0.0000 0.5320
vn 0.5320 0.0000 0.8467
vn 0.3303 0.0000 0.9439
vn 0.1120 0.0000 0.9937
vn 0.0000 0.0000 -1.0000
vn 0.0000 -0.7071 0.7071
vn 0.0000 0.9659 0.2588
vn 0.9659 0.0000 0.2588
vn 0.0000 -0.9659 0.2588
vn -0.9659 0.0000 0.2588
vn 0.0000 0.9659 -0.2588
vn -0.9659 0.0000 -0.2588
vn 0.0000 -0.9659 -0.2588
vn 0.9659 0.0000 -0.2588
usemtl material_1.447
s 1
f 1//1 2//1 3//1
f 3//1 2//1 4//1
f 5//1 6//1 7//1
f 7//1 8//1 9//1
f 6//1 8//1 7//1
f 7//1 10//1 5//1
f 8//1 11//1 9//1
f 7//1 12//1 10//1
f 13//1 14//1 7//1
f 7//1 14//1 12//1
f 11//1 15//1 9//1
f 15//1 16//1 9//1
f 17//1 18//1 13//1
f 13//1 18//1 14//1
f 17//1 19//1 18//1
f 19//1 20//1 18//1
f 21//1 22//1 23//1
f 24//1 22//1 21//1
f 23//1 22//1 16//1
f 16//1 22//1 9//1
f 24//1 25//1 22//1
f 26//1 27//1 25//1
f 28//1 27//1 26//1
f 29//1 27//1 28//1
f 30//1 27//1 29//1
f 25//1 27//1 22//1
f 30//1 31//1 27//1
f 31//1 4//1 27//1
f 32//1 33//1 16//1
f 16//1 33//1 23//1
f 31//1 3//1 4//1
f 34//1 1//1 3//1
f 33//2 32//2 35//2
f 33//2 35//2 36//2
f 2//2 1//2 37//2
f 2//2 37//2 38//2
f 39//3 40//3 41//3
f 42//3 39//3 41//3
f 43//3 44//3 45//3
f 46//3 42//3 41//3
f 46//3 41//3 47//3
f 48//3 46//3 47//3
f 49//3 48//3 47//3
f 50//3 51//3 52//3
f 50//3 52//3 53//3
f 54//3 49//3 47//3
f 55//3 44//3 43//3
f 56//3 54//3 47//3
f 55//3 57//3 44//3
f 36//3 58//3 59//3
f 60//3 44//3 57//3
f 36//3 35//3 58//3
f 61//3 55//3 43//3
f 62//3 61//3 43//3
f 37//3 63//3 64//3
f 65//3 44//3 60//3
f 38//3 56//3 47//3
f 38//3 37//3 64//3
f 38//3 64//3 56//3
f 66//3 43//3 51//3
f 66//3 62//3 43//3
f 67//3 44//3 65//3
f 58//3 50//3 68//3
f 58//3 66//3 51//3
f 58//3 51//3 50//3
f 69//3 44//3 67//3
f 70//3 68//3 71//3
f 70//3 71//3 72//3
f 73//3 69//3 67//3
f 74//3 73//3 75//3
f 74//3 69//3 73//3
f 76//3 77//3 78//3
f 76//3 78//3 79//3
f 59//3 77//3 76//3
f 59//3 70//3 77//3
f 59//3 58//3 68//3
f 59//3 68//3 70//3
f 47//3 41//3 80//3
f 40//3 76//3 41//3
f 40//3 59//3 76//3
f 34//4 37//4 1//4
f 63//4 37//4 34//4
f 3//5 63//5 34//5
f 64//5 63//5 3//5
f 31//6 64//6 3//6
f 56//6 64//6 31//6
f 40//7 39//7 21//7
f 21//7 39//7 24//7
f 24//8 42//8 25//8
f 39//8 42//8 24//8
f 25//9 46//9 26//9
f 42//9 46//9 25//9
f 26//4 48//4 28//4
f 46//4 48//4 26//4
f 28//10 49//10 29//10
f 48//10 49//10 28//10
f 29//11 54//11 30//11
f 49//11 54//11 29//11
f 30//12 56//12 31//12
f 54//12 56//12 30//12
f 23//2 40//2 21//2
f 59//2 40//2 23//2
f 33//13 59//13 23//13
f 36//13 59//13 33//13
f 47//13 81//13 4//13
f 47//13 82//13 81//13
f 4//13 38//13 47//13
f 4//13 2//13 38//13
f 81//13 83//13 84//13
f 82//13 83//13 81//13
f 81//2 27//2 4//2
f 85//2 27//2 81//2
f 85//6 22//6 27//6
f 86//6 22//6 85//6
f 87//6 85//6 88//6
f 87//6 86//6 85//6
f 89//2 9//2 90//2
f 91//2 90//2 9//2
f 92//2 89//2 93//2
f 92//2 9//2 89//2
f 94//2 91//2 9//2
f 95//2 94//2 9//2
f 96//2 93//2 91//2
f 96//2 92//2 93//2
f 96//2 91//2 94//2
f 97//2 92//2 96//2
f 98//2 95//2 9//2
f 99//2 97//2 95//2
f 99//2 95//2 98//2
f 100//2 101//2 102//2
f 100//2 102//2 103//2
f 22//2 102//2 98//2
f 22//2 104//2 103//2
f 22//2 103//2 102//2
f 22//2 98//2 9//2
f 105//2 104//2 22//2
f 86//2 99//2 101//2
f 86//2 100//2 105//2
f 86//2 101//2 100//2
f 86//2 105//2 22//2
f 86//2 92//2 97//2
f 86//2 97//2 99//2
f 9//13 106//13 7//13
f 9//13 92//13 106//13
f 106//13 107//13 108//13
f 92//13 107//13 106//13
f 106//2 13//2 7//2
f 109//2 13//2 106//2
f 109//6 44//6 13//6
f 110//6 44//6 109//6
f 69//6 13//6 44//6
f 17//6 13//6 69//6
f 111//6 109//6 112//6
f 111//6 110//6 109//6
f 19//2 17//2 69//2
f 19//2 69//2 74//2
f 19//14 75//14 20//14
f 74//14 75//14 19//14
f 20//15 73//15 18//15
f 75//15 73//15 20//15
f 18//13 67//13 14//13
f 73//13 67//13 18//13
f 67//16 65//16 14//16
f 14//16 65//16 12//16
f 12//17 60//17 10//17
f 65//17 60//17 12//17
f 10//18 57//18 5//18
f 60//18 57//18 10//18
f 5//14 55//14 6//14
f 57//14 55//14 5//14
f 6//19 61//19 8//19
f 55//19 61//19 6//19
f 8//20 62//20 11//20
f 61//20 62//20 8//20
f 11//21 66//21 15//21
f 62//21 66//21 11//21
f 15//2 58//2 16//2
f 66//2 58//2 15//2
f 16//6 35//6 32//6
f 58//6 35//6 16//6
f 44//22 113//22 45//22
f 110//22 113//22 44//22
f 43//13 113//13 114//13
f 45//13 113//13 43//13
f 115//22 51//22 43//22
f 115//22 116//22 51//22
f 117//22 51//22 116//22
f 118//22 115//22 43//22
f 114//22 117//22 118//22
f 114//22 119//22 117//22
f 119//22 51//22 117//22
f 43//22 114//22 118//22
f 120//6 52//6 119//6
f 119//6 52//6 51//6
f 52//22 121//22 53//22
f 120//22 121//22 52//22
f 50//13 121//13 122//13
f 53//13 121//13 50//13
f 123//22 68//22 50//22
f 123//22 124//22 68//22
f 125//22 68//22 124//22
f 126//22 123//22 50//22
f 122//22 125//22 126//22
f 122//22 127//22 125//22
f 50//22 122//22 126//22
f 127//22 68//22 125//22
f 127//6 71//6 68//6
f 128//6 71//6 127//6
f 128//22 129//22 71//22
f 71//22 129//22 72//22
f 70//13 129//13 130//13
f 72//13 129//13 70//13
f 131//22 77//22 132//22
f 133//22 77//22 70//22
f 133//22 132//22 77//22
f 134//22 133//22 70//22
f 130//22 131//22 134//22
f 130//22 135//22 131//22
f 70//22 130//22 134//22
f 135//22 77//22 131//22
f 135//6 78//6 77//6
f 136//6 78//6 135//6
f 136//22 137//22 78//22
f 78//22 137//22 79//22
f 76//13 137//13 138//13
f 79//13 137//13 76//13
f 139//22 41//22 140//22
f 141//22 41//22 76//22
f 141//22 140//22 41//22
f 142//22 141//22 76//22
f 138//22 139//22 142//22
f 138//22 143//22 139//22
f 76//22 138//22 142//22
f 143//22 41//22 139//22
f 143//6 80//6 41//6
f 144//6 80//6 143//6
f 144//22 82//22 80//22
f 80//22 82//22 47//22
f 145//3 88//3 84//3
f 88//3 81//3 84//3
f 88//3 85//3 81//3
f 143//1 82//1 144//1
f 135//1 138//1 137//1
f 135//1 137//1 136//1
f 83//1 143//1 138//1
f 83//1 135//1 130//1
f 83//1 82//1 143//1
f 83//1 138//1 135//1
f 127//1 130//1 129//1
f 127//1 129//1 128//1
f 119//1 122//1 121//1
f 119//1 121//1 120//1
f 110//1 114//1 113//1
f 111//1 127//1 122//1
f 111//1 119//1 114//1
f 111//1 83//1 130//1
f 111//1 130//1 127//1
f 111//1 114//1 110//1
f 111//1 122//1 119//1
f 146//2 112//2 147//2
f 111//2 112//2 146//2
f 148//2 145//2 84//2
f 83//2 148//2 84//2
f 83//2 111//2 146//2
f 83//2 146//2 148//2
f 87//4 145//4 148//4
f 87//4 88//4 145//4
f 86//3 107//3 92//3
f 87//3 107//3 86//3
f 147//14 107//14 146//14
f 108//14 107//14 147//14
f 147//3 112//3 108//3
f 108//3 109//3 106//3
f 112//3 109//3 108//3
f 107//23 148//23 146//23
f 107//23 87//23 148//23
usemtl material_0.454
f 149//1 150//1 97//1
f 149//1 97//1 96//1
f 150//13 151//13 95//13
f 150//13 95//13 97//13
f 151//3 152//3 94//3
f 151//3 94//3 95//3
f 152//6 149//6 96//6
f 152//6 96//6 94//6
f 153//1 154//1 101//1
f 153//1 101//1 99//1
f 154//13 155//13 102//13
f 154//13 102//13 101//13
f 155//3 156//3 98//3
f 155//3 98//3 102//3
f 156//6 153//6 99//6
f 156//6 99//6 98//6
f 157//1 158//1 105//1
f 157//1 105//1 100//1
f 158//13 159//13 104//13
f 158//13 104//13 105//13
f 159//3 160//3 103//3
f 159//3 103//3 104//3
f 160//6 157//6 100//6
f 160//6 100//6 103//6
f 161//1 162//1 93//1
f 161//1 93//1 89//1
f 162//13 163//13 91//13
f 162//13 91//13 93//13
f 163//3 164//3 90//3
f 163//3 90//3 91//3
f 164//6 161//6 89//6
f 164//6 89//6 90//6
f 118//1 165//1 166//1
f 118//1 117//1 165//1
f 115//6 166//6 167//6
f 115//6 118//6 166//6
f 116//3 167//3 168//3
f 116//3 115//3 167//3
f 117//13 168//13 165//13
f 117//13 116//13 168//13
f 126//1 169//1 170//1
f 126//1 125//1 169//1
f 123//6 170//6 171//6
f 123//6 126//6 170//6
f 124//3 171//3 172//3
f 124//3 123//3 171//3
f 125//13 172//13 169//13
f 125//13 124//13 172//13
f 134//1 173//1 174//1
f 134//1 131//1 173//1
f 133//6 174//6 175//6
f 133//6 134//6 174//6
f 132//3 175//3 176//3
f 132//3 133//3 175//3
f 131//13 176//13 173//13
f 131//13 132//13 176//13
f 142//1 177//1 178//1
f 142//1 139//1 177//1
f 141//6 178//6 179//6
f 141//6 142//6 178//6
f 140//3 179//3 180//3
f 140//3 141//3 179//3
f 139//13 180//13 177//13
f 139//13 140//13 180//13
f 181//24 150//24 149//24
f 181//24 182//24 150//24
f 182//25 151//25 150//25
f 182//25 183//25 151//25
f 183//26 152//26 151//26
f 183//26 184//26 152//26
f 184//27 149//27 152//27
f 184//27 181//27 149//27
f 185//24 154//24 153//24
f 185//24 186//24 154//24
f 186//25 155//25 154//25
f 186//25 187//25 155//25
f 187//26 156//26 155//26
f 187//26 188//26 156//26
f 188//27 153//27 156//27
f 188//27 185//27 153//27
f 189//24 158//24 157//24
f 189//24 190//24 158//24
f 190//25 159//25 158//25
f 190//25 191//25 159//25
f 191//26 160//26 159//26
f 191//26 192//26 160//26
f 192//27 157//27 160//27
f 192//27 189//27 157//27
f 193//24 162//24 161//24
f 193//24 194//24 162//24
f 194//25 163//25 162//25
f 194//25 195//25 163//25
f 195//26 164//26 163//26
f 195//26 196//26 164//26
f 196//27 161//27 164//27
f 196//27 193//27 161//27
f 165//28 197//28 166//28
f 198//28 197//28 165//28
f 166//29 199//29 167//29
f 197//29 199//29 166//29
f 167//30 200//30 168//30
f 199//30 200//30 167//30
f 168//31 198//31 165//31
f 200//31 198//31 168//31
f 169//28 201//28 170//28
f 202//28 201//28 169//28
f 170//29 203//29 171//29
f 201//29 203//29 170//29
f 171//30 204//30 172//30
f 203//30 204//30 171//30
f 172//31 202//31 169//31
f 204//31 202//31 172//31
f 173//28 205//28 174//28
f 206//28 205//28 173//28
f 174//29 207//29 175//29
f 205//29 207//29 174//29
f 175//30 208//30 176//30
f 207//30 208//30 175//30
f 176//31 206//31 173//31
f 208//31 206//31 176//31
f 177//28 209//28 178//28
f 210//28 209//28 177//28
f 178//29 211//29 179//29
f 209//29 211//29 178//29
f 179//30 212//30 180//30
f 211//30 212//30 179//30
f 180//31 210//31 177//31
f 212//31 210//31 180//31
f 182//2 181//2 184//2
f 182//2 184//2 183//2
f 186//2 185//2 188//2
f 186//2 188//2 187//2
f 190//2 189//2 192//2
f 190//2 192//2 191//2
f 194//2 193//2 196//2
f 194//2 196//2 195//2
f 197//22 198//22 199//22
f 199//22 198//22 200//22
f 201//22 202//22 203//22
f 203//22 202//22 204//22
f 205//22 206//22 207//22
f 207//22 206//22 208//22
f 209//22 210//22 211//22
f 211//22 210//22 212//22
