# Blender v2.81 (sub 16) OBJ File: ''
# www.blender.org
mtllib DS1069-6 CWF-6.mtl
o DS1069-6_CWF-6
v -0.011969 -0.002103 0.001847
v -0.011815 -0.002103 0.001692
v -0.013075 -0.002103 0.001480
v -0.011630 -0.002103 0.001576
v -0.013075 -0.002103 -0.000144
v -0.012085 -0.002103 0.002031
v -0.011424 -0.002103 0.001504
v -0.012157 -0.002103 0.002237
v -0.014212 -0.002103 0.001480
v -0.012182 -0.002103 0.002454
v -0.011207 -0.002103 0.001480
v -0.008121 -0.002103 0.001480
v -0.014212 -0.002103 0.007977
v -0.012182 -0.002103 0.006677
v -0.012182 -0.002103 0.007977
v -0.011532 -0.002103 0.007327
v 0.008121 -0.002103 0.001480
v 0.011207 -0.002103 0.001480
v 0.013075 -0.002103 -0.000144
v 0.011424 -0.002103 0.001504
v 0.011630 -0.002103 0.001576
v 0.011815 -0.002103 0.001692
v 0.013075 -0.002103 0.001480
v 0.011969 -0.002103 0.001847
v 0.012085 -0.002103 0.002031
v 0.012157 -0.002103 0.002237
v 0.012182 -0.002103 0.002454
v 0.014212 -0.002103 0.001480
v -0.008121 -0.002103 0.007977
v 0.008121 -0.002103 0.007977
v 0.012182 -0.002103 0.006677
v 0.011532 -0.002103 0.007327
v 0.012182 -0.002103 0.007977
v 0.014212 -0.002103 0.007977
v -0.008121 -0.003240 0.007977
v 0.008121 -0.003240 0.007977
v 0.012182 -0.003240 0.007977
v 0.014212 -0.003240 0.007977
v 0.008771 -0.003240 -0.002743
v 0.007472 -0.003240 -0.002743
v 0.007472 -0.003240 -0.003393
v 0.008771 -0.003240 -0.003393
v -0.011532 -0.003240 -0.002743
v -0.014212 -0.003240 -0.003393
v -0.011532 -0.003240 -0.003393
v 0.008121 -0.003240 0.001480
v 0.000650 -0.003240 -0.002743
v 0.003411 -0.003240 -0.002743
v 0.004710 -0.003240 -0.002743
v -0.007472 -0.003240 -0.002743
v -0.008771 -0.003240 -0.002743
v -0.008771 -0.003240 -0.003393
v -0.007472 -0.003240 -0.003393
v 0.014212 -0.003240 -0.003393
v 0.011532 -0.003240 -0.002743
v 0.011532 -0.003240 -0.003393
v 0.011207 -0.003240 0.001480
v 0.011424 -0.003240 0.001504
v -0.011815 -0.003240 0.001692
v -0.011969 -0.003240 0.001847
v 0.011630 -0.003240 0.001576
v -0.012085 -0.003240 0.002031
v 0.011815 -0.003240 0.001692
v -0.011630 -0.003240 0.001576
v 0.011969 -0.003240 0.001847
v -0.011424 -0.003240 0.001504
v -0.012157 -0.003240 0.002237
v 0.012085 -0.003240 0.002031
v -0.011207 -0.003240 0.001480
v 0.012157 -0.003240 0.002237
v 0.012182 -0.003240 0.002454
v -0.012182 -0.003240 0.002454
v -0.000650 -0.003240 -0.002743
v -0.008121 -0.003240 0.001480
v -0.004710 -0.003240 -0.002743
v 0.011532 -0.003240 0.007327
v 0.012182 -0.003240 0.006677
v -0.014212 -0.003240 0.007977
v -0.003411 -0.003240 -0.002743
v -0.004710 -0.003240 -0.003393
v -0.003411 -0.003240 -0.003393
v -0.012182 -0.003240 0.006677
v -0.012182 -0.003240 0.007977
v -0.011532 -0.003240 0.007327
v -0.000650 -0.003240 -0.003393
v 0.000650 -0.003240 -0.003393
v 0.003411 -0.003240 -0.003393
v 0.004710 -0.003240 -0.003393
v 0.014212 -0.000316 0.001480
v 0.014212 0.006100 -0.003393
v 0.014212 0.006100 0.007977
v 0.014212 -0.000316 0.007977
v 0.013075 -0.000316 0.001480
v 0.013075 0.004963 -0.000144
v 0.013075 0.004963 0.007490
v 0.013075 -0.000316 0.007490
v -0.009632 -0.000186 -0.000144
v -0.010671 -0.000186 -0.000144
v -0.010671 0.000853 -0.000144
v -0.013075 0.004963 -0.000144
v -0.009632 0.000853 -0.000144
v -0.006611 -0.000186 -0.000144
v -0.005571 -0.000186 -0.000144
v -0.006611 0.000853 -0.000144
v -0.005571 0.000853 -0.000144
v -0.002550 -0.000186 -0.000144
v -0.002550 0.000853 -0.000144
v -0.001511 -0.000186 -0.000144
v 0.001511 0.000853 -0.000144
v -0.001511 0.000853 -0.000144
v 0.001511 -0.000186 -0.000144
v 0.005571 0.000853 -0.000144
v 0.002550 0.000853 -0.000144
v 0.002550 -0.000186 -0.000144
v 0.005571 -0.000186 -0.000144
v 0.009632 0.000853 -0.000144
v 0.006611 0.000853 -0.000144
v 0.006611 -0.000186 -0.000144
v 0.009632 -0.000186 -0.000144
v 0.010671 -0.000186 -0.000144
v 0.010671 0.000853 -0.000144
v -0.013075 -0.000316 0.001480
v -0.013075 0.004963 0.007490
v -0.013075 -0.000316 0.007490
v -0.014212 -0.000316 0.001480
v -0.014212 0.006100 -0.003393
v -0.014212 0.006100 0.007977
v -0.014212 -0.000316 0.007977
v -0.011532 0.006100 -0.003393
v -0.011532 0.006100 -0.002743
v -0.010671 -0.000186 -0.002743
v -0.009632 -0.000186 -0.002743
v -0.009632 0.000853 -0.002743
v -0.010671 0.000853 -0.002743
v -0.008771 0.006100 -0.002743
v -0.008771 0.006100 -0.003393
v -0.007472 0.006100 -0.003393
v -0.007472 0.006100 -0.002743
v -0.006611 -0.000186 -0.002743
v -0.005571 -0.000186 -0.002743
v -0.005571 0.000853 -0.002743
v -0.006611 0.000853 -0.002743
v -0.004710 0.006100 -0.002743
v -0.004710 0.006100 -0.003393
v -0.003411 0.006100 -0.003393
v -0.003411 0.006100 -0.002743
v -0.001511 0.000853 -0.002743
v -0.001511 -0.000186 -0.002743
v -0.002550 -0.000186 -0.002743
v -0.002550 0.000853 -0.002743
v -0.000650 0.006100 -0.002743
v -0.000650 0.006100 -0.003393
v 0.000650 0.006100 -0.003393
v 0.000650 0.006100 -0.002743
v 0.002550 0.000853 -0.002743
v 0.002550 -0.000186 -0.002743
v 0.001511 -0.000186 -0.002743
v 0.001511 0.000853 -0.002743
v 0.003411 0.006100 -0.002743
v 0.003411 0.006100 -0.003393
v 0.004710 0.006100 -0.003393
v 0.004710 0.006100 -0.002743
v 0.006611 0.000853 -0.002743
v 0.006611 -0.000186 -0.002743
v 0.005571 -0.000186 -0.002743
v 0.005571 0.000853 -0.002743
v 0.007472 0.006100 -0.002743
v 0.007472 0.006100 -0.003393
v 0.008771 0.006100 -0.003393
v 0.008771 0.006100 -0.002743
v 0.010671 0.000853 -0.002743
v 0.010671 -0.000186 -0.002743
v 0.009632 -0.000186 -0.002743
v 0.009632 0.000853 -0.002743
v 0.011532 0.006100 -0.002743
v 0.011532 0.006100 -0.003393
v 0.013563 -0.000316 0.007977
v -0.013563 0.005450 0.007977
v -0.013563 -0.000316 0.007977
v 0.013563 0.005450 0.007977
v -0.006611 0.000853 0.006558
v -0.005571 0.000853 0.006558
v -0.005571 -0.000186 0.006558
v -0.006611 -0.000186 0.006558
v -0.002550 0.000853 0.006558
v -0.001511 0.000853 0.006558
v -0.001511 -0.000186 0.006558
v -0.002550 -0.000186 0.006558
v 0.001511 0.000853 0.006558
v 0.002550 0.000853 0.006558
v 0.002550 -0.000186 0.006558
v 0.001511 -0.000186 0.006558
v 0.005571 0.000853 0.006558
v 0.006611 0.000853 0.006558
v 0.006611 -0.000186 0.006558
v 0.005571 -0.000186 0.006558
v 0.009632 0.000853 0.006558
v 0.010671 0.000853 0.006558
v 0.010671 -0.000186 0.006558
v 0.009632 -0.000186 0.006558
v -0.010671 0.000853 0.006558
v -0.009632 0.000853 0.006558
v -0.009632 -0.000186 0.006558
v -0.010671 -0.000186 0.006558
v -0.009632 0.000853 -0.008472
v -0.010671 0.000853 -0.008472
v -0.010671 -0.000186 -0.008472
v -0.009632 -0.000186 -0.008472
v -0.005571 0.000853 -0.008472
v -0.006611 0.000853 -0.008472
v -0.006611 -0.000186 -0.008472
v -0.005571 -0.000186 -0.008472
v -0.001511 0.000853 -0.008472
v -0.002550 0.000853 -0.008472
v -0.002550 -0.000186 -0.008472
v -0.001511 -0.000186 -0.008472
v 0.002550 0.000853 -0.008472
v 0.001511 0.000853 -0.008472
v 0.001511 -0.000186 -0.008472
v 0.002550 -0.000186 -0.008472
v 0.006611 0.000853 -0.008472
v 0.005571 0.000853 -0.008472
v 0.005571 -0.000186 -0.008472
v 0.006611 -0.000186 -0.008472
v 0.010671 0.000853 -0.008472
v 0.009632 0.000853 -0.008472
v 0.009632 -0.000186 -0.008472
v 0.010671 -0.000186 -0.008472
v -0.006448 0.000691 0.007165
v -0.005734 0.000691 0.007165
v -0.005734 -0.000024 0.007165
v -0.006448 -0.000024 0.007165
v -0.002388 0.000691 0.007165
v -0.001673 0.000691 0.007165
v -0.001673 -0.000024 0.007165
v -0.002388 -0.000024 0.007165
v 0.001673 0.000691 0.007165
v 0.002388 0.000691 0.007165
v 0.002388 -0.000024 0.007165
v 0.001673 -0.000024 0.007165
v 0.006448 0.000691 0.007165
v 0.005734 0.000691 0.007165
v 0.006448 -0.000024 0.007165
v 0.005734 -0.000024 0.007165
v 0.010509 0.000691 0.007165
v 0.009794 0.000691 0.007165
v 0.010509 -0.000024 0.007165
v 0.009794 -0.000024 0.007165
v -0.010509 0.000691 0.007165
v -0.009794 0.000691 0.007165
v -0.009794 -0.000024 0.007165
v -0.010509 -0.000024 0.007165
v -0.010509 0.000691 -0.009078
v -0.009794 0.000691 -0.009078
v -0.010509 -0.000024 -0.009078
v -0.009794 -0.000024 -0.009078
v -0.006448 0.000691 -0.009078
v -0.005734 0.000691 -0.009078
v -0.006448 -0.000024 -0.009078
v -0.005734 -0.000024 -0.009078
v -0.002388 0.000691 -0.009078
v -0.001673 0.000691 -0.009078
v -0.002388 -0.000024 -0.009078
v -0.001673 -0.000024 -0.009078
v 0.001673 0.000691 -0.009078
v 0.002388 0.000691 -0.009078
v 0.001673 -0.000024 -0.009078
v 0.002388 -0.000024 -0.009078
v 0.005734 0.000691 -0.009078
v 0.006448 0.000691 -0.009078
v 0.005734 -0.000024 -0.009078
v 0.006448 -0.000024 -0.009078
v 0.009794 0.000691 -0.009078
v 0.010509 0.000691 -0.009078
v 0.009794 -0.000024 -0.009078
v 0.010509 -0.000024 -0.009078
vn 0.0000 1.0000 -0.0000
vn 0.0000 0.0000 1.0000
vn 0.0000 -1.0000 -0.0000
vn -0.7071 0.0000 0.7071
vn -0.7071 0.0000 -0.7071
vn -1.0000 0.0000 0.0000
vn -0.1120 0.0000 0.9937
vn -0.3303 0.0000 0.9439
vn -0.5320 -0.0000 0.8467
vn -0.8467 -0.0000 0.5320
vn -0.9439 -0.0000 0.3303
vn -0.9937 -0.0000 0.1120
vn 1.0000 0.0000 0.0000
vn 0.7071 0.0000 0.7071
vn 0.7071 0.0000 -0.7071
vn 0.9937 0.0000 0.1120
vn 0.9439 -0.0000 0.3303
vn 0.8467 0.0000 0.5320
vn 0.5320 -0.0000 0.8467
vn 0.3303 0.0000 0.9439
vn 0.1120 0.0000 0.9937
vn 0.0000 0.0000 -1.0000
vn 0.0000 -0.7071 0.7071
vn 0.0000 0.9659 0.2588
vn 0.9659 0.0000 0.2588
vn 0.0000 -0.9659 0.2588
vn -0.9659 0.0000 0.2588
vn 0.0000 0.9659 -0.2588
vn -0.9659 0.0000 -0.2588
vn 0.0000 -0.9659 -0.2588
vn 0.9659 0.0000 -0.2588
usemtl material_1.330
s 1
f 1//1 2//1 3//1
f 3//1 4//1 5//1
f 2//1 4//1 3//1
f 3//1 6//1 1//1
f 4//1 7//1 5//1
f 3//1 8//1 6//1
f 9//1 10//1 3//1
f 3//1 10//1 8//1
f 7//1 11//1 5//1
f 11//1 12//1 5//1
f 13//1 14//1 9//1
f 9//1 14//1 10//1
f 13//1 15//1 14//1
f 15//1 16//1 14//1
f 12//1 17//1 5//1
f 18//1 19//1 17//1
f 20//1 19//1 18//1
f 17//1 19//1 5//1
f 20//1 21//1 19//1
f 22//1 23//1 21//1
f 24//1 23//1 22//1
f 25//1 23//1 24//1
f 26//1 23//1 25//1
f 21//1 23//1 19//1
f 26//1 27//1 23//1
f 27//1 28//1 23//1
f 29//1 30//1 12//1
f 12//1 30//1 17//1
f 27//1 31//1 28//1
f 32//1 33//1 31//1
f 33//1 34//1 31//1
f 31//1 34//1 28//1
f 30//2 29//2 35//2
f 30//2 35//2 36//2
f 34//2 33//2 37//2
f 34//2 37//2 38//2
f 39//3 40//3 41//3
f 39//3 41//3 42//3
f 43//3 44//3 45//3
f 46//3 40//3 39//3
f 46//3 47//3 48//3
f 46//3 49//3 40//3
f 46//3 48//3 49//3
f 50//3 51//3 52//3
f 50//3 52//3 53//3
f 54//3 55//3 56//3
f 57//3 46//3 39//3
f 57//3 39//3 55//3
f 58//3 57//3 55//3
f 59//3 44//3 43//3
f 59//3 60//3 44//3
f 61//3 58//3 55//3
f 62//3 44//3 60//3
f 63//3 55//3 54//3
f 63//3 61//3 55//3
f 64//3 59//3 43//3
f 65//3 63//3 54//3
f 66//3 64//3 43//3
f 67//3 44//3 62//3
f 68//3 65//3 54//3
f 69//3 43//3 51//3
f 69//3 66//3 43//3
f 70//3 68//3 54//3
f 71//3 70//3 54//3
f 72//3 44//3 67//3
f 36//3 35//3 73//3
f 36//3 47//3 46//3
f 36//3 73//3 47//3
f 74//3 50//3 75//3
f 74//3 69//3 51//3
f 74//3 51//3 50//3
f 37//3 76//3 77//3
f 38//3 77//3 71//3
f 38//3 71//3 54//3
f 78//3 44//3 72//3
f 79//3 75//3 80//3
f 38//3 37//3 77//3
f 79//3 80//3 81//3
f 79//3 74//3 75//3
f 82//3 78//3 72//3
f 83//3 78//3 82//3
f 83//3 82//3 84//3
f 73//3 74//3 79//3
f 47//3 73//3 85//3
f 47//3 85//3 86//3
f 35//3 74//3 73//3
f 49//3 48//3 87//3
f 49//3 87//3 88//3
f 32//4 37//4 33//4
f 76//4 37//4 32//4
f 31//5 76//5 32//5
f 77//5 76//5 31//5
f 27//6 77//6 31//6
f 71//6 77//6 27//6
f 57//7 58//7 18//7
f 18//7 58//7 20//7
f 20//8 61//8 21//8
f 58//8 61//8 20//8
f 21//9 63//9 22//9
f 61//9 63//9 21//9
f 22//4 65//4 24//4
f 63//4 65//4 22//4
f 24//10 68//10 25//10
f 65//10 68//10 24//10
f 25//11 70//11 26//11
f 68//11 70//11 25//11
f 26//12 71//12 27//12
f 70//12 71//12 26//12
f 17//2 57//2 18//2
f 46//2 57//2 17//2
f 30//13 46//13 17//13
f 36//13 46//13 30//13
f 54//13 89//13 28//13
f 54//13 90//13 89//13
f 28//13 38//13 54//13
f 28//13 34//13 38//13
f 89//13 91//13 92//13
f 90//13 91//13 89//13
f 89//2 23//2 28//2
f 93//2 23//2 89//2
f 93//6 19//6 23//6
f 94//6 19//6 93//6
f 95//6 93//6 96//6
f 95//6 94//6 93//6
f 97//2 98//2 5//2
f 99//2 5//2 98//2
f 100//2 99//2 101//2
f 100//2 5//2 99//2
f 102//2 97//2 5//2
f 103//2 102//2 5//2
f 104//2 101//2 97//2
f 104//2 100//2 101//2
f 104//2 97//2 102//2
f 105//2 100//2 104//2
f 106//2 103//2 5//2
f 107//2 105//2 103//2
f 107//2 103//2 106//2
f 107//2 100//2 105//2
f 108//2 106//2 5//2
f 109//2 110//2 108//2
f 109//2 108//2 111//2
f 112//2 113//2 114//2
f 112//2 114//2 115//2
f 116//2 117//2 118//2
f 116//2 118//2 119//2
f 19//2 114//2 111//2
f 19//2 118//2 115//2
f 19//2 120//2 119//2
f 19//2 111//2 108//2
f 19//2 108//2 5//2
f 19//2 115//2 114//2
f 19//2 119//2 118//2
f 121//2 120//2 19//2
f 94//2 112//2 117//2
f 94//2 116//2 121//2
f 94//2 113//2 112//2
f 94//2 117//2 116//2
f 94//2 121//2 19//2
f 94//2 100//2 107//2
f 94//2 107//2 110//2
f 94//2 110//2 109//2
f 94//2 109//2 113//2
f 5//13 122//13 3//13
f 5//13 100//13 122//13
f 122//13 123//13 124//13
f 100//13 123//13 122//13
f 122//2 9//2 3//2
f 125//2 9//2 122//2
f 125//6 44//6 9//6
f 126//6 44//6 125//6
f 78//6 9//6 44//6
f 13//6 9//6 78//6
f 127//6 125//6 128//6
f 127//6 126//6 125//6
f 15//2 13//2 78//2
f 15//2 78//2 83//2
f 15//14 84//14 16//14
f 83//14 84//14 15//14
f 16//15 82//15 14//15
f 84//15 82//15 16//15
f 14//13 72//13 10//13
f 82//13 72//13 14//13
f 72//16 67//16 10//16
f 10//16 67//16 8//16
f 8//17 62//17 6//17
f 67//17 62//17 8//17
f 6//18 60//18 1//18
f 62//18 60//18 6//18
f 1//14 59//14 2//14
f 60//14 59//14 1//14
f 2//19 64//19 4//19
f 59//19 64//19 2//19
f 4//20 66//20 7//20
f 64//20 66//20 4//20
f 7//21 69//21 11//21
f 66//21 69//21 7//21
f 11//2 74//2 12//2
f 69//2 74//2 11//2
f 12//6 35//6 29//6
f 74//6 35//6 12//6
f 44//22 129//22 45//22
f 126//22 129//22 44//22
f 43//13 129//13 130//13
f 45//13 129//13 43//13
f 131//22 51//22 43//22
f 131//22 132//22 51//22
f 133//22 51//22 132//22
f 134//22 131//22 43//22
f 130//22 133//22 134//22
f 130//22 135//22 133//22
f 135//22 51//22 133//22
f 43//22 130//22 134//22
f 136//6 52//6 135//6
f 135//6 52//6 51//6
f 52//22 137//22 53//22
f 136//22 137//22 52//22
f 50//13 137//13 138//13
f 53//13 137//13 50//13
f 139//22 75//22 50//22
f 139//22 140//22 75//22
f 141//22 75//22 140//22
f 142//22 139//22 50//22
f 138//22 141//22 142//22
f 138//22 143//22 141//22
f 50//22 138//22 142//22
f 143//22 75//22 141//22
f 143//6 80//6 75//6
f 144//6 80//6 143//6
f 144//22 145//22 80//22
f 80//22 145//22 81//22
f 79//13 145//13 146//13
f 81//13 145//13 79//13
f 147//22 73//22 148//22
f 149//22 73//22 79//22
f 149//22 148//22 73//22
f 150//22 149//22 79//22
f 146//22 147//22 150//22
f 146//22 151//22 147//22
f 79//22 146//22 150//22
f 151//22 73//22 147//22
f 151//6 85//6 73//6
f 152//6 85//6 151//6
f 152//22 153//22 85//22
f 85//22 153//22 86//22
f 47//13 153//13 154//13
f 86//13 153//13 47//13
f 155//22 48//22 156//22
f 157//22 48//22 47//22
f 157//22 156//22 48//22
f 158//22 157//22 47//22
f 154//22 155//22 158//22
f 154//22 159//22 155//22
f 47//22 154//22 158//22
f 159//22 48//22 155//22
f 159//6 87//6 48//6
f 160//6 87//6 159//6
f 160//22 161//22 87//22
f 87//22 161//22 88//22
f 49//13 161//13 162//13
f 88//13 161//13 49//13
f 163//22 40//22 164//22
f 165//22 40//22 49//22
f 165//22 164//22 40//22
f 166//22 165//22 49//22
f 162//22 163//22 166//22
f 162//22 167//22 163//22
f 49//22 162//22 166//22
f 167//22 40//22 163//22
f 167//6 41//6 40//6
f 168//6 41//6 167//6
f 168//22 169//22 41//22
f 41//22 169//22 42//22
f 39//13 169//13 170//13
f 42//13 169//13 39//13
f 171//22 55//22 172//22
f 173//22 55//22 39//22
f 173//22 172//22 55//22
f 174//22 173//22 39//22
f 170//22 171//22 174//22
f 170//22 175//22 171//22
f 39//22 170//22 174//22
f 175//22 55//22 171//22
f 175//6 56//6 55//6
f 176//6 56//6 175//6
f 176//22 90//22 56//22
f 56//22 90//22 54//22
f 177//3 96//3 92//3
f 96//3 89//3 92//3
f 96//3 93//3 89//3
f 175//1 90//1 176//1
f 167//1 170//1 169//1
f 167//1 169//1 168//1
f 91//1 175//1 170//1
f 91//1 167//1 162//1
f 91//1 90//1 175//1
f 91//1 170//1 167//1
f 159//1 162//1 161//1
f 159//1 161//1 160//1
f 159//1 91//1 162//1
f 154//1 91//1 159//1
f 151//1 154//1 153//1
f 151//1 153//1 152//1
f 143//1 146//1 145//1
f 143//1 145//1 144//1
f 135//1 138//1 137//1
f 135//1 137//1 136//1
f 126//1 130//1 129//1
f 127//1 143//1 138//1
f 127//1 135//1 130//1
f 127//1 151//1 146//1
f 127//1 91//1 154//1
f 127//1 154//1 151//1
f 127//1 146//1 143//1
f 127//1 138//1 135//1
f 127//1 130//1 126//1
f 178//2 128//2 179//2
f 127//2 128//2 178//2
f 180//2 177//2 92//2
f 91//2 180//2 92//2
f 91//2 127//2 178//2
f 91//2 178//2 180//2
f 95//4 177//4 180//4
f 95//4 96//4 177//4
f 94//3 123//3 100//3
f 95//3 123//3 94//3
f 179//14 123//14 178//14
f 124//14 123//14 179//14
f 179//3 128//3 124//3
f 124//3 125//3 122//3
f 128//3 125//3 124//3
f 123//23 180//23 178//23
f 123//23 95//23 180//23
usemtl material_0.336
f 181//1 182//1 105//1
f 181//1 105//1 104//1
f 182//13 183//13 103//13
f 182//13 103//13 105//13
f 183//3 184//3 102//3
f 183//3 102//3 103//3
f 184//6 181//6 104//6
f 184//6 104//6 102//6
f 185//1 186//1 110//1
f 185//1 110//1 107//1
f 186//13 187//13 108//13
f 186//13 108//13 110//13
f 187//3 188//3 106//3
f 187//3 106//3 108//3
f 188//6 185//6 107//6
f 188//6 107//6 106//6
f 189//1 190//1 113//1
f 189//1 113//1 109//1
f 190//13 191//13 114//13
f 190//13 114//13 113//13
f 191//3 192//3 111//3
f 191//3 111//3 114//3
f 192//6 189//6 109//6
f 192//6 109//6 111//6
f 193//1 194//1 117//1
f 193//1 117//1 112//1
f 194//13 195//13 118//13
f 194//13 118//13 117//13
f 195//3 196//3 115//3
f 195//3 115//3 118//3
f 196//6 193//6 112//6
f 196//6 112//6 115//6
f 197//1 198//1 121//1
f 197//1 121//1 116//1
f 198//13 199//13 120//13
f 198//13 120//13 121//13
f 199//3 200//3 119//3
f 199//3 119//3 120//3
f 200//6 197//6 116//6
f 200//6 116//6 119//6
f 201//1 202//1 101//1
f 201//1 101//1 99//1
f 202//13 203//13 97//13
f 202//13 97//13 101//13
f 203//3 204//3 98//3
f 203//3 98//3 97//3
f 204//6 201//6 99//6
f 204//6 99//6 98//6
f 134//1 205//1 206//1
f 134//1 133//1 205//1
f 131//6 206//6 207//6
f 131//6 134//6 206//6
f 132//3 207//3 208//3
f 132//3 131//3 207//3
f 133//13 208//13 205//13
f 133//13 132//13 208//13
f 142//1 209//1 210//1
f 142//1 141//1 209//1
f 139//6 210//6 211//6
f 139//6 142//6 210//6
f 140//3 211//3 212//3
f 140//3 139//3 211//3
f 141//13 212//13 209//13
f 141//13 140//13 212//13
f 150//1 213//1 214//1
f 150//1 147//1 213//1
f 149//6 214//6 215//6
f 149//6 150//6 214//6
f 148//3 215//3 216//3
f 148//3 149//3 215//3
f 147//13 216//13 213//13
f 147//13 148//13 216//13
f 158//1 217//1 218//1
f 158//1 155//1 217//1
f 157//6 218//6 219//6
f 157//6 158//6 218//6
f 156//3 219//3 220//3
f 156//3 157//3 219//3
f 155//13 220//13 217//13
f 155//13 156//13 220//13
f 166//1 221//1 222//1
f 166//1 163//1 221//1
f 165//6 222//6 223//6
f 165//6 166//6 222//6
f 164//3 223//3 224//3
f 164//3 165//3 223//3
f 163//13 224//13 221//13
f 163//13 164//13 224//13
f 174//1 225//1 226//1
f 174//1 171//1 225//1
f 173//6 226//6 227//6
f 173//6 174//6 226//6
f 172//3 227//3 228//3
f 172//3 173//3 227//3
f 171//13 228//13 225//13
f 171//13 172//13 228//13
f 229//24 182//24 181//24
f 229//24 230//24 182//24
f 230//25 183//25 182//25
f 230//25 231//25 183//25
f 231//26 184//26 183//26
f 231//26 232//26 184//26
f 232//27 181//27 184//27
f 232//27 229//27 181//27
f 233//24 186//24 185//24
f 233//24 234//24 186//24
f 234//25 187//25 186//25
f 234//25 235//25 187//25
f 235//26 188//26 187//26
f 235//26 236//26 188//26
f 236//27 185//27 188//27
f 236//27 233//27 185//27
f 237//24 190//24 189//24
f 237//24 238//24 190//24
f 238//25 191//25 190//25
f 238//25 239//25 191//25
f 239//26 192//26 191//26
f 239//26 240//26 192//26
f 240//27 189//27 192//27
f 240//27 237//27 189//27
f 193//24 241//24 194//24
f 242//24 241//24 193//24
f 241//25 195//25 194//25
f 241//25 243//25 195//25
f 195//26 244//26 196//26
f 243//26 244//26 195//26
f 244//27 193//27 196//27
f 244//27 242//27 193//27
f 197//24 245//24 198//24
f 246//24 245//24 197//24
f 245//25 199//25 198//25
f 245//25 247//25 199//25
f 199//26 248//26 200//26
f 247//26 248//26 199//26
f 248//27 197//27 200//27
f 248//27 246//27 197//27
f 249//24 202//24 201//24
f 249//24 250//24 202//24
f 250//25 203//25 202//25
f 250//25 251//25 203//25
f 251//26 204//26 203//26
f 251//26 252//26 204//26
f 252//27 201//27 204//27
f 252//27 249//27 201//27
f 205//28 253//28 206//28
f 254//28 253//28 205//28
f 206//29 255//29 207//29
f 253//29 255//29 206//29
f 207//30 256//30 208//30
f 255//30 256//30 207//30
f 208//31 254//31 205//31
f 256//31 254//31 208//31
f 209//28 257//28 210//28
f 258//28 257//28 209//28
f 210//29 259//29 211//29
f 257//29 259//29 210//29
f 211//30 260//30 212//30
f 259//30 260//30 211//30
f 212//31 258//31 209//31
f 260//31 258//31 212//31
f 213//28 261//28 214//28
f 262//28 261//28 213//28
f 214//29 263//29 215//29
f 261//29 263//29 214//29
f 215//30 264//30 216//30
f 263//30 264//30 215//30
f 216//31 262//31 213//31
f 264//31 262//31 216//31
f 217//28 265//28 218//28
f 266//28 265//28 217//28
f 218//29 267//29 219//29
f 265//29 267//29 218//29
f 219//30 268//30 220//30
f 267//30 268//30 219//30
f 220//31 266//31 217//31
f 268//31 266//31 220//31
f 221//28 269//28 222//28
f 270//28 269//28 221//28
f 222//29 271//29 223//29
f 269//29 271//29 222//29
f 223//30 272//30 224//30
f 271//30 272//30 223//30
f 224//31 270//31 221//31
f 272//31 270//31 224//31
f 225//28 273//28 226//28
f 274//28 273//28 225//28
f 226//29 275//29 227//29
f 273//29 275//29 226//29
f 227//30 276//30 228//30
f 275//30 276//30 227//30
f 228//31 274//31 225//31
f 276//31 274//31 228//31
f 230//2 229//2 232//2
f 230//2 232//2 231//2
f 234//2 233//2 236//2
f 234//2 236//2 235//2
f 238//2 237//2 240//2
f 238//2 240//2 239//2
f 241//2 242//2 244//2
f 241//2 244//2 243//2
f 245//2 246//2 248//2
f 245//2 248//2 247//2
f 250//2 249//2 252//2
f 250//2 252//2 251//2
f 253//22 254//22 255//22
f 255//22 254//22 256//22
f 257//22 258//22 259//22
f 259//22 258//22 260//22
f 261//22 262//22 263//22
f 263//22 262//22 264//22
f 265//22 266//22 267//22
f 267//22 266//22 268//22
f 269//22 270//22 271//22
f 271//22 270//22 272//22
f 273//22 274//22 275//22
f 275//22 274//22 276//22
