# Blender v2.81 (sub 16) OBJ File: ''
# www.blender.org
mtllib DS1069-3 CWF-3.mtl
o DS1069-3_CWF-3
v -0.005879 -0.001779 0.000990
v -0.005724 -0.001779 0.000836
v -0.006985 -0.001779 0.000623
v -0.005540 -0.001779 0.000720
v -0.006985 -0.001779 -0.001001
v -0.005995 -0.001779 0.001175
v -0.005334 -0.001779 0.000648
v -0.006067 -0.001779 0.001381
v -0.008122 -0.001779 0.000623
v -0.006091 -0.001779 0.001598
v -0.005117 -0.001779 0.000623
v -0.002030 -0.001779 0.000623
v -0.008122 -0.001779 0.007121
v -0.006091 -0.001779 0.005821
v -0.006091 -0.001779 0.007121
v -0.005442 -0.001779 0.006471
v 0.002030 -0.001779 0.000623
v 0.005117 -0.001779 0.000623
v 0.006985 -0.001779 -0.001001
v 0.005334 -0.001779 0.000648
v 0.005540 -0.001779 0.000720
v 0.005724 -0.001779 0.000836
v 0.006985 -0.001779 0.000623
v 0.005879 -0.001779 0.000990
v 0.005995 -0.001779 0.001175
v 0.006067 -0.001779 0.001381
v 0.006091 -0.001779 0.001598
v 0.008122 -0.001779 0.000623
v -0.002030 -0.001779 0.007121
v 0.002030 -0.001779 0.007121
v 0.006091 -0.001779 0.005821
v 0.005442 -0.001779 0.006471
v 0.006091 -0.001779 0.007121
v 0.008122 -0.001779 0.007121
v -0.002030 -0.002916 0.007121
v 0.002030 -0.002916 0.007121
v 0.006091 -0.002916 0.007121
v 0.008122 -0.002916 0.007121
v 0.005995 -0.002916 0.001175
v 0.005879 -0.002916 0.000990
v 0.008122 -0.002916 -0.004250
v 0.006067 -0.002916 0.001381
v -0.005442 -0.002916 -0.003600
v -0.008122 -0.002916 -0.004250
v -0.005442 -0.002916 -0.004250
v 0.006091 -0.002916 0.001598
v -0.002030 -0.002916 0.000623
v 0.002030 -0.002916 0.000623
v -0.001381 -0.002916 -0.003600
v -0.002680 -0.002916 -0.003600
v -0.002680 -0.002916 -0.004250
v -0.001381 -0.002916 -0.004250
v -0.005724 -0.002916 0.000836
v 0.005442 -0.002916 0.006471
v 0.006091 -0.002916 0.005821
v -0.005879 -0.002916 0.000990
v -0.005995 -0.002916 0.001175
v -0.005540 -0.002916 0.000720
v -0.006067 -0.002916 0.001381
v -0.005334 -0.002916 0.000648
v -0.005117 -0.002916 0.000623
v -0.006091 -0.002916 0.001598
v -0.008122 -0.002916 0.007121
v 0.002680 -0.002916 -0.003600
v 0.001381 -0.002916 -0.003600
v 0.001381 -0.002916 -0.004250
v 0.002680 -0.002916 -0.004250
v -0.006091 -0.002916 0.005821
v -0.006091 -0.002916 0.007121
v -0.005442 -0.002916 0.006471
v 0.005442 -0.002916 -0.003600
v 0.005442 -0.002916 -0.004250
v 0.005117 -0.002916 0.000623
v 0.005334 -0.002916 0.000648
v 0.005540 -0.002916 0.000720
v 0.005724 -0.002916 0.000836
v 0.008122 0.000008 0.000623
v 0.008122 0.006424 -0.004250
v 0.008122 0.006424 0.007121
v 0.008122 0.000008 0.007121
v 0.006985 0.000008 0.000623
v 0.006985 0.005287 -0.001001
v 0.006985 0.005287 0.006633
v 0.006985 0.000008 0.006633
v -0.004581 0.001178 -0.001001
v -0.004581 0.000138 -0.001001
v -0.003541 0.000138 -0.001001
v -0.006985 0.005287 -0.001001
v -0.003541 0.001178 -0.001001
v -0.000520 0.000138 -0.001001
v -0.000520 0.001178 -0.001001
v 0.003541 0.001178 -0.001001
v 0.000520 0.001178 -0.001001
v 0.000520 0.000138 -0.001001
v 0.003541 0.000138 -0.001001
v 0.004581 0.000138 -0.001001
v 0.004581 0.001178 -0.001001
v -0.006985 0.000008 0.000623
v -0.006985 0.005287 0.006633
v -0.006985 0.000008 0.006633
v -0.008122 0.000008 0.000623
v -0.008122 0.006424 -0.004250
v -0.008122 0.006424 0.007121
v -0.008122 0.000008 0.007121
v -0.005442 0.006424 -0.004250
v -0.005442 0.006424 -0.003600
v -0.004581 0.000138 -0.003600
v -0.003541 0.000138 -0.003600
v -0.003541 0.001178 -0.003600
v -0.004581 0.001178 -0.003600
v -0.002680 0.006424 -0.003600
v -0.002680 0.006424 -0.004250
v -0.001381 0.006424 -0.004250
v -0.001381 0.006424 -0.003600
v -0.000520 0.000138 -0.003600
v 0.000520 0.000138 -0.003600
v 0.000520 0.001178 -0.003600
v -0.000520 0.001178 -0.003600
v 0.001381 0.006424 -0.003600
v 0.001381 0.006424 -0.004250
v 0.002680 0.006424 -0.004250
v 0.002680 0.006424 -0.003600
v 0.004581 0.001178 -0.003600
v 0.004581 0.000138 -0.003600
v 0.003541 0.000138 -0.003600
v 0.003541 0.001178 -0.003600
v 0.005442 0.006424 -0.003600
v 0.005442 0.006424 -0.004250
v 0.007472 0.000008 0.007121
v -0.007472 0.005775 0.007121
v -0.007472 0.000008 0.007121
v 0.007472 0.005775 0.007121
v -0.000520 0.001178 0.005702
v 0.000520 0.001178 0.005702
v 0.000520 0.000138 0.005702
v -0.000520 0.000138 0.005702
v 0.003541 0.001178 0.005702
v 0.004581 0.001178 0.005702
v 0.004581 0.000138 0.005702
v 0.003541 0.000138 0.005702
v -0.004581 0.001178 0.005702
v -0.003541 0.001178 0.005702
v -0.003541 0.000138 0.005702
v -0.004581 0.000138 0.005702
v -0.003541 0.001178 -0.009329
v -0.004581 0.001178 -0.009329
v -0.004581 0.000138 -0.009329
v -0.003541 0.000138 -0.009329
v 0.000520 0.001178 -0.009329
v -0.000520 0.001178 -0.009329
v -0.000520 0.000138 -0.009329
v 0.000520 0.000138 -0.009329
v 0.004581 0.001178 -0.009329
v 0.003541 0.001178 -0.009329
v 0.003541 0.000138 -0.009329
v 0.004581 0.000138 -0.009329
v -0.000357 0.001015 0.006308
v 0.000357 0.001015 0.006308
v 0.000357 0.000301 0.006308
v -0.000357 0.000301 0.006308
v 0.003704 0.001015 0.006308
v 0.004418 0.001015 0.006308
v 0.004418 0.000301 0.006308
v 0.003704 0.000301 0.006308
v -0.004418 0.001015 0.006308
v -0.003704 0.001015 0.006308
v -0.003704 0.000301 0.006308
v -0.004418 0.000301 0.006308
v -0.004418 0.001015 -0.009935
v -0.003704 0.001015 -0.009935
v -0.004418 0.000301 -0.009935
v -0.003704 0.000301 -0.009935
v -0.000357 0.001015 -0.009935
v 0.000357 0.001015 -0.009935
v -0.000357 0.000301 -0.009935
v 0.000357 0.000301 -0.009935
v 0.003704 0.001015 -0.009935
v 0.004418 0.001015 -0.009935
v 0.003704 0.000301 -0.009935
v 0.004418 0.000301 -0.009935
vn 0.0000 1.0000 -0.0000
vn 0.0000 0.0000 1.0000
vn 0.0000 -1.0000 -0.0000
vn -0.7071 0.0000 0.7071
vn -0.7071 0.0000 -0.7071
vn -1.0000 0.0000 0.0000
vn -0.1120 0.0000 0.9937
vn -0.3303 0.0000 0.9439
vn -0.5320 0.0000 0.8467
vn -0.8467 0.0000 0.5320
vn -0.9439 0.0000 0.3303
vn -0.9937 0.0000 0.1120
vn 1.0000 -0.0000 0.0000
vn 0.7071 0.0000 0.7071
vn 0.7071 0.0000 -0.7071
vn 0.9937 0.0000 0.1120
vn 0.9439 0.0000 0.3303
vn 0.8467 0.0000 0.5320
vn 0.5320 0.0000 0.8467
vn 0.3303 -0.0000 0.9439
vn 0.1120 -0.0000 0.9937
vn 0.0000 0.0000 -1.0000
vn 0.0000 -0.7071 0.7071
vn 0.0000 0.9659 0.2588
vn 0.9659 0.0000 0.2588
vn 0.0000 -0.9659 0.2588
vn -0.9659 0.0000 0.2588
vn 0.0000 0.9659 -0.2588
vn -0.9659 0.0000 -0.2588
vn 0.0000 -0.9659 -0.2588
vn 0.9659 0.0000 -0.2588
usemtl material_1.290
s 1
f 1//1 2//1 3//1
f 3//1 4//1 5//1
f 2//1 4//1 3//1
f 3//1 6//1 1//1
f 4//1 7//1 5//1
f 3//1 8//1 6//1
f 9//1 10//1 3//1
f 3//1 10//1 8//1
f 7//1 11//1 5//1
f 11//1 12//1 5//1
f 13//1 14//1 9//1
f 9//1 14//1 10//1
f 13//1 15//1 14//1
f 15//1 16//1 14//1
f 12//1 17//1 5//1
f 18//1 19//1 17//1
f 20//1 19//1 18//1
f 17//1 19//1 5//1
f 20//1 21//1 19//1
f 22//1 23//1 21//1
f 24//1 23//1 22//1
f 25//1 23//1 24//1
f 26//1 23//1 25//1
f 21//1 23//1 19//1
f 26//1 27//1 23//1
f 27//1 28//1 23//1
f 29//1 30//1 12//1
f 12//1 30//1 17//1
f 27//1 31//1 28//1
f 32//1 33//1 31//1
f 33//1 34//1 31//1
f 31//1 34//1 28//1
f 30//2 29//2 35//2
f 30//2 35//2 36//2
f 34//2 33//2 37//2
f 34//2 37//2 38//2
f 39//3 40//3 41//3
f 42//3 39//3 41//3
f 43//3 44//3 45//3
f 46//3 42//3 41//3
f 36//3 35//3 47//3
f 36//3 47//3 48//3
f 49//3 50//3 51//3
f 49//3 51//3 52//3
f 53//3 44//3 43//3
f 37//3 54//3 55//3
f 56//3 44//3 53//3
f 38//3 46//3 41//3
f 38//3 37//3 55//3
f 38//3 55//3 46//3
f 57//3 44//3 56//3
f 58//3 53//3 43//3
f 59//3 44//3 57//3
f 60//3 58//3 43//3
f 61//3 43//3 50//3
f 61//3 60//3 43//3
f 62//3 44//3 59//3
f 47//3 50//3 49//3
f 47//3 61//3 50//3
f 63//3 44//3 62//3
f 64//3 65//3 66//3
f 64//3 66//3 67//3
f 68//3 63//3 62//3
f 69//3 68//3 70//3
f 69//3 63//3 68//3
f 48//3 49//3 65//3
f 48//3 47//3 49//3
f 48//3 65//3 64//3
f 41//3 71//3 72//3
f 73//3 64//3 71//3
f 73//3 48//3 64//3
f 74//3 73//3 71//3
f 75//3 74//3 71//3
f 76//3 75//3 71//3
f 76//3 71//3 41//3
f 40//3 76//3 41//3
f 32//4 37//4 33//4
f 54//4 37//4 32//4
f 31//5 54//5 32//5
f 55//5 54//5 31//5
f 27//6 55//6 31//6
f 46//6 55//6 27//6
f 73//7 74//7 18//7
f 18//7 74//7 20//7
f 20//8 75//8 21//8
f 74//8 75//8 20//8
f 21//9 76//9 22//9
f 75//9 76//9 21//9
f 22//4 40//4 24//4
f 76//4 40//4 22//4
f 24//10 39//10 25//10
f 40//10 39//10 24//10
f 25//11 42//11 26//11
f 39//11 42//11 25//11
f 26//12 46//12 27//12
f 42//12 46//12 26//12
f 17//2 73//2 18//2
f 48//2 73//2 17//2
f 30//13 48//13 17//13
f 36//13 48//13 30//13
f 41//13 77//13 28//13
f 41//13 78//13 77//13
f 28//13 38//13 41//13
f 28//13 34//13 38//13
f 77//13 79//13 80//13
f 78//13 79//13 77//13
f 77//2 23//2 28//2
f 81//2 23//2 77//2
f 81//6 19//6 23//6
f 82//6 19//6 81//6
f 83//6 81//6 84//6
f 83//6 82//6 81//6
f 85//2 5//2 86//2
f 87//2 86//2 5//2
f 88//2 85//2 89//2
f 88//2 5//2 85//2
f 90//2 87//2 5//2
f 91//2 89//2 87//2
f 91//2 88//2 89//2
f 91//2 87//2 90//2
f 92//2 93//2 94//2
f 92//2 94//2 95//2
f 19//2 94//2 90//2
f 19//2 96//2 95//2
f 19//2 95//2 94//2
f 19//2 90//2 5//2
f 97//2 96//2 19//2
f 82//2 91//2 93//2
f 82//2 92//2 97//2
f 82//2 88//2 91//2
f 82//2 93//2 92//2
f 82//2 97//2 19//2
f 5//13 98//13 3//13
f 5//13 88//13 98//13
f 98//13 99//13 100//13
f 88//13 99//13 98//13
f 98//2 9//2 3//2
f 101//2 9//2 98//2
f 101//6 44//6 9//6
f 102//6 44//6 101//6
f 63//6 9//6 44//6
f 13//6 9//6 63//6
f 103//6 101//6 104//6
f 103//6 102//6 101//6
f 15//2 13//2 63//2
f 15//2 63//2 69//2
f 15//14 70//14 16//14
f 69//14 70//14 15//14
f 16//15 68//15 14//15
f 70//15 68//15 16//15
f 14//13 62//13 10//13
f 68//13 62//13 14//13
f 62//16 59//16 10//16
f 10//16 59//16 8//16
f 8//17 57//17 6//17
f 59//17 57//17 8//17
f 6//18 56//18 1//18
f 57//18 56//18 6//18
f 1//14 53//14 2//14
f 56//14 53//14 1//14
f 2//19 58//19 4//19
f 53//19 58//19 2//19
f 4//20 60//20 7//20
f 58//20 60//20 4//20
f 7//21 61//21 11//21
f 60//21 61//21 7//21
f 11//2 47//2 12//2
f 61//2 47//2 11//2
f 12//6 35//6 29//6
f 47//6 35//6 12//6
f 44//22 105//22 45//22
f 102//22 105//22 44//22
f 43//13 105//13 106//13
f 45//13 105//13 43//13
f 107//22 50//22 43//22
f 107//22 108//22 50//22
f 109//22 50//22 108//22
f 110//22 107//22 43//22
f 106//22 109//22 110//22
f 106//22 111//22 109//22
f 111//22 50//22 109//22
f 43//22 106//22 110//22
f 112//6 51//6 111//6
f 111//6 51//6 50//6
f 51//22 113//22 52//22
f 112//22 113//22 51//22
f 49//13 113//13 114//13
f 52//13 113//13 49//13
f 115//22 65//22 49//22
f 115//22 116//22 65//22
f 117//22 65//22 116//22
f 118//22 115//22 49//22
f 114//22 117//22 118//22
f 114//22 119//22 117//22
f 49//22 114//22 118//22
f 119//22 65//22 117//22
f 119//6 66//6 65//6
f 120//6 66//6 119//6
f 120//22 121//22 66//22
f 66//22 121//22 67//22
f 64//13 121//13 122//13
f 67//13 121//13 64//13
f 123//22 71//22 124//22
f 125//22 71//22 64//22
f 125//22 124//22 71//22
f 126//22 125//22 64//22
f 122//22 123//22 126//22
f 122//22 127//22 123//22
f 64//22 122//22 126//22
f 127//22 71//22 123//22
f 127//6 72//6 71//6
f 128//6 72//6 127//6
f 128//22 78//22 72//22
f 72//22 78//22 41//22
f 129//3 84//3 80//3
f 84//3 77//3 80//3
f 84//3 81//3 77//3
f 127//1 78//1 128//1
f 119//1 122//1 121//1
f 119//1 121//1 120//1
f 79//1 127//1 122//1
f 79//1 78//1 127//1
f 79//1 122//1 119//1
f 111//1 114//1 113//1
f 111//1 113//1 112//1
f 102//1 106//1 105//1
f 103//1 119//1 114//1
f 103//1 111//1 106//1
f 103//1 79//1 119//1
f 103//1 106//1 102//1
f 103//1 114//1 111//1
f 130//2 104//2 131//2
f 103//2 104//2 130//2
f 132//2 129//2 80//2
f 79//2 132//2 80//2
f 79//2 103//2 130//2
f 79//2 130//2 132//2
f 83//4 129//4 132//4
f 83//4 84//4 129//4
f 82//3 99//3 88//3
f 83//3 99//3 82//3
f 131//14 99//14 130//14
f 100//14 99//14 131//14
f 131//3 104//3 100//3
f 100//3 101//3 98//3
f 104//3 101//3 100//3
f 99//23 132//23 130//23
f 99//23 83//23 132//23
usemtl material_0.295
f 133//1 134//1 93//1
f 133//1 93//1 91//1
f 134//13 135//13 94//13
f 134//13 94//13 93//13
f 135//3 136//3 90//3
f 135//3 90//3 94//3
f 136//6 133//6 91//6
f 136//6 91//6 90//6
f 137//1 138//1 97//1
f 137//1 97//1 92//1
f 138//13 139//13 96//13
f 138//13 96//13 97//13
f 139//3 140//3 95//3
f 139//3 95//3 96//3
f 140//6 137//6 92//6
f 140//6 92//6 95//6
f 141//1 142//1 89//1
f 141//1 89//1 85//1
f 142//13 143//13 87//13
f 142//13 87//13 89//13
f 143//3 144//3 86//3
f 143//3 86//3 87//3
f 144//6 141//6 85//6
f 144//6 85//6 86//6
f 110//1 145//1 146//1
f 110//1 109//1 145//1
f 107//6 146//6 147//6
f 107//6 110//6 146//6
f 108//3 147//3 148//3
f 108//3 107//3 147//3
f 109//13 148//13 145//13
f 109//13 108//13 148//13
f 118//1 149//1 150//1
f 118//1 117//1 149//1
f 115//6 150//6 151//6
f 115//6 118//6 150//6
f 116//3 151//3 152//3
f 116//3 115//3 151//3
f 117//13 152//13 149//13
f 117//13 116//13 152//13
f 126//1 153//1 154//1
f 126//1 123//1 153//1
f 125//6 154//6 155//6
f 125//6 126//6 154//6
f 124//3 155//3 156//3
f 124//3 125//3 155//3
f 123//13 156//13 153//13
f 123//13 124//13 156//13
f 157//24 134//24 133//24
f 157//24 158//24 134//24
f 158//25 135//25 134//25
f 158//25 159//25 135//25
f 159//26 136//26 135//26
f 159//26 160//26 136//26
f 160//27 133//27 136//27
f 160//27 157//27 133//27
f 161//24 138//24 137//24
f 161//24 162//24 138//24
f 162//25 139//25 138//25
f 162//25 163//25 139//25
f 163//26 140//26 139//26
f 163//26 164//26 140//26
f 164//27 137//27 140//27
f 164//27 161//27 137//27
f 165//24 142//24 141//24
f 165//24 166//24 142//24
f 166//25 143//25 142//25
f 166//25 167//25 143//25
f 167//26 144//26 143//26
f 167//26 168//26 144//26
f 168//27 141//27 144//27
f 168//27 165//27 141//27
f 145//28 169//28 146//28
f 170//28 169//28 145//28
f 146//29 171//29 147//29
f 169//29 171//29 146//29
f 147//30 172//30 148//30
f 171//30 172//30 147//30
f 148//31 170//31 145//31
f 172//31 170//31 148//31
f 149//28 173//28 150//28
f 174//28 173//28 149//28
f 150//29 175//29 151//29
f 173//29 175//29 150//29
f 151//30 176//30 152//30
f 175//30 176//30 151//30
f 152//31 174//31 149//31
f 176//31 174//31 152//31
f 153//28 177//28 154//28
f 178//28 177//28 153//28
f 154//29 179//29 155//29
f 177//29 179//29 154//29
f 155//30 180//30 156//30
f 179//30 180//30 155//30
f 156//31 178//31 153//31
f 180//31 178//31 156//31
f 158//2 157//2 160//2
f 158//2 160//2 159//2
f 162//2 161//2 164//2
f 162//2 164//2 163//2
f 166//2 165//2 168//2
f 166//2 168//2 167//2
f 169//22 170//22 171//22
f 171//22 170//22 172//22
f 173//22 174//22 175//22
f 175//22 174//22 176//22
f 177//22 178//22 179//22
f 179//22 178//22 180//22
