# Blender v2.81 (sub 16) OBJ File: ''
# www.blender.org
mtllib DS1069-5 CWF-5.mtl
o DS1069-5_CWF-5
v -0.011161 -0.002272 0.001837
v -0.010988 -0.002272 0.001664
v -0.012403 -0.002272 0.001425
v -0.010781 -0.002272 0.001534
v -0.012403 -0.002272 -0.000399
v -0.011292 -0.002272 0.002045
v -0.010549 -0.002272 0.001453
v -0.011373 -0.002272 0.002276
v -0.013680 -0.002272 0.001425
v -0.011400 -0.002272 0.002520
v -0.010306 -0.002272 0.001425
v -0.006840 -0.002272 0.001425
v -0.013680 -0.002272 0.008721
v -0.011400 -0.002272 0.007262
v -0.011400 -0.002272 0.008721
v -0.010671 -0.002272 0.007992
v 0.006840 -0.002272 0.001425
v 0.010306 -0.002272 0.001425
v 0.012403 -0.002272 -0.000399
v 0.010549 -0.002272 0.001453
v 0.010781 -0.002272 0.001534
v 0.010988 -0.002272 0.001664
v 0.012403 -0.002272 0.001425
v 0.011161 -0.002272 0.001837
v 0.011292 -0.002272 0.002045
v 0.011373 -0.002272 0.002276
v 0.011400 -0.002272 0.002520
v 0.013680 -0.002272 0.001425
v -0.006840 -0.002272 0.008721
v 0.006840 -0.002272 0.008721
v 0.011400 -0.002272 0.007262
v 0.010671 -0.002272 0.007992
v 0.011400 -0.002272 0.008721
v 0.013680 -0.002272 0.008721
v -0.006840 -0.003549 0.008721
v 0.006840 -0.003549 0.008721
v 0.011400 -0.003549 0.008721
v 0.013680 -0.003549 0.008721
v 0.006840 -0.003549 0.001425
v 0.006111 -0.003549 -0.003317
v 0.007570 -0.003549 -0.003317
v -0.001550 -0.003549 -0.003317
v 0.001550 -0.003549 -0.003317
v 0.003010 -0.003549 -0.003317
v -0.006840 -0.003549 0.001425
v 0.013680 -0.003549 -0.004047
v 0.010671 -0.003549 -0.003317
v 0.010671 -0.003549 -0.004047
v -0.010671 -0.003549 -0.003317
v -0.013680 -0.003549 -0.004047
v -0.010671 -0.003549 -0.004047
v 0.010306 -0.003549 0.001425
v 0.010549 -0.003549 0.001453
v 0.010781 -0.003549 0.001534
v -0.006111 -0.003549 -0.003317
v -0.007570 -0.003549 -0.003317
v -0.007570 -0.003549 -0.004047
v -0.006111 -0.003549 -0.004047
v 0.010988 -0.003549 0.001664
v 0.011161 -0.003549 0.001837
v -0.010988 -0.003549 0.001664
v -0.011161 -0.003549 0.001837
v 0.011292 -0.003549 0.002045
v -0.011292 -0.003549 0.002045
v 0.011373 -0.003549 0.002276
v -0.010781 -0.003549 0.001534
v 0.011400 -0.003549 0.002520
v -0.010549 -0.003549 0.001453
v -0.011373 -0.003549 0.002276
v -0.010306 -0.003549 0.001425
v -0.011400 -0.003549 0.002520
v 0.010671 -0.003549 0.007992
v 0.011400 -0.003549 0.007262
v -0.003010 -0.003549 -0.003317
v -0.013680 -0.003549 0.008721
v -0.003010 -0.003549 -0.004047
v -0.001550 -0.003549 -0.004047
v -0.011400 -0.003549 0.007262
v -0.011400 -0.003549 0.008721
v -0.010671 -0.003549 0.007992
v 0.001550 -0.003549 -0.004047
v 0.003010 -0.003549 -0.004047
v 0.006111 -0.003549 -0.004047
v 0.007570 -0.003549 -0.004047
v 0.013680 -0.000265 0.001425
v 0.013680 0.006940 -0.004047
v 0.013680 0.006940 0.008721
v 0.013680 -0.000265 0.008721
v 0.012403 -0.000265 0.001425
v 0.012403 0.005663 -0.000399
v 0.012403 0.005663 0.008174
v 0.012403 -0.000265 0.008174
v -0.009704 0.001048 -0.000399
v -0.009704 -0.000119 -0.000399
v -0.008536 -0.000119 -0.000399
v -0.012403 0.005663 -0.000399
v -0.008536 0.001048 -0.000399
v -0.005144 -0.000119 -0.000399
v -0.003976 -0.000119 -0.000399
v -0.005144 0.001048 -0.000399
v -0.003976 0.001048 -0.000399
v -0.000584 -0.000119 -0.000399
v -0.000584 0.001048 -0.000399
v 0.003976 0.001048 -0.000399
v 0.000584 0.001048 -0.000399
v 0.000584 -0.000119 -0.000399
v 0.003976 -0.000119 -0.000399
v 0.008536 0.001048 -0.000399
v 0.005144 0.001048 -0.000399
v 0.005144 -0.000119 -0.000399
v 0.008536 -0.000119 -0.000399
v 0.009704 -0.000119 -0.000399
v 0.009704 0.001048 -0.000399
v -0.012403 -0.000265 0.001425
v -0.012403 0.005663 0.008174
v -0.012403 -0.000265 0.008174
v -0.013680 -0.000265 0.001425
v -0.013680 0.006940 -0.004047
v -0.013680 0.006940 0.008721
v -0.013680 -0.000265 0.008721
v -0.010671 0.006940 -0.004047
v -0.010671 0.006940 -0.003317
v -0.009704 -0.000119 -0.003317
v -0.008536 -0.000119 -0.003317
v -0.008536 0.001048 -0.003317
v -0.009704 0.001048 -0.003317
v -0.007570 0.006940 -0.003317
v -0.007570 0.006940 -0.004047
v -0.006111 0.006940 -0.004047
v -0.006111 0.006940 -0.003317
v -0.005144 -0.000119 -0.003317
v -0.003976 -0.000119 -0.003317
v -0.003976 0.001048 -0.003317
v -0.005144 0.001048 -0.003317
v -0.003010 0.006940 -0.003317
v -0.003010 0.006940 -0.004047
v -0.001550 0.006940 -0.004047
v -0.001550 0.006940 -0.003317
v 0.000584 0.001048 -0.003317
v 0.000584 -0.000119 -0.003317
v -0.000584 -0.000119 -0.003317
v -0.000584 0.001048 -0.003317
v 0.001550 0.006940 -0.003317
v 0.001550 0.006940 -0.004047
v 0.003010 0.006940 -0.004047
v 0.003010 0.006940 -0.003317
v 0.005144 0.001048 -0.003317
v 0.005144 -0.000119 -0.003317
v 0.003976 -0.000119 -0.003317
v 0.003976 0.001048 -0.003317
v 0.006111 0.006940 -0.003317
v 0.006111 0.006940 -0.004047
v 0.007570 0.006940 -0.004047
v 0.007570 0.006940 -0.003317
v 0.009704 0.001048 -0.003317
v 0.009704 -0.000119 -0.003317
v 0.008536 -0.000119 -0.003317
v 0.008536 0.001048 -0.003317
v 0.010671 0.006940 -0.003317
v 0.010671 0.006940 -0.004047
v 0.012951 -0.000265 0.008721
v -0.012951 0.006210 0.008721
v -0.012951 -0.000265 0.008721
v 0.012951 0.006210 0.008721
v -0.005144 0.001048 0.007129
v -0.003976 0.001048 0.007129
v -0.003976 -0.000119 0.007129
v -0.005144 -0.000119 0.007129
v -0.000584 0.001048 0.007129
v 0.000584 0.001048 0.007129
v 0.000584 -0.000119 0.007129
v -0.000584 -0.000119 0.007129
v 0.003976 0.001048 0.007129
v 0.005144 0.001048 0.007129
v 0.005144 -0.000119 0.007129
v 0.003976 -0.000119 0.007129
v 0.008536 0.001048 0.007129
v 0.009704 0.001048 0.007129
v 0.009704 -0.000119 0.007129
v 0.008536 -0.000119 0.007129
v -0.009704 0.001048 0.007129
v -0.008536 0.001048 0.007129
v -0.008536 -0.000119 0.007129
v -0.009704 -0.000119 0.007129
v -0.008536 0.001048 -0.009750
v -0.009704 0.001048 -0.009750
v -0.009704 -0.000119 -0.009750
v -0.008536 -0.000119 -0.009750
v -0.003976 0.001048 -0.009750
v -0.005144 0.001048 -0.009750
v -0.005144 -0.000119 -0.009750
v -0.003976 -0.000119 -0.009750
v 0.000584 0.001048 -0.009750
v -0.000584 0.001048 -0.009750
v -0.000584 -0.000119 -0.009750
v 0.000584 -0.000119 -0.009750
v 0.005144 0.001048 -0.009750
v 0.003976 0.001048 -0.009750
v 0.003976 -0.000119 -0.009750
v 0.005144 -0.000119 -0.009750
v 0.009704 0.001048 -0.009750
v 0.008536 0.001048 -0.009750
v 0.008536 -0.000119 -0.009750
v 0.009704 -0.000119 -0.009750
v -0.004961 0.000866 0.007809
v -0.004159 0.000866 0.007809
v -0.004159 0.000063 0.007809
v -0.004961 0.000063 0.007809
v -0.000401 0.000866 0.007809
v 0.000401 0.000866 0.007809
v 0.000401 0.000063 0.007809
v -0.000401 0.000063 0.007809
v 0.004159 0.000866 0.007809
v 0.004961 0.000866 0.007809
v 0.004961 0.000063 0.007809
v 0.004159 0.000063 0.007809
v 0.009521 0.000866 0.007809
v 0.008719 0.000866 0.007809
v 0.009521 0.000063 0.007809
v 0.008719 0.000063 0.007809
v -0.009521 0.000866 0.007809
v -0.008719 0.000866 0.007809
v -0.008719 0.000063 0.007809
v -0.009521 0.000063 0.007809
v -0.009521 0.000866 -0.010431
v -0.008719 0.000866 -0.010431
v -0.009521 0.000063 -0.010431
v -0.008719 0.000063 -0.010431
v -0.004961 0.000866 -0.010431
v -0.004159 0.000866 -0.010431
v -0.004961 0.000063 -0.010431
v -0.004159 0.000063 -0.010431
v -0.000401 0.000866 -0.010431
v 0.000401 0.000866 -0.010431
v -0.000401 0.000063 -0.010431
v 0.000401 0.000063 -0.010431
v 0.004159 0.000866 -0.010431
v 0.004961 0.000866 -0.010431
v 0.004159 0.000063 -0.010431
v 0.004961 0.000063 -0.010431
v 0.008719 0.000866 -0.010431
v 0.009521 0.000866 -0.010431
v 0.008719 0.000063 -0.010431
v 0.009521 0.000063 -0.010431
vn 0.0000 1.0000 -0.0000
vn 0.0000 0.0000 1.0000
vn 0.0000 -1.0000 -0.0000
vn -0.7071 0.0000 0.7071
vn -0.7071 0.0000 -0.7071
vn -1.0000 0.0000 0.0000
vn -0.1120 0.0000 0.9937
vn -0.3303 0.0000 0.9439
vn -0.5320 0.0000 0.8467
vn -0.8467 0.0000 0.5320
vn -0.9439 -0.0000 0.3303
vn -0.9937 0.0000 0.1120
vn 1.0000 0.0000 0.0000
vn 0.7071 0.0000 0.7071
vn 0.7071 0.0000 -0.7071
vn 0.9937 -0.0000 0.1120
vn 0.9439 -0.0000 0.3303
vn 0.8467 0.0000 0.5320
vn 0.5320 0.0000 0.8467
vn 0.3303 0.0000 0.9439
vn 0.1120 0.0000 0.9937
vn 0.0000 0.0000 -1.0000
vn 0.0000 -0.7071 0.7071
vn 0.0000 0.9659 0.2588
vn 0.9659 0.0000 0.2588
vn 0.0000 -0.9659 0.2588
vn -0.9659 0.0000 0.2588
vn 0.0000 0.9659 -0.2588
vn -0.9659 0.0000 -0.2588
vn 0.0000 -0.9659 -0.2588
vn 0.9659 0.0000 -0.2588
usemtl material_1.356
s 1
f 1//1 2//1 3//1
f 3//1 4//1 5//1
f 2//1 4//1 3//1
f 3//1 6//1 1//1
f 4//1 7//1 5//1
f 3//1 8//1 6//1
f 9//1 10//1 3//1
f 3//1 10//1 8//1
f 7//1 11//1 5//1
f 11//1 12//1 5//1
f 13//1 14//1 9//1
f 9//1 14//1 10//1
f 13//1 15//1 14//1
f 15//1 16//1 14//1
f 12//1 17//1 5//1
f 18//1 19//1 17//1
f 20//1 19//1 18//1
f 17//1 19//1 5//1
f 20//1 21//1 19//1
f 22//1 23//1 21//1
f 24//1 23//1 22//1
f 25//1 23//1 24//1
f 26//1 23//1 25//1
f 21//1 23//1 19//1
f 26//1 27//1 23//1
f 27//1 28//1 23//1
f 29//1 30//1 12//1
f 12//1 30//1 17//1
f 27//1 31//1 28//1
f 32//1 33//1 31//1
f 33//1 34//1 31//1
f 31//1 34//1 28//1
f 30//2 29//2 35//2
f 30//2 35//2 36//2
f 34//2 33//2 37//2
f 34//2 37//2 38//2
f 39//3 40//3 41//3
f 39//3 42//3 43//3
f 39//3 44//3 40//3
f 39//3 45//3 42//3
f 46//3 47//3 48//3
f 49//3 50//3 51//3
f 52//3 39//3 41//3
f 52//3 41//3 47//3
f 53//3 52//3 47//3
f 54//3 53//3 47//3
f 55//3 56//3 57//3
f 55//3 57//3 58//3
f 59//3 47//3 46//3
f 59//3 54//3 47//3
f 60//3 59//3 46//3
f 61//3 50//3 49//3
f 61//3 62//3 50//3
f 63//3 60//3 46//3
f 64//3 50//3 62//3
f 65//3 63//3 46//3
f 66//3 61//3 49//3
f 67//3 65//3 46//3
f 68//3 66//3 49//3
f 69//3 50//3 64//3
f 36//3 35//3 45//3
f 36//3 45//3 39//3
f 70//3 49//3 56//3
f 70//3 68//3 49//3
f 71//3 50//3 69//3
f 37//3 72//3 73//3
f 38//3 67//3 46//3
f 38//3 73//3 67//3
f 38//3 37//3 73//3
f 45//3 55//3 74//3
f 45//3 70//3 56//3
f 45//3 56//3 55//3
f 75//3 50//3 71//3
f 42//3 74//3 76//3
f 42//3 76//3 77//3
f 42//3 45//3 74//3
f 78//3 75//3 71//3
f 79//3 78//3 80//3
f 79//3 75//3 78//3
f 44//3 43//3 81//3
f 44//3 81//3 82//3
f 41//3 40//3 83//3
f 41//3 83//3 84//3
f 39//3 43//3 44//3
f 32//4 37//4 33//4
f 72//4 37//4 32//4
f 31//5 72//5 32//5
f 73//5 72//5 31//5
f 27//6 73//6 31//6
f 67//6 73//6 27//6
f 52//7 53//7 18//7
f 18//7 53//7 20//7
f 20//8 54//8 21//8
f 53//8 54//8 20//8
f 21//9 59//9 22//9
f 54//9 59//9 21//9
f 22//4 60//4 24//4
f 59//4 60//4 22//4
f 24//10 63//10 25//10
f 60//10 63//10 24//10
f 25//11 65//11 26//11
f 63//11 65//11 25//11
f 26//12 67//12 27//12
f 65//12 67//12 26//12
f 17//2 52//2 18//2
f 39//2 52//2 17//2
f 30//13 39//13 17//13
f 36//13 39//13 30//13
f 46//13 85//13 28//13
f 46//13 86//13 85//13
f 28//13 38//13 46//13
f 28//13 34//13 38//13
f 85//13 87//13 88//13
f 86//13 87//13 85//13
f 85//2 23//2 28//2
f 89//2 23//2 85//2
f 89//6 19//6 23//6
f 90//6 19//6 89//6
f 91//6 89//6 92//6
f 91//6 90//6 89//6
f 93//2 5//2 94//2
f 95//2 94//2 5//2
f 96//2 93//2 97//2
f 96//2 5//2 93//2
f 98//2 95//2 5//2
f 99//2 98//2 5//2
f 100//2 97//2 95//2
f 100//2 96//2 97//2
f 100//2 95//2 98//2
f 101//2 96//2 100//2
f 102//2 99//2 5//2
f 103//2 101//2 99//2
f 103//2 99//2 102//2
f 103//2 96//2 101//2
f 104//2 105//2 106//2
f 104//2 106//2 107//2
f 108//2 109//2 110//2
f 108//2 110//2 111//2
f 19//2 106//2 102//2
f 19//2 110//2 107//2
f 19//2 112//2 111//2
f 19//2 107//2 106//2
f 19//2 102//2 5//2
f 19//2 111//2 110//2
f 113//2 112//2 19//2
f 90//2 104//2 109//2
f 90//2 108//2 113//2
f 90//2 105//2 104//2
f 90//2 109//2 108//2
f 90//2 113//2 19//2
f 90//2 96//2 103//2
f 90//2 103//2 105//2
f 5//13 114//13 3//13
f 5//13 96//13 114//13
f 114//13 115//13 116//13
f 96//13 115//13 114//13
f 114//2 9//2 3//2
f 117//2 9//2 114//2
f 117//6 50//6 9//6
f 118//6 50//6 117//6
f 75//6 9//6 50//6
f 13//6 9//6 75//6
f 119//6 117//6 120//6
f 119//6 118//6 117//6
f 15//2 13//2 75//2
f 15//2 75//2 79//2
f 15//14 80//14 16//14
f 79//14 80//14 15//14
f 16//15 78//15 14//15
f 80//15 78//15 16//15
f 14//13 71//13 10//13
f 78//13 71//13 14//13
f 71//16 69//16 10//16
f 10//16 69//16 8//16
f 8//17 64//17 6//17
f 69//17 64//17 8//17
f 6//18 62//18 1//18
f 64//18 62//18 6//18
f 1//14 61//14 2//14
f 62//14 61//14 1//14
f 2//19 66//19 4//19
f 61//19 66//19 2//19
f 4//20 68//20 7//20
f 66//20 68//20 4//20
f 7//21 70//21 11//21
f 68//21 70//21 7//21
f 11//2 45//2 12//2
f 70//2 45//2 11//2
f 12//6 35//6 29//6
f 45//6 35//6 12//6
f 50//22 121//22 51//22
f 118//22 121//22 50//22
f 49//13 121//13 122//13
f 51//13 121//13 49//13
f 123//22 56//22 49//22
f 123//22 124//22 56//22
f 125//22 56//22 124//22
f 126//22 123//22 49//22
f 122//22 125//22 126//22
f 122//22 127//22 125//22
f 127//22 56//22 125//22
f 49//22 122//22 126//22
f 128//6 57//6 127//6
f 127//6 57//6 56//6
f 57//22 129//22 58//22
f 128//22 129//22 57//22
f 55//13 129//13 130//13
f 58//13 129//13 55//13
f 131//22 74//22 55//22
f 131//22 132//22 74//22
f 133//22 74//22 132//22
f 134//22 131//22 55//22
f 130//22 133//22 134//22
f 130//22 135//22 133//22
f 55//22 130//22 134//22
f 135//22 74//22 133//22
f 135//6 76//6 74//6
f 136//6 76//6 135//6
f 136//22 137//22 76//22
f 76//22 137//22 77//22
f 42//13 137//13 138//13
f 77//13 137//13 42//13
f 139//22 43//22 140//22
f 141//22 43//22 42//22
f 141//22 140//22 43//22
f 142//22 141//22 42//22
f 138//22 139//22 142//22
f 138//22 143//22 139//22
f 42//22 138//22 142//22
f 143//22 43//22 139//22
f 143//6 81//6 43//6
f 144//6 81//6 143//6
f 144//22 145//22 81//22
f 81//22 145//22 82//22
f 44//13 145//13 146//13
f 82//13 145//13 44//13
f 147//22 40//22 148//22
f 149//22 40//22 44//22
f 149//22 148//22 40//22
f 150//22 149//22 44//22
f 146//22 147//22 150//22
f 146//22 151//22 147//22
f 44//22 146//22 150//22
f 151//22 40//22 147//22
f 151//6 83//6 40//6
f 152//6 83//6 151//6
f 152//22 153//22 83//22
f 83//22 153//22 84//22
f 41//13 153//13 154//13
f 84//13 153//13 41//13
f 155//22 47//22 156//22
f 157//22 47//22 41//22
f 157//22 156//22 47//22
f 158//22 157//22 41//22
f 154//22 155//22 158//22
f 154//22 159//22 155//22
f 41//22 154//22 158//22
f 159//22 47//22 155//22
f 159//6 48//6 47//6
f 160//6 48//6 159//6
f 160//22 86//22 48//22
f 48//22 86//22 46//22
f 161//3 92//3 88//3
f 92//3 85//3 88//3
f 92//3 89//3 85//3
f 159//1 86//1 160//1
f 151//1 154//1 153//1
f 151//1 153//1 152//1
f 87//1 159//1 154//1
f 87//1 151//1 146//1
f 87//1 86//1 159//1
f 87//1 154//1 151//1
f 143//1 146//1 145//1
f 143//1 145//1 144//1
f 143//1 87//1 146//1
f 135//1 138//1 137//1
f 135//1 137//1 136//1
f 127//1 130//1 129//1
f 127//1 129//1 128//1
f 118//1 122//1 121//1
f 119//1 135//1 130//1
f 119//1 127//1 122//1
f 119//1 143//1 138//1
f 119//1 87//1 143//1
f 119//1 138//1 135//1
f 119//1 130//1 127//1
f 119//1 122//1 118//1
f 162//2 120//2 163//2
f 119//2 120//2 162//2
f 164//2 161//2 88//2
f 87//2 164//2 88//2
f 87//2 119//2 162//2
f 87//2 162//2 164//2
f 91//4 161//4 164//4
f 91//4 92//4 161//4
f 91//3 96//3 90//3
f 91//3 115//3 96//3
f 163//14 115//14 162//14
f 116//14 115//14 163//14
f 163//3 120//3 116//3
f 116//3 117//3 114//3
f 120//3 117//3 116//3
f 115//23 164//23 162//23
f 115//23 91//23 164//23
usemtl material_0.363
f 165//1 166//1 101//1
f 165//1 101//1 100//1
f 166//13 167//13 99//13
f 166//13 99//13 101//13
f 167//3 168//3 98//3
f 167//3 98//3 99//3
f 168//6 165//6 100//6
f 168//6 100//6 98//6
f 169//1 170//1 105//1
f 169//1 105//1 103//1
f 170//13 171//13 106//13
f 170//13 106//13 105//13
f 171//3 172//3 102//3
f 171//3 102//3 106//3
f 172//6 169//6 103//6
f 172//6 103//6 102//6
f 173//1 174//1 109//1
f 173//1 109//1 104//1
f 174//13 175//13 110//13
f 174//13 110//13 109//13
f 175//3 176//3 107//3
f 175//3 107//3 110//3
f 176//6 173//6 104//6
f 176//6 104//6 107//6
f 177//1 178//1 113//1
f 177//1 113//1 108//1
f 178//13 179//13 112//13
f 178//13 112//13 113//13
f 179//3 180//3 111//3
f 179//3 111//3 112//3
f 180//6 177//6 108//6
f 180//6 108//6 111//6
f 181//1 182//1 97//1
f 181//1 97//1 93//1
f 182//13 183//13 95//13
f 182//13 95//13 97//13
f 183//3 184//3 94//3
f 183//3 94//3 95//3
f 184//6 181//6 93//6
f 184//6 93//6 94//6
f 126//1 185//1 186//1
f 126//1 125//1 185//1
f 123//6 186//6 187//6
f 123//6 126//6 186//6
f 124//3 187//3 188//3
f 124//3 123//3 187//3
f 125//13 188//13 185//13
f 125//13 124//13 188//13
f 134//1 189//1 190//1
f 134//1 133//1 189//1
f 131//6 190//6 191//6
f 131//6 134//6 190//6
f 132//3 191//3 192//3
f 132//3 131//3 191//3
f 133//13 192//13 189//13
f 133//13 132//13 192//13
f 142//1 193//1 194//1
f 142//1 139//1 193//1
f 141//6 194//6 195//6
f 141//6 142//6 194//6
f 140//3 195//3 196//3
f 140//3 141//3 195//3
f 139//13 196//13 193//13
f 139//13 140//13 196//13
f 150//1 197//1 198//1
f 150//1 147//1 197//1
f 149//6 198//6 199//6
f 149//6 150//6 198//6
f 148//3 199//3 200//3
f 148//3 149//3 199//3
f 147//13 200//13 197//13
f 147//13 148//13 200//13
f 158//1 201//1 202//1
f 158//1 155//1 201//1
f 157//6 202//6 203//6
f 157//6 158//6 202//6
f 156//3 203//3 204//3
f 156//3 157//3 203//3
f 155//13 204//13 201//13
f 155//13 156//13 204//13
f 205//24 166//24 165//24
f 205//24 206//24 166//24
f 206//25 167//25 166//25
f 206//25 207//25 167//25
f 207//26 168//26 167//26
f 207//26 208//26 168//26
f 208//27 165//27 168//27
f 208//27 205//27 165//27
f 209//24 170//24 169//24
f 209//24 210//24 170//24
f 210//25 171//25 170//25
f 210//25 211//25 171//25
f 211//26 172//26 171//26
f 211//26 212//26 172//26
f 212//27 169//27 172//27
f 212//27 209//27 169//27
f 213//24 174//24 173//24
f 213//24 214//24 174//24
f 214//25 175//25 174//25
f 214//25 215//25 175//25
f 215//26 176//26 175//26
f 215//26 216//26 176//26
f 216//27 173//27 176//27
f 216//27 213//27 173//27
f 177//24 217//24 178//24
f 218//24 217//24 177//24
f 217//25 179//25 178//25
f 217//25 219//25 179//25
f 179//26 220//26 180//26
f 219//26 220//26 179//26
f 220//27 177//27 180//27
f 220//27 218//27 177//27
f 221//24 182//24 181//24
f 221//24 222//24 182//24
f 222//25 183//25 182//25
f 222//25 223//25 183//25
f 223//26 184//26 183//26
f 223//26 224//26 184//26
f 224//27 181//27 184//27
f 224//27 221//27 181//27
f 185//28 225//28 186//28
f 226//28 225//28 185//28
f 186//29 227//29 187//29
f 225//29 227//29 186//29
f 187//30 228//30 188//30
f 227//30 228//30 187//30
f 188//31 226//31 185//31
f 228//31 226//31 188//31
f 189//28 229//28 190//28
f 230//28 229//28 189//28
f 190//29 231//29 191//29
f 229//29 231//29 190//29
f 191//30 232//30 192//30
f 231//30 232//30 191//30
f 192//31 230//31 189//31
f 232//31 230//31 192//31
f 193//28 233//28 194//28
f 234//28 233//28 193//28
f 194//29 235//29 195//29
f 233//29 235//29 194//29
f 195//30 236//30 196//30
f 235//30 236//30 195//30
f 196//31 234//31 193//31
f 236//31 234//31 196//31
f 197//28 237//28 198//28
f 238//28 237//28 197//28
f 198//29 239//29 199//29
f 237//29 239//29 198//29
f 199//30 240//30 200//30
f 239//30 240//30 199//30
f 200//31 238//31 197//31
f 240//31 238//31 200//31
f 201//28 241//28 202//28
f 242//28 241//28 201//28
f 202//29 243//29 203//29
f 241//29 243//29 202//29
f 203//30 244//30 204//30
f 243//30 244//30 203//30
f 204//31 242//31 201//31
f 244//31 242//31 204//31
f 206//2 205//2 208//2
f 206//2 208//2 207//2
f 210//2 209//2 212//2
f 210//2 212//2 211//2
f 214//2 213//2 216//2
f 214//2 216//2 215//2
f 217//2 218//2 220//2
f 217//2 220//2 219//2
f 222//2 221//2 224//2
f 222//2 224//2 223//2
f 225//22 226//22 227//22
f 227//22 226//22 228//22
f 229//22 230//22 231//22
f 231//22 230//22 232//22
f 233//22 234//22 235//22
f 235//22 234//22 236//22
f 237//22 238//22 239//22
f 239//22 238//22 240//22
f 241//22 242//22 243//22
f 243//22 242//22 244//22
