# Blender v2.81 (sub 16) OBJ File: ''
# www.blender.org
mtllib ELCO SMD 5.0x5.5mm 6uF8 50V size C.mtl
o ELCO_SMD_5.0x5.5mm_6uF8_50V_size_C
v -0.010235 -0.004888 -0.000000
v -0.006955 -0.008960 -0.000000
v -0.008844 -0.007103 -0.000000
v -0.011343 0.000000 0.000000
v -0.011061 -0.002511 -0.000000
v -0.011275 -0.001239 -0.000000
v 0.001239 -0.011275 -0.000000
v -0.000000 -0.011343 -0.000000
v -0.002341 -0.011099 -0.000000
v -0.004722 -0.010313 -0.000000
v 0.004888 -0.010235 -0.000000
v 0.002511 -0.011061 -0.000000
v -0.008960 0.006955 0.000000
v -0.011099 0.002341 0.000000
v -0.010313 0.004722 0.000000
v 0.010313 -0.004722 -0.000000
v 0.008960 -0.006955 -0.000000
v 0.007103 -0.008844 -0.000000
v -0.001239 0.011275 0.000000
v -0.007103 0.008844 0.000000
v -0.004888 0.010235 0.000000
v -0.002511 0.011061 0.000000
v 0.011275 0.001239 0.000000
v 0.011343 0.000000 0.000000
v 0.011099 -0.002341 -0.000000
v 0.002341 0.011099 0.000000
v -0.000000 0.011343 0.000000
v 0.010235 0.004888 0.000000
v 0.011061 0.002511 0.000000
v 0.006955 0.008960 0.000000
v 0.004722 0.010313 0.000000
v 0.008844 0.007103 0.000000
vn 0.0000 0.0000 -1.0000
usemtl material_0.583
s 1
f 1//1 2//1 3//1
f 4//1 1//1 5//1
f 4//1 5//1 6//1
f 7//1 8//1 9//1
f 7//1 9//1 10//1
f 7//1 10//1 2//1
f 11//1 12//1 7//1
f 13//1 4//1 14//1
f 13//1 14//1 15//1
f 13//1 1//1 4//1
f 16//1 17//1 18//1
f 16//1 18//1 11//1
f 16//1 11//1 7//1
f 19//1 13//1 20//1
f 19//1 20//1 21//1
f 19//1 21//1 22//1
f 19//1 2//1 1//1
f 19//1 7//1 2//1
f 19//1 1//1 13//1
f 23//1 24//1 25//1
f 26//1 19//1 27//1
f 28//1 29//1 23//1
f 28//1 25//1 16//1
f 28//1 23//1 25//1
f 30//1 26//1 31//1
f 30//1 16//1 7//1
f 30//1 7//1 19//1
f 30//1 19//1 26//1
f 30//1 28//1 16//1
f 32//1 28//1 30//1
