# Blender v2.81 (sub 16) OBJ File: ''
# www.blender.org
mtllib ethernet_plug.mtl
o ethernet_plug
v -0.005195 -0.003662 -0.014164
v -0.002728 -0.003662 0.002407
v -0.005195 -0.003662 0.004198
v 0.005239 -0.003662 -0.014164
v -0.002759 -0.003662 0.004198
v -0.002728 -0.003662 0.005094
v -0.002759 -0.003662 0.005094
v 0.002772 -0.003662 0.002407
v 0.005239 -0.003662 0.004198
v 0.002772 -0.003662 0.004198
v 0.000747 0.002160 0.005094
v 0.001124 0.002160 0.000615
v 0.000747 0.002160 0.000615
v 0.001124 0.002160 0.005094
v 0.001661 0.002160 0.005094
v 0.002037 0.002160 0.000615
v 0.001661 0.002160 0.000615
v 0.002037 0.002160 0.005094
v -0.002907 0.002160 0.000615
v -0.005195 0.002160 -0.006998
v -0.003444 0.002160 0.000615
v -0.001993 0.002160 0.000615
v -0.002531 0.002160 0.000615
v -0.001080 0.002160 0.000615
v -0.001617 0.002160 0.000615
v -0.000166 0.002160 0.000615
v -0.000704 0.002160 0.000615
v -0.003444 0.002160 0.005094
v -0.005195 0.002160 0.005094
v 0.000210 0.002160 0.000615
v 0.002575 0.002160 0.005094
v 0.002951 0.002160 0.000615
v 0.002575 0.002160 0.000615
v 0.002951 0.002160 0.005094
v 0.005239 0.002160 0.005094
v 0.003488 0.002160 0.000615
v 0.003488 0.002160 0.005094
v 0.005239 0.002160 -0.006998
v -0.002907 0.002160 0.005094
v -0.002531 0.002160 0.005094
v -0.001993 0.002160 0.005094
v -0.001617 0.002160 0.005094
v -0.001080 0.002160 0.005094
v -0.000704 0.002160 0.005094
v -0.000166 0.002160 0.005094
v 0.000210 0.002160 0.005094
v -0.002531 0.000906 0.005094
v -0.002907 0.000906 0.005094
v 0.005239 -0.002767 0.005094
v 0.003488 0.000906 0.005094
v 0.002772 -0.002767 0.005094
v -0.003444 0.000906 0.005094
v -0.005195 -0.002767 0.005094
v 0.002951 0.000906 0.005094
v 0.002575 0.000906 0.005094
v 0.002037 0.000906 0.005094
v 0.002772 -0.003662 0.005094
v 0.001661 0.000906 0.005094
v 0.001124 0.000906 0.005094
v -0.002759 -0.002767 0.005094
v 0.000747 0.000906 0.005094
v 0.000210 0.000906 0.005094
v -0.000166 0.000906 0.005094
v -0.000704 0.000906 0.005094
v -0.001080 0.000906 0.005094
v -0.001617 0.000906 0.005094
v -0.001993 0.000906 0.005094
v 0.005239 0.003324 -0.014164
v 0.005239 0.003324 -0.006998
v 0.005239 -0.002767 0.004198
v -0.005195 -0.002767 0.004198
v -0.005195 0.003324 -0.006998
v -0.005195 0.003324 -0.014164
v 0.004276 -0.002319 -0.014164
v 0.004276 0.002160 -0.014164
v -0.004233 -0.002319 -0.014164
v -0.004233 0.002160 -0.014164
v 0.002772 -0.003662 0.005990
v -0.002728 -0.003662 0.005990
v 0.002772 -0.004558 0.002407
v 0.002772 -0.004558 0.005094
v 0.002772 -0.004469 0.005482
v 0.002772 -0.004363 0.005652
v 0.002772 -0.004536 0.005293
v 0.002772 -0.004221 0.005794
v 0.002772 -0.004051 0.005901
v 0.002772 -0.003862 0.005967
v 0.002772 -0.002767 0.004198
v -0.002728 -0.004536 0.005293
v -0.002728 -0.004558 0.005094
v -0.002728 -0.004469 0.005482
v -0.002728 -0.004363 0.005652
v -0.002728 -0.004221 0.005794
v -0.002728 -0.004051 0.005901
v -0.002728 -0.003862 0.005967
v -0.002728 -0.004558 0.002407
v -0.002759 -0.002767 0.004198
v -0.004233 0.001960 -0.014141
v -0.004233 0.001771 -0.014075
v -0.004233 0.001601 -0.013968
v -0.004233 0.001459 -0.013826
v -0.004233 0.001353 -0.013657
v -0.004233 0.001286 -0.013467
v -0.004233 0.001264 -0.013268
v -0.004233 0.001264 -0.006998
v -0.004233 -0.002319 -0.006998
v 0.004276 -0.002319 -0.006998
v 0.004276 0.001264 -0.013268
v 0.004276 0.001264 -0.006998
v 0.004276 0.001286 -0.013467
v 0.004276 0.001353 -0.013657
v 0.004276 0.001459 -0.013826
v 0.004276 0.001601 -0.013968
v 0.004276 0.001771 -0.014075
v 0.004276 0.001960 -0.014141
v -0.000704 0.000906 0.000615
v -0.000166 0.000906 0.000615
v -0.001617 0.000906 0.000615
v -0.001080 0.000906 0.000615
v -0.002531 0.000906 0.000615
v -0.001993 0.000906 0.000615
v -0.003444 0.000906 0.000615
v -0.002907 0.000906 0.000615
v 0.000747 0.000906 0.000615
v 0.000210 0.000906 0.000615
v 0.001661 0.000906 0.000615
v 0.001124 0.000906 0.000615
v 0.002575 0.000906 0.000615
v 0.002037 0.000906 0.000615
v 0.003488 0.000906 0.000615
v 0.002951 0.000906 0.000615
vn -0.0000 -1.0000 -0.0000
vn 0.0000 1.0000 0.0000
vn 0.0000 0.0000 1.0000
vn 1.0000 0.0000 0.0000
vn -1.0000 0.0000 0.0000
vn 0.0000 0.0000 -1.0000
vn 0.0000 -0.9937 0.1120
vn 0.0000 -0.9439 0.3303
vn 0.0000 -0.8467 0.5320
vn 0.0000 -0.7071 0.7071
vn 0.0000 -0.5320 0.8467
vn 0.0000 -0.3303 0.9439
vn 0.0000 -0.1120 0.9937
vn 0.0000 -0.1120 -0.9937
vn 0.0000 -0.3303 -0.9439
vn 0.0000 -0.5320 -0.8467
vn 0.0000 -0.7071 -0.7071
vn 0.0000 -0.8467 -0.5320
vn 0.0000 -0.9439 -0.3303
vn 0.0000 -0.9937 -0.1120
usemtl material_0.138
s 1
f 1//1 2//1 3//1
f 4//1 2//1 1//1
f 2//1 5//1 3//1
f 5//1 6//1 7//1
f 4//1 8//1 2//1
f 8//1 9//1 10//1
f 4//1 9//1 8//1
f 2//1 6//1 5//1
f 11//2 12//2 13//2
f 14//2 12//2 11//2
f 15//2 16//2 17//2
f 18//2 16//2 15//2
f 19//2 20//2 21//2
f 22//2 20//2 23//2
f 24//2 20//2 25//2
f 26//2 20//2 27//2
f 28//2 21//2 29//2
f 21//2 20//2 29//2
f 30//2 20//2 26//2
f 23//2 20//2 19//2
f 25//2 20//2 22//2
f 27//2 20//2 24//2
f 31//2 32//2 33//2
f 34//2 32//2 31//2
f 35//2 36//2 37//2
f 32//2 38//2 33//2
f 13//2 38//2 30//2
f 17//2 38//2 12//2
f 33//2 38//2 16//2
f 36//2 38//2 32//2
f 39//2 23//2 19//2
f 40//2 23//2 39//2
f 30//2 38//2 20//2
f 12//2 38//2 13//2
f 16//2 38//2 17//2
f 35//2 38//2 36//2
f 41//2 25//2 22//2
f 42//2 25//2 41//2
f 43//2 27//2 24//2
f 44//2 27//2 43//2
f 45//2 30//2 26//2
f 46//2 30//2 45//2
f 47//3 39//3 48//3
f 40//3 39//3 47//3
f 49//3 50//3 51//3
f 52//3 29//3 53//3
f 35//3 50//3 49//3
f 28//3 29//3 52//3
f 50//3 54//3 51//3
f 54//3 55//3 51//3
f 35//3 37//3 50//3
f 55//3 56//3 51//3
f 51//3 6//3 57//3
f 56//3 58//3 51//3
f 34//3 31//3 54//3
f 54//3 31//3 55//3
f 58//3 59//3 51//3
f 6//3 60//3 7//3
f 51//3 60//3 6//3
f 59//3 61//3 51//3
f 18//3 15//3 56//3
f 56//3 15//3 58//3
f 61//3 62//3 51//3
f 51//3 63//3 60//3
f 62//3 63//3 51//3
f 14//3 11//3 59//3
f 59//3 11//3 61//3
f 63//3 64//3 60//3
f 64//3 65//3 60//3
f 46//3 45//3 62//3
f 62//3 45//3 63//3
f 65//3 66//3 60//3
f 66//3 67//3 60//3
f 44//3 43//3 64//3
f 64//3 43//3 65//3
f 67//3 47//3 60//3
f 47//3 48//3 60//3
f 66//3 41//3 67//3
f 42//3 41//3 66//3
f 48//3 52//3 60//3
f 60//3 52//3 53//3
f 68//4 38//4 4//4
f 68//4 69//4 38//4
f 38//4 9//4 4//4
f 38//4 70//4 9//4
f 70//4 35//4 49//4
f 38//4 35//4 70//4
f 53//5 29//5 71//5
f 71//5 20//5 3//5
f 29//5 20//5 71//5
f 20//5 1//5 3//5
f 72//5 73//5 20//5
f 20//5 73//5 1//5
f 68//6 74//6 75//6
f 68//6 4//6 74//6
f 76//6 4//6 1//6
f 76//6 74//6 4//6
f 73//6 75//6 77//6
f 73//6 77//6 76//6
f 73//6 76//6 1//6
f 73//6 68//6 75//6
f 38//3 72//3 20//3
f 69//3 72//3 38//3
f 69//2 73//2 72//2
f 69//2 68//2 73//2
f 78//2 57//2 6//2
f 78//2 6//2 79//2
f 8//4 10//4 80//4
f 10//4 81//4 80//4
f 82//4 57//4 83//4
f 84//4 57//4 82//4
f 81//4 57//4 84//4
f 10//4 57//4 81//4
f 57//4 85//4 83//4
f 57//4 86//4 85//4
f 57//4 87//4 86//4
f 57//4 78//4 87//4
f 88//4 51//4 10//4
f 10//4 51//4 57//4
f 89//5 6//5 90//5
f 91//5 6//5 89//5
f 92//5 6//5 91//5
f 93//5 6//5 92//5
f 94//5 6//5 93//5
f 95//5 6//5 94//5
f 79//5 6//5 95//5
f 90//5 2//5 96//5
f 6//5 2//5 90//5
f 96//6 8//6 80//6
f 2//6 8//6 96//6
f 96//1 81//1 90//1
f 80//1 81//1 96//1
f 7//5 97//5 5//5
f 60//5 97//5 7//5
f 5//3 71//3 3//3
f 97//3 71//3 5//3
f 97//1 53//1 71//1
f 97//1 60//1 53//1
f 9//3 88//3 10//3
f 70//3 88//3 9//3
f 88//1 49//1 51//1
f 70//1 49//1 88//1
f 98//4 76//4 77//4
f 99//4 76//4 98//4
f 100//4 76//4 99//4
f 101//4 76//4 100//4
f 102//4 76//4 101//4
f 103//4 76//4 102//4
f 104//4 76//4 103//4
f 105//4 106//4 104//4
f 104//4 106//4 76//4
f 106//2 74//2 76//2
f 107//2 74//2 106//2
f 107//5 108//5 74//5
f 109//5 108//5 107//5
f 108//5 110//5 74//5
f 110//5 111//5 74//5
f 111//5 112//5 74//5
f 112//5 113//5 74//5
f 113//5 114//5 74//5
f 114//5 115//5 74//5
f 75//5 74//5 115//5
f 104//1 109//1 105//1
f 108//1 109//1 104//1
f 105//6 107//6 106//6
f 105//6 109//6 107//6
f 89//7 81//7 84//7
f 89//7 90//7 81//7
f 91//8 84//8 82//8
f 91//8 89//8 84//8
f 92//9 82//9 83//9
f 92//9 91//9 82//9
f 93//10 83//10 85//10
f 93//10 92//10 83//10
f 94//11 85//11 86//11
f 94//11 93//11 85//11
f 95//12 86//12 87//12
f 95//12 94//12 86//12
f 79//13 87//13 78//13
f 79//13 95//13 87//13
f 98//14 77//14 75//14
f 98//14 75//14 115//14
f 99//15 115//15 114//15
f 99//15 98//15 115//15
f 100//16 114//16 113//16
f 100//16 99//16 114//16
f 101//17 113//17 112//17
f 101//17 100//17 113//17
f 102//18 112//18 111//18
f 102//18 101//18 112//18
f 103//19 111//19 110//19
f 103//19 102//19 111//19
f 104//20 110//20 108//20
f 104//20 103//20 110//20
usemtl material_1.135
f 116//4 44//4 64//4
f 27//4 44//4 116//4
f 117//3 27//3 116//3
f 26//3 27//3 117//3
f 63//5 26//5 117//5
f 45//5 26//5 63//5
f 64//2 117//2 116//2
f 63//2 117//2 64//2
f 118//4 42//4 66//4
f 25//4 42//4 118//4
f 119//3 25//3 118//3
f 24//3 25//3 119//3
f 65//5 24//5 119//5
f 43//5 24//5 65//5
f 66//2 119//2 118//2
f 65//2 119//2 66//2
f 120//4 40//4 47//4
f 23//4 40//4 120//4
f 121//3 23//3 120//3
f 22//3 23//3 121//3
f 67//5 22//5 121//5
f 41//5 22//5 67//5
f 47//2 121//2 120//2
f 67//2 121//2 47//2
f 122//4 28//4 52//4
f 21//4 28//4 122//4
f 123//3 21//3 122//3
f 19//3 21//3 123//3
f 48//5 19//5 123//5
f 39//5 19//5 48//5
f 52//2 123//2 122//2
f 48//2 123//2 52//2
f 11//5 13//5 124//5
f 11//5 124//5 61//5
f 30//4 46//4 62//4
f 30//4 62//4 125//4
f 13//3 30//3 125//3
f 13//3 125//3 124//3
f 62//2 124//2 125//2
f 61//2 124//2 62//2
f 15//5 17//5 126//5
f 15//5 126//5 58//5
f 12//4 14//4 59//4
f 12//4 59//4 127//4
f 17//3 12//3 127//3
f 17//3 127//3 126//3
f 59//2 126//2 127//2
f 58//2 126//2 59//2
f 31//5 33//5 128//5
f 31//5 128//5 55//5
f 16//4 18//4 56//4
f 16//4 56//4 129//4
f 33//3 16//3 129//3
f 33//3 129//3 128//3
f 56//2 128//2 129//2
f 55//2 128//2 56//2
f 37//5 36//5 130//5
f 37//5 130//5 50//5
f 32//4 34//4 54//4
f 32//4 54//4 131//4
f 36//3 32//3 131//3
f 36//3 131//3 130//3
f 54//2 130//2 131//2
f 50//2 130//2 54//2
