# Blender v2.81 (sub 16) OBJ File: ''
# www.blender.org
mtllib Fan Header, 4Pin, 2.54mm, Horizontal.mtl
o Fan_Header,_4Pin,_2.54mm,_Horizontal
v -0.000132 0.014083 0.001510
v 0.000132 0.014083 0.001246
v -0.000132 0.014083 0.001246
v 0.000132 0.014083 0.001510
v -0.000396 -0.002280 0.001774
v 0.000396 0.013291 0.001774
v -0.000396 0.013291 0.001774
v 0.000396 -0.002280 0.001774
v -0.000396 -0.003309 0.000953
v -0.000396 -0.003335 0.000718
v 0.000396 -0.003335 0.000718
v 0.000396 -0.003309 0.000953
v -0.000396 -0.003231 0.001176
v 0.000396 -0.003231 0.001176
v -0.000396 -0.003105 0.001376
v 0.000396 -0.003105 0.001376
v -0.000396 -0.002938 0.001544
v 0.000396 -0.002938 0.001544
v -0.000396 -0.002738 0.001669
v 0.000396 -0.002738 0.001669
v -0.000396 -0.002515 0.001747
v 0.000396 -0.002515 0.001747
v -0.000396 -0.003335 -0.005484
v 0.000396 -0.003335 -0.005484
v -0.000132 -0.003071 -0.006275
v 0.000132 -0.002807 -0.006275
v 0.000132 -0.003071 -0.006275
v -0.000132 -0.002807 -0.006275
v -0.000396 -0.002544 0.000718
v 0.000396 -0.002544 -0.005484
v -0.000396 -0.002544 -0.005484
v 0.000396 -0.002544 0.000718
v -0.000396 -0.002537 0.000777
v 0.000396 -0.002537 0.000777
v -0.000396 -0.002517 0.000833
v 0.000396 -0.002517 0.000833
v -0.000396 -0.002486 0.000883
v 0.000396 -0.002486 0.000883
v -0.000396 -0.002444 0.000925
v 0.000396 -0.002444 0.000925
v -0.000396 -0.002394 0.000956
v 0.000396 -0.002394 0.000956
v -0.000396 -0.002338 0.000975
v 0.000396 -0.002338 0.000975
v -0.000396 -0.002280 0.000982
v 0.000396 -0.002280 0.000982
v -0.000396 0.013291 0.000982
v 0.000396 0.013291 0.000982
vn 0.0000 1.0000 0.0000
vn 0.0000 -0.0000 1.0000
vn 0.0000 -0.9937 0.1120
vn 0.0000 -0.9439 0.3303
vn 0.0000 -0.8467 0.5320
vn 0.0000 -0.7071 0.7071
vn 0.0000 -0.5320 0.8467
vn 0.0000 -0.3303 0.9439
vn 0.0000 -0.1120 0.9937
vn 0.0000 -1.0000 -0.0000
vn 0.0000 0.0000 -1.0000
vn 0.0000 0.9937 -0.1120
vn 0.0000 0.9439 -0.3303
vn 0.0000 0.8467 -0.5321
vn 0.0000 0.8467 -0.5320
vn 0.0000 0.7071 -0.7071
vn 0.0000 0.5320 -0.8467
vn 0.0000 0.3303 -0.9439
vn 0.0000 0.1120 -0.9937
vn 1.0000 0.0000 0.0000
vn -1.0000 0.0000 0.0000
vn 0.9487 0.0000 -0.3162
vn 0.0000 -0.9487 -0.3162
vn 0.0000 0.9487 -0.3162
vn -0.9487 0.0000 -0.3162
vn 0.0000 0.3162 -0.9487
vn 0.9487 0.3162 0.0000
vn -0.9487 0.3162 0.0000
vn 0.0000 0.3162 0.9487
usemtl material_1.500
s 1
f 1//1 2//1 3//1
f 4//1 2//1 1//1
usemtl material_0.509
f 5//2 6//2 7//2
f 8//2 6//2 5//2
f 9//3 10//3 11//3
f 9//3 11//3 12//3
f 13//4 12//4 14//4
f 13//4 9//4 12//4
f 15//5 14//5 16//5
f 15//5 13//5 14//5
f 17//6 16//6 18//6
f 17//6 15//6 16//6
f 19//7 18//7 20//7
f 19//7 17//7 18//7
f 21//8 20//8 22//8
f 21//8 19//8 20//8
f 5//9 22//9 8//9
f 5//9 21//9 22//9
f 23//10 11//10 10//10
f 24//10 11//10 23//10
f 25//11 26//11 27//11
f 28//11 26//11 25//11
f 29//1 30//1 31//1
f 32//1 30//1 29//1
f 29//12 33//12 32//12
f 32//12 33//12 34//12
f 34//13 35//13 36//13
f 33//13 35//13 34//13
f 36//14 37//15 38//14
f 35//15 37//15 36//14
f 38//16 39//16 40//16
f 37//16 39//16 38//16
f 40//17 41//17 42//17
f 39//17 41//17 40//17
f 42//18 43//18 44//18
f 41//18 43//18 42//18
f 44//19 45//19 46//19
f 43//19 45//19 44//19
f 47//11 46//11 45//11
f 48//11 46//11 47//11
f 38//20 18//20 16//20
f 38//20 40//20 18//20
f 42//20 20//20 18//20
f 42//20 18//20 40//20
f 36//20 16//20 14//20
f 36//20 38//20 16//20
f 44//20 22//20 20//20
f 44//20 20//20 42//20
f 34//20 14//20 12//20
f 34//20 36//20 14//20
f 32//20 12//20 11//20
f 32//20 34//20 12//20
f 46//20 8//20 22//20
f 46//20 22//20 44//20
f 30//20 11//20 24//20
f 30//20 32//20 11//20
f 48//20 6//20 8//20
f 48//20 8//20 46//20
f 17//21 37//21 15//21
f 39//21 37//21 17//21
f 19//21 41//21 17//21
f 17//21 41//21 39//21
f 15//21 35//21 13//21
f 37//21 35//21 15//21
f 21//21 43//21 19//21
f 19//21 43//21 41//21
f 13//21 33//21 9//21
f 35//21 33//21 13//21
f 9//21 29//21 10//21
f 33//21 29//21 9//21
f 5//21 45//21 21//21
f 21//21 45//21 43//21
f 10//21 31//21 23//21
f 29//21 31//21 10//21
f 7//21 47//21 5//21
f 5//21 47//21 45//21
f 27//22 26//22 30//22
f 27//22 30//22 24//22
f 24//23 23//23 27//23
f 27//23 23//23 25//23
f 26//24 28//24 30//24
f 30//24 28//24 31//24
f 23//25 31//25 25//25
f 25//25 31//25 28//25
f 2//26 47//26 3//26
f 48//26 47//26 2//26
f 2//27 4//27 6//27
f 2//27 6//27 48//27
f 47//28 7//28 3//28
f 3//28 7//28 1//28
f 4//29 1//29 6//29
f 6//29 1//29 7//29
