# Blender v2.81 (sub 16) OBJ File: ''
# www.blender.org
mtllib Fan Header, 4Pin, 2.54mm, Vertical.mtl
o Fan_Header,_4Pin,_2.54mm,_Vertical
v 0.000255 -0.005534 -0.000255
v 0.000255 0.005534 0.000255
v 0.000255 -0.005534 0.000255
v 0.000255 0.005534 -0.000255
v -0.000255 -0.005534 -0.000255
v -0.000255 0.005534 -0.000255
v -0.000255 -0.005534 0.000255
v -0.000255 0.005534 0.000255
v 0.000085 0.006045 0.000085
v 0.000085 0.006045 -0.000085
v -0.000085 0.006045 -0.000085
v -0.000085 0.006045 0.000085
v -0.000085 -0.006045 -0.000085
v 0.000085 -0.006045 0.000085
v -0.000085 -0.006045 0.000085
v 0.000085 -0.006045 -0.000085
vn 1.0000 -0.0000 0.0000
vn 0.0000 0.0000 -1.0000
vn -1.0000 0.0000 0.0000
vn 0.0000 -0.0000 1.0000
vn 0.0000 1.0000 0.0000
vn 0.0000 -1.0000 0.0000
vn 0.9487 0.3162 0.0000
vn 0.0000 0.3162 -0.9487
vn 0.0000 0.3162 0.9487
vn -0.9487 0.3162 0.0000
vn 0.0000 -0.3162 0.9487
vn 0.9487 -0.3162 0.0000
vn -0.9487 -0.3162 0.0000
vn 0.0000 -0.3162 -0.9487
usemtl material_1.553
s 1
f 1//1 2//1 3//1
f 4//1 2//1 1//1
usemtl material_0.563
f 5//2 4//2 1//2
f 6//2 4//2 5//2
f 7//3 6//3 5//3
f 8//3 6//3 7//3
f 3//4 8//4 7//4
f 2//4 8//4 3//4
f 9//5 10//5 11//5
f 9//5 11//5 12//5
f 13//6 14//6 15//6
f 16//6 14//6 13//6
f 2//7 4//7 10//7
f 2//7 10//7 9//7
f 4//8 6//8 11//8
f 4//8 11//8 10//8
f 8//9 2//9 9//9
f 8//9 9//9 12//9
f 6//10 8//10 12//10
f 6//10 12//10 11//10
f 15//11 14//11 7//11
f 7//11 14//11 3//11
f 14//12 16//12 3//12
f 3//12 16//12 1//12
f 5//13 15//13 7//13
f 13//13 15//13 5//13
f 16//14 13//14 1//14
f 1//14 13//14 5//14
