# Blender v2.81 (sub 16) OBJ File: ''
# www.blender.org
mtllib female electric plug.mtl
o female_electric_plug
v -0.002874 0.000000 -0.000145
v -0.002775 0.000000 -0.000058
v -0.002874 0.000000 -0.001133
v -0.002699 -0.000000 0.000050
v -0.002663 -0.000000 0.000133
v 0.010896 0.000000 -0.001133
v -0.002640 -0.000000 0.000225
v -0.002632 -0.000000 0.000318
v 0.010896 -0.000000 0.000871
v -0.002632 -0.000000 0.000871
vn 0.0000 1.0000 0.0000
usemtl material_0.143
s 1
f 1//1 2//1 3//1
f 4//1 3//1 2//1
f 5//1 6//1 3//1
f 5//1 3//1 4//1
f 7//1 6//1 5//1
f 8//1 9//1 6//1
f 8//1 6//1 7//1
f 10//1 9//1 8//1
