# Blender v2.81 (sub 16) OBJ File: ''
# www.blender.org
mtllib FNA21012A.mtl
o FNA21012A
v 0.000642 -0.000092 0.001084
v 0.000642 -0.000092 -0.000108
v 0.000917 -0.000092 0.001084
v 0.000917 -0.000092 -0.000108
v 0.000642 -0.017228 0.001084
v 0.000642 -0.017228 -0.000108
v 0.000275 -0.018069 0.001084
v 0.000275 -0.018069 -0.000108
v -0.000275 -0.018069 0.001084
v -0.000275 -0.018069 -0.000108
v -0.000642 -0.017228 0.001084
v -0.000642 -0.017228 -0.000108
v -0.000642 -0.000092 0.001084
v -0.000642 -0.000092 -0.000108
v -0.000917 -0.000092 0.001084
v -0.000917 -0.000092 -0.000108
v -0.000917 0.001742 0.001084
v -0.000917 0.001742 -0.000108
v -0.000642 0.001742 -0.000108
v -0.000642 0.001742 0.001084
v -0.000642 0.004075 0.001060
v -0.000642 0.003397 -0.000323
v -0.000642 0.003864 0.001084
v -0.000642 0.004275 0.000987
v -0.000642 0.004453 0.000870
v -0.000642 0.004600 0.000715
v -0.000642 0.004706 0.000530
v -0.000642 0.004767 0.000326
v -0.000642 0.003543 -0.000478
v -0.000642 0.003219 -0.000206
v -0.000642 0.003649 -0.000662
v -0.000642 0.003019 -0.000133
v -0.000642 0.003710 -0.000866
v -0.000642 0.002807 -0.000108
v -0.000642 0.005588 -0.004327
v -0.000642 0.004321 -0.004327
v 0.000642 0.002807 -0.000108
v 0.000642 0.001742 0.001084
v 0.000642 0.001742 -0.000108
v 0.000642 0.005588 -0.004327
v 0.000642 0.003710 -0.000866
v 0.000642 0.004321 -0.004327
v 0.000642 0.003397 -0.000323
v 0.000642 0.003864 0.001084
v 0.000642 0.003219 -0.000206
v 0.000642 0.003019 -0.000133
v 0.000642 0.004767 0.000326
v 0.000642 0.003649 -0.000662
v 0.000642 0.003543 -0.000478
v 0.000642 0.004075 0.001060
v 0.000642 0.004706 0.000530
v 0.000642 0.004275 0.000987
v 0.000642 0.004600 0.000715
v 0.000642 0.004453 0.000870
v 0.000917 0.001742 -0.000108
v 0.000917 0.001742 0.001084
vn 0.0000 -1.0000 -0.0000
vn 1.0000 0.0000 0.0000
vn 0.9165 -0.4000 0.0000
vn -0.9165 -0.4000 0.0000
vn -1.0000 0.0000 0.0000
vn 0.0000 1.0000 0.0000
vn 0.0000 0.0000 -1.0000
vn 0.0000 -0.0000 1.0000
vn 0.0000 -0.9848 -0.1736
vn 0.0000 -0.9580 -0.2868
vn 0.0000 -0.8660 -0.5000
vn 0.0000 -0.7274 -0.6862
vn 0.0000 -0.5495 -0.8355
vn 0.0000 -0.3420 -0.9397
vn 0.0000 -0.1161 -0.9932
vn 0.0000 0.9580 0.2868
vn 0.0000 0.8660 0.5000
vn 0.0000 0.7274 0.6862
vn 0.0000 0.5495 0.8355
vn 0.0000 0.3420 0.9397
vn 0.0000 0.1161 0.9932
vn 0.0000 0.9848 0.1736
usemtl material_1.269
s 1
f 1//1 2//1 3//1
f 3//1 2//1 4//1
usemtl material_0.274
f 5//2 2//2 1//2
f 6//2 2//2 5//2
f 7//3 6//3 5//3
f 8//3 6//3 7//3
f 9//1 8//1 7//1
f 10//1 8//1 9//1
f 11//4 10//4 9//4
f 12//4 10//4 11//4
f 13//5 12//5 11//5
f 14//5 12//5 13//5
f 15//1 16//1 13//1
f 13//1 16//1 14//1
f 17//5 16//5 15//5
f 18//5 16//5 17//5
f 19//6 17//6 20//6
f 18//6 17//6 19//6
f 21//5 22//5 23//5
f 24//5 22//5 21//5
f 25//5 22//5 24//5
f 26//5 22//5 25//5
f 27//5 22//5 26//5
f 28//5 22//5 27//5
f 28//5 29//5 22//5
f 22//5 30//5 23//5
f 28//5 31//5 29//5
f 30//5 32//5 23//5
f 28//5 33//5 31//5
f 23//5 34//5 20//5
f 32//5 34//5 23//5
f 34//5 19//5 20//5
f 28//5 35//5 33//5
f 35//5 36//5 33//5
f 37//2 38//2 39//2
f 40//2 41//2 42//2
f 43//2 44//2 45//2
f 45//2 44//2 46//2
f 46//2 44//2 37//2
f 37//2 44//2 38//2
f 41//2 47//2 48//2
f 48//2 47//2 49//2
f 49//2 47//2 43//2
f 40//2 47//2 41//2
f 43//2 50//2 44//2
f 47//2 51//2 43//2
f 43//2 52//2 50//2
f 51//2 53//2 43//2
f 53//2 54//2 43//2
f 43//2 54//2 52//2
f 55//6 38//6 56//6
f 39//6 38//6 55//6
f 4//2 56//2 3//2
f 55//2 56//2 4//2
f 10//7 6//7 8//7
f 12//7 6//7 10//7
f 14//7 2//7 12//7
f 12//7 2//7 6//7
f 16//7 19//7 14//7
f 18//7 19//7 16//7
f 14//7 39//7 2//7
f 19//7 39//7 14//7
f 2//7 55//7 4//7
f 39//7 55//7 2//7
f 34//7 37//7 19//7
f 19//7 37//7 39//7
f 5//8 11//8 9//8
f 5//8 9//8 7//8
f 1//8 13//8 11//8
f 1//8 11//8 5//8
f 20//8 17//8 15//8
f 20//8 15//8 13//8
f 38//8 13//8 1//8
f 38//8 20//8 13//8
f 56//8 1//8 3//8
f 56//8 38//8 1//8
f 44//8 23//8 20//8
f 44//8 20//8 38//8
f 36//7 40//7 42//7
f 35//7 40//7 36//7
f 41//9 36//9 42//9
f 33//9 36//9 41//9
f 41//10 48//10 33//10
f 33//10 48//10 31//10
f 31//11 49//11 29//11
f 48//11 49//11 31//11
f 29//12 43//12 22//12
f 49//12 43//12 29//12
f 22//13 45//13 30//13
f 43//13 45//13 22//13
f 30//14 46//14 32//14
f 32//15 46//15 34//15
f 45//14 46//14 30//14
f 46//15 37//15 34//15
f 51//16 47//16 28//16
f 51//16 28//16 27//16
f 53//17 27//17 26//17
f 53//17 51//17 27//17
f 54//18 26//18 25//18
f 54//18 53//18 26//18
f 52//19 25//19 24//19
f 52//19 54//19 25//19
f 50//20 24//20 21//20
f 50//20 52//20 24//20
f 44//21 21//21 23//21
f 44//21 50//21 21//21
f 40//22 28//22 47//22
f 35//22 28//22 40//22
