# Blender v2.81 (sub 16) OBJ File: ''
# www.blender.org
mtllib IM03TS.mtl
o IM03TS
v -0.000371 0.007424 0.000742
v 0.000371 -0.007424 0.000742
v 0.000371 0.007424 0.000742
v -0.000371 -0.007424 0.000742
v 0.000371 -0.007424 -0.000742
v -0.000371 -0.007424 -0.000742
v 0.000371 0.007424 -0.000742
v -0.000371 0.007424 -0.000742
vn 0.0000 -0.0000 1.0000
vn 0.0000 -1.0000 0.0000
vn 0.0000 0.0000 -1.0000
vn 0.0000 1.0000 0.0000
vn 1.0000 0.0000 0.0000
vn -1.0000 -0.0000 0.0000
usemtl material_1.258
s 1
f 1//1 2//1 3//1
f 1//1 4//1 2//1
usemtl material_0.263
f 4//2 5//2 2//2
f 4//2 6//2 5//2
f 6//3 7//3 5//3
f 6//3 8//3 7//3
f 8//4 3//4 7//4
f 8//4 1//4 3//4
f 3//5 5//5 7//5
f 2//5 5//5 3//5
f 6//6 1//6 8//6
f 6//6 4//6 1//6
