# Blender v2.81 (sub 16) OBJ File: ''
# www.blender.org
mtllib JST XHP-2 Housing.mtl
o JST_XHP-2_Housing
v -0.006673 -0.004391 0.014917
v -0.010877 -0.002990 0.014917
v -0.010877 -0.007544 0.014917
v -0.007374 -0.007544 0.014917
v 0.001909 -0.004391 0.014917
v -0.003170 -0.004391 0.014917
v -0.002470 -0.007544 0.014917
v 0.001209 -0.007544 0.014917
v 0.009616 -0.007544 0.014917
v 0.005412 -0.004391 0.014917
v 0.006113 -0.007544 0.014917
v 0.009616 -0.002990 0.014917
v -0.010877 -0.001939 0.013165
v 0.009616 -0.001939 0.013165
v -0.003170 -0.000888 0.013165
v -0.006673 -0.000888 0.013165
v -0.006673 0.002615 0.013165
v -0.010877 0.006819 0.013165
v -0.003170 0.002615 0.013165
v 0.001909 -0.000888 0.013165
v 0.001909 0.002615 0.013165
v 0.005412 -0.000888 0.013165
v 0.005412 0.002615 0.013165
v 0.009616 0.006819 0.013165
v 0.003836 0.009621 -0.012583
v -0.002732 0.009621 -0.011071
v 0.001471 0.009621 -0.011071
v -0.005097 0.009621 -0.012583
v -0.005097 0.009621 0.009136
v -0.005097 0.009621 0.000904
v -0.007286 0.009621 0.000904
v -0.002732 0.009621 0.009136
v 0.003836 0.009621 0.009136
v 0.006026 0.009621 0.000904
v 0.003836 0.009621 0.000904
v 0.001471 0.009621 0.009136
v -0.010877 0.006819 -0.009605
v -0.013417 0.006819 -0.012583
v -0.013417 0.006819 -0.009605
v -0.005097 0.006819 -0.012583
v -0.005097 0.006819 0.000904
v -0.007286 0.006819 0.000904
v 0.009616 0.006819 -0.009605
v 0.012156 0.006819 -0.012583
v 0.003836 0.006819 -0.012583
v 0.012156 0.006819 -0.009605
v -0.005097 0.006819 0.009136
v -0.002732 0.006819 0.009136
v 0.006026 0.006819 0.000904
v 0.003836 0.006819 0.000904
v 0.001471 0.006819 0.009136
v 0.003836 0.006819 0.009136
v -0.002732 0.006819 -0.011071
v 0.001471 0.006819 -0.011071
v 0.007602 -0.004391 0.001430
v 0.007602 -0.004391 -0.012583
v 0.005412 -0.004391 0.001430
v 0.005412 -0.004391 -0.012583
v 0.005412 -0.005792 0.001430
v 0.005412 -0.005792 -0.012583
v 0.002435 -0.005792 0.001430
v 0.002435 -0.005792 -0.012583
v 0.002435 -0.004391 0.001430
v 0.002435 -0.004391 -0.012583
v 0.000245 -0.004391 0.001430
v 0.000245 -0.004391 -0.012583
v 0.000245 0.004191 0.001430
v 0.000245 0.004191 -0.012583
v 0.007602 0.004191 0.001430
v 0.007602 0.004191 -0.012583
v 0.001909 -0.000888 0.001430
v 0.005412 -0.000888 0.001430
v 0.001909 0.002615 0.001430
v 0.005412 0.002615 0.001430
v 0.005412 -0.004391 0.004758
v 0.001909 -0.004391 0.004758
v 0.001209 -0.007544 0.004758
v 0.006113 -0.007544 0.004758
v 0.009616 -0.007544 -0.009605
v 0.012156 -0.000012 -0.009605
v 0.012156 -0.000012 -0.012583
v 0.009729 -0.001414 -0.009605
v 0.009729 -0.001414 -0.012583
v 0.012156 -0.002815 -0.009605
v 0.012156 -0.002815 -0.012583
v 0.012156 -0.009646 -0.009605
v 0.012156 -0.009646 -0.012583
v -0.007374 -0.007544 0.004758
v -0.002470 -0.007544 0.004758
v -0.010877 -0.007544 -0.009605
v -0.008863 0.004191 -0.012583
v -0.001506 0.004191 0.001430
v -0.008863 0.004191 0.001430
v -0.001506 0.004191 -0.012583
v -0.001506 -0.004391 0.001430
v -0.001506 -0.004391 -0.012583
v -0.003696 -0.004391 0.001430
v -0.003696 -0.004391 -0.012583
v -0.003696 -0.005792 0.001430
v -0.003696 -0.005792 -0.012583
v -0.006673 -0.005792 0.001430
v -0.006673 -0.005792 -0.012583
v -0.006673 -0.004391 0.001430
v -0.006673 -0.004391 -0.012583
v -0.008863 -0.004391 0.001430
v -0.008863 -0.004391 -0.012583
v -0.006673 -0.000888 0.001430
v -0.003170 -0.000888 0.001430
v -0.006673 0.002615 0.001430
v -0.003170 0.002615 0.001430
v -0.003170 -0.004391 0.004758
v -0.006673 -0.004391 0.004758
v -0.013417 -0.009646 -0.009605
v -0.013417 -0.009646 -0.012583
vn 0.0000 0.0000 1.0000
vn 0.0000 0.8575 0.5145
vn 0.0000 1.0000 0.0000
vn -1.0000 0.0000 0.0000
vn 1.0000 0.0000 0.0000
vn 0.0000 -1.0000 -0.0000
vn 0.0000 0.0000 -1.0000
vn 0.9762 -0.2169 0.0000
vn -0.9762 -0.2169 0.0000
vn 0.9664 0.0000 0.2570
vn 0.5000 -0.8660 -0.0000
vn 0.5000 0.8660 0.0000
vn -0.9664 -0.0000 0.2570
usemtl material_1.374
s 1
f 1//1 2//1 3//1
f 1//1 3//1 4//1
f 5//1 6//1 7//1
f 5//1 7//1 8//1
f 9//1 10//1 11//1
f 12//1 10//1 9//1
f 12//1 2//1 10//1
f 10//1 2//1 5//1
f 5//1 2//1 6//1
f 6//1 2//1 1//1
usemtl material_0.381
f 12//2 13//2 2//2
f 14//2 13//2 12//2
f 15//1 16//1 13//1
f 17//1 13//1 16//1
f 18//1 13//1 17//1
f 19//1 18//1 17//1
f 20//1 15//1 13//1
f 21//1 19//1 15//1
f 21//1 15//1 20//1
f 14//1 22//1 20//1
f 14//1 20//1 13//1
f 23//1 22//1 14//1
f 24//1 21//1 23//1
f 24//1 23//1 14//1
f 24//1 18//1 19//1
f 24//1 19//1 21//1
f 25//3 26//3 27//3
f 25//3 28//3 26//3
f 29//3 30//3 31//3
f 32//3 30//3 29//3
f 33//3 34//3 35//3
f 33//3 35//3 36//3
f 28//3 30//3 26//3
f 32//3 26//3 30//3
f 27//3 36//3 35//3
f 27//3 35//3 25//3
f 37//3 38//3 39//3
f 40//3 38//3 37//3
f 41//3 37//3 42//3
f 43//3 44//3 45//3
f 46//3 44//3 43//3
f 47//3 42//3 18//3
f 48//3 47//3 18//3
f 49//3 43//3 50//3
f 51//3 48//3 18//3
f 24//3 49//3 52//3
f 24//3 52//3 51//3
f 24//3 51//3 18//3
f 53//3 48//3 51//3
f 53//3 51//3 54//3
f 41//3 40//3 37//3
f 37//3 18//3 42//3
f 24//3 43//3 49//3
f 45//3 50//3 43//3
f 55//3 56//3 57//3
f 57//3 56//3 58//3
f 57//4 58//4 59//4
f 59//4 58//4 60//4
f 59//3 60//3 61//3
f 61//3 60//3 62//3
f 62//5 63//5 61//5
f 64//5 63//5 62//5
f 63//3 64//3 65//3
f 65//3 64//3 66//3
f 66//5 67//5 65//5
f 68//5 67//5 66//5
f 68//6 69//6 67//6
f 70//6 69//6 68//6
f 69//4 70//4 55//4
f 55//4 70//4 56//4
f 61//7 57//7 59//7
f 63//7 57//7 61//7
f 65//7 71//7 63//7
f 65//7 67//7 71//7
f 57//7 72//7 55//7
f 71//7 72//7 63//7
f 63//7 72//7 57//7
f 67//7 73//7 71//7
f 67//7 74//7 73//7
f 74//7 69//7 72//7
f 72//7 69//7 55//7
f 67//7 69//7 74//7
f 73//5 21//5 71//5
f 71//5 21//5 20//5
f 74//6 23//6 73//6
f 73//6 23//6 21//6
f 20//3 72//3 71//3
f 22//3 72//3 20//3
f 22//4 74//4 72//4
f 23//4 74//4 22//4
f 75//6 10//6 76//6
f 76//6 10//6 5//6
f 76//8 5//8 77//8
f 77//8 5//8 8//8
f 11//9 75//9 78//9
f 10//9 75//9 11//9
f 75//1 76//1 77//1
f 75//1 77//1 78//1
f 34//10 33//10 52//10
f 34//10 52//10 49//10
f 35//7 34//7 49//7
f 35//7 49//7 50//7
f 52//1 36//1 51//1
f 33//1 36//1 52//1
f 51//4 27//4 54//4
f 36//4 27//4 51//4
f 14//5 12//5 9//5
f 79//5 14//5 9//5
f 43//5 24//5 14//5
f 43//5 14//5 79//5
f 25//5 35//5 50//5
f 25//5 50//5 45//5
f 44//5 46//5 80//5
f 44//5 80//5 81//5
f 81//11 80//11 82//11
f 81//11 82//11 83//11
f 83//12 82//12 84//12
f 83//12 84//12 85//12
f 85//5 84//5 86//5
f 85//5 86//5 87//5
f 88//6 4//6 3//6
f 77//6 8//6 7//6
f 77//6 7//6 89//6
f 90//6 89//6 88//6
f 90//6 88//6 3//6
f 90//6 77//6 89//6
f 78//6 9//6 11//6
f 79//6 78//6 77//6
f 79//6 77//6 90//6
f 79//6 9//6 78//6
f 91//6 92//6 93//6
f 94//6 92//6 91//6
f 92//4 94//4 95//4
f 95//4 94//4 96//4
f 95//3 96//3 97//3
f 97//3 96//3 98//3
f 97//4 98//4 99//4
f 99//4 98//4 100//4
f 99//3 100//3 101//3
f 101//3 100//3 102//3
f 102//5 103//5 101//5
f 104//5 103//5 102//5
f 103//3 104//3 105//3
f 105//3 104//3 106//3
f 106//5 93//5 105//5
f 91//5 93//5 106//5
f 101//7 97//7 99//7
f 103//7 97//7 101//7
f 105//7 107//7 103//7
f 103//7 107//7 97//7
f 105//7 93//7 107//7
f 97//7 108//7 95//7
f 107//7 108//7 97//7
f 93//7 109//7 107//7
f 110//7 92//7 108//7
f 109//7 92//7 110//7
f 108//7 92//7 95//7
f 93//7 92//7 109//7
f 109//5 17//5 107//5
f 107//5 17//5 16//5
f 110//6 19//6 109//6
f 109//6 19//6 17//6
f 16//3 108//3 107//3
f 15//3 108//3 16//3
f 15//4 110//4 108//4
f 19//4 110//4 15//4
f 111//6 6//6 112//6
f 112//6 6//6 1//6
f 112//8 1//8 88//8
f 88//8 1//8 4//8
f 7//9 111//9 89//9
f 6//9 111//9 7//9
f 111//1 112//1 88//1
f 111//1 88//1 89//1
f 31//7 30//7 41//7
f 31//7 41//7 42//7
f 29//13 31//13 42//13
f 29//13 42//13 47//13
f 53//5 32//5 48//5
f 26//5 32//5 53//5
f 48//1 29//1 47//1
f 32//1 29//1 48//1
f 13//4 37//4 90//4
f 13//4 90//4 3//4
f 2//4 13//4 3//4
f 18//4 37//4 13//4
f 39//1 113//1 90//1
f 37//1 39//1 90//1
f 79//1 90//1 113//1
f 86//1 79//1 113//1
f 84//1 82//1 79//1
f 84//1 79//1 86//1
f 43//1 82//1 80//1
f 46//1 43//1 80//1
f 43//1 79//1 82//1
f 30//4 28//4 40//4
f 30//4 40//4 41//4
f 87//6 86//6 113//6
f 87//6 113//6 114//6
f 39//4 38//4 114//4
f 39//4 114//4 113//4
f 106//7 102//7 114//7
f 106//7 104//7 102//7
f 102//7 100//7 114//7
f 114//7 38//7 106//7
f 98//7 96//7 100//7
f 38//7 91//7 106//7
f 96//7 62//7 100//7
f 66//7 62//7 96//7
f 66//7 64//7 62//7
f 60//7 87//7 62//7
f 100//7 87//7 114//7
f 62//7 87//7 100//7
f 40//7 94//7 91//7
f 58//7 56//7 60//7
f 60//7 56//7 87//7
f 94//7 68//7 96//7
f 96//7 68//7 66//7
f 40//7 28//7 94//7
f 83//7 85//7 56//7
f 56//7 85//7 87//7
f 45//7 70//7 68//7
f 70//7 81//7 83//7
f 94//7 25//7 68//7
f 28//7 25//7 94//7
f 68//7 25//7 45//7
f 70//7 44//7 81//7
f 38//7 40//7 91//7
f 45//7 44//7 70//7
f 56//7 70//7 83//7
f 54//1 26//1 53//1
f 27//1 26//1 54//1
