# Blender v2.82 (sub 7) OBJ File: 'pegs.blend'
# www.blender.org
mtllib cube.mtl
o slot_cube_slot_cube.001
v 0.011000 -0.011000 0.009000
v -0.011000 -0.011000 0.009000
v 0.011000 0.011000 0.009000
v -0.011000 0.011000 0.009000
v -0.025000 0.000000 0.000000
v -0.025000 0.000000 0.030000
v -0.024520 0.004877 0.000000
v -0.024520 0.004877 0.030000
v -0.023097 0.009567 0.000000
v -0.023097 0.009567 0.030000
v -0.020787 0.013889 0.000000
v -0.020787 0.013889 0.030000
v -0.017678 0.017678 0.000000
v -0.017678 0.017678 0.030000
v -0.013889 0.020787 0.000000
v -0.013889 0.020787 0.030000
v -0.009567 0.023097 0.000000
v -0.009567 0.023097 0.030000
v -0.004877 0.024520 0.000000
v -0.004877 0.024520 0.030000
v -0.000000 0.025000 0.000000
v -0.000000 0.025000 0.030000
v 0.004877 0.024520 0.000000
v 0.004877 0.024520 0.030000
v 0.009567 0.023097 0.000000
v 0.009567 0.023097 0.030000
v 0.013889 0.020787 0.000000
v 0.013889 0.020787 0.030000
v 0.017678 0.017678 0.000000
v 0.017678 0.017678 0.030000
v 0.020787 0.013889 0.000000
v 0.020787 0.013889 0.030000
v 0.023097 0.009567 0.000000
v 0.023097 0.009567 0.030000
v 0.024520 0.004877 0.000000
v 0.024520 0.004877 0.030000
v 0.025000 -0.000000 0.000000
v 0.025000 -0.000000 0.030000
v 0.024520 -0.004877 0.000000
v 0.024520 -0.004877 0.030000
v 0.023097 -0.009567 0.000000
v 0.023097 -0.009567 0.030000
v 0.020787 -0.013889 0.000000
v 0.020787 -0.013889 0.030000
v 0.017678 -0.017678 0.000000
v 0.017678 -0.017678 0.030000
v 0.013889 -0.020787 0.000000
v 0.013889 -0.020787 0.030000
v 0.009567 -0.023097 0.000000
v 0.009567 -0.023097 0.030000
v 0.004877 -0.024520 0.000000
v 0.004877 -0.024520 0.030000
v -0.000000 -0.025000 0.000000
v -0.000000 -0.025000 0.030000
v -0.004877 -0.024520 0.000000
v -0.004877 -0.024520 0.030000
v -0.009567 -0.023097 0.000000
v -0.009567 -0.023097 0.030000
v -0.013889 -0.020787 0.000000
v -0.013889 -0.020787 0.030000
v -0.017678 -0.017678 0.000000
v -0.017678 -0.017678 0.030000
v -0.020787 -0.013889 0.000000
v -0.020787 -0.013889 0.030000
v -0.023097 -0.009567 0.000000
v -0.023097 -0.009567 0.030000
v -0.024520 -0.004877 0.000000
v -0.024520 -0.004877 0.030000
v -0.011000 -0.011000 0.030000
v -0.011000 0.011000 0.030000
v 0.011000 0.011000 0.030000
v -0.002530 -0.011000 0.030000
v 0.011000 -0.011000 0.030000
vt 0.375000 0.250000
vt 0.613636 0.250000
vt 0.613636 0.153749
vt 0.375000 0.500000
vt 0.375000 0.750000
vt 0.613636 0.500000
vt 0.375000 1.000000
vt 0.613636 0.750000
vt 0.125000 0.750000
vt 0.125000 0.500000
vt 1.000000 1.000000
vt 0.968750 0.500000
vt 1.000000 0.500000
vt 0.968750 1.000000
vt 0.937500 0.500000
vt 0.937500 1.000000
vt 0.906250 0.500000
vt 0.906250 1.000000
vt 0.875000 0.500000
vt 0.875000 1.000000
vt 0.843750 0.500000
vt 0.843750 1.000000
vt 0.812500 0.500000
vt 0.812500 1.000000
vt 0.781250 0.500000
vt 0.781250 1.000000
vt 0.750000 0.500000
vt 0.750000 1.000000
vt 0.718750 0.500000
vt 0.718750 1.000000
vt 0.687500 0.500000
vt 0.687500 1.000000
vt 0.656250 0.500000
vt 0.656250 1.000000
vt 0.625000 0.500000
vt 0.625000 1.000000
vt 0.593750 0.500000
vt 0.593750 1.000000
vt 0.562500 0.500000
vt 0.562500 1.000000
vt 0.531250 0.500000
vt 0.531250 1.000000
vt 0.500000 0.500000
vt 0.500000 1.000000
vt 0.468750 0.500000
vt 0.468750 1.000000
vt 0.437500 0.500000
vt 0.437500 1.000000
vt 0.406250 0.500000
vt 0.406250 1.000000
vt 0.375000 0.500000
vt 0.375000 1.000000
vt 0.343750 0.500000
vt 0.343750 1.000000
vt 0.312500 0.500000
vt 0.312500 1.000000
vt 0.281250 0.500000
vt 0.281250 1.000000
vt 0.250000 0.500000
vt 0.250000 1.000000
vt 0.218750 0.500000
vt 0.218750 1.000000
vt 0.187500 0.500000
vt 0.187500 1.000000
vt 0.156250 0.500000
vt 0.156250 1.000000
vt 0.125000 0.500000
vt 0.125000 1.000000
vt 0.093750 0.500000
vt 0.093750 1.000000
vt 0.062500 0.500000
vt 0.383337 0.449553
vt 0.341844 0.471731
vt 0.355600 0.355600
vt 0.062500 1.000000
vt 0.031250 0.500000
vt 0.031250 1.000000
vt 0.000000 0.500000
vt 0.550447 0.383337
vt 0.703179 0.485389
vt 0.796822 0.014612
vt 0.355600 0.144400
vt 0.144400 0.144400
vt 0.250000 0.010000
vt 0.613636 0.000000
vt 0.375000 0.000000
vt 0.613636 1.000000
vt 0.296822 0.485388
vt 0.250000 0.490000
vt 0.203179 0.485389
vt 0.144400 0.355600
vt 0.158156 0.471731
vt 0.116663 0.449553
vt 0.080295 0.419706
vt 0.050447 0.383337
vt 0.028269 0.341844
vt 0.014612 0.296822
vt 0.144400 0.274287
vt 0.449553 0.383337
vt 0.419706 0.419706
vt 0.000000 1.000000
vt 0.750000 0.490000
vt 0.796822 0.485388
vt 0.841844 0.471731
vt 0.883337 0.449553
vt 0.919706 0.419706
vt 0.949553 0.383337
vt 0.971731 0.341844
vt 0.985388 0.296822
vt 0.990000 0.250000
vt 0.985388 0.203178
vt 0.971731 0.158156
vt 0.949553 0.116663
vt 0.919706 0.080294
vt 0.883337 0.050447
vt 0.841844 0.028269
vt 0.750000 0.010000
vt 0.703178 0.014612
vt 0.658156 0.028269
vt 0.616663 0.050447
vt 0.580294 0.080294
vt 0.550447 0.116663
vt 0.528269 0.158156
vt 0.514611 0.203179
vt 0.510000 0.250000
vt 0.514612 0.296822
vt 0.528269 0.341844
vt 0.580295 0.419706
vt 0.616663 0.449553
vt 0.658156 0.471731
vt 0.471731 0.341844
vt 0.485388 0.296822
vt 0.490000 0.250000
vt 0.471731 0.158156
vt 0.485388 0.203178
vt 0.419706 0.080294
vt 0.449553 0.116663
vt 0.341844 0.028269
vt 0.383337 0.050447
vt 0.296822 0.014612
vt 0.158156 0.028269
vt 0.203178 0.014612
vt 0.080294 0.080294
vt 0.116663 0.050447
vt 0.028269 0.158156
vt 0.050447 0.116663
vt 0.010000 0.250000
vt 0.014611 0.203179
vn 0.0000 1.0000 0.0000
vn 1.0000 0.0000 0.0000
vn 0.0000 -1.0000 0.0000
vn -1.0000 0.0000 0.0000
vn 0.0000 0.0000 1.0000
vn -0.9952 0.0980 0.0000
vn -0.9569 0.2903 0.0000
vn -0.8819 0.4714 0.0000
vn -0.7730 0.6344 0.0000
vn -0.6344 0.7730 0.0000
vn -0.4714 0.8819 0.0000
vn -0.2903 0.9569 0.0000
vn -0.0980 0.9952 0.0000
vn 0.0980 0.9952 0.0000
vn 0.2903 0.9569 0.0000
vn 0.4714 0.8819 0.0000
vn 0.6344 0.7730 0.0000
vn 0.7730 0.6344 0.0000
vn 0.8819 0.4714 0.0000
vn 0.9569 0.2903 0.0000
vn 0.9952 0.0980 0.0000
vn 0.9952 -0.0980 0.0000
vn 0.9569 -0.2903 0.0000
vn 0.8819 -0.4714 0.0000
vn 0.7730 -0.6344 0.0000
vn 0.6344 -0.7730 0.0000
vn 0.4714 -0.8819 0.0000
vn 0.2903 -0.9569 0.0000
vn 0.0980 -0.9952 0.0000
vn -0.0980 -0.9952 0.0000
vn -0.2903 -0.9569 0.0000
vn -0.4714 -0.8819 0.0000
vn -0.6344 -0.7730 0.0000
vn -0.7730 -0.6344 0.0000
vn -0.8819 -0.4714 0.0000
vn -0.9569 -0.2903 0.0000
vn -0.9952 -0.0980 0.0000
vn 0.0000 0.0000 -1.0000
usemtl None
s off
f 2/1/1 69/2/1 72/3/1
f 4/4/2 69/2/2 2/1/2
f 3/5/3 70/6/3 4/4/3
f 1/7/4 71/8/4 3/5/4
f 1/9/5 4/4/5 2/10/5
f 6/11/6 7/12/6 5/13/6
f 8/14/7 9/15/7 7/12/7
f 10/16/8 11/17/8 9/15/8
f 12/18/9 13/19/9 11/17/9
f 14/20/10 15/21/10 13/19/10
f 16/22/11 17/23/11 15/21/11
f 18/24/12 19/25/12 17/23/12
f 20/26/13 21/27/13 19/25/13
f 22/28/14 23/29/14 21/27/14
f 24/30/15 25/31/15 23/29/15
f 26/32/16 27/33/16 25/31/16
f 28/34/17 29/35/17 27/33/17
f 30/36/18 31/37/18 29/35/18
f 32/38/19 33/39/19 31/37/19
f 34/40/20 35/41/20 33/39/20
f 36/42/21 37/43/21 35/41/21
f 38/44/22 39/45/22 37/43/22
f 40/46/23 41/47/23 39/45/23
f 42/48/24 43/49/24 41/47/24
f 44/50/25 45/51/25 43/49/25
f 46/52/26 47/53/26 45/51/26
f 48/54/27 49/55/27 47/53/27
f 50/56/28 51/57/28 49/55/28
f 52/58/29 53/59/29 51/57/29
f 54/60/30 55/61/30 53/59/30
f 56/62/31 57/63/31 55/61/31
f 58/64/32 59/65/32 57/63/32
f 60/66/33 61/67/33 59/65/33
f 62/68/34 63/69/34 61/67/34
f 64/70/35 65/71/35 63/69/35
f 12/72/5 10/73/5 70/74/5
f 66/75/36 67/76/36 65/71/36
f 68/77/37 5/78/37 67/76/37
f 59/79/38 67/80/38 35/81/38
f 71/82/5 73/83/5 38/84/5
f 73/85/1 1/86/1 72/3/1
f 1/86/1 2/1/1 72/3/1
f 4/4/2 70/6/2 69/2/2
f 3/5/3 71/8/3 70/6/3
f 1/7/4 73/87/4 71/8/4
f 1/9/5 3/5/5 4/4/5
f 6/11/6 8/14/6 7/12/6
f 8/14/7 10/16/7 9/15/7
f 10/16/8 12/18/8 11/17/8
f 12/18/9 14/20/9 13/19/9
f 14/20/10 16/22/10 15/21/10
f 16/22/11 18/24/11 17/23/11
f 18/24/12 20/26/12 19/25/12
f 20/26/13 22/28/13 21/27/13
f 22/28/14 24/30/14 23/29/14
f 24/30/15 26/32/15 25/31/15
f 26/32/16 28/34/16 27/33/16
f 28/34/17 30/36/17 29/35/17
f 30/36/18 32/38/18 31/37/18
f 32/38/19 34/40/19 33/39/19
f 34/40/20 36/42/20 35/41/20
f 36/42/21 38/44/21 37/43/21
f 38/44/22 40/46/22 39/45/22
f 40/46/23 42/48/23 41/47/23
f 42/48/24 44/50/24 43/49/24
f 44/50/25 46/52/25 45/51/25
f 46/52/26 48/54/26 47/53/26
f 48/54/27 50/56/27 49/55/27
f 50/56/28 52/58/28 51/57/28
f 52/58/29 54/60/29 53/59/29
f 54/60/30 56/62/30 55/61/30
f 56/62/31 58/64/31 57/63/31
f 58/64/32 60/66/32 59/65/32
f 60/66/33 62/68/33 61/67/33
f 62/68/34 64/70/34 63/69/34
f 64/70/35 66/75/35 65/71/35
f 10/73/5 8/88/5 70/74/5
f 8/88/5 6/89/5 70/74/5
f 6/89/5 68/90/5 69/91/5
f 68/90/5 66/92/5 69/91/5
f 66/92/5 64/93/5 69/91/5
f 64/93/5 62/94/5 69/91/5
f 62/94/5 60/95/5 69/91/5
f 60/95/5 58/96/5 69/91/5
f 58/96/5 56/97/5 72/98/5
f 69/91/5 70/74/5 6/89/5
f 70/74/5 16/99/5 14/100/5
f 58/96/5 72/98/5 69/91/5
f 14/100/5 12/72/5 70/74/5
f 66/75/36 68/77/36 67/76/36
f 68/77/37 6/101/37 5/78/37
f 67/80/38 5/102/38 7/103/38
f 7/103/38 9/104/38 11/105/38
f 11/105/38 13/106/38 15/107/38
f 15/107/38 17/108/38 19/109/38
f 19/109/38 21/110/38 23/111/38
f 23/111/38 25/112/38 19/109/38
f 25/112/38 27/113/38 19/109/38
f 27/113/38 29/114/38 31/115/38
f 31/115/38 33/116/38 35/81/38
f 35/81/38 37/117/38 39/118/38
f 39/118/38 41/119/38 43/120/38
f 43/120/38 45/121/38 47/122/38
f 47/122/38 49/123/38 43/120/38
f 49/123/38 51/124/38 43/120/38
f 51/124/38 53/125/38 55/126/38
f 55/126/38 57/127/38 51/124/38
f 57/127/38 59/79/38 51/124/38
f 59/79/38 61/128/38 67/80/38
f 61/128/38 63/129/38 67/80/38
f 63/129/38 65/130/38 67/80/38
f 67/80/38 7/103/38 11/105/38
f 11/105/38 15/107/38 67/80/38
f 15/107/38 19/109/38 67/80/38
f 27/113/38 31/115/38 35/81/38
f 35/81/38 39/118/38 43/120/38
f 19/109/38 27/113/38 67/80/38
f 27/113/38 35/81/38 67/80/38
f 35/81/38 43/120/38 51/124/38
f 51/124/38 59/79/38 35/81/38
f 18/131/5 16/99/5 70/74/5
f 18/131/5 70/74/5 20/132/5
f 70/74/5 71/82/5 22/133/5
f 22/133/5 20/132/5 70/74/5
f 26/134/5 24/135/5 71/82/5
f 24/135/5 22/133/5 71/82/5
f 30/136/5 28/137/5 71/82/5
f 28/137/5 26/134/5 71/82/5
f 34/138/5 32/139/5 71/82/5
f 32/139/5 30/136/5 71/82/5
f 38/84/5 36/140/5 71/82/5
f 36/140/5 34/138/5 71/82/5
f 42/141/5 40/142/5 73/83/5
f 40/142/5 38/84/5 73/83/5
f 46/143/5 44/144/5 73/83/5
f 44/144/5 42/141/5 73/83/5
f 50/145/5 48/146/5 73/83/5
f 48/146/5 46/143/5 73/83/5
f 54/147/5 52/148/5 72/98/5
f 52/148/5 50/145/5 73/83/5
f 72/98/5 56/97/5 54/147/5
f 73/83/5 72/98/5 52/148/5
