# Blender v2.82 (sub 7) OBJ File: 'pegs.blend'
# www.blender.org
mtllib cube_leg_short.mtl
o slot_cube_leg_short_slot_cube_leg_short.001
v 0.011000 -0.011000 0.009000
v 0.011000 0.011000 0.009000
v -0.011000 -0.004400 0.009000
v -0.004400 -0.004400 0.009000
v -0.004400 -0.011000 0.009000
v -0.004400 0.011000 0.009000
v -0.004400 0.004400 0.009000
v -0.011000 0.004400 0.009000
v -0.025000 0.000000 0.000000
v -0.025000 0.000000 0.030000
v -0.024520 0.004877 0.000000
v -0.024520 0.004877 0.030000
v -0.023097 0.009567 0.000000
v -0.023097 0.009567 0.030000
v -0.020787 0.013889 0.000000
v -0.020787 0.013889 0.030000
v -0.017678 0.017678 0.000000
v -0.017678 0.017678 0.030000
v -0.013889 0.020787 0.000000
v -0.013889 0.020787 0.030000
v -0.009567 0.023097 0.000000
v -0.009567 0.023097 0.030000
v -0.004877 0.024520 0.000000
v -0.004877 0.024520 0.030000
v -0.000000 0.025000 0.000000
v -0.000000 0.025000 0.030000
v 0.004877 0.024520 0.000000
v 0.004877 0.024520 0.030000
v 0.009567 0.023097 0.000000
v 0.009567 0.023097 0.030000
v 0.013889 0.020787 0.000000
v 0.013889 0.020787 0.030000
v 0.017678 0.017678 0.000000
v 0.017678 0.017678 0.030000
v 0.020787 0.013889 0.000000
v 0.020787 0.013889 0.030000
v 0.023097 0.009567 0.000000
v 0.023097 0.009567 0.030000
v 0.024520 0.004877 0.000000
v 0.024520 0.004877 0.030000
v 0.025000 -0.000000 0.000000
v 0.025000 -0.000000 0.030000
v 0.024520 -0.004877 0.000000
v 0.024520 -0.004877 0.030000
v 0.023097 -0.009567 0.000000
v 0.023097 -0.009567 0.030000
v 0.020787 -0.013889 0.000000
v 0.020787 -0.013889 0.030000
v 0.017678 -0.017678 0.000000
v 0.017678 -0.017678 0.030000
v 0.013889 -0.020787 0.000000
v 0.013889 -0.020787 0.030000
v 0.009567 -0.023097 0.000000
v 0.009567 -0.023097 0.030000
v 0.004877 -0.024520 0.000000
v 0.004877 -0.024520 0.030000
v -0.000000 -0.025000 0.000000
v -0.000000 -0.025000 0.030000
v -0.004877 -0.024520 0.000000
v -0.004877 -0.024520 0.030000
v -0.009567 -0.023097 0.000000
v -0.009567 -0.023097 0.030000
v -0.013889 -0.020787 0.000000
v -0.013889 -0.020787 0.030000
v -0.017678 -0.017678 0.000000
v -0.017678 -0.017678 0.030000
v -0.020787 -0.013889 0.000000
v -0.020787 -0.013889 0.030000
v -0.023097 -0.009567 0.000000
v -0.023097 -0.009567 0.030000
v -0.024520 -0.004877 0.000000
v -0.024520 -0.004877 0.030000
v -0.011000 -0.004400 0.030000
v -0.004400 -0.011000 0.030000
v -0.004400 -0.004400 0.030000
v -0.004400 0.004400 0.030000
v 0.011000 0.011000 0.030000
v -0.004400 0.011000 0.030000
v -0.011000 0.004400 0.030000
v -0.002530 -0.011000 0.030000
v 0.011000 -0.011000 0.030000
vt 0.375000 0.750000
vt 0.613636 0.500000
vt 0.375000 0.500000
vt 0.375000 0.925000
vt 0.613636 0.925000
vt 0.613636 0.903749
vt 0.386364 0.258065
vt 0.603306 0.500000
vt 0.386364 0.500000
vt 0.375000 0.175000
vt 0.613636 0.075000
vt 0.375000 0.075000
vt 0.386364 0.508065
vt 0.603306 0.750000
vt 0.386364 0.750000
vt 0.200000 0.675000
vt 0.200000 0.575000
vt 0.613636 0.325000
vt 0.375000 0.325000
vt 1.000000 1.000000
vt 0.968750 0.500000
vt 1.000000 0.500000
vt 0.968750 1.000000
vt 0.937500 0.500000
vt 0.937500 1.000000
vt 0.906250 0.500000
vt 0.906250 1.000000
vt 0.875000 0.500000
vt 0.875000 1.000000
vt 0.843750 0.500000
vt 0.843750 1.000000
vt 0.812500 0.500000
vt 0.812500 1.000000
vt 0.781250 0.500000
vt 0.781250 1.000000
vt 0.750000 0.500000
vt 0.750000 1.000000
vt 0.718750 0.500000
vt 0.718750 1.000000
vt 0.687500 0.500000
vt 0.687500 1.000000
vt 0.656250 0.500000
vt 0.656250 1.000000
vt 0.625000 0.500000
vt 0.625000 1.000000
vt 0.593750 0.500000
vt 0.593750 1.000000
vt 0.562500 0.500000
vt 0.562500 1.000000
vt 0.531250 0.500000
vt 0.531250 1.000000
vt 0.500000 0.500000
vt 0.500000 1.000000
vt 0.468750 0.500000
vt 0.468750 1.000000
vt 0.437500 0.500000
vt 0.437500 1.000000
vt 0.406250 0.500000
vt 0.406250 1.000000
vt 0.375000 0.500000
vt 0.375000 1.000000
vt 0.343750 0.500000
vt 0.343750 1.000000
vt 0.312500 0.500000
vt 0.312500 1.000000
vt 0.281250 0.500000
vt 0.281250 1.000000
vt 0.250000 0.500000
vt 0.250000 1.000000
vt 0.218750 0.500000
vt 0.218750 1.000000
vt 0.187500 0.500000
vt 0.187500 1.000000
vt 0.156250 0.500000
vt 0.156250 1.000000
vt 0.125000 0.500000
vt 0.125000 1.000000
vt 0.093750 0.500000
vt 0.093750 1.000000
vt 0.062500 0.500000
vt 0.292240 0.355600
vt 0.355600 0.292240
vt 0.419706 0.419706
vt 0.062500 1.000000
vt 0.031250 0.500000
vt 0.031250 1.000000
vt 0.000000 0.500000
vt 0.550447 0.383337
vt 0.703179 0.485389
vt 0.796822 0.014612
vt 0.386364 0.991935
vt 0.603306 0.991935
vt 0.144400 0.144400
vt 0.250000 0.010000
vt 0.355600 0.144400
vt 0.386364 0.741935
vt 0.603306 0.741935
vt 0.613636 0.750000
vt 0.603306 0.258065
vt 0.613636 0.175000
vt 0.603306 0.508065
vt 0.125000 0.575000
vt 0.125000 0.675000
vt 0.200000 0.750000
vt 0.200000 0.500000
vt 0.341844 0.471731
vt 0.296822 0.485388
vt 0.250000 0.490000
vt 0.203179 0.485389
vt 0.207760 0.355600
vt 0.158156 0.471731
vt 0.116663 0.449553
vt 0.080295 0.419706
vt 0.050447 0.383337
vt 0.144400 0.292240
vt 0.028269 0.341844
vt 0.014612 0.296822
vt 0.144400 0.274287
vt 0.207760 0.292240
vt 0.383337 0.449553
vt 0.471731 0.341844
vt 0.449553 0.383337
vt 0.485388 0.296822
vt 0.292240 0.292240
vt 0.000000 1.000000
vt 0.750000 0.490000
vt 0.796822 0.485388
vt 0.841844 0.471731
vt 0.883337 0.449553
vt 0.919706 0.419706
vt 0.949553 0.383337
vt 0.971731 0.341844
vt 0.985388 0.296822
vt 0.990000 0.250000
vt 0.985388 0.203178
vt 0.971731 0.158156
vt 0.949553 0.116663
vt 0.919706 0.080294
vt 0.883337 0.050447
vt 0.841844 0.028269
vt 0.750000 0.010000
vt 0.703178 0.014612
vt 0.658156 0.028269
vt 0.616663 0.050447
vt 0.580294 0.080294
vt 0.550447 0.116663
vt 0.528269 0.158156
vt 0.514611 0.203179
vt 0.510000 0.250000
vt 0.514612 0.296822
vt 0.528269 0.341844
vt 0.580295 0.419706
vt 0.616663 0.449553
vt 0.658156 0.471731
vt 0.490000 0.250000
vt 0.485388 0.203178
vt 0.471731 0.158156
vt 0.419706 0.080294
vt 0.449553 0.116663
vt 0.341844 0.028269
vt 0.383337 0.050447
vt 0.296822 0.014612
vt 0.158156 0.028269
vt 0.203178 0.014612
vt 0.080294 0.080294
vt 0.116663 0.050447
vt 0.028269 0.158156
vt 0.050447 0.116663
vt 0.010000 0.250000
vt 0.014611 0.203179
vn -1.0000 0.0000 0.0000
vn 0.0000 1.0000 0.0000
vn 1.0000 0.0000 0.0000
vn 0.0000 -0.0000 1.0000
vn 0.0000 -1.0000 0.0000
vn -0.9952 0.0980 0.0000
vn -0.9569 0.2903 0.0000
vn -0.8819 0.4714 0.0000
vn -0.7730 0.6344 0.0000
vn -0.6344 0.7730 0.0000
vn -0.4714 0.8819 0.0000
vn -0.2903 0.9569 0.0000
vn -0.0980 0.9952 0.0000
vn 0.0980 0.9952 0.0000
vn 0.2903 0.9569 0.0000
vn 0.4714 0.8819 0.0000
vn 0.6344 0.7730 0.0000
vn 0.7730 0.6344 0.0000
vn 0.8819 0.4714 0.0000
vn 0.9569 0.2903 0.0000
vn 0.9952 0.0980 0.0000
vn 0.9952 -0.0980 0.0000
vn 0.9569 -0.2903 0.0000
vn 0.8819 -0.4714 0.0000
vn 0.7730 -0.6344 0.0000
vn 0.6344 -0.7730 0.0000
vn 0.4714 -0.8819 0.0000
vn 0.2903 -0.9569 0.0000
vn 0.0980 -0.9952 0.0000
vn -0.0980 -0.9952 0.0000
vn -0.2903 -0.9569 0.0000
vn -0.4714 -0.8819 0.0000
vn -0.6344 -0.7730 0.0000
vn -0.7730 -0.6344 0.0000
vn -0.8819 -0.4714 0.0000
vn -0.9569 -0.2903 0.0000
vn -0.9952 -0.0980 0.0000
vn 0.0000 0.0000 -1.0000
usemtl None
s off
f 1/1/1 77/2/1 2/3/1
f 5/4/2 74/5/2 80/6/2
f 3/7/2 75/8/2 4/9/2
f 8/10/3 73/11/3 3/12/3
f 6/13/3 76/14/3 7/15/3
f 4/16/4 2/3/4 7/17/4
f 2/3/5 78/18/5 6/19/5
f 10/20/6 11/21/6 9/22/6
f 12/23/7 13/24/7 11/21/7
f 14/25/8 15/26/8 13/24/8
f 16/27/9 17/28/9 15/26/9
f 18/29/10 19/30/10 17/28/10
f 20/31/11 21/32/11 19/30/11
f 22/33/12 23/34/12 21/32/12
f 24/35/13 25/36/13 23/34/13
f 26/37/14 27/38/14 25/36/14
f 28/39/15 29/40/15 27/38/15
f 30/41/16 31/42/16 29/40/16
f 32/43/17 33/44/17 31/42/17
f 34/45/18 35/46/18 33/44/18
f 36/47/19 37/48/19 35/46/19
f 38/49/20 39/50/20 37/48/20
f 40/51/21 41/52/21 39/50/21
f 42/53/22 43/54/22 41/52/22
f 44/55/23 45/56/23 43/54/23
f 46/57/24 47/58/24 45/56/24
f 48/59/25 49/60/25 47/58/25
f 50/61/26 51/62/26 49/60/26
f 52/63/27 53/64/27 51/62/27
f 54/65/28 55/66/28 53/64/28
f 56/67/29 57/68/29 55/66/29
f 58/69/30 59/70/30 57/68/30
f 60/71/31 61/72/31 59/70/31
f 62/73/32 63/74/32 61/72/32
f 64/75/33 65/76/33 63/74/33
f 66/77/34 67/78/34 65/76/34
f 68/79/35 69/80/35 67/78/35
f 79/81/4 78/82/4 18/83/4
f 70/84/36 71/85/36 69/80/36
f 72/86/37 9/87/37 71/85/37
f 63/88/38 71/89/38 39/90/38
f 8/91/5 76/14/5 79/92/5
f 81/93/4 42/94/4 77/95/4
f 5/96/3 75/8/3 74/97/3
f 1/1/1 81/98/1 77/2/1
f 81/98/2 1/1/2 80/6/2
f 1/1/2 5/4/2 80/6/2
f 3/7/2 73/99/2 75/8/2
f 8/10/3 79/100/3 73/11/3
f 6/13/3 78/101/3 76/14/3
f 7/17/4 8/102/4 4/16/4
f 8/102/4 3/103/4 4/16/4
f 4/16/4 5/104/4 1/1/4
f 2/3/4 6/105/4 7/17/4
f 4/16/4 1/1/4 2/3/4
f 2/3/5 77/2/5 78/18/5
f 10/20/6 12/23/6 11/21/6
f 12/23/7 14/25/7 13/24/7
f 14/25/8 16/27/8 15/26/8
f 16/27/9 18/29/9 17/28/9
f 18/29/10 20/31/10 19/30/10
f 20/31/11 22/33/11 21/32/11
f 22/33/12 24/35/12 23/34/12
f 24/35/13 26/37/13 25/36/13
f 26/37/14 28/39/14 27/38/14
f 28/39/15 30/41/15 29/40/15
f 30/41/16 32/43/16 31/42/16
f 32/43/17 34/45/17 33/44/17
f 34/45/18 36/47/18 35/46/18
f 36/47/19 38/49/19 37/48/19
f 38/49/20 40/51/20 39/50/20
f 40/51/21 42/53/21 41/52/21
f 42/53/22 44/55/22 43/54/22
f 44/55/23 46/57/23 45/56/23
f 46/57/24 48/59/24 47/58/24
f 48/59/25 50/61/25 49/60/25
f 50/61/26 52/63/26 51/62/26
f 52/63/27 54/65/27 53/64/27
f 54/65/28 56/67/28 55/66/28
f 56/67/29 58/69/29 57/68/29
f 58/69/30 60/71/30 59/70/30
f 60/71/31 62/73/31 61/72/31
f 62/73/32 64/75/32 63/74/32
f 64/75/33 66/77/33 65/76/33
f 66/77/34 68/79/34 67/78/34
f 68/79/35 70/84/35 69/80/35
f 14/106/4 12/107/4 79/81/4
f 12/107/4 10/108/4 79/81/4
f 10/108/4 72/109/4 73/110/4
f 72/109/4 70/111/4 73/110/4
f 70/111/4 68/112/4 73/110/4
f 68/112/4 66/113/4 73/110/4
f 66/113/4 64/114/4 74/115/4
f 64/114/4 62/116/4 74/115/4
f 62/116/4 60/117/4 74/115/4
f 60/117/4 80/118/4 74/115/4
f 74/115/4 75/119/4 73/110/4
f 73/110/4 66/113/4 74/115/4
f 79/81/4 10/108/4 73/110/4
f 18/83/4 16/120/4 79/81/4
f 16/120/4 14/106/4 79/81/4
f 22/121/4 20/122/4 78/82/4
f 20/122/4 18/83/4 78/82/4
f 78/82/4 24/123/4 22/121/4
f 79/81/4 76/124/4 78/82/4
f 70/84/36 72/86/36 71/85/36
f 72/86/37 10/125/37 9/87/37
f 71/89/38 9/126/38 11/127/38
f 11/127/38 13/128/38 15/129/38
f 15/129/38 17/130/38 19/131/38
f 19/131/38 21/132/38 23/133/38
f 23/133/38 25/134/38 27/135/38
f 27/135/38 29/136/38 23/133/38
f 29/136/38 31/137/38 23/133/38
f 31/137/38 33/138/38 35/139/38
f 35/139/38 37/140/38 39/90/38
f 39/90/38 41/141/38 43/142/38
f 43/142/38 45/143/38 47/144/38
f 47/144/38 49/145/38 51/146/38
f 51/146/38 53/147/38 47/144/38
f 53/147/38 55/148/38 47/144/38
f 55/148/38 57/149/38 59/150/38
f 59/150/38 61/151/38 55/148/38
f 61/151/38 63/88/38 55/148/38
f 63/88/38 65/152/38 71/89/38
f 65/152/38 67/153/38 71/89/38
f 67/153/38 69/154/38 71/89/38
f 71/89/38 11/127/38 15/129/38
f 15/129/38 19/131/38 71/89/38
f 19/131/38 23/133/38 71/89/38
f 31/137/38 35/139/38 39/90/38
f 39/90/38 43/142/38 47/144/38
f 23/133/38 31/137/38 71/89/38
f 31/137/38 39/90/38 71/89/38
f 39/90/38 47/144/38 55/148/38
f 55/148/38 63/88/38 39/90/38
f 8/91/5 7/15/5 76/14/5
f 26/155/4 24/123/4 78/82/4
f 26/155/4 78/82/4 28/156/4
f 78/82/4 77/95/4 28/156/4
f 30/157/4 28/156/4 77/95/4
f 34/158/4 32/159/4 77/95/4
f 32/159/4 30/157/4 77/95/4
f 38/160/4 36/161/4 77/95/4
f 36/161/4 34/158/4 77/95/4
f 42/94/4 40/162/4 77/95/4
f 40/162/4 38/160/4 77/95/4
f 46/163/4 44/164/4 81/93/4
f 44/164/4 42/94/4 81/93/4
f 50/165/4 48/166/4 81/93/4
f 48/166/4 46/163/4 81/93/4
f 54/167/4 52/168/4 81/93/4
f 52/168/4 50/165/4 81/93/4
f 58/169/4 56/170/4 80/118/4
f 56/170/4 54/167/4 81/93/4
f 80/118/4 60/117/4 58/169/4
f 81/93/4 80/118/4 56/170/4
f 5/96/3 4/9/3 75/8/3
