# Blender v2.82 (sub 7) OBJ File: 'pegs_test.blend'
# www.blender.org
mtllib cylinder.mtl
o slot_cylinder
v -0.011000 0.000000 0.009000
v -0.010789 0.002146 0.009000
v -0.010163 0.004210 0.009000
v -0.009146 0.006111 0.009000
v -0.007778 0.007778 0.009000
v -0.006111 0.009146 0.009000
v -0.004210 0.010163 0.009000
v -0.002146 0.010789 0.009000
v -0.000000 0.011000 0.009000
v 0.002146 0.010789 0.009000
v 0.004210 0.010163 0.009000
v 0.006111 0.009146 0.009000
v 0.007778 0.007778 0.009000
v 0.009146 0.006111 0.009000
v 0.010163 0.004210 0.009000
v 0.010789 0.002146 0.009000
v 0.011000 -0.000000 0.009000
v 0.010789 -0.002146 0.009000
v 0.010163 -0.004210 0.009000
v 0.009146 -0.006111 0.009000
v 0.007778 -0.007778 0.009000
v 0.006111 -0.009146 0.009000
v 0.004210 -0.010163 0.009000
v 0.002146 -0.010789 0.009000
v -0.000000 -0.011000 0.009000
v -0.002146 -0.010789 0.009000
v -0.004210 -0.010163 0.009000
v -0.006111 -0.009146 0.009000
v -0.007778 -0.007778 0.009000
v -0.009146 -0.006111 0.009000
v -0.010163 -0.004210 0.009000
v -0.010789 -0.002146 0.009000
v -0.017000 0.000000 0.000000
v -0.017000 0.000000 0.030000
v -0.016673 0.003317 0.000000
v -0.016673 0.003317 0.030000
v -0.015706 0.006506 0.000000
v -0.015706 0.006506 0.030000
v -0.014135 0.009445 0.000000
v -0.014135 0.009445 0.030000
v -0.012021 0.012021 0.000000
v -0.012021 0.012021 0.030000
v -0.009445 0.014135 0.000000
v -0.009445 0.014135 0.030000
v -0.006506 0.015706 0.000000
v -0.006506 0.015706 0.030000
v -0.003317 0.016673 0.000000
v -0.003317 0.016673 0.030000
v -0.000000 0.017000 0.000000
v -0.000000 0.017000 0.030000
v 0.003317 0.016673 0.000000
v 0.003317 0.016673 0.030000
v 0.006506 0.015706 0.000000
v 0.006506 0.015706 0.030000
v 0.009445 0.014135 0.000000
v 0.009445 0.014135 0.030000
v 0.012021 0.012021 0.000000
v 0.012021 0.012021 0.030000
v 0.014135 0.009445 0.000000
v 0.014135 0.009445 0.030000
v 0.015706 0.006506 0.000000
v 0.015706 0.006506 0.030000
v 0.016673 0.003317 0.000000
v 0.016673 0.003317 0.030000
v 0.017000 -0.000000 0.000000
v 0.017000 -0.000000 0.030000
v 0.016673 -0.003317 0.000000
v 0.016673 -0.003317 0.030000
v 0.015706 -0.006506 0.000000
v 0.015706 -0.006506 0.030000
v 0.014135 -0.009445 0.000000
v 0.014135 -0.009445 0.030000
v 0.012021 -0.012021 0.000000
v 0.012021 -0.012021 0.030000
v 0.009445 -0.014135 0.000000
v 0.009445 -0.014135 0.030000
v 0.006506 -0.015706 0.000000
v 0.006506 -0.015706 0.030000
v 0.003317 -0.016673 0.000000
v 0.003317 -0.016673 0.030000
v -0.000000 -0.017000 0.000000
v -0.000000 -0.017000 0.030000
v -0.003317 -0.016673 0.000000
v -0.003317 -0.016673 0.030000
v -0.006506 -0.015706 0.000000
v -0.006506 -0.015706 0.030000
v -0.009445 -0.014135 0.000000
v -0.009445 -0.014135 0.030000
v -0.012021 -0.012021 0.000000
v -0.012021 -0.012021 0.030000
v -0.014135 -0.009445 0.000000
v -0.014135 -0.009445 0.030000
v -0.015706 -0.006506 0.000000
v -0.015706 -0.006506 0.030000
v -0.016673 -0.003317 0.000000
v -0.016673 -0.003317 0.030000
v -0.004210 -0.010163 0.030000
v -0.006111 -0.009146 0.030000
v -0.010163 0.004210 0.030000
v -0.010789 0.002146 0.030000
v -0.002146 -0.010789 0.030000
v -0.007778 0.007778 0.030000
v 0.009146 0.006111 0.030000
v 0.010163 0.004210 0.030000
v -0.006111 0.009146 0.030000
v 0.010789 0.002146 0.030000
v 0.010163 -0.004210 0.030000
v -0.000000 -0.011000 0.030000
v -0.010163 -0.004210 0.030000
v 0.009146 -0.006111 0.030000
v 0.002146 0.010789 0.030000
v 0.007778 0.007778 0.030000
v 0.004210 0.010163 0.030000
v -0.000000 0.011000 0.030000
v -0.007778 -0.007778 0.030000
v -0.009146 -0.006111 0.030000
v 0.011000 -0.000000 0.030000
v -0.011000 0.000000 0.030000
v -0.002146 0.010789 0.030000
v -0.009146 0.006111 0.030000
v -0.004210 0.010163 0.030000
v 0.004210 -0.010163 0.030000
v 0.006111 -0.009146 0.030000
v 0.002146 -0.010789 0.030000
v 0.007778 -0.007778 0.030000
v 0.010789 -0.002146 0.030000
v 0.006111 0.009146 0.030000
v -0.010789 -0.002146 0.030000
vt 0.968750 0.500000
vt 1.000000 0.750000
vt 1.000000 0.500000
vt 0.937500 0.500000
vt 0.968750 0.750000
vt 0.906250 0.500000
vt 0.937500 0.750000
vt 0.875000 0.500000
vt 0.906250 0.750000
vt 0.843750 0.500000
vt 0.875000 0.750000
vt 0.812500 0.500000
vt 0.843750 0.750000
vt 0.781250 0.500000
vt 0.812500 0.750000
vt 0.750000 0.500000
vt 0.781250 0.750000
vt 0.718750 0.500000
vt 0.750000 0.750000
vt 0.687500 0.500000
vt 0.718750 0.750000
vt 0.656250 0.500000
vt 0.687500 0.750000
vt 0.625000 0.500000
vt 0.656250 0.750000
vt 0.593750 0.500000
vt 0.625000 0.750000
vt 0.562500 0.500000
vt 0.593750 0.750000
vt 0.531250 0.500000
vt 0.562500 0.750000
vt 0.500000 0.500000
vt 0.531250 0.750000
vt 0.468750 0.500000
vt 0.500000 0.750000
vt 0.437500 0.500000
vt 0.468750 0.750000
vt 0.406250 0.500000
vt 0.437500 0.750000
vt 0.375000 0.500000
vt 0.406250 0.750000
vt 0.343750 0.500000
vt 0.375000 0.750000
vt 0.312500 0.500000
vt 0.343750 0.750000
vt 0.281250 0.500000
vt 0.312500 0.750000
vt 0.250000 0.500000
vt 0.281250 0.750000
vt 0.218750 0.500000
vt 0.250000 0.750000
vt 0.187500 0.500000
vt 0.218750 0.750000
vt 0.156250 0.500000
vt 0.187500 0.750000
vt 0.125000 0.500000
vt 0.156250 0.750000
vt 0.093750 0.500000
vt 0.125000 0.750000
vt 0.062500 0.500000
vt 0.093750 0.750000
vt 0.031250 0.500000
vt 0.062500 0.750000
vt 0.000000 0.500000
vt 0.031250 0.750000
vt 0.703178 0.014612
vt 0.985388 0.203178
vt 0.796822 0.485388
vt 1.000000 1.000000
vt 0.968750 0.500000
vt 1.000000 0.500000
vt 0.968750 1.000000
vt 0.937500 0.500000
vt 0.937500 1.000000
vt 0.906250 0.500000
vt 0.906250 1.000000
vt 0.875000 0.500000
vt 0.875000 1.000000
vt 0.843750 0.500000
vt 0.843750 1.000000
vt 0.812500 0.500000
vt 0.812500 1.000000
vt 0.781250 0.500000
vt 0.781250 1.000000
vt 0.750000 0.500000
vt 0.750000 1.000000
vt 0.718750 0.500000
vt 0.718750 1.000000
vt 0.687500 0.500000
vt 0.687500 1.000000
vt 0.656250 0.500000
vt 0.656250 1.000000
vt 0.625000 0.500000
vt 0.625000 1.000000
vt 0.593750 0.500000
vt 0.593750 1.000000
vt 0.562500 0.500000
vt 0.562500 1.000000
vt 0.531250 0.500000
vt 0.531250 1.000000
vt 0.500000 0.500000
vt 0.500000 1.000000
vt 0.468750 0.500000
vt 0.468750 1.000000
vt 0.437500 0.500000
vt 0.437500 1.000000
vt 0.406250 0.500000
vt 0.406250 1.000000
vt 0.375000 0.500000
vt 0.375000 1.000000
vt 0.343750 0.500000
vt 0.343750 1.000000
vt 0.312500 0.500000
vt 0.312500 1.000000
vt 0.281250 0.500000
vt 0.281250 1.000000
vt 0.250000 0.500000
vt 0.250000 1.000000
vt 0.218750 0.500000
vt 0.218750 1.000000
vt 0.187500 0.500000
vt 0.187500 1.000000
vt 0.156250 0.500000
vt 0.156250 1.000000
vt 0.125000 0.500000
vt 0.125000 1.000000
vt 0.093750 0.500000
vt 0.093750 1.000000
vt 0.062500 0.500000
vt 0.280296 0.402310
vt 0.309429 0.393473
vt 0.341844 0.471731
vt 0.062500 1.000000
vt 0.031250 0.500000
vt 0.031250 1.000000
vt 0.000000 0.500000
vt 0.796822 0.014612
vt 0.514611 0.203179
vt 0.703179 0.485389
vt 0.203178 0.014612
vt 0.250000 0.094706
vt 0.219704 0.097690
vt 0.000000 0.750000
vt 0.750000 0.490000
vt 0.703179 0.485389
vt 0.658156 0.471731
vt 0.616663 0.449553
vt 0.580295 0.419706
vt 0.514612 0.296822
vt 0.550447 0.383337
vt 0.528269 0.341844
vt 0.510000 0.250000
vt 0.514611 0.203179
vt 0.528269 0.158156
vt 0.550447 0.116663
vt 0.580294 0.080294
vt 0.616663 0.050447
vt 0.658156 0.028269
vt 0.750000 0.010000
vt 0.796822 0.014612
vt 0.841844 0.028269
vt 0.883337 0.050447
vt 0.919706 0.080294
vt 0.949553 0.116663
vt 0.971731 0.158156
vt 0.990000 0.250000
vt 0.985388 0.296822
vt 0.971731 0.341844
vt 0.949553 0.383337
vt 0.919706 0.419706
vt 0.883337 0.449553
vt 0.841844 0.471731
vt 0.296822 0.485388
vt 0.250000 0.490000
vt 0.250000 0.405294
vt 0.203179 0.485389
vt 0.219704 0.402310
vt 0.158156 0.471731
vt 0.116663 0.449553
vt 0.190572 0.393473
vt 0.080295 0.419706
vt 0.163723 0.379122
vt 0.050447 0.383337
vt 0.120878 0.336277
vt 0.028269 0.341844
vt 0.106527 0.309429
vt 0.014612 0.296822
vt 0.010000 0.250000
vt 0.097690 0.280297
vt 0.094706 0.250000
vt 0.383337 0.449553
vt 0.449553 0.383337
vt 0.419706 0.419706
vt 0.379123 0.336277
vt 0.359810 0.359810
vt 0.485388 0.296822
vt 0.471731 0.341844
vt 0.402310 0.280296
vt 0.393473 0.309429
vt 0.405294 0.250000
vt 0.490000 0.250000
vt 0.140191 0.359810
vt 0.336277 0.379122
vt 0.000000 1.000000
vt 0.750000 0.490000
vt 0.796822 0.485388
vt 0.841844 0.471731
vt 0.883337 0.449553
vt 0.919706 0.419706
vt 0.949553 0.383337
vt 0.971731 0.341844
vt 0.985388 0.296822
vt 0.990000 0.250000
vt 0.985388 0.203178
vt 0.971731 0.158156
vt 0.949553 0.116663
vt 0.919706 0.080294
vt 0.883337 0.050447
vt 0.841844 0.028269
vt 0.750000 0.010000
vt 0.703178 0.014612
vt 0.658156 0.028269
vt 0.616663 0.050447
vt 0.580294 0.080294
vt 0.550447 0.116663
vt 0.528269 0.158156
vt 0.510000 0.250000
vt 0.550447 0.383337
vt 0.514612 0.296822
vt 0.528269 0.341844
vt 0.580295 0.419706
vt 0.616663 0.449553
vt 0.658156 0.471731
vt 0.485388 0.203178
vt 0.402310 0.219703
vt 0.449553 0.116663
vt 0.471731 0.158156
vt 0.393473 0.190571
vt 0.383337 0.050447
vt 0.419706 0.080294
vt 0.336277 0.120878
vt 0.359809 0.140190
vt 0.296822 0.014612
vt 0.341844 0.028269
vt 0.280296 0.097690
vt 0.309428 0.106527
vt 0.250000 0.010000
vt 0.116663 0.050447
vt 0.158156 0.028269
vt 0.190571 0.106527
vt 0.050447 0.116663
vt 0.080294 0.080294
vt 0.120878 0.163723
vt 0.140191 0.140190
vt 0.014612 0.203179
vt 0.028269 0.158156
vt 0.097690 0.219704
vt 0.106527 0.190571
vt 0.379122 0.163723
vt 0.163723 0.120878
vn 0.9952 -0.0980 0.0000
vn 0.9569 -0.2903 0.0000
vn 0.8819 -0.4714 0.0000
vn 0.7730 -0.6344 0.0000
vn 0.6344 -0.7730 0.0000
vn 0.4714 -0.8819 0.0000
vn 0.2903 -0.9569 0.0000
vn 0.0980 -0.9952 0.0000
vn -0.0980 -0.9952 0.0000
vn -0.2903 -0.9569 0.0000
vn -0.4714 -0.8819 0.0000
vn -0.6344 -0.7730 0.0000
vn -0.7730 -0.6344 0.0000
vn -0.8819 -0.4714 0.0000
vn -0.9569 -0.2903 0.0000
vn -0.9952 -0.0980 0.0000
vn -0.9952 0.0980 0.0000
vn -0.9569 0.2903 0.0000
vn -0.8819 0.4714 0.0000
vn -0.7730 0.6344 0.0000
vn -0.6344 0.7730 0.0000
vn -0.4714 0.8819 0.0000
vn -0.2903 0.9569 0.0000
vn -0.0980 0.9952 0.0000
vn 0.0980 0.9952 0.0000
vn 0.2903 0.9569 0.0000
vn 0.4714 0.8819 0.0000
vn 0.6344 0.7730 0.0000
vn 0.7730 0.6344 0.0000
vn 0.8819 0.4714 0.0000
vn 0.9569 0.2903 0.0000
vn 0.9952 0.0980 0.0000
vn 0.0000 0.0000 1.0000
vn 0.0000 0.0000 -1.0000
usemtl None
s off
f 2/1/1 118/2/1 1/3/1
f 3/4/2 100/5/2 2/1/2
f 4/6/3 99/7/3 3/4/3
f 5/8/4 120/9/4 4/6/4
f 6/10/5 102/11/5 5/8/5
f 7/12/6 105/13/6 6/10/6
f 8/14/7 121/15/7 7/12/7
f 9/16/8 119/17/8 8/14/8
f 10/18/9 114/19/9 9/16/9
f 11/20/10 111/21/10 10/18/10
f 12/22/11 113/23/11 11/20/11
f 13/24/12 127/25/12 12/22/12
f 14/26/13 112/27/13 13/24/13
f 15/28/14 103/29/14 14/26/14
f 16/30/15 104/31/15 15/28/15
f 17/32/16 106/33/16 16/30/16
f 18/34/17 117/35/17 17/32/17
f 19/36/18 126/37/18 18/34/18
f 20/38/19 107/39/19 19/36/19
f 21/40/20 110/41/20 20/38/20
f 22/42/21 125/43/21 21/40/21
f 23/44/22 123/45/22 22/42/22
f 24/46/23 122/47/23 23/44/23
f 25/48/24 124/49/24 24/46/24
f 26/50/25 108/51/25 25/48/25
f 27/52/26 101/53/26 26/50/26
f 28/54/27 97/55/27 27/52/27
f 29/56/28 98/57/28 28/54/28
f 30/58/29 115/59/29 29/56/29
f 31/60/30 116/61/30 30/58/30
f 32/62/31 109/63/31 31/60/31
f 1/64/32 128/65/32 32/62/32
f 18/66/33 10/67/33 2/68/33
f 34/69/17 35/70/17 33/71/17
f 36/72/18 37/73/18 35/70/18
f 38/74/19 39/75/19 37/73/19
f 40/76/20 41/77/20 39/75/20
f 42/78/21 43/79/21 41/77/21
f 44/80/22 45/81/22 43/79/22
f 46/82/23 47/83/23 45/81/23
f 48/84/24 49/85/24 47/83/24
f 50/86/25 51/87/25 49/85/25
f 52/88/26 53/89/26 51/87/26
f 54/90/27 55/91/27 53/89/27
f 56/92/28 57/93/28 55/91/28
f 58/94/29 59/95/29 57/93/29
f 60/96/30 61/97/30 59/95/30
f 62/98/31 63/99/31 61/97/31
f 64/100/32 65/101/32 63/99/32
f 66/102/1 67/103/1 65/101/1
f 68/104/2 69/105/2 67/103/2
f 70/106/3 71/107/3 69/105/3
f 72/108/4 73/109/4 71/107/4
f 74/110/5 75/111/5 73/109/5
f 76/112/6 77/113/6 75/111/6
f 78/114/7 79/115/7 77/113/7
f 80/116/8 81/117/8 79/115/8
f 82/118/9 83/119/9 81/117/9
f 84/120/10 85/121/10 83/119/10
f 86/122/11 87/123/11 85/121/11
f 88/124/12 89/125/12 87/123/12
f 90/126/13 91/127/13 89/125/13
f 92/128/14 93/129/14 91/127/14
f 100/130/33 99/131/33 38/132/33
f 94/133/15 95/134/15 93/129/15
f 96/135/16 33/136/16 95/134/16
f 63/137/34 79/138/34 95/139/34
f 68/140/33 117/141/33 126/142/33
f 2/1/1 100/5/1 118/2/1
f 3/4/2 99/7/2 100/5/2
f 4/6/3 120/9/3 99/7/3
f 5/8/4 102/11/4 120/9/4
f 6/10/5 105/13/5 102/11/5
f 7/12/6 121/15/6 105/13/6
f 8/14/7 119/17/7 121/15/7
f 9/16/8 114/19/8 119/17/8
f 10/18/9 111/21/9 114/19/9
f 11/20/10 113/23/10 111/21/10
f 12/22/11 127/25/11 113/23/11
f 13/24/12 112/27/12 127/25/12
f 14/26/13 103/29/13 112/27/13
f 15/28/14 104/31/14 103/29/14
f 16/30/15 106/33/15 104/31/15
f 17/32/16 117/35/16 106/33/16
f 18/34/17 126/37/17 117/35/17
f 19/36/18 107/39/18 126/37/18
f 20/38/19 110/41/19 107/39/19
f 21/40/20 125/43/20 110/41/20
f 22/42/21 123/45/21 125/43/21
f 23/44/22 122/47/22 123/45/22
f 24/46/23 124/49/23 122/47/23
f 25/48/24 108/51/24 124/49/24
f 26/50/25 101/53/25 108/51/25
f 27/52/26 97/55/26 101/53/26
f 28/54/27 98/57/27 97/55/27
f 29/56/28 115/59/28 98/57/28
f 30/58/29 116/61/29 115/59/29
f 31/60/30 109/63/30 116/61/30
f 32/62/31 128/65/31 109/63/31
f 1/64/32 118/143/32 128/65/32
f 2/68/33 1/144/33 32/145/33
f 32/145/33 31/146/33 30/147/33
f 30/147/33 29/148/33 26/149/33
f 29/148/33 28/150/33 26/149/33
f 28/150/33 27/151/33 26/149/33
f 26/149/33 25/152/33 24/153/33
f 24/153/33 23/154/33 22/155/33
f 22/155/33 21/156/33 20/157/33
f 20/157/33 19/158/33 18/66/33
f 18/66/33 17/159/33 16/160/33
f 16/160/33 15/161/33 14/162/33
f 14/162/33 13/163/33 12/164/33
f 12/164/33 11/165/33 14/162/33
f 11/165/33 10/67/33 14/162/33
f 10/67/33 9/166/33 8/167/33
f 8/167/33 7/168/33 6/169/33
f 6/169/33 5/170/33 4/171/33
f 4/171/33 3/172/33 6/169/33
f 3/172/33 2/68/33 6/169/33
f 2/68/33 32/145/33 26/149/33
f 32/145/33 30/147/33 26/149/33
f 26/149/33 24/153/33 22/155/33
f 22/155/33 20/157/33 26/149/33
f 20/157/33 18/66/33 26/149/33
f 18/66/33 16/160/33 14/162/33
f 10/67/33 8/167/33 2/68/33
f 8/167/33 6/169/33 2/68/33
f 18/66/33 14/162/33 10/67/33
f 2/68/33 26/149/33 18/66/33
f 34/69/17 36/72/17 35/70/17
f 36/72/18 38/74/18 37/73/18
f 38/74/19 40/76/19 39/75/19
f 40/76/20 42/78/20 41/77/20
f 42/78/21 44/80/21 43/79/21
f 44/80/22 46/82/22 45/81/22
f 46/82/23 48/84/23 47/83/23
f 48/84/24 50/86/24 49/85/24
f 50/86/25 52/88/25 51/87/25
f 52/88/26 54/90/26 53/89/26
f 54/90/27 56/92/27 55/91/27
f 56/92/28 58/94/28 57/93/28
f 58/94/29 60/96/29 59/95/29
f 60/96/30 62/98/30 61/97/30
f 62/98/31 64/100/31 63/99/31
f 64/100/32 66/102/32 65/101/32
f 66/102/1 68/104/1 67/103/1
f 68/104/2 70/106/2 69/105/2
f 70/106/3 72/108/3 71/107/3
f 72/108/4 74/110/4 73/109/4
f 74/110/5 76/112/5 75/111/5
f 76/112/6 78/114/6 77/113/6
f 78/114/7 80/116/7 79/115/7
f 80/116/8 82/118/8 81/117/8
f 82/118/9 84/120/9 83/119/9
f 84/120/10 86/122/10 85/121/10
f 86/122/11 88/124/11 87/123/11
f 88/124/12 90/126/12 89/125/12
f 90/126/13 92/128/13 91/127/13
f 92/128/14 94/133/14 93/129/14
f 38/132/33 36/173/33 100/130/33
f 36/173/33 34/174/33 118/175/33
f 34/174/33 96/176/33 128/177/33
f 96/176/33 94/178/33 128/177/33
f 94/178/33 92/179/33 109/180/33
f 92/179/33 90/181/33 116/182/33
f 109/180/33 92/179/33 116/182/33
f 90/181/33 88/183/33 98/184/33
f 88/183/33 86/185/33 97/186/33
f 86/185/33 84/187/33 97/186/33
f 84/187/33 82/188/33 101/189/33
f 97/186/33 84/187/33 101/189/33
f 82/188/33 108/190/33 101/189/33
f 88/183/33 97/186/33 98/184/33
f 128/177/33 94/178/33 109/180/33
f 40/191/33 38/132/33 99/131/33
f 36/173/33 118/175/33 100/130/33
f 44/192/33 42/193/33 105/194/33
f 42/193/33 40/191/33 102/195/33
f 105/194/33 42/193/33 102/195/33
f 48/196/33 46/197/33 119/198/33
f 46/197/33 44/192/33 121/199/33
f 119/198/33 46/197/33 121/199/33
f 114/200/33 50/201/33 48/196/33
f 119/198/33 114/200/33 48/196/33
f 121/199/33 44/192/33 105/194/33
f 90/181/33 98/184/33 115/202/33
f 90/181/33 115/202/33 116/182/33
f 120/203/33 102/195/33 40/191/33
f 99/131/33 120/203/33 40/191/33
f 34/174/33 128/177/33 118/175/33
f 94/133/15 96/135/15 95/134/15
f 96/135/16 34/204/16 33/136/16
f 95/139/34 33/205/34 35/206/34
f 35/206/34 37/207/34 95/139/34
f 37/207/34 39/208/34 95/139/34
f 39/208/34 41/209/34 43/210/34
f 43/210/34 45/211/34 47/212/34
f 47/212/34 49/213/34 51/214/34
f 51/214/34 53/215/34 47/212/34
f 53/215/34 55/216/34 47/212/34
f 55/216/34 57/217/34 59/218/34
f 59/218/34 61/219/34 63/137/34
f 63/137/34 65/220/34 67/221/34
f 67/221/34 69/222/34 63/137/34
f 69/222/34 71/223/34 63/137/34
f 71/223/34 73/224/34 75/225/34
f 75/225/34 77/226/34 79/138/34
f 79/138/34 81/227/34 87/228/34
f 81/227/34 83/229/34 87/228/34
f 83/229/34 85/230/34 87/228/34
f 87/228/34 89/231/34 95/139/34
f 89/231/34 91/232/34 95/139/34
f 91/232/34 93/233/34 95/139/34
f 39/208/34 43/210/34 95/139/34
f 43/210/34 47/212/34 95/139/34
f 55/216/34 59/218/34 63/137/34
f 71/223/34 75/225/34 79/138/34
f 47/212/34 55/216/34 63/137/34
f 63/137/34 71/223/34 79/138/34
f 79/138/34 87/228/34 95/139/34
f 95/139/34 47/212/34 63/137/34
f 52/234/33 50/201/33 114/200/33
f 52/234/33 114/200/33 111/235/33
f 56/236/33 54/237/33 113/238/33
f 54/237/33 52/234/33 111/235/33
f 60/239/33 58/240/33 103/241/33
f 58/240/33 56/236/33 112/242/33
f 103/241/33 58/240/33 112/242/33
f 64/243/33 62/244/33 106/245/33
f 62/244/33 60/239/33 104/246/33
f 106/245/33 62/244/33 104/246/33
f 68/140/33 66/247/33 117/141/33
f 66/247/33 64/243/33 106/245/33
f 72/248/33 70/249/33 107/250/33
f 70/249/33 68/140/33 126/142/33
f 76/251/33 74/252/33 123/253/33
f 74/252/33 72/248/33 125/254/33
f 123/253/33 74/252/33 125/254/33
f 80/255/33 78/256/33 124/257/33
f 78/256/33 76/251/33 122/258/33
f 124/257/33 78/256/33 122/258/33
f 108/190/33 82/188/33 80/255/33
f 124/257/33 108/190/33 80/255/33
f 70/249/33 126/142/33 107/250/33
f 66/247/33 106/245/33 117/141/33
f 54/237/33 111/235/33 113/238/33
f 122/258/33 76/251/33 123/253/33
f 56/236/33 113/238/33 127/259/33
f 56/236/33 127/259/33 112/242/33
f 103/241/33 104/246/33 60/239/33
f 110/260/33 125/254/33 72/248/33
f 107/250/33 110/260/33 72/248/33
