# Blender v2.82 (sub 7) OBJ File: 'pegs_test.blend'
# www.blender.org
mtllib hexagon_short.mtl
o slot_hexagon_short
v -0.011000 0.000000 0.009000
v -0.005500 0.009660 0.009000
v 0.005500 0.009660 0.009000
v 0.011000 -0.000000 0.009000
v 0.005500 -0.009660 0.009000
v -0.005500 -0.009660 0.009000
v -0.017000 0.000000 0.000000
v -0.017000 0.000000 0.030000
v -0.016673 0.003317 0.000000
v -0.016673 0.003317 0.030000
v -0.015706 0.006506 0.000000
v -0.015706 0.006506 0.030000
v -0.014135 0.009445 0.000000
v -0.014135 0.009445 0.030000
v -0.012021 0.012021 0.000000
v -0.012021 0.012021 0.030000
v -0.009445 0.014135 0.000000
v -0.009445 0.014135 0.030000
v -0.006506 0.015706 0.000000
v -0.006506 0.015706 0.030000
v -0.003317 0.016673 0.000000
v -0.003317 0.016673 0.030000
v -0.000000 0.017000 0.000000
v -0.000000 0.017000 0.030000
v 0.003317 0.016673 0.000000
v 0.003317 0.016673 0.030000
v 0.006506 0.015706 0.000000
v 0.006506 0.015706 0.030000
v 0.009445 0.014135 0.000000
v 0.009445 0.014135 0.030000
v 0.012021 0.012021 0.000000
v 0.012021 0.012021 0.030000
v 0.014135 0.009445 0.000000
v 0.014135 0.009445 0.030000
v 0.015706 0.006506 0.000000
v 0.015706 0.006506 0.030000
v 0.016673 0.003317 0.000000
v 0.016673 0.003317 0.030000
v 0.017000 -0.000000 0.000000
v 0.017000 -0.000000 0.030000
v 0.016673 -0.003317 0.000000
v 0.016673 -0.003317 0.030000
v 0.015706 -0.006506 0.000000
v 0.015706 -0.006506 0.030000
v 0.014135 -0.009445 0.000000
v 0.014135 -0.009445 0.030000
v 0.012021 -0.012021 0.000000
v 0.012021 -0.012021 0.030000
v 0.009445 -0.014135 0.000000
v 0.009445 -0.014135 0.030000
v 0.006506 -0.015706 0.000000
v 0.006506 -0.015706 0.030000
v 0.003317 -0.016673 0.000000
v 0.003317 -0.016673 0.030000
v -0.000000 -0.017000 0.000000
v -0.000000 -0.017000 0.030000
v -0.003317 -0.016673 0.000000
v -0.003317 -0.016673 0.030000
v -0.006506 -0.015706 0.000000
v -0.006506 -0.015706 0.030000
v -0.009445 -0.014135 0.000000
v -0.009445 -0.014135 0.030000
v -0.012021 -0.012021 0.000000
v -0.012021 -0.012021 0.030000
v -0.014135 -0.009445 0.000000
v -0.014135 -0.009445 0.030000
v -0.015706 -0.006506 0.000000
v -0.015706 -0.006506 0.030000
v -0.016673 -0.003317 0.000000
v -0.016673 -0.003317 0.030000
v -0.011000 0.000000 0.030000
v 0.005500 -0.009660 0.030000
v -0.005500 -0.009660 0.030000
v 0.011000 -0.000000 0.030000
v -0.005500 0.009660 0.030000
v 0.005500 0.009660 0.030000
vt 0.833333 0.500000
vt 1.000000 0.977273
vt 1.000000 0.500000
vt 0.666667 0.977273
vt 0.833333 0.977273
vt 0.500000 0.500000
vt 0.666667 0.500000
vt 0.333333 0.500000
vt 0.500000 0.977273
vt 0.166667 0.500000
vt 0.333333 0.977273
vt -0.000000 0.500000
vt 0.166667 0.977273
vt 0.750000 0.010000
vt 0.957846 0.130000
vt 0.957846 0.370000
vt 1.000000 1.000000
vt 0.968750 0.500000
vt 1.000000 0.500000
vt 0.968750 1.000000
vt 0.937500 0.500000
vt 0.937500 1.000000
vt 0.906250 0.500000
vt 0.906250 1.000000
vt 0.875000 0.500000
vt 0.875000 1.000000
vt 0.843750 0.500000
vt 0.843750 1.000000
vt 0.812500 0.500000
vt 0.812500 1.000000
vt 0.781250 0.500000
vt 0.781250 1.000000
vt 0.750000 0.500000
vt 0.750000 1.000000
vt 0.718750 0.500000
vt 0.718750 1.000000
vt 0.687500 0.500000
vt 0.687500 1.000000
vt 0.656250 0.500000
vt 0.656250 1.000000
vt 0.625000 0.500000
vt 0.625000 1.000000
vt 0.593750 0.500000
vt 0.593750 1.000000
vt 0.562500 0.500000
vt 0.562500 1.000000
vt 0.531250 0.500000
vt 0.531250 1.000000
vt 0.500000 0.500000
vt 0.500000 1.000000
vt 0.468750 0.500000
vt 0.468750 1.000000
vt 0.437500 0.500000
vt 0.437500 1.000000
vt 0.406250 0.500000
vt 0.406250 1.000000
vt 0.375000 0.500000
vt 0.375000 1.000000
vt 0.343750 0.500000
vt 0.343750 1.000000
vt 0.312500 0.500000
vt 0.312500 1.000000
vt 0.281250 0.500000
vt 0.281250 1.000000
vt 0.250000 0.500000
vt 0.250000 1.000000
vt 0.218750 0.500000
vt 0.218750 1.000000
vt 0.187500 0.500000
vt 0.187500 1.000000
vt 0.156250 0.500000
vt 0.156250 1.000000
vt 0.125000 0.500000
vt 0.125000 1.000000
vt 0.093750 0.500000
vt 0.093750 1.000000
vt 0.062500 0.500000
vt 0.383337 0.449553
vt 0.341844 0.471731
vt 0.250000 0.405294
vt 0.062500 1.000000
vt 0.031250 0.500000
vt 0.031250 1.000000
vt 0.000000 0.500000
vt 0.796822 0.014612
vt 0.514611 0.203179
vt 0.703179 0.485389
vt 0.386380 0.172353
vt 0.250000 0.094706
vt 0.383337 0.050447
vt -0.000000 0.977273
vt 0.750000 0.490000
vt 0.542154 0.370000
vt 0.542154 0.130000
vt 0.296822 0.485388
vt 0.250000 0.490000
vt 0.203179 0.485389
vt 0.158156 0.471731
vt 0.116663 0.449553
vt 0.080295 0.419706
vt 0.113620 0.327647
vt 0.050447 0.383337
vt 0.028269 0.341844
vt 0.014612 0.296822
vt 0.010000 0.250000
vt 0.014612 0.203179
vt 0.113620 0.172353
vt 0.028269 0.158156
vt 0.386380 0.327647
vt 0.471731 0.341844
vt 0.449553 0.383337
vt 0.419706 0.419706
vt 0.000000 1.000000
vt 0.750000 0.490000
vt 0.796822 0.485388
vt 0.841844 0.471731
vt 0.883337 0.449553
vt 0.919706 0.419706
vt 0.949553 0.383337
vt 0.971731 0.341844
vt 0.985388 0.296822
vt 0.990000 0.250000
vt 0.985388 0.203178
vt 0.971731 0.158156
vt 0.949553 0.116663
vt 0.919706 0.080294
vt 0.883337 0.050447
vt 0.841844 0.028269
vt 0.750000 0.010000
vt 0.703178 0.014612
vt 0.658156 0.028269
vt 0.616663 0.050447
vt 0.580294 0.080294
vt 0.550447 0.116663
vt 0.528269 0.158156
vt 0.510000 0.250000
vt 0.550447 0.383337
vt 0.514612 0.296822
vt 0.528269 0.341844
vt 0.580295 0.419706
vt 0.616663 0.449553
vt 0.658156 0.471731
vt 0.485388 0.296822
vt 0.490000 0.250000
vt 0.485388 0.203178
vt 0.449553 0.116663
vt 0.471731 0.158156
vt 0.419706 0.080294
vt 0.296822 0.014612
vt 0.341844 0.028269
vt 0.203178 0.014612
vt 0.250000 0.010000
vt 0.116663 0.050447
vt 0.158156 0.028269
vt 0.050447 0.116663
vt 0.080294 0.080294
vn 0.8690 -0.4948 0.0000
vn 0.0000 -1.0000 0.0000
vn -0.8690 -0.4948 0.0000
vn -0.8690 0.4948 0.0000
vn 0.0000 1.0000 0.0000
vn 0.8690 0.4948 0.0000
vn 0.0000 0.0000 1.0000
vn -0.9952 0.0980 0.0000
vn -0.9569 0.2903 0.0000
vn -0.8819 0.4714 0.0000
vn -0.7730 0.6344 0.0000
vn -0.6344 0.7730 0.0000
vn -0.4714 0.8819 0.0000
vn -0.2903 0.9569 0.0000
vn -0.0980 0.9952 0.0000
vn 0.0980 0.9952 0.0000
vn 0.2903 0.9569 0.0000
vn 0.4714 0.8819 0.0000
vn 0.6344 0.7730 0.0000
vn 0.7730 0.6344 0.0000
vn 0.8819 0.4714 0.0000
vn 0.9569 0.2903 0.0000
vn 0.9952 0.0980 0.0000
vn 0.9952 -0.0980 0.0000
vn 0.9569 -0.2903 0.0000
vn 0.8819 -0.4714 0.0000
vn 0.7730 -0.6344 0.0000
vn 0.6344 -0.7730 0.0000
vn 0.4714 -0.8819 0.0000
vn 0.2903 -0.9569 0.0000
vn 0.0980 -0.9952 0.0000
vn -0.0980 -0.9952 0.0000
vn -0.2903 -0.9569 0.0000
vn -0.4714 -0.8819 0.0000
vn -0.6344 -0.7730 0.0000
vn -0.7730 -0.6344 0.0000
vn -0.8819 -0.4714 0.0000
vn -0.9569 -0.2903 0.0000
vn -0.9952 -0.0980 0.0000
vn 0.0000 0.0000 -1.0000
usemtl None
s off
f 2/1/1 71/2/1 1/3/1
f 2/1/2 76/4/2 75/5/2
f 4/6/3 76/4/3 3/7/3
f 5/8/4 74/9/4 4/6/4
f 6/10/5 72/11/5 5/8/5
f 1/12/6 73/13/6 6/10/6
f 4/14/7 3/15/7 2/16/7
f 8/17/8 9/18/8 7/19/8
f 10/20/9 11/21/9 9/18/9
f 12/22/10 13/23/10 11/21/10
f 14/24/11 15/25/11 13/23/11
f 16/26/12 17/27/12 15/25/12
f 18/28/13 19/29/13 17/27/13
f 20/30/14 21/31/14 19/29/14
f 22/32/15 23/33/15 21/31/15
f 24/34/16 25/35/16 23/33/16
f 26/36/17 27/37/17 25/35/17
f 28/38/18 29/39/18 27/37/18
f 30/40/19 31/41/19 29/39/19
f 32/42/20 33/43/20 31/41/20
f 34/44/21 35/45/21 33/43/21
f 36/46/22 37/47/22 35/45/22
f 38/48/23 39/49/23 37/47/23
f 40/50/24 41/51/24 39/49/24
f 42/52/25 43/53/25 41/51/25
f 44/54/26 45/55/26 43/53/26
f 46/56/27 47/57/27 45/55/27
f 48/58/28 49/59/28 47/57/28
f 50/60/29 51/61/29 49/59/29
f 52/62/30 53/63/30 51/61/30
f 54/64/31 55/65/31 53/63/31
f 56/66/32 57/67/32 55/65/32
f 58/68/33 59/69/33 57/67/33
f 60/70/34 61/71/34 59/69/34
f 62/72/35 63/73/35 61/71/35
f 64/74/36 65/75/36 63/73/36
f 66/76/37 67/77/37 65/75/37
f 14/78/7 12/79/7 71/80/7
f 68/81/38 69/82/38 67/77/38
f 70/83/39 7/84/39 69/82/39
f 37/85/40 53/86/40 69/87/40
f 76/88/7 74/89/7 34/90/7
f 2/1/1 75/5/1 71/2/1
f 2/1/2 3/7/2 76/4/2
f 4/6/3 74/9/3 76/4/3
f 5/8/4 72/11/4 74/9/4
f 6/10/5 73/13/5 72/11/5
f 1/12/6 71/91/6 73/13/6
f 2/16/7 1/92/7 4/14/7
f 1/92/7 6/93/7 4/14/7
f 6/93/7 5/94/7 4/14/7
f 8/17/8 10/20/8 9/18/8
f 10/20/9 12/22/9 11/21/9
f 12/22/10 14/24/10 13/23/10
f 14/24/11 16/26/11 15/25/11
f 16/26/12 18/28/12 17/27/12
f 18/28/13 20/30/13 19/29/13
f 20/30/14 22/32/14 21/31/14
f 22/32/15 24/34/15 23/33/15
f 24/34/16 26/36/16 25/35/16
f 26/36/17 28/38/17 27/37/17
f 28/38/18 30/40/18 29/39/18
f 30/40/19 32/42/19 31/41/19
f 32/42/20 34/44/20 33/43/20
f 34/44/21 36/46/21 35/45/21
f 36/46/22 38/48/22 37/47/22
f 38/48/23 40/50/23 39/49/23
f 40/50/24 42/52/24 41/51/24
f 42/52/25 44/54/25 43/53/25
f 44/54/26 46/56/26 45/55/26
f 46/56/27 48/58/27 47/57/27
f 48/58/28 50/60/28 49/59/28
f 50/60/29 52/62/29 51/61/29
f 52/62/30 54/64/30 53/63/30
f 54/64/31 56/66/31 55/65/31
f 56/66/32 58/68/32 57/67/32
f 58/68/33 60/70/33 59/69/33
f 60/70/34 62/72/34 61/71/34
f 62/72/35 64/74/35 63/73/35
f 64/74/36 66/76/36 65/75/36
f 66/76/37 68/81/37 67/77/37
f 12/79/7 10/95/7 71/80/7
f 10/95/7 8/96/7 71/80/7
f 8/96/7 70/97/7 71/80/7
f 70/97/7 68/98/7 71/80/7
f 68/98/7 66/99/7 71/80/7
f 66/99/7 64/100/7 73/101/7
f 64/100/7 62/102/7 73/101/7
f 62/102/7 60/103/7 73/101/7
f 60/103/7 58/104/7 73/101/7
f 58/104/7 56/105/7 73/101/7
f 56/105/7 54/106/7 72/107/7
f 54/106/7 52/108/7 72/107/7
f 72/107/7 73/101/7 56/105/7
f 71/80/7 75/109/7 14/78/7
f 75/109/7 20/110/7 18/111/7
f 75/109/7 18/111/7 16/112/7
f 75/109/7 16/112/7 14/78/7
f 73/101/7 71/80/7 66/99/7
f 68/81/38 70/83/38 69/82/38
f 70/83/39 8/113/39 7/84/39
f 69/87/40 7/114/40 9/115/40
f 9/115/40 11/116/40 69/87/40
f 11/116/40 13/117/40 69/87/40
f 13/117/40 15/118/40 17/119/40
f 17/119/40 19/120/40 21/121/40
f 21/121/40 23/122/40 25/123/40
f 25/123/40 27/124/40 21/121/40
f 27/124/40 29/125/40 21/121/40
f 29/125/40 31/126/40 33/127/40
f 33/127/40 35/128/40 37/85/40
f 37/85/40 39/129/40 41/130/40
f 41/130/40 43/131/40 37/85/40
f 43/131/40 45/132/40 37/85/40
f 45/132/40 47/133/40 49/134/40
f 49/134/40 51/135/40 53/86/40
f 53/86/40 55/136/40 61/137/40
f 55/136/40 57/138/40 61/137/40
f 57/138/40 59/139/40 61/137/40
f 61/137/40 63/140/40 69/87/40
f 63/140/40 65/141/40 69/87/40
f 65/141/40 67/142/40 69/87/40
f 13/117/40 17/119/40 69/87/40
f 17/119/40 21/121/40 69/87/40
f 29/125/40 33/127/40 37/85/40
f 45/132/40 49/134/40 53/86/40
f 21/121/40 29/125/40 37/85/40
f 37/85/40 45/132/40 53/86/40
f 53/86/40 61/137/40 69/87/40
f 69/87/40 21/121/40 37/85/40
f 22/143/7 20/110/7 75/109/7
f 22/143/7 75/109/7 24/144/7
f 75/109/7 76/88/7 24/144/7
f 26/145/7 24/144/7 76/88/7
f 30/146/7 28/147/7 76/88/7
f 28/147/7 26/145/7 76/88/7
f 34/90/7 32/148/7 76/88/7
f 32/148/7 30/146/7 76/88/7
f 38/149/7 36/150/7 74/89/7
f 36/150/7 34/90/7 74/89/7
f 42/151/7 40/152/7 74/89/7
f 40/152/7 38/149/7 74/89/7
f 46/153/7 44/154/7 74/89/7
f 44/154/7 42/151/7 74/89/7
f 50/155/7 48/156/7 72/107/7
f 48/156/7 46/153/7 72/107/7
f 72/107/7 52/108/7 50/155/7
f 74/89/7 72/107/7 46/153/7
