# Blender v2.82 (sub 7) OBJ File: 'pegs.blend'
# www.blender.org
mtllib l_long.mtl
o slot_l_long_slot_l_long.001
v 0.009920 -0.008283 0.009000
v -0.012080 -0.008283 0.009000
v 0.009920 0.013717 0.009000
v -0.012080 0.005412 0.009000
v 0.004475 0.005412 0.009000
v 0.004475 0.013717 0.009000
v -0.025000 0.000000 0.000000
v -0.025000 0.000000 0.030000
v -0.024520 0.004877 0.000000
v -0.024520 0.004877 0.030000
v -0.023097 0.009567 0.000000
v -0.023097 0.009567 0.030000
v -0.020787 0.013889 0.000000
v -0.020787 0.013889 0.030000
v -0.017678 0.017678 0.000000
v -0.017678 0.017678 0.030000
v -0.013889 0.020787 0.000000
v -0.013889 0.020787 0.030000
v -0.009567 0.023097 0.000000
v -0.009567 0.023097 0.030000
v -0.004877 0.024520 0.000000
v -0.004877 0.024520 0.030000
v -0.000000 0.025000 0.000000
v -0.000000 0.025000 0.030000
v 0.004877 0.024520 0.000000
v 0.004877 0.024520 0.030000
v 0.009567 0.023097 0.000000
v 0.009567 0.023097 0.030000
v 0.013889 0.020787 0.000000
v 0.013889 0.020787 0.030000
v 0.017678 0.017678 0.000000
v 0.017678 0.017678 0.030000
v 0.020787 0.013889 0.000000
v 0.020787 0.013889 0.030000
v 0.023097 0.009567 0.000000
v 0.023097 0.009567 0.030000
v 0.024520 0.004877 0.000000
v 0.024520 0.004877 0.030000
v 0.025000 -0.000000 0.000000
v 0.025000 -0.000000 0.030000
v 0.024520 -0.004877 0.000000
v 0.024520 -0.004877 0.030000
v 0.023097 -0.009567 0.000000
v 0.023097 -0.009567 0.030000
v 0.020787 -0.013889 0.000000
v 0.020787 -0.013889 0.030000
v 0.017678 -0.017678 0.000000
v 0.017678 -0.017678 0.030000
v 0.013889 -0.020787 0.000000
v 0.013889 -0.020787 0.030000
v 0.009567 -0.023097 0.000000
v 0.009567 -0.023097 0.030000
v 0.004877 -0.024520 0.000000
v 0.004877 -0.024520 0.030000
v -0.000000 -0.025000 0.000000
v -0.000000 -0.025000 0.030000
v -0.004877 -0.024520 0.000000
v -0.004877 -0.024520 0.030000
v -0.009567 -0.023097 0.000000
v -0.009567 -0.023097 0.030000
v -0.013889 -0.020787 0.000000
v -0.013889 -0.020787 0.030000
v -0.017678 -0.017678 0.000000
v -0.017678 -0.017678 0.030000
v -0.020787 -0.013889 0.000000
v -0.020787 -0.013889 0.030000
v -0.023097 -0.009567 0.000000
v -0.023097 -0.009567 0.030000
v -0.024520 -0.004877 0.000000
v -0.024520 -0.004877 0.030000
v 0.004475 0.013717 0.030000
v -0.012080 0.005412 0.030000
v 0.004475 0.005412 0.030000
v 0.009920 0.013717 0.030000
v -0.012080 -0.008283 0.030000
v -0.005247 -0.008283 0.030000
v 0.009920 -0.008283 0.030000
vt 0.375000 0.250000
vt 0.500000 0.250000
vt 0.500000 0.172348
vt 0.375000 0.405625
vt 0.375000 1.000000
vt 0.500000 0.750000
vt 0.375000 0.750000
vt 0.375000 0.688125
vt 0.280625 0.688125
vt 0.500000 0.688125
vt 0.380952 0.751645
vt 0.500000 1.000000
vt 0.380952 1.000000
vt 1.000000 1.000000
vt 0.968750 0.500000
vt 1.000000 0.500000
vt 0.968750 1.000000
vt 0.937500 0.500000
vt 0.937500 1.000000
vt 0.906250 0.500000
vt 0.906250 1.000000
vt 0.875000 0.500000
vt 0.875000 1.000000
vt 0.843750 0.500000
vt 0.843750 1.000000
vt 0.812500 0.500000
vt 0.812500 1.000000
vt 0.781250 0.500000
vt 0.781250 1.000000
vt 0.750000 0.500000
vt 0.750000 1.000000
vt 0.718750 0.500000
vt 0.718750 1.000000
vt 0.687500 0.500000
vt 0.687500 1.000000
vt 0.656250 0.500000
vt 0.656250 1.000000
vt 0.625000 0.500000
vt 0.625000 1.000000
vt 0.593750 0.500000
vt 0.593750 1.000000
vt 0.562500 0.500000
vt 0.562500 1.000000
vt 0.531250 0.500000
vt 0.531250 1.000000
vt 0.500000 0.500000
vt 0.500000 1.000000
vt 0.468750 0.500000
vt 0.468750 1.000000
vt 0.437500 0.500000
vt 0.437500 1.000000
vt 0.406250 0.500000
vt 0.406250 1.000000
vt 0.375000 0.500000
vt 0.375000 1.000000
vt 0.343750 0.500000
vt 0.343750 1.000000
vt 0.312500 0.500000
vt 0.312500 1.000000
vt 0.281250 0.500000
vt 0.281250 1.000000
vt 0.250000 0.500000
vt 0.250000 1.000000
vt 0.218750 0.500000
vt 0.218750 1.000000
vt 0.187500 0.500000
vt 0.187500 1.000000
vt 0.156250 0.500000
vt 0.156250 1.000000
vt 0.125000 0.500000
vt 0.125000 1.000000
vt 0.093750 0.500000
vt 0.093750 1.000000
vt 0.062500 0.500000
vt 0.471731 0.341844
vt 0.449553 0.383337
vt 0.301955 0.365970
vt 0.062500 1.000000
vt 0.031250 0.500000
vt 0.031250 1.000000
vt 0.000000 0.500000
vt 0.550447 0.383337
vt 0.703179 0.485389
vt 0.796822 0.014612
vt 0.381683 0.154770
vt 0.170483 0.154770
vt 0.296822 0.014612
vt 0.380952 0.249172
vt 0.500000 0.000000
vt 0.500000 0.249172
vt 0.500000 0.000000
vt 0.375000 0.000000
vt 0.500000 0.405625
vt 0.500000 1.000000
vt 0.280625 0.500000
vt 0.125000 0.500000
vt 0.125000 0.750000
vt 0.500000 0.751645
vt 0.341844 0.471731
vt 0.296822 0.485388
vt 0.250000 0.490000
vt 0.203179 0.485389
vt 0.170483 0.365970
vt 0.158156 0.471731
vt 0.116663 0.449553
vt 0.080295 0.419706
vt 0.050447 0.383337
vt 0.028269 0.341844
vt 0.170483 0.300370
vt 0.301955 0.207042
vt 0.381683 0.207042
vt 0.485388 0.203178
vt 0.490000 0.250000
vt 0.485388 0.296822
vt 0.383337 0.449553
vt 0.419706 0.419706
vt 0.000000 1.000000
vt 0.750000 0.490000
vt 0.796822 0.485388
vt 0.841844 0.471731
vt 0.883337 0.449553
vt 0.919706 0.419706
vt 0.949553 0.383337
vt 0.971731 0.341844
vt 0.985388 0.296822
vt 0.990000 0.250000
vt 0.985388 0.203178
vt 0.971731 0.158156
vt 0.949553 0.116663
vt 0.919706 0.080294
vt 0.883337 0.050447
vt 0.841844 0.028269
vt 0.750000 0.010000
vt 0.703178 0.014612
vt 0.658156 0.028269
vt 0.616663 0.050447
vt 0.580294 0.080294
vt 0.550447 0.116663
vt 0.528269 0.158156
vt 0.514611 0.203179
vt 0.510000 0.250000
vt 0.514612 0.296822
vt 0.528269 0.341844
vt 0.580295 0.419706
vt 0.616663 0.449553
vt 0.658156 0.471731
vt 0.471731 0.158156
vt 0.419706 0.080294
vt 0.449553 0.116663
vt 0.341844 0.028269
vt 0.383337 0.050447
vt 0.250000 0.010000
vt 0.158156 0.028269
vt 0.203178 0.014612
vt 0.080294 0.080294
vt 0.116663 0.050447
vt 0.028269 0.158156
vt 0.050447 0.116663
vt 0.010000 0.250000
vt 0.014611 0.203179
vt 0.014612 0.296822
vt 0.380952 0.000000
vn 0.0000 1.0000 0.0000
vn 1.0000 0.0000 0.0000
vn -1.0000 0.0000 0.0000
vn 0.0000 0.0000 1.0000
vn 0.0000 -1.0000 0.0000
vn -0.9952 0.0980 0.0000
vn -0.9569 0.2903 0.0000
vn -0.8819 0.4714 0.0000
vn -0.7730 0.6344 0.0000
vn -0.6344 0.7730 0.0000
vn -0.4714 0.8819 0.0000
vn -0.2903 0.9569 0.0000
vn -0.0980 0.9952 0.0000
vn 0.0980 0.9952 0.0000
vn 0.2903 0.9569 0.0000
vn 0.4714 0.8819 0.0000
vn 0.6344 0.7730 0.0000
vn 0.7730 0.6344 0.0000
vn 0.8819 0.4714 0.0000
vn 0.9569 0.2903 0.0000
vn 0.9952 0.0980 0.0000
vn 0.9952 -0.0980 0.0000
vn 0.9569 -0.2903 0.0000
vn 0.8819 -0.4714 0.0000
vn 0.7730 -0.6344 0.0000
vn 0.6344 -0.7730 0.0000
vn 0.4714 -0.8819 0.0000
vn 0.2903 -0.9569 0.0000
vn 0.0980 -0.9952 0.0000
vn -0.0980 -0.9952 0.0000
vn -0.2903 -0.9569 0.0000
vn -0.4714 -0.8819 0.0000
vn -0.6344 -0.7730 0.0000
vn -0.7730 -0.6344 0.0000
vn -0.8819 -0.4714 0.0000
vn -0.9569 -0.2903 0.0000
vn -0.9952 -0.0980 0.0000
vn 0.0000 0.0000 -1.0000
usemtl None
s off
f 2/1/1 75/2/1 76/3/1
f 4/4/2 75/2/2 2/1/2
f 1/5/3 74/6/3 3/7/3
f 3/7/4 6/8/4 5/9/4
f 3/7/5 71/10/5 6/8/5
f 6/11/2 73/12/2 5/13/2
f 8/14/6 9/15/6 7/16/6
f 10/17/7 11/18/7 9/15/7
f 12/19/8 13/20/8 11/18/8
f 14/21/9 15/22/9 13/20/9
f 16/23/10 17/24/10 15/22/10
f 18/25/11 19/26/11 17/24/11
f 20/27/12 21/28/12 19/26/12
f 22/29/13 23/30/13 21/28/13
f 24/31/14 25/32/14 23/30/14
f 26/33/15 27/34/15 25/32/15
f 28/35/16 29/36/16 27/34/16
f 30/37/17 31/38/17 29/36/17
f 32/39/18 33/40/18 31/38/18
f 34/41/19 35/42/19 33/40/19
f 36/43/20 37/44/20 35/42/20
f 38/45/21 39/46/21 37/44/21
f 40/47/22 41/48/22 39/46/22
f 42/49/23 43/50/23 41/48/23
f 44/51/24 45/52/24 43/50/24
f 46/53/25 47/54/25 45/52/25
f 48/55/26 49/56/26 47/54/26
f 50/57/27 51/58/27 49/56/27
f 52/59/28 53/60/28 51/58/28
f 54/61/29 55/62/29 53/60/29
f 56/63/30 57/64/30 55/62/30
f 58/65/31 59/66/31 57/64/31
f 60/67/32 61/68/32 59/66/32
f 62/69/33 63/70/33 61/68/33
f 64/71/34 65/72/34 63/70/34
f 66/73/35 67/74/35 65/72/35
f 20/75/4 18/76/4 72/77/4
f 68/78/36 69/79/36 67/74/36
f 70/80/37 7/81/37 69/79/37
f 61/82/38 69/83/38 37/84/38
f 74/85/4 77/86/4 38/87/4
f 4/88/5 73/89/5 72/90/5
f 77/91/1 1/92/1 76/3/1
f 1/92/1 2/1/1 76/3/1
f 4/4/2 72/93/2 75/2/2
f 1/5/3 77/94/3 74/6/3
f 4/95/4 2/96/4 5/9/4
f 2/96/4 1/97/4 5/9/4
f 1/97/4 3/7/4 5/9/4
f 3/7/5 74/6/5 71/10/5
f 6/11/2 71/98/2 73/12/2
f 8/14/6 10/17/6 9/15/6
f 10/17/7 12/19/7 11/18/7
f 12/19/8 14/21/8 13/20/8
f 14/21/9 16/23/9 15/22/9
f 16/23/10 18/25/10 17/24/10
f 18/25/11 20/27/11 19/26/11
f 20/27/12 22/29/12 21/28/12
f 22/29/13 24/31/13 23/30/13
f 24/31/14 26/33/14 25/32/14
f 26/33/15 28/35/15 27/34/15
f 28/35/16 30/37/16 29/36/16
f 30/37/17 32/39/17 31/38/17
f 32/39/18 34/41/18 33/40/18
f 34/41/19 36/43/19 35/42/19
f 36/43/20 38/45/20 37/44/20
f 38/45/21 40/47/21 39/46/21
f 40/47/22 42/49/22 41/48/22
f 42/49/23 44/51/23 43/50/23
f 44/51/24 46/53/24 45/52/24
f 46/53/25 48/55/25 47/54/25
f 48/55/26 50/57/26 49/56/26
f 50/57/27 52/59/27 51/58/27
f 52/59/28 54/61/28 53/60/28
f 54/61/29 56/63/29 55/62/29
f 56/63/30 58/65/30 57/64/30
f 58/65/31 60/67/31 59/66/31
f 60/67/32 62/69/32 61/68/32
f 62/69/33 64/71/33 63/70/33
f 64/71/34 66/73/34 65/72/34
f 66/73/35 68/78/35 67/74/35
f 12/99/4 10/100/4 72/77/4
f 10/100/4 8/101/4 72/77/4
f 8/101/4 70/102/4 75/103/4
f 70/102/4 68/104/4 75/103/4
f 68/104/4 66/105/4 75/103/4
f 66/105/4 64/106/4 75/103/4
f 64/106/4 62/107/4 75/103/4
f 62/107/4 60/108/4 76/109/4
f 75/103/4 62/107/4 76/109/4
f 72/77/4 73/110/4 71/111/4
f 72/77/4 71/111/4 20/75/4
f 71/111/4 26/112/4 24/113/4
f 22/114/4 71/111/4 24/113/4
f 75/103/4 72/77/4 8/101/4
f 14/115/4 12/99/4 72/77/4
f 18/76/4 16/116/4 72/77/4
f 16/116/4 14/115/4 72/77/4
f 22/114/4 20/75/4 71/111/4
f 68/78/36 70/80/36 69/79/36
f 70/80/37 8/117/37 7/81/37
f 69/83/38 7/118/38 9/119/38
f 9/119/38 11/120/38 13/121/38
f 13/121/38 15/122/38 17/123/38
f 17/123/38 19/124/38 21/125/38
f 21/125/38 23/126/38 25/127/38
f 25/127/38 27/128/38 21/125/38
f 27/128/38 29/129/38 21/125/38
f 29/129/38 31/130/38 33/131/38
f 33/131/38 35/132/38 37/84/38
f 37/84/38 39/133/38 41/134/38
f 41/134/38 43/135/38 45/136/38
f 45/136/38 47/137/38 49/138/38
f 49/138/38 51/139/38 45/136/38
f 51/139/38 53/140/38 45/136/38
f 53/140/38 55/141/38 57/142/38
f 57/142/38 59/143/38 53/140/38
f 59/143/38 61/82/38 53/140/38
f 61/82/38 63/144/38 69/83/38
f 63/144/38 65/145/38 69/83/38
f 65/145/38 67/146/38 69/83/38
f 69/83/38 9/119/38 13/121/38
f 13/121/38 17/123/38 69/83/38
f 17/123/38 21/125/38 69/83/38
f 29/129/38 33/131/38 37/84/38
f 37/84/38 41/134/38 45/136/38
f 21/125/38 29/129/38 69/83/38
f 29/129/38 37/84/38 69/83/38
f 37/84/38 45/136/38 53/140/38
f 53/140/38 61/82/38 37/84/38
f 28/147/4 26/112/4 71/111/4
f 28/147/4 71/111/4 74/85/4
f 32/148/4 30/149/4 74/85/4
f 30/149/4 28/147/4 74/85/4
f 36/150/4 34/151/4 74/85/4
f 34/151/4 32/148/4 74/85/4
f 40/152/4 38/87/4 77/86/4
f 38/87/4 36/150/4 74/85/4
f 44/153/4 42/154/4 77/86/4
f 42/154/4 40/152/4 77/86/4
f 48/155/4 46/156/4 77/86/4
f 46/156/4 44/153/4 77/86/4
f 52/157/4 50/158/4 77/86/4
f 50/158/4 48/155/4 77/86/4
f 56/159/4 54/160/4 76/109/4
f 54/160/4 52/157/4 77/86/4
f 60/108/4 58/161/4 76/109/4
f 58/161/4 56/159/4 76/109/4
f 77/86/4 76/109/4 54/160/4
f 4/88/5 5/162/5 73/89/5
