# Blender v2.82 (sub 7) OBJ File: 'pegs_test.blend'
# www.blender.org
mtllib square_leg.mtl
o slot_square_leg
v 0.007981 -0.008071 0.009000
v -0.005079 -0.008071 0.009000
v -0.005079 0.008071 0.009000
v -0.005079 -0.003995 0.009000
v 0.007981 0.008071 0.009000
v -0.009560 0.003995 0.009000
v 0.005532 0.008071 0.009000
v -0.005079 0.003995 0.009000
v -0.009560 -0.003995 0.009000
v -0.017000 0.000000 0.000000
v -0.017000 0.000000 0.030000
v -0.016673 0.003317 0.000000
v -0.016673 0.003317 0.030000
v -0.015706 0.006506 0.000000
v -0.015706 0.006506 0.030000
v -0.014135 0.009445 0.000000
v -0.014135 0.009445 0.030000
v -0.012021 0.012021 0.000000
v -0.012021 0.012021 0.030000
v -0.009445 0.014135 0.000000
v -0.009445 0.014135 0.030000
v -0.006506 0.015706 0.000000
v -0.006506 0.015706 0.030000
v -0.003317 0.016673 0.000000
v -0.003317 0.016673 0.030000
v -0.000000 0.017000 0.000000
v -0.000000 0.017000 0.030000
v 0.003317 0.016673 0.000000
v 0.003317 0.016673 0.030000
v 0.006506 0.015706 0.000000
v 0.006506 0.015706 0.030000
v 0.009445 0.014135 0.000000
v 0.009445 0.014135 0.030000
v 0.012021 0.012021 0.000000
v 0.012021 0.012021 0.030000
v 0.014135 0.009445 0.000000
v 0.014135 0.009445 0.030000
v 0.015706 0.006506 0.000000
v 0.015706 0.006506 0.030000
v 0.016673 0.003317 0.000000
v 0.016673 0.003317 0.030000
v 0.017000 -0.000000 0.000000
v 0.017000 -0.000000 0.030000
v 0.016673 -0.003317 0.000000
v 0.016673 -0.003317 0.030000
v 0.015706 -0.006506 0.000000
v 0.015706 -0.006506 0.030000
v 0.014135 -0.009445 0.000000
v 0.014135 -0.009445 0.030000
v 0.012021 -0.012021 0.000000
v 0.012021 -0.012021 0.030000
v 0.009445 -0.014135 0.000000
v 0.009445 -0.014135 0.030000
v 0.006506 -0.015706 0.000000
v 0.006506 -0.015706 0.030000
v 0.003317 -0.016673 0.000000
v 0.003317 -0.016673 0.030000
v -0.000000 -0.017000 0.000000
v -0.000000 -0.017000 0.030000
v -0.003317 -0.016673 0.000000
v -0.003317 -0.016673 0.030000
v -0.006506 -0.015706 0.000000
v -0.006506 -0.015706 0.030000
v -0.009445 -0.014135 0.000000
v -0.009445 -0.014135 0.030000
v -0.012021 -0.012021 0.000000
v -0.012021 -0.012021 0.030000
v -0.014135 -0.009445 0.000000
v -0.014135 -0.009445 0.030000
v -0.015706 -0.006506 0.000000
v -0.015706 -0.006506 0.030000
v -0.016673 -0.003317 0.000000
v -0.016673 -0.003317 0.030000
v -0.009560 -0.003995 0.030000
v -0.005079 -0.003995 0.030000
v -0.005079 0.003995 0.030000
v -0.005079 0.008071 0.030000
v -0.009560 0.003995 0.030000
v -0.005079 -0.008071 0.030000
v 0.007981 -0.008071 0.030000
v 0.007981 0.008071 0.030000
vt 0.045450 0.687500
vt 0.250000 0.750000
vt 0.250000 0.687500
vt 0.500000 0.750000
vt 0.500000 0.687500
vt 0.538353 0.687500
vt 0.704550 0.750000
vt 0.468750 0.250000
vt 0.500000 0.104044
vt 0.468750 0.104044
vt 0.338388 0.686269
vt 0.293750 0.568750
vt 0.206250 0.568750
vt 0.468750 0.500000
vt 0.500000 0.250000
vt 1.000000 1.000000
vt 0.968750 0.500000
vt 1.000000 0.500000
vt 0.968750 1.000000
vt 0.937500 0.500000
vt 0.937500 1.000000
vt 0.906250 0.500000
vt 0.906250 1.000000
vt 0.875000 0.500000
vt 0.875000 1.000000
vt 0.843750 0.500000
vt 0.843750 1.000000
vt 0.812500 0.500000
vt 0.812500 1.000000
vt 0.781250 0.500000
vt 0.781250 1.000000
vt 0.750000 0.500000
vt 0.750000 1.000000
vt 0.718750 0.500000
vt 0.718750 1.000000
vt 0.687500 0.500000
vt 0.687500 1.000000
vt 0.656250 0.500000
vt 0.656250 1.000000
vt 0.625000 0.500000
vt 0.625000 1.000000
vt 0.593750 0.500000
vt 0.593750 1.000000
vt 0.562500 0.500000
vt 0.562500 1.000000
vt 0.531250 0.500000
vt 0.531250 1.000000
vt 0.500000 0.500000
vt 0.500000 1.000000
vt 0.468750 0.500000
vt 0.468750 1.000000
vt 0.437500 0.500000
vt 0.437500 1.000000
vt 0.406250 0.500000
vt 0.406250 1.000000
vt 0.375000 0.500000
vt 0.375000 1.000000
vt 0.343750 0.500000
vt 0.343750 1.000000
vt 0.312500 0.500000
vt 0.312500 1.000000
vt 0.281250 0.500000
vt 0.281250 1.000000
vt 0.250000 0.500000
vt 0.250000 1.000000
vt 0.218750 0.500000
vt 0.218750 1.000000
vt 0.187500 0.500000
vt 0.187500 1.000000
vt 0.156250 0.500000
vt 0.156250 1.000000
vt 0.125000 0.500000
vt 0.125000 1.000000
vt 0.093750 0.500000
vt 0.093750 1.000000
vt 0.062500 0.500000
vt 0.250000 0.490000
vt 0.193600 0.384965
vt 0.306400 0.384965
vt 0.062500 1.000000
vt 0.031250 0.500000
vt 0.031250 1.000000
vt 0.000000 0.500000
vt 0.796822 0.014612
vt 0.514611 0.203179
vt 0.703179 0.485389
vt 0.484375 0.831250
vt 0.500000 0.786612
vt 0.500000 0.831250
vt 0.158156 0.028269
vt 0.203178 0.014612
vt 0.136056 0.137326
vt 0.484375 0.963388
vt 0.500000 0.918750
vt 0.500000 0.963388
vt 0.500000 0.645956
vt 0.500000 0.500000
vt 0.045450 0.750000
vt 0.704550 0.687500
vt 0.161612 0.568750
vt 0.161612 0.713388
vt 0.338388 0.713388
vt 0.338388 0.568750
vt 0.293750 0.519125
vt 0.206250 0.519125
vt 0.341844 0.471731
vt 0.296822 0.485388
vt 0.203179 0.485389
vt 0.158156 0.471731
vt 0.116663 0.449553
vt 0.080295 0.419706
vt 0.050447 0.383337
vt 0.136056 0.321705
vt 0.028269 0.341844
vt 0.014612 0.296822
vt 0.010000 0.250000
vt 0.014612 0.203179
vt 0.028269 0.158156
vt 0.050447 0.116663
vt 0.193600 0.321705
vt 0.419706 0.419706
vt 0.383337 0.449553
vt 0.471731 0.341844
vt 0.449553 0.383337
vt 0.363944 0.321705
vt 0.306400 0.321705
vt 0.000000 1.000000
vt 0.750000 0.490000
vt 0.796822 0.485388
vt 0.841844 0.471731
vt 0.883337 0.449553
vt 0.919706 0.419706
vt 0.949553 0.383337
vt 0.971731 0.341844
vt 0.985388 0.296822
vt 0.990000 0.250000
vt 0.985388 0.203178
vt 0.971731 0.158156
vt 0.949553 0.116663
vt 0.919706 0.080294
vt 0.883337 0.050447
vt 0.841844 0.028269
vt 0.750000 0.010000
vt 0.703178 0.014612
vt 0.658156 0.028269
vt 0.616663 0.050447
vt 0.580294 0.080294
vt 0.550447 0.116663
vt 0.528269 0.158156
vt 0.510000 0.250000
vt 0.550447 0.383337
vt 0.514612 0.296822
vt 0.528269 0.341844
vt 0.580295 0.419706
vt 0.616663 0.449553
vt 0.658156 0.471731
vt 0.484375 0.786612
vt 0.485388 0.296822
vt 0.363944 0.137326
vt 0.250000 0.010000
vt 0.080294 0.080294
vt 0.116663 0.050447
vt 0.490000 0.250000
vt 0.485388 0.203178
vt 0.449553 0.116663
vt 0.471731 0.158156
vt 0.383337 0.050447
vt 0.419706 0.080294
vt 0.296822 0.014612
vt 0.341844 0.028269
vt 0.484375 0.918750
vt 0.468750 0.645956
vn 0.0000 1.0000 0.0000
vn -1.0000 0.0000 0.0000
vn -0.0000 -1.0000 0.0000
vn -0.0000 0.0000 1.0000
vn 1.0000 0.0000 0.0000
vn -0.9952 0.0980 0.0000
vn -0.9569 0.2903 0.0000
vn -0.8819 0.4714 0.0000
vn -0.7730 0.6344 0.0000
vn -0.6344 0.7730 0.0000
vn -0.4714 0.8819 0.0000
vn -0.2903 0.9569 0.0000
vn -0.0980 0.9952 0.0000
vn 0.0980 0.9952 0.0000
vn 0.2903 0.9569 0.0000
vn 0.4714 0.8819 0.0000
vn 0.6344 0.7730 0.0000
vn 0.7730 0.6344 0.0000
vn 0.8819 0.4714 0.0000
vn 0.9569 0.2903 0.0000
vn 0.9952 0.0980 0.0000
vn 0.9952 -0.0980 0.0000
vn 0.9569 -0.2903 0.0000
vn 0.8819 -0.4714 0.0000
vn 0.7730 -0.6344 0.0000
vn 0.6344 -0.7730 0.0000
vn 0.4714 -0.8819 0.0000
vn 0.2903 -0.9569 0.0000
vn 0.0980 -0.9952 0.0000
vn -0.0980 -0.9952 0.0000
vn -0.2903 -0.9569 0.0000
vn -0.4714 -0.8819 0.0000
vn -0.6344 -0.7730 0.0000
vn -0.7730 -0.6344 0.0000
vn -0.8819 -0.4714 0.0000
vn -0.9569 -0.2903 0.0000
vn -0.9952 -0.0980 0.0000
vn 0.0000 0.0000 -1.0000
usemtl None
s off
f 2/1/1 80/2/1 1/3/1
f 1/3/2 81/4/2 5/5/2
f 7/6/3 81/4/3 77/7/3
f 9/8/1 75/9/1 4/10/1
f 7/11/4 8/12/4 4/13/4
f 6/14/5 74/15/5 9/8/5
f 11/16/6 12/17/6 10/18/6
f 13/19/7 14/20/7 12/17/7
f 15/21/8 16/22/8 14/20/8
f 17/23/9 18/24/9 16/22/9
f 19/25/10 20/26/10 18/24/10
f 21/27/11 22/28/11 20/26/11
f 23/29/12 24/30/12 22/28/12
f 25/31/13 26/32/13 24/30/13
f 27/33/14 28/34/14 26/32/14
f 29/35/15 30/36/15 28/34/15
f 31/37/16 32/38/16 30/36/16
f 33/39/17 34/40/17 32/38/17
f 35/41/18 36/42/18 34/40/18
f 37/43/19 38/44/19 36/42/19
f 39/45/20 40/46/20 38/44/20
f 41/47/21 42/48/21 40/46/21
f 43/49/22 44/50/22 42/48/22
f 45/51/23 46/52/23 44/50/23
f 47/53/24 48/54/24 46/52/24
f 49/55/25 50/56/25 48/54/25
f 51/57/26 52/58/26 50/56/26
f 53/59/27 54/60/27 52/58/27
f 55/61/28 56/62/28 54/60/28
f 57/63/29 58/64/29 56/62/29
f 59/65/30 60/66/30 58/64/30
f 61/67/31 62/68/31 60/66/31
f 63/69/32 64/70/32 62/68/32
f 65/71/33 66/72/33 64/70/33
f 67/73/34 68/74/34 66/72/34
f 69/75/35 70/76/35 68/74/35
f 11/77/4 74/78/4 78/79/4
f 71/80/36 72/81/36 70/76/36
f 73/82/37 10/83/37 72/81/37
f 40/84/38 56/85/38 72/86/38
f 8/87/5 77/88/5 76/89/5
f 47/90/4 45/91/4 80/92/4
f 2/93/5 75/94/5 79/95/5
f 6/14/3 76/96/3 78/97/3
f 2/1/1 79/98/1 80/2/1
f 1/3/2 80/2/2 81/4/2
f 77/7/3 3/99/3 7/6/3
f 7/6/3 5/5/3 81/4/3
f 9/8/1 74/15/1 75/9/1
f 4/13/4 2/100/4 1/101/4
f 1/101/4 5/102/4 7/11/4
f 7/11/4 3/103/4 8/12/4
f 8/12/4 6/104/4 4/13/4
f 6/104/4 9/105/4 4/13/4
f 4/13/4 1/101/4 7/11/4
f 6/14/5 78/97/5 74/15/5
f 11/16/6 13/19/6 12/17/6
f 13/19/7 15/21/7 14/20/7
f 15/21/8 17/23/8 16/22/8
f 17/23/9 19/25/9 18/24/9
f 19/25/10 21/27/10 20/26/10
f 21/27/11 23/29/11 22/28/11
f 23/29/12 25/31/12 24/30/12
f 25/31/13 27/33/13 26/32/13
f 27/33/14 29/35/14 28/34/14
f 29/35/15 31/37/15 30/36/15
f 31/37/16 33/39/16 32/38/16
f 33/39/17 35/41/17 34/40/17
f 35/41/18 37/43/18 36/42/18
f 37/43/19 39/45/19 38/44/19
f 39/45/20 41/47/20 40/46/20
f 41/47/21 43/49/21 42/48/21
f 43/49/22 45/51/22 44/50/22
f 45/51/23 47/53/23 46/52/23
f 47/53/24 49/55/24 48/54/24
f 49/55/25 51/57/25 50/56/25
f 51/57/26 53/59/26 52/58/26
f 53/59/27 55/61/27 54/60/27
f 55/61/28 57/63/28 56/62/28
f 57/63/29 59/65/29 58/64/29
f 59/65/30 61/67/30 60/66/30
f 61/67/31 63/69/31 62/68/31
f 63/69/32 65/71/32 64/70/32
f 65/71/33 67/73/33 66/72/33
f 67/73/34 69/75/34 68/74/34
f 69/75/35 71/80/35 70/76/35
f 15/106/4 13/107/4 78/79/4
f 13/107/4 11/77/4 78/79/4
f 11/77/4 73/108/4 74/78/4
f 73/108/4 71/109/4 74/78/4
f 71/109/4 69/110/4 74/78/4
f 69/110/4 67/111/4 74/78/4
f 67/111/4 65/112/4 79/113/4
f 65/112/4 63/114/4 79/113/4
f 63/114/4 61/115/4 79/113/4
f 61/115/4 59/116/4 79/113/4
f 59/116/4 57/117/4 79/113/4
f 57/117/4 55/118/4 80/92/4
f 79/113/4 57/117/4 80/92/4
f 55/118/4 53/119/4 80/92/4
f 79/113/4 75/120/4 74/78/4
f 74/78/4 67/111/4 79/113/4
f 19/121/4 17/122/4 78/79/4
f 17/122/4 15/106/4 78/79/4
f 23/123/4 21/124/4 77/125/4
f 21/124/4 19/121/4 77/125/4
f 76/126/4 77/125/4 78/79/4
f 78/79/4 77/125/4 19/121/4
f 71/80/36 73/82/36 72/81/36
f 73/82/37 11/127/37 10/83/37
f 72/86/38 10/128/38 12/129/38
f 12/129/38 14/130/38 72/86/38
f 14/130/38 16/131/38 72/86/38
f 16/131/38 18/132/38 20/133/38
f 20/133/38 22/134/38 24/135/38
f 24/135/38 26/136/38 28/137/38
f 28/137/38 30/138/38 24/135/38
f 30/138/38 32/139/38 24/135/38
f 32/139/38 34/140/38 36/141/38
f 36/141/38 38/142/38 40/84/38
f 40/84/38 42/143/38 44/144/38
f 44/144/38 46/145/38 40/84/38
f 46/145/38 48/146/38 40/84/38
f 48/146/38 50/147/38 52/148/38
f 52/148/38 54/149/38 56/85/38
f 56/85/38 58/150/38 64/151/38
f 58/150/38 60/152/38 64/151/38
f 60/152/38 62/153/38 64/151/38
f 64/151/38 66/154/38 72/86/38
f 66/154/38 68/155/38 72/86/38
f 68/155/38 70/156/38 72/86/38
f 16/131/38 20/133/38 72/86/38
f 20/133/38 24/135/38 72/86/38
f 32/139/38 36/141/38 40/84/38
f 48/146/38 52/148/38 56/85/38
f 24/135/38 32/139/38 40/84/38
f 40/84/38 48/146/38 56/85/38
f 56/85/38 64/151/38 72/86/38
f 72/86/38 24/135/38 40/84/38
f 8/87/5 3/157/5 77/88/5
f 25/158/4 23/123/4 77/125/4
f 81/159/4 80/92/4 43/160/4
f 80/92/4 53/119/4 51/161/4
f 49/162/4 80/92/4 51/161/4
f 25/158/4 77/125/4 27/163/4
f 77/125/4 81/159/4 29/164/4
f 29/164/4 27/163/4 77/125/4
f 33/165/4 31/166/4 81/159/4
f 31/166/4 29/164/4 81/159/4
f 37/167/4 35/168/4 81/159/4
f 35/168/4 33/165/4 81/159/4
f 41/169/4 39/170/4 81/159/4
f 39/170/4 37/167/4 81/159/4
f 45/91/4 43/160/4 80/92/4
f 43/160/4 41/169/4 81/159/4
f 49/162/4 47/90/4 80/92/4
f 2/93/5 4/171/5 75/94/5
f 6/14/3 8/172/3 76/96/3
