# Blender v2.80 (sub 75) OBJ File: ''
# www.blender.org
mtllib bin-deep012.mtl
o Cube_Cube.006
v -0.085000 -0.000000 0.085000
v -0.085000 -0.015000 -0.085000
v -0.085000 -0.015000 0.085000
v -0.085000 0.000000 -0.085000
v 0.085000 -0.015000 -0.085000
v 0.085000 0.000000 -0.085000
v 0.085000 -0.015000 0.085000
v 0.085000 -0.000000 0.085000
v -0.085000 0.120000 -0.080000
v -0.085000 0.000000 -0.085000
v -0.085000 0.000000 -0.080000
v -0.085000 0.120000 -0.085000
v 0.085000 0.000000 -0.085000
v 0.085000 0.120000 -0.085000
v 0.085000 0.000000 -0.080000
v 0.085000 0.120000 -0.080000
v -0.085000 0.120000 0.085000
v -0.085000 -0.000000 0.080000
v -0.085000 -0.000000 0.085000
v -0.085000 0.120000 0.080000
v 0.085000 -0.000000 0.080000
v 0.085000 0.120000 0.080000
v 0.085000 -0.000000 0.085000
v 0.085000 0.120000 0.085000
v 0.080000 0.120000 0.080000
v 0.080000 0.000000 -0.080000
v 0.080000 -0.000000 0.080000
v 0.080000 0.120000 -0.080000
v 0.085000 0.000000 -0.080000
v 0.085000 0.120000 -0.080000
v 0.085000 -0.000000 0.080000
v 0.085000 0.120000 0.080000
v -0.085000 0.120000 0.080000
v -0.085000 0.000000 -0.080000
v -0.085000 -0.000000 0.080000
v -0.085000 0.120000 -0.080000
v -0.080000 0.000000 -0.080000
v -0.080000 0.120000 -0.080000
v -0.080000 -0.000000 0.080000
v -0.080000 0.120000 0.080000
vt 0.625000 0.000000
vt 0.375000 0.250000
vt 0.375000 0.000000
vt 0.625000 0.250000
vt 0.375000 0.500000
vt 0.625000 0.500000
vt 0.375000 0.750000
vt 0.625000 0.750000
vt 0.375000 1.000000
vt 0.125000 0.750000
vt 0.125000 0.500000
vt 0.875000 0.500000
vt 0.625000 0.000000
vt 0.375000 0.250000
vt 0.375000 0.000000
vt 0.625000 0.250000
vt 0.375000 0.500000
vt 0.625000 0.500000
vt 0.375000 0.750000
vt 0.625000 0.750000
vt 0.375000 1.000000
vt 0.125000 0.750000
vt 0.125000 0.500000
vt 0.875000 0.500000
vt 0.625000 0.000000
vt 0.375000 0.250000
vt 0.375000 0.000000
vt 0.625000 0.250000
vt 0.375000 0.500000
vt 0.625000 0.500000
vt 0.375000 0.750000
vt 0.625000 0.750000
vt 0.375000 1.000000
vt 0.125000 0.750000
vt 0.125000 0.500000
vt 0.875000 0.500000
vt 0.625000 0.000000
vt 0.375000 0.250000
vt 0.375000 0.000000
vt 0.625000 0.250000
vt 0.375000 0.500000
vt 0.625000 0.500000
vt 0.375000 0.750000
vt 0.625000 0.750000
vt 0.375000 1.000000
vt 0.125000 0.750000
vt 0.125000 0.500000
vt 0.875000 0.500000
vt 0.625000 0.000000
vt 0.375000 0.250000
vt 0.375000 0.000000
vt 0.625000 0.250000
vt 0.375000 0.500000
vt 0.625000 0.500000
vt 0.375000 0.750000
vt 0.625000 0.750000
vt 0.375000 1.000000
vt 0.125000 0.750000
vt 0.125000 0.500000
vt 0.875000 0.500000
vt 0.625000 1.000000
vt 0.875000 0.750000
vt 0.625000 1.000000
vt 0.875000 0.750000
vt 0.625000 1.000000
vt 0.875000 0.750000
vt 0.625000 1.000000
vt 0.875000 0.750000
vt 0.625000 1.000000
vt 0.875000 0.750000
vn -1.0000 0.0000 0.0000
vn 0.0000 0.0000 -1.0000
vn 1.0000 0.0000 0.0000
vn 0.0000 0.0000 1.0000
vn 0.0000 -1.0000 -0.0000
vn 0.0000 1.0000 0.0000
usemtl None
s 1
f 1/1/1 2/2/1 3/3/1
f 4/4/2 5/5/2 2/2/2
f 6/6/3 7/7/3 5/5/3
f 8/8/4 3/9/4 7/7/4
f 5/5/5 3/10/5 2/11/5
f 4/12/6 8/8/6 6/6/6
f 9/13/1 10/14/1 11/15/1
f 12/16/2 13/17/2 10/14/2
f 14/18/3 15/19/3 13/17/3
f 16/20/4 11/21/4 15/19/4
f 13/17/5 11/22/5 10/23/5
f 12/24/6 16/20/6 14/18/6
f 17/25/1 18/26/1 19/27/1
f 20/28/2 21/29/2 18/26/2
f 22/30/3 23/31/3 21/29/3
f 24/32/4 19/33/4 23/31/4
f 21/29/5 19/34/5 18/35/5
f 20/36/6 24/32/6 22/30/6
f 25/37/1 26/38/1 27/39/1
f 28/40/2 29/41/2 26/38/2
f 30/42/3 31/43/3 29/41/3
f 32/44/4 27/45/4 31/43/4
f 29/41/5 27/46/5 26/47/5
f 28/48/6 32/44/6 30/42/6
f 33/49/1 34/50/1 35/51/1
f 36/52/2 37/53/2 34/50/2
f 38/54/3 39/55/3 37/53/3
f 40/56/4 35/57/4 39/55/4
f 37/53/5 35/58/5 34/59/5
f 36/60/6 40/56/6 38/54/6
f 1/1/1 4/4/1 2/2/1
f 4/4/2 6/6/2 5/5/2
f 6/6/3 8/8/3 7/7/3
f 8/8/4 1/61/4 3/9/4
f 5/5/5 7/7/5 3/10/5
f 4/12/6 1/62/6 8/8/6
f 9/13/1 12/16/1 10/14/1
f 12/16/2 14/18/2 13/17/2
f 14/18/3 16/20/3 15/19/3
f 16/20/4 9/63/4 11/21/4
f 13/17/5 15/19/5 11/22/5
f 12/24/6 9/64/6 16/20/6
f 17/25/1 20/28/1 18/26/1
f 20/28/2 22/30/2 21/29/2
f 22/30/3 24/32/3 23/31/3
f 24/32/4 17/65/4 19/33/4
f 21/29/5 23/31/5 19/34/5
f 20/36/6 17/66/6 24/32/6
f 25/37/1 28/40/1 26/38/1
f 28/40/2 30/42/2 29/41/2
f 30/42/3 32/44/3 31/43/3
f 32/44/4 25/67/4 27/45/4
f 29/41/5 31/43/5 27/46/5
f 28/48/6 25/68/6 32/44/6
f 33/49/1 36/52/1 34/50/1
f 36/52/2 38/54/2 37/53/2
f 38/54/3 40/56/3 39/55/3
f 40/56/4 33/69/4 35/57/4
f 37/53/5 39/55/5 35/58/5
f 36/60/6 33/70/6 40/56/6
