# Blender v2.80 (sub 75) OBJ File: 'untitled.blend'
# www.blender.org
mtllib bin5.mtl
o Cube_Cube.002
v -0.080000 0.000300 0.080000
v -0.080000 0.040300 0.080000
v -0.080000 0.040300 -0.080000
v -0.080000 0.000300 -0.080000
v 0.080000 0.040300 -0.080000
v 0.080000 0.000300 -0.080000
v 0.080000 0.040300 0.080000
v 0.080000 0.000300 0.080000
v 0.073361 0.040300 0.073361
v 0.073361 0.040300 -0.073361
v 0.073361 0.003491 -0.073361
v 0.073361 0.003491 0.073361
v -0.073361 0.040300 0.073361
v -0.073361 0.040300 -0.073361
v -0.073361 0.003491 -0.073361
v -0.073361 0.003491 0.073361
vt 0.375000 0.000000
vt 0.625000 0.000000
vt 0.625000 0.250000
vt 0.375000 0.250000
vt 0.625000 0.500000
vt 0.375000 0.500000
vt 0.625000 0.750000
vt 0.375000 0.750000
vt 0.625000 1.000000
vt 0.375000 1.000000
vt 0.125000 0.500000
vt 0.125000 0.750000
vt 0.635373 0.739627
vt 0.635373 0.510373
vt 0.635373 0.510373
vt 0.635373 0.739627
vt 0.864627 0.739627
vt 0.864627 0.510373
vt 0.875000 0.500000
vt 0.875000 0.750000
vt 0.864627 0.510373
vt 0.864627 0.739627
vn -1.0000 0.0000 0.0000
vn 0.0000 0.0000 -1.0000
vn 1.0000 0.0000 0.0000
vn 0.0000 0.0000 1.0000
vn 0.0000 -1.0000 -0.0000
vn 0.0000 1.0000 0.0000
usemtl None
s 1
f 1/1/1 2/2/1 3/3/1 4/4/1
f 4/4/2 3/3/2 5/5/2 6/6/2
f 6/6/3 5/5/3 7/7/3 8/8/3
f 8/8/4 7/7/4 2/9/4 1/10/4
f 4/11/5 6/6/5 8/8/5 1/12/5
f 9/13/1 10/14/1 11/15/1 12/16/1
f 13/17/6 14/18/6 3/19/6 2/20/6
f 14/18/6 10/14/6 5/5/6 3/19/6
f 10/14/6 9/13/6 7/7/6 5/5/6
f 9/13/6 13/17/6 2/20/6 7/7/6
f 11/15/6 15/21/6 16/22/6 12/16/6
f 14/18/3 13/17/3 16/22/3 15/21/3
f 13/17/2 9/13/2 12/16/2 16/22/2
f 10/14/4 14/18/4 15/21/4 11/15/4
