# Blender v2.81 (sub 16) OBJ File: ''
# www.blender.org
mtllib 0201_CAP.mtl
o 0201_CAP
v 0.000752 -0.015005 0.014644
v 0.000642 -0.014979 0.014751
v 0.000642 -0.015017 0.014644
v 0.000752 -0.015017 0.014535
v 0.000858 -0.014979 0.014535
v 0.000796 -0.014931 0.014786
v 0.000894 -0.014931 0.014688
v 0.000642 -0.015029 0.014535
v 0.001131 -0.014617 0.014570
v 0.001125 -0.014644 0.014535
v 0.001137 -0.014534 0.014535
v 0.001125 -0.014534 0.014644
v 0.001092 -0.014662 0.014697
v 0.001089 -0.014748 0.014535
v 0.001089 -0.014534 0.014751
v 0.001072 -0.014777 0.014576
v 0.001030 -0.014842 0.014535
v 0.001021 -0.014685 0.014816
v 0.001030 -0.014534 0.014845
v 0.001015 -0.014813 0.014703
v 0.000924 -0.014685 0.014914
v 0.000950 -0.014534 0.014922
v 0.000858 -0.014534 0.014982
v 0.000965 -0.014908 0.014573
v 0.000950 -0.014922 0.014535
v 0.000927 -0.014825 0.014819
v 0.000805 -0.014662 0.014985
v 0.000642 -0.014644 0.015017
v 0.000642 -0.014748 0.014982
v 0.000752 -0.014534 0.015017
v 0.000811 -0.014813 0.014908
v 0.000642 -0.014842 0.014922
v 0.000678 -0.014617 0.015023
v 0.000642 -0.014534 0.015032
v 0.000642 -0.014922 0.014845
v 0.000752 -0.014534 -0.014674
v 0.000642 -0.014644 -0.014674
v 0.000642 -0.014534 -0.014688
v 0.000707 -0.014680 -0.014662
v 0.000642 -0.014748 -0.014638
v 0.000858 -0.014534 -0.014638
v 0.000740 -0.014825 -0.014582
v 0.000642 -0.014922 -0.014502
v 0.000642 -0.014842 -0.014579
v 0.000749 -0.014940 -0.014457
v 0.000642 -0.014979 -0.014407
v 0.000847 -0.014739 -0.014594
v 0.000743 -0.015005 -0.014301
v 0.000858 -0.014979 -0.014191
v 0.000752 -0.015017 -0.014191
v 0.000642 -0.015029 -0.014191
v 0.000642 -0.015017 -0.014301
v 0.000870 -0.014866 -0.014481
v 0.000932 -0.014632 -0.014582
v 0.000950 -0.014534 -0.014579
v 0.001030 -0.014534 -0.014502
v 0.000867 -0.014952 -0.014336
v 0.000950 -0.014922 -0.014191
v 0.000974 -0.014762 -0.014481
v 0.000974 -0.014866 -0.014348
v 0.001030 -0.014842 -0.014191
v 0.001048 -0.014638 -0.014457
v 0.001089 -0.014534 -0.014407
v 0.001060 -0.014757 -0.014336
v 0.001089 -0.014748 -0.014191
v 0.001116 -0.014632 -0.014301
v 0.001137 -0.014534 -0.014191
v 0.001125 -0.014644 -0.014191
v 0.001125 -0.014534 -0.014301
v -0.003814 -0.014644 -0.014674
v -0.003814 -0.014534 -0.014688
v -0.003814 -0.014748 -0.014638
v -0.003814 -0.014842 -0.014579
v -0.003814 -0.014922 -0.014502
v -0.003814 -0.014979 -0.014407
v -0.003814 -0.015017 -0.014301
v -0.003814 -0.015029 -0.014191
v 0.000642 0.014677 0.014644
v 0.000752 0.014677 0.014535
v 0.000642 0.014688 0.014535
v 0.000932 0.014582 0.014632
v 0.001030 0.014502 0.014535
v 0.000950 0.014582 0.014535
v 0.000858 0.014638 0.014535
v 0.000707 0.014662 0.014683
v 0.000642 0.014638 0.014751
v 0.001048 0.014458 0.014641
v 0.001089 0.014407 0.014535
v 0.000847 0.014594 0.014742
v 0.001116 0.014301 0.014635
v 0.001089 0.014194 0.014751
v 0.001125 0.014194 0.014644
v 0.001137 0.014194 0.014535
v 0.001125 0.014304 0.014535
v 0.000974 0.014481 0.014763
v 0.000740 0.014582 0.014825
v 0.000642 0.014582 0.014845
v 0.000642 0.014502 0.014922
v 0.001060 0.014336 0.014760
v 0.001030 0.014194 0.014845
v 0.000870 0.014481 0.014866
v 0.000974 0.014348 0.014869
v 0.000950 0.014194 0.014922
v 0.000749 0.014458 0.014940
v 0.000642 0.014407 0.014982
v 0.000867 0.014336 0.014955
v 0.000858 0.014194 0.014982
v 0.000743 0.014301 0.015008
v 0.000642 0.014194 0.015032
v 0.000752 0.014194 0.015017
v 0.000642 0.014304 0.015017
v 0.001042 0.014446 -0.014345
v 0.001042 0.014348 -0.014443
v 0.000935 0.014475 -0.014475
v 0.000924 0.014567 -0.014360
v 0.000885 0.014623 -0.014232
v 0.000858 0.014638 -0.014191
v 0.000950 0.014582 -0.014191
v 0.000770 0.014644 -0.014354
v 0.001113 0.014301 -0.014301
v 0.001137 0.014194 -0.014191
v 0.001125 0.014194 -0.014301
v 0.001089 0.014194 -0.014407
v 0.001089 0.014407 -0.014191
v 0.001125 0.014304 -0.014191
v 0.001018 0.014514 -0.014229
v 0.001030 0.014502 -0.014191
v 0.000725 0.014230 -0.014680
v 0.000752 0.014194 -0.014674
v 0.000642 0.014194 -0.014688
v 0.000642 0.014304 -0.014674
v 0.000770 0.014357 -0.014641
v 0.000858 0.014194 -0.014638
v 0.000642 0.014407 -0.014638
v 0.000885 0.014233 -0.014620
v 0.000950 0.014194 -0.014579
v 0.000793 0.014472 -0.014570
v 0.000642 0.014502 -0.014579
v 0.000924 0.014363 -0.014564
v 0.000793 0.014573 -0.014472
v 0.000642 0.014582 -0.014502
v 0.000642 0.014638 -0.014407
v 0.001018 0.014230 -0.014514
v 0.001030 0.014194 -0.014502
v 0.000642 0.014677 -0.014301
v 0.000752 0.014677 -0.014191
v 0.000725 0.014680 -0.014227
v 0.000642 0.014688 -0.014191
v -0.003814 0.014194 -0.014688
v -0.003814 0.014304 -0.014674
v -0.003814 0.014407 -0.014638
v -0.003814 0.014502 -0.014579
v -0.003814 0.014582 -0.014502
v -0.003814 0.014638 -0.014407
v -0.003814 0.014677 -0.014301
v -0.003814 0.014688 -0.014191
v -0.003814 0.014304 0.015017
v -0.003814 0.014194 0.015032
v -0.003814 0.014407 0.014982
v -0.003814 0.014502 0.014922
v -0.003814 0.014582 0.014845
v -0.003814 0.014638 0.014751
v -0.003814 0.014677 0.014644
v -0.003814 0.014688 0.014535
v -0.003814 -0.014534 0.015032
v -0.003814 -0.014644 0.015017
v -0.003814 -0.014748 0.014982
v -0.003814 -0.014842 0.014922
v -0.003814 -0.014922 0.014845
v -0.003814 -0.014979 0.014751
v -0.003814 -0.015017 0.014644
v -0.003814 -0.015029 0.014535
vn 0.1085 -0.9382 0.3285
vn 0.3285 -0.9382 0.1086
vn 0.1865 -0.8983 0.3978
vn 0.1094 -0.9880 0.1094
vn 0.1102 -0.9878 0.1102
vn 0.3978 -0.8983 0.1865
vn 0.3388 -0.8778 0.3387
vn 0.1110 -0.9876 0.1110
vn 0.9934 -0.1119 -0.0269
vn 0.9924 -0.0517 0.1118
vn 0.9308 -0.3309 0.1555
vn 0.9315 -0.3292 0.1545
vn 0.9327 -0.3265 0.1531
vn 0.9384 -0.1072 0.3285
vn 0.9277 -0.3418 0.1502
vn 0.9616 -0.1548 0.2268
vn 0.8464 -0.5319 -0.0266
vn 0.9304 -0.3317 0.1558
vn 0.8380 -0.1439 0.5264
vn 0.8588 -0.1721 0.4826
vn 0.8635 -0.4318 0.2606
vn 0.8175 -0.4025 0.4120
vn 0.7758 -0.6068 0.1730
vn 0.6970 -0.1680 0.6971
vn 0.6971 -0.1680 0.6970
vn 0.5264 -0.1439 0.8380
vn 0.6971 -0.1680 0.6971
vn 0.5294 -0.8428 0.0971
vn 0.7071 -0.7071 -0.0068
vn 0.7072 -0.7069 -0.0066
vn 0.7072 -0.7070 -0.0048
vn 0.7457 -0.6425 0.1765
vn 0.6392 -0.4276 0.6392
vn 0.7147 -0.4811 0.5077
vn 0.1531 -0.3265 0.9327
vn 0.3286 -0.1072 0.9384
vn 0.4826 -0.1721 0.8588
vn 0.6594 -0.7067 0.2565
vn 0.5152 -0.8452 0.1422
vn 0.6126 -0.6776 0.4069
vn 0.1641 -0.5248 0.8353
vn 0.4120 -0.4026 0.8174
vn 0.5080 -0.4812 0.7144
vn 0.2139 -0.4385 0.8729
vn -0.0270 -0.1120 0.9933
vn 0.1115 -0.0513 0.9924
vn 0.2268 -0.1548 0.9616
vn 0.1502 -0.3419 0.9277
vn 0.2097 -0.6914 0.6914
vn 0.1375 -0.8387 0.5269
vn 0.1826 -0.7142 0.6757
vn 0.4826 -0.7309 0.4826
vn 0.4069 -0.6776 0.6126
vn 0.1115 -0.1115 -0.9875
vn 0.0205 -0.3301 -0.9437
vn 0.3244 -0.1916 -0.9263
vn 0.1380 -0.1381 -0.9808
vn 0.1185 -0.7022 -0.7021
vn 0.0822 -0.5302 -0.8439
vn 0.1676 -0.4472 -0.8786
vn 0.0780 -0.8442 -0.5304
vn 0.1598 -0.7207 -0.6746
vn 0.2399 -0.4263 -0.8722
vn 0.3464 -0.2164 -0.9128
vn 0.3279 -0.9373 -0.1180
vn 0.1112 -0.9875 -0.1113
vn 0.1117 -0.9885 -0.1020
vn 0.1040 -0.9882 -0.1127
vn 0.1013 -0.9886 -0.1111
vn 0.1001 -0.9391 -0.3287
vn 0.1703 -0.9064 -0.3865
vn 0.3746 -0.5779 -0.7250
vn 0.2874 -0.6950 -0.6591
vn 0.5302 -0.0822 -0.8439
vn 0.7021 -0.1184 -0.7021
vn 0.3965 -0.2143 -0.8927
vn 0.5273 -0.8393 -0.1324
vn 0.3880 -0.7971 -0.4627
vn 0.2857 -0.8830 -0.3725
vn 0.3615 -0.9188 -0.1584
vn 0.5779 -0.3746 -0.7250
vn 0.5158 -0.5158 -0.6840
vn 0.7502 -0.2376 -0.6171
vn 0.7002 -0.7003 -0.1390
vn 0.6175 -0.6175 -0.4871
vn 0.5936 -0.7833 -0.1845
vn 0.5311 -0.7352 -0.4211
vn 0.8442 -0.0780 -0.5304
vn 0.6107 -0.2158 -0.7619
vn 0.8392 -0.5273 -0.1330
vn 0.7833 -0.5935 -0.1848
vn 0.7356 -0.5304 -0.4214
vn 0.7973 -0.3878 -0.4625
vn 0.9876 -0.1110 -0.1114
vn 0.9882 -0.1040 -0.1127
vn 0.9886 -0.1111 -0.1021
vn 0.9373 -0.3281 -0.1178
vn 0.9391 -0.1001 -0.3288
vn 0.9886 -0.1013 -0.1111
vn 0.9064 -0.1703 -0.3865
vn 0.9186 -0.3621 -0.1584
vn 0.8828 -0.2864 -0.3724
vn 0.0000 -0.1117 -0.9937
vn 0.0000 -0.3304 -0.9438
vn 0.0000 -0.5320 -0.8468
vn -0.0000 -0.5319 -0.8468
vn 0.0000 -0.7071 -0.7071
vn 0.0000 -0.8468 -0.5320
vn 0.0000 -0.9438 -0.3304
vn 0.0000 -0.9937 -0.1117
vn 0.1112 0.9876 0.1112
vn 0.7021 0.7021 0.1184
vn 0.5302 0.8439 0.0822
vn 0.3243 0.9264 0.1916
vn 0.0211 0.9436 0.3304
vn 0.1381 0.9807 0.1381
vn 0.8442 0.5303 0.0781
vn 0.2094 0.8531 0.4778
vn 0.3464 0.9128 0.2164
vn 0.3962 0.8929 0.2140
vn 0.9373 0.1178 0.3281
vn 0.9876 0.1115 0.1108
vn 0.9886 0.1021 0.1111
vn 0.9881 0.1128 0.1042
vn 0.9886 0.1111 0.1013
vn 0.9391 0.3288 0.1001
vn 0.9064 0.3866 0.1702
vn 0.6100 0.7625 0.2157
vn 0.5779 0.7250 0.3746
vn 0.7504 0.6168 0.2376
vn 0.0822 0.8439 0.5302
vn 0.1184 0.7021 0.7021
vn 0.2139 0.8924 0.3972
vn 0.8392 0.1330 0.5273
vn 0.9187 0.1582 0.3618
vn 0.7972 0.4623 0.3882
vn 0.8830 0.3724 0.2857
vn 0.3746 0.7250 0.5779
vn 0.2377 0.6168 0.7504
vn 0.5158 0.6840 0.5158
vn 0.7003 0.1390 0.7002
vn 0.7357 0.4209 0.5307
vn 0.7833 0.1848 0.5936
vn 0.6175 0.4871 0.6175
vn 0.0780 0.5304 0.8442
vn 0.2157 0.7624 0.6101
vn 0.5273 0.1324 0.8393
vn 0.5940 0.1846 0.7830
vn 0.5311 0.4211 0.7353
vn 0.3880 0.4627 0.7971
vn 0.1110 0.1115 0.9875
vn 0.1038 0.1127 0.9882
vn 0.1111 0.1021 0.9885
vn 0.3281 0.1178 0.9373
vn 0.1001 0.3288 0.9391
vn 0.1013 0.1111 0.9886
vn 0.1702 0.3866 0.9064
vn 0.3615 0.1585 0.9188
vn 0.2861 0.3722 0.8830
vn 0.7309 0.4826 -0.4826
vn 0.6777 0.6128 -0.4065
vn 0.5318 0.8465 0.0272
vn 0.6069 0.7757 -0.1730
vn 0.3316 0.9305 -0.1558
vn 0.3309 0.9308 -0.1555
vn 0.3291 0.9316 -0.1545
vn 0.4318 0.8635 -0.2606
vn 0.9876 0.1112 -0.1111
vn 0.9878 0.1094 -0.1110
vn 0.9383 0.1085 -0.3285
vn 0.9383 0.3285 -0.1085
vn 0.9878 0.1110 -0.1094
vn 0.8983 0.1865 -0.3979
vn 0.8983 0.3978 -0.1865
vn 0.8777 0.3388 -0.3388
vn 0.7071 0.7071 0.0073
vn 0.7070 0.7072 0.0047
vn 0.7069 0.7073 0.0065
vn 0.8426 0.5296 -0.0977
vn 0.6425 0.7457 -0.1764
vn 0.8451 0.5153 -0.1422
vn 0.7067 0.6594 -0.2565
vn 0.1119 -0.0269 -0.9934
vn 0.0517 0.1117 -0.9924
vn 0.3308 0.1556 -0.9308
vn 0.3292 0.1544 -0.9315
vn 0.3266 0.1530 -0.9327
vn 0.1069 0.3285 -0.9384
vn 0.1547 0.2266 -0.9616
vn 0.3419 0.1502 -0.9277
vn 0.5319 -0.0272 -0.8464
vn 0.3317 0.1558 -0.9304
vn 0.1439 0.5264 -0.8380
vn 0.1723 0.4824 -0.8588
vn 0.1722 0.4824 -0.8588
vn 0.4027 0.4122 -0.8173
vn 0.6069 0.1730 -0.7757
vn 0.4320 0.2606 -0.8634
vn 0.1680 0.6971 -0.6970
vn 0.1439 0.8380 -0.5264
vn 0.1680 0.6970 -0.6971
vn 0.8427 0.0972 -0.5295
vn 0.7071 -0.0074 -0.7070
vn 0.7069 -0.0065 -0.7073
vn 0.7071 -0.0048 -0.7071
vn 0.6425 0.1765 -0.7457
vn 0.4276 0.6392 -0.6392
vn 0.4812 0.5080 -0.7144
vn 0.1072 0.9384 -0.3285
vn 0.3265 0.9327 -0.1531
vn 0.1721 0.8588 -0.4826
vn 0.6777 0.4064 -0.6128
vn 0.8451 0.1422 -0.5153
vn 0.7067 0.2565 -0.6594
vn 0.4026 0.8174 -0.4120
vn 0.4812 0.7144 -0.5080
vn 0.0513 0.9924 -0.1116
vn 0.1119 0.9934 0.0269
vn 0.1549 0.9617 -0.2260
vn 0.3422 0.9275 -0.1502
vn 0.0000 0.1117 -0.9937
vn -0.0000 0.3304 -0.9438
vn -0.0000 0.5319 -0.8468
vn 0.0000 0.5320 -0.8467
vn 0.0000 0.5320 -0.8468
vn -0.0000 0.7071 -0.7071
vn 0.0000 0.8468 -0.5320
vn -0.0000 0.9438 -0.3304
vn 0.0000 0.9937 -0.1117
vn 0.0000 0.9937 -0.1123
vn 0.9937 0.1122 -0.0000
vn 0.9937 0.1117 0.0000
vn 0.9438 0.3304 0.0000
vn 0.8468 0.5319 0.0000
vn 0.8468 0.5320 0.0000
vn 0.7071 0.7071 0.0000
vn 0.5320 0.8468 -0.0000
vn 0.3304 0.9438 0.0000
vn 0.1117 0.9937 -0.0000
vn 0.1117 0.0000 -0.9937
vn 0.3304 0.0000 -0.9438
vn 0.5320 0.0000 -0.8468
vn 0.7071 0.0000 -0.7071
vn 0.8468 0.0000 -0.5319
vn 0.8468 0.0000 -0.5320
vn 0.9438 0.0000 -0.3304
vn 0.9937 0.0000 -0.1117
vn 0.0000 0.1117 0.9937
vn 0.0000 0.3304 0.9438
vn 0.0000 0.5320 0.8468
vn -0.0000 0.5319 0.8468
vn 0.0000 0.7071 0.7071
vn 0.0000 0.8467 0.5320
vn -0.0000 0.8468 0.5320
vn 0.0000 0.9438 0.3304
vn 0.0000 0.9937 0.1117
vn 0.1117 -0.0000 0.9937
vn 0.3304 -0.0000 0.9438
vn 0.5320 -0.0000 0.8468
vn 0.5320 -0.0000 0.8467
vn 0.7071 -0.0000 0.7071
vn 0.8468 -0.0000 0.5320
vn 0.8468 0.0000 0.5319
vn 0.9438 -0.0000 0.3304
vn 0.9937 -0.0000 0.1117
vn 0.1117 -0.9937 -0.0000
vn 0.3304 -0.9438 -0.0000
vn 0.3301 -0.9439 0.0000
vn 0.5320 -0.8468 -0.0000
vn 0.7071 -0.7071 -0.0000
vn 0.8468 -0.5319 -0.0000
vn 0.8468 -0.5320 0.0000
vn 0.9438 -0.3304 -0.0000
vn 0.9937 -0.1117 -0.0000
vn 0.0000 -0.1117 0.9937
vn -0.0000 -0.3304 0.9438
vn -0.0000 -0.5320 0.8468
vn 0.0000 -0.5319 0.8468
vn -0.0000 -0.7071 0.7071
vn 0.0000 -0.8468 0.5320
vn -0.0000 -0.9438 0.3304
vn 0.0000 -0.9937 0.1117
vn 0.0000 0.0000 -1.0000
vn 0.0000 -1.0000 -0.0000
vn 1.0000 0.0000 0.0000
vn -1.0000 0.0000 0.0000
vn 0.0000 1.0000 0.0000
vn 0.0000 -0.0000 1.0000
usemtl material_1.054
s 1
f 1//1 2//1 3//1
f 1//2 4//2 5//2
f 1//3 6//3 2//3
f 1//4 3//5 4//5
f 1//6 5//6 7//6
f 1//7 7//7 6//7
f 8//8 4//5 3//5
f 9//9 10//9 11//9
f 9//10 11//10 12//10
f 13//11 14//12 10//13
f 13//14 12//14 15//14
f 13//15 10//15 9//15
f 13//16 9//16 12//16
f 16//17 17//17 14//17
f 16//18 14//12 13//11
f 18//19 15//19 19//19
f 18//20 13//20 15//20
f 20//21 16//21 13//21
f 20//22 13//22 18//22
f 20//23 17//23 16//23
f 21//24 19//24 22//25
f 21//26 22//26 23//26
f 21//24 18//27 19//24
f 24//28 5//28 25//28
f 24//29 25//30 17//31
f 24//32 17//32 20//32
f 26//33 18//33 21//33
f 26//34 20//34 18//34
f 27//35 28//35 29//35
f 27//36 23//36 30//36
f 27//37 21//37 23//37
f 7//38 24//38 20//38
f 7//39 5//39 24//39
f 7//40 20//40 26//40
f 31//41 29//41 32//41
f 31//42 21//42 27//42
f 31//43 26//43 21//43
f 31//44 27//44 29//44
f 33//45 34//45 28//45
f 33//46 30//46 34//46
f 33//47 27//47 30//47
f 33//48 28//48 27//48
f 6//49 32//49 35//49
f 6//50 35//50 2//50
f 6//51 31//51 32//51
f 6//52 7//52 26//52
f 6//53 26//53 31//53
usemtl material_0.056
f 36//54 37//54 38//54
f 39//55 40//55 37//55
f 39//56 36//56 41//56
f 39//57 37//57 36//57
f 42//58 43//58 44//58
f 42//59 44//59 40//59
f 42//60 40//60 39//60
f 45//61 46//61 43//61
f 45//62 43//62 42//62
f 47//63 42//63 39//63
f 47//64 39//64 41//64
f 48//65 49//65 50//65
f 48//66 50//67 51//68
f 48//66 51//68 52//69
f 48//70 52//70 46//70
f 48//71 46//71 45//71
f 53//72 42//72 47//72
f 53//73 45//73 42//73
f 54//74 41//74 55//74
f 54//75 55//75 56//75
f 54//76 47//76 41//76
f 57//77 58//77 49//77
f 57//78 45//78 53//78
f 57//79 48//79 45//79
f 57//80 49//80 48//80
f 59//81 47//81 54//81
f 59//82 53//82 47//82
f 59//83 54//83 56//83
f 60//84 61//84 58//84
f 60//85 53//85 59//85
f 60//86 58//86 57//86
f 60//87 57//87 53//87
f 62//88 56//88 63//88
f 62//89 59//89 56//89
f 64//90 65//90 61//90
f 64//91 61//91 60//91
f 64//92 60//92 59//92
f 64//93 59//93 62//93
f 66//94 67//95 68//96
f 66//97 68//97 65//97
f 66//98 63//98 69//98
f 66//94 69//99 67//95
f 66//100 62//100 63//100
f 66//101 65//101 64//101
f 66//102 64//102 62//102
f 70//103 71//103 38//103
f 70//103 38//103 37//103
f 72//104 37//104 40//104
f 72//104 70//104 37//104
f 73//105 40//105 44//105
f 73//105 72//106 40//105
f 74//107 44//107 43//107
f 74//107 73//107 44//107
f 75//108 43//108 46//108
f 75//108 74//108 43//108
f 76//109 46//109 52//109
f 76//109 75//109 46//109
f 77//110 52//110 51//110
f 77//110 76//110 52//110
f 78//111 79//111 80//111
f 81//112 82//112 83//112
f 81//113 83//113 84//113
f 85//114 84//114 79//114
f 85//115 78//115 86//115
f 85//116 79//116 78//116
f 87//117 88//117 82//117
f 89//118 85//118 86//118
f 89//119 84//119 85//119
f 89//120 81//120 84//120
f 90//121 91//121 92//121
f 90//122 92//123 93//124
f 90//122 93//124 94//125
f 90//126 94//126 88//126
f 90//127 88//127 87//127
f 95//128 87//128 82//128
f 95//129 81//129 89//129
f 95//130 82//130 81//130
f 96//131 86//131 97//131
f 96//132 97//132 98//132
f 96//133 89//133 86//133
f 99//134 100//134 91//134
f 99//135 91//135 90//135
f 99//136 87//136 95//136
f 99//137 90//137 87//137
f 101//138 89//138 96//138
f 101//139 96//139 98//139
f 101//140 95//140 89//140
f 102//141 103//141 100//141
f 102//142 99//142 95//142
f 102//143 100//143 99//143
f 102//144 95//144 101//144
f 104//145 98//145 105//145
f 104//146 101//146 98//146
f 106//147 107//147 103//147
f 106//148 103//148 102//148
f 106//149 102//149 101//149
f 106//150 101//150 104//150
f 108//151 109//152 110//153
f 108//154 110//154 107//154
f 108//155 105//155 111//155
f 108//151 111//156 109//152
f 108//157 104//157 105//157
f 108//158 107//158 106//158
f 108//159 106//159 104//159
f 112//160 113//160 114//160
f 112//161 114//161 115//161
f 116//162 117//162 118//162
f 116//163 118//163 115//163
f 116//164 119//165 117//166
f 116//167 115//167 119//167
f 120//168 121//168 122//169
f 120//170 122//170 123//170
f 120//171 124//171 125//171
f 120//168 125//172 121//168
f 120//173 123//173 113//173
f 120//174 112//174 124//174
f 120//175 113//175 112//175
f 126//176 118//177 127//178
f 126//179 127//179 124//179
f 126//180 115//180 118//180
f 126//181 124//181 112//181
f 126//182 112//182 115//182
f 128//183 129//183 130//183
f 128//184 130//184 131//184
f 132//185 133//186 129//187
f 132//188 131//188 134//188
f 132//189 128//189 131//189
f 132//190 129//190 128//190
f 135//191 136//191 133//191
f 135//192 133//186 132//185
f 137//193 134//193 138//193
f 137//194 132//195 134//195
f 139//196 132//196 137//196
f 139//197 136//197 135//197
f 139//198 135//198 132//198
f 140//199 138//199 141//199
f 140//200 141//200 142//200
f 140//199 137//201 138//199
f 143//202 123//202 144//202
f 143//203 144//204 136//205
f 143//206 136//206 139//206
f 114//207 137//207 140//207
f 114//208 139//208 137//208
f 119//209 142//209 145//209
f 119//165 146//210 117//166
f 119//211 140//211 142//211
f 113//212 139//212 114//212
f 113//213 123//213 143//213
f 113//214 143//214 139//214
f 115//215 140//215 119//215
f 115//216 114//216 140//216
f 147//217 145//217 148//217
f 147//218 148//218 146//218
f 147//219 119//219 145//219
f 147//220 146//220 119//220
f 131//221 149//221 150//221
f 131//221 130//221 149//221
f 134//222 150//222 151//222
f 134//222 131//222 150//222
f 138//223 151//224 152//225
f 138//223 134//223 151//224
f 141//226 152//226 153//226
f 141//226 138//226 152//226
f 142//227 153//227 154//227
f 142//227 141//227 153//227
f 145//228 154//228 155//228
f 145//228 142//228 154//228
f 148//229 155//230 156//229
f 148//229 145//229 155//230
f 93//231 121//232 125//232
f 94//233 125//233 124//233
f 94//232 93//231 125//232
f 88//234 124//234 127//235
f 88//233 94//233 124//233
f 82//236 127//178 118//177
f 82//234 88//234 127//235
f 83//237 118//237 117//237
f 83//236 82//236 118//177
f 84//238 117//238 146//238
f 84//237 83//237 117//237
f 79//239 146//239 148//239
f 79//238 84//238 146//238
f 80//239 79//239 148//239
f 36//240 38//240 130//240
f 36//240 130//240 129//240
f 41//241 129//241 133//241
f 41//241 36//241 129//241
f 55//242 133//242 136//242
f 55//242 41//242 133//242
f 56//243 136//205 144//204
f 56//243 55//243 136//205
f 63//244 144//244 123//245
f 63//244 56//245 144//244
f 69//246 123//246 122//246
f 69//246 63//246 123//246
f 67//247 122//247 121//247
f 67//247 69//247 122//247
f 157//248 158//248 109//248
f 157//248 109//248 111//248
f 159//249 111//249 105//249
f 159//249 157//249 111//249
f 160//250 105//250 98//251
f 160//250 159//251 105//250
f 161//252 98//252 97//252
f 161//252 160//252 98//252
f 162//253 97//254 86//254
f 162//253 161//253 97//254
f 163//255 86//255 78//255
f 163//255 162//255 86//255
f 164//256 78//256 80//256
f 164//256 163//256 78//256
f 110//257 109//257 34//257
f 110//257 34//257 30//257
f 107//258 30//258 23//258
f 107//258 110//258 30//258
f 103//259 23//259 22//260
f 103//259 107//259 23//259
f 100//261 22//261 19//261
f 100//261 103//261 22//261
f 91//262 19//263 15//263
f 91//262 100//262 19//263
f 92//264 15//264 12//264
f 92//264 91//264 15//264
f 93//265 12//265 11//265
f 93//265 92//265 12//265
f 4//266 8//266 51//266
f 4//266 51//266 50//266
f 5//267 50//268 49//267
f 5//267 4//267 50//268
f 25//269 49//269 58//269
f 25//269 5//269 49//269
f 17//31 58//270 61//270
f 17//31 25//30 58//270
f 14//271 61//272 65//271
f 14//271 17//271 61//272
f 10//273 65//273 68//273
f 10//273 14//273 65//273
f 11//274 68//274 67//274
f 11//274 10//274 68//274
f 28//275 165//275 166//275
f 28//275 34//275 165//275
f 29//276 166//276 167//276
f 29//276 28//276 166//276
f 32//277 167//277 168//278
f 32//277 29//278 167//277
f 35//279 168//279 169//279
f 35//279 32//279 168//279
f 2//280 169//280 170//280
f 2//280 35//280 169//280
f 3//281 170//281 171//281
f 3//281 2//281 170//281
f 8//282 171//282 172//282
f 8//282 3//282 171//282
f 149//283 130//283 38//283
f 149//283 38//283 71//283
f 8//284 77//284 51//284
f 8//284 172//284 77//284
f 93//285 11//285 67//285
f 93//285 67//285 121//285
f 169//286 166//286 165//286
f 169//286 167//286 166//286
f 169//286 168//286 167//286
f 169//286 171//286 170//286
f 169//286 172//286 171//286
f 169//286 165//286 172//286
f 149//286 151//286 150//286
f 149//286 152//286 151//286
f 149//286 153//286 152//286
f 149//286 154//286 153//286
f 149//286 155//286 154//286
f 149//286 156//286 155//286
f 77//286 75//286 76//286
f 77//286 74//286 75//286
f 77//286 73//286 74//286
f 77//286 72//286 73//286
f 77//286 70//286 72//286
f 77//286 71//286 70//286
f 158//286 163//286 164//286
f 158//286 162//286 163//286
f 158//286 161//286 162//286
f 158//286 160//286 161//286
f 158//286 159//286 160//286
f 158//286 157//286 159//286
f 158//286 164//286 156//286
f 158//286 156//286 149//286
f 165//286 149//286 71//286
f 165//286 77//286 172//286
f 165//286 71//286 77//286
f 165//286 158//286 149//286
f 164//287 148//287 156//287
f 164//287 80//287 148//287
f 109//288 158//288 165//288
f 109//288 165//288 34//288
