# Blender v2.81 (sub 16) OBJ File: ''
# www.blender.org
mtllib 19_CERAMICO_P6mm-D5mm.mtl
o 19_CERAMICO_P6mm-D5mm
v 0.003979 0.001718 -0.005068
v 0.006993 -0.001959 -0.002047
v 0.006076 -0.002701 -0.003568
v 0.005355 0.002831 -0.002787
v 0.002045 -0.006283 -0.003643
v 0.006798 -0.008321 -0.002510
v 0.006156 -0.008912 -0.002105
v 0.003329 -0.005101 -0.004453
v 0.002017 0.000036 -0.006356
v 0.004767 -0.003822 -0.004426
v 0.003719 0.007622 -0.003527
v 0.000815 0.011409 -0.006768
v 0.001951 0.012313 -0.004603
v 0.002676 0.012838 -0.002155
v 0.002947 0.012952 0.000434
v 0.001168 -0.007135 -0.002155
v 0.005718 -0.009338 -0.001361
v 0.010268 -0.011541 -0.000566
v -0.000140 -0.001880 -0.006396
v 0.001883 0.006138 -0.006568
v -0.002409 0.008687 -0.009764
v -0.000667 0.010176 -0.008522
v -0.002067 -0.003654 -0.005181
v -0.000732 0.003896 -0.008285
v -0.004309 0.007029 -0.010423
v -0.003380 -0.004933 -0.002951
v -0.013214 -0.001411 0.000132
v 0.008172 -0.007121 -0.002067
v 0.008630 -0.006749 -0.001306
v -0.003609 0.001339 -0.008340
v -0.008139 0.003595 -0.009872
v -0.006257 0.005298 -0.010459
v 0.007517 -0.007681 -0.002496
v -0.006178 -0.001026 -0.006719
v -0.011282 0.000658 -0.006994
v -0.009848 0.002016 -0.008693
v -0.007930 -0.002731 -0.003746
v -0.013015 -0.001108 -0.002449
v -0.012359 -0.000405 -0.004871
v -0.001926 -0.004027 0.004955
v 0.001221 -0.007273 0.001593
v 0.002138 -0.006531 0.003114
v -0.003303 -0.005140 0.002674
v 0.006169 -0.002949 0.003190
v 0.007576 -0.007836 0.001716
v 0.008218 -0.007245 0.001311
v 0.004885 -0.004132 0.004000
v 0.000036 -0.002345 0.006243
v 0.003447 -0.005410 0.003972
v -0.007825 -0.003006 0.003754
v -0.011082 0.000132 0.007334
v -0.012219 -0.000773 0.005170
v -0.012943 -0.001297 0.002722
v 0.007046 -0.002097 0.001703
v 0.008656 -0.006819 0.000568
v 0.002194 -0.000427 0.006283
v -0.005990 -0.001522 0.006795
v -0.007858 0.002852 0.010331
v -0.009600 0.001365 0.009088
v 0.004121 0.001347 0.005067
v -0.003374 0.000720 0.008512
v -0.005959 0.004511 0.010990
v 0.005434 0.002625 0.002837
v 0.006203 -0.009036 0.001274
v 0.005744 -0.009406 0.000514
v -0.000498 0.003278 0.008566
v -0.002127 0.007946 0.010438
v -0.004011 0.006242 0.011026
v 0.006857 -0.008475 0.001703
v 0.002071 0.005642 0.006946
v 0.001014 0.010883 0.007560
v -0.000420 0.009523 0.009259
v 0.003822 0.007347 0.003972
v 0.002748 0.012648 0.003016
v 0.002091 0.011945 0.005437
vn 0.7990 0.1847 -0.5723
vn 0.7990 0.1847 -0.5722
vn -0.0316 -0.5411 -0.8403
vn -0.0316 -0.5412 -0.8403
vn -0.0318 -0.5414 -0.8402
vn 0.5586 -0.0167 -0.8293
vn 0.5587 -0.0165 -0.8292
vn 0.5584 -0.0169 -0.8294
vn 0.5586 -0.0166 -0.8293
vn 0.8326 0.1948 -0.5185
vn 0.9069 0.2670 -0.3260
vn 0.9685 0.2228 -0.1111
vn 0.9354 0.2879 -0.2052
vn 0.9354 0.2879 -0.2053
vn 0.9354 0.2879 -0.2054
vn -0.3514 -0.5230 -0.7765
vn -0.6447 -0.2594 -0.7191
vn -0.8634 0.0300 -0.5036
vn -0.2650 -0.7611 -0.5920
vn -0.2650 -0.7610 -0.5922
vn -0.2649 -0.7609 -0.5923
vn -0.2650 -0.7610 -0.5921
vn 0.2621 -0.2754 -0.9249
vn 0.2623 -0.2757 -0.9248
vn 0.2623 -0.2755 -0.9248
vn 0.5905 -0.0174 -0.8068
vn 0.7158 0.1190 -0.6881
vn 0.8146 0.1437 -0.5620
vn 0.7989 0.1846 -0.5724
vn 0.7989 0.1845 -0.5724
vn 0.4232 -0.1286 -0.8968
vn 0.5775 -0.0493 -0.8149
vn 0.5587 -0.0164 -0.8292
vn -0.3911 -0.8911 -0.2302
vn -0.3913 -0.8911 -0.2298
vn -0.3913 -0.8911 -0.2299
vn 0.7992 0.1848 -0.5720
vn 0.7990 0.1846 -0.5723
vn -0.3488 0.1053 0.9313
vn -0.3676 -0.0414 0.9290
vn -0.3790 -0.1781 0.9081
vn -0.2649 -0.7609 -0.5924
vn 0.0970 -0.4185 -0.9030
vn 0.2828 -0.2988 -0.9114
vn 0.2826 -0.2989 -0.9115
vn 0.2827 -0.2988 -0.9115
vn 0.5585 -0.0167 -0.8293
vn 0.2619 -0.2757 -0.9249
vn 0.2621 -0.2757 -0.9248
vn 0.2829 -0.2988 -0.9114
vn -0.1876 -0.6838 -0.7052
vn -0.0350 -0.5733 -0.8186
vn -0.0316 -0.5413 -0.8402
vn -0.0017 -0.5640 -0.8257
vn 0.9042 -0.0540 -0.4238
vn -0.1173 -0.5199 -0.8461
vn 0.6263 -0.2884 -0.7243
vn -0.0316 -0.5414 -0.8402
vn -0.3324 -0.9333 -0.1355
vn -0.3645 -0.8632 -0.3493
vn -0.2800 -0.7941 -0.5394
vn -0.2265 -0.7815 -0.5814
vn 0.2622 -0.2756 -0.9248
vn -0.2649 -0.7610 -0.5922
vn -0.0315 -0.5412 -0.8403
vn 0.9354 0.2880 -0.2054
vn 0.3366 -0.1798 -0.9243
vn 0.3767 -0.1938 -0.9058
vn 0.3546 -0.1865 -0.9162
vn -0.2491 -0.8025 0.5421
vn -0.2491 -0.8026 0.5420
vn -0.2491 -0.8026 0.5421
vn 0.5814 -0.0768 0.8100
vn 0.5816 -0.0766 0.8099
vn 0.5816 -0.0766 0.8098
vn 0.5815 -0.0768 0.8099
vn -0.0089 -0.6014 0.7989
vn -0.0088 -0.6014 0.7989
vn -0.0087 -0.6014 0.7989
vn -0.2657 -0.8318 0.4873
vn -0.3556 -0.8868 0.2952
vn -0.3294 -0.9411 0.0758
vn -0.3857 -0.9059 0.1751
vn -0.3857 -0.9059 0.1749
vn -0.3856 -0.9060 0.1747
vn -0.3596 0.7356 0.5742
vn -0.9045 0.3633 0.2236
vn -0.9897 -0.0338 -0.1389
vn 0.8146 0.1429 0.5621
vn 0.8147 0.1429 0.5621
vn 0.8147 0.1429 0.5620
vn 0.2876 -0.3424 0.8944
vn 0.2876 -0.3424 0.8945
vn 0.2877 -0.3423 0.8945
vn 0.2874 -0.3425 0.8945
vn -0.0131 -0.6320 0.7748
vn -0.1687 -0.7338 0.6581
vn -0.2111 -0.8222 0.5286
vn -0.2490 -0.8027 0.5420
vn -0.2488 -0.8027 0.5420
vn 0.5815 -0.0767 0.8099
vn 0.5816 -0.0767 0.8099
vn 0.1217 -0.4836 0.8668
vn -0.0090 -0.6014 0.7989
vn 0.0208 -0.6231 0.7818
vn 0.9410 0.2731 0.1998
vn -0.2490 -0.8026 0.5421
vn -0.2492 -0.8026 0.5420
vn -0.7181 -0.1702 0.6748
vn -0.6944 -0.2075 0.6890
vn -0.6763 -0.2340 0.6985
vn 0.8148 0.1430 0.5619
vn 0.4478 -0.1936 0.8729
vn 0.3076 -0.3647 0.8789
vn -0.0088 -0.6013 0.7989
vn -0.0088 -0.6013 0.7990
vn 0.2875 -0.3424 0.8945
vn 0.7347 0.0691 0.6749
vn 0.6126 -0.0760 0.7867
vn 0.5999 -0.1083 0.7927
vn 0.1842 0.7874 -0.5883
vn -0.1768 0.2610 -0.9490
vn 0.0034 0.5633 -0.8263
vn 0.9715 0.2150 0.1001
vn 0.9160 0.2433 0.3191
vn 0.8469 0.1571 0.5080
vn 0.9410 0.2731 0.1999
vn 0.8301 0.1031 0.5481
vn 0.8147 0.1430 0.5619
vn 0.2876 -0.3423 0.8945
vn 0.2876 -0.3426 0.8944
vn 0.5816 -0.0765 0.8099
vn -0.3856 -0.9060 0.1746
vn -0.1926 -0.4631 0.8651
vn -0.1905 -0.5557 0.8093
vn -0.1924 -0.5178 0.8336
vn 0.8146 0.1430 0.5621
vn -0.6642 0.7466 0.0367
vn -0.6642 0.7467 0.0367
vn -0.6642 0.7467 0.0366
vn -0.6642 0.7466 0.0366
vn -0.6643 0.7466 0.0367
vn -0.6643 0.7466 0.0366
vn -0.6641 0.7467 0.0367
vn -0.6645 0.7464 0.0364
vn -0.6642 0.7466 0.0368
vn -0.6642 0.7467 0.0364
vn -0.6642 0.7466 0.0365
usemtl material_1.031
s 1
f 1//1 2//2 3//2
f 1//1 4//1 2//2
f 5//3 6//4 7//5
f 5//3 8//3 6//4
f 9//6 3//7 10//8
f 9//6 1//9 3//7
f 11//10 12//10 13//10
f 11//11 13//11 14//11
f 11//12 14//12 15//12
f 11//13 15//14 4//15
f 16//16 17//17 18//18
f 16//19 7//20 17//21
f 16//19 5//22 7//20
f 19//23 9//24 10//25
f 19//23 10//25 8//25
f 20//26 21//26 22//26
f 20//27 22//27 12//27
f 20//28 12//28 11//28
f 20//29 4//1 1//1
f 20//29 11//30 4//1
f 23//4 8//3 5//3
f 23//4 19//4 8//3
f 24//31 25//31 21//31
f 24//7 1//9 9//6
f 24//32 21//32 20//32
f 24//7 20//33 1//9
f 26//34 18//35 27//36
f 28//2 29//37 18//38
f 26//39 16//40 18//41
f 26//42 5//22 16//19
f 26//42 23//42 5//22
f 30//43 31//43 32//43
f 30//44 32//45 25//46
f 33//47 28//6 18//47
f 30//48 24//49 9//24
f 30//48 9//24 19//23
f 30//44 25//46 24//50
f 34//51 35//51 36//51
f 34//52 36//52 31//52
f 34//53 19//4 23//4
f 34//54 31//54 30//54
f 2//55 18//56 29//57
f 34//53 30//58 19//4
f 37//59 27//59 38//59
f 37//60 38//60 39//60
f 37//61 39//61 35//61
f 37//36 26//34 27//36
f 37//62 35//62 34//62
f 37//21 23//42 26//42
f 6//49 33//63 18//49
f 37//21 34//64 23//42
f 3//2 2//2 29//37
f 3//2 29//37 28//2
f 7//5 6//4 18//65
f 10//8 28//6 33//47
f 10//8 3//7 28//6
f 4//15 15//14 18//66
f 4//67 18//68 2//69
f 17//21 7//20 18//20
f 8//25 33//63 6//49
f 8//25 10//25 33//63
usemtl material_0.033
f 40//70 41//71 42//71
f 40//70 43//72 41//71
f 44//73 45//74 46//75
f 44//73 47//76 45//74
f 48//77 42//78 49//79
f 48//77 40//77 42//78
f 50//80 51//80 52//80
f 50//81 52//81 53//81
f 50//82 53//82 27//82
f 50//83 27//84 43//85
f 54//86 55//87 18//88
f 54//89 46//90 55//90
f 54//89 44//91 46//90
f 56//92 48//93 49//94
f 56//92 49//94 47//95
f 57//96 58//96 59//96
f 57//97 59//97 51//97
f 57//98 51//98 50//98
f 57//99 43//72 40//70
f 57//99 50//100 43//72
f 60//101 47//76 44//73
f 60//101 56//102 47//76
f 61//103 62//103 58//103
f 61//104 40//77 48//77
f 61//105 58//105 57//105
f 61//104 57//104 40//77
f 63//106 18//106 15//106
f 64//107 65//71 18//108
f 63//109 54//110 18//111
f 63//112 44//91 54//89
f 63//112 60//112 44//91
f 66//113 67//113 68//113
f 66//114 68//114 62//114
f 69//77 64//115 18//116
f 66//117 61//117 48//93
f 66//117 48//93 56//92
f 66//114 62//114 61//114
f 70//118 71//118 72//118
f 70//119 72//119 67//119
f 70//102 56//102 60//101
f 70//120 67//120 66//120
f 41//121 18//122 65//123
f 70//102 66//102 56//102
f 73//124 15//124 74//124
f 73//125 74//125 75//125
f 73//126 75//126 71//126
f 73//127 63//106 15//106
f 73//128 71//128 70//128
f 73//129 60//112 63//112
f 45//130 69//131 18//131
f 73//129 70//129 60//112
f 42//71 41//71 65//71
f 42//71 65//71 64//107
f 46//75 45//74 18//132
f 49//79 64//115 69//77
f 49//79 42//78 64//115
f 43//85 27//84 18//133
f 43//134 18//135 41//136
f 55//90 46//90 18//137
f 47//95 69//131 45//130
f 47//95 49//94 69//131
f 68//138 67//138 62//138
f 15//139 75//140 74//139
f 36//141 75//140 31//142
f 31//142 75//140 32//140
f 32//140 75//140 25//142
f 25//142 75//140 21//143
f 13//142 75//140 14//144
f 14//144 75//140 15//139
f 21//143 75//140 13//142
f 72//145 71//141 67//138
f 62//138 71//141 58//146
f 58//146 71//141 59//147
f 59//147 71//141 51//138
f 51//138 71//141 52//148
f 52//148 71//141 53//143
f 53//143 71//141 27//142
f 27//142 71//141 38//143
f 38//143 71//141 39//142
f 39//142 71//141 35//141
f 35//141 71//141 36//141
f 36//141 71//141 75//140
f 67//138 71//141 62//138
f 21//143 13//142 22//141
f 22//141 13//142 12//138
