# Blender v2.81 (sub 16) OBJ File: ''
# www.blender.org
mtllib MiniFit-2x7P.mtl
o MiniFit-2x7P
v -0.005892 -0.001141 -0.000997
v -0.005892 0.000270 -0.000997
v -0.005892 -0.001141 -0.002428
v -0.005892 0.000270 -0.002428
v -0.006131 0.000270 -0.002428
v -0.006131 -0.001141 -0.000997
v -0.006131 -0.001141 -0.002428
v -0.006131 0.000270 -0.000997
v 0.006131 -0.001141 -0.000997
v 0.006131 0.000270 -0.000997
v 0.006131 -0.001141 -0.002428
v 0.006131 0.000270 -0.002428
v 0.005892 0.000270 -0.002428
v 0.005892 -0.001141 -0.000997
v 0.005892 -0.001141 -0.002428
v 0.005892 0.000270 -0.000997
v -0.006436 -0.001012 -0.002428
v -0.006291 -0.001095 -0.002428
v -0.006558 -0.000898 -0.002428
v -0.006558 0.000026 -0.002428
v -0.006436 0.000140 -0.002428
v -0.006650 -0.000113 -0.002428
v -0.006727 -0.000436 -0.002428
v -0.006291 0.000223 -0.002428
v -0.006708 -0.000602 -0.002428
v -0.006708 -0.000270 -0.002428
v -0.006650 -0.000758 -0.002428
v -0.005587 -0.001012 -0.002428
v -0.005732 -0.001095 -0.002428
v -0.005373 -0.000758 -0.002428
v -0.005465 -0.000898 -0.002428
v -0.005465 0.000026 -0.002428
v -0.005732 0.000223 -0.002428
v -0.005587 0.000140 -0.002428
v -0.005315 -0.000270 -0.002428
v -0.005373 -0.000113 -0.002428
v -0.005296 -0.000436 -0.002428
v -0.005315 -0.000602 -0.002428
v -0.006291 -0.001095 -0.000997
v -0.006436 -0.001012 -0.000997
v -0.006558 -0.000898 -0.000997
v -0.006650 -0.000758 -0.000997
v -0.006708 -0.000602 -0.000997
v -0.006727 -0.000436 -0.000997
v -0.006708 -0.000270 -0.000997
v -0.006650 -0.000113 -0.000997
v -0.006558 0.000026 -0.000997
v -0.006436 0.000140 -0.000997
v -0.006291 0.000223 -0.000997
v -0.005732 0.000223 -0.000997
v -0.005587 0.000140 -0.000997
v -0.005465 0.000026 -0.000997
v -0.005373 -0.000113 -0.000997
v -0.005315 -0.000270 -0.000997
v -0.005296 -0.000436 -0.000997
v -0.005315 -0.000602 -0.000997
v -0.005373 -0.000758 -0.000997
v -0.005465 -0.000898 -0.000997
v -0.005587 -0.001012 -0.000997
v -0.005732 -0.001095 -0.000997
v 0.005587 -0.001012 -0.002428
v 0.005732 -0.001095 -0.002428
v 0.005465 -0.000898 -0.002428
v 0.005373 -0.000758 -0.002428
v 0.005296 -0.000436 -0.002428
v 0.005315 -0.000602 -0.002428
v 0.005373 -0.000113 -0.002428
v 0.005465 0.000026 -0.002428
v 0.005315 -0.000270 -0.002428
v 0.005587 0.000140 -0.002428
v 0.005732 0.000223 -0.002428
v 0.006436 -0.001012 -0.002428
v 0.006291 -0.001095 -0.002428
v 0.006650 -0.000758 -0.002428
v 0.006558 -0.000898 -0.002428
v 0.006291 0.000223 -0.002428
v 0.006436 0.000140 -0.002428
v 0.006558 0.000026 -0.002428
v 0.006708 -0.000270 -0.002428
v 0.006650 -0.000113 -0.002428
v 0.006727 -0.000436 -0.002428
v 0.006708 -0.000602 -0.002428
v 0.005732 -0.001095 -0.000997
v 0.005587 -0.001012 -0.000997
v 0.005465 -0.000898 -0.000997
v 0.005373 -0.000758 -0.000997
v 0.005315 -0.000602 -0.000997
v 0.005296 -0.000436 -0.000997
v 0.005315 -0.000270 -0.000997
v 0.005373 -0.000113 -0.000997
v 0.005465 0.000026 -0.000997
v 0.005587 0.000140 -0.000997
v 0.005732 0.000223 -0.000997
v 0.006291 0.000223 -0.000997
v 0.006436 0.000140 -0.000997
v 0.006558 0.000026 -0.000997
v 0.006650 -0.000113 -0.000997
v 0.006708 -0.000270 -0.000997
v 0.006727 -0.000436 -0.000997
v 0.006708 -0.000602 -0.000997
v 0.006650 -0.000758 -0.000997
v 0.006558 -0.000898 -0.000997
v 0.006436 -0.001012 -0.000997
v 0.006291 -0.001095 -0.000997
v 0.005057 0.002713 0.001245
v 0.005057 -0.002058 -0.000663
v 0.005057 0.002713 -0.000663
v 0.005057 -0.002058 0.001245
v 0.006966 0.002713 0.001245
v 0.006966 -0.002058 0.001245
v 0.006966 0.002713 -0.000663
v 0.006966 -0.002058 -0.000663
v 0.003053 0.002713 0.001245
v 0.003053 -0.002058 -0.000663
v 0.003053 0.002713 -0.000663
v 0.003053 -0.002058 0.001245
v 0.004962 0.002713 0.001245
v 0.004962 -0.002058 0.001245
v 0.004962 0.002713 -0.000663
v 0.004962 -0.002058 -0.000663
v 0.001050 0.002713 0.001245
v 0.001050 -0.002058 -0.000663
v 0.001050 0.002713 -0.000663
v 0.001050 -0.002058 0.001245
v 0.002958 0.002713 0.001245
v 0.002958 -0.002058 0.001245
v 0.002958 0.002713 -0.000663
v 0.002958 -0.002058 -0.000663
v -0.000954 0.002713 0.001245
v -0.000954 -0.002058 -0.000663
v -0.000954 0.002713 -0.000663
v -0.000954 -0.002058 0.001245
v 0.000954 0.002713 0.001245
v 0.000954 -0.002058 0.001245
v 0.000954 0.002713 -0.000663
v 0.000954 -0.002058 -0.000663
v -0.002958 0.002713 0.001245
v -0.002958 -0.002058 -0.000663
v -0.002958 0.002713 -0.000663
v -0.002958 -0.002058 0.001245
v -0.001050 0.002713 0.001245
v -0.001050 -0.002058 0.001245
v -0.001050 0.002713 -0.000663
v -0.001050 -0.002058 -0.000663
v -0.004962 0.002713 0.001245
v -0.004962 -0.002058 -0.000663
v -0.004962 0.002713 -0.000663
v -0.004962 -0.002058 0.001245
v -0.003053 0.002713 0.001245
v -0.003053 -0.002058 0.001245
v -0.003053 0.002713 -0.000663
v -0.003053 -0.002058 -0.000663
v -0.006966 0.002713 0.001245
v -0.006966 -0.002058 -0.000663
v -0.006966 0.002713 -0.000663
v -0.006966 -0.002058 0.001245
v -0.005057 0.002713 0.001245
v -0.005057 -0.002058 0.001245
v -0.005057 0.002713 -0.000663
v -0.005057 -0.002058 -0.000663
v 0.005057 0.002713 0.003249
v 0.005057 -0.002058 0.001341
v 0.005057 0.002713 0.001341
v 0.005057 -0.002058 0.003249
v 0.006966 0.002713 0.003249
v 0.006966 -0.002058 0.003249
v 0.006966 0.002713 0.001341
v 0.006966 -0.002058 0.001341
v 0.003053 0.002713 0.003249
v 0.003053 -0.002058 0.001341
v 0.003053 0.002713 0.001341
v 0.003053 -0.002058 0.003249
v 0.004962 0.002713 0.003249
v 0.004962 -0.002058 0.003249
v 0.004962 0.002713 0.001341
v 0.004962 -0.002058 0.001341
v 0.001050 0.002713 0.003249
v 0.001050 -0.002058 0.001341
v 0.001050 0.002713 0.001341
v 0.001050 -0.002058 0.003249
v 0.002958 0.002713 0.003249
v 0.002958 -0.002058 0.003249
v 0.002958 0.002713 0.001341
v 0.002958 -0.002058 0.001341
v -0.000954 0.002713 0.003249
v -0.000954 -0.002058 0.001341
v -0.000954 0.002713 0.001341
v -0.000954 -0.002058 0.003249
v 0.000954 0.002713 0.003249
v 0.000954 -0.002058 0.003249
v 0.000954 0.002713 0.001341
v 0.000954 -0.002058 0.001341
v -0.002958 0.002713 0.003249
v -0.002958 -0.002058 0.001341
v -0.002958 0.002713 0.001341
v -0.002958 -0.002058 0.003249
v -0.001050 0.002713 0.003249
v -0.001050 -0.002058 0.003249
v -0.001050 0.002713 0.001341
v -0.001050 -0.002058 0.001341
v -0.004962 0.002713 0.003249
v -0.004962 -0.002058 0.001341
v -0.004962 0.002713 0.001341
v -0.004962 -0.002058 0.003249
v -0.003053 0.002713 0.003249
v -0.003053 -0.002058 0.003249
v -0.003053 0.002713 0.001341
v -0.003053 -0.002058 0.001341
v -0.006966 0.002713 0.003249
v -0.006966 -0.002058 0.001341
v -0.006966 0.002713 0.001341
v -0.006966 -0.002058 0.003249
v -0.005057 0.002713 0.003249
v -0.005057 -0.002058 0.003249
v -0.005057 0.002713 0.001341
v -0.005057 -0.002058 0.001341
v 0.007013 -0.003394 -0.001188
v 0.007013 0.002713 -0.000997
v 0.007013 0.002713 -0.001188
v 0.007013 -0.003394 -0.000997
v -0.007013 0.002713 -0.001188
v -0.007013 -0.003394 -0.000997
v -0.007013 -0.003394 -0.001188
v -0.007013 0.002713 -0.000997
v -0.007300 -0.003394 -0.001188
v -0.007300 0.002713 -0.001188
v 0.007300 -0.003394 -0.001188
v 0.007300 0.002713 -0.001188
v -0.007300 0.002713 0.003583
v -0.000954 0.002713 0.003583
v 0.000954 0.002713 0.003583
v 0.007300 0.002713 0.003583
v 0.000954 0.001759 0.004537
v -0.000954 0.001759 0.004537
v -0.000954 0.001282 0.004537
v 0.000954 0.001282 0.004537
v -0.000954 0.001282 0.003583
v 0.000954 0.001282 0.003583
v -0.007300 -0.003394 0.003583
v 0.007300 -0.003394 0.003583
vn -1.0000 0.0000 0.0000
vn 1.0000 0.0000 0.0000
vn -0.0000 0.0000 -1.0000
vn -0.2806 -0.9598 -0.0000
vn -0.4954 -0.8687 -0.0000
vn -0.6832 -0.7302 -0.0000
vn -0.8339 -0.5520 -0.0000
vn -0.9391 -0.3437 -0.0000
vn -0.9932 -0.1167 -0.0000
vn -0.9932 0.1167 0.0000
vn -0.9391 0.3437 0.0000
vn -0.8339 0.5520 0.0000
vn -0.6832 0.7302 0.0000
vn -0.4954 0.8687 0.0000
vn -0.2806 0.9598 0.0000
vn 0.2806 0.9598 0.0000
vn 0.4954 0.8687 0.0000
vn 0.6832 0.7302 0.0000
vn 0.8339 0.5520 0.0000
vn 0.9391 0.3437 0.0000
vn 0.9932 0.1167 0.0000
vn 0.9932 -0.1167 -0.0000
vn 0.9391 -0.3437 -0.0000
vn 0.8339 -0.5520 -0.0000
vn 0.6832 -0.7302 -0.0000
vn 0.4954 -0.8687 -0.0000
vn 0.2806 -0.9598 -0.0000
vn 0.0000 -0.0000 1.0000
vn 0.0000 1.0000 0.0000
vn 0.0000 1.0000 -0.0001
vn 0.0000 0.7071 0.7071
vn 0.0000 -1.0000 -0.0000
usemtl material_1.366
s 1
f 1//1 2//1 3//1
f 3//1 2//1 4//1
usemtl material_0.373
f 5//2 6//2 7//2
f 8//2 6//2 5//2
f 9//1 10//1 11//1
f 11//1 10//1 12//1
f 13//2 14//2 15//2
f 16//2 14//2 13//2
f 17//3 7//3 18//3
f 19//3 7//3 17//3
f 20//3 21//3 22//3
f 23//3 24//3 25//3
f 26//3 24//3 23//3
f 22//3 24//3 26//3
f 21//3 24//3 22//3
f 27//3 5//3 19//3
f 25//3 5//3 27//3
f 19//3 5//3 7//3
f 24//3 5//3 25//3
f 3//3 28//3 29//3
f 28//3 30//3 31//3
f 4//3 32//3 3//3
f 33//3 32//3 4//3
f 34//3 32//3 33//3
f 35//3 32//3 36//3
f 37//3 32//3 35//3
f 38//3 32//3 37//3
f 30//3 32//3 38//3
f 3//3 32//3 28//3
f 28//3 32//3 30//3
f 18//4 7//4 6//4
f 18//4 6//4 39//4
f 17//5 39//5 40//5
f 17//5 18//5 39//5
f 19//6 40//6 41//6
f 19//6 17//6 40//6
f 27//7 41//7 42//7
f 27//7 19//7 41//7
f 25//8 42//8 43//8
f 25//8 27//8 42//8
f 23//9 43//9 44//9
f 23//9 25//9 43//9
f 26//10 44//10 45//10
f 26//10 23//10 44//10
f 22//11 45//11 46//11
f 22//11 26//11 45//11
f 20//12 46//12 47//12
f 20//12 22//12 46//12
f 21//13 47//13 48//13
f 21//13 20//13 47//13
f 24//14 48//14 49//14
f 24//14 21//14 48//14
f 5//15 49//15 8//15
f 5//15 24//15 49//15
f 33//16 4//16 2//16
f 33//16 2//16 50//16
f 34//17 50//17 51//17
f 34//17 33//17 50//17
f 32//18 51//18 52//18
f 32//18 34//18 51//18
f 36//19 52//19 53//19
f 36//19 32//19 52//19
f 35//20 53//20 54//20
f 35//20 36//20 53//20
f 37//21 54//21 55//21
f 37//21 35//21 54//21
f 38//22 55//22 56//22
f 38//22 37//22 55//22
f 30//23 56//23 57//23
f 30//23 38//23 56//23
f 31//24 57//24 58//24
f 31//24 30//24 57//24
f 28//25 58//25 59//25
f 28//25 31//25 58//25
f 29//26 59//26 60//26
f 29//26 28//26 59//26
f 3//27 60//27 1//27
f 3//27 29//27 60//27
f 61//3 15//3 62//3
f 63//3 15//3 61//3
f 64//3 65//3 63//3
f 66//3 65//3 64//3
f 63//3 65//3 15//3
f 67//3 68//3 69//3
f 69//3 13//3 65//3
f 70//3 13//3 68//3
f 71//3 13//3 70//3
f 65//3 13//3 15//3
f 68//3 13//3 69//3
f 11//3 72//3 73//3
f 72//3 74//3 75//3
f 76//3 77//3 12//3
f 12//3 78//3 11//3
f 79//3 78//3 80//3
f 81//3 78//3 79//3
f 82//3 78//3 81//3
f 74//3 78//3 82//3
f 11//3 78//3 72//3
f 72//3 78//3 74//3
f 77//3 78//3 12//3
f 62//4 15//4 14//4
f 62//5 83//5 84//5
f 62//4 14//4 83//4
f 61//6 84//6 85//6
f 61//5 62//5 84//5
f 63//7 85//7 86//7
f 63//6 61//6 85//6
f 64//8 86//8 87//8
f 64//7 63//7 86//7
f 66//9 87//9 88//9
f 66//8 64//8 87//8
f 65//10 88//10 89//10
f 65//9 66//9 88//9
f 69//11 89//11 90//11
f 69//10 65//10 89//10
f 67//12 90//12 91//12
f 67//11 69//11 90//11
f 68//13 91//13 92//13
f 68//12 67//12 91//12
f 70//13 68//13 92//13
f 71//14 92//14 93//14
f 71//14 70//14 92//14
f 13//15 93//15 16//15
f 13//15 71//15 93//15
f 76//16 12//16 10//16
f 76//16 10//16 94//16
f 77//17 94//17 95//17
f 77//17 76//17 94//17
f 78//18 95//18 96//18
f 78//18 77//18 95//18
f 80//19 96//19 97//19
f 80//19 78//19 96//19
f 79//20 97//20 98//20
f 79//20 80//20 97//20
f 81//21 98//21 99//21
f 81//21 79//21 98//21
f 82//22 99//22 100//22
f 82//22 81//22 99//22
f 74//23 100//23 101//23
f 74//23 82//23 100//23
f 75//24 101//24 102//24
f 75//24 74//24 101//24
f 72//25 102//25 103//25
f 72//25 75//25 102//25
f 73//26 103//26 104//26
f 73//26 72//26 103//26
f 11//27 104//27 9//27
f 11//27 73//27 104//27
f 105//2 106//2 107//2
f 108//2 106//2 105//2
f 109//3 108//3 105//3
f 110//3 108//3 109//3
f 111//1 110//1 109//1
f 112//1 110//1 111//1
f 107//28 112//28 111//28
f 106//28 112//28 107//28
f 110//29 112//29 106//29
f 110//29 106//29 108//29
f 113//2 114//2 115//2
f 116//2 114//2 113//2
f 117//3 116//3 113//3
f 118//3 116//3 117//3
f 119//1 118//1 117//1
f 120//1 118//1 119//1
f 115//28 120//28 119//28
f 114//28 120//28 115//28
f 118//29 120//29 114//29
f 118//29 114//29 116//29
f 121//2 122//2 123//2
f 124//2 122//2 121//2
f 125//3 124//3 121//3
f 126//3 124//3 125//3
f 127//1 126//1 125//1
f 128//1 126//1 127//1
f 123//28 128//28 127//28
f 122//28 128//28 123//28
f 126//29 128//29 122//29
f 126//29 122//29 124//29
f 129//2 130//2 131//2
f 132//2 130//2 129//2
f 133//3 132//3 129//3
f 134//3 132//3 133//3
f 135//1 134//1 133//1
f 136//1 134//1 135//1
f 131//28 136//28 135//28
f 130//28 136//28 131//28
f 134//29 136//29 130//29
f 134//29 130//29 132//29
f 137//2 138//2 139//2
f 140//2 138//2 137//2
f 141//3 140//3 137//3
f 142//3 140//3 141//3
f 143//1 142//1 141//1
f 144//1 142//1 143//1
f 139//28 144//28 143//28
f 138//28 144//28 139//28
f 142//29 144//29 138//29
f 142//29 138//29 140//29
f 145//2 146//2 147//2
f 148//2 146//2 145//2
f 149//3 148//3 145//3
f 150//3 148//3 149//3
f 151//1 150//1 149//1
f 152//1 150//1 151//1
f 147//28 152//28 151//28
f 146//28 152//28 147//28
f 150//29 152//29 146//29
f 150//29 146//29 148//29
f 153//2 154//2 155//2
f 156//2 154//2 153//2
f 157//3 156//3 153//3
f 158//3 156//3 157//3
f 159//1 158//1 157//1
f 160//1 158//1 159//1
f 155//28 160//28 159//28
f 154//28 160//28 155//28
f 158//29 160//29 154//29
f 158//29 154//29 156//29
f 161//2 162//2 163//2
f 164//2 162//2 161//2
f 165//3 164//3 161//3
f 166//3 164//3 165//3
f 167//1 166//1 165//1
f 168//1 166//1 167//1
f 163//28 168//28 167//28
f 162//28 168//28 163//28
f 166//29 168//29 162//29
f 166//29 162//29 164//29
f 169//2 170//2 171//2
f 172//2 170//2 169//2
f 173//3 172//3 169//3
f 174//3 172//3 173//3
f 175//1 174//1 173//1
f 176//1 174//1 175//1
f 171//28 176//28 175//28
f 170//28 176//28 171//28
f 174//29 176//29 170//29
f 174//29 170//29 172//29
f 177//2 178//2 179//2
f 180//2 178//2 177//2
f 181//3 180//3 177//3
f 182//3 180//3 181//3
f 183//1 182//1 181//1
f 184//1 182//1 183//1
f 179//28 184//28 183//28
f 178//28 184//28 179//28
f 182//29 184//29 178//29
f 182//29 178//29 180//29
f 185//2 186//2 187//2
f 188//2 186//2 185//2
f 189//3 188//3 185//3
f 190//3 188//3 189//3
f 191//1 190//1 189//1
f 192//1 190//1 191//1
f 187//28 192//28 191//28
f 186//28 192//28 187//28
f 190//29 192//29 186//29
f 190//29 186//29 188//29
f 193//2 194//2 195//2
f 196//2 194//2 193//2
f 197//3 196//3 193//3
f 198//3 196//3 197//3
f 199//1 198//1 197//1
f 200//1 198//1 199//1
f 195//28 200//28 199//28
f 194//28 200//28 195//28
f 198//29 200//29 194//29
f 198//29 194//29 196//29
f 201//2 202//2 203//2
f 204//2 202//2 201//2
f 205//3 204//3 201//3
f 206//3 204//3 205//3
f 207//1 206//1 205//1
f 208//1 206//1 207//1
f 203//28 208//28 207//28
f 202//28 208//28 203//28
f 206//29 208//29 202//29
f 206//29 202//29 204//29
f 209//2 210//2 211//2
f 212//2 210//2 209//2
f 213//3 212//3 209//3
f 214//3 212//3 213//3
f 215//1 214//1 213//1
f 216//1 214//1 215//1
f 211//28 216//28 215//28
f 210//28 216//28 211//28
f 214//29 216//29 210//29
f 214//29 210//29 212//29
f 217//1 218//1 219//1
f 220//1 218//1 217//1
f 221//2 222//2 223//2
f 224//2 222//2 221//2
f 84//3 83//3 220//3
f 56//3 87//3 57//3
f 41//3 40//3 222//3
f 222//3 42//3 41//3
f 57//3 87//3 86//3
f 83//3 14//3 220//3
f 40//3 39//3 222//3
f 55//3 88//3 56//3
f 54//3 88//3 55//3
f 222//3 43//3 42//3
f 56//3 88//3 87//3
f 39//3 6//3 222//3
f 222//3 44//3 43//3
f 14//3 9//3 220//3
f 54//3 89//3 88//3
f 6//3 1//3 222//3
f 9//3 104//3 220//3
f 1//3 60//3 222//3
f 54//3 90//3 89//3
f 53//3 90//3 54//3
f 104//3 103//3 220//3
f 60//3 59//3 222//3
f 224//3 91//3 52//3
f 52//3 91//3 53//3
f 53//3 91//3 90//3
f 59//3 58//3 222//3
f 103//3 102//3 220//3
f 102//3 101//3 220//3
f 101//3 100//3 220//3
f 100//3 99//3 220//3
f 8//3 224//3 2//3
f 51//3 224//3 52//3
f 50//3 224//3 51//3
f 2//3 224//3 50//3
f 49//3 224//3 8//3
f 48//3 224//3 49//3
f 47//3 224//3 48//3
f 46//3 224//3 47//3
f 45//3 224//3 46//3
f 44//3 224//3 45//3
f 98//3 218//3 99//3
f 97//3 218//3 98//3
f 96//3 218//3 97//3
f 95//3 218//3 96//3
f 94//3 218//3 95//3
f 10//3 218//3 94//3
f 93//3 218//3 16//3
f 224//3 218//3 91//3
f 222//3 85//3 220//3
f 92//3 218//3 93//3
f 57//3 85//3 58//3
f 91//3 218//3 92//3
f 16//3 218//3 10//3
f 218//3 220//3 99//3
f 222//3 224//3 44//3
f 2//3 1//3 8//3
f 8//3 1//3 6//3
f 10//3 9//3 14//3
f 58//3 85//3 222//3
f 14//3 16//3 10//3
f 85//3 84//3 220//3
f 57//3 86//3 85//3
f 225//3 221//3 223//3
f 226//3 221//3 225//3
f 217//3 219//3 227//3
f 219//3 228//3 227//3
f 229//29 153//29 226//29
f 229//29 209//29 211//29
f 229//29 213//29 209//29
f 189//29 179//29 191//29
f 229//29 201//29 213//29
f 189//29 177//29 179//29
f 229//29 211//29 153//29
f 141//29 131//30 143//29
f 218//29 224//29 159//29
f 141//29 129//29 131//30
f 218//29 159//29 147//29
f 218//29 147//29 151//29
f 218//29 151//29 139//29
f 218//29 228//29 219//29
f 218//29 139//29 143//29
f 218//29 143//29 131//30
f 187//29 133//29 129//29
f 218//29 131//30 135//29
f 218//29 135//29 123//29
f 218//29 123//29 127//29
f 187//29 191//29 133//29
f 218//29 127//29 115//29
f 187//29 129//29 141//29
f 218//29 115//29 119//29
f 218//29 119//29 107//29
f 229//29 230//29 205//29
f 111//29 228//29 218//29
f 229//29 205//29 201//29
f 231//29 232//29 173//29
f 231//29 173//29 169//29
f 109//29 228//29 111//29
f 199//29 187//29 141//29
f 107//29 111//29 218//29
f 231//29 169//29 181//29
f 231//29 177//29 189//29
f 231//29 181//29 177//29
f 149//29 137//29 139//29
f 232//29 167//29 165//29
f 149//29 139//29 151//29
f 232//29 228//29 109//29
f 232//29 109//29 167//29
f 117//29 105//29 107//29
f 197//29 185//29 187//29
f 197//29 187//29 199//29
f 117//29 107//29 119//29
f 195//29 141//29 137//29
f 195//29 199//29 141//29
f 163//29 109//29 105//29
f 163//29 167//29 109//29
f 207//29 195//29 137//29
f 175//29 105//29 117//29
f 207//29 137//29 149//29
f 175//29 163//29 105//29
f 230//29 189//29 185//29
f 230//29 231//29 189//29
f 230//29 185//29 197//29
f 161//29 232//29 165//29
f 173//29 161//29 163//29
f 173//29 232//29 161//29
f 173//29 163//29 175//29
f 125//29 115//29 127//29
f 226//29 224//29 221//29
f 125//29 113//29 115//29
f 193//29 230//29 197//29
f 171//29 175//29 117//29
f 171//29 117//29 113//29
f 183//29 113//29 125//29
f 157//29 145//29 147//29
f 183//29 171//29 113//29
f 157//29 147//29 159//29
f 205//29 193//29 195//29
f 205//29 195//29 207//29
f 205//29 230//29 193//29
f 203//29 149//29 145//29
f 203//29 207//29 149//29
f 133//29 123//29 135//29
f 133//29 121//29 123//29
f 155//29 159//29 224//29
f 155//29 224//29 226//29
f 181//29 171//29 183//29
f 215//29 145//29 157//29
f 181//29 169//29 171//29
f 179//29 125//29 121//29
f 215//29 203//29 145//29
f 179//29 183//29 125//29
f 191//29 121//29 133//29
f 191//29 179//29 121//29
f 153//29 155//29 226//29
f 213//29 201//29 203//29
f 213//29 203//29 215//29
f 211//29 157//29 153//29
f 211//29 215//29 157//29
f 233//31 230//31 234//31
f 231//31 230//31 233//31
f 233//28 234//28 235//28
f 233//28 235//28 236//28
f 234//1 230//1 237//1
f 235//1 234//1 237//1
f 233//2 236//2 238//2
f 231//2 233//2 238//2
f 236//32 237//32 238//32
f 236//32 235//32 237//32
f 237//28 229//28 239//28
f 230//28 229//28 237//28
f 238//28 237//28 239//28
f 240//28 238//28 239//28
f 232//28 231//28 238//28
f 232//28 238//28 240//28
f 239//1 226//1 225//1
f 239//1 229//1 226//1
f 232//2 227//2 228//2
f 232//2 240//2 227//2
f 222//32 225//32 223//32
f 239//32 225//32 222//32
f 227//32 220//32 217//32
f 240//32 222//32 220//32
f 240//32 239//32 222//32
f 240//32 220//32 227//32
