# Blender v2.81 (sub 16) OBJ File: ''
# www.blender.org
mtllib Molex 22-27-2021.mtl
o Molex_22-27-2021
v 0.001773 0.013415 0.001541
v 0.001773 -0.000028 0.001541
v 0.003137 -0.000028 0.001541
v 0.003137 0.013415 0.001541
v 0.003137 -0.012399 0.001541
v 0.003137 -0.005093 0.001541
v 0.001773 -0.005093 0.001541
v 0.001773 -0.012399 0.001541
v 0.003137 -0.000028 0.000177
v 0.003137 0.013415 0.000177
v 0.001773 -0.005093 0.000177
v 0.001773 -0.012399 0.000177
v 0.001773 -0.000028 0.000177
v 0.001773 0.013415 0.000177
v 0.002942 -0.013373 0.001346
v 0.002942 -0.013373 0.000372
v 0.003137 -0.012399 0.000177
v 0.001968 -0.013373 0.000372
v 0.001968 -0.013373 0.001346
v 0.003137 -0.005093 0.000177
v 0.002942 0.014389 0.000372
v 0.002942 0.014389 0.001346
v 0.001968 0.014389 0.001346
v 0.001968 0.014389 0.000372
v -0.003137 0.013415 0.001541
v -0.003137 -0.000028 0.001541
v -0.001773 -0.000028 0.001541
v -0.001773 0.013415 0.001541
v -0.001773 -0.012399 0.001541
v -0.001773 -0.005093 0.001541
v -0.003137 -0.005093 0.001541
v -0.003137 -0.012399 0.001541
v -0.001773 -0.000028 0.000177
v -0.001773 0.013415 0.000177
v -0.003137 -0.005093 0.000177
v -0.003137 -0.012399 0.000177
v -0.003137 -0.000028 0.000177
v -0.003137 0.013415 0.000177
v -0.001968 -0.013373 0.001346
v -0.001968 -0.013373 0.000372
v -0.001773 -0.012399 0.000177
v -0.002942 -0.013373 0.000372
v -0.002942 -0.013373 0.001346
v -0.001773 -0.005093 0.000177
v -0.001968 0.014389 0.000372
v -0.001968 0.014389 0.001346
v -0.002942 0.014389 0.001346
v -0.002942 0.014389 0.000372
v 0.000487 -0.000028 -0.000310
v 0.000487 -0.005093 -0.000310
v 0.000487 -0.005093 0.002028
v 0.000487 -0.000028 0.002028
v 0.000896 -0.006262 0.006509
v 0.000896 -0.006262 0.002028
v 0.000896 -0.005093 0.002028
v 0.000896 -0.005093 0.006509
v -0.000896 -0.006262 -0.004791
v -0.000896 -0.006262 -0.000310
v -0.000896 -0.005093 -0.000310
v -0.000896 -0.005093 -0.004791
v -0.000896 -0.005093 0.006509
v -0.000896 -0.005093 0.002028
v -0.000896 -0.006262 0.002028
v -0.000896 -0.006262 0.006509
v -0.000487 -0.000028 0.002028
v -0.000487 -0.005093 0.002028
v -0.000487 -0.005093 -0.000310
v -0.000487 -0.000028 -0.000310
v 0.000896 -0.006262 -0.000310
v 0.000896 -0.005093 -0.000310
v -0.002007 0.016532 -0.003037
v -0.002055 0.016337 -0.002842
v 0.002055 0.016337 -0.002842
v 0.002007 0.016532 -0.003037
v -0.002494 0.014584 -0.004791
v -0.002494 0.014584 -0.002842
v -0.002007 0.016532 -0.004791
v 0.002007 0.016532 -0.004791
v 0.002494 -0.000028 -0.002453
v 0.002494 0.000362 -0.002842
v -0.002494 0.000362 -0.002842
v -0.002494 -0.000028 -0.002453
v -0.002494 0.004453 -0.002842
v 0.002494 0.004453 -0.002842
v 0.002494 0.005038 -0.001868
v -0.002494 0.005038 -0.001868
v 0.002494 0.006986 -0.001868
v 0.002494 0.007960 -0.002842
v -0.002494 0.007960 -0.002842
v -0.002494 0.006986 -0.001868
v 0.002494 0.014584 -0.002842
v 0.002494 0.014584 -0.004791
v -0.002494 -0.000028 -0.004791
v 0.002494 -0.000028 -0.004791
v -0.004013 -0.006262 0.006509
v -0.004013 -0.006262 -0.004791
v -0.004013 -0.005093 -0.004791
v -0.004013 -0.005093 0.006509
v -0.004929 -0.006262 0.006509
v -0.004929 -0.006262 -0.004791
v -0.004929 -0.000028 0.006509
v -0.004929 -0.000028 -0.004791
v 0.004929 -0.000028 0.006509
v 0.004929 -0.000028 -0.004791
v 0.004929 -0.006262 0.006509
v 0.004929 -0.006262 -0.004791
v 0.004013 -0.006262 0.006509
v 0.004013 -0.006262 -0.004791
v 0.004013 -0.005093 0.006509
v 0.004013 -0.005093 -0.004791
v 0.000896 -0.005093 -0.004791
v 0.000896 -0.006262 -0.004791
vn 0.0000 -0.0000 1.0000
vn 1.0000 0.0000 0.0000
vn -1.0000 -0.0000 0.0000
vn 0.0000 0.0000 -1.0000
vn 0.9806 -0.1961 0.0000
vn 0.0000 -0.1961 -0.9806
vn -0.9806 -0.1961 0.0000
vn 0.0000 -0.1961 0.9806
vn 0.0000 -1.0000 0.0000
vn 0.9806 0.1961 0.0000
vn 0.0000 0.1961 0.9806
vn -0.9806 0.1961 0.0000
vn 0.0000 0.1961 -0.9806
vn 0.0000 1.0000 0.0000
vn 0.0000 0.7071 0.7071
vn -0.9701 0.2425 0.0000
vn 0.0000 -0.8575 0.5145
vn 0.9701 0.2425 0.0000
usemtl Default_OBJ.010
s 1
f 1//1 2//1 3//1
f 4//1 1//1 3//1
f 5//1 6//1 7//1
f 8//1 5//1 7//1
f 4//2 3//2 9//2
f 10//2 4//2 9//2
f 8//3 7//3 11//3
f 12//3 8//3 11//3
f 10//4 9//4 13//4
f 14//4 10//4 13//4
f 5//5 15//5 16//5
f 17//5 5//5 16//5
f 17//6 16//6 18//6
f 12//6 17//6 18//6
f 12//7 18//7 19//7
f 8//7 12//7 19//7
f 15//8 5//8 8//8
f 19//8 15//8 8//8
f 17//2 20//2 6//2
f 5//2 17//2 6//2
f 18//9 16//9 15//9
f 19//9 18//9 15//9
f 10//10 21//10 22//10
f 4//10 10//10 22//10
f 4//11 22//11 23//11
f 1//11 4//11 23//11
f 1//12 23//12 24//12
f 14//12 1//12 24//12
f 21//13 10//13 14//13
f 24//13 21//13 14//13
f 12//4 11//4 20//4
f 17//4 12//4 20//4
f 23//14 22//14 21//14
f 24//14 23//14 21//14
f 14//3 13//3 2//3
f 1//3 14//3 2//3
f 25//1 26//1 27//1
f 28//1 25//1 27//1
f 29//1 30//1 31//1
f 32//1 29//1 31//1
f 28//2 27//2 33//2
f 34//2 28//2 33//2
f 32//3 31//3 35//3
f 36//3 32//3 35//3
f 34//4 33//4 37//4
f 38//4 34//4 37//4
f 29//5 39//5 40//5
f 41//5 29//5 40//5
f 41//6 40//6 42//6
f 36//6 41//6 42//6
f 36//7 42//7 43//7
f 32//7 36//7 43//7
f 39//8 29//8 32//8
f 43//8 39//8 32//8
f 41//2 44//2 30//2
f 29//2 41//2 30//2
f 42//9 40//9 39//9
f 43//9 42//9 39//9
f 34//10 45//10 46//10
f 28//10 34//10 46//10
f 28//11 46//11 47//11
f 25//11 28//11 47//11
f 25//12 47//12 48//12
f 38//12 25//12 48//12
f 45//13 34//13 38//13
f 48//13 45//13 38//13
f 36//4 35//4 44//4
f 41//4 36//4 44//4
f 47//14 46//14 45//14
f 48//14 47//14 45//14
f 38//3 37//3 26//3
f 25//3 38//3 26//3
f 49//3 50//3 51//3
f 52//3 49//3 51//3
f 53//2 54//2 55//2
f 56//2 53//2 55//2
f 57//3 58//3 59//3
f 60//3 57//3 59//3
f 61//3 62//3 63//3
f 64//3 61//3 63//3
f 64//9 63//9 54//9
f 53//9 64//9 54//9
f 65//2 66//2 67//2
f 68//2 65//2 67//2
f 50//1 49//1 68//1
f 67//1 50//1 68//1
f 69//1 50//1 67//1
f 58//1 69//1 67//1
f 59//1 58//1 67//1
f 50//1 69//1 70//1
f 66//4 65//4 52//4
f 51//4 66//4 52//4
f 63//4 66//4 51//4
f 54//4 63//4 51//4
f 55//4 54//4 51//4
f 66//4 63//4 62//4
f 71//15 72//15 73//15
f 74//15 71//15 73//15
f 75//16 76//16 72//16
f 71//16 75//16 72//16
f 77//16 75//16 71//16
f 77//14 71//14 74//14
f 78//14 77//14 74//14
f 79//15 80//15 81//15
f 82//15 79//15 81//15
f 83//1 81//1 80//1
f 84//1 83//1 80//1
f 84//17 85//17 86//17
f 83//17 84//17 86//17
f 87//15 88//15 89//15
f 90//15 87//15 89//15
f 91//1 73//1 72//1
f 76//1 91//1 72//1
f 88//1 91//1 76//1
f 89//1 88//1 76//1
f 92//18 78//18 74//18
f 73//18 92//18 74//18
f 91//18 92//18 73//18
f 85//1 87//1 90//1
f 86//1 85//1 90//1
f 89//3 76//3 75//3
f 93//3 89//3 75//3
f 83//3 89//3 93//3
f 81//3 83//3 93//3
f 82//3 81//3 93//3
f 83//3 86//3 90//3
f 89//3 83//3 90//3
f 94//2 92//2 88//2
f 84//2 94//2 88//2
f 80//2 94//2 84//2
f 88//2 92//2 91//2
f 84//2 88//2 87//2
f 85//2 84//2 87//2
f 94//2 80//2 79//2
f 95//2 96//2 97//2
f 98//2 95//2 97//2
f 99//9 100//9 96//9
f 95//9 99//9 96//9
f 101//3 102//3 100//3
f 99//3 101//3 100//3
f 2//14 13//14 52//14
f 103//14 2//14 52//14
f 3//14 2//14 103//14
f 104//14 3//14 103//14
f 9//14 3//14 104//14
f 79//14 9//14 104//14
f 13//14 9//14 79//14
f 49//14 13//14 79//14
f 52//14 13//14 49//14
f 33//14 27//14 65//14
f 68//14 33//14 65//14
f 82//14 33//14 68//14
f 49//14 82//14 68//14
f 79//14 82//14 49//14
f 101//14 65//14 27//14
f 26//14 101//14 27//14
f 102//14 101//14 26//14
f 37//14 102//14 26//14
f 82//14 102//14 37//14
f 33//14 82//14 37//14
f 103//14 52//14 65//14
f 101//14 103//14 65//14
f 102//14 82//14 93//14
f 79//14 104//14 94//14
f 105//2 106//2 104//2
f 103//2 105//2 104//2
f 107//9 108//9 106//9
f 105//9 107//9 106//9
f 109//3 110//3 108//3
f 107//3 109//3 108//3
f 11//9 7//9 70//9
f 111//9 11//9 70//9
f 110//9 11//9 111//9
f 7//9 6//9 56//9
f 55//9 7//9 56//9
f 70//9 7//9 55//9
f 51//9 70//9 55//9
f 50//9 70//9 51//9
f 6//9 20//9 110//9
f 109//9 6//9 110//9
f 56//9 6//9 109//9
f 110//9 20//9 11//9
f 111//2 70//2 69//2
f 112//2 111//2 69//2
f 112//9 69//9 58//9
f 57//9 112//9 58//9
f 30//9 44//9 62//9
f 61//9 30//9 62//9
f 31//9 30//9 61//9
f 98//9 31//9 61//9
f 97//9 31//9 98//9
f 44//9 35//9 60//9
f 59//9 44//9 60//9
f 62//9 44//9 59//9
f 66//9 62//9 59//9
f 67//9 66//9 59//9
f 97//9 60//9 35//9
f 31//9 97//9 35//9
f 98//1 61//1 101//1
f 99//1 98//1 101//1
f 95//1 98//1 99//1
f 61//1 64//1 53//1
f 56//1 61//1 53//1
f 101//1 61//1 56//1
f 103//1 101//1 56//1
f 109//1 103//1 56//1
f 105//1 103//1 109//1
f 107//1 105//1 109//1
f 60//4 97//4 93//4
f 94//4 60//4 93//4
f 111//4 60//4 94//4
f 110//4 111//4 94//4
f 104//4 110//4 94//4
f 106//4 110//4 104//4
f 97//4 96//4 100//4
f 102//4 97//4 100//4
f 93//4 97//4 102//4
f 92//4 94//4 93//4
f 75//4 92//4 93//4
f 78//4 92//4 75//4
f 77//4 78//4 75//4
f 110//4 106//4 108//4
f 111//4 112//4 57//4
f 60//4 111//4 57//4
