# Blender v2.81 (sub 16) OBJ File: ''
# www.blender.org
mtllib o-ring electric plug.mtl
o o-ring_electric_plug
v 0.000000 0.005879 -0.003240
v 0.000000 0.004136 -0.002455
v 0.000000 0.005086 -0.004382
v 0.000000 0.004586 -0.001452
v 0.000000 -0.002836 0.006085
v 0.000000 -0.004060 0.005346
v 0.000000 -0.002799 0.003912
v 0.000000 -0.002052 0.004351
v 0.000000 -0.001324 0.004624
v 0.000000 0.006416 -0.001976
v 0.000000 -0.003163 -0.003623
v 0.000000 -0.004873 -0.004617
v 0.000000 -0.003790 -0.005540
v 0.000000 -0.003891 -0.002828
v 0.000000 -0.005747 -0.003470
v 0.000000 -0.001477 0.006548
v 0.000000 -0.000628 0.004769
v 0.000000 -0.002175 -0.004290
v 0.000000 -0.002555 -0.006208
v 0.000000 -0.004422 -0.001893
v 0.000000 -0.006361 -0.002146
v 0.000000 0.006682 -0.000643
v 0.000000 0.004799 -0.000333
v 0.000000 -0.001131 -0.004675
v 0.000000 -0.001198 -0.006605
v 0.000000 -0.004741 -0.000814
v 0.000000 -0.006676 -0.000702
v 0.000000 -0.000000 0.006713
v 0.000000 0.000000 -0.004810
v 0.000000 0.000000 -0.006713
v 0.000000 -0.000000 0.004810
v 0.000000 -0.004799 0.000333
v 0.000000 -0.006682 0.000643
v 0.000000 0.006676 0.000702
v 0.000000 0.004741 0.000814
v 0.000000 0.000628 -0.004769
v 0.000000 0.001477 -0.006548
v 0.000000 0.001198 0.006605
v 0.000000 0.001131 0.004675
v 0.000000 0.006361 0.002146
v 0.000000 0.004422 0.001893
v 0.000000 0.001324 -0.004624
v 0.000000 0.002836 -0.006085
v 0.000000 0.002555 0.006208
v 0.000000 0.002175 0.004290
v 0.000000 -0.004586 0.001452
v 0.000000 -0.006416 0.001976
v 0.000000 0.005747 0.003470
v 0.000000 0.003891 0.002828
v 0.000000 -0.005879 0.003240
v 0.000000 0.002052 -0.004351
v 0.000000 0.003790 0.005540
v 0.000000 0.003163 0.003623
v 0.000000 -0.004136 0.002455
v 0.000000 0.004873 0.004617
v 0.000000 0.002799 -0.003912
v 0.000000 0.004060 -0.005346
v 0.000000 -0.005086 0.004382
v 0.000000 -0.003516 0.003283
v 0.000000 0.003516 -0.003283
vn 1.0000 0.0000 0.0000
usemtl Default_OBJ.017
s 1
f 1//1 2//1 3//1
f 4//1 2//1 1//1
f 5//1 6//1 7//1
f 5//1 7//1 8//1
f 9//1 5//1 8//1
f 10//1 4//1 1//1
f 11//1 12//1 13//1
f 14//1 15//1 12//1
f 14//1 12//1 11//1
f 16//1 5//1 9//1
f 16//1 9//1 17//1
f 18//1 13//1 19//1
f 18//1 11//1 13//1
f 20//1 21//1 15//1
f 20//1 15//1 14//1
f 22//1 4//1 10//1
f 22//1 23//1 4//1
f 24//1 19//1 25//1
f 24//1 18//1 19//1
f 26//1 27//1 21//1
f 26//1 21//1 20//1
f 28//1 16//1 17//1
f 29//1 25//1 30//1
f 28//1 17//1 31//1
f 29//1 24//1 25//1
f 32//1 33//1 27//1
f 32//1 27//1 26//1
f 34//1 23//1 22//1
f 34//1 35//1 23//1
f 36//1 30//1 37//1
f 38//1 31//1 39//1
f 36//1 29//1 30//1
f 38//1 28//1 31//1
f 40//1 41//1 35//1
f 42//1 36//1 37//1
f 40//1 35//1 34//1
f 43//1 42//1 37//1
f 44//1 39//1 45//1
f 44//1 38//1 39//1
f 46//1 47//1 33//1
f 46//1 33//1 32//1
f 48//1 49//1 41//1
f 50//1 47//1 46//1
f 48//1 41//1 40//1
f 51//1 42//1 43//1
f 52//1 45//1 53//1
f 52//1 44//1 45//1
f 54//1 50//1 46//1
f 55//1 53//1 49//1
f 55//1 52//1 53//1
f 55//1 49//1 48//1
f 56//1 51//1 43//1
f 56//1 43//1 57//1
f 58//1 50//1 54//1
f 59//1 58//1 54//1
f 60//1 56//1 57//1
f 3//1 60//1 57//1
f 6//1 58//1 59//1
f 6//1 59//1 7//1
f 2//1 60//1 3//1
