# Blender v2.81 (sub 16) OBJ File: ''
# www.blender.org
mtllib PHDR-08VS.mtl
o PHDR-08VS
v -0.001642 -0.010927 -0.002090
v -0.001642 -0.010330 -0.003881
v -0.001642 -0.010927 -0.003881
v -0.001642 -0.010330 -0.002090
v -0.003433 -0.010927 -0.002090
v -0.003433 -0.010330 -0.002090
v 0.002537 -0.010927 0.003881
v -0.001642 -0.010927 0.008060
v -0.001642 -0.010927 0.003881
v 0.002537 -0.010927 0.008060
v 0.006717 -0.010927 -0.012538
v 0.004329 -0.010927 -0.008060
v 0.004329 -0.010927 -0.009851
v -0.003433 -0.010927 0.003881
v -0.005821 -0.010927 0.004627
v -0.003433 -0.010927 0.002090
v 0.002537 -0.010927 -0.009851
v -0.003433 -0.010927 0.008060
v -0.001642 -0.010927 0.009851
v 0.004329 -0.010927 -0.003881
v 0.002537 -0.010927 0.009851
v -0.005821 -0.010927 -0.012538
v -0.001642 -0.010927 -0.009851
v -0.005821 -0.010927 0.007314
v 0.004329 -0.010927 -0.002090
v 0.002537 -0.010927 -0.003881
v 0.002537 -0.010927 -0.008060
v -0.003433 -0.010927 0.009851
v -0.007015 -0.010927 0.007314
v -0.007015 -0.010927 0.004627
v -0.003433 -0.010927 -0.009851
v 0.006717 -0.010927 0.012538
v -0.005821 -0.010927 0.012538
v -0.001642 -0.010927 -0.008060
v 0.004329 -0.010927 0.002090
v -0.005821 -0.010927 -0.004627
v -0.003433 -0.010927 -0.008060
v -0.005821 -0.010927 -0.007314
v 0.002537 -0.010927 0.002090
v 0.002537 -0.010927 -0.002090
v -0.003433 -0.010927 -0.003881
v -0.007015 -0.010927 -0.007314
v -0.007015 -0.010927 -0.004627
v -0.001642 -0.010927 0.002090
v 0.004329 -0.010927 0.003881
v 0.004329 -0.010927 0.008060
v 0.004329 -0.010927 0.009851
v -0.003433 -0.010330 -0.003881
v 0.003134 -0.003464 -0.012538
v 0.006717 -0.000479 -0.012538
v 0.005224 -0.000479 -0.012538
v 0.000746 -0.003464 -0.012538
v 0.007911 0.007283 -0.012538
v 0.007911 0.000566 -0.012538
v 0.005224 0.000566 -0.012538
v -0.004329 -0.000479 -0.012538
v 0.003134 0.007283 -0.012538
v -0.004329 0.000566 -0.012538
v -0.005821 -0.000479 -0.012538
v -0.007015 0.007283 -0.012538
v -0.007015 0.000566 -0.012538
v 0.000746 0.007283 -0.012538
v -0.001642 -0.010330 0.008060
v -0.001642 -0.010330 0.009851
v -0.001642 -0.010330 0.003881
v -0.003433 -0.010330 0.003881
v 0.006717 -0.000479 0.012538
v 0.004329 -0.010330 -0.008060
v 0.002537 -0.010330 -0.008060
v 0.002537 -0.010330 -0.009851
v 0.004329 -0.010330 -0.009851
v -0.003433 -0.010330 -0.009851
v -0.001642 -0.010330 -0.009851
v 0.004329 -0.010330 0.003881
v 0.004329 -0.010330 0.002090
v -0.007015 -0.001971 0.004627
v -0.007015 -0.001971 0.007314
v -0.005821 -0.001971 -0.007314
v -0.005821 -0.001971 -0.004627
v -0.005821 -0.001971 0.004627
v -0.005821 -0.001971 0.007314
v -0.005821 -0.000479 0.012538
v -0.007015 -0.001971 -0.007314
v -0.003433 -0.010330 -0.008060
v -0.003433 -0.010330 0.009851
v 0.002537 -0.010330 0.002090
v -0.003433 -0.010330 0.002090
v -0.001642 -0.010330 0.002090
v -0.007015 -0.001971 -0.004627
v -0.001642 -0.010330 -0.008060
v 0.002537 -0.010330 0.003881
v 0.004329 -0.010330 0.009851
v 0.004329 -0.010330 0.008060
v 0.002537 -0.010330 0.008060
v 0.004329 -0.010330 -0.002090
v 0.004329 -0.010330 -0.003881
v 0.002537 -0.010330 -0.003881
v -0.003433 -0.010330 0.008060
v 0.003134 -0.003464 0.012538
v 0.005224 -0.000479 0.012538
v 0.000746 -0.003464 0.012538
v 0.007911 0.000566 0.012538
v 0.007911 0.007283 0.012538
v 0.005224 0.000566 0.012538
v -0.004329 -0.000479 0.012538
v 0.003134 0.007283 0.012538
v -0.004329 0.000566 0.012538
v -0.007015 0.007283 0.012538
v -0.007015 0.000566 0.012538
v 0.000746 0.007283 0.012538
v 0.002537 -0.010330 0.009851
v 0.002537 -0.010330 -0.002090
v 0.003134 0.009522 -0.014777
v 0.007911 0.009522 -0.014777
v 0.003134 -0.003464 -0.014777
v 0.000746 -0.003464 -0.014777
v -0.007015 0.010865 -0.014777
v -0.007015 0.009522 -0.014777
v -0.007015 0.009522 0.014777
v -0.007015 0.010865 0.014777
v 0.000746 0.009522 -0.014777
v 0.007911 0.010865 -0.014777
v 0.007911 0.010865 0.014777
v 0.007911 0.009522 0.014777
v 0.003134 -0.003464 0.014777
v 0.003134 0.009522 0.014777
v 0.000746 -0.003464 0.014777
v 0.000746 0.009522 0.014777
v 0.001045 0.010865 0.006642
v 0.005821 0.010865 0.006642
v 0.001045 0.010865 0.005299
v 0.001045 0.010865 0.011269
v 0.005821 0.010865 0.005299
v 0.005821 0.010865 0.000672
v 0.005821 0.010865 0.011269
v -0.004926 0.010865 -0.005299
v -0.004926 0.010865 -0.006642
v -0.004926 0.010865 -0.011269
v -0.004926 0.010865 -0.000672
v -0.004926 0.010865 0.000672
v 0.005821 0.010865 -0.000672
v 0.005821 0.010865 -0.005299
v -0.000149 0.010865 -0.011269
v 0.001045 0.010865 -0.011269
v -0.000149 0.010865 -0.006642
v 0.001045 0.010865 -0.006642
v -0.000149 0.010865 -0.005299
v 0.005821 0.010865 -0.011269
v 0.001045 0.010865 -0.005299
v 0.005821 0.010865 -0.006642
v -0.000149 0.010865 -0.000672
v 0.001045 0.010865 -0.000672
v -0.000149 0.010865 0.000672
v 0.001045 0.010865 0.000672
v -0.000149 0.010865 0.005299
v -0.004926 0.010865 0.005299
v -0.000149 0.010865 0.006642
v -0.004926 0.010865 0.006642
v -0.004926 0.010865 0.011269
v -0.000149 0.010865 0.011269
v 0.001045 0.010268 0.011269
v 0.001045 0.010268 0.006642
v -0.000149 0.010268 0.000672
v -0.000149 0.010268 0.005299
v -0.004926 0.010268 0.005299
v -0.004926 0.010268 0.000672
v -0.000149 0.010268 -0.011269
v -0.000149 0.010268 -0.006642
v -0.004926 0.010268 0.011269
v -0.000149 0.010268 0.011269
v -0.000149 0.010268 -0.005299
v -0.000149 0.010268 -0.000672
v 0.005821 0.010268 -0.011269
v 0.001045 0.010268 -0.011269
v 0.001045 0.010268 -0.006642
v 0.005821 0.010268 -0.006642
v 0.001045 0.010268 -0.005299
v 0.001045 0.010268 -0.000672
v -0.004926 0.010268 0.006642
v 0.005821 0.010268 -0.005299
v 0.005821 0.010268 0.006642
v 0.005821 0.010268 0.011269
v -0.004926 0.010268 -0.005299
v -0.004926 0.010268 -0.011269
v 0.005821 0.010268 0.000672
v 0.005821 0.010268 0.005299
v 0.001045 0.010268 0.000672
v -0.000149 0.010268 0.006642
v 0.001045 0.010268 0.005299
v -0.004926 0.010268 -0.000672
v -0.004926 0.010268 -0.006642
v 0.005821 0.010268 -0.000672
vn -1.0000 0.0000 0.0000
vn 0.0000 0.0000 -1.0000
vn 0.0000 -1.0000 0.0000
vn 0.0000 0.0000 1.0000
vn 1.0000 0.0000 0.0000
vn 0.0000 1.0000 0.0000
vn 0.0000 -0.7071 -0.7071
vn 0.0000 -0.7071 0.7071
usemtl material_1.417
s 1
f 1//1 2//1 3//1
f 4//1 2//1 1//1
usemtl material_0.424
f 5//2 4//2 1//2
f 6//2 4//2 5//2
f 7//3 8//3 9//3
f 10//3 8//3 7//3
f 11//3 12//3 13//3
f 14//3 15//3 16//3
f 13//3 17//3 11//3
f 9//3 18//3 14//3
f 8//3 18//3 9//3
f 10//3 19//3 8//3
f 11//3 20//3 12//3
f 21//3 19//3 10//3
f 17//3 22//3 11//3
f 23//3 22//3 17//3
f 14//3 24//3 15//3
f 18//3 24//3 14//3
f 11//3 25//3 20//3
f 12//3 26//3 27//3
f 18//3 28//3 24//3
f 20//3 26//3 12//3
f 24//3 29//3 15//3
f 15//3 29//3 30//3
f 23//3 31//3 22//3
f 32//3 33//3 21//3
f 21//3 33//3 19//3
f 27//3 34//3 17//3
f 28//3 33//3 24//3
f 17//3 34//3 23//3
f 19//3 33//3 28//3
f 11//3 32//3 25//3
f 25//3 32//3 35//3
f 15//3 36//3 16//3
f 16//3 36//3 5//3
f 26//3 3//3 27//3
f 27//3 3//3 34//3
f 37//3 38//3 31//3
f 31//3 38//3 22//3
f 25//3 39//3 40//3
f 35//3 39//3 25//3
f 40//3 1//3 26//3
f 26//3 1//3 3//3
f 34//3 41//3 37//3
f 3//3 41//3 34//3
f 38//3 36//3 42//3
f 37//3 36//3 38//3
f 41//3 36//3 37//3
f 41//3 5//3 36//3
f 36//3 43//3 42//3
f 39//3 44//3 40//3
f 40//3 44//3 1//3
f 1//3 16//3 5//3
f 44//3 16//3 1//3
f 39//3 9//3 44//3
f 7//3 9//3 39//3
f 45//3 10//3 7//3
f 46//3 10//3 45//3
f 35//3 32//3 45//3
f 46//3 32//3 47//3
f 45//3 32//3 46//3
f 32//3 21//3 47//3
f 3//4 48//4 41//4
f 2//4 48//4 3//4
f 2//3 4//3 6//3
f 2//3 6//3 48//3
f 48//5 5//5 41//5
f 6//5 5//5 48//5
f 49//2 50//2 11//2
f 51//2 50//2 49//2
f 52//2 11//2 22//2
f 52//2 49//2 11//2
f 53//2 54//2 55//2
f 56//2 52//2 22//2
f 57//2 53//2 55//2
f 58//2 52//2 56//2
f 59//2 56//2 22//2
f 60//2 58//2 61//2
f 60//2 62//2 58//2
f 62//2 52//2 58//2
f 49//2 57//2 55//2
f 49//2 55//2 51//2
f 19//1 63//1 8//1
f 64//1 63//1 19//1
f 14//2 65//2 9//2
f 66//2 65//2 14//2
f 50//5 32//5 11//5
f 67//5 32//5 50//5
f 27//2 68//2 12//2
f 69//2 68//2 27//2
f 13//4 70//4 17//4
f 71//4 70//4 13//4
f 23//4 72//4 31//4
f 73//4 72//4 23//4
f 45//1 74//1 35//1
f 35//1 74//1 75//1
f 29//1 76//1 30//1
f 29//1 77//1 76//1
f 22//1 78//1 59//1
f 38//1 78//1 22//1
f 78//1 79//1 59//1
f 36//1 80//1 79//1
f 15//1 80//1 36//1
f 33//1 81//1 24//1
f 81//1 82//1 80//1
f 33//1 82//1 81//1
f 82//1 59//1 80//1
f 80//1 59//1 79//1
f 83//2 38//2 42//2
f 78//2 38//2 83//2
f 72//5 37//5 31//5
f 84//5 37//5 72//5
f 76//2 15//2 30//2
f 80//2 15//2 76//2
f 28//2 64//2 19//2
f 85//2 64//2 28//2
f 35//4 86//4 39//4
f 75//4 86//4 35//4
f 44//4 87//4 16//4
f 88//4 87//4 44//4
f 43//4 79//4 89//4
f 36//4 79//4 43//4
f 34//1 73//1 23//1
f 90//1 73//1 34//1
f 7//2 74//2 45//2
f 91//2 74//2 7//2
f 87//5 14//5 16//5
f 66//5 14//5 87//5
f 70//5 27//5 17//5
f 69//5 27//5 70//5
f 47//1 92//1 46//1
f 46//1 92//1 93//1
f 46//4 94//4 10//4
f 93//4 94//4 46//4
f 25//1 95//1 20//1
f 20//1 95//1 96//1
f 20//4 97//4 26//4
f 96//4 97//4 20//4
f 42//1 89//1 83//1
f 43//1 89//1 42//1
f 8//4 98//4 18//4
f 63//4 98//4 8//4
f 37//2 90//2 34//2
f 84//2 90//2 37//2
f 67//4 99//4 32//4
f 67//4 100//4 99//4
f 32//4 101//4 33//4
f 99//4 101//4 32//4
f 102//4 103//4 104//4
f 101//4 105//4 33//4
f 103//4 106//4 104//4
f 101//4 107//4 105//4
f 105//4 82//4 33//4
f 107//4 108//4 109//4
f 110//4 108//4 107//4
f 101//4 110//4 107//4
f 106//4 99//4 104//4
f 104//4 99//4 100//4
f 86//5 7//5 39//5
f 91//5 7//5 86//5
f 9//1 88//1 44//1
f 65//1 88//1 9//1
f 98//5 28//5 18//5
f 85//5 28//5 98//5
f 94//5 21//5 10//5
f 111//5 21//5 94//5
f 97//5 40//5 26//5
f 112//5 40//5 97//5
f 12//1 68//1 13//1
f 13//1 68//1 71//1
f 29//4 81//4 77//4
f 24//4 81//4 29//4
f 21//2 92//2 47//2
f 111//2 92//2 21//2
f 40//2 95//2 25//2
f 112//2 95//2 40//2
f 56//1 107//1 58//1
f 105//1 107//1 56//1
f 51//6 67//6 50//6
f 100//6 67//6 51//6
f 58//3 107//3 61//3
f 107//3 109//3 61//3
f 113//7 53//7 57//7
f 114//7 53//7 113//7
f 55//5 100//5 51//5
f 104//5 100//5 55//5
f 115//3 49//3 116//3
f 116//3 49//3 52//3
f 59//6 105//6 56//6
f 82//6 105//6 59//6
f 54//3 102//3 55//3
f 102//3 104//3 55//3
f 57//5 115//5 113//5
f 57//5 49//5 115//5
f 60//1 117//1 118//1
f 61//1 108//1 60//1
f 109//1 108//1 61//1
f 60//1 108//1 117//1
f 119//1 120//1 108//1
f 108//1 120//1 117//1
f 52//1 62//1 116//1
f 62//1 121//1 116//1
f 122//5 53//5 114//5
f 123//5 103//5 122//5
f 124//5 103//5 123//5
f 122//5 103//5 53//5
f 53//5 102//5 54//5
f 103//5 102//5 53//5
f 118//7 62//7 60//7
f 121//7 62//7 118//7
f 63//3 64//3 85//3
f 63//3 85//3 98//3
f 88//3 65//3 66//3
f 88//3 66//3 87//3
f 70//3 68//3 69//3
f 71//3 68//3 70//3
f 73//3 90//3 84//3
f 73//3 84//3 72//3
f 86//3 74//3 91//3
f 75//3 74//3 86//3
f 77//6 80//6 76//6
f 81//6 80//6 77//6
f 83//6 79//6 78//6
f 89//6 79//6 83//6
f 94//3 92//3 111//3
f 93//3 92//3 94//3
f 97//3 95//3 112//3
f 96//3 95//3 97//3
f 106//5 125//5 99//5
f 126//5 125//5 106//5
f 99//3 125//3 127//3
f 99//3 127//3 101//3
f 103//8 126//8 106//8
f 103//8 124//8 126//8
f 110//8 128//8 119//8
f 110//8 119//8 108//8
f 127//1 128//1 110//1
f 127//1 110//1 101//1
f 117//2 121//2 118//2
f 117//2 122//2 121//2
f 121//2 122//2 113//2
f 122//2 114//2 113//2
f 121//2 115//2 116//2
f 113//2 115//2 121//2
f 129//6 130//6 131//6
f 120//6 123//6 132//6
f 133//6 123//6 134//6
f 132//6 123//6 135//6
f 135//6 123//6 130//6
f 130//6 123//6 133//6
f 117//6 120//6 136//6
f 117//6 137//6 138//6
f 136//6 120//6 139//6
f 139//6 120//6 140//6
f 123//6 122//6 134//6
f 134//6 122//6 141//6
f 141//6 122//6 142//6
f 138//6 143//6 117//6
f 117//6 136//6 137//6
f 143//6 144//6 117//6
f 144//6 122//6 117//6
f 145//6 146//6 143//6
f 143//6 146//6 144//6
f 137//6 147//6 145//6
f 136//6 147//6 137//6
f 144//6 148//6 122//6
f 145//6 149//6 146//6
f 147//6 149//6 145//6
f 148//6 150//6 122//6
f 151//6 152//6 147//6
f 147//6 152//6 149//6
f 139//6 153//6 151//6
f 140//6 153//6 139//6
f 146//6 142//6 150//6
f 150//6 142//6 122//6
f 149//6 142//6 146//6
f 151//6 154//6 152//6
f 153//6 154//6 151//6
f 155//6 131//6 153//6
f 153//6 131//6 154//6
f 156//6 157//6 155//6
f 158//6 157//6 156//6
f 152//6 134//6 141//6
f 154//6 134//6 152//6
f 155//6 129//6 131//6
f 157//6 129//6 155//6
f 140//6 120//6 156//6
f 158//6 120//6 159//6
f 156//6 120//6 158//6
f 120//6 160//6 159//6
f 160//6 132//6 157//6
f 120//6 132//6 160//6
f 157//6 132//6 129//6
f 131//6 130//6 133//6
f 128//4 120//4 119//4
f 123//4 120//4 128//4
f 123//4 128//4 126//4
f 124//4 123//4 126//4
f 127//4 126//4 128//4
f 125//4 126//4 127//4
f 132//5 161//5 129//5
f 129//5 161//5 162//5
f 163//1 155//1 153//1
f 164//1 155//1 163//1
f 156//5 165//5 140//5
f 140//5 165//5 166//5
f 167//1 145//1 143//1
f 168//1 145//1 167//1
f 169//2 160//2 170//2
f 159//2 160//2 169//2
f 171//1 151//1 147//1
f 172//1 151//1 171//1
f 173//4 144//4 174//4
f 148//4 144//4 173//4
f 175//2 150//2 176//2
f 146//2 150//2 175//2
f 149//5 152//5 177//5
f 152//5 178//5 177//5
f 159//5 169//5 158//5
f 158//5 169//5 179//5
f 180//4 149//4 177//4
f 142//4 149//4 180//4
f 181//1 135//1 130//1
f 182//1 135//1 181//1
f 171//4 136//4 183//4
f 147//4 136//4 171//4
f 167//4 138//4 184//4
f 143//4 138//4 167//4
f 185//1 133//1 134//1
f 186//1 133//1 185//1
f 185//4 154//4 187//4
f 134//4 154//4 185//4
f 188//1 160//1 157//1
f 170//1 160//1 188//1
f 161//2 135//2 182//2
f 132//2 135//2 161//2
f 163//4 140//4 166//4
f 153//4 140//4 163//4
f 144//5 146//5 174//5
f 146//5 175//5 174//5
f 189//2 133//2 186//2
f 131//2 133//2 189//2
f 131//5 189//5 154//5
f 154//5 189//5 187//5
f 190//2 151//2 172//2
f 139//2 151//2 190//2
f 191//2 145//2 168//2
f 137//2 145//2 191//2
f 188//4 158//4 179//4
f 157//4 158//4 188//4
f 181//4 129//4 162//4
f 130//4 129//4 181//4
f 165//2 155//2 164//2
f 156//2 155//2 165//2
f 139//5 190//5 136//5
f 136//5 190//5 183//5
f 137//5 191//5 138//5
f 138//5 191//5 184//5
f 180//1 141//1 142//1
f 192//1 141//1 180//1
f 178//2 141//2 192//2
f 152//2 141//2 178//2
f 173//1 150//1 148//1
f 176//1 150//1 173//1
f 161//6 182//6 181//6
f 161//6 181//6 162//6
f 165//6 163//6 166//6
f 165//6 164//6 163//6
f 191//6 167//6 184//6
f 191//6 168//6 167//6
f 169//6 188//6 179//6
f 169//6 170//6 188//6
f 190//6 171//6 183//6
f 190//6 172//6 171//6
f 175//6 176//6 173//6
f 175//6 173//6 174//6
f 178//6 192//6 180//6
f 178//6 180//6 177//6
f 189//6 186//6 185//6
f 189//6 185//6 187//6
