# Blender v2.81 (sub 16) OBJ File: ''
# www.blender.org
mtllib PLS-2_(DS1021_CONNFLY).mtl
o PLS-2_(DS1021_CONNFLY)
v 0.003339 -0.000672 -0.002520
v 0.005335 -0.001407 -0.002520
v 0.005020 -0.001722 -0.002520
v 0.003339 0.000672 -0.002520
v 0.005020 0.001722 -0.002520
v 0.005335 0.001407 -0.002520
v 0.000315 -0.001722 -0.002520
v 0.001995 -0.000672 -0.002520
v 0.000000 -0.001407 -0.002520
v -0.001995 -0.000672 -0.002520
v -0.000315 -0.001722 -0.002520
v 0.000315 0.001722 -0.002520
v 0.001995 0.000672 -0.002520
v 0.000000 0.001407 -0.002520
v -0.001995 0.000672 -0.002520
v -0.000315 0.001722 -0.002520
v -0.005020 -0.001722 -0.002520
v -0.003339 -0.000672 -0.002520
v -0.005335 -0.001407 -0.002520
v -0.005020 0.001722 -0.002520
v -0.003339 0.000672 -0.002520
v -0.005335 0.001407 -0.002520
v -0.004915 -0.001155 0.001260
v -0.005335 -0.001155 0.001260
v -0.005335 -0.001407 0.001260
v -0.004074 -0.002667 0.001260
v -0.003339 -0.000672 0.001260
v -0.004915 0.001155 0.001260
v -0.005335 0.001407 0.001260
v -0.005335 0.001155 0.001260
v -0.003339 0.000672 0.001260
v -0.001995 -0.000672 0.001260
v -0.001260 -0.002667 0.001260
v -0.000420 -0.001155 0.001260
v 0.000000 -0.001407 0.001260
v -0.004074 0.002667 0.001260
v 0.000420 -0.001155 0.001260
v 0.001260 -0.002667 0.001260
v -0.000420 0.001155 0.001260
v -0.001995 0.000672 0.001260
v 0.001995 -0.000672 0.001260
v -0.001260 0.002667 0.001260
v 0.000000 0.001407 0.001260
v 0.000420 0.001155 0.001260
v 0.001995 0.000672 0.001260
v 0.003339 -0.000672 0.001260
v 0.004074 -0.002667 0.001260
v 0.004915 -0.001155 0.001260
v 0.001260 0.002667 0.001260
v 0.005335 -0.001407 0.001260
v 0.005335 -0.001155 0.001260
v 0.004915 0.001155 0.001260
v 0.003339 0.000672 0.001260
v 0.005335 0.001407 0.001260
v 0.005335 0.001155 0.001260
v 0.004074 0.002667 0.001260
v -0.001260 -0.002667 -0.003990
v -0.000315 -0.001722 -0.003990
v -0.005020 -0.001722 -0.003990
v -0.004074 -0.002667 -0.003990
v -0.005335 0.000945 0.001050
v -0.005335 -0.000945 0.001050
v -0.004074 0.002667 -0.003990
v -0.005020 0.001722 -0.003990
v -0.000315 0.001722 -0.003990
v -0.001260 0.002667 -0.003990
v 0.001260 0.002667 -0.003990
v 0.000315 0.001722 -0.003990
v 0.005020 0.001722 -0.003990
v 0.004074 0.002667 -0.003990
v 0.005335 -0.000945 0.001050
v 0.005335 0.000945 0.001050
v 0.004074 -0.002667 -0.003990
v 0.005020 -0.001722 -0.003990
v 0.000315 -0.001722 -0.003990
v 0.001260 -0.002667 -0.003990
v 0.005125 0.000945 0.001050
v -0.005125 0.000945 0.001050
v -0.005125 -0.000945 0.001050
v 0.005125 -0.000945 0.001050
v 0.000210 -0.000945 0.001050
v -0.000210 -0.000945 0.001050
v -0.000210 0.000945 0.001050
v 0.000210 0.000945 0.001050
v 0.003339 0.000672 0.013704
v 0.003339 -0.000672 0.013704
v 0.003339 -0.000672 -0.009714
v 0.003339 0.000672 -0.009714
v 0.001995 -0.000672 0.013704
v 0.001995 -0.000672 -0.009714
v 0.001995 0.000672 0.013704
v 0.001995 0.000672 -0.009714
v -0.001995 0.000672 -0.009714
v -0.003339 0.000672 -0.009714
v -0.003339 -0.000672 -0.009714
v -0.001995 -0.000672 -0.009714
v -0.003339 0.000672 0.013704
v -0.001995 0.000672 0.013704
v -0.001995 -0.000672 0.013704
v -0.003339 -0.000672 0.013704
v 0.003129 0.000462 0.014282
v 0.002205 0.000462 0.014282
v 0.002205 -0.000462 0.014282
v 0.003129 -0.000462 0.014282
v 0.002205 0.000462 -0.010291
v 0.003129 0.000462 -0.010291
v 0.002205 -0.000462 -0.010291
v 0.003129 -0.000462 -0.010291
v -0.003129 0.000462 -0.010291
v -0.002205 0.000462 -0.010291
v -0.003129 -0.000462 -0.010291
v -0.002205 -0.000462 -0.010291
v -0.003129 0.000462 0.014282
v -0.002205 0.000462 0.014282
v -0.002205 -0.000462 0.014282
v -0.003129 -0.000462 0.014282
vn 0.0000 0.0000 -1.0000
vn 0.0000 -0.0000 1.0000
vn 0.7071 -0.7071 -0.0000
vn 0.0000 1.0000 0.0000
vn -0.7071 -0.7071 -0.0000
vn -1.0000 0.0000 0.0000
vn -0.7071 0.7071 0.0000
vn 0.0000 -1.0000 0.0000
vn 0.7071 0.7071 0.0000
vn 1.0000 0.0000 0.0000
vn 0.0000 -0.7071 0.7071
vn -0.7071 0.0000 0.7071
vn 0.0000 0.7071 0.7071
vn 0.7071 0.0000 0.7071
vn 0.0000 0.9397 -0.3420
vn -0.9397 0.0000 -0.3420
vn 0.0000 -0.9397 -0.3420
vn 0.9397 0.0000 -0.3420
vn 0.0000 0.9397 0.3420
vn 0.9397 0.0000 0.3420
vn 0.0000 -0.9397 0.3420
vn -0.9397 0.0000 0.3420
usemtl material_0.287
s 1
f 1//1 2//1 3//1
f 4//1 5//1 6//1
f 4//1 6//1 2//1
f 4//1 2//1 1//1
f 7//1 8//1 1//1
f 7//1 1//1 3//1
f 9//1 8//1 7//1
f 10//1 9//1 11//1
f 12//1 4//1 13//1
f 12//1 5//1 4//1
f 14//1 13//1 8//1
f 14//1 12//1 13//1
f 14//1 8//1 9//1
f 15//1 16//1 14//1
f 15//1 9//1 10//1
f 15//1 14//1 9//1
f 17//1 18//1 10//1
f 17//1 10//1 11//1
f 19//1 18//1 17//1
f 20//1 15//1 21//1
f 20//1 16//1 15//1
f 22//1 21//1 18//1
f 22//1 20//1 21//1
f 22//1 18//1 19//1
f 23//2 24//2 25//2
f 23//2 25//2 26//2
f 27//2 23//2 26//2
f 28//2 29//2 30//2
f 31//2 28//2 23//2
f 31//2 23//2 27//2
f 32//2 26//2 33//2
f 32//2 27//2 26//2
f 34//2 32//2 33//2
f 35//2 34//2 33//2
f 36//2 29//2 28//2
f 36//2 28//2 31//2
f 37//2 35//2 38//2
f 37//2 34//2 35//2
f 39//2 40//2 32//2
f 39//2 32//2 34//2
f 41//2 37//2 38//2
f 42//2 31//2 40//2
f 42//2 36//2 31//2
f 42//2 40//2 39//2
f 42//2 39//2 43//2
f 44//2 43//2 39//2
f 45//2 44//2 37//2
f 45//2 37//2 41//2
f 46//2 38//2 47//2
f 46//2 41//2 38//2
f 48//2 46//2 47//2
f 49//2 43//2 44//2
f 49//2 44//2 45//2
f 50//2 48//2 47//2
f 51//2 48//2 50//2
f 52//2 53//2 46//2
f 52//2 46//2 48//2
f 54//2 52//2 55//2
f 56//2 52//2 54//2
f 56//2 45//2 53//2
f 56//2 49//2 45//2
f 56//2 53//2 52//2
f 11//3 57//3 58//3
f 33//3 57//3 11//3
f 35//3 11//3 9//3
f 35//3 33//3 11//3
f 11//4 59//4 17//4
f 58//4 59//4 11//4
f 17//5 59//5 60//5
f 25//5 19//5 17//5
f 26//5 25//5 17//5
f 26//5 17//5 60//5
f 61//6 29//6 22//6
f 30//6 29//6 61//6
f 62//6 22//6 19//6
f 62//6 61//6 22//6
f 25//6 24//6 62//6
f 25//6 62//6 19//6
f 20//7 63//7 64//7
f 36//7 63//7 20//7
f 29//7 20//7 22//7
f 29//7 36//7 20//7
f 20//8 65//8 16//8
f 64//8 65//8 20//8
f 16//9 65//9 66//9
f 43//9 14//9 16//9
f 42//9 43//9 16//9
f 42//9 16//9 66//9
f 12//7 67//7 68//7
f 49//7 67//7 12//7
f 43//7 12//7 14//7
f 43//7 49//7 12//7
f 68//8 69//8 12//8
f 12//8 69//8 5//8
f 5//9 69//9 70//9
f 54//9 6//9 5//9
f 56//9 54//9 5//9
f 56//9 5//9 70//9
f 71//10 50//10 2//10
f 51//10 50//10 71//10
f 72//10 2//10 6//10
f 72//10 71//10 2//10
f 54//10 55//10 72//10
f 54//10 72//10 6//10
f 3//3 73//3 74//3
f 47//3 73//3 3//3
f 50//3 3//3 2//3
f 50//3 47//3 3//3
f 3//4 75//4 7//4
f 74//4 75//4 3//4
f 7//5 75//5 76//5
f 35//5 9//5 7//5
f 38//5 35//5 7//5
f 38//5 7//5 76//5
f 77//11 55//11 52//11
f 77//11 72//11 55//11
f 49//4 70//4 67//4
f 49//4 56//4 70//4
f 36//4 66//4 63//4
f 36//4 42//4 66//4
f 78//11 28//11 30//11
f 61//11 78//11 30//11
f 78//12 23//12 28//12
f 78//12 79//12 23//12
f 79//13 24//13 23//13
f 79//13 62//13 24//13
f 33//8 60//8 57//8
f 33//8 26//8 60//8
f 47//8 76//8 73//8
f 47//8 38//8 76//8
f 80//13 48//13 51//13
f 71//13 80//13 51//13
f 80//14 52//14 48//14
f 80//14 77//14 52//14
f 81//13 82//13 34//13
f 81//13 34//13 37//13
f 82//14 39//14 34//14
f 82//14 83//14 39//14
f 83//11 84//11 44//11
f 83//11 44//11 39//11
f 84//12 37//12 44//12
f 84//12 81//12 37//12
f 60//1 58//1 57//1
f 59//1 58//1 60//1
f 78//2 62//2 79//2
f 78//2 61//2 62//2
f 63//1 65//1 64//1
f 66//1 65//1 63//1
f 67//1 69//1 68//1
f 70//1 69//1 67//1
f 72//2 77//2 80//2
f 72//2 80//2 71//2
f 76//1 74//1 73//1
f 75//1 74//1 76//1
f 84//2 83//2 82//2
f 84//2 82//2 81//2
usemtl material_1.282
f 85//10 86//10 46//10
f 85//10 46//10 53//10
f 4//10 87//10 88//10
f 4//10 1//10 87//10
f 86//8 89//8 41//8
f 86//8 41//8 46//8
f 1//8 90//8 87//8
f 1//8 8//8 90//8
f 89//6 91//6 45//6
f 89//6 45//6 41//6
f 8//6 92//6 90//6
f 8//6 13//6 92//6
f 91//4 85//4 53//4
f 91//4 53//4 45//4
f 13//4 88//4 92//4
f 13//4 4//4 88//4
f 21//4 93//4 94//4
f 21//4 15//4 93//4
f 18//6 94//6 95//6
f 18//6 21//6 94//6
f 10//8 95//8 96//8
f 10//8 18//8 95//8
f 15//10 96//10 93//10
f 15//10 10//10 96//10
f 97//4 98//4 40//4
f 97//4 40//4 31//4
f 98//10 99//10 32//10
f 98//10 32//10 40//10
f 99//8 100//8 27//8
f 99//8 27//8 32//8
f 100//6 97//6 31//6
f 100//6 31//6 27//6
f 101//2 102//2 103//2
f 101//2 103//2 104//2
f 105//1 106//1 107//1
f 107//1 106//1 108//1
f 93//15 109//15 94//15
f 110//15 109//15 93//15
f 94//16 111//16 95//16
f 109//16 111//16 94//16
f 95//17 112//17 96//17
f 111//17 112//17 95//17
f 96//18 110//18 93//18
f 112//18 110//18 96//18
f 113//19 98//19 97//19
f 113//19 114//19 98//19
f 114//20 99//20 98//20
f 114//20 115//20 99//20
f 115//21 100//21 99//21
f 115//21 116//21 100//21
f 116//22 97//22 100//22
f 116//22 113//22 97//22
f 109//1 110//1 111//1
f 111//1 110//1 112//1
f 114//2 113//2 116//2
f 114//2 116//2 115//2
f 103//22 91//22 89//22
f 103//22 102//22 91//22
f 104//21 89//21 86//21
f 104//21 103//21 89//21
f 101//20 86//20 85//20
f 101//20 104//20 86//20
f 102//19 85//19 91//19
f 102//19 101//19 85//19
f 92//16 107//16 90//16
f 105//16 107//16 92//16
f 90//17 108//17 87//17
f 107//17 108//17 90//17
f 87//18 106//18 88//18
f 108//18 106//18 87//18
f 88//15 105//15 92//15
f 106//15 105//15 88//15
