# Blender v2.81 (sub 16) OBJ File: ''
# www.blender.org
mtllib PLS-3RD_(DS1022_CONNFLY).mtl
o PLS-3RD_(DS1022_CONNFLY)
v -0.008126 0.005341 0.002574
v -0.010825 0.005341 0.003568
v -0.009120 0.005341 0.005273
v -0.008126 0.005341 0.000756
v -0.010825 0.005341 -0.000239
v -0.006307 0.005341 0.002574
v -0.005313 0.005341 0.005273
v -0.009120 0.005341 -0.001944
v -0.003608 0.005341 0.003568
v -0.006307 0.005341 0.000756
v -0.000909 0.005341 0.002574
v -0.001904 0.005341 0.005273
v -0.005313 0.005341 -0.001944
v -0.003608 0.005341 -0.000239
v -0.000909 0.005341 0.000756
v 0.000909 0.005341 0.002574
v 0.001904 0.005341 0.005273
v 0.003608 0.005341 0.003568
v -0.001904 0.005341 -0.001944
v 0.006307 0.005341 0.002574
v 0.005313 0.005341 0.005273
v 0.003608 0.005341 -0.000239
v 0.000909 0.005341 0.000756
v 0.001904 0.005341 -0.001944
v 0.006307 0.005341 0.000756
v 0.008126 0.005341 0.002574
v 0.009120 0.005341 0.005273
v 0.010825 0.005341 0.003568
v 0.005313 0.005341 -0.001944
v 0.008126 0.005341 0.000756
v 0.010825 0.005341 -0.000239
v 0.009120 0.005341 -0.001944
v -0.008126 -0.000341 0.000756
v -0.010825 -0.000341 -0.000239
v -0.010399 -0.000341 -0.000665
v -0.008126 -0.000341 0.002574
v -0.010399 -0.000341 0.003994
v -0.010825 -0.000341 0.003568
v -0.004034 -0.000341 -0.000665
v -0.006307 -0.000341 0.000756
v -0.003608 -0.000341 -0.000239
v -0.000909 -0.000341 0.000756
v -0.003182 -0.000341 -0.000665
v -0.003608 -0.000341 0.003568
v -0.006307 -0.000341 0.002574
v -0.004034 -0.000341 0.003994
v -0.000909 -0.000341 0.002574
v -0.003182 -0.000341 0.003994
v 0.003182 -0.000341 -0.000665
v 0.000909 -0.000341 0.000756
v 0.003608 -0.000341 -0.000239
v 0.006307 -0.000341 0.000756
v 0.004034 -0.000341 -0.000665
v 0.003182 -0.000341 0.003994
v 0.000909 -0.000341 0.002574
v 0.003608 -0.000341 0.003568
v 0.006307 -0.000341 0.002574
v 0.004034 -0.000341 0.003994
v 0.008126 -0.000341 0.000756
v 0.010399 -0.000341 -0.000665
v 0.010825 -0.000341 -0.000239
v 0.008126 -0.000341 0.002574
v 0.010825 -0.000341 0.003568
v 0.010399 -0.000341 0.003994
v -0.005313 -0.002330 0.005273
v -0.004034 -0.002330 0.003994
v -0.003182 -0.002330 0.003994
v -0.001904 -0.002330 0.005273
v 0.001904 -0.002330 0.005273
v 0.003182 -0.002330 0.003994
v 0.004034 -0.002330 0.003994
v 0.005313 -0.002330 0.005273
v 0.009120 -0.002330 0.005273
v 0.010399 -0.002330 0.003994
v 0.010399 -0.002330 -0.000665
v 0.009120 -0.002330 -0.001944
v 0.005313 -0.002330 -0.001944
v 0.004034 -0.002330 -0.000665
v 0.003182 -0.002330 -0.000665
v 0.001904 -0.002330 -0.001944
v -0.001904 -0.002330 -0.001944
v -0.003182 -0.002330 -0.000665
v -0.004034 -0.002330 -0.000665
v -0.005313 -0.002330 -0.001944
v -0.009120 -0.002330 -0.001944
v -0.010399 -0.002330 -0.000665
v -0.010399 -0.002330 0.003994
v -0.009120 -0.002330 0.005273
v 0.006307 -0.003296 0.002574
v 0.008126 -0.003296 0.002574
v 0.008126 0.021608 0.002574
v 0.006307 0.021608 0.002574
v 0.008126 -0.003296 0.000756
v 0.006307 -0.003296 0.000756
v 0.006307 0.021608 0.000756
v 0.008126 0.021608 0.000756
v 0.008126 -0.005228 -0.001177
v 0.008126 -0.007046 -0.009687
v 0.008126 -0.005228 -0.009687
v 0.008126 -0.007046 -0.001177
v 0.008126 -0.005180 -0.000747
v 0.008126 -0.006952 -0.000342
v 0.008126 -0.005037 -0.000338
v 0.008126 -0.006675 0.000451
v 0.008126 -0.004806 0.000028
v 0.008126 -0.006228 0.001162
v 0.008126 -0.005634 0.001756
v 0.008126 -0.004501 0.000334
v 0.008126 -0.004134 0.000564
v 0.008126 -0.004923 0.002202
v 0.008126 -0.004130 0.002480
v 0.008126 -0.003726 0.000707
v 0.006307 -0.007046 -0.001177
v 0.006307 -0.005228 -0.009687
v 0.006307 -0.007046 -0.009687
v 0.006307 -0.005228 -0.001177
v 0.006307 -0.006952 -0.000342
v 0.006307 -0.005180 -0.000747
v 0.006307 -0.005037 -0.000338
v 0.006307 -0.004130 0.002480
v 0.006307 -0.003726 0.000707
v 0.006307 -0.004923 0.002202
v 0.006307 -0.004134 0.000564
v 0.006307 -0.006675 0.000451
v 0.006307 -0.005634 0.001756
v 0.006307 -0.004501 0.000334
v 0.006307 -0.006228 0.001162
v 0.006307 -0.004806 0.000028
v -0.000909 -0.003296 0.002574
v 0.000909 -0.003296 0.002574
v 0.000909 0.021608 0.002574
v -0.000909 0.021608 0.002574
v 0.000909 -0.003296 0.000756
v -0.000909 -0.003296 0.000756
v -0.000909 0.021608 0.000756
v 0.000909 0.021608 0.000756
v 0.000909 -0.005228 -0.001177
v 0.000909 -0.007046 -0.009687
v 0.000909 -0.005228 -0.009687
v 0.000909 -0.007046 -0.001177
v 0.000909 -0.005180 -0.000747
v 0.000909 -0.006952 -0.000342
v 0.000909 -0.005037 -0.000338
v 0.000909 -0.006675 0.000451
v 0.000909 -0.004806 0.000028
v 0.000909 -0.006228 0.001162
v 0.000909 -0.005634 0.001756
v 0.000909 -0.004501 0.000334
v 0.000909 -0.004134 0.000564
v 0.000909 -0.004923 0.002202
v 0.000909 -0.004130 0.002480
v 0.000909 -0.003726 0.000707
v -0.000909 -0.007046 -0.001177
v -0.000909 -0.005228 -0.009687
v -0.000909 -0.007046 -0.009687
v -0.000909 -0.005228 -0.001177
v -0.000909 -0.006952 -0.000342
v -0.000909 -0.005180 -0.000747
v -0.000909 -0.005037 -0.000338
v -0.000909 -0.004130 0.002480
v -0.000909 -0.003726 0.000707
v -0.000909 -0.004923 0.002202
v -0.000909 -0.004134 0.000564
v -0.000909 -0.006675 0.000451
v -0.000909 -0.005634 0.001756
v -0.000909 -0.004501 0.000334
v -0.000909 -0.006228 0.001162
v -0.000909 -0.004806 0.000028
v -0.008126 0.021608 0.002574
v -0.008126 0.021608 0.000756
v -0.006307 0.021608 0.000756
v -0.006307 0.021608 0.002574
v -0.008126 -0.007046 -0.001177
v -0.008126 -0.005228 -0.009687
v -0.008126 -0.007046 -0.009687
v -0.008126 -0.005228 -0.001177
v -0.008126 -0.003296 0.002574
v -0.008126 -0.003296 0.000756
v -0.008126 -0.006952 -0.000342
v -0.008126 -0.005180 -0.000747
v -0.008126 -0.005037 -0.000338
v -0.008126 -0.004130 0.002480
v -0.008126 -0.003726 0.000707
v -0.008126 -0.004923 0.002202
v -0.008126 -0.004134 0.000564
v -0.008126 -0.006675 0.000451
v -0.008126 -0.005634 0.001756
v -0.008126 -0.004501 0.000334
v -0.008126 -0.006228 0.001162
v -0.008126 -0.004806 0.000028
v -0.006307 -0.003296 0.002574
v -0.006307 -0.005228 -0.001177
v -0.006307 -0.007046 -0.009687
v -0.006307 -0.005228 -0.009687
v -0.006307 -0.007046 -0.001177
v -0.006307 -0.005180 -0.000747
v -0.006307 -0.006952 -0.000342
v -0.006307 -0.005037 -0.000338
v -0.006307 -0.006675 0.000451
v -0.006307 -0.004806 0.000028
v -0.006307 -0.006228 0.001162
v -0.006307 -0.005634 0.001756
v -0.006307 -0.004501 0.000334
v -0.006307 -0.004134 0.000564
v -0.006307 -0.004923 0.002202
v -0.006307 -0.004130 0.002480
v -0.006307 -0.003726 0.000707
v -0.006307 -0.003296 0.000756
v 0.007842 0.022388 0.001040
v 0.006592 0.022388 0.002290
v 0.007842 0.022388 0.002290
v 0.006592 0.022388 0.001040
v 0.006592 -0.005512 -0.010467
v 0.007842 -0.005512 -0.010467
v 0.006592 -0.006762 -0.010467
v 0.007842 -0.006762 -0.010467
v 0.000625 0.022388 0.001040
v -0.000625 0.022388 0.002290
v 0.000625 0.022388 0.002290
v -0.000625 0.022388 0.001040
v -0.000625 -0.005512 -0.010467
v 0.000625 -0.005512 -0.010467
v -0.000625 -0.006762 -0.010467
v 0.000625 -0.006762 -0.010467
v -0.007842 0.022388 0.002290
v -0.007842 0.022388 0.001040
v -0.006592 0.022388 0.001040
v -0.006592 0.022388 0.002290
v -0.007842 -0.006762 -0.010467
v -0.007842 -0.005512 -0.010467
v -0.006592 -0.005512 -0.010467
v -0.006592 -0.006762 -0.010467
vn 0.0000 1.0000 0.0000
vn 0.0000 -1.0000 -0.0000
vn 0.7071 -0.0000 0.7071
vn -0.7071 -0.0000 0.7071
vn 0.0000 -0.0000 1.0000
vn 1.0000 -0.0000 0.0000
vn 0.7071 0.0000 -0.7071
vn 0.0000 0.0000 -1.0000
vn -0.7071 0.0000 -0.7071
vn -1.0000 0.0000 0.0000
vn 0.0000 -0.9937 0.1120
vn 0.0000 -0.9439 0.3303
vn 0.0000 -0.8467 0.5320
vn 0.0000 -0.7071 0.7071
vn 0.0000 -0.5320 0.8467
vn 0.0000 -0.3303 0.9439
vn 0.0000 -0.1120 0.9937
vn 0.0000 0.9937 -0.1120
vn 0.0000 0.9439 -0.3303
vn 0.0000 0.8467 -0.5320
vn 0.0000 0.7071 -0.7071
vn 0.0000 0.5320 -0.8467
vn 0.0000 0.3303 -0.9439
vn 0.0000 0.1120 -0.9937
vn -0.9397 0.3420 0.0000
vn 0.0000 0.3420 -0.9397
vn 0.9397 0.3420 0.0000
vn 0.0000 0.3420 0.9397
vn -0.9397 0.0000 -0.3420
vn 0.9397 0.0000 -0.3420
vn 0.0000 0.9397 -0.3420
vn 0.0000 -0.9397 -0.3420
usemtl material_0.248
s 1
f 1//1 2//1 3//1
f 4//1 5//1 2//1
f 4//1 2//1 1//1
f 6//1 3//1 7//1
f 6//1 1//1 3//1
f 8//1 5//1 4//1
f 9//1 6//1 7//1
f 10//1 6//1 9//1
f 11//1 9//1 12//1
f 13//1 4//1 10//1
f 13//1 8//1 4//1
f 14//1 13//1 10//1
f 14//1 10//1 9//1
f 15//1 9//1 11//1
f 15//1 14//1 9//1
f 16//1 12//1 17//1
f 16//1 11//1 12//1
f 18//1 16//1 17//1
f 19//1 14//1 15//1
f 20//1 18//1 21//1
f 22//1 23//1 16//1
f 22//1 16//1 18//1
f 24//1 15//1 23//1
f 24//1 19//1 15//1
f 24//1 23//1 22//1
f 25//1 18//1 20//1
f 25//1 22//1 18//1
f 26//1 21//1 27//1
f 26//1 20//1 21//1
f 28//1 26//1 27//1
f 29//1 22//1 25//1
f 30//1 26//1 28//1
f 30//1 29//1 25//1
f 31//1 30//1 28//1
f 32//1 29//1 30//1
f 32//1 30//1 31//1
f 33//2 34//2 35//2
f 36//2 37//2 38//2
f 36//2 38//2 34//2
f 36//2 34//2 33//2
f 39//2 40//2 33//2
f 39//2 33//2 35//2
f 41//2 40//2 39//2
f 42//2 41//2 43//2
f 44//2 45//2 40//2
f 44//2 40//2 41//2
f 46//2 36//2 45//2
f 46//2 37//2 36//2
f 46//2 45//2 44//2
f 47//2 48//2 44//2
f 47//2 41//2 42//2
f 47//2 44//2 41//2
f 49//2 50//2 42//2
f 49//2 42//2 43//2
f 51//2 50//2 49//2
f 52//2 51//2 53//2
f 54//2 47//2 55//2
f 54//2 48//2 47//2
f 56//2 55//2 50//2
f 56//2 54//2 55//2
f 56//2 50//2 51//2
f 57//2 58//2 56//2
f 57//2 51//2 52//2
f 57//2 56//2 51//2
f 59//2 52//2 53//2
f 60//2 59//2 53//2
f 61//2 59//2 60//2
f 62//2 58//2 57//2
f 63//2 62//2 59//2
f 63//2 59//2 61//2
f 64//2 58//2 62//2
f 64//2 62//2 63//2
f 46//3 65//3 66//3
f 7//3 65//3 46//3
f 9//3 46//3 44//3
f 9//3 7//3 46//3
f 48//4 67//4 68//4
f 9//4 44//4 48//4
f 12//4 9//4 48//4
f 12//4 48//4 68//4
f 17//5 68//5 69//5
f 17//5 12//5 68//5
f 54//3 69//3 70//3
f 17//3 69//3 54//3
f 18//3 54//3 56//3
f 18//3 17//3 54//3
f 58//4 71//4 72//4
f 18//4 56//4 58//4
f 21//4 18//4 58//4
f 21//4 58//4 72//4
f 27//5 72//5 73//5
f 27//5 21//5 72//5
f 64//3 73//3 74//3
f 27//3 73//3 64//3
f 28//3 64//3 63//3
f 28//3 27//3 64//3
f 31//6 63//6 61//6
f 31//6 28//6 63//6
f 60//7 75//7 76//7
f 31//7 61//7 60//7
f 32//7 31//7 60//7
f 32//7 60//7 76//7
f 29//8 76//8 77//8
f 29//8 32//8 76//8
f 53//9 77//9 78//9
f 29//9 77//9 53//9
f 22//9 53//9 51//9
f 22//9 29//9 53//9
f 49//7 79//7 80//7
f 22//7 51//7 49//7
f 24//7 22//7 49//7
f 24//7 49//7 80//7
f 19//8 80//8 81//8
f 19//8 24//8 80//8
f 43//9 81//9 82//9
f 19//9 81//9 43//9
f 14//9 43//9 41//9
f 14//9 19//9 43//9
f 39//7 83//7 84//7
f 14//7 41//7 39//7
f 13//7 14//7 39//7
f 13//7 39//7 84//7
f 8//8 84//8 85//8
f 8//8 13//8 84//8
f 35//9 85//9 86//9
f 8//9 85//9 35//9
f 5//9 35//9 34//9
f 5//9 8//9 35//9
f 2//10 34//10 38//10
f 2//10 5//10 34//10
f 37//4 87//4 88//4
f 2//4 38//4 37//4
f 3//4 2//4 37//4
f 3//4 37//4 88//4
f 7//5 88//5 65//5
f 7//5 3//5 88//5
f 46//8 87//8 37//8
f 66//8 87//8 46//8
f 35//5 83//5 39//5
f 86//5 83//5 35//5
f 43//5 79//5 49//5
f 82//5 79//5 43//5
f 78//5 75//5 53//5
f 53//5 75//5 60//5
f 64//8 71//8 58//8
f 74//8 71//8 64//8
f 54//8 67//8 48//8
f 70//8 67//8 54//8
f 88//2 66//2 65//2
f 87//2 66//2 88//2
f 68//2 70//2 69//2
f 67//2 70//2 68//2
f 72//2 74//2 73//2
f 71//2 74//2 72//2
f 77//2 75//2 78//2
f 76//2 75//2 77//2
f 82//2 80//2 79//2
f 81//2 80//2 82//2
f 86//2 84//2 83//2
f 85//2 84//2 86//2
usemtl material_1.243
f 62//5 57//5 89//5
f 62//5 89//5 90//5
f 91//5 92//5 20//5
f 91//5 20//5 26//5
f 52//8 59//8 93//8
f 52//8 93//8 94//8
f 95//8 96//8 30//8
f 95//8 30//8 25//8
f 97//6 98//6 99//6
f 97//6 100//6 98//6
f 101//6 102//6 100//6
f 101//6 100//6 97//6
f 103//6 104//6 102//6
f 103//6 102//6 101//6
f 105//6 106//6 104//6
f 105//6 104//6 103//6
f 107//6 105//6 108//6
f 107//6 106//6 105//6
f 109//6 107//6 108//6
f 110//6 107//6 109//6
f 111//6 109//6 112//6
f 111//6 112//6 93//6
f 111//6 110//6 109//6
f 90//6 111//6 93//6
f 62//6 93//6 59//6
f 62//6 90//6 93//6
f 96//6 26//6 30//6
f 91//6 26//6 96//6
f 113//10 114//10 115//10
f 113//10 116//10 114//10
f 89//10 57//10 52//10
f 89//10 52//10 94//10
f 117//10 118//10 116//10
f 117//10 119//10 118//10
f 117//10 116//10 113//10
f 120//10 94//10 121//10
f 120//10 89//10 94//10
f 122//10 121//10 123//10
f 122//10 120//10 121//10
f 124//10 119//10 117//10
f 125//10 123//10 126//10
f 125//10 122//10 123//10
f 127//10 128//10 119//10
f 127//10 126//10 128//10
f 127//10 119//10 124//10
f 127//10 125//10 126//10
f 20//10 92//10 95//10
f 20//10 95//10 25//10
f 55//5 47//5 129//5
f 55//5 129//5 130//5
f 131//5 132//5 11//5
f 131//5 11//5 16//5
f 42//8 50//8 133//8
f 42//8 133//8 134//8
f 135//8 136//8 23//8
f 135//8 23//8 15//8
f 137//6 138//6 139//6
f 137//6 140//6 138//6
f 141//6 142//6 140//6
f 141//6 140//6 137//6
f 143//6 144//6 142//6
f 143//6 142//6 141//6
f 145//6 146//6 144//6
f 145//6 144//6 143//6
f 147//6 145//6 148//6
f 147//6 146//6 145//6
f 149//6 147//6 148//6
f 150//6 147//6 149//6
f 151//6 149//6 152//6
f 151//6 152//6 133//6
f 151//6 150//6 149//6
f 130//6 151//6 133//6
f 55//6 133//6 50//6
f 55//6 130//6 133//6
f 131//6 16//6 23//6
f 131//6 23//6 136//6
f 153//10 154//10 155//10
f 153//10 156//10 154//10
f 129//10 47//10 42//10
f 129//10 42//10 134//10
f 157//10 158//10 156//10
f 157//10 159//10 158//10
f 157//10 156//10 153//10
f 160//10 134//10 161//10
f 160//10 129//10 134//10
f 162//10 161//10 163//10
f 162//10 160//10 161//10
f 164//10 159//10 157//10
f 165//10 163//10 166//10
f 165//10 162//10 163//10
f 167//10 168//10 159//10
f 167//10 166//10 168//10
f 167//10 159//10 164//10
f 167//10 165//10 166//10
f 11//10 132//10 135//10
f 11//10 135//10 15//10
f 1//10 169//10 170//10
f 1//10 170//10 4//10
f 170//8 171//8 10//8
f 170//8 10//8 4//8
f 171//6 6//6 10//6
f 172//6 6//6 171//6
f 172//5 169//5 1//5
f 172//5 1//5 6//5
f 173//10 174//10 175//10
f 173//10 176//10 174//10
f 177//10 36//10 33//10
f 177//10 33//10 178//10
f 179//10 180//10 176//10
f 179//10 181//10 180//10
f 179//10 176//10 173//10
f 182//10 178//10 183//10
f 182//10 177//10 178//10
f 184//10 183//10 185//10
f 184//10 182//10 183//10
f 186//10 181//10 179//10
f 187//10 185//10 188//10
f 187//10 184//10 185//10
f 189//10 190//10 181//10
f 189//10 188//10 190//10
f 189//10 181//10 186//10
f 189//10 187//10 188//10
f 45//5 36//5 177//5
f 45//5 177//5 191//5
f 192//6 193//6 194//6
f 192//6 195//6 193//6
f 196//6 197//6 195//6
f 196//6 195//6 192//6
f 198//6 199//6 197//6
f 198//6 197//6 196//6
f 200//6 201//6 199//6
f 200//6 199//6 198//6
f 202//6 200//6 203//6
f 202//6 201//6 200//6
f 204//6 202//6 203//6
f 205//6 202//6 204//6
f 206//6 204//6 207//6
f 206//6 207//6 208//6
f 206//6 205//6 204//6
f 191//6 206//6 208//6
f 45//6 208//6 40//6
f 45//6 191//6 208//6
f 33//8 40//8 208//8
f 33//8 208//8 178//8
f 117//11 113//11 100//11
f 117//11 100//11 102//11
f 124//12 102//12 104//12
f 124//12 117//12 102//12
f 127//13 104//13 106//13
f 127//13 124//13 104//13
f 125//14 106//14 107//14
f 125//14 127//14 106//14
f 122//15 107//15 110//15
f 122//15 125//15 107//15
f 120//16 110//16 111//16
f 120//16 122//16 110//16
f 89//17 111//17 90//17
f 89//17 120//17 111//17
f 209//1 210//1 211//1
f 209//1 212//1 210//1
f 97//18 118//18 101//18
f 116//18 118//18 97//18
f 101//19 119//19 103//19
f 118//19 119//19 101//19
f 103//20 128//20 105//20
f 119//20 128//20 103//20
f 105//21 126//21 108//21
f 128//21 126//21 105//21
f 108//22 123//22 109//22
f 126//22 123//22 108//22
f 109//23 121//23 112//23
f 123//23 121//23 109//23
f 112//24 94//24 93//24
f 121//24 94//24 112//24
f 100//2 115//2 98//2
f 100//2 113//2 115//2
f 213//8 214//8 215//8
f 215//8 214//8 216//8
f 116//1 99//1 114//1
f 116//1 97//1 99//1
f 157//11 153//11 140//11
f 157//11 140//11 142//11
f 164//12 142//12 144//12
f 164//12 157//12 142//12
f 167//13 144//13 146//13
f 167//13 164//13 144//13
f 165//14 146//14 147//14
f 165//14 167//14 146//14
f 162//15 147//15 150//15
f 162//15 165//15 147//15
f 160//16 150//16 151//16
f 160//16 162//16 150//16
f 129//17 151//17 130//17
f 129//17 160//17 151//17
f 217//1 218//1 219//1
f 217//1 220//1 218//1
f 137//18 158//18 141//18
f 156//18 158//18 137//18
f 141//19 159//19 143//19
f 158//19 159//19 141//19
f 143//20 168//20 145//20
f 159//20 168//20 143//20
f 145//21 166//21 148//21
f 168//21 166//21 145//21
f 148//22 163//22 149//22
f 166//22 163//22 148//22
f 149//23 161//23 152//23
f 163//23 161//23 149//23
f 152//24 134//24 133//24
f 161//24 134//24 152//24
f 140//2 155//2 138//2
f 140//2 153//2 155//2
f 221//8 222//8 223//8
f 223//8 222//8 224//8
f 156//1 139//1 154//1
f 156//1 137//1 139//1
f 225//25 170//25 169//25
f 225//25 226//25 170//25
f 226//26 171//26 170//26
f 226//26 227//26 171//26
f 227//27 172//27 171//27
f 227//27 228//27 172//27
f 228//28 169//28 172//28
f 228//28 225//28 169//28
f 174//29 229//29 175//29
f 230//29 229//29 174//29
f 195//2 175//2 193//2
f 195//2 173//2 175//2
f 179//11 173//11 195//11
f 179//11 195//11 197//11
f 186//12 197//12 199//12
f 186//12 179//12 197//12
f 189//13 199//13 201//13
f 189//13 186//13 199//13
f 187//14 201//14 202//14
f 187//14 189//14 201//14
f 184//15 202//15 205//15
f 184//15 187//15 202//15
f 182//16 205//16 206//16
f 182//16 184//16 205//16
f 177//17 206//17 191//17
f 177//17 182//17 206//17
f 192//18 180//18 196//18
f 176//18 180//18 192//18
f 196//19 181//19 198//19
f 180//19 181//19 196//19
f 198//20 190//20 200//20
f 181//20 190//20 198//20
f 200//21 188//21 203//21
f 190//21 188//21 200//21
f 203//22 185//22 204//22
f 188//22 185//22 203//22
f 204//23 183//23 207//23
f 185//23 183//23 204//23
f 207//24 178//24 208//24
f 183//24 178//24 207//24
f 176//1 194//1 174//1
f 176//1 192//1 194//1
f 193//30 231//30 194//30
f 232//30 231//30 193//30
f 227//1 225//1 228//1
f 227//1 226//1 225//1
f 194//31 230//31 174//31
f 231//31 230//31 194//31
f 230//8 231//8 229//8
f 229//8 231//8 232//8
f 175//32 232//32 193//32
f 229//32 232//32 175//32
f 219//28 132//28 131//28
f 219//28 218//28 132//28
f 136//27 219//27 131//27
f 217//27 219//27 136//27
f 220//26 136//26 135//26
f 220//26 217//26 136//26
f 218//25 135//25 132//25
f 218//25 220//25 135//25
f 211//28 92//28 91//28
f 211//28 210//28 92//28
f 209//27 91//27 96//27
f 209//27 211//27 91//27
f 212//26 96//26 95//26
f 212//26 209//26 96//26
f 210//25 95//25 92//25
f 210//25 212//25 95//25
f 154//29 223//29 155//29
f 221//29 223//29 154//29
f 155//32 224//32 138//32
f 223//32 224//32 155//32
f 138//30 222//30 139//30
f 224//30 222//30 138//30
f 139//31 221//31 154//31
f 222//31 221//31 139//31
f 114//29 215//29 115//29
f 213//29 215//29 114//29
f 115//32 216//32 98//32
f 215//32 216//32 115//32
f 98//30 214//30 99//30
f 216//30 214//30 98//30
f 99//31 213//31 114//31
f 214//31 213//31 99//31
