# Blender v2.81 (sub 16) OBJ File: ''
# www.blender.org
mtllib Power conector.mtl
o Power_conector
v -0.002160 -0.005390 0.001735
v -0.002252 -0.005048 0.001735
v -0.002252 -0.005048 0.001392
v -0.002160 -0.005390 0.001392
v -0.001910 -0.005641 0.001392
v -0.001910 -0.005641 0.001735
v -0.001567 -0.005733 0.001392
v -0.001567 -0.005733 0.001735
v -0.000811 -0.005641 0.001735
v -0.001154 -0.005733 0.001735
v -0.001154 -0.005733 0.001392
v -0.000811 -0.005641 0.001392
v -0.000561 -0.005390 0.001392
v -0.000561 -0.005390 0.001735
v -0.000469 -0.005048 0.001392
v -0.000469 -0.005048 0.001735
v -0.000949 -0.005048 0.001392
v -0.001049 -0.005323 0.001392
v -0.001049 -0.005323 0.001735
v -0.000949 -0.005048 0.001735
v -0.001049 -0.004772 0.001392
v -0.001049 -0.004772 0.001735
v -0.001303 -0.004626 0.001392
v -0.001303 -0.004626 0.001735
v -0.001592 -0.004677 0.001392
v -0.001592 -0.004677 0.001735
v -0.001780 -0.004901 0.001392
v -0.001780 -0.004901 0.001735
v -0.001780 -0.005194 0.001392
v -0.001780 -0.005194 0.001735
v -0.001592 -0.005418 0.001392
v -0.001592 -0.005418 0.001735
v -0.001303 -0.005469 0.001392
v -0.001303 -0.005469 0.001735
v -0.000469 -0.002649 0.001392
v -0.000469 -0.002306 0.001735
v -0.000469 -0.002306 -0.001519
v -0.000469 -0.002649 -0.001519
v -0.002252 -0.002306 0.001735
v 0.001259 -0.002306 -0.000483
v 0.000917 -0.002306 -0.000483
v 0.000917 -0.003896 -0.000483
v 0.001259 -0.003896 -0.000483
v 0.000917 -0.004334 -0.000004
v 0.001259 -0.004334 -0.000004
v 0.001259 -0.005205 -0.000004
v 0.000917 -0.005205 -0.000004
v 0.000917 -0.005733 -0.000483
v 0.001259 -0.005733 -0.000483
v 0.001259 -0.005733 -0.001580
v 0.000917 -0.005733 -0.001580
v 0.000917 -0.005205 -0.002059
v 0.001259 -0.005205 -0.002059
v 0.001259 -0.004334 -0.002059
v 0.000917 -0.004334 -0.002059
v 0.000917 -0.003896 -0.001580
v 0.001259 -0.003896 -0.001580
v 0.000917 -0.002306 -0.001580
v 0.001259 -0.002306 -0.001580
v 0.000917 -0.004753 -0.001580
v 0.000917 -0.005106 -0.001452
v 0.001259 -0.005106 -0.001452
v 0.001259 -0.004753 -0.001580
v 0.000917 -0.004400 -0.001452
v 0.001259 -0.004400 -0.001452
v 0.000917 -0.004213 -0.001127
v 0.001259 -0.004213 -0.001127
v 0.000917 -0.004278 -0.000757
v 0.001259 -0.004278 -0.000757
v 0.000917 -0.004565 -0.000516
v 0.001259 -0.004565 -0.000516
v 0.000917 -0.004941 -0.000516
v 0.001259 -0.004941 -0.000516
v 0.000917 -0.005228 -0.000757
v 0.001259 -0.005228 -0.000757
v 0.000917 -0.005293 -0.001127
v 0.001259 -0.005293 -0.001127
v -0.000515 -0.002306 -0.001690
v -0.000640 -0.002306 -0.001815
v 0.002191 -0.002306 0.000270
v 0.002191 -0.002306 0.001366
v 0.002318 -0.002306 0.003355
v 0.000262 -0.002306 0.003906
v 0.002534 -0.002306 0.000270
v 0.003823 -0.002306 -0.002262
v 0.002318 -0.002306 -0.003767
v 0.000262 -0.002306 -0.004317
v -0.000811 -0.002306 -0.001861
v 0.002534 -0.002306 0.001366
v 0.003823 -0.002306 0.001850
v 0.004374 -0.002306 -0.000206
v -0.001794 -0.002306 -0.003767
v -0.001910 -0.002306 -0.001861
v -0.002081 -0.002306 -0.001815
v -0.003299 -0.002306 -0.002262
v -0.002206 -0.002306 -0.001690
v -0.002252 -0.002306 -0.001519
v -0.003850 -0.002306 -0.000206
v -0.003299 -0.002306 0.001850
v -0.001794 -0.002306 0.003355
v 0.002191 -0.003896 0.001366
v 0.002534 -0.003896 0.001366
v 0.002191 -0.004334 0.001846
v 0.002534 -0.004334 0.001846
v 0.002534 -0.005205 0.001846
v 0.002191 -0.005205 0.001846
v 0.002191 -0.005733 0.001366
v 0.002534 -0.005733 0.001366
v 0.002534 -0.005733 0.000270
v 0.002191 -0.005733 0.000270
v 0.002191 -0.005205 -0.000210
v 0.002534 -0.005205 -0.000210
v 0.002534 -0.003896 0.000270
v 0.002191 -0.003896 0.000270
v 0.002534 -0.004334 -0.000210
v 0.002191 -0.004334 -0.000210
v 0.002191 -0.004753 0.000270
v 0.002191 -0.005106 0.000398
v 0.002534 -0.005106 0.000398
v 0.002534 -0.004753 0.000270
v 0.002191 -0.004400 0.000398
v 0.002534 -0.004400 0.000398
v 0.002191 -0.004213 0.000723
v 0.002534 -0.004213 0.000723
v 0.002191 -0.004278 0.001092
v 0.002534 -0.004278 0.001092
v 0.002191 -0.004565 0.001333
v 0.002534 -0.004565 0.001333
v 0.002191 -0.004941 0.001333
v 0.002534 -0.004941 0.001333
v 0.002191 -0.005228 0.001092
v 0.002534 -0.005228 0.001092
v 0.002191 -0.005293 0.000723
v 0.002534 -0.005293 0.000723
v -0.002252 -0.002649 0.001392
v -0.002252 -0.002649 -0.001519
v -0.001910 -0.002649 -0.001861
v -0.002081 -0.002649 -0.001815
v -0.002206 -0.002649 -0.001690
v -0.000811 -0.002649 -0.001861
v -0.000640 -0.002649 -0.001815
v -0.000515 -0.002649 -0.001690
v -0.001520 0.006258 -0.000203
v -0.001520 0.006259 -0.000206
v -0.001520 0.006259 -0.000205
v -0.001520 0.006258 -0.000200
v -0.001520 0.006257 -0.000192
v -0.001518 0.006255 -0.000167
v -0.001422 0.006312 0.000092
v -0.001506 0.006252 -0.000086
v -0.001408 0.006247 0.000114
v -0.001233 0.006245 0.000255
v -0.001165 0.006344 0.000276
v -0.001422 0.006491 -0.000011
v -0.001165 0.006634 0.000109
v -0.001422 0.006561 -0.000206
v -0.001165 0.006748 -0.000206
v -0.001422 0.006491 -0.000400
v -0.001165 0.006634 -0.000520
v -0.001422 0.006312 -0.000503
v -0.001165 0.006344 -0.000687
v -0.001165 0.006259 -0.000695
v -0.000847 0.006259 -0.000694
v -0.000847 0.006344 -0.000687
v -0.000590 0.006259 -0.000508
v -0.000590 0.006312 -0.000503
v -0.000492 0.006259 -0.000206
v -0.001015 0.006244 0.000308
v -0.000847 0.006344 0.000276
v -0.000847 0.006634 0.000109
v -0.000847 0.006748 -0.000206
v -0.000847 0.006634 -0.000520
v -0.000794 0.006245 0.000263
v -0.000590 0.006312 0.000092
v -0.000590 0.006491 -0.000011
v -0.000590 0.006561 -0.000206
v -0.000590 0.006491 -0.000400
v -0.000615 0.006247 0.000128
v -0.000512 0.006251 -0.000064
v -0.000495 0.006254 -0.000152
v -0.000492 0.006256 -0.000187
v -0.000492 0.006258 -0.000198
v -0.000492 0.006258 -0.000203
v -0.000492 0.006259 -0.000205
v -0.001422 0.006259 -0.000508
v -0.000492 0.000435 -0.000206
v -0.000612 0.000435 0.000125
v -0.000917 0.000435 0.000300
v -0.001263 0.000435 0.000239
v -0.001489 0.000435 -0.000030
v -0.001489 0.000435 -0.000382
v -0.001263 0.000435 -0.000651
v -0.000917 0.000435 -0.000712
v -0.000612 0.000435 -0.000536
v 0.001221 0.000435 -0.000206
v 0.000700 0.000435 0.001226
v 0.000700 0.007287 0.001226
v 0.001221 0.007287 -0.000206
v 0.000700 0.000435 -0.001637
v 0.000700 0.007287 -0.001637
v -0.000619 0.000435 -0.002399
v -0.000619 0.007287 -0.002399
v -0.002119 0.000435 -0.002134
v -0.002119 0.007287 -0.002134
v -0.003099 0.000435 -0.000967
v -0.003099 0.007287 -0.000967
v -0.003099 0.000435 0.000556
v -0.003099 0.007287 0.000556
v -0.002119 0.000435 0.001723
v -0.002119 0.007287 0.001723
v -0.000619 0.000435 0.001988
v -0.000619 0.007287 0.001988
v 0.004374 0.006259 -0.000206
v 0.004570 0.006259 -0.002467
v 0.005127 0.006259 -0.000206
v 0.004570 0.006259 0.002055
v 0.003823 0.006259 0.001850
v 0.003026 0.006259 0.003798
v 0.002318 0.006259 0.003355
v 0.000848 0.006259 0.004624
v 0.000262 0.006259 0.003906
v -0.001463 0.006259 0.004343
v -0.001794 0.006259 0.003355
v -0.003380 0.006259 0.003021
v -0.003299 0.006259 0.001850
v -0.004462 0.006259 0.000959
v -0.003850 0.006259 -0.000206
v -0.004462 0.006259 -0.001370
v -0.003299 0.006259 -0.002262
v -0.003380 0.006259 -0.003432
v -0.001794 0.006259 -0.003767
v -0.001463 0.006259 -0.004755
v 0.000262 0.006259 -0.004317
v 0.000848 0.006259 -0.005036
v 0.002318 0.006259 -0.003767
v 0.003026 0.006259 -0.004210
v 0.003823 0.006259 -0.002262
v 0.004570 0.007287 -0.002467
v 0.005127 0.007287 -0.000206
v 0.004570 0.007287 0.002055
v 0.003026 0.007287 0.003798
v 0.000848 0.007287 0.004624
v -0.001463 0.007287 0.004343
v -0.003380 0.007287 0.003021
v -0.004462 0.007287 0.000959
v -0.004462 0.007287 -0.001370
v -0.003380 0.007287 -0.003432
v -0.001463 0.007287 -0.004755
v 0.000848 0.007287 -0.005036
v 0.003026 0.007287 -0.004210
vn -0.9659 -0.2588 0.0000
vn -0.7071 -0.7071 0.0000
vn -0.2588 -0.9659 0.0000
vn 0.2588 -0.9659 0.0000
vn 0.7071 -0.7071 0.0000
vn 0.9659 -0.2588 0.0000
vn -0.9397 0.3420 0.0000
vn -0.9397 -0.3420 0.0000
vn -0.5000 -0.8660 0.0000
vn 0.1736 -0.9848 0.0000
vn 0.7660 -0.6428 0.0000
vn 1.0000 0.0000 0.0000
vn 0.7660 0.6428 0.0000
vn 0.1736 0.9848 0.0000
vn -0.5000 0.8660 0.0000
vn 0.0000 -1.0000 0.0000
vn -0.0000 -0.0000 1.0000
vn 0.0000 0.7387 0.6741
vn 0.0000 -0.6723 0.7403
vn 0.0000 -0.6723 -0.7403
vn 0.0000 0.7387 -0.6741
vn 0.0000 0.0000 -1.0000
vn 0.0000 0.3420 0.9397
vn 0.0000 -0.3420 0.9397
vn 0.0000 -0.8660 0.5000
vn 0.0000 -0.9848 -0.1736
vn 0.0000 -0.6428 -0.7661
vn 0.0000 0.6428 -0.7660
vn 0.0000 0.9848 -0.1737
vn 0.0000 0.8660 0.5000
vn 0.0000 -0.6428 -0.7660
vn -1.0000 0.0000 0.0000
vn 0.9659 0.0000 -0.2588
vn 0.7071 0.0000 -0.7071
vn 0.2588 0.0000 -0.9659
vn -0.2588 0.0000 -0.9659
vn -0.7071 0.0000 -0.7071
vn -0.9659 0.0000 -0.2588
vn -1.0000 0.0006 0.0020
vn -1.0000 0.0027 0.0042
vn -1.0000 -0.0052 0.0007
vn -0.9998 0.0193 0.0113
vn -0.9966 0.0774 0.0280
vn -0.9456 0.3176 0.0707
vn -0.6944 0.7121 0.1035
vn -0.7576 0.6367 0.1437
vn -0.8990 -0.0364 0.4364
vn -0.6218 0.1326 0.7719
vn -0.5846 0.2428 0.7742
vn -0.5639 0.4129 0.7152
vn -0.5638 0.4129 0.7152
vn -0.5638 0.7761 0.2825
vn -0.5638 0.7761 -0.2825
vn -0.5638 0.4129 -0.7152
vn -0.5639 0.4129 -0.7152
vn -0.5864 0.0732 -0.8067
vn -0.5865 0.0730 -0.8067
vn -0.5864 0.0733 -0.8067
vn 0.0002 0.0885 -0.9961
vn 0.0005 0.0893 -0.9960
vn 0.0001 0.0882 -0.9961
vn 0.0000 0.0877 -0.9962
vn 0.5862 0.0708 -0.8071
vn 0.5861 0.0701 -0.8072
vn 0.5863 0.0711 -0.8070
vn 0.5864 0.0717 -0.8069
vn 0.9506 0.0261 -0.3093
vn -0.2359 -0.0400 0.9710
vn 0.0000 0.3066 0.9518
vn 0.0000 0.5000 0.8660
vn 0.0000 0.9397 0.3420
vn 0.0000 0.9397 -0.3420
vn 0.0000 0.5000 -0.8660
vn 0.2017 -0.0225 0.9792
vn 0.5863 0.2067 0.7833
vn 0.5865 0.2063 0.7833
vn 0.5859 0.2080 0.7833
vn 0.5639 0.4129 0.7152
vn 0.5638 0.4129 0.7152
vn 0.5638 0.7761 0.2825
vn 0.5638 0.7761 -0.2825
vn 0.5638 0.4129 -0.7152
vn 0.5638 0.4130 -0.7152
vn 0.5857 0.2085 0.7832
vn 0.8793 -0.0759 0.4702
vn 0.7976 0.5769 0.1760
vn 0.6916 0.7151 0.1020
vn 0.8723 0.4806 0.0900
vn 0.9916 0.1235 0.0373
vn 0.9994 0.0321 0.0151
vn 1.0000 0.0073 0.0059
vn 1.0000 0.0066 0.0075
vn 1.0000 -0.0002 0.0046
vn -0.9508 0.0294 -0.3085
vn 0.9451 0.3072 -0.1118
vn -0.9451 0.1634 -0.2830
vn -0.9451 0.3071 -0.1118
vn 0.9450 0.1635 -0.2832
vn 0.9452 0.1633 0.2828
vn 0.9451 0.3070 0.1117
vn -0.9451 0.1634 0.2830
vn -0.9451 0.3071 0.1118
vn 0.9509 0.0000 -0.3094
vn 1.0000 -0.0000 -0.0003
vn 0.9999 -0.0000 0.0106
vn 0.9997 -0.0000 0.0257
vn 0.9975 -0.0002 0.0710
vn 0.9816 -0.0013 0.1911
vn 0.9397 -0.0051 0.3420
vn 0.8811 0.0001 0.4728
vn 0.6006 -0.0002 0.7995
vn 0.5000 -0.0049 0.8660
vn 0.2016 0.0021 0.9795
vn -0.1737 -0.0042 0.9848
vn -0.2360 -0.0014 0.9718
vn -0.6284 0.0011 0.7779
vn -0.7660 -0.0053 0.6428
vn -0.8993 0.0016 0.4374
vn -0.9879 -0.0014 0.1548
vn -0.9987 -0.0038 0.0517
vn -0.9998 -0.0049 0.0179
vn -0.9999 -0.0050 0.0115
vn -0.9998 -0.0048 0.0185
vn -1.0000 -0.0053 0.0000
vn -0.9512 0.0043 -0.3086
vn -0.7660 -0.0051 -0.6428
vn -0.5880 0.0038 -0.8088
vn -0.1737 -0.0045 -0.9848
vn 0.0005 0.0030 -1.0000
vn 0.5000 -0.0034 -0.8660
vn 0.5875 0.0017 -0.8092
vn 0.9397 -0.0019 -0.3420
vn -0.9397 0.0000 -0.3420
vn -0.9397 -0.0000 0.3420
vn -0.5000 -0.0000 0.8660
vn 0.1737 -0.0000 0.9848
vn 0.7660 -0.0000 0.6428
vn 0.7660 0.0000 -0.6428
vn 0.1737 0.0000 -0.9848
vn -0.5000 0.0000 -0.8660
vn 0.0000 1.0000 -0.0000
vn 0.9709 0.0000 -0.2393
vn 0.9709 -0.0000 0.2393
vn 0.7485 0.0000 0.6631
vn 0.3546 0.0000 0.9350
vn -0.1205 0.0000 0.9927
vn -0.5681 0.0000 0.8230
vn -0.8855 0.0000 0.4647
vn -0.8855 -0.0000 -0.4647
vn -0.5681 0.0000 -0.8230
vn -0.1205 0.0000 -0.9927
vn 0.3546 0.0000 -0.9350
vn 0.7485 0.0000 -0.6631
vn -0.9659 -0.0000 0.2588
vn -0.7071 -0.0000 0.7071
vn -0.2588 -0.0000 0.9659
vn 0.2588 -0.0000 0.9659
vn 0.7071 -0.0000 0.7071
vn 0.9659 -0.0000 0.2588
usemtl Default_OBJ.014
s 1
f 1//1 2//1 3//1
f 4//1 1//1 3//1
f 5//2 1//2 4//2
f 6//2 1//2 5//2
f 7//3 6//3 5//3
f 8//3 6//3 7//3
f 9//4 10//4 11//4
f 12//4 9//4 11//4
f 13//5 9//5 12//5
f 14//5 9//5 13//5
f 15//6 14//6 13//6
f 16//6 14//6 15//6
f 17//7 18//7 19//7
f 20//7 17//7 19//7
f 21//8 17//8 20//8
f 22//8 21//8 20//8
f 23//9 21//9 22//9
f 24//9 23//9 22//9
f 25//10 23//10 24//10
f 26//10 25//10 24//10
f 27//11 25//11 26//11
f 28//11 27//11 26//11
f 29//12 27//12 28//12
f 30//12 29//12 28//12
f 31//13 29//13 30//13
f 32//13 31//13 30//13
f 33//14 31//14 32//14
f 34//14 33//14 32//14
f 18//15 33//15 34//15
f 19//15 18//15 34//15
f 10//16 8//16 7//16
f 11//16 10//16 7//16
f 16//12 15//12 35//12
f 36//12 16//12 35//12
f 37//12 36//12 35//12
f 38//12 37//12 35//12
f 2//17 1//17 30//17
f 28//17 2//17 30//17
f 26//17 2//17 28//17
f 30//17 1//17 6//17
f 32//17 30//17 6//17
f 8//17 32//17 6//17
f 34//17 32//17 8//17
f 10//17 34//17 8//17
f 19//17 34//17 10//17
f 9//17 19//17 10//17
f 14//17 19//17 9//17
f 20//17 19//17 14//17
f 16//17 20//17 14//17
f 22//17 20//17 16//17
f 36//17 22//17 16//17
f 24//17 22//17 36//17
f 39//17 24//17 36//17
f 26//17 24//17 39//17
f 2//17 26//17 39//17
f 40//17 41//17 42//17
f 43//17 40//17 42//17
f 43//18 42//18 44//18
f 45//18 43//18 44//18
f 46//19 47//19 48//19
f 49//19 46//19 48//19
f 50//20 51//20 52//20
f 53//20 50//20 52//20
f 54//21 55//21 56//21
f 57//21 54//21 56//21
f 57//22 56//22 58//22
f 59//22 57//22 58//22
f 60//23 61//23 62//23
f 63//23 60//23 62//23
f 64//24 60//24 63//24
f 65//24 64//24 63//24
f 66//25 64//25 65//25
f 67//25 66//25 65//25
f 68//26 66//26 67//26
f 69//26 68//26 67//26
f 70//27 68//27 69//27
f 71//27 70//27 69//27
f 72//22 70//22 71//22
f 73//22 72//22 71//22
f 74//28 72//28 73//28
f 75//28 74//28 73//28
f 76//29 74//29 75//29
f 77//29 76//29 75//29
f 61//30 76//30 77//30
f 62//30 61//30 77//30
f 58//16 41//16 37//16
f 78//16 58//16 37//16
f 79//16 58//16 78//16
f 41//16 40//16 80//16
f 81//16 41//16 80//16
f 36//16 41//16 81//16
f 82//16 36//16 81//16
f 83//16 36//16 82//16
f 84//16 80//16 40//16
f 59//16 84//16 40//16
f 85//16 84//16 59//16
f 86//16 85//16 59//16
f 58//16 86//16 59//16
f 87//16 86//16 58//16
f 79//16 87//16 58//16
f 88//16 87//16 79//16
f 82//16 81//16 89//16
f 90//16 82//16 89//16
f 84//16 90//16 89//16
f 91//16 90//16 84//16
f 85//16 91//16 84//16
f 92//16 87//16 88//16
f 93//16 92//16 88//16
f 94//16 92//16 93//16
f 95//16 92//16 94//16
f 96//16 95//16 94//16
f 97//16 95//16 96//16
f 98//16 95//16 97//16
f 39//16 98//16 97//16
f 99//16 98//16 39//16
f 100//16 99//16 39//16
f 36//16 100//16 39//16
f 83//16 100//16 36//16
f 41//16 36//16 37//16
f 89//17 81//17 101//17
f 102//17 89//17 101//17
f 102//18 101//18 103//18
f 104//18 102//18 103//18
f 105//19 106//19 107//19
f 108//19 105//19 107//19
f 109//20 110//20 111//20
f 112//20 109//20 111//20
f 113//22 114//22 80//22
f 84//22 113//22 80//22
f 115//21 116//21 114//21
f 113//21 115//21 114//21
f 117//23 118//23 119//23
f 120//23 117//23 119//23
f 121//24 117//24 120//24
f 122//24 121//24 120//24
f 123//25 121//25 122//25
f 124//25 123//25 122//25
f 125//26 123//26 124//26
f 126//26 125//26 124//26
f 127//31 125//31 126//31
f 128//31 127//31 126//31
f 129//22 127//22 128//22
f 130//22 129//22 128//22
f 131//28 129//28 130//28
f 132//28 131//28 130//28
f 133//29 131//29 132//29
f 134//29 133//29 132//29
f 118//30 133//30 134//30
f 119//30 118//30 134//30
f 7//22 5//22 31//22
f 33//22 7//22 31//22
f 11//22 7//22 33//22
f 18//22 11//22 33//22
f 12//22 11//22 18//22
f 13//22 12//22 18//22
f 17//22 13//22 18//22
f 15//22 13//22 17//22
f 21//22 15//22 17//22
f 35//22 15//22 21//22
f 23//22 35//22 21//22
f 135//22 35//22 23//22
f 25//22 135//22 23//22
f 3//22 135//22 25//22
f 27//22 3//22 25//22
f 29//22 3//22 27//22
f 29//22 31//22 5//22
f 4//22 29//22 5//22
f 3//22 29//22 4//22
f 38//16 35//16 135//16
f 136//16 38//16 135//16
f 137//16 38//16 136//16
f 138//16 137//16 136//16
f 139//16 138//16 136//16
f 38//16 137//16 140//16
f 141//16 38//16 140//16
f 142//16 38//16 141//16
f 135//32 3//32 2//32
f 39//32 135//32 2//32
f 97//32 135//32 39//32
f 135//32 97//32 136//32
f 101//32 81//32 80//32
f 114//32 101//32 80//32
f 123//32 101//32 114//32
f 121//32 123//32 114//32
f 116//32 121//32 114//32
f 117//32 121//32 116//32
f 111//32 117//32 116//32
f 118//32 117//32 111//32
f 110//32 118//32 111//32
f 133//32 118//32 110//32
f 107//32 133//32 110//32
f 131//32 133//32 107//32
f 106//32 131//32 107//32
f 129//32 131//32 106//32
f 103//32 129//32 106//32
f 127//32 129//32 103//32
f 101//32 127//32 103//32
f 125//32 127//32 101//32
f 123//32 125//32 101//32
f 105//17 104//17 103//17
f 106//17 105//17 103//17
f 102//12 104//12 128//12
f 126//12 102//12 128//12
f 124//12 102//12 126//12
f 130//12 128//12 104//12
f 105//12 130//12 104//12
f 132//12 130//12 105//12
f 108//12 132//12 105//12
f 134//12 132//12 108//12
f 109//12 134//12 108//12
f 119//12 134//12 109//12
f 112//12 119//12 109//12
f 120//12 119//12 112//12
f 115//12 120//12 112//12
f 122//12 120//12 115//12
f 113//12 122//12 115//12
f 124//12 122//12 113//12
f 102//12 124//12 113//12
f 113//12 84//12 89//12
f 102//12 113//12 89//12
f 115//22 112//22 111//22
f 116//22 115//22 111//22
f 108//16 107//16 110//16
f 109//16 108//16 110//16
f 42//32 41//32 58//32
f 56//32 42//32 58//32
f 66//32 42//32 56//32
f 64//32 66//32 56//32
f 55//32 64//32 56//32
f 60//32 64//32 55//32
f 52//32 60//32 55//32
f 61//32 60//32 52//32
f 51//32 61//32 52//32
f 76//32 61//32 51//32
f 48//32 76//32 51//32
f 74//32 76//32 48//32
f 47//32 74//32 48//32
f 72//32 74//32 47//32
f 44//32 72//32 47//32
f 70//32 72//32 44//32
f 42//32 70//32 44//32
f 68//32 70//32 42//32
f 66//32 68//32 42//32
f 46//17 45//17 44//17
f 47//17 46//17 44//17
f 43//12 45//12 71//12
f 69//12 43//12 71//12
f 67//12 43//12 69//12
f 73//12 71//12 45//12
f 46//12 73//12 45//12
f 75//12 73//12 46//12
f 49//12 75//12 46//12
f 77//12 75//12 49//12
f 50//12 77//12 49//12
f 62//12 77//12 50//12
f 53//12 62//12 50//12
f 63//12 62//12 53//12
f 54//12 63//12 53//12
f 65//12 63//12 54//12
f 57//12 65//12 54//12
f 67//12 65//12 57//12
f 43//12 67//12 57//12
f 57//12 59//12 40//12
f 43//12 57//12 40//12
f 54//22 53//22 52//22
f 55//22 54//22 52//22
f 49//16 48//16 51//16
f 50//16 49//16 51//16
f 37//33 38//33 142//33
f 78//33 37//33 142//33
f 141//34 78//34 142//34
f 79//34 78//34 141//34
f 88//35 79//35 141//35
f 140//35 88//35 141//35
f 88//22 140//22 137//22
f 93//22 88//22 137//22
f 93//36 137//36 138//36
f 94//36 93//36 138//36
f 139//37 94//37 138//37
f 96//37 94//37 139//37
f 97//38 96//38 139//38
f 136//38 97//38 139//38
f 143//39 144//40 145//41
f 144//42 143//42 146//42
f 147//43 144//43 146//43
f 148//44 144//44 147//44
f 149//45 144//45 148//45
f 150//46 149//46 148//46
f 151//47 149//47 150//47
f 149//48 151//48 152//48
f 153//49 149//49 152//49
f 154//50 149//50 153//50
f 155//51 154//50 153//50
f 156//52 154//52 155//52
f 157//52 156//52 155//52
f 158//53 156//53 157//53
f 159//53 158//53 157//53
f 160//54 158//55 159//54
f 161//54 160//54 159//54
f 162//56 160//57 161//58
f 163//59 162//60 161//61
f 164//62 163//59 161//61
f 165//63 163//64 164//65
f 166//66 165//63 164//65
f 167//67 165//67 166//67
f 153//68 152//68 168//68
f 169//69 153//69 168//69
f 155//70 153//70 169//70
f 170//70 155//70 169//70
f 157//71 155//71 170//71
f 171//71 157//71 170//71
f 159//72 157//72 171//72
f 172//72 159//72 171//72
f 161//73 159//73 172//73
f 164//73 161//73 172//73
f 169//74 168//74 173//74
f 174//75 169//76 173//77
f 170//78 169//78 174//78
f 175//79 170//78 174//78
f 171//80 170//80 175//80
f 176//80 171//80 175//80
f 172//81 171//81 176//81
f 177//81 172//81 176//81
f 164//82 172//82 177//82
f 166//83 164//82 177//82
f 174//75 173//77 178//84
f 179//85 174//85 178//85
f 180//86 174//86 179//86
f 167//87 174//87 180//87
f 181//88 167//88 180//88
f 182//89 167//89 181//89
f 167//90 182//90 183//90
f 167//91 183//92 184//93
f 160//57 162//56 185//57
f 144//94 160//94 185//94
f 177//95 176//95 167//95
f 158//96 160//96 144//96
f 156//97 158//97 144//97
f 166//98 177//98 167//98
f 175//99 174//99 167//99
f 176//100 175//100 167//100
f 149//101 154//101 144//101
f 154//102 156//102 144//102
f 186//103 165//103 167//103
f 184//93 186//104 167//91
f 186//104 184//93 183//92
f 182//105 186//104 183//92
f 181//106 186//106 182//106
f 186//107 181//107 180//107
f 179//108 186//108 180//108
f 187//109 186//109 179//109
f 178//110 187//110 179//110
f 173//111 187//111 178//111
f 188//112 187//112 173//112
f 168//113 188//113 173//113
f 189//114 188//114 168//114
f 152//115 189//115 168//115
f 151//116 189//116 152//116
f 190//117 189//117 151//117
f 150//118 190//118 151//118
f 148//119 190//119 150//119
f 190//120 148//120 147//120
f 146//121 190//122 147//123
f 143//39 190//122 146//121
f 191//124 190//122 143//39
f 145//41 191//124 143//39
f 144//40 191//124 145//41
f 185//125 191//125 144//125
f 192//126 191//126 185//126
f 162//127 192//127 185//127
f 193//128 192//128 162//128
f 163//129 193//129 162//129
f 194//130 193//130 163//130
f 165//131 194//131 163//131
f 186//132 194//132 165//132
f 195//133 196//133 197//133
f 198//133 195//133 197//133
f 199//134 195//134 198//134
f 200//134 199//134 198//134
f 201//135 199//135 200//135
f 202//135 201//135 200//135
f 203//136 201//136 202//136
f 204//136 203//136 202//136
f 205//137 203//137 204//137
f 206//137 205//137 204//137
f 207//12 205//12 206//12
f 208//12 207//12 206//12
f 209//138 207//138 208//138
f 210//138 209//138 208//138
f 211//139 209//139 210//139
f 212//139 211//139 210//139
f 196//140 211//140 212//140
f 197//140 196//140 212//140
f 186//141 187//141 196//141
f 195//141 186//141 196//141
f 199//141 186//141 195//141
f 211//141 196//141 187//141
f 188//141 211//141 187//141
f 189//141 211//141 188//141
f 209//141 211//141 189//141
f 190//141 209//141 189//141
f 207//141 209//141 190//141
f 191//141 207//141 190//141
f 205//141 207//141 191//141
f 203//141 205//141 191//141
f 192//141 203//141 191//141
f 201//141 203//141 192//141
f 193//141 201//141 192//141
f 194//141 201//141 193//141
f 199//141 201//141 194//141
f 186//141 199//141 194//141
f 213//16 214//16 215//16
f 216//16 213//16 215//16
f 217//16 213//16 216//16
f 218//16 217//16 216//16
f 219//16 217//16 218//16
f 220//16 219//16 218//16
f 221//16 219//16 220//16
f 222//16 221//16 220//16
f 223//16 221//16 222//16
f 224//16 223//16 222//16
f 225//16 223//16 224//16
f 226//16 225//16 224//16
f 227//16 225//16 226//16
f 228//16 227//16 226//16
f 229//16 227//16 228//16
f 230//16 229//16 228//16
f 231//16 229//16 230//16
f 232//16 231//16 230//16
f 233//16 231//16 232//16
f 234//16 233//16 232//16
f 235//16 233//16 234//16
f 236//16 235//16 234//16
f 237//16 235//16 236//16
f 214//16 237//16 236//16
f 213//16 237//16 214//16
f 215//142 214//142 238//142
f 239//142 215//142 238//142
f 216//143 215//143 239//143
f 240//143 216//143 239//143
f 218//144 216//144 240//144
f 241//144 218//144 240//144
f 220//145 218//145 241//145
f 242//145 220//145 241//145
f 222//146 220//146 242//146
f 243//146 222//146 242//146
f 224//147 222//147 243//147
f 244//147 224//147 243//147
f 226//148 224//148 244//148
f 245//148 226//148 244//148
f 228//32 226//32 245//32
f 246//32 228//32 245//32
f 230//149 228//149 246//149
f 247//149 230//149 246//149
f 232//150 230//150 247//150
f 248//150 232//150 247//150
f 234//151 232//151 248//151
f 249//151 234//151 248//151
f 236//152 234//152 249//152
f 250//152 236//152 249//152
f 214//153 236//153 250//153
f 238//153 214//153 250//153
f 227//38 229//38 95//38
f 98//38 227//38 95//38
f 225//154 227//154 98//154
f 99//154 225//154 98//154
f 223//155 225//155 99//155
f 100//155 223//155 99//155
f 221//156 223//156 100//156
f 83//156 221//156 100//156
f 219//157 221//157 83//157
f 82//157 219//157 83//157
f 217//158 219//158 82//158
f 90//158 217//158 82//158
f 213//159 217//159 90//159
f 91//159 213//159 90//159
f 237//33 213//33 91//33
f 85//33 237//33 91//33
f 235//34 237//34 85//34
f 86//34 235//34 85//34
f 233//35 235//35 86//35
f 87//35 233//35 86//35
f 231//36 233//36 87//36
f 92//36 231//36 87//36
f 229//37 231//37 92//37
f 95//37 229//37 92//37
f 198//141 197//141 240//141
f 239//141 198//141 240//141
f 238//141 198//141 239//141
f 197//141 212//141 242//141
f 241//141 197//141 242//141
f 240//141 197//141 241//141
f 243//141 242//141 212//141
f 210//141 243//141 212//141
f 244//141 243//141 210//141
f 208//141 244//141 210//141
f 245//141 244//141 208//141
f 206//141 245//141 208//141
f 246//141 245//141 206//141
f 247//141 246//141 206//141
f 204//141 247//141 206//141
f 248//141 247//141 204//141
f 202//141 248//141 204//141
f 249//141 248//141 202//141
f 200//141 249//141 202//141
f 250//141 249//141 200//141
f 238//141 250//141 200//141
f 198//141 238//141 200//141
