# Blender v2.81 (sub 16) OBJ File: ''
# www.blender.org
mtllib SCON CI01 4P RA.mtl
o SCON_CI01_4P_RA
v -0.004152 -0.002566 -0.002768
v -0.004152 -0.000751 -0.002768
v -0.003648 -0.002566 -0.002768
v -0.005665 -0.000549 -0.002768
v -0.005665 0.003283 -0.002768
v -0.005161 -0.000549 -0.002768
v -0.004656 0.003283 -0.002768
v -0.004656 -0.000549 -0.002768
v -0.004354 -0.000549 -0.002768
v -0.004656 0.003485 -0.002768
v -0.003648 0.003485 -0.002768
v -0.004152 -0.002566 -0.002566
v -0.004152 -0.000751 -0.002566
v -0.004354 -0.000549 -0.002566
v -0.003648 -0.002566 -0.002364
v -0.004152 -0.002566 -0.001860
v -0.004656 -0.002566 -0.002566
v -0.005161 -0.002566 -0.002566
v -0.005161 -0.002566 -0.000751
v -0.005665 -0.002566 -0.002566
v -0.005665 -0.002566 -0.000499
v -0.004656 -0.002566 -0.000751
v -0.004152 -0.002566 -0.000499
v 0.004924 -0.002566 -0.002768
v 0.004924 -0.002566 -0.002566
v 0.004420 -0.002566 -0.002768
v 0.004420 -0.002566 -0.002364
v 0.005428 -0.002566 -0.002566
v 0.004924 -0.002566 -0.001860
v 0.005428 -0.002566 -0.000751
v 0.004924 -0.002566 -0.000499
v 0.006437 -0.002566 -0.002566
v 0.005932 -0.002566 -0.000751
v 0.005932 -0.002566 -0.002566
v 0.006437 -0.002566 -0.000499
v -0.004656 -0.000549 -0.002566
v -0.003648 0.003485 -0.002364
v -0.005161 -0.000549 -0.002566
v -0.004656 0.003485 0.001266
v -0.005665 0.003485 0.002779
v -0.005665 0.003485 0.001266
v -0.004152 0.003485 0.001770
v -0.003144 0.003485 0.001770
v -0.004152 0.003485 0.002779
v 0.005428 0.003485 -0.002768
v 0.004420 0.003485 -0.002768
v 0.004420 0.003485 -0.002364
v 0.003915 0.003485 0.001770
v 0.005428 0.003485 0.001266
v 0.003915 0.003485 0.002779
v -0.003144 0.003485 0.002779
v 0.004924 0.003485 0.001770
v 0.006437 0.003485 0.002779
v 0.004924 0.003485 0.002779
v 0.006437 0.003485 0.001266
v -0.005665 -0.000549 -0.002566
v -0.005665 0.003485 -0.002768
v -0.005665 0.003283 0.001266
v -0.005665 -0.000549 -0.000499
v -0.005665 -0.000549 0.000510
v -0.005665 -0.002566 0.000510
v -0.005665 -0.002566 0.002779
v -0.005161 -0.000549 -0.000751
v -0.004656 -0.000549 -0.000751
v 0.004924 -0.000549 -0.002768
v 0.005428 0.003283 -0.002768
v 0.005428 -0.000549 -0.002768
v 0.005932 -0.000549 -0.002768
v 0.006437 0.003283 -0.002768
v 0.006437 -0.000549 -0.002768
v 0.004924 -0.000549 -0.002566
v 0.005428 -0.000549 -0.002566
v 0.005428 -0.000549 -0.000751
v 0.005932 -0.000549 -0.000751
v 0.005932 -0.000549 -0.002566
v 0.006437 -0.000549 -0.002566
v 0.006437 0.003283 0.001266
v 0.006437 -0.000549 -0.000499
v 0.006437 -0.000549 0.000510
v 0.006437 -0.002566 0.002779
v 0.006437 -0.002566 0.000510
v 0.004924 -0.000549 -0.000499
v 0.004924 0.001972 -0.001860
v 0.004924 0.001972 0.000510
v 0.004924 -0.000549 0.000510
v -0.004152 0.001972 -0.001860
v -0.004152 -0.000549 -0.000499
v -0.004152 0.001972 0.000510
v -0.004152 -0.000549 0.000510
v 0.005428 0.005098 -0.000348
v 0.005428 0.005098 -0.002768
v 0.006437 0.005098 -0.000348
v -0.004152 -0.002556 0.002779
v -0.004152 -0.002566 0.002779
v -0.004152 -0.001053 0.002779
v -0.003658 -0.001557 0.002779
v -0.003144 -0.001053 0.002779
v -0.003638 -0.001557 0.002779
v -0.003144 -0.002556 0.002779
v 0.003915 -0.001053 0.002779
v -0.003144 -0.002566 0.002779
v 0.004924 -0.001053 0.002779
v 0.004924 0.001972 0.001770
v 0.004924 -0.001053 0.001770
v 0.003915 0.001972 0.001770
v 0.003915 -0.001053 0.001770
v -0.003144 0.001972 0.001770
v -0.003144 -0.001053 0.001770
v -0.004152 0.001972 0.001770
v -0.004152 -0.001053 0.001770
v -0.004656 0.005098 -0.000348
v -0.005665 0.005098 -0.000348
v -0.004656 0.005098 -0.002768
v -0.005665 0.005098 -0.002768
v -0.005161 -0.000549 0.000510
v -0.005161 -0.002566 0.000510
v -0.005161 -0.002566 0.001770
v -0.005161 -0.002566 0.002174
v -0.004152 -0.002566 0.002174
v -0.001631 -0.002566 0.002174
v -0.001631 -0.002566 0.002274
v 0.002403 -0.002566 0.002274
v 0.002403 -0.002566 0.002174
v 0.004924 -0.002566 0.002174
v 0.005932 -0.002566 0.001770
v 0.005932 -0.002566 0.000510
v 0.005932 -0.002566 0.002174
v 0.006437 0.003485 -0.002768
v 0.005932 -0.000549 0.000510
v -0.001631 0.001972 0.001770
v 0.002403 0.001972 0.001770
v 0.005932 0.001972 0.000510
v -0.005161 0.001972 0.000510
v 0.006437 0.005098 -0.002768
v -0.003144 -0.002566 0.002879
v -0.003144 -0.002556 0.002879
v -0.003638 -0.001557 0.002879
v -0.003658 -0.001557 0.002879
v -0.004152 -0.002556 0.002879
v -0.004152 -0.002566 0.002879
v 0.004924 -0.002162 0.001770
v 0.005932 -0.002162 0.001770
v 0.005932 0.001972 0.001770
v 0.002403 -0.002162 0.001770
v -0.004152 -0.002162 0.001770
v -0.001631 -0.002162 0.001770
v -0.005161 -0.002162 0.001770
v -0.005161 0.001972 0.001770
v -0.001631 0.001972 0.002274
v 0.002403 0.001972 0.002274
vn 0.0000 0.0000 -1.0000
vn -1.0000 0.0000 0.0000
vn -0.7071 -0.7071 0.0000
vn 0.0000 -1.0000 -0.0000
vn 1.0000 0.0000 0.0000
vn 0.0000 1.0000 0.0000
vn 0.0000 -0.0000 1.0000
vn 0.0000 0.7071 0.7071
vn 0.8962 0.4436 0.0000
vn -0.8962 0.4436 0.0000
vn 0.0000 -0.7071 -0.7071
usemtl material_1.392
s 1
f 1//1 2//1 3//1
f 4//1 5//1 6//1
f 6//1 7//1 8//1
f 8//1 7//1 9//1
f 5//1 7//1 6//1
f 10//1 11//1 7//1
f 9//1 11//1 2//1
f 7//1 11//1 9//1
f 11//1 3//1 2//1
usemtl material_0.399
f 1//2 12//2 2//2
f 2//2 12//2 13//2
f 13//3 9//3 2//3
f 14//3 9//3 13//3
f 1//4 3//4 12//4
f 3//4 15//4 12//4
f 12//4 16//4 17//4
f 15//4 16//4 12//4
f 18//4 19//4 20//4
f 20//4 19//4 21//4
f 22//4 23//4 19//4
f 19//4 23//4 21//4
f 16//4 23//4 22//4
f 24//4 25//4 26//4
f 26//4 25//4 27//4
f 28//4 29//4 25//4
f 25//4 29//4 27//4
f 29//4 30//4 31//4
f 32//4 33//4 34//4
f 33//4 35//4 30//4
f 30//4 35//4 31//4
f 32//4 35//4 33//4
f 29//4 16//4 27//4
f 27//4 16//4 15//4
f 28//4 30//4 29//4
f 22//4 17//4 16//4
f 9//4 14//4 8//4
f 8//4 14//4 36//4
f 15//5 3//5 11//5
f 15//5 11//5 37//5
f 8//4 36//4 6//4
f 6//4 36//4 38//4
f 37//6 11//6 10//6
f 39//6 37//6 10//6
f 40//6 39//6 41//6
f 42//6 39//6 40//6
f 43//6 37//6 39//6
f 43//6 39//6 42//6
f 44//6 42//6 40//6
f 45//6 46//6 47//6
f 48//6 47//6 37//6
f 48//6 37//6 43//6
f 49//6 47//6 48//6
f 49//6 45//6 47//6
f 50//6 43//6 51//6
f 50//6 48//6 43//6
f 52//6 49//6 48//6
f 53//6 52//6 54//6
f 53//6 55//6 49//6
f 53//6 49//6 52//6
f 6//4 38//4 4//4
f 4//4 38//4 56//4
f 57//1 10//1 5//1
f 5//1 10//1 7//1
f 4//2 56//2 5//2
f 58//2 40//2 41//2
f 5//2 59//2 58//2
f 56//2 59//2 5//2
f 58//2 60//2 40//2
f 59//2 60//2 58//2
f 20//2 21//2 56//2
f 56//2 21//2 59//2
f 61//2 62//2 60//2
f 60//2 62//2 40//2
f 36//1 13//1 17//1
f 17//1 13//1 12//1
f 36//1 14//1 13//1
f 56//1 38//1 20//1
f 20//1 38//1 18//1
f 19//5 18//5 38//5
f 19//5 38//5 63//5
f 63//1 64//1 19//1
f 19//1 64//1 22//1
f 17//2 22//2 36//2
f 36//2 22//2 64//2
f 37//1 27//1 15//1
f 37//1 47//1 27//1
f 26//2 27//2 46//2
f 46//2 27//2 47//2
f 26//1 65//1 24//1
f 65//1 66//1 67//1
f 67//1 66//1 68//1
f 46//1 66//1 65//1
f 46//1 45//1 66//1
f 68//1 69//1 70//1
f 66//1 69//1 68//1
f 26//1 46//1 65//1
f 25//5 24//5 65//5
f 25//5 65//5 71//5
f 71//1 72//1 25//1
f 25//1 72//1 28//1
f 30//5 28//5 72//5
f 30//5 72//5 73//5
f 73//1 74//1 30//1
f 30//1 74//1 33//1
f 34//2 33//2 75//2
f 75//2 33//2 74//2
f 75//1 76//1 34//1
f 34//1 76//1 32//1
f 76//5 70//5 69//5
f 53//5 77//5 55//5
f 78//5 69//5 77//5
f 78//5 76//5 69//5
f 79//5 77//5 53//5
f 79//5 78//5 77//5
f 35//5 32//5 76//5
f 35//5 76//5 78//5
f 80//5 81//5 79//5
f 80//5 79//5 53//5
f 78//7 82//7 31//7
f 78//7 31//7 35//7
f 83//2 82//2 84//2
f 83//2 29//2 82//2
f 82//2 85//2 84//2
f 29//2 31//2 82//2
f 83//7 86//7 16//7
f 83//7 16//7 29//7
f 87//5 86//5 88//5
f 16//5 86//5 87//5
f 89//5 87//5 88//5
f 23//5 16//5 87//5
f 87//7 59//7 21//7
f 87//7 21//7 23//7
f 36//4 64//4 38//4
f 38//4 64//4 63//4
f 45//2 90//2 91//2
f 45//2 49//2 90//2
f 49//8 92//8 90//8
f 49//8 55//8 92//8
f 93//7 62//7 94//7
f 95//7 93//7 96//7
f 95//7 62//7 93//7
f 97//7 96//7 98//7
f 97//7 98//7 99//7
f 97//7 95//7 96//7
f 40//7 62//7 95//7
f 44//7 40//7 95//7
f 100//7 99//7 101//7
f 100//7 97//7 99//7
f 80//7 100//7 101//7
f 102//7 100//7 80//7
f 50//7 51//7 97//7
f 50//7 97//7 100//7
f 53//7 54//7 102//7
f 53//7 102//7 80//7
f 52//2 103//2 54//2
f 104//2 102//2 103//2
f 103//2 102//2 54//2
f 52//7 48//7 105//7
f 52//7 105//7 103//7
f 105//5 48//5 50//5
f 100//5 106//5 105//5
f 100//5 105//5 50//5
f 43//2 107//2 51//2
f 108//2 97//2 107//2
f 107//2 97//2 51//2
f 43//7 42//7 109//7
f 43//7 109//7 107//7
f 109//5 42//5 44//5
f 95//5 110//5 109//5
f 95//5 109//5 44//5
f 41//8 111//8 112//8
f 41//8 39//8 111//8
f 111//5 10//5 113//5
f 39//5 10//5 111//5
f 114//1 113//1 57//1
f 57//1 113//1 10//1
f 57//2 58//2 41//2
f 5//2 58//2 57//2
f 59//4 115//4 60//4
f 59//4 87//4 115//4
f 87//4 89//4 115//4
f 60//1 115//1 61//1
f 61//1 115//1 116//1
f 116//4 117//4 61//4
f 118//4 62//4 117//4
f 117//4 62//4 61//4
f 119//4 94//4 118//4
f 118//4 94//4 62//4
f 119//4 101//4 94//4
f 119//4 120//4 101//4
f 120//4 121//4 101//4
f 121//4 122//4 101//4
f 123//4 124//4 122//4
f 81//4 125//4 126//4
f 125//4 80//4 127//4
f 127//4 80//4 124//4
f 124//4 80//4 122//4
f 81//4 80//4 125//4
f 80//4 101//4 122//4
f 45//1 128//1 66//1
f 66//1 128//1 69//1
f 70//4 76//4 68//4
f 68//4 76//4 75//4
f 68//4 75//4 67//4
f 67//4 75//4 72//4
f 67//4 72//4 65//4
f 65//4 72//4 71//4
f 75//4 74//4 72//4
f 72//4 74//4 73//4
f 77//5 128//5 55//5
f 77//5 69//5 128//5
f 78//4 129//4 82//4
f 82//4 129//4 85//4
f 78//4 79//4 129//4
f 129//1 79//1 126//1
f 126//1 79//1 81//1
f 88//4 107//4 109//4
f 86//4 130//4 88//4
f 88//4 130//4 107//4
f 83//4 131//4 86//4
f 86//4 131//4 130//4
f 83//4 84//4 131//4
f 84//4 105//4 131//4
f 84//4 103//4 105//4
f 132//7 84//7 85//7
f 132//7 85//7 129//7
f 88//7 133//7 115//7
f 88//7 115//7 89//7
f 92//6 134//6 91//6
f 92//6 91//6 90//6
f 91//1 134//1 45//1
f 45//1 134//1 128//1
f 92//5 128//5 134//5
f 55//5 128//5 92//5
f 97//6 108//6 110//6
f 97//6 110//6 95//6
f 102//6 104//6 106//6
f 102//6 106//6 100//6
f 135//5 101//5 99//5
f 135//5 99//5 136//5
f 98//9 136//9 99//9
f 98//9 137//9 136//9
f 137//6 98//6 96//6
f 137//6 96//6 138//6
f 139//10 96//10 93//10
f 138//10 96//10 139//10
f 94//2 140//2 93//2
f 93//2 140//2 139//2
f 141//1 104//1 142//1
f 103//1 143//1 104//1
f 104//1 143//1 142//1
f 144//1 106//1 141//1
f 106//1 104//1 141//1
f 144//1 131//1 106//1
f 131//1 105//1 106//1
f 110//1 108//1 145//1
f 108//1 146//1 145//1
f 107//1 130//1 108//1
f 108//1 130//1 146//1
f 147//1 110//1 145//1
f 147//1 148//1 110//1
f 148//1 109//1 110//1
f 57//2 112//2 114//2
f 57//2 41//2 112//2
f 111//6 113//6 114//6
f 111//6 114//6 112//6
f 115//5 133//5 148//5
f 147//5 116//5 115//5
f 147//5 115//5 148//5
f 117//5 116//5 147//5
f 118//5 117//5 147//5
f 146//5 130//5 149//5
f 121//5 120//5 146//5
f 121//5 146//5 149//5
f 145//11 120//11 119//11
f 145//11 146//11 120//11
f 149//1 150//1 121//1
f 121//1 150//1 122//1
f 147//11 119//11 118//11
f 147//11 145//11 119//11
f 131//2 144//2 150//2
f 123//2 122//2 144//2
f 144//2 122//2 150//2
f 144//11 124//11 123//11
f 144//11 141//11 124//11
f 141//11 127//11 124//11
f 141//11 142//11 127//11
f 132//2 129//2 143//2
f 126//2 142//2 129//2
f 129//2 142//2 143//2
f 126//2 125//2 142//2
f 125//2 127//2 142//2
f 101//4 135//4 94//4
f 94//4 135//4 140//4
f 132//4 143//4 84//4
f 84//4 143//4 103//4
f 88//4 109//4 133//4
f 133//4 109//4 148//4
f 131//4 150//4 130//4
f 130//4 150//4 149//4
f 136//7 139//7 140//7
f 136//7 140//7 135//7
f 137//7 138//7 139//7
f 137//7 139//7 136//7
