# Blender v2.81 (sub 16) OBJ File: ''
# www.blender.org
mtllib smh-smw-250-06_assembly_asm.mtl
o smh-smw-250-06_assembly_asm
v -0.005337 -0.001150 -0.001632
v -0.004295 -0.001150 -0.001632
v -0.005337 -0.001150 0.001436
v -0.004295 -0.001150 0.001436
v -0.003374 -0.001150 -0.001632
v -0.002761 -0.001150 -0.001632
v -0.003374 -0.001150 0.001436
v -0.002761 -0.001150 0.001436
v -0.001841 -0.001150 -0.001632
v -0.001227 -0.001150 -0.001632
v -0.001841 -0.001150 0.001436
v -0.001227 -0.001150 0.001436
v -0.000307 -0.001150 -0.001632
v 0.000307 -0.001150 -0.001632
v -0.000307 -0.001150 0.001436
v 0.000307 -0.001150 0.001436
v 0.001227 -0.001150 -0.001632
v 0.001841 -0.001150 -0.001632
v 0.001227 -0.001150 0.001436
v 0.001841 -0.001150 0.001436
v 0.002761 -0.001150 -0.001632
v 0.003374 -0.001150 -0.001632
v 0.002761 -0.001150 0.001436
v 0.003374 -0.001150 0.001436
v 0.004295 -0.001150 -0.001632
v 0.005337 -0.001150 -0.001632
v 0.004295 -0.001150 0.001436
v 0.005337 -0.001150 0.001436
v -0.004295 -0.000536 0.001129
v -0.004295 -0.000536 0.001436
v -0.004295 -0.001027 0.000638
v -0.004295 -0.001027 -0.001325
v -0.004295 -0.000720 -0.001632
v 0.001687 0.001918 0.001436
v 0.000767 0.001918 0.001436
v 0.001227 -0.000536 0.001436
v 0.001841 -0.000536 0.001436
v 0.004295 -0.000536 0.001436
v 0.003620 0.000691 0.001436
v 0.002761 -0.000536 0.001436
v 0.003374 -0.000536 0.001436
v 0.004049 0.000691 0.001436
v -0.004049 0.000691 0.001436
v -0.002761 -0.000536 0.001436
v -0.003374 -0.000536 0.001436
v 0.001687 0.003145 0.001436
v 0.000767 0.003145 0.001436
v -0.003620 0.000691 0.001436
v 0.003068 0.001918 0.001436
v -0.001841 -0.000536 0.001436
v 0.003620 0.003145 0.001436
v 0.003068 0.003145 0.001436
v -0.005337 0.003145 0.001436
v -0.001227 -0.000536 0.001436
v 0.005337 0.003145 0.001436
v 0.004049 0.003145 0.001436
v -0.003620 0.003145 0.001436
v -0.003068 0.001918 0.001436
v -0.004049 0.003145 0.001436
v 0.000307 -0.000536 0.001436
v -0.000307 -0.000536 0.001436
v -0.003068 0.003145 0.001436
v -0.001687 0.001918 0.001436
v -0.000767 0.001918 0.001436
v -0.000767 0.003145 0.001436
v -0.001687 0.003145 0.001436
v -0.003068 0.001848 0.001797
v -0.001687 0.001848 0.001797
v -0.000767 0.001848 0.001797
v 0.000767 0.001848 0.001797
v 0.001687 0.001848 0.001797
v 0.003068 0.001848 0.001797
v -0.001687 0.002093 0.001797
v -0.003068 0.002093 0.001797
v 0.000767 0.002093 0.001797
v -0.000767 0.002093 0.001797
v 0.003068 0.002093 0.001797
v 0.001687 0.002093 0.001797
v -0.005000 0.003145 0.001098
v -0.004049 0.003145 0.001098
v -0.005337 0.003145 -0.002123
v -0.005000 0.003145 -0.001785
v 0.005000 0.003145 0.001098
v 0.004049 0.003145 0.001098
v 0.005337 0.003145 -0.002123
v 0.005000 0.003145 -0.001785
v -0.003620 0.003145 0.001098
v 0.003620 0.003145 0.001098
v -0.004847 0.002992 0.000945
v -0.004049 0.002992 0.000945
v -0.004049 0.000691 0.000945
v -0.003620 0.000691 0.000945
v -0.004847 0.000077 0.000945
v 0.004049 0.000691 0.000945
v 0.004847 0.000077 0.000945
v 0.003620 0.000691 0.000945
v -0.003620 0.002992 0.000945
v 0.003620 0.002992 0.000945
v 0.004049 0.002992 0.000945
v 0.004847 0.002992 0.000945
v 0.004847 0.002992 -0.001632
v 0.004847 0.000077 -0.001632
v -0.003638 0.000077 -0.000147
v -0.004031 0.000077 -0.000147
v -0.004847 0.000077 -0.001632
v -0.004031 0.000077 -0.000540
v -0.003638 0.000077 -0.000540
v -0.002497 0.000077 -0.000147
v -0.002497 0.000077 -0.000540
v -0.002104 0.000077 -0.000147
v -0.002104 0.000077 -0.000540
v -0.000963 0.000077 -0.000147
v -0.000963 0.000077 -0.000540
v -0.000571 0.000077 -0.000147
v 0.000571 0.000077 -0.000147
v 0.000571 0.000077 -0.000540
v -0.000571 0.000077 -0.000540
v 0.002104 0.000077 -0.000540
v 0.000963 0.000077 -0.000540
v 0.000963 0.000077 -0.000147
v 0.002104 0.000077 -0.000147
v 0.002497 0.000077 -0.000147
v 0.003638 0.000077 -0.000147
v 0.003638 0.000077 -0.000540
v 0.002497 0.000077 -0.000540
v 0.004031 0.000077 -0.000147
v 0.004031 0.000077 -0.000540
v -0.004847 0.002992 -0.001632
v -0.003374 -0.001027 -0.001325
v -0.003638 -0.001027 -0.000540
v -0.004031 -0.001027 -0.000540
v -0.004031 -0.001027 -0.000147
v -0.003638 -0.001027 -0.000147
v -0.003374 -0.001027 0.000638
v -0.003374 -0.000536 0.001129
v -0.003374 -0.000720 -0.001632
v 0.004295 -0.000720 -0.001632
v 0.005337 -0.000536 -0.001632
v 0.003374 -0.000720 -0.001632
v 0.002761 -0.000720 -0.001632
v 0.001227 -0.000720 -0.001632
v 0.001841 -0.000720 -0.001632
v -0.000307 -0.000720 -0.001632
v 0.000307 -0.000720 -0.001632
v -0.001841 -0.000720 -0.001632
v -0.001227 -0.000720 -0.001632
v -0.002761 -0.000720 -0.001632
v -0.005337 -0.000536 -0.001632
v 0.003374 -0.000536 0.001129
v 0.003374 -0.001027 0.000638
v 0.003374 -0.001027 -0.001325
v 0.004295 -0.000536 0.001129
v 0.004295 -0.001027 0.000638
v 0.004295 -0.001027 -0.001325
v 0.004031 -0.001027 -0.000540
v 0.003638 -0.001027 -0.000540
v 0.003638 -0.001027 -0.000147
v 0.004031 -0.001027 -0.000147
v 0.005337 -0.000536 -0.002123
v -0.005337 -0.000536 -0.002123
v -0.002761 -0.000536 0.001129
v -0.002761 -0.001027 0.000638
v -0.002761 -0.001027 -0.001325
v -0.001841 -0.000536 0.001129
v -0.001841 -0.001027 0.000638
v -0.001841 -0.001027 -0.001325
v -0.002104 -0.001027 -0.000540
v -0.002497 -0.001027 -0.000540
v -0.002497 -0.001027 -0.000147
v -0.002104 -0.001027 -0.000147
v -0.001227 -0.000536 0.001129
v -0.001227 -0.001027 0.000638
v -0.001227 -0.001027 -0.001325
v -0.000307 -0.000536 0.001129
v -0.000307 -0.001027 0.000638
v -0.000307 -0.001027 -0.001325
v -0.000571 -0.001027 -0.000540
v -0.000963 -0.001027 -0.000540
v -0.000963 -0.001027 -0.000147
v -0.000571 -0.001027 -0.000147
v 0.000307 -0.000536 0.001129
v 0.000307 -0.001027 0.000638
v 0.000307 -0.001027 -0.001325
v 0.001227 -0.000536 0.001129
v 0.001227 -0.001027 0.000638
v 0.001227 -0.001027 -0.001325
v 0.000963 -0.001027 -0.000540
v 0.000571 -0.001027 -0.000540
v 0.000571 -0.001027 -0.000147
v 0.000963 -0.001027 -0.000147
v 0.001841 -0.000536 0.001129
v 0.001841 -0.001027 0.000638
v 0.001841 -0.001027 -0.001325
v 0.002761 -0.000536 0.001129
v 0.002761 -0.001027 0.000638
v 0.002761 -0.001027 -0.001325
v 0.002497 -0.001027 -0.000540
v 0.002104 -0.001027 -0.000540
v 0.002104 -0.001027 -0.000147
v 0.002497 -0.001027 -0.000147
v -0.004031 0.002439 -0.000147
v -0.004031 0.002439 -0.000540
v -0.004031 -0.003082 -0.000147
v -0.004031 -0.003082 -0.000540
v -0.003908 0.002654 -0.000270
v -0.003908 0.002654 -0.000417
v -0.003638 0.002439 -0.000540
v -0.003761 0.002654 -0.000417
v -0.003638 -0.003082 -0.000540
v -0.003638 0.002439 -0.000147
v -0.003638 -0.003082 -0.000147
v -0.003761 0.002654 -0.000270
v -0.003908 -0.003297 -0.000270
v -0.003761 -0.003297 -0.000270
v -0.003761 -0.003297 -0.000417
v -0.003908 -0.003297 -0.000417
v 0.003638 0.002439 -0.000147
v 0.003638 0.002439 -0.000540
v 0.003638 -0.003082 -0.000147
v 0.003638 -0.003082 -0.000540
v 0.003761 0.002654 -0.000270
v 0.003761 0.002654 -0.000417
v 0.004031 0.002439 -0.000540
v 0.003908 0.002654 -0.000417
v 0.004031 -0.003082 -0.000540
v 0.004031 0.002439 -0.000147
v 0.004031 -0.003082 -0.000147
v 0.003908 0.002654 -0.000270
v 0.003761 -0.003297 -0.000270
v 0.003908 -0.003297 -0.000270
v 0.003908 -0.003297 -0.000417
v 0.003761 -0.003297 -0.000417
v -0.002497 0.002439 -0.000147
v -0.002497 0.002439 -0.000540
v -0.002497 -0.003082 -0.000147
v -0.002497 -0.003082 -0.000540
v -0.002374 0.002654 -0.000270
v -0.002374 0.002654 -0.000417
v -0.002104 0.002439 -0.000540
v -0.002227 0.002654 -0.000417
v -0.002104 -0.003082 -0.000540
v -0.002104 0.002439 -0.000147
v -0.002104 -0.003082 -0.000147
v -0.002227 0.002654 -0.000270
v -0.002374 -0.003297 -0.000270
v -0.002227 -0.003297 -0.000270
v -0.002227 -0.003297 -0.000417
v -0.002374 -0.003297 -0.000417
v -0.000963 0.002439 -0.000147
v -0.000963 0.002439 -0.000540
v -0.000963 -0.003082 -0.000147
v -0.000963 -0.003082 -0.000540
v -0.000840 0.002654 -0.000270
v -0.000840 0.002654 -0.000417
v -0.000571 0.002439 -0.000540
v -0.000693 0.002654 -0.000417
v -0.000571 -0.003082 -0.000540
v -0.000571 0.002439 -0.000147
v -0.000571 -0.003082 -0.000147
v -0.000693 0.002654 -0.000270
v -0.000840 -0.003297 -0.000270
v -0.000693 -0.003297 -0.000270
v -0.000693 -0.003297 -0.000417
v -0.000840 -0.003297 -0.000417
v 0.000571 0.002439 -0.000147
v 0.000571 0.002439 -0.000540
v 0.000571 -0.003082 -0.000147
v 0.000571 -0.003082 -0.000540
v 0.000693 0.002654 -0.000270
v 0.000693 0.002654 -0.000417
v 0.000963 0.002439 -0.000540
v 0.000840 0.002654 -0.000417
v 0.000963 -0.003082 -0.000540
v 0.000963 0.002439 -0.000147
v 0.000963 -0.003082 -0.000147
v 0.000840 0.002654 -0.000270
v 0.000693 -0.003297 -0.000270
v 0.000840 -0.003297 -0.000270
v 0.000840 -0.003297 -0.000417
v 0.000693 -0.003297 -0.000417
v 0.002104 0.002439 -0.000147
v 0.002104 0.002439 -0.000540
v 0.002104 -0.003082 -0.000147
v 0.002104 -0.003082 -0.000540
v 0.002227 0.002654 -0.000270
v 0.002227 0.002654 -0.000417
v 0.002497 0.002439 -0.000540
v 0.002374 0.002654 -0.000417
v 0.002497 -0.003082 -0.000540
v 0.002497 0.002439 -0.000147
v 0.002497 -0.003082 -0.000147
v 0.002374 0.002654 -0.000270
v 0.002227 -0.003297 -0.000270
v 0.002374 -0.003297 -0.000270
v 0.002374 -0.003297 -0.000417
v 0.002227 -0.003297 -0.000417
vn 0.0000 -1.0000 -0.0000
vn 1.0000 0.0000 0.0000
vn 0.0000 -0.0000 1.0000
vn 0.0000 -0.9816 -0.1908
vn 0.0000 0.3249 0.9458
vn -1.0000 0.0000 0.0000
vn 0.0000 1.0000 0.0000
vn 0.0000 0.7071 -0.7071
vn 0.0000 0.0000 -1.0000
vn -0.7071 0.7071 0.0000
vn 0.7071 0.7071 0.0000
vn 0.0000 0.7071 0.7071
vn 0.0000 -0.7071 0.7071
vn 0.0000 -0.7071 -0.7071
vn -0.8682 0.4961 0.0000
vn 0.0000 0.4961 -0.8682
vn 0.8682 0.4961 0.0000
vn 0.0000 0.4961 0.8682
vn 0.0000 -0.4961 0.8682
vn 0.8682 -0.4961 0.0000
vn 0.0000 -0.4961 -0.8682
vn -0.8682 -0.4961 0.0000
usemtl material_1.700
s 1
f 1//1 2//1 3//1
f 3//1 2//1 4//1
f 5//1 6//1 7//1
f 7//1 6//1 8//1
f 9//1 10//1 11//1
f 11//1 10//1 12//1
f 13//1 14//1 15//1
f 15//1 14//1 16//1
f 17//1 18//1 19//1
f 19//1 18//1 20//1
f 21//1 22//1 23//1
f 23//1 22//1 24//1
f 25//1 26//1 27//1
f 27//1 26//1 28//1
f 29//2 30//2 4//2
f 29//2 4//2 31//2
f 2//2 32//2 31//2
f 2//2 31//2 4//2
f 33//2 32//2 2//2
f 34//3 35//3 36//3
f 34//3 36//3 37//3
f 30//3 3//3 4//3
f 28//3 38//3 27//3
f 39//3 40//3 41//3
f 39//3 37//3 40//3
f 39//3 34//3 37//3
f 42//3 39//3 41//3
f 43//3 3//3 30//3
f 42//3 41//3 38//3
f 44//3 7//3 8//3
f 44//3 45//3 7//3
f 42//3 38//3 28//3
f 46//3 47//3 35//3
f 46//3 35//3 34//3
f 48//3 30//3 45//3
f 49//3 34//3 39//3
f 48//3 43//3 30//3
f 48//3 45//3 44//3
f 50//3 48//3 44//3
f 51//3 52//3 49//3
f 53//3 3//3 43//3
f 54//3 11//3 12//3
f 55//3 56//3 42//3
f 54//3 50//3 11//3
f 55//3 42//3 28//3
f 39//3 51//3 49//3
f 57//3 48//3 58//3
f 59//3 53//3 43//3
f 60//3 15//3 16//3
f 60//3 61//3 15//3
f 62//3 57//3 58//3
f 63//3 48//3 50//3
f 63//3 50//3 54//3
f 63//3 58//3 48//3
f 64//3 54//3 61//3
f 64//3 63//3 54//3
f 37//3 19//3 20//3
f 37//3 36//3 19//3
f 65//3 63//3 64//3
f 65//3 66//3 63//3
f 35//3 60//3 36//3
f 35//3 61//3 60//3
f 35//3 64//3 61//3
f 41//3 23//3 24//3
f 41//3 40//3 23//3
f 63//4 67//4 58//4
f 63//4 68//4 67//4
f 35//4 69//4 64//4
f 35//4 70//4 69//4
f 49//4 71//4 34//4
f 49//4 72//4 71//4
f 63//2 73//2 68//2
f 63//2 66//2 73//2
f 73//5 62//5 74//5
f 73//5 66//5 62//5
f 75//5 65//5 76//5
f 75//5 47//5 65//5
f 77//5 46//5 78//5
f 77//5 52//5 46//5
f 68//3 74//3 67//3
f 68//3 73//3 74//3
f 70//3 76//3 69//3
f 70//3 75//3 76//3
f 72//3 78//3 71//3
f 72//3 77//3 78//3
f 74//6 58//6 67//6
f 74//6 62//6 58//6
f 76//6 64//6 69//6
f 76//6 65//6 64//6
f 35//2 75//2 70//2
f 35//2 47//2 75//2
f 78//6 34//6 71//6
f 78//6 46//6 34//6
f 49//2 77//2 72//2
f 52//2 77//2 49//2
f 59//7 79//7 53//7
f 80//7 79//7 59//7
f 81//7 79//7 82//7
f 81//7 53//7 79//7
f 83//7 56//7 55//7
f 83//7 84//7 56//7
f 85//7 86//7 83//7
f 85//7 83//7 55//7
f 85//7 81//7 82//7
f 85//7 82//7 86//7
f 62//7 87//7 57//7
f 66//7 87//7 62//7
f 88//7 52//7 51//7
f 88//7 46//7 52//7
f 88//7 87//7 66//7
f 88//7 66//7 65//7
f 88//7 65//7 47//7
f 88//7 47//7 46//7
f 89//8 80//8 90//8
f 79//8 80//8 89//8
f 91//2 90//2 43//2
f 80//2 59//2 90//2
f 90//2 59//2 43//2
f 91//9 92//9 93//9
f 93//9 89//9 91//9
f 89//9 90//9 91//9
f 94//9 95//9 96//9
f 96//9 95//9 92//9
f 92//9 95//9 93//9
f 97//9 98//9 92//9
f 92//9 98//9 96//9
f 99//9 100//9 94//9
f 94//9 100//9 95//9
f 97//8 88//8 98//8
f 87//8 88//8 97//8
f 87//6 97//6 57//6
f 57//6 97//6 48//6
f 48//6 97//6 92//6
f 92//7 43//7 48//7
f 92//7 91//7 43//7
f 94//7 39//7 42//7
f 94//7 96//7 39//7
f 96//2 98//2 39//2
f 88//2 51//2 98//2
f 98//2 51//2 39//2
f 84//6 99//6 56//6
f 56//6 99//6 42//6
f 42//6 99//6 94//6
f 84//8 100//8 99//8
f 84//8 83//8 100//8
f 101//10 83//10 86//10
f 101//10 100//10 83//10
f 100//6 101//6 95//6
f 95//6 101//6 102//6
f 103//7 104//7 93//7
f 105//7 104//7 106//7
f 105//7 93//7 104//7
f 107//7 105//7 106//7
f 108//7 103//7 93//7
f 109//7 107//7 103//7
f 109//7 103//7 108//7
f 109//7 105//7 107//7
f 110//7 108//7 93//7
f 111//7 105//7 109//7
f 112//7 110//7 93//7
f 113//7 111//7 110//7
f 113//7 110//7 112//7
f 113//7 105//7 111//7
f 114//7 112//7 93//7
f 115//7 114//7 93//7
f 116//7 117//7 114//7
f 116//7 114//7 115//7
f 118//7 119//7 120//7
f 118//7 120//7 121//7
f 95//7 120//7 115//7
f 95//7 122//7 121//7
f 95//7 121//7 120//7
f 95//7 115//7 93//7
f 95//7 123//7 122//7
f 124//7 125//7 122//7
f 124//7 122//7 123//7
f 126//7 123//7 95//7
f 102//7 118//7 125//7
f 102//7 127//7 126//7
f 102//7 124//7 127//7
f 102//7 119//7 118//7
f 102//7 125//7 124//7
f 102//7 126//7 95//7
f 102//7 105//7 113//7
f 102//7 113//7 117//7
f 102//7 117//7 116//7
f 102//7 116//7 119//7
f 128//2 89//2 105//2
f 105//2 89//2 93//2
f 82//11 89//11 128//11
f 82//11 79//11 89//11
f 82//12 101//12 86//12
f 128//12 101//12 82//12
f 101//3 128//3 102//3
f 102//3 128//3 105//3
f 129//1 130//1 32//1
f 32//1 130//1 131//1
f 132//1 31//1 131//1
f 131//1 31//1 32//1
f 133//1 134//1 132//1
f 132//1 134//1 31//1
f 129//1 134//1 130//1
f 130//1 134//1 133//1
f 31//13 135//13 29//13
f 134//13 135//13 31//13
f 29//1 45//1 30//1
f 135//1 45//1 29//1
f 45//6 135//6 7//6
f 7//6 135//6 134//6
f 129//6 5//6 134//6
f 134//6 5//6 7//6
f 129//6 136//6 5//6
f 25//9 137//9 26//9
f 26//9 137//9 138//9
f 137//9 139//9 138//9
f 22//9 140//9 139//9
f 21//9 140//9 22//9
f 17//9 141//9 18//9
f 18//9 141//9 142//9
f 13//9 143//9 14//9
f 14//9 143//9 144//9
f 9//9 145//9 10//9
f 10//9 145//9 146//9
f 5//9 136//9 6//9
f 6//9 136//9 147//9
f 2//9 1//9 33//9
f 33//9 148//9 136//9
f 1//9 148//9 33//9
f 148//9 138//9 136//9
f 136//9 138//9 147//9
f 147//9 138//9 145//9
f 145//9 138//9 146//9
f 146//9 138//9 143//9
f 143//9 138//9 144//9
f 144//9 138//9 141//9
f 141//9 138//9 142//9
f 142//9 138//9 140//9
f 140//9 138//9 139//9
f 149//2 41//2 24//2
f 149//2 24//2 150//2
f 22//2 151//2 150//2
f 22//2 150//2 24//2
f 139//2 151//2 22//2
f 152//1 38//1 149//1
f 149//1 38//1 41//1
f 38//6 152//6 27//6
f 27//6 152//6 153//6
f 154//6 25//6 153//6
f 153//6 25//6 27//6
f 154//6 137//6 25//6
f 137//14 154//14 139//14
f 139//14 154//14 151//14
f 154//1 155//1 151//1
f 151//1 155//1 156//1
f 157//1 150//1 156//1
f 156//1 150//1 151//1
f 158//1 153//1 157//1
f 157//1 153//1 150//1
f 154//1 153//1 155//1
f 155//1 153//1 158//1
f 150//13 152//13 149//13
f 153//13 152//13 150//13
f 138//2 28//2 26//2
f 55//2 28//2 138//2
f 85//2 138//2 159//2
f 85//2 55//2 138//2
f 148//1 160//1 138//1
f 138//1 160//1 159//1
f 3//6 148//6 1//6
f 81//6 160//6 148//6
f 53//6 148//6 3//6
f 53//6 81//6 148//6
f 81//9 159//9 160//9
f 81//9 85//9 159//9
f 136//14 129//14 33//14
f 33//14 129//14 32//14
f 161//2 44//2 8//2
f 161//2 8//2 162//2
f 6//2 163//2 162//2
f 6//2 162//2 8//2
f 147//2 163//2 6//2
f 161//1 50//1 44//1
f 164//1 50//1 161//1
f 50//6 164//6 11//6
f 11//6 164//6 165//6
f 166//6 9//6 165//6
f 165//6 9//6 11//6
f 166//6 145//6 9//6
f 145//14 166//14 147//14
f 147//14 166//14 163//14
f 166//1 167//1 163//1
f 163//1 167//1 168//1
f 169//1 162//1 168//1
f 168//1 162//1 163//1
f 170//1 165//1 169//1
f 169//1 165//1 162//1
f 166//1 165//1 167//1
f 167//1 165//1 170//1
f 162//13 164//13 161//13
f 165//13 164//13 162//13
f 171//2 54//2 12//2
f 171//2 12//2 172//2
f 10//2 173//2 172//2
f 10//2 172//2 12//2
f 146//2 173//2 10//2
f 174//1 61//1 171//1
f 171//1 61//1 54//1
f 61//6 174//6 15//6
f 15//6 174//6 175//6
f 176//6 13//6 175//6
f 175//6 13//6 15//6
f 176//6 143//6 13//6
f 143//14 176//14 146//14
f 146//14 176//14 173//14
f 176//1 177//1 173//1
f 173//1 177//1 178//1
f 179//1 172//1 178//1
f 178//1 172//1 173//1
f 180//1 175//1 179//1
f 179//1 175//1 172//1
f 176//1 175//1 177//1
f 177//1 175//1 180//1
f 172//13 174//13 171//13
f 175//13 174//13 172//13
f 181//2 60//2 16//2
f 181//2 16//2 182//2
f 14//2 183//2 182//2
f 14//2 182//2 16//2
f 144//2 183//2 14//2
f 184//1 36//1 181//1
f 181//1 36//1 60//1
f 36//6 184//6 19//6
f 19//6 184//6 185//6
f 186//6 17//6 185//6
f 185//6 17//6 19//6
f 186//6 141//6 17//6
f 141//14 186//14 144//14
f 144//14 186//14 183//14
f 186//1 187//1 183//1
f 183//1 187//1 188//1
f 189//1 182//1 188//1
f 188//1 182//1 183//1
f 190//1 185//1 189//1
f 189//1 185//1 182//1
f 186//1 185//1 187//1
f 187//1 185//1 190//1
f 182//13 184//13 181//13
f 185//13 184//13 182//13
f 191//2 37//2 20//2
f 191//2 20//2 192//2
f 18//2 193//2 192//2
f 18//2 192//2 20//2
f 142//2 193//2 18//2
f 194//1 40//1 191//1
f 191//1 40//1 37//1
f 40//6 194//6 23//6
f 23//6 194//6 195//6
f 196//6 21//6 195//6
f 195//6 21//6 23//6
f 196//6 140//6 21//6
f 140//14 196//14 142//14
f 142//14 196//14 193//14
f 196//1 197//1 193//1
f 193//1 197//1 198//1
f 199//1 192//1 198//1
f 198//1 192//1 193//1
f 200//1 195//1 199//1
f 199//1 195//1 192//1
f 196//1 195//1 197//1
f 197//1 195//1 200//1
f 192//13 194//13 191//13
f 195//13 194//13 192//13
usemtl material_0.712
f 201//6 202//6 104//6
f 104//6 202//6 106//6
f 203//6 131//6 204//6
f 132//6 131//6 203//6
f 202//15 205//15 206//15
f 202//15 201//15 205//15
f 206//16 207//16 202//16
f 206//16 208//16 207//16
f 207//9 106//9 202//9
f 207//9 107//9 106//9
f 130//9 209//9 204//9
f 130//9 204//9 131//9
f 207//2 103//2 107//2
f 207//2 210//2 103//2
f 130//2 211//2 209//2
f 130//2 133//2 211//2
f 208//17 210//17 207//17
f 208//17 212//17 210//17
f 212//7 206//7 205//7
f 212//7 208//7 206//7
f 201//18 212//18 205//18
f 201//18 210//18 212//18
f 103//3 210//3 201//3
f 103//3 201//3 104//3
f 211//3 132//3 203//3
f 211//3 133//3 132//3
f 213//19 211//19 203//19
f 213//19 214//19 211//19
f 215//1 213//1 216//1
f 215//1 214//1 213//1
f 209//20 214//20 215//20
f 209//20 211//20 214//20
f 204//21 215//21 216//21
f 204//21 209//21 215//21
f 216//22 203//22 204//22
f 216//22 213//22 203//22
f 217//6 218//6 123//6
f 123//6 218//6 124//6
f 219//6 156//6 220//6
f 157//6 156//6 219//6
f 218//15 221//15 222//15
f 218//15 217//15 221//15
f 222//16 223//16 218//16
f 222//16 224//16 223//16
f 223//9 124//9 218//9
f 223//9 127//9 124//9
f 155//9 225//9 220//9
f 155//9 220//9 156//9
f 223//2 126//2 127//2
f 223//2 226//2 126//2
f 155//2 227//2 225//2
f 155//2 158//2 227//2
f 224//17 226//17 223//17
f 224//17 228//17 226//17
f 228//7 222//7 221//7
f 228//7 224//7 222//7
f 217//18 228//18 221//18
f 217//18 226//18 228//18
f 126//3 226//3 217//3
f 126//3 217//3 123//3
f 227//3 157//3 219//3
f 227//3 158//3 157//3
f 229//19 227//19 219//19
f 229//19 230//19 227//19
f 231//1 229//1 232//1
f 231//1 230//1 229//1
f 225//20 230//20 231//20
f 225//20 227//20 230//20
f 220//21 231//21 232//21
f 220//21 225//21 231//21
f 232//22 219//22 220//22
f 232//22 229//22 219//22
f 233//6 234//6 108//6
f 108//6 234//6 109//6
f 235//6 168//6 236//6
f 169//6 168//6 235//6
f 234//15 237//15 238//15
f 234//15 233//15 237//15
f 238//16 239//16 234//16
f 238//16 240//16 239//16
f 239//9 109//9 234//9
f 239//9 111//9 109//9
f 167//9 241//9 236//9
f 167//9 236//9 168//9
f 239//2 110//2 111//2
f 239//2 242//2 110//2
f 167//2 243//2 241//2
f 167//2 170//2 243//2
f 240//17 242//17 239//17
f 240//17 244//17 242//17
f 244//7 238//7 237//7
f 244//7 240//7 238//7
f 233//18 244//18 237//18
f 233//18 242//18 244//18
f 110//3 242//3 233//3
f 110//3 233//3 108//3
f 243//3 169//3 235//3
f 243//3 170//3 169//3
f 245//19 243//19 235//19
f 245//19 246//19 243//19
f 247//1 245//1 248//1
f 247//1 246//1 245//1
f 241//20 246//20 247//20
f 241//20 243//20 246//20
f 236//21 247//21 248//21
f 236//21 241//21 247//21
f 248//22 235//22 236//22
f 248//22 245//22 235//22
f 249//6 250//6 112//6
f 112//6 250//6 113//6
f 251//6 178//6 252//6
f 179//6 178//6 251//6
f 250//15 253//15 254//15
f 250//15 249//15 253//15
f 254//16 255//16 250//16
f 254//16 256//16 255//16
f 255//9 113//9 250//9
f 255//9 117//9 113//9
f 177//9 257//9 252//9
f 177//9 252//9 178//9
f 255//2 114//2 117//2
f 255//2 258//2 114//2
f 177//2 259//2 257//2
f 177//2 180//2 259//2
f 256//17 258//17 255//17
f 256//17 260//17 258//17
f 260//7 254//7 253//7
f 260//7 256//7 254//7
f 249//18 260//18 253//18
f 249//18 258//18 260//18
f 114//3 258//3 249//3
f 114//3 249//3 112//3
f 259//3 179//3 251//3
f 259//3 180//3 179//3
f 261//19 259//19 251//19
f 261//19 262//19 259//19
f 263//1 261//1 264//1
f 263//1 262//1 261//1
f 257//20 262//20 263//20
f 257//20 259//20 262//20
f 252//21 263//21 264//21
f 252//21 257//21 263//21
f 264//22 251//22 252//22
f 264//22 261//22 251//22
f 265//6 266//6 115//6
f 115//6 266//6 116//6
f 267//6 188//6 268//6
f 189//6 188//6 267//6
f 266//15 269//15 270//15
f 266//15 265//15 269//15
f 270//16 271//16 266//16
f 270//16 272//16 271//16
f 271//9 116//9 266//9
f 271//9 119//9 116//9
f 187//9 273//9 268//9
f 187//9 268//9 188//9
f 271//2 120//2 119//2
f 271//2 274//2 120//2
f 187//2 275//2 273//2
f 187//2 190//2 275//2
f 272//17 274//17 271//17
f 272//17 276//17 274//17
f 276//7 270//7 269//7
f 276//7 272//7 270//7
f 265//18 276//18 269//18
f 265//18 274//18 276//18
f 120//3 274//3 265//3
f 120//3 265//3 115//3
f 275//3 189//3 267//3
f 275//3 190//3 189//3
f 277//19 275//19 267//19
f 277//19 278//19 275//19
f 279//1 277//1 280//1
f 279//1 278//1 277//1
f 273//20 278//20 279//20
f 273//20 275//20 278//20
f 268//21 279//21 280//21
f 268//21 273//21 279//21
f 280//22 267//22 268//22
f 280//22 277//22 267//22
f 281//6 282//6 121//6
f 121//6 282//6 118//6
f 283//6 198//6 284//6
f 199//6 198//6 283//6
f 282//15 285//15 286//15
f 282//15 281//15 285//15
f 286//16 287//16 282//16
f 286//16 288//16 287//16
f 287//9 118//9 282//9
f 287//9 125//9 118//9
f 197//9 289//9 284//9
f 197//9 284//9 198//9
f 287//2 122//2 125//2
f 287//2 290//2 122//2
f 197//2 291//2 289//2
f 197//2 200//2 291//2
f 288//17 290//17 287//17
f 288//17 292//17 290//17
f 292//7 286//7 285//7
f 292//7 288//7 286//7
f 281//18 292//18 285//18
f 281//18 290//18 292//18
f 122//3 290//3 281//3
f 122//3 281//3 121//3
f 291//3 199//3 283//3
f 291//3 200//3 199//3
f 293//19 291//19 283//19
f 293//19 294//19 291//19
f 295//1 293//1 296//1
f 295//1 294//1 293//1
f 289//20 294//20 295//20
f 289//20 291//20 294//20
f 284//21 295//21 296//21
f 284//21 289//21 295//21
f 296//22 283//22 284//22
f 296//22 293//22 283//22
