# Blender v2.81 (sub 16) OBJ File: ''
# www.blender.org
mtllib smh-smw-250-04_assembly_asm.mtl
o smh-smw-250-04_assembly_asm
v -0.011016 -0.003421 -0.004590
v -0.007995 -0.003421 -0.004590
v -0.011016 -0.003421 0.004294
v -0.007995 -0.003421 0.004294
v -0.005330 -0.003421 -0.004590
v -0.003553 -0.003421 -0.004590
v -0.005330 -0.003421 0.004294
v -0.003553 -0.003421 0.004294
v -0.000888 -0.003421 -0.004590
v 0.000888 -0.003421 -0.004590
v -0.000888 -0.003421 0.004294
v 0.000888 -0.003421 0.004294
v 0.003553 -0.003421 -0.004590
v 0.005330 -0.003421 -0.004590
v 0.003553 -0.003421 0.004294
v 0.005330 -0.003421 0.004294
v 0.007995 -0.003421 -0.004590
v 0.011016 -0.003421 -0.004590
v 0.007995 -0.003421 0.004294
v 0.011016 -0.003421 0.004294
v -0.007995 -0.001644 0.003406
v -0.007995 -0.001644 0.004294
v -0.007995 -0.003065 0.001984
v -0.007995 -0.003065 -0.003701
v -0.007995 -0.002177 -0.004590
v -0.007285 0.001910 0.004294
v -0.003553 -0.001644 0.004294
v -0.005330 -0.001644 0.004294
v -0.006041 0.001910 0.004294
v -0.000888 -0.001644 0.004294
v -0.011016 0.009017 0.004294
v 0.000888 -0.001644 0.004294
v -0.004442 0.005463 0.004294
v -0.007285 0.009017 0.004294
v 0.005330 -0.001644 0.004294
v 0.003553 -0.001644 0.004294
v -0.004442 0.009017 0.004294
v -0.006041 0.009017 0.004294
v 0.007995 -0.001644 0.004294
v 0.006041 0.001910 0.004294
v 0.007285 0.001910 0.004294
v 0.004442 0.005463 0.004294
v 0.006041 0.009017 0.004294
v 0.004442 0.009017 0.004294
v 0.011016 0.009017 0.004294
v 0.007285 0.009017 0.004294
v -0.004442 0.005970 0.005341
v -0.004442 0.005260 0.005341
v 0.004442 0.005970 0.005341
v -0.010039 0.009017 0.003317
v -0.007285 0.009017 0.003317
v -0.010039 0.009017 -0.005034
v -0.011016 0.009017 -0.006011
v 0.010039 0.009017 0.003317
v 0.007285 0.009017 0.003317
v 0.011016 0.009017 -0.006011
v 0.010039 0.009017 -0.005034
v -0.006041 0.009017 0.003317
v 0.006041 0.009017 0.003317
v -0.009594 0.008572 0.002873
v -0.007285 0.008572 0.002873
v -0.007285 0.001910 0.002873
v -0.006041 0.001910 0.002873
v -0.009594 0.000133 0.002873
v 0.007285 0.001910 0.002873
v 0.009594 0.000133 0.002873
v 0.006041 0.001910 0.002873
v -0.006041 0.008572 0.002873
v 0.006041 0.008572 0.002873
v 0.007285 0.008572 0.002873
v 0.009594 0.008572 0.002873
v 0.009594 0.008572 -0.004590
v 0.009594 0.000133 -0.004590
v -0.006094 0.000133 -0.000290
v -0.007231 0.000133 -0.000290
v -0.009594 0.000133 -0.004590
v -0.007231 0.000133 -0.001427
v -0.006094 0.000133 -0.001427
v -0.002789 0.000133 -0.000290
v -0.002789 0.000133 -0.001427
v -0.001652 0.000133 -0.000290
v -0.001652 0.000133 -0.001427
v 0.001652 0.000133 -0.001427
v 0.001652 0.000133 -0.000290
v 0.002789 0.000133 -0.000290
v 0.006094 0.000133 -0.000290
v 0.006094 0.000133 -0.001427
v 0.002789 0.000133 -0.001427
v 0.007231 0.000133 -0.000290
v 0.007231 0.000133 -0.001427
v -0.009594 0.008572 -0.004590
v -0.005330 -0.003065 -0.003701
v -0.006094 -0.003065 -0.001427
v -0.007231 -0.003065 -0.001427
v -0.007231 -0.003065 -0.000290
v -0.006094 -0.003065 -0.000290
v -0.005330 -0.003065 0.001984
v -0.005330 -0.001644 0.003406
v -0.005330 -0.002177 -0.004590
v 0.007995 -0.002177 -0.004590
v 0.011016 -0.001644 -0.004590
v 0.003553 -0.002177 -0.004590
v 0.005330 -0.002177 -0.004590
v -0.000888 -0.002177 -0.004590
v 0.000888 -0.002177 -0.004590
v -0.003553 -0.002177 -0.004590
v -0.011016 -0.001644 -0.004590
v 0.005330 -0.001644 0.003406
v 0.005330 -0.003065 0.001984
v 0.005330 -0.003065 -0.003701
v 0.007995 -0.001644 0.003406
v 0.007995 -0.003065 0.001984
v 0.007995 -0.003065 -0.003701
v 0.007231 -0.003065 -0.001427
v 0.006094 -0.003065 -0.001427
v 0.006094 -0.003065 -0.000290
v 0.007231 -0.003065 -0.000290
v 0.011016 -0.001644 -0.006011
v -0.011016 -0.001644 -0.006011
v -0.003553 -0.001644 0.003406
v -0.003553 -0.003065 0.001984
v -0.003553 -0.003065 -0.003701
v -0.000888 -0.001644 0.003406
v -0.000888 -0.003065 0.001984
v -0.000888 -0.003065 -0.003701
v -0.001652 -0.003065 -0.001427
v -0.002789 -0.003065 -0.001427
v -0.002789 -0.003065 -0.000290
v -0.001652 -0.003065 -0.000290
v 0.000888 -0.001644 0.003406
v 0.000888 -0.003065 0.001984
v 0.000888 -0.003065 -0.003701
v 0.003553 -0.001644 0.003406
v 0.003553 -0.003065 0.001984
v 0.003553 -0.003065 -0.003701
v 0.002789 -0.003065 -0.001427
v 0.001652 -0.003065 -0.001427
v 0.001652 -0.003065 -0.000290
v 0.002789 -0.003065 -0.000290
v 0.004442 0.005260 0.005341
v -0.007231 0.006973 -0.000290
v -0.007231 0.006973 -0.001427
v -0.007231 -0.009017 -0.000290
v -0.007231 -0.009017 -0.001427
v -0.006876 0.007595 -0.000645
v -0.006876 0.007595 -0.001072
v -0.006094 0.006973 -0.001427
v -0.006450 0.007595 -0.001072
v -0.006094 -0.009017 -0.001427
v -0.006094 0.006973 -0.000290
v -0.006094 -0.009017 -0.000290
v -0.006450 0.007595 -0.000645
v -0.006876 -0.009639 -0.000645
v -0.006450 -0.009639 -0.000645
v -0.006450 -0.009639 -0.001072
v -0.006876 -0.009639 -0.001072
v 0.006094 0.006973 -0.000290
v 0.006094 0.006973 -0.001427
v 0.006094 -0.009017 -0.000290
v 0.006094 -0.009017 -0.001427
v 0.006450 0.007595 -0.000645
v 0.006450 0.007595 -0.001072
v 0.007231 0.006973 -0.001427
v 0.006876 0.007595 -0.001072
v 0.007231 -0.009017 -0.001427
v 0.007231 0.006973 -0.000290
v 0.007231 -0.009017 -0.000290
v 0.006876 0.007595 -0.000645
v 0.006450 -0.009639 -0.000645
v 0.006876 -0.009639 -0.000645
v 0.006876 -0.009639 -0.001072
v 0.006450 -0.009639 -0.001072
v -0.002789 0.006973 -0.000290
v -0.002789 0.006973 -0.001427
v -0.002789 -0.009017 -0.000290
v -0.002789 -0.009017 -0.001427
v -0.002434 0.007595 -0.000645
v -0.002434 0.007595 -0.001072
v -0.001652 0.006973 -0.001427
v -0.002008 0.007595 -0.001072
v -0.001652 -0.009017 -0.001427
v -0.001652 0.006973 -0.000290
v -0.001652 -0.009017 -0.000290
v -0.002008 0.007595 -0.000645
v -0.002434 -0.009639 -0.000645
v -0.002008 -0.009639 -0.000645
v -0.002008 -0.009639 -0.001072
v -0.002434 -0.009639 -0.001072
v 0.001652 0.006973 -0.000290
v 0.001652 0.006973 -0.001427
v 0.001652 -0.009017 -0.000290
v 0.001652 -0.009017 -0.001427
v 0.002008 0.007595 -0.000645
v 0.002008 0.007595 -0.001072
v 0.002789 0.006973 -0.001427
v 0.002434 0.007595 -0.001072
v 0.002789 -0.009017 -0.001427
v 0.002789 0.006973 -0.000290
v 0.002789 -0.009017 -0.000290
v 0.002434 0.007595 -0.000645
v 0.002008 -0.009639 -0.000645
v 0.002434 -0.009639 -0.000645
v 0.002434 -0.009639 -0.001072
v 0.002008 -0.009639 -0.001072
vn 0.0000 -1.0000 -0.0000
vn 1.0000 0.0000 0.0000
vn -0.0000 0.0000 1.0000
vn -1.0000 0.0000 0.0000
vn 0.0000 0.3249 0.9458
vn 0.0000 1.0000 0.0000
vn 0.0000 0.7071 -0.7071
vn 0.0000 0.0000 -1.0000
vn -0.7071 0.7071 0.0000
vn 0.7071 0.7071 0.0000
vn 0.0000 0.7071 0.7071
vn 0.0000 -0.7071 0.7071
vn 0.0000 -0.7071 -0.7071
vn 0.0000 -0.9816 -0.1908
vn -0.8682 0.4961 0.0000
vn 0.0000 0.4961 -0.8682
vn 0.8682 0.4961 0.0000
vn 0.0000 0.4961 0.8682
vn 0.0000 -0.4961 0.8682
vn 0.8682 -0.4961 0.0000
vn 0.0000 -0.4961 -0.8682
vn -0.8682 -0.4961 0.0000
usemtl material_1.080
s 1
f 1//1 2//1 3//1
f 3//1 2//1 4//1
f 5//1 6//1 7//1
f 7//1 6//1 8//1
f 9//1 10//1 11//1
f 11//1 10//1 12//1
f 13//1 14//1 15//1
f 15//1 14//1 16//1
f 17//1 18//1 19//1
f 19//1 18//1 20//1
f 21//2 22//2 4//2
f 21//2 4//2 23//2
f 2//2 24//2 23//2
f 2//2 23//2 4//2
f 25//2 24//2 2//2
f 22//3 3//3 4//3
f 26//3 3//3 22//3
f 27//3 7//3 8//3
f 27//3 28//3 7//3
f 29//3 22//3 28//3
f 29//3 26//3 22//3
f 29//3 28//3 27//3
f 30//3 29//3 27//3
f 31//3 3//3 26//3
f 32//3 11//3 12//3
f 32//3 30//3 11//3
f 33//3 29//3 30//3
f 34//3 31//3 26//3
f 35//3 15//3 16//3
f 35//3 36//3 15//3
f 37//3 38//3 33//3
f 20//3 39//3 19//3
f 40//3 35//3 39//3
f 40//3 32//3 36//3
f 40//3 36//3 35//3
f 41//3 39//3 20//3
f 41//3 40//3 39//3
f 42//3 30//3 32//3
f 42//3 33//3 30//3
f 42//3 32//3 40//3
f 43//3 44//3 42//3
f 45//3 46//3 41//3
f 45//3 41//3 20//3
f 40//3 43//3 42//3
f 38//3 29//3 33//3
f 47//4 33//4 48//4
f 47//4 37//4 33//4
f 49//5 44//5 37//5
f 49//5 37//5 47//5
f 34//6 50//6 31//6
f 51//6 50//6 34//6
f 52//6 53//6 31//6
f 52//6 31//6 50//6
f 54//6 46//6 45//6
f 54//6 55//6 46//6
f 56//6 57//6 54//6
f 56//6 54//6 45//6
f 56//6 53//6 52//6
f 56//6 52//6 57//6
f 37//6 58//6 38//6
f 59//6 44//6 43//6
f 59//6 58//6 37//6
f 59//6 37//6 44//6
f 60//7 51//7 61//7
f 50//7 51//7 60//7
f 62//2 61//2 26//2
f 51//2 34//2 61//2
f 61//2 34//2 26//2
f 62//8 63//8 64//8
f 64//8 60//8 62//8
f 60//8 61//8 62//8
f 65//8 66//8 67//8
f 67//8 66//8 63//8
f 63//8 66//8 64//8
f 68//8 69//8 63//8
f 63//8 69//8 67//8
f 70//8 71//8 65//8
f 65//8 71//8 66//8
f 58//7 69//7 68//7
f 58//7 59//7 69//7
f 58//4 68//4 38//4
f 38//4 68//4 29//4
f 29//4 68//4 63//4
f 63//6 26//6 29//6
f 63//6 62//6 26//6
f 65//6 40//6 41//6
f 65//6 67//6 40//6
f 67//2 69//2 40//2
f 59//2 43//2 69//2
f 69//2 43//2 40//2
f 55//4 70//4 46//4
f 46//4 70//4 41//4
f 41//4 70//4 65//4
f 55//7 71//7 70//7
f 55//7 54//7 71//7
f 72//9 54//9 57//9
f 72//9 71//9 54//9
f 71//4 72//4 66//4
f 66//4 72//4 73//4
f 74//6 75//6 64//6
f 76//6 75//6 77//6
f 76//6 64//6 75//6
f 78//6 76//6 77//6
f 79//6 74//6 64//6
f 80//6 78//6 74//6
f 80//6 74//6 79//6
f 80//6 76//6 78//6
f 81//6 79//6 64//6
f 82//6 76//6 80//6
f 83//6 82//6 81//6
f 83//6 81//6 84//6
f 66//6 85//6 84//6
f 66//6 84//6 81//6
f 66//6 81//6 64//6
f 66//6 86//6 85//6
f 87//6 88//6 85//6
f 87//6 85//6 86//6
f 89//6 86//6 66//6
f 73//6 83//6 88//6
f 73//6 90//6 89//6
f 73//6 87//6 90//6
f 73//6 88//6 87//6
f 73//6 89//6 66//6
f 73//6 76//6 82//6
f 73//6 82//6 83//6
f 91//2 60//2 76//2
f 76//2 60//2 64//2
f 52//10 60//10 91//10
f 52//10 50//10 60//10
f 91//11 57//11 52//11
f 91//11 72//11 57//11
f 72//3 91//3 73//3
f 73//3 91//3 76//3
f 92//1 93//1 24//1
f 24//1 93//1 94//1
f 95//1 23//1 94//1
f 94//1 23//1 24//1
f 96//1 97//1 95//1
f 95//1 97//1 23//1
f 92//1 97//1 93//1
f 93//1 97//1 96//1
f 23//12 98//12 21//12
f 97//12 98//12 23//12
f 21//1 28//1 22//1
f 98//1 28//1 21//1
f 28//4 98//4 7//4
f 7//4 98//4 97//4
f 92//4 5//4 97//4
f 97//4 5//4 7//4
f 92//4 99//4 5//4
f 17//8 100//8 18//8
f 18//8 100//8 101//8
f 14//8 102//8 103//8
f 13//8 102//8 14//8
f 9//8 104//8 10//8
f 10//8 104//8 105//8
f 5//8 99//8 6//8
f 6//8 99//8 106//8
f 2//8 1//8 25//8
f 25//8 107//8 99//8
f 1//8 107//8 25//8
f 107//8 101//8 99//8
f 99//8 101//8 106//8
f 106//8 101//8 104//8
f 104//8 101//8 105//8
f 105//8 101//8 102//8
f 102//8 101//8 103//8
f 103//8 101//8 100//8
f 108//2 35//2 16//2
f 108//2 16//2 109//2
f 14//2 110//2 109//2
f 14//2 109//2 16//2
f 103//2 110//2 14//2
f 111//1 39//1 108//1
f 108//1 39//1 35//1
f 39//4 111//4 19//4
f 19//4 111//4 112//4
f 113//4 17//4 112//4
f 112//4 17//4 19//4
f 113//4 100//4 17//4
f 100//13 113//13 103//13
f 103//13 113//13 110//13
f 113//1 114//1 110//1
f 110//1 114//1 115//1
f 116//1 109//1 115//1
f 115//1 109//1 110//1
f 117//1 112//1 116//1
f 116//1 112//1 109//1
f 113//1 112//1 114//1
f 114//1 112//1 117//1
f 109//12 111//12 108//12
f 112//12 111//12 109//12
f 101//2 20//2 18//2
f 45//2 20//2 101//2
f 56//2 101//2 118//2
f 56//2 45//2 101//2
f 107//1 119//1 101//1
f 101//1 119//1 118//1
f 3//4 107//4 1//4
f 53//4 119//4 107//4
f 31//4 107//4 3//4
f 31//4 53//4 107//4
f 53//8 118//8 119//8
f 53//8 56//8 118//8
f 99//13 92//13 25//13
f 25//13 92//13 24//13
f 120//2 27//2 8//2
f 120//2 8//2 121//2
f 6//2 122//2 121//2
f 6//2 121//2 8//2
f 106//2 122//2 6//2
f 120//1 30//1 27//1
f 123//1 30//1 120//1
f 30//4 123//4 11//4
f 11//4 123//4 124//4
f 125//4 9//4 124//4
f 124//4 9//4 11//4
f 125//4 104//4 9//4
f 104//13 125//13 106//13
f 106//13 125//13 122//13
f 125//1 126//1 122//1
f 122//1 126//1 127//1
f 128//1 121//1 127//1
f 127//1 121//1 122//1
f 129//1 124//1 128//1
f 128//1 124//1 121//1
f 125//1 124//1 126//1
f 126//1 124//1 129//1
f 121//12 123//12 120//12
f 124//12 123//12 121//12
f 130//2 32//2 12//2
f 130//2 12//2 131//2
f 10//2 132//2 131//2
f 10//2 131//2 12//2
f 105//2 132//2 10//2
f 133//1 36//1 130//1
f 130//1 36//1 32//1
f 36//4 133//4 15//4
f 15//4 133//4 134//4
f 135//4 13//4 134//4
f 134//4 13//4 15//4
f 135//4 102//4 13//4
f 102//13 135//13 105//13
f 105//13 135//13 132//13
f 135//1 136//1 132//1
f 132//1 136//1 137//1
f 138//1 131//1 137//1
f 137//1 131//1 132//1
f 139//1 134//1 138//1
f 138//1 134//1 131//1
f 135//1 134//1 136//1
f 136//1 134//1 139//1
f 131//12 133//12 130//12
f 134//12 133//12 131//12
f 42//2 49//2 140//2
f 44//2 49//2 42//2
f 42//14 48//14 33//14
f 42//14 140//14 48//14
f 140//3 47//3 48//3
f 140//3 49//3 47//3
usemtl material_0.083
f 141//4 142//4 75//4
f 75//4 142//4 77//4
f 143//4 94//4 144//4
f 95//4 94//4 143//4
f 142//15 145//15 146//15
f 142//15 141//15 145//15
f 146//16 147//16 142//16
f 146//16 148//16 147//16
f 147//8 77//8 142//8
f 147//8 78//8 77//8
f 93//8 149//8 144//8
f 93//8 144//8 94//8
f 147//2 74//2 78//2
f 147//2 150//2 74//2
f 93//2 151//2 149//2
f 93//2 96//2 151//2
f 148//17 150//17 147//17
f 148//17 152//17 150//17
f 152//6 146//6 145//6
f 152//6 148//6 146//6
f 141//18 152//18 145//18
f 141//18 150//18 152//18
f 74//3 150//3 141//3
f 74//3 141//3 75//3
f 151//3 95//3 143//3
f 151//3 96//3 95//3
f 153//19 151//19 143//19
f 153//19 154//19 151//19
f 155//1 153//1 156//1
f 155//1 154//1 153//1
f 149//20 154//20 155//20
f 149//20 151//20 154//20
f 144//21 155//21 156//21
f 144//21 149//21 155//21
f 156//22 143//22 144//22
f 156//22 153//22 143//22
f 157//4 158//4 86//4
f 86//4 158//4 87//4
f 159//4 115//4 160//4
f 116//4 115//4 159//4
f 158//15 161//15 162//15
f 158//15 157//15 161//15
f 162//16 163//16 158//16
f 162//16 164//16 163//16
f 163//8 87//8 158//8
f 163//8 90//8 87//8
f 114//8 165//8 160//8
f 114//8 160//8 115//8
f 163//2 89//2 90//2
f 163//2 166//2 89//2
f 114//2 167//2 165//2
f 114//2 117//2 167//2
f 164//17 166//17 163//17
f 164//17 168//17 166//17
f 168//6 162//6 161//6
f 168//6 164//6 162//6
f 157//18 168//18 161//18
f 157//18 166//18 168//18
f 89//3 166//3 157//3
f 89//3 157//3 86//3
f 167//3 116//3 159//3
f 167//3 117//3 116//3
f 169//19 167//19 159//19
f 169//19 170//19 167//19
f 171//1 169//1 172//1
f 171//1 170//1 169//1
f 165//20 170//20 171//20
f 165//20 167//20 170//20
f 160//21 171//21 172//21
f 160//21 165//21 171//21
f 172//22 159//22 160//22
f 172//22 169//22 159//22
f 173//4 174//4 79//4
f 79//4 174//4 80//4
f 175//4 127//4 176//4
f 128//4 127//4 175//4
f 174//15 177//15 178//15
f 174//15 173//15 177//15
f 178//16 179//16 174//16
f 178//16 180//16 179//16
f 179//8 80//8 174//8
f 179//8 82//8 80//8
f 126//8 181//8 176//8
f 126//8 176//8 127//8
f 179//2 81//2 82//2
f 179//2 182//2 81//2
f 126//2 183//2 181//2
f 126//2 129//2 183//2
f 180//17 182//17 179//17
f 180//17 184//17 182//17
f 184//6 178//6 177//6
f 184//6 180//6 178//6
f 173//18 184//18 177//18
f 173//18 182//18 184//18
f 81//3 182//3 173//3
f 81//3 173//3 79//3
f 183//3 128//3 175//3
f 183//3 129//3 128//3
f 185//19 183//19 175//19
f 185//19 186//19 183//19
f 187//1 185//1 188//1
f 187//1 186//1 185//1
f 181//20 186//20 187//20
f 181//20 183//20 186//20
f 176//21 187//21 188//21
f 176//21 181//21 187//21
f 188//22 175//22 176//22
f 188//22 185//22 175//22
f 189//4 190//4 84//4
f 84//4 190//4 83//4
f 191//4 137//4 192//4
f 138//4 137//4 191//4
f 190//15 193//15 194//15
f 190//15 189//15 193//15
f 194//16 195//16 190//16
f 194//16 196//16 195//16
f 195//8 83//8 190//8
f 195//8 88//8 83//8
f 136//8 197//8 192//8
f 136//8 192//8 137//8
f 195//2 85//2 88//2
f 195//2 198//2 85//2
f 136//2 199//2 197//2
f 136//2 139//2 199//2
f 196//17 198//17 195//17
f 196//17 200//17 198//17
f 200//6 194//6 193//6
f 200//6 196//6 194//6
f 189//18 200//18 193//18
f 189//18 198//18 200//18
f 85//3 198//3 189//3
f 85//3 189//3 84//3
f 199//3 138//3 191//3
f 199//3 139//3 138//3
f 201//19 199//19 191//19
f 201//19 202//19 199//19
f 203//1 201//1 204//1
f 203//1 202//1 201//1
f 197//20 202//20 203//20
f 197//20 199//20 202//20
f 192//21 203//21 204//21
f 192//21 197//21 203//21
f 204//22 191//22 192//22
f 204//22 201//22 191//22
