# Blender v2.81 (sub 16) OBJ File: ''
# www.blender.org
mtllib WSL 6W IDC Bh Connector 6-Pin v3.mtl
o WSL_6W_IDC_Bh_Connector_6-Pin_v3
v -0.004641 0.000934 0.000533
v -0.000197 0.002001 0.000533
v -0.000197 0.000934 0.000533
v -0.004641 0.002001 0.000533
v -0.000197 0.002001 -0.000533
v -0.004641 0.002001 -0.000533
v -0.000197 0.000934 -0.000533
v -0.004641 0.000934 -0.000533
v -0.004641 0.000934 0.005048
v -0.000197 0.002001 0.005048
v -0.000197 0.000934 0.005048
v -0.004641 0.002001 0.005048
v -0.000197 0.002001 0.003981
v -0.004641 0.002001 0.003981
v -0.000197 0.000934 0.003981
v -0.004641 0.000934 0.003981
v -0.004641 -0.003580 0.005048
v -0.000197 -0.002514 0.005048
v -0.000197 -0.003580 0.005048
v -0.004641 -0.002514 0.005048
v -0.000197 -0.002514 0.003981
v -0.004641 -0.002514 0.003981
v -0.000197 -0.003580 0.003981
v -0.004641 -0.003580 0.003981
v -0.004641 -0.003580 -0.003981
v -0.000197 -0.002514 -0.003981
v -0.000197 -0.003580 -0.003981
v -0.004641 -0.002514 -0.003981
v -0.000197 -0.002514 -0.005048
v -0.004641 -0.002514 -0.005048
v -0.000197 -0.003580 -0.005048
v -0.004641 -0.003580 -0.005048
v -0.004641 0.002001 -0.003981
v -0.000197 0.002001 -0.005048
v -0.000197 0.002001 -0.003981
v -0.004641 0.002001 -0.005048
v -0.000197 0.000934 -0.005048
v -0.004641 0.000934 -0.005048
v -0.000197 0.000934 -0.003981
v -0.004641 0.000934 -0.003981
v -0.004641 -0.003580 0.000533
v -0.000197 -0.002514 0.000533
v -0.000197 -0.003580 0.000533
v -0.004641 -0.002514 0.000533
v -0.000197 -0.002514 -0.000533
v -0.004641 -0.002514 -0.000533
v -0.000197 -0.003580 -0.000533
v -0.004641 -0.003580 -0.000533
v -0.000197 -0.007011 0.011766
v -0.000197 0.005431 0.011766
v -0.000197 0.005431 0.003999
v -0.000197 -0.007011 -0.011766
v -0.000197 0.005431 -0.003999
v -0.000197 0.007208 -0.003999
v -0.000197 0.007208 0.003999
v -0.000197 0.005431 -0.011766
v -0.004641 -0.008788 -0.013544
v -0.004641 0.007208 -0.013544
v -0.004641 -0.008788 0.013544
v -0.004641 0.007208 0.013544
v 0.011355 0.007208 0.003999
v 0.011355 0.005431 0.003999
v 0.011355 0.005431 0.011766
v 0.011355 -0.007011 0.011766
v 0.011355 -0.007011 -0.011766
v 0.011355 0.005431 -0.011766
v 0.011355 0.005431 -0.003999
v 0.011355 0.007208 -0.003999
v 0.011355 0.007208 -0.013544
v 0.011355 0.007208 0.013544
v 0.011355 -0.008788 -0.013544
v 0.011355 -0.008788 0.013544
vn 0.0000 0.0000 -1.0000
vn 0.0000 -1.0000 0.0000
vn 0.0000 -0.0000 1.0000
vn 0.0000 1.0000 0.0000
vn 1.0000 -0.0000 0.0000
vn -1.0000 0.0000 0.0000
usemtl material_1.352
s 1
f 1//1 2//1 3//1
f 1//1 4//1 2//1
usemtl material_0.359
f 4//2 5//2 2//2
f 4//2 6//2 5//2
f 6//3 7//3 5//3
f 6//3 8//3 7//3
f 8//4 3//4 7//4
f 8//4 1//4 3//4
f 9//1 10//1 11//1
f 9//1 12//1 10//1
f 12//2 13//2 10//2
f 12//2 14//2 13//2
f 14//3 15//3 13//3
f 14//3 16//3 15//3
f 16//4 11//4 15//4
f 16//4 9//4 11//4
f 17//1 18//1 19//1
f 17//1 20//1 18//1
f 20//2 21//2 18//2
f 20//2 22//2 21//2
f 22//3 23//3 21//3
f 22//3 24//3 23//3
f 24//4 19//4 23//4
f 24//4 17//4 19//4
f 25//1 26//1 27//1
f 25//1 28//1 26//1
f 28//2 29//2 26//2
f 28//2 30//2 29//2
f 30//3 31//3 29//3
f 30//3 32//3 31//3
f 32//4 27//4 31//4
f 32//4 25//4 27//4
f 33//2 34//2 35//2
f 33//2 36//2 34//2
f 36//3 37//3 34//3
f 36//3 38//3 37//3
f 38//4 39//4 37//4
f 38//4 40//4 39//4
f 40//1 35//1 39//1
f 40//1 33//1 35//1
f 41//1 42//1 43//1
f 41//1 44//1 42//1
f 44//2 45//2 42//2
f 44//2 46//2 45//2
f 46//3 47//3 45//3
f 46//3 48//3 47//3
f 48//4 43//4 47//4
f 48//4 41//4 43//4
f 23//5 19//5 49//5
f 18//5 49//5 19//5
f 43//5 23//5 49//5
f 11//5 50//5 49//5
f 11//5 49//5 18//5
f 15//5 18//5 21//5
f 15//5 11//5 18//5
f 42//5 21//5 23//5
f 42//5 23//5 43//5
f 10//5 50//5 11//5
f 3//5 15//5 21//5
f 3//5 21//5 42//5
f 51//5 10//5 13//5
f 51//5 50//5 10//5
f 2//5 13//5 15//5
f 2//5 51//5 13//5
f 2//5 15//5 3//5
f 26//5 45//5 47//5
f 26//5 47//5 27//5
f 7//5 42//5 45//5
f 7//5 3//5 42//5
f 5//5 51//5 2//5
f 52//5 47//5 43//5
f 52//5 31//5 27//5
f 52//5 29//5 31//5
f 52//5 43//5 49//5
f 52//5 27//5 47//5
f 39//5 45//5 26//5
f 39//5 7//5 45//5
f 37//5 26//5 29//5
f 37//5 39//5 26//5
f 35//5 5//5 7//5
f 35//5 7//5 39//5
f 53//5 35//5 34//5
f 53//5 51//5 5//5
f 53//5 5//5 35//5
f 54//5 55//5 51//5
f 54//5 51//5 53//5
f 56//5 34//5 37//5
f 56//5 29//5 52//5
f 56//5 53//5 34//5
f 56//5 37//5 29//5
f 30//6 57//6 32//6
f 25//6 32//6 57//6
f 38//6 58//6 57//6
f 38//6 57//6 30//6
f 48//6 25//6 57//6
f 40//6 30//6 28//6
f 40//6 38//6 30//6
f 36//6 58//6 38//6
f 46//6 28//6 25//6
f 46//6 25//6 48//6
f 33//6 58//6 36//6
f 8//6 40//6 28//6
f 8//6 28//6 46//6
f 22//6 44//6 41//6
f 22//6 41//6 24//6
f 1//6 46//6 44//6
f 1//6 8//6 46//6
f 6//6 33//6 40//6
f 6//6 40//6 8//6
f 6//6 58//6 33//6
f 59//6 41//6 48//6
f 59//6 17//6 24//6
f 59//6 20//6 17//6
f 59//6 48//6 57//6
f 59//6 24//6 41//6
f 16//6 44//6 22//6
f 16//6 1//6 44//6
f 14//6 4//6 1//6
f 14//6 1//6 16//6
f 9//6 22//6 20//6
f 9//6 20//6 59//6
f 9//6 16//6 22//6
f 60//6 14//6 12//6
f 60//6 12//6 9//6
f 60//6 4//6 14//6
f 60//6 9//6 59//6
f 60//6 58//6 6//6
f 60//6 6//6 4//6
f 61//1 51//1 55//1
f 61//1 62//1 51//1
f 62//2 50//2 51//2
f 62//2 63//2 50//2
f 63//1 49//1 50//1
f 63//1 64//1 49//1
f 64//4 52//4 49//4
f 64//4 65//4 52//4
f 65//3 56//3 52//3
f 65//3 66//3 56//3
f 66//2 53//2 56//2
f 66//2 67//2 53//2
f 67//3 54//3 53//3
f 67//3 68//3 54//3
f 69//4 58//4 54//4
f 68//4 69//4 54//4
f 60//4 55//4 54//4
f 60//4 54//4 58//4
f 70//4 61//4 55//4
f 70//4 55//4 60//4
f 69//1 71//1 57//1
f 69//1 57//1 58//1
f 71//2 72//2 59//2
f 71//2 59//2 57//2
f 72//3 70//3 60//3
f 72//3 60//3 59//3
f 63//5 70//5 72//5
f 63//5 72//5 64//5
f 61//5 63//5 62//5
f 61//5 70//5 63//5
f 65//5 72//5 71//5
f 65//5 64//5 72//5
f 66//5 68//5 67//5
f 69//5 66//5 65//5
f 69//5 65//5 71//5
f 69//5 68//5 66//5
