# Blender v2.82 (sub 7) OBJ File: 'pegs_test.blend'
# www.blender.org
mtllib square.mtl
o peg_square
v -0.007071 -0.007071 -0.020000
v -0.007071 -0.007071 0.020000
v -0.007071 0.007071 -0.020000
v -0.007071 0.007071 0.020000
v 0.007071 0.007071 -0.020000
v 0.007071 0.007071 0.020000
v 0.007071 -0.007071 -0.020000
v 0.007071 -0.007071 0.020000
vt 1.000000 1.000000
vt 0.750000 0.500000
vt 1.000000 0.500000
vt 0.750000 1.000000
vt 0.500000 0.500000
vt 0.250000 0.490000
vt 0.250000 0.010000
vt 0.490000 0.250000
vt 0.500000 1.000000
vt 0.250000 0.500000
vt 0.250000 1.000000
vt 0.000000 0.500000
vt 0.990000 0.250000
vt 0.510000 0.250000
vt 0.750000 0.490000
vt 0.010000 0.250000
vt 0.000000 1.000000
vt 0.750000 0.010000
vn -1.0000 0.0000 0.0000
vn 0.0000 1.0000 0.0000
vn -0.0000 0.0000 1.0000
vn 1.0000 -0.0000 0.0000
vn 0.0000 -1.0000 0.0000
vn 0.0000 0.0000 -1.0000
usemtl None
s off
f 2/1/1 3/2/1 1/3/1
f 4/4/2 5/5/2 3/2/2
f 2/6/3 6/7/3 4/8/3
f 6/9/4 7/10/4 5/5/4
f 8/11/5 1/12/5 7/10/5
f 3/13/6 7/14/6 1/15/6
f 2/1/1 4/4/1 3/2/1
f 4/4/2 6/9/2 5/5/2
f 2/6/3 8/16/3 6/7/3
f 6/9/4 8/11/4 7/10/4
f 8/11/5 2/17/5 1/12/5
f 3/13/6 5/18/6 7/14/6
