# Blender v2.82 (sub 7) OBJ File: 'pegs_test.blend'
# www.blender.org
mtllib square_leg_short.mtl
o peg_square_leg_short
v -0.006070 0.007071 0.009412
v -0.006070 0.007071 0.009500
v -0.006070 -0.003500 0.009500
v -0.006070 -0.003500 -0.009500
v -0.006070 0.003500 0.009500
v -0.006070 0.003500 -0.009500
v 0.007071 -0.007071 0.009500
v 0.007071 -0.007071 -0.009500
v -0.006070 -0.007071 0.009500
v -0.006070 -0.007071 -0.009500
v 0.007071 0.007071 0.009500
v 0.007071 0.007071 -0.009500
v -0.008470 -0.003500 0.009500
v -0.008470 -0.003500 -0.009500
v -0.008470 0.003500 0.009500
v -0.008470 0.003500 -0.009500
v -0.006070 0.007071 -0.009500
vt 0.598140 0.500000
vt 0.401859 0.750000
vt 0.401859 0.500000
vt 0.588388 0.036612
vt 0.410781 0.081250
vt 0.589219 0.081250
vt 0.482303 0.944454
vt 0.250000 0.946281
vt 0.250000 0.553719
vt 0.000000 0.553719
vt 0.589219 0.168750
vt 0.410781 0.213388
vt 0.589219 0.213388
vt 0.401860 0.964286
vt 0.598140 0.750000
vt 0.598140 0.964286
vt 0.329868 0.578947
vt 0.329868 0.671053
vt 0.156960 0.718040
vt 0.670132 0.578947
vt 0.843040 0.531960
vt 0.670132 0.671053
vt 1.000000 0.946281
vt 0.767696 0.553719
vt 1.000000 0.553719
vt 0.598141 0.285714
vt 0.401860 0.285714
vt 0.589219 0.036612
vt 0.410781 0.036612
vt 0.482304 0.553719
vt 0.482303 0.946281
vt 0.000000 0.946281
vt 0.410781 0.168750
vt 0.156960 0.531960
vt 0.329868 0.531960
vt 0.361447 0.578947
vt 0.361447 0.671053
vt 0.329868 0.718040
vt 0.638553 0.671053
vt 0.638553 0.578947
vt 0.670132 0.531960
vt 0.843040 0.718040
vt 0.670132 0.718040
vt 0.767696 0.946281
vn -1.0000 0.0000 0.0000
vn 0.0000 1.0000 0.0000
vn 1.0000 0.0000 0.0000
vn -0.0000 0.0000 -1.0000
vn -0.0000 -0.0000 1.0000
vn -0.0000 -1.0000 0.0000
usemtl None
s off
f 13/1/1 16/2/1 14/3/1
f 1/4/1 6/5/1 5/6/1
f 1/7/2 11/8/2 12/9/2
f 11/8/3 8/10/3 12/9/3
f 3/11/1 10/12/1 9/13/1
f 6/14/2 15/15/2 5/16/2
f 4/17/4 6/18/4 12/19/4
f 3/20/5 7/21/5 5/22/5
f 7/23/6 10/24/6 8/25/6
f 3/26/6 14/3/6 4/27/6
f 13/1/1 15/15/1 16/2/1
f 5/6/1 2/28/1 1/4/1
f 1/4/1 17/29/1 6/5/1
f 12/9/2 17/30/2 1/7/2
f 1/7/2 2/31/2 11/8/2
f 11/8/3 7/32/3 8/10/3
f 3/11/1 4/33/1 10/12/1
f 6/14/2 16/2/2 15/15/2
f 12/19/4 8/34/4 4/17/4
f 8/34/4 10/35/4 4/17/4
f 4/17/4 14/36/4 6/18/4
f 14/36/4 16/37/4 6/18/4
f 6/18/4 17/38/4 12/19/4
f 15/39/5 13/40/5 3/20/5
f 3/20/5 9/41/5 7/21/5
f 7/21/5 11/42/5 5/22/5
f 11/42/5 2/43/5 5/22/5
f 5/22/5 15/39/5 3/20/5
f 7/23/6 9/44/6 10/24/6
f 3/26/6 13/1/6 14/3/6
