# Blender v2.82 (sub 7) OBJ File: 'pegs_test.blend'
# www.blender.org
mtllib base_single.mtl
o base_single_collision
v 0.024000 -0.024000 0.001000
v 0.024000 -0.024000 0.029000
v -0.024000 -0.024000 0.001000
v -0.024000 -0.024000 0.029000
v 0.024000 0.024000 0.001000
v 0.024000 0.024000 0.029000
v -0.024000 0.024000 0.001000
v -0.024000 0.024000 0.029000
v -0.005549 -0.013396 0.029000
v -0.005549 -0.013396 0.001000
v -0.008056 -0.012056 0.029000
v -0.008056 -0.012056 0.001000
v -0.013396 0.005549 0.029000
v -0.013396 0.005549 0.001000
v -0.014221 0.002829 0.029000
v -0.014221 0.002829 0.001000
v -0.002829 -0.014221 0.029000
v -0.002829 -0.014221 0.001000
v -0.010253 0.010253 0.029000
v -0.010253 0.010253 0.001000
v 0.012056 0.008056 0.029000
v 0.012056 0.008056 0.001000
v 0.013396 0.005549 0.029000
v 0.013396 0.005549 0.001000
v -0.008056 0.012056 0.029000
v -0.008056 0.012056 0.001000
v 0.014221 0.002829 0.029000
v 0.014221 0.002829 0.001000
v 0.013396 -0.005549 0.029000
v 0.013396 -0.005549 0.001000
v -0.000000 -0.014500 0.029000
v -0.000000 -0.014500 0.001000
v -0.013396 -0.005549 0.029000
v -0.013396 -0.005549 0.001000
v 0.012056 -0.008056 0.029000
v 0.012056 -0.008056 0.001000
v 0.002829 0.014221 0.029000
v 0.002829 0.014221 0.001000
v 0.010253 0.010253 0.029000
v 0.010253 0.010253 0.001000
v 0.005549 0.013396 0.029000
v 0.005549 0.013396 0.001000
v -0.000000 0.014500 0.029000
v -0.000000 0.014500 0.001000
v -0.010253 -0.010253 0.029000
v -0.010253 -0.010253 0.001000
v -0.012056 -0.008056 0.029000
v -0.012056 -0.008056 0.001000
v 0.014500 -0.000000 0.029000
v 0.014500 -0.000000 0.001000
v -0.014500 0.000000 0.029000
v -0.014500 0.000000 0.001000
v -0.002829 0.014221 0.029000
v -0.002829 0.014221 0.001000
v -0.012056 0.008056 0.029000
v -0.012056 0.008056 0.001000
v -0.005549 0.013396 0.029000
v -0.005549 0.013396 0.001000
v 0.005549 -0.013396 0.029000
v 0.005549 -0.013396 0.001000
v 0.008056 -0.012056 0.029000
v 0.008056 -0.012056 0.001000
v 0.002829 -0.014221 0.029000
v 0.002829 -0.014221 0.001000
v 0.010253 -0.010253 0.029000
v 0.010253 -0.010253 0.001000
v 0.014221 -0.002829 0.029000
v 0.014221 -0.002829 0.001000
v 0.008056 0.012056 0.029000
v 0.008056 0.012056 0.001000
v -0.014221 -0.002829 0.029000
v -0.014221 -0.002829 0.001000
vt 0.625000 0.000000
vt 0.375000 0.250000
vt 0.375000 0.000000
vt 0.625000 0.250000
vt 0.375000 0.500000
vt 0.625000 0.500000
vt 0.375000 0.750000
vt 0.625000 0.750000
vt 0.375000 1.000000
vt 0.125000 0.500000
vt 0.250000 0.549479
vt 0.235267 0.550930
vt 0.750000 0.700521
vt 0.764733 0.699070
vt 0.875000 0.750000
vt 0.718750 0.925000
vt 0.750000 0.575000
vt 0.718750 0.575000
vt 0.625000 0.925000
vt 0.656250 0.575000
vt 0.625000 0.575000
vt 0.656250 0.925000
vt 0.687500 0.575000
vt 0.218750 0.925000
vt 0.250000 0.575000
vt 0.218750 0.575000
vt 0.781250 0.925000
vt 0.812500 0.575000
vt 0.781250 0.575000
vt 0.750000 0.925000
vt 0.843750 0.925000
vt 0.875000 0.575000
vt 0.843750 0.575000
vt 0.000000 0.925000
vt 0.031250 0.575000
vt 0.000000 0.575000
vt 0.468750 0.925000
vt 0.500000 0.575000
vt 0.468750 0.575000
vt 0.156250 0.925000
vt 0.187500 0.575000
vt 0.156250 0.575000
vt 0.500000 0.925000
vt 0.531250 0.575000
vt 0.031250 0.925000
vt 0.062500 0.575000
vt 0.875000 0.925000
vt 0.906250 0.575000
vt 0.406250 0.925000
vt 0.437500 0.575000
vt 0.406250 0.575000
vt 0.906250 0.925000
vt 0.937500 0.575000
vt 0.593750 0.925000
vt 0.593750 0.575000
vt 0.093750 0.925000
vt 0.125000 0.575000
vt 0.093750 0.575000
vt 0.187500 0.925000
vt 0.125000 0.750000
vt 0.235267 0.699070
vt 0.250000 0.700521
vt 0.562500 0.925000
vt 0.562500 0.575000
vt 0.375000 0.925000
vt 0.375000 0.575000
vt 0.312500 0.925000
vt 0.343750 0.575000
vt 0.312500 0.575000
vt 0.968750 0.925000
vt 1.000000 0.575000
vt 0.968750 0.575000
vt 0.812500 0.925000
vt 0.250000 0.925000
vt 0.281250 0.575000
vt 0.687500 0.925000
vt 0.437500 0.925000
vt 0.062500 0.925000
vt 0.937500 0.925000
vt 0.531250 0.925000
vt 0.281250 0.925000
vt 0.125000 0.925000
vt 0.750000 0.549479
vt 0.735267 0.550930
vt 0.343750 0.925000
vt 0.625000 1.000000
vt 0.325521 0.625000
vt 0.324070 0.610267
vt 0.319772 0.596099
vt 0.175930 0.610267
vt 0.174479 0.625000
vt 0.180228 0.596099
vt 0.312793 0.583043
vt 0.303401 0.571599
vt 0.187207 0.583043
vt 0.196599 0.571599
vt 0.291957 0.562207
vt 0.278901 0.555228
vt 0.208043 0.562207
vt 0.221100 0.555228
vt 0.264733 0.550930
vt 0.674479 0.625000
vt 0.675930 0.639733
vt 0.825521 0.625000
vt 0.875000 0.500000
vt 0.824070 0.639733
vt 0.680228 0.653901
vt 0.687207 0.666957
vt 0.819772 0.653901
vt 0.812793 0.666957
vt 0.696599 0.678401
vt 0.708043 0.687793
vt 0.803401 0.678401
vt 0.791957 0.687793
vt 0.721099 0.694772
vt 0.735267 0.699070
vt 0.778901 0.694772
vt 0.324070 0.639733
vt 0.175930 0.639733
vt 0.319772 0.653901
vt 0.180228 0.653901
vt 0.187207 0.666957
vt 0.312793 0.666957
vt 0.303401 0.678401
vt 0.196599 0.678401
vt 0.208043 0.687793
vt 0.291957 0.687793
vt 0.278901 0.694772
vt 0.221099 0.694772
vt 0.264733 0.699070
vt 1.000000 0.925000
vt 0.824070 0.610267
vt 0.819772 0.596099
vt 0.675930 0.610267
vt 0.680228 0.596099
vt 0.812793 0.583043
vt 0.803401 0.571599
vt 0.687207 0.583043
vt 0.696599 0.571599
vt 0.791957 0.562207
vt 0.778901 0.555228
vt 0.708043 0.562207
vt 0.721099 0.555228
vt 0.764733 0.550930
vn 0.0000 -1.0000 0.0000
vn -1.0000 0.0000 0.0000
vn 0.0000 1.0000 0.0000
vn 1.0000 0.0000 0.0000
vn -0.0000 0.0000 -1.0000
vn 0.0000 0.0000 1.0000
vn -0.0980 -0.9952 0.0000
vn -0.6344 -0.7730 0.0000
vn -0.4714 -0.8819 0.0000
vn 0.0980 0.9952 0.0000
vn 0.2903 -0.9569 0.0000
vn 0.0980 -0.9952 0.0000
vn 0.6344 -0.7730 0.0000
vn 0.9952 0.0980 0.0000
vn -0.9952 0.0980 -0.0000
vn 0.4714 0.8819 0.0000
vn -0.9952 -0.0980 0.0000
vn 0.9569 0.2903 0.0000
vn 0.7730 -0.6344 0.0000
vn -0.8819 0.4714 0.0000
vn 0.8819 -0.4714 0.0000
vn -0.7730 -0.6344 0.0000
vn 0.7730 0.6344 0.0000
vn 0.2903 0.9569 0.0000
vn -0.8819 -0.4714 0.0000
vn -0.7730 0.6344 0.0000
vn -0.4714 0.8819 -0.0000
vn 0.9952 -0.0980 0.0000
vn 0.4714 -0.8819 0.0000
vn -0.0980 0.9952 0.0000
vn -0.2903 -0.9569 0.0000
vn -0.9569 0.2903 0.0000
vn 0.8819 0.4714 0.0000
vn 0.9569 -0.2903 -0.0000
vn -0.9569 -0.2903 0.0000
vn -0.2903 0.9569 0.0000
vn 0.6344 0.7730 -0.0000
vn -0.6344 0.7730 0.0000
usemtl None
s off
f 2/1/1 3/2/1 1/3/1
f 4/4/2 7/5/2 3/2/2
f 8/6/3 5/7/3 7/5/3
f 6/8/4 1/9/4 5/7/4
f 3/10/5 52/11/5 72/12/5
f 49/13/6 67/14/6 2/15/6
f 37/16/7 44/17/7 38/18/7
f 39/19/8 70/20/8 40/21/8
f 69/22/9 42/23/9 70/20/9
f 17/24/10 32/25/10 18/26/10
f 53/27/11 58/28/11 54/29/11
f 43/30/12 54/29/12 44/17/12
f 25/31/13 20/32/13 26/33/13
f 51/34/14 72/35/14 52/36/14
f 67/37/15 50/38/15 68/39/15
f 11/40/16 10/41/16 12/42/16
f 49/43/17 28/44/17 50/38/17
f 71/45/18 34/46/18 72/35/18
f 19/47/19 56/48/19 20/32/19
f 35/49/20 30/50/20 36/51/20
f 55/52/21 14/53/21 56/48/21
f 21/54/22 40/21/22 22/55/22
f 47/56/23 46/57/23 48/58/23
f 9/59/24 18/26/24 10/41/24
f 1/60/5 68/61/5 50/62/5
f 23/63/25 22/55/25 24/64/25
f 65/65/26 36/51/26 66/66/26
f 59/67/27 62/68/27 60/69/27
f 15/70/28 52/71/28 16/72/28
f 57/73/29 26/33/29 58/28/29
f 31/74/30 64/75/30 32/25/30
f 41/76/31 38/18/31 42/23/31
f 29/77/32 68/39/32 30/50/32
f 33/78/33 48/58/33 34/46/33
f 13/79/34 16/72/34 14/53/34
f 27/80/35 24/64/35 28/44/35
f 63/81/36 60/69/36 64/75/36
f 45/82/37 12/42/37 46/57/37
f 51/83/6 15/84/6 8/6/6
f 61/85/38 66/66/38 62/68/38
f 2/1/1 4/4/1 3/2/1
f 4/4/2 8/6/2 7/5/2
f 8/6/3 6/8/3 5/7/3
f 6/8/4 2/86/4 1/9/4
f 7/5/5 44/87/5 54/88/5
f 7/5/5 54/88/5 58/89/5
f 18/90/5 32/91/5 3/10/5
f 10/92/5 18/90/5 3/10/5
f 7/5/5 58/89/5 26/93/5
f 7/5/5 26/93/5 20/94/5
f 12/95/5 10/92/5 3/10/5
f 46/96/5 12/95/5 3/10/5
f 7/5/5 20/94/5 56/97/5
f 7/5/5 56/97/5 14/98/5
f 48/99/5 46/96/5 3/10/5
f 34/100/5 48/99/5 3/10/5
f 3/10/5 7/5/5 52/11/5
f 7/5/5 14/98/5 16/101/5
f 7/5/5 16/101/5 52/11/5
f 72/12/5 34/100/5 3/10/5
f 6/8/6 8/6/6 43/102/6
f 6/8/6 43/102/6 37/103/6
f 31/104/6 4/105/6 2/15/6
f 63/106/6 31/104/6 2/15/6
f 6/8/6 37/103/6 41/107/6
f 6/8/6 41/107/6 69/108/6
f 59/109/6 63/106/6 2/15/6
f 61/110/6 59/109/6 2/15/6
f 6/8/6 69/108/6 39/111/6
f 6/8/6 39/111/6 21/112/6
f 65/113/6 61/110/6 2/15/6
f 35/114/6 65/113/6 2/15/6
f 6/8/6 21/112/6 23/115/6
f 6/8/6 23/115/6 27/116/6
f 29/117/6 35/114/6 2/15/6
f 67/14/6 29/117/6 2/15/6
f 2/15/6 6/8/6 49/13/6
f 6/8/6 27/116/6 49/13/6
f 37/16/7 43/30/7 44/17/7
f 39/19/8 69/22/8 70/20/8
f 69/22/9 41/76/9 42/23/9
f 17/24/10 31/74/10 32/25/10
f 53/27/11 57/73/11 58/28/11
f 43/30/12 53/27/12 54/29/12
f 25/31/13 19/47/13 20/32/13
f 51/34/14 71/45/14 72/35/14
f 67/37/15 49/43/15 50/38/15
f 11/40/16 9/59/16 10/41/16
f 49/43/17 27/80/17 28/44/17
f 71/45/18 33/78/18 34/46/18
f 19/47/19 55/52/19 56/48/19
f 35/49/20 29/77/20 30/50/20
f 55/52/21 13/79/21 14/53/21
f 21/54/22 39/19/22 40/21/22
f 47/56/23 45/82/23 46/57/23
f 9/59/24 17/24/24 18/26/24
f 38/118/5 44/87/5 5/7/5
f 44/87/5 7/5/5 5/7/5
f 1/60/5 3/10/5 32/91/5
f 1/60/5 32/91/5 64/119/5
f 42/120/5 38/118/5 5/7/5
f 1/60/5 64/119/5 60/121/5
f 1/60/5 60/121/5 62/122/5
f 70/123/5 42/120/5 5/7/5
f 40/124/5 70/123/5 5/7/5
f 1/60/5 62/122/5 66/125/5
f 1/60/5 66/125/5 36/126/5
f 22/127/5 40/124/5 5/7/5
f 24/128/5 22/127/5 5/7/5
f 1/60/5 36/126/5 30/129/5
f 1/60/5 30/129/5 68/61/5
f 24/128/5 5/7/5 28/130/5
f 5/7/5 1/60/5 50/62/5
f 28/130/5 5/7/5 50/62/5
f 23/63/25 21/54/25 22/55/25
f 65/65/26 35/49/26 36/51/26
f 59/67/27 61/85/27 62/68/27
f 15/70/28 51/131/28 52/71/28
f 57/73/29 25/31/29 26/33/29
f 31/74/30 63/81/30 64/75/30
f 41/76/31 37/16/31 38/18/31
f 29/77/32 67/37/32 68/39/32
f 33/78/33 47/56/33 48/58/33
f 13/79/34 15/70/34 16/72/34
f 27/80/35 23/63/35 24/64/35
f 63/81/36 59/67/36 60/69/36
f 45/82/37 11/40/37 12/42/37
f 4/105/6 31/104/6 17/132/6
f 4/105/6 17/132/6 9/133/6
f 53/134/6 43/102/6 8/6/6
f 57/135/6 53/134/6 8/6/6
f 4/105/6 9/133/6 11/136/6
f 4/105/6 11/136/6 45/137/6
f 25/138/6 57/135/6 8/6/6
f 19/139/6 25/138/6 8/6/6
f 4/105/6 45/137/6 47/140/6
f 4/105/6 47/140/6 33/141/6
f 55/142/6 19/139/6 8/6/6
f 13/143/6 55/142/6 8/6/6
f 8/6/6 4/105/6 51/83/6
f 4/105/6 33/141/6 71/144/6
f 4/105/6 71/144/6 51/83/6
f 15/84/6 13/143/6 8/6/6
f 61/85/38 65/65/38 66/66/38
