# Blender v2.82 (sub 7) OBJ File: 'pegs.blend'
# www.blender.org
mtllib cube_leg.mtl
o slot_cube_leg_collision_slot_cube_leg_collision.001
v 0.012000 -0.012000 0.008000
v 0.012000 0.012000 0.008000
v -0.012000 -0.004800 0.008000
v -0.004800 -0.004800 0.008000
v -0.004800 -0.012000 0.008000
v -0.004800 0.012000 0.008000
v -0.004800 0.004800 0.008000
v -0.012000 0.004800 0.008000
v -0.024000 0.000000 0.001000
v -0.024000 0.000000 0.029000
v -0.023539 0.004682 0.001000
v -0.023539 0.004682 0.029000
v -0.022173 0.009184 0.001000
v -0.022173 0.009184 0.029000
v -0.019955 0.013334 0.001000
v -0.019955 0.013334 0.029000
v -0.016971 0.016971 0.001000
v -0.016971 0.016971 0.029000
v -0.013334 0.019955 0.001000
v -0.013334 0.019955 0.029000
v -0.009184 0.022173 0.001000
v -0.009184 0.022173 0.029000
v -0.004682 0.023539 0.001000
v -0.004682 0.023539 0.029000
v -0.000000 0.024000 0.001000
v -0.000000 0.024000 0.029000
v 0.004682 0.023539 0.001000
v 0.004682 0.023539 0.029000
v 0.009184 0.022173 0.001000
v 0.009184 0.022173 0.029000
v 0.013334 0.019955 0.001000
v 0.013334 0.019955 0.029000
v 0.016971 0.016971 0.001000
v 0.016971 0.016971 0.029000
v 0.019955 0.013334 0.001000
v 0.019955 0.013334 0.029000
v 0.022173 0.009184 0.001000
v 0.022173 0.009184 0.029000
v 0.023539 0.004682 0.001000
v 0.023539 0.004682 0.029000
v 0.024000 -0.000000 0.001000
v 0.024000 -0.000000 0.029000
v 0.023539 -0.004682 0.001000
v 0.023539 -0.004682 0.029000
v 0.022173 -0.009184 0.001000
v 0.022173 -0.009184 0.029000
v 0.019955 -0.013334 0.001000
v 0.019955 -0.013334 0.029000
v 0.016971 -0.016971 0.001000
v 0.016971 -0.016971 0.029000
v 0.013334 -0.019955 0.001000
v 0.013334 -0.019955 0.029000
v 0.009184 -0.022173 0.001000
v 0.009184 -0.022173 0.029000
v 0.004682 -0.023539 0.001000
v 0.004682 -0.023539 0.029000
v -0.000000 -0.024000 0.001000
v -0.000000 -0.024000 0.029000
v -0.004682 -0.023539 0.001000
v -0.004682 -0.023539 0.029000
v -0.009184 -0.022173 0.001000
v -0.009184 -0.022173 0.029000
v -0.013334 -0.019955 0.001000
v -0.013334 -0.019955 0.029000
v -0.016971 -0.016971 0.001000
v -0.016971 -0.016971 0.029000
v -0.019955 -0.013334 0.001000
v -0.019955 -0.013334 0.029000
v -0.022173 -0.009184 0.001000
v -0.022173 -0.009184 0.029000
v -0.023539 -0.004682 0.001000
v -0.023539 -0.004682 0.029000
v -0.012000 -0.004800 0.029000
v -0.004800 -0.012000 0.029000
v -0.004800 -0.004800 0.029000
v -0.004800 0.004800 0.029000
v 0.012000 0.012000 0.029000
v -0.004800 0.012000 0.029000
v -0.012000 0.004800 0.029000
v 0.012000 -0.012000 0.029000
vt 0.375000 0.750000
vt 0.494318 0.500000
vt 0.375000 0.500000
vt 0.375000 0.925000
vt 0.494318 0.750000
vt 0.386364 0.258065
vt 0.494835 0.500000
vt 0.386364 0.500000
vt 0.375000 0.075000
vt 0.494318 0.175000
vt 0.494318 0.075000
vt 0.386364 0.750000
vt 0.494835 0.508065
vt 0.494835 0.750000
vt 0.200000 0.675000
vt 0.200000 0.575000
vt 0.494318 0.325000
vt 0.375000 0.325000
vt 1.000000 1.000000
vt 0.968750 0.500000
vt 1.000000 0.500000
vt 0.968750 1.000000
vt 0.937500 0.500000
vt 0.937500 1.000000
vt 0.906250 0.500000
vt 0.906250 1.000000
vt 0.875000 0.500000
vt 0.875000 1.000000
vt 0.843750 0.500000
vt 0.843750 1.000000
vt 0.812500 0.500000
vt 0.812500 1.000000
vt 0.781250 0.500000
vt 0.781250 1.000000
vt 0.750000 0.500000
vt 0.750000 1.000000
vt 0.718750 0.500000
vt 0.718750 1.000000
vt 0.687500 0.500000
vt 0.687500 1.000000
vt 0.656250 0.500000
vt 0.656250 1.000000
vt 0.625000 0.500000
vt 0.625000 1.000000
vt 0.593750 0.500000
vt 0.593750 1.000000
vt 0.562500 0.500000
vt 0.562500 1.000000
vt 0.531250 0.500000
vt 0.531250 1.000000
vt 0.500000 0.500000
vt 0.500000 1.000000
vt 0.468750 0.500000
vt 0.468750 1.000000
vt 0.437500 0.500000
vt 0.437500 1.000000
vt 0.406250 0.500000
vt 0.406250 1.000000
vt 0.375000 0.500000
vt 0.375000 1.000000
vt 0.343750 0.500000
vt 0.343750 1.000000
vt 0.312500 0.500000
vt 0.312500 1.000000
vt 0.281250 0.500000
vt 0.281250 1.000000
vt 0.250000 0.500000
vt 0.250000 1.000000
vt 0.218750 0.500000
vt 0.218750 1.000000
vt 0.187500 0.500000
vt 0.187500 1.000000
vt 0.156250 0.500000
vt 0.156250 1.000000
vt 0.125000 0.500000
vt 0.125000 1.000000
vt 0.093750 0.500000
vt 0.093750 1.000000
vt 0.062500 0.500000
vt 0.250000 0.490000
vt 0.202000 0.370000
vt 0.298000 0.370000
vt 0.062500 1.000000
vt 0.031250 0.500000
vt 0.031250 1.000000
vt 0.000000 0.500000
vt 0.985388 0.296822
vt 0.796822 0.014612
vt 0.514611 0.203179
vt 0.494835 0.991935
vt 0.158156 0.028269
vt 0.203178 0.014612
vt 0.130000 0.130000
vt 0.386364 0.741935
vt 0.494835 0.741935
vt 0.494318 0.925000
vt 0.494835 0.258065
vt 0.375000 0.175000
vt 0.386364 0.508065
vt 0.125000 0.575000
vt 0.125000 0.675000
vt 0.200000 0.750000
vt 0.200000 0.500000
vt 0.341844 0.471731
vt 0.296822 0.485388
vt 0.203179 0.485389
vt 0.158156 0.471731
vt 0.116663 0.449553
vt 0.080295 0.419706
vt 0.050447 0.383337
vt 0.130000 0.298000
vt 0.028269 0.341844
vt 0.014612 0.296822
vt 0.010000 0.250000
vt 0.014611 0.203179
vt 0.028269 0.158156
vt 0.050447 0.116663
vt 0.202000 0.298000
vt 0.419706 0.419706
vt 0.383337 0.449553
vt 0.471731 0.341844
vt 0.449553 0.383337
vt 0.370000 0.298000
vt 0.298000 0.298000
vt 0.000000 1.000000
vt 0.703179 0.485389
vt 0.750000 0.490000
vt 0.796822 0.485388
vt 0.841844 0.471731
vt 0.883337 0.449553
vt 0.919706 0.419706
vt 0.949553 0.383337
vt 0.971731 0.341844
vt 0.990000 0.250000
vt 0.985388 0.203178
vt 0.971731 0.158156
vt 0.949553 0.116663
vt 0.919706 0.080294
vt 0.883337 0.050447
vt 0.841844 0.028269
vt 0.750000 0.010000
vt 0.703178 0.014612
vt 0.658156 0.028269
vt 0.616663 0.050447
vt 0.580294 0.080294
vt 0.550447 0.116663
vt 0.528269 0.158156
vt 0.510000 0.250000
vt 0.514612 0.296822
vt 0.528269 0.341844
vt 0.550447 0.383337
vt 0.580295 0.419706
vt 0.616663 0.449553
vt 0.658156 0.471731
vt 0.386364 0.991935
vt 0.485388 0.296822
vt 0.370000 0.130000
vt 0.250000 0.010000
vt 0.080294 0.080294
vt 0.116663 0.050447
vt 0.490000 0.250000
vt 0.485388 0.203178
vt 0.449553 0.116663
vt 0.471731 0.158156
vt 0.383337 0.050447
vt 0.419706 0.080294
vt 0.296822 0.014612
vt 0.341844 0.028269
vn -1.0000 0.0000 0.0000
vn 0.0000 1.0000 0.0000
vn 1.0000 0.0000 0.0000
vn 0.0000 -0.0000 1.0000
vn 0.0000 -1.0000 0.0000
vn -0.9952 0.0980 0.0000
vn -0.9569 0.2903 0.0000
vn -0.8819 0.4714 0.0000
vn -0.7730 0.6344 0.0000
vn -0.6344 0.7730 0.0000
vn -0.4714 0.8819 0.0000
vn -0.2903 0.9569 0.0000
vn -0.0980 0.9952 0.0000
vn 0.0980 0.9952 0.0000
vn 0.2903 0.9569 0.0000
vn 0.4714 0.8819 0.0000
vn 0.6344 0.7730 0.0000
vn 0.7730 0.6344 0.0000
vn 0.8819 0.4714 0.0000
vn 0.9569 0.2903 0.0000
vn 0.9952 0.0980 0.0000
vn 0.9952 -0.0980 0.0000
vn 0.9569 -0.2903 0.0000
vn 0.8819 -0.4714 0.0000
vn 0.7730 -0.6344 0.0000
vn 0.6344 -0.7730 0.0000
vn 0.4714 -0.8819 0.0000
vn 0.2903 -0.9569 0.0000
vn 0.0980 -0.9952 0.0000
vn -0.0980 -0.9952 0.0000
vn -0.2903 -0.9569 0.0000
vn -0.4714 -0.8819 0.0000
vn -0.6344 -0.7730 0.0000
vn -0.7730 -0.6344 0.0000
vn -0.8819 -0.4714 0.0000
vn -0.9569 -0.2903 0.0000
vn -0.9952 -0.0980 0.0000
vn 0.0000 0.0000 -1.0000
usemtl None
s off
f 1/1/1 77/2/1 2/3/1
f 5/4/2 80/5/2 1/1/2
f 3/6/2 75/7/2 4/8/2
f 3/9/3 79/10/3 73/11/3
f 7/12/3 78/13/3 76/14/3
f 4/15/4 2/3/4 7/16/4
f 2/3/5 78/17/5 6/18/5
f 10/19/6 11/20/6 9/21/6
f 12/22/7 13/23/7 11/20/7
f 14/24/8 15/25/8 13/23/8
f 16/26/9 17/27/9 15/25/9
f 18/28/10 19/29/10 17/27/10
f 20/30/11 21/31/11 19/29/11
f 22/32/12 23/33/12 21/31/12
f 24/34/13 25/35/13 23/33/13
f 26/36/14 27/37/14 25/35/14
f 28/38/15 29/39/15 27/37/15
f 30/40/16 31/41/16 29/39/16
f 32/42/17 33/43/17 31/41/17
f 34/44/18 35/45/18 33/43/18
f 36/46/19 37/47/19 35/45/19
f 38/48/20 39/49/20 37/47/20
f 40/50/21 41/51/21 39/49/21
f 42/52/22 43/53/22 41/51/22
f 44/54/23 45/55/23 43/53/23
f 46/56/24 47/57/24 45/55/24
f 48/58/25 49/59/25 47/57/25
f 50/60/26 51/61/26 49/59/26
f 52/62/27 53/63/27 51/61/27
f 54/64/28 55/65/28 53/63/28
f 56/66/29 57/67/29 55/65/29
f 58/68/30 59/69/30 57/67/30
f 60/70/31 61/71/31 59/69/31
f 62/72/32 63/73/32 61/71/32
f 64/74/33 65/75/33 63/73/33
f 66/76/34 67/77/34 65/75/34
f 68/78/35 69/79/35 67/77/35
f 10/80/4 73/81/4 79/82/4
f 70/83/36 71/84/36 69/79/36
f 72/85/37 9/86/37 71/84/37
f 23/87/38 39/88/38 55/89/38
f 79/90/5 7/12/5 76/14/5
f 46/91/4 44/92/4 80/93/4
f 5/94/3 75/7/3 74/95/3
f 1/1/1 80/5/1 77/2/1
f 5/4/2 74/96/2 80/5/2
f 3/6/2 73/97/2 75/7/2
f 3/9/3 8/98/3 79/10/3
f 7/12/3 6/99/3 78/13/3
f 7/16/4 8/100/4 4/15/4
f 8/100/4 3/101/4 4/15/4
f 4/15/4 5/102/4 1/1/4
f 2/3/4 6/103/4 7/16/4
f 4/15/4 1/1/4 2/3/4
f 2/3/5 77/2/5 78/17/5
f 10/19/6 12/22/6 11/20/6
f 12/22/7 14/24/7 13/23/7
f 14/24/8 16/26/8 15/25/8
f 16/26/9 18/28/9 17/27/9
f 18/28/10 20/30/10 19/29/10
f 20/30/11 22/32/11 21/31/11
f 22/32/12 24/34/12 23/33/12
f 24/34/13 26/36/13 25/35/13
f 26/36/14 28/38/14 27/37/14
f 28/38/15 30/40/15 29/39/15
f 30/40/16 32/42/16 31/41/16
f 32/42/17 34/44/17 33/43/17
f 34/44/18 36/46/18 35/45/18
f 36/46/19 38/48/19 37/47/19
f 38/48/20 40/50/20 39/49/20
f 40/50/21 42/52/21 41/51/21
f 42/52/22 44/54/22 43/53/22
f 44/54/23 46/56/23 45/55/23
f 46/56/24 48/58/24 47/57/24
f 48/58/25 50/60/25 49/59/25
f 50/60/26 52/62/26 51/61/26
f 52/62/27 54/64/27 53/63/27
f 54/64/28 56/66/28 55/65/28
f 56/66/29 58/68/29 57/67/29
f 58/68/30 60/70/30 59/69/30
f 60/70/31 62/72/31 61/71/31
f 62/72/32 64/74/32 63/73/32
f 64/74/33 66/76/33 65/75/33
f 66/76/34 68/78/34 67/77/34
f 68/78/35 70/83/35 69/79/35
f 14/104/4 12/105/4 79/82/4
f 12/105/4 10/80/4 79/82/4
f 10/80/4 72/106/4 73/81/4
f 72/106/4 70/107/4 73/81/4
f 70/107/4 68/108/4 73/81/4
f 68/108/4 66/109/4 73/81/4
f 66/109/4 64/110/4 74/111/4
f 64/110/4 62/112/4 74/111/4
f 62/112/4 60/113/4 74/111/4
f 60/113/4 58/114/4 74/111/4
f 58/114/4 56/115/4 74/111/4
f 56/115/4 54/116/4 80/93/4
f 74/111/4 56/115/4 80/93/4
f 54/116/4 52/117/4 80/93/4
f 74/111/4 75/118/4 73/81/4
f 73/81/4 66/109/4 74/111/4
f 18/119/4 16/120/4 79/82/4
f 16/120/4 14/104/4 79/82/4
f 22/121/4 20/122/4 78/123/4
f 20/122/4 18/119/4 78/123/4
f 76/124/4 78/123/4 79/82/4
f 79/82/4 78/123/4 18/119/4
f 70/83/36 72/85/36 71/84/36
f 72/85/37 10/125/37 9/86/37
f 71/126/38 9/127/38 11/128/38
f 11/128/38 13/129/38 71/126/38
f 13/129/38 15/130/38 71/126/38
f 15/130/38 17/131/38 19/132/38
f 19/132/38 21/133/38 15/130/38
f 21/133/38 23/87/38 15/130/38
f 23/87/38 25/134/38 27/135/38
f 27/135/38 29/136/38 23/87/38
f 29/136/38 31/137/38 23/87/38
f 31/137/38 33/138/38 39/88/38
f 33/138/38 35/139/38 39/88/38
f 35/139/38 37/140/38 39/88/38
f 39/88/38 41/141/38 43/142/38
f 43/142/38 45/143/38 47/144/38
f 47/144/38 49/145/38 51/146/38
f 51/146/38 53/147/38 55/89/38
f 55/89/38 57/148/38 59/149/38
f 59/149/38 61/150/38 63/151/38
f 63/151/38 65/152/38 71/126/38
f 65/152/38 67/153/38 71/126/38
f 67/153/38 69/154/38 71/126/38
f 39/88/38 43/142/38 55/89/38
f 43/142/38 47/144/38 55/89/38
f 47/144/38 51/146/38 55/89/38
f 55/89/38 59/149/38 71/126/38
f 59/149/38 63/151/38 71/126/38
f 71/126/38 15/130/38 23/87/38
f 23/87/38 31/137/38 39/88/38
f 71/126/38 23/87/38 55/89/38
f 79/90/5 8/155/5 7/12/5
f 24/156/4 22/121/4 78/123/4
f 77/157/4 80/93/4 42/158/4
f 80/93/4 52/117/4 50/159/4
f 48/160/4 80/93/4 50/159/4
f 24/156/4 78/123/4 26/161/4
f 78/123/4 77/157/4 28/162/4
f 28/162/4 26/161/4 78/123/4
f 32/163/4 30/164/4 77/157/4
f 30/164/4 28/162/4 77/157/4
f 36/165/4 34/166/4 77/157/4
f 34/166/4 32/163/4 77/157/4
f 40/167/4 38/168/4 77/157/4
f 38/168/4 36/165/4 77/157/4
f 44/92/4 42/158/4 80/93/4
f 42/158/4 40/167/4 77/157/4
f 48/160/4 46/91/4 80/93/4
f 5/94/3 4/8/3 75/7/3
