# Blender v2.82 (sub 7) OBJ File: 'pegs_test.blend'
# www.blender.org
mtllib pentagon_short.mtl
o slot_pentagon_short_collision
v 0.000000 0.012211 0.008000
v 0.011511 0.003773 0.008000
v 0.007114 -0.009879 0.008000
v -0.007114 -0.009879 0.008000
v -0.011511 0.003773 0.008000
v -0.016000 0.000000 0.001000
v -0.016000 0.000000 0.029000
v -0.015693 0.003121 0.001000
v -0.015693 0.003121 0.029000
v -0.014782 0.006123 0.001000
v -0.014782 0.006123 0.029000
v -0.013304 0.008889 0.001000
v -0.013304 0.008889 0.029000
v -0.011314 0.011314 0.001000
v -0.011314 0.011314 0.029000
v -0.008889 0.013304 0.001000
v -0.008889 0.013304 0.029000
v -0.006123 0.014782 0.001000
v -0.006123 0.014782 0.029000
v -0.003121 0.015693 0.001000
v -0.003121 0.015693 0.029000
v -0.000000 0.016000 0.001000
v -0.000000 0.016000 0.029000
v 0.003121 0.015693 0.001000
v 0.003121 0.015693 0.029000
v 0.006123 0.014782 0.001000
v 0.006123 0.014782 0.029000
v 0.008889 0.013304 0.001000
v 0.008889 0.013304 0.029000
v 0.011314 0.011314 0.001000
v 0.011314 0.011314 0.029000
v 0.013304 0.008889 0.001000
v 0.013304 0.008889 0.029000
v 0.014782 0.006123 0.001000
v 0.014782 0.006123 0.029000
v 0.015693 0.003121 0.001000
v 0.015693 0.003121 0.029000
v 0.016000 -0.000000 0.001000
v 0.016000 -0.000000 0.029000
v 0.015693 -0.003121 0.001000
v 0.015693 -0.003121 0.029000
v 0.014782 -0.006123 0.001000
v 0.014782 -0.006123 0.029000
v 0.013304 -0.008889 0.001000
v 0.013304 -0.008889 0.029000
v 0.011314 -0.011314 0.001000
v 0.011314 -0.011314 0.029000
v 0.008889 -0.013304 0.001000
v 0.008889 -0.013304 0.029000
v 0.006123 -0.014782 0.001000
v 0.006123 -0.014782 0.029000
v 0.003121 -0.015693 0.001000
v 0.003121 -0.015693 0.029000
v -0.000000 -0.016000 0.001000
v -0.000000 -0.016000 0.029000
v -0.003121 -0.015693 0.001000
v -0.003121 -0.015693 0.029000
v -0.006123 -0.014782 0.001000
v -0.006123 -0.014782 0.029000
v -0.008889 -0.013304 0.001000
v -0.008889 -0.013304 0.029000
v -0.011314 -0.011314 0.001000
v -0.011314 -0.011314 0.029000
v -0.013304 -0.008889 0.001000
v -0.013304 -0.008889 0.029000
v -0.014782 -0.006123 0.001000
v -0.014782 -0.006123 0.029000
v -0.015693 -0.003121 0.001000
v -0.015693 -0.003121 0.029000
v 0.000000 0.012211 0.029000
v 0.011511 0.003773 0.029000
v 0.007114 -0.009879 0.029000
v -0.007114 -0.009879 0.029000
v -0.011511 0.003773 0.029000
vt 0.800000 0.500000
vt 1.000000 0.937500
vt 1.000000 0.500000
vt 0.600000 0.500000
vt 0.800000 0.937500
vt 0.400000 0.500000
vt 0.600000 0.937500
vt 0.200000 0.500000
vt 0.400000 0.937500
vt 0.000000 0.500000
vt 0.200000 0.937500
vt 0.521746 0.324164
vt 0.891068 0.055836
vt 0.978254 0.324164
vt 1.000000 1.000000
vt 0.968750 0.500000
vt 1.000000 0.500000
vt 0.968750 1.000000
vt 0.937500 0.500000
vt 0.937500 1.000000
vt 0.906250 0.500000
vt 0.906250 1.000000
vt 0.875000 0.500000
vt 0.875000 1.000000
vt 0.843750 0.500000
vt 0.843750 1.000000
vt 0.812500 0.500000
vt 0.812500 1.000000
vt 0.781250 0.500000
vt 0.781250 1.000000
vt 0.750000 0.500000
vt 0.750000 1.000000
vt 0.718750 0.500000
vt 0.718750 1.000000
vt 0.687500 0.500000
vt 0.687500 1.000000
vt 0.656250 0.500000
vt 0.656250 1.000000
vt 0.625000 0.500000
vt 0.625000 1.000000
vt 0.593750 0.500000
vt 0.593750 1.000000
vt 0.562500 0.500000
vt 0.562500 1.000000
vt 0.531250 0.500000
vt 0.531250 1.000000
vt 0.500000 0.500000
vt 0.500000 1.000000
vt 0.468750 0.500000
vt 0.468750 1.000000
vt 0.437500 0.500000
vt 0.437500 1.000000
vt 0.406250 0.500000
vt 0.406250 1.000000
vt 0.375000 0.500000
vt 0.375000 1.000000
vt 0.343750 0.500000
vt 0.343750 1.000000
vt 0.312500 0.500000
vt 0.312500 1.000000
vt 0.281250 0.500000
vt 0.281250 1.000000
vt 0.250000 0.500000
vt 0.250000 1.000000
vt 0.218750 0.500000
vt 0.218750 1.000000
vt 0.187500 0.500000
vt 0.187500 1.000000
vt 0.156250 0.500000
vt 0.156250 1.000000
vt 0.125000 0.500000
vt 0.125000 1.000000
vt 0.093750 0.500000
vt 0.093750 1.000000
vt 0.062500 0.500000
vt 0.101815 0.356709
vt 0.306602 0.422659
vt 0.158156 0.471731
vt 0.062500 1.000000
vt 0.031250 0.500000
vt 0.031250 1.000000
vt 0.000000 0.500000
vt 0.796822 0.014612
vt 0.514611 0.203179
vt 0.703179 0.485389
vt 0.158156 0.028269
vt 0.203178 0.014612
vt 0.306602 0.077342
vt 0.000000 0.937500
vt 0.750000 0.490000
vt 0.608932 0.055836
vt 0.341844 0.471731
vt 0.296822 0.485388
vt 0.250000 0.490000
vt 0.203179 0.485389
vt 0.116663 0.449553
vt 0.080295 0.419706
vt 0.050447 0.383337
vt 0.028269 0.341844
vt 0.014612 0.296822
vt 0.010000 0.250000
vt 0.014612 0.203179
vt 0.101815 0.143291
vt 0.028269 0.158156
vt 0.050447 0.116663
vt 0.419706 0.419706
vt 0.383337 0.449553
vt 0.471731 0.341844
vt 0.449553 0.383337
vt 0.433167 0.250000
vt 0.490000 0.250000
vt 0.485388 0.296822
vt 0.000000 1.000000
vt 0.750000 0.490000
vt 0.796822 0.485388
vt 0.841844 0.471731
vt 0.883337 0.449553
vt 0.919706 0.419706
vt 0.949553 0.383337
vt 0.971731 0.341844
vt 0.985388 0.296822
vt 0.990000 0.250000
vt 0.985388 0.203178
vt 0.971731 0.158156
vt 0.949553 0.116663
vt 0.919706 0.080294
vt 0.883337 0.050447
vt 0.841844 0.028269
vt 0.750000 0.010000
vt 0.703178 0.014612
vt 0.658156 0.028269
vt 0.616663 0.050447
vt 0.580294 0.080294
vt 0.550447 0.116663
vt 0.528269 0.158156
vt 0.510000 0.250000
vt 0.514612 0.296822
vt 0.528269 0.341844
vt 0.550447 0.383337
vt 0.580295 0.419706
vt 0.616663 0.449553
vt 0.658156 0.471731
vt 0.485388 0.203178
vt 0.080294 0.080294
vt 0.116663 0.050447
vt 0.471731 0.158156
vt 0.449553 0.116663
vt 0.383337 0.050447
vt 0.419706 0.080294
vt 0.296822 0.014612
vt 0.341844 0.028269
vt 0.250000 0.010000
vn -0.5912 -0.8065 0.0000
vn -0.9519 0.3065 0.0000
vn 0.0000 1.0000 0.0000
vn 0.9519 0.3065 0.0000
vn 0.5912 -0.8065 0.0000
vn 0.0000 0.0000 1.0000
vn -0.9952 0.0980 0.0000
vn -0.9569 0.2903 0.0000
vn -0.8819 0.4714 0.0000
vn -0.7730 0.6344 0.0000
vn -0.6344 0.7730 0.0000
vn -0.4714 0.8819 0.0000
vn -0.2903 0.9569 0.0000
vn -0.0980 0.9952 0.0000
vn 0.0980 0.9952 0.0000
vn 0.2903 0.9569 0.0000
vn 0.4714 0.8819 0.0000
vn 0.6344 0.7730 0.0000
vn 0.7730 0.6344 0.0000
vn 0.8819 0.4714 0.0000
vn 0.9569 0.2903 0.0000
vn 0.9952 0.0980 0.0000
vn 0.9952 -0.0980 0.0000
vn 0.9569 -0.2903 0.0000
vn 0.8819 -0.4714 0.0000
vn 0.7730 -0.6344 0.0000
vn 0.6344 -0.7730 0.0000
vn 0.4714 -0.8819 0.0000
vn 0.2903 -0.9569 0.0000
vn 0.0980 -0.9952 0.0000
vn -0.0980 -0.9952 0.0000
vn -0.2903 -0.9569 0.0000
vn -0.4714 -0.8819 0.0000
vn -0.6344 -0.7730 0.0000
vn -0.7730 -0.6344 0.0000
vn -0.8819 -0.4714 0.0000
vn -0.9569 -0.2903 0.0000
vn -0.9952 -0.0980 0.0000
vn 0.0000 0.0000 -1.0000
usemtl None
s off
f 2/1/1 70/2/1 1/3/1
f 3/4/2 71/5/2 2/1/2
f 4/6/3 72/7/3 3/4/3
f 5/8/4 73/9/4 4/6/4
f 1/10/5 74/11/5 5/8/5
f 5/12/6 3/13/6 2/14/6
f 7/15/7 8/16/7 6/17/7
f 9/18/8 10/19/8 8/16/8
f 11/20/9 12/21/9 10/19/9
f 13/22/10 14/23/10 12/21/10
f 15/24/11 16/25/11 14/23/11
f 17/26/12 18/27/12 16/25/12
f 19/28/13 20/29/13 18/27/13
f 21/30/14 22/31/14 20/29/14
f 23/32/15 24/33/15 22/31/15
f 25/34/16 26/35/16 24/33/16
f 27/36/17 28/37/17 26/35/17
f 29/38/18 30/39/18 28/37/18
f 31/40/19 32/41/19 30/39/19
f 33/42/20 34/43/20 32/41/20
f 35/44/21 36/45/21 34/43/21
f 37/46/22 38/47/22 36/45/22
f 39/48/23 40/49/23 38/47/23
f 41/50/24 42/51/24 40/49/24
f 43/52/25 44/53/25 42/51/25
f 45/54/26 46/55/26 44/53/26
f 47/56/27 48/57/27 46/55/27
f 49/58/28 50/59/28 48/57/28
f 51/60/29 52/61/29 50/59/29
f 53/62/30 54/63/30 52/61/30
f 55/64/31 56/65/31 54/63/31
f 57/66/32 58/67/32 56/65/32
f 59/68/33 60/69/33 58/67/33
f 61/70/34 62/71/34 60/69/34
f 63/72/35 64/73/35 62/71/35
f 65/74/36 66/75/36 64/73/36
f 73/76/6 74/77/6 67/78/6
f 67/79/37 68/80/37 66/75/37
f 69/81/38 6/82/38 68/80/38
f 36/83/39 52/84/39 68/85/39
f 43/86/6 41/87/6 71/88/6
f 2/1/1 71/5/1 70/2/1
f 3/4/2 72/7/2 71/5/2
f 4/6/3 73/9/3 72/7/3
f 5/8/4 74/11/4 73/9/4
f 1/10/5 70/89/5 74/11/5
f 2/14/6 1/90/6 5/12/6
f 5/12/6 4/91/6 3/13/6
f 7/15/7 9/18/7 8/16/7
f 9/18/8 11/20/8 10/19/8
f 11/20/9 13/22/9 12/21/9
f 13/22/10 15/24/10 14/23/10
f 15/24/11 17/26/11 16/25/11
f 17/26/12 19/28/12 18/27/12
f 19/28/13 21/30/13 20/29/13
f 21/30/14 23/32/14 22/31/14
f 23/32/15 25/34/15 24/33/15
f 25/34/16 27/36/16 26/35/16
f 27/36/17 29/38/17 28/37/17
f 29/38/18 31/40/18 30/39/18
f 31/40/19 33/42/19 32/41/19
f 33/42/20 35/44/20 34/43/20
f 35/44/21 37/46/21 36/45/21
f 37/46/22 39/48/22 38/47/22
f 39/48/23 41/50/23 40/49/23
f 41/50/24 43/52/24 42/51/24
f 43/52/25 45/54/25 44/53/25
f 45/54/26 47/56/26 46/55/26
f 47/56/27 49/58/27 48/57/27
f 49/58/28 51/60/28 50/59/28
f 51/60/29 53/62/29 52/61/29
f 53/62/30 55/64/30 54/63/30
f 55/64/31 57/66/31 56/65/31
f 57/66/32 59/68/32 58/67/32
f 59/68/33 61/70/33 60/69/33
f 61/70/34 63/72/34 62/71/34
f 63/72/35 65/74/35 64/73/35
f 65/74/36 67/79/36 66/75/36
f 11/92/6 9/93/6 74/77/6
f 9/93/6 7/94/6 74/77/6
f 7/94/6 69/95/6 74/77/6
f 69/95/6 67/78/6 74/77/6
f 67/78/6 65/96/6 73/76/6
f 65/96/6 63/97/6 73/76/6
f 63/97/6 61/98/6 73/76/6
f 61/98/6 59/99/6 73/76/6
f 59/99/6 57/100/6 73/76/6
f 57/100/6 55/101/6 73/76/6
f 55/101/6 53/102/6 72/103/6
f 53/102/6 51/104/6 72/103/6
f 51/104/6 49/105/6 72/103/6
f 72/103/6 73/76/6 55/101/6
f 15/106/6 13/107/6 74/77/6
f 13/107/6 11/92/6 74/77/6
f 19/108/6 17/109/6 70/110/6
f 17/109/6 15/106/6 74/77/6
f 23/111/6 21/112/6 70/110/6
f 21/112/6 19/108/6 70/110/6
f 74/77/6 70/110/6 17/109/6
f 67/79/37 69/81/37 68/80/37
f 69/81/38 7/113/38 6/82/38
f 68/85/39 6/114/39 8/115/39
f 8/115/39 10/116/39 12/117/39
f 12/117/39 14/118/39 16/119/39
f 16/119/39 18/120/39 12/117/39
f 18/120/39 20/121/39 12/117/39
f 20/121/39 22/122/39 24/123/39
f 24/123/39 26/124/39 20/121/39
f 26/124/39 28/125/39 20/121/39
f 28/125/39 30/126/39 32/127/39
f 32/127/39 34/128/39 36/83/39
f 36/83/39 38/129/39 40/130/39
f 40/130/39 42/131/39 44/132/39
f 44/132/39 46/133/39 48/134/39
f 48/134/39 50/135/39 52/84/39
f 52/84/39 54/136/39 56/137/39
f 56/137/39 58/138/39 52/84/39
f 58/138/39 60/139/39 52/84/39
f 60/139/39 62/140/39 64/141/39
f 64/141/39 66/142/39 60/139/39
f 66/142/39 68/85/39 60/139/39
f 68/85/39 8/115/39 12/117/39
f 28/125/39 32/127/39 36/83/39
f 36/83/39 40/130/39 44/132/39
f 44/132/39 48/134/39 52/84/39
f 68/85/39 12/117/39 20/121/39
f 20/121/39 28/125/39 68/85/39
f 28/125/39 36/83/39 68/85/39
f 36/83/39 44/132/39 52/84/39
f 52/84/39 60/139/39 68/85/39
f 25/143/6 23/111/6 70/110/6
f 71/88/6 72/103/6 43/86/6
f 72/103/6 49/105/6 47/144/6
f 45/145/6 72/103/6 47/144/6
f 25/143/6 70/110/6 27/146/6
f 70/110/6 71/88/6 29/147/6
f 29/147/6 27/146/6 70/110/6
f 33/148/6 31/149/6 71/88/6
f 31/149/6 29/147/6 71/88/6
f 37/150/6 35/151/6 71/88/6
f 35/151/6 33/148/6 71/88/6
f 41/87/6 39/152/6 71/88/6
f 39/152/6 37/150/6 71/88/6
f 45/145/6 43/86/6 72/103/6
