# Blender v2.82 (sub 7) OBJ File: 'pegs_test.blend'
# www.blender.org
mtllib square.mtl
o slot_square_collision
v -0.008485 -0.008485 0.008000
v -0.008485 0.008485 0.008000
v 0.008485 0.008485 0.008000
v 0.008485 -0.008485 0.008000
v -0.016000 0.000000 0.001000
v -0.016000 0.000000 0.029000
v -0.015693 0.003121 0.001000
v -0.015693 0.003121 0.029000
v -0.014782 0.006123 0.001000
v -0.014782 0.006123 0.029000
v -0.013304 0.008889 0.001000
v -0.013304 0.008889 0.029000
v -0.011314 0.011314 0.001000
v -0.011314 0.011314 0.029000
v -0.008889 0.013304 0.001000
v -0.008889 0.013304 0.029000
v -0.006123 0.014782 0.001000
v -0.006123 0.014782 0.029000
v -0.003121 0.015693 0.001000
v -0.003121 0.015693 0.029000
v -0.000000 0.016000 0.001000
v -0.000000 0.016000 0.029000
v 0.003121 0.015693 0.001000
v 0.003121 0.015693 0.029000
v 0.006123 0.014782 0.001000
v 0.006123 0.014782 0.029000
v 0.008889 0.013304 0.001000
v 0.008889 0.013304 0.029000
v 0.011314 0.011314 0.001000
v 0.011314 0.011314 0.029000
v 0.013304 0.008889 0.001000
v 0.013304 0.008889 0.029000
v 0.014782 0.006123 0.001000
v 0.014782 0.006123 0.029000
v 0.015693 0.003121 0.001000
v 0.015693 0.003121 0.029000
v 0.016000 -0.000000 0.001000
v 0.016000 -0.000000 0.029000
v 0.015693 -0.003121 0.001000
v 0.015693 -0.003121 0.029000
v 0.014782 -0.006123 0.001000
v 0.014782 -0.006123 0.029000
v 0.013304 -0.008889 0.001000
v 0.013304 -0.008889 0.029000
v 0.011314 -0.011314 0.001000
v 0.011314 -0.011314 0.029000
v 0.008889 -0.013304 0.001000
v 0.008889 -0.013304 0.029000
v 0.006123 -0.014782 0.001000
v 0.006123 -0.014782 0.029000
v 0.003121 -0.015693 0.001000
v 0.003121 -0.015693 0.029000
v -0.000000 -0.016000 0.001000
v -0.000000 -0.016000 0.029000
v -0.003121 -0.015693 0.001000
v -0.003121 -0.015693 0.029000
v -0.006123 -0.014782 0.001000
v -0.006123 -0.014782 0.029000
v -0.008889 -0.013304 0.001000
v -0.008889 -0.013304 0.029000
v -0.011314 -0.011314 0.001000
v -0.011314 -0.011314 0.029000
v -0.013304 -0.008889 0.001000
v -0.013304 -0.008889 0.029000
v -0.014782 -0.006123 0.001000
v -0.014782 -0.006123 0.029000
v -0.015693 -0.003121 0.001000
v -0.015693 -0.003121 0.029000
v -0.008485 0.008485 0.029000
v 0.008485 0.008485 0.029000
v -0.008485 -0.008485 0.029000
v 0.008485 -0.008485 0.029000
vt 0.750000 0.500000
vt 1.000000 0.738636
vt 1.000000 0.500000
vt 0.500000 0.500000
vt 0.750000 0.738636
vt 0.250000 0.500000
vt 0.500000 0.738636
vt 0.000000 0.500000
vt 0.250000 0.738636
vt 0.510000 0.250000
vt 0.990000 0.250000
vt 0.750000 0.490000
vt 1.000000 1.000000
vt 0.968750 0.500000
vt 1.000000 0.500000
vt 0.968750 1.000000
vt 0.937500 0.500000
vt 0.937500 1.000000
vt 0.906250 0.500000
vt 0.906250 1.000000
vt 0.875000 0.500000
vt 0.875000 1.000000
vt 0.843750 0.500000
vt 0.843750 1.000000
vt 0.812500 0.500000
vt 0.812500 1.000000
vt 0.781250 0.500000
vt 0.781250 1.000000
vt 0.750000 0.500000
vt 0.750000 1.000000
vt 0.718750 0.500000
vt 0.718750 1.000000
vt 0.687500 0.500000
vt 0.687500 1.000000
vt 0.656250 0.500000
vt 0.656250 1.000000
vt 0.625000 0.500000
vt 0.625000 1.000000
vt 0.593750 0.500000
vt 0.593750 1.000000
vt 0.562500 0.500000
vt 0.562500 1.000000
vt 0.531250 0.500000
vt 0.531250 1.000000
vt 0.500000 0.500000
vt 0.500000 1.000000
vt 0.468750 0.500000
vt 0.468750 1.000000
vt 0.437500 0.500000
vt 0.437500 1.000000
vt 0.406250 0.500000
vt 0.406250 1.000000
vt 0.375000 0.500000
vt 0.375000 1.000000
vt 0.343750 0.500000
vt 0.343750 1.000000
vt 0.312500 0.500000
vt 0.312500 1.000000
vt 0.281250 0.500000
vt 0.281250 1.000000
vt 0.250000 0.500000
vt 0.250000 1.000000
vt 0.218750 0.500000
vt 0.218750 1.000000
vt 0.187500 0.500000
vt 0.187500 1.000000
vt 0.156250 0.500000
vt 0.156250 1.000000
vt 0.125000 0.500000
vt 0.125000 1.000000
vt 0.093750 0.500000
vt 0.093750 1.000000
vt 0.062500 0.500000
vt 0.383337 0.449553
vt 0.341844 0.471731
vt 0.377279 0.377279
vt 0.062500 1.000000
vt 0.031250 0.500000
vt 0.031250 1.000000
vt 0.000000 0.500000
vt 0.796822 0.014612
vt 0.514611 0.203179
vt 0.703179 0.485389
vt 0.116663 0.050447
vt 0.158156 0.028269
vt 0.122721 0.122721
vt 0.000000 0.738636
vt 0.750000 0.010000
vt 0.296822 0.485388
vt 0.250000 0.490000
vt 0.203179 0.485389
vt 0.122721 0.377279
vt 0.158156 0.471731
vt 0.116663 0.449553
vt 0.080295 0.419706
vt 0.050447 0.383337
vt 0.028269 0.341844
vt 0.014612 0.296822
vt 0.010000 0.250000
vt 0.014612 0.203179
vt 0.028269 0.158156
vt 0.050447 0.116663
vt 0.449553 0.383337
vt 0.419706 0.419706
vt 0.000000 1.000000
vt 0.750000 0.490000
vt 0.796822 0.485388
vt 0.841844 0.471731
vt 0.883337 0.449553
vt 0.919706 0.419706
vt 0.949553 0.383337
vt 0.971731 0.341844
vt 0.985388 0.296822
vt 0.990000 0.250000
vt 0.985388 0.203178
vt 0.971731 0.158156
vt 0.949553 0.116663
vt 0.919706 0.080294
vt 0.883337 0.050447
vt 0.841844 0.028269
vt 0.750000 0.010000
vt 0.703178 0.014612
vt 0.658156 0.028269
vt 0.616663 0.050447
vt 0.580294 0.080294
vt 0.550447 0.116663
vt 0.528269 0.158156
vt 0.510000 0.250000
vt 0.514612 0.296822
vt 0.528269 0.341844
vt 0.550447 0.383337
vt 0.580295 0.419706
vt 0.616663 0.449553
vt 0.658156 0.471731
vt 0.471731 0.341844
vt 0.377279 0.122721
vt 0.250000 0.010000
vt 0.080294 0.080294
vt 0.485388 0.296822
vt 0.490000 0.250000
vt 0.471731 0.158156
vt 0.485388 0.203178
vt 0.419706 0.080294
vt 0.449553 0.116663
vt 0.341844 0.028269
vt 0.383337 0.050447
vt 0.296822 0.014612
vt 0.203178 0.014612
vn 1.0000 0.0000 0.0000
vn -0.0000 -1.0000 0.0000
vn -1.0000 0.0000 0.0000
vn 0.0000 1.0000 0.0000
vn 0.0000 0.0000 1.0000
vn -0.9952 0.0980 0.0000
vn -0.9569 0.2903 0.0000
vn -0.8819 0.4714 0.0000
vn -0.7730 0.6344 0.0000
vn -0.6344 0.7730 0.0000
vn -0.4714 0.8819 0.0000
vn -0.2903 0.9569 0.0000
vn -0.0980 0.9952 0.0000
vn 0.0980 0.9952 0.0000
vn 0.2903 0.9569 0.0000
vn 0.4714 0.8819 0.0000
vn 0.6344 0.7730 0.0000
vn 0.7730 0.6344 0.0000
vn 0.8819 0.4714 0.0000
vn 0.9569 0.2903 0.0000
vn 0.9952 0.0980 0.0000
vn 0.9952 -0.0980 0.0000
vn 0.9569 -0.2903 0.0000
vn 0.8819 -0.4714 0.0000
vn 0.7730 -0.6344 0.0000
vn 0.6344 -0.7730 0.0000
vn 0.4714 -0.8819 0.0000
vn 0.2903 -0.9569 0.0000
vn 0.0980 -0.9952 0.0000
vn -0.0980 -0.9952 0.0000
vn -0.2903 -0.9569 0.0000
vn -0.4714 -0.8819 0.0000
vn -0.6344 -0.7730 0.0000
vn -0.7730 -0.6344 0.0000
vn -0.8819 -0.4714 0.0000
vn -0.9569 -0.2903 0.0000
vn -0.9952 -0.0980 0.0000
vn 0.0000 0.0000 -1.0000
usemtl None
s off
f 2/1/1 71/2/1 1/3/1
f 3/4/2 69/5/2 2/1/2
f 4/6/3 70/7/3 3/4/3
f 1/8/4 72/9/4 4/6/4
f 4/10/5 2/11/5 1/12/5
f 6/13/6 7/14/6 5/15/6
f 8/16/7 9/17/7 7/14/7
f 10/18/8 11/19/8 9/17/8
f 12/20/9 13/21/9 11/19/9
f 14/22/10 15/23/10 13/21/10
f 16/24/11 17/25/11 15/23/11
f 18/26/12 19/27/12 17/25/12
f 20/28/13 21/29/13 19/27/13
f 22/30/14 23/31/14 21/29/14
f 24/32/15 25/33/15 23/31/15
f 26/34/16 27/35/16 25/33/16
f 28/36/17 29/37/17 27/35/17
f 30/38/18 31/39/18 29/37/18
f 32/40/19 33/41/19 31/39/19
f 34/42/20 35/43/20 33/41/20
f 36/44/21 37/45/21 35/43/21
f 38/46/22 39/47/22 37/45/22
f 40/48/23 41/49/23 39/47/23
f 42/50/24 43/51/24 41/49/24
f 44/52/25 45/53/25 43/51/25
f 46/54/26 47/55/26 45/53/26
f 48/56/27 49/57/27 47/55/27
f 50/58/28 51/59/28 49/57/28
f 52/60/29 53/61/29 51/59/29
f 54/62/30 55/63/30 53/61/30
f 56/64/31 57/65/31 55/63/31
f 58/66/32 59/67/32 57/65/32
f 60/68/33 61/69/33 59/67/33
f 62/70/34 63/71/34 61/69/34
f 64/72/35 65/73/35 63/71/35
f 12/74/5 10/75/5 69/76/5
f 66/77/36 67/78/36 65/73/36
f 68/79/37 5/80/37 67/78/37
f 35/81/38 51/82/38 67/83/38
f 44/84/5 42/85/5 72/86/5
f 2/1/1 69/5/1 71/2/1
f 3/4/2 70/7/2 69/5/2
f 4/6/3 72/9/3 70/7/3
f 1/8/4 71/87/4 72/9/4
f 4/10/5 3/88/5 2/11/5
f 6/13/6 8/16/6 7/14/6
f 8/16/7 10/18/7 9/17/7
f 10/18/8 12/20/8 11/19/8
f 12/20/9 14/22/9 13/21/9
f 14/22/10 16/24/10 15/23/10
f 16/24/11 18/26/11 17/25/11
f 18/26/12 20/28/12 19/27/12
f 20/28/13 22/30/13 21/29/13
f 22/30/14 24/32/14 23/31/14
f 24/32/15 26/34/15 25/33/15
f 26/34/16 28/36/16 27/35/16
f 28/36/17 30/38/17 29/37/17
f 30/38/18 32/40/18 31/39/18
f 32/40/19 34/42/19 33/41/19
f 34/42/20 36/44/20 35/43/20
f 36/44/21 38/46/21 37/45/21
f 38/46/22 40/48/22 39/47/22
f 40/48/23 42/50/23 41/49/23
f 42/50/24 44/52/24 43/51/24
f 44/52/25 46/54/25 45/53/25
f 46/54/26 48/56/26 47/55/26
f 48/56/27 50/58/27 49/57/27
f 50/58/28 52/60/28 51/59/28
f 52/60/29 54/62/29 53/61/29
f 54/62/30 56/64/30 55/63/30
f 56/64/31 58/66/31 57/65/31
f 58/66/32 60/68/32 59/67/32
f 60/68/33 62/70/33 61/69/33
f 62/70/34 64/72/34 63/71/34
f 64/72/35 66/77/35 65/73/35
f 10/75/5 8/89/5 69/76/5
f 8/89/5 6/90/5 69/76/5
f 6/90/5 68/91/5 71/92/5
f 68/91/5 66/93/5 71/92/5
f 66/93/5 64/94/5 71/92/5
f 64/94/5 62/95/5 71/92/5
f 62/95/5 60/96/5 71/92/5
f 60/96/5 58/97/5 71/92/5
f 58/97/5 56/98/5 71/92/5
f 56/98/5 54/99/5 71/92/5
f 54/99/5 52/100/5 72/86/5
f 52/100/5 50/101/5 72/86/5
f 50/101/5 48/102/5 72/86/5
f 71/92/5 69/76/5 6/90/5
f 69/76/5 16/103/5 14/104/5
f 72/86/5 71/92/5 54/99/5
f 14/104/5 12/74/5 69/76/5
f 66/77/36 68/79/36 67/78/36
f 68/79/37 6/105/37 5/80/37
f 67/83/38 5/106/38 7/107/38
f 7/107/38 9/108/38 11/109/38
f 11/109/38 13/110/38 15/111/38
f 15/111/38 17/112/38 11/109/38
f 17/112/38 19/113/38 11/109/38
f 19/113/38 21/114/38 23/115/38
f 23/115/38 25/116/38 19/113/38
f 25/116/38 27/117/38 19/113/38
f 27/117/38 29/118/38 31/119/38
f 31/119/38 33/120/38 35/81/38
f 35/81/38 37/121/38 39/122/38
f 39/122/38 41/123/38 43/124/38
f 43/124/38 45/125/38 47/126/38
f 47/126/38 49/127/38 51/82/38
f 51/82/38 53/128/38 55/129/38
f 55/129/38 57/130/38 51/82/38
f 57/130/38 59/131/38 51/82/38
f 59/131/38 61/132/38 63/133/38
f 63/133/38 65/134/38 59/131/38
f 65/134/38 67/83/38 59/131/38
f 67/83/38 7/107/38 11/109/38
f 27/117/38 31/119/38 35/81/38
f 35/81/38 39/122/38 43/124/38
f 43/124/38 47/126/38 51/82/38
f 67/83/38 11/109/38 19/113/38
f 19/113/38 27/117/38 67/83/38
f 27/117/38 35/81/38 67/83/38
f 35/81/38 43/124/38 51/82/38
f 51/82/38 59/131/38 67/83/38
f 18/135/5 16/103/5 69/76/5
f 70/136/5 72/86/5 38/137/5
f 72/86/5 48/102/5 46/138/5
f 18/135/5 69/76/5 20/139/5
f 69/76/5 70/136/5 22/140/5
f 22/140/5 20/139/5 69/76/5
f 26/141/5 24/142/5 70/136/5
f 24/142/5 22/140/5 70/136/5
f 30/143/5 28/144/5 70/136/5
f 28/144/5 26/141/5 70/136/5
f 34/145/5 32/146/5 70/136/5
f 32/146/5 30/143/5 70/136/5
f 38/137/5 36/147/5 70/136/5
f 36/147/5 34/145/5 70/136/5
f 42/85/5 40/148/5 72/86/5
f 40/148/5 38/137/5 72/86/5
f 46/138/5 44/84/5 72/86/5
